<?xml version="1.0" encoding="us-ascii" standalone="no"?><svg xmlns="http://www.w3.org/2000/svg" xmlns:xlink="http://www.w3.org/1999/xlink" contentStyleType="text/css" height="323px" preserveAspectRatio="none" style="width:929px;height:323px;background:#FFFFFF;" version="1.1" viewBox="0 0 929 323" width="929px" zoomAndPan="magnify"><defs/><g><rect fill="#FFFFFF" height="173.1406" style="stroke:#181818;stroke-width:1.0;" width="10" x="283" y="81.8047"/><rect fill="#FFFFFF" height="28.5234" style="stroke:#181818;stroke-width:1.0;" width="10" x="568" y="133.8516"/><rect fill="#FFFFFF" height="28.5234" style="stroke:#181818;stroke-width:1.0;" width="10" x="789" y="190.8984"/><rect fill="none" height="130.6172" style="stroke:#000000;stroke-width:1.5;" width="738.5" x="184.5" y="96.8047"/><line style="stroke:#181818;stroke-width:0.5;stroke-dasharray:5.0,5.0;" x1="287.5" x2="287.5" y1="51.2813" y2="272.9453"/><line style="stroke:#181818;stroke-width:0.5;stroke-dasharray:5.0,5.0;" x1="439.5" x2="439.5" y1="51.2813" y2="272.9453"/><line style="stroke:#181818;stroke-width:0.5;stroke-dasharray:5.0,5.0;" x1="572.5" x2="572.5" y1="51.2813" y2="272.9453"/><line style="stroke:#181818;stroke-width:0.5;stroke-dasharray:5.0,5.0;" x1="794" x2="794" y1="51.2813" y2="272.9453"/><rect fill="#E3E3E3" height="29.6406" rx="2.5" ry="2.5" style="stroke:#181818;stroke-width:0.5;" width="187" x="194.5" y="20.6406"/><text fill="#000000" font-family="sans-serif" font-size="14" lengthAdjust="spacing" textLength="173" x="201.5" y="40.3145">:RequestPropertyController</text><rect fill="#E3E3E3" height="29.6406" rx="2.5" ry="2.5" style="stroke:#181818;stroke-width:0.5;" width="187" x="194.5" y="271.9453"/><text fill="#000000" font-family="sans-serif" font-size="14" lengthAdjust="spacing" textLength="173" x="201.5" y="291.6191">:RequestPropertyController</text><rect fill="#E3E3E3" height="29.6406" rx="2.5" ry="2.5" style="stroke:#181818;stroke-width:0.5;" width="97" x="391.5" y="20.6406"/><text fill="#000000" font-family="sans-serif" font-size="14" lengthAdjust="spacing" textLength="83" x="398.5" y="40.3145">:Repositories</text><rect fill="#E3E3E3" height="29.6406" rx="2.5" ry="2.5" style="stroke:#181818;stroke-width:0.5;" width="97" x="391.5" y="271.9453"/><text fill="#000000" font-family="sans-serif" font-size="14" lengthAdjust="spacing" textLength="83" x="398.5" y="291.6191">:Repositories</text><rect fill="#E3E3E3" height="45.2813" rx="2.5" ry="2.5" style="stroke:#181818;stroke-width:0.5;" width="97" x="524.5" y="5"/><text fill="#000000" font-family="sans-serif" font-size="14" lengthAdjust="spacing" textLength="74" x="536" y="24.6738">repositories</text><text fill="#000000" font-family="sans-serif" font-size="14" lengthAdjust="spacing" textLength="83" x="531.5" y="40.3145">:Repositories</text><rect fill="#E3E3E3" height="45.2813" rx="2.5" ry="2.5" style="stroke:#181818;stroke-width:0.5;" width="97" x="524.5" y="271.9453"/><text fill="#000000" font-family="sans-serif" font-size="14" lengthAdjust="spacing" textLength="74" x="536" y="291.6191">repositories</text><text fill="#000000" font-family="sans-serif" font-size="14" lengthAdjust="spacing" textLength="83" x="531.5" y="307.2598">:Repositories</text><rect fill="#E3E3E3" height="45.2813" rx="2.5" ry="2.5" style="stroke:#181818;stroke-width:0.5;" width="238" x="675" y="5"/><text fill="#000000" font-family="sans-serif" font-size="14" lengthAdjust="spacing" textLength="224" x="682" y="24.6738">announcementCategoryRepository:</text><text fill="#000000" font-family="sans-serif" font-size="14" lengthAdjust="spacing" textLength="221" x="683.5" y="40.3145">AnnouncementCategoryRepository</text><rect fill="#E3E3E3" height="45.2813" rx="2.5" ry="2.5" style="stroke:#181818;stroke-width:0.5;" width="238" x="675" y="271.9453"/><text fill="#000000" font-family="sans-serif" font-size="14" lengthAdjust="spacing" textLength="224" x="682" y="291.6191">announcementCategoryRepository:</text><text fill="#000000" font-family="sans-serif" font-size="14" lengthAdjust="spacing" textLength="221" x="683.5" y="307.2598">AnnouncementCategoryRepository</text><rect fill="#FFFFFF" height="173.1406" style="stroke:#181818;stroke-width:1.0;" width="10" x="283" y="81.8047"/><rect fill="#FFFFFF" height="28.5234" style="stroke:#181818;stroke-width:1.0;" width="10" x="568" y="133.8516"/><rect fill="#FFFFFF" height="28.5234" style="stroke:#181818;stroke-width:1.0;" width="10" x="789" y="190.8984"/><polygon fill="#181818" points="271,77.8047,281,81.8047,271,85.8047,275,81.8047" style="stroke:#181818;stroke-width:1.0;"/><line style="stroke:#181818;stroke-width:1.0;" x1="0" x2="277" y1="81.8047" y2="81.8047"/><text fill="#000000" font-family="sans-serif" font-size="13" font-weight="bold" lengthAdjust="spacing" textLength="14" x="7" y="77.0498">15</text><text fill="#000000" font-family="sans-serif" font-size="13" lengthAdjust="spacing" textLength="246" x="25" y="77.0498">getAnnouncementCategoryByDescription()</text><path d="M184.5,96.8047 L457.5,96.8047 L457.5,103.3281 L447.5,113.3281 L184.5,113.3281 L184.5,96.8047 " fill="#EEEEEE" style="stroke:#000000;stroke-width:1.5;"/><rect fill="none" height="130.6172" style="stroke:#000000;stroke-width:1.5;" width="738.5" x="184.5" y="96.8047"/><text fill="#000000" font-family="sans-serif" font-size="13" font-weight="bold" lengthAdjust="spacing" textLength="228" x="199.5" y="109.5732">Get Announcement Category Object</text><polygon fill="#181818" points="556,129.8516,566,133.8516,556,137.8516,560,133.8516" style="stroke:#181818;stroke-width:1.0;"/><line style="stroke:#181818;stroke-width:1.0;" x1="293" x2="562" y1="133.8516" y2="133.8516"/><text fill="#000000" font-family="sans-serif" font-size="13" font-weight="bold" lengthAdjust="spacing" textLength="25" x="300" y="129.0967">15.1</text><text fill="#000000" font-family="sans-serif" font-size="13" lengthAdjust="spacing" textLength="227" x="329" y="129.0967">getAnnouncementCategoryRepository()</text><polygon fill="#181818" points="304,158.375,294,162.375,304,166.375,300,162.375" style="stroke:#181818;stroke-width:1.0;"/><line style="stroke:#181818;stroke-width:1.0;" x1="298" x2="572" y1="162.375" y2="162.375"/><text fill="#000000" font-family="sans-serif" font-size="13" font-weight="bold" lengthAdjust="spacing" textLength="25" x="310" y="157.6201">15.2</text><text fill="#000000" font-family="sans-serif" font-size="13" lengthAdjust="spacing" textLength="199" x="339" y="157.6201">announcementCategoryRepository</text><polygon fill="#181818" points="777,186.8984,787,190.8984,777,194.8984,781,190.8984" style="stroke:#181818;stroke-width:1.0;"/><line style="stroke:#181818;stroke-width:1.0;" x1="293" x2="783" y1="190.8984" y2="190.8984"/><text fill="#000000" font-family="sans-serif" font-size="13" font-weight="bold" lengthAdjust="spacing" textLength="25" x="300" y="186.1436">15.3</text><text fill="#000000" font-family="sans-serif" font-size="13" lengthAdjust="spacing" textLength="448" x="329" y="186.1436">getAnnouncementCategoryByDescription(announcementCategoryDescription)</text><polygon fill="#181818" points="304,215.4219,294,219.4219,304,223.4219,300,219.4219" style="stroke:#181818;stroke-width:1.0;"/><line style="stroke:#181818;stroke-width:1.0;" x1="298" x2="793" y1="219.4219" y2="219.4219"/><text fill="#000000" font-family="sans-serif" font-size="13" font-weight="bold" lengthAdjust="spacing" textLength="25" x="310" y="214.667">15.4</text><text fill="#000000" font-family="sans-serif" font-size="13" lengthAdjust="spacing" textLength="137" x="339" y="214.667">announcementCategory</text><polygon fill="#181818" points="11,250.9453,1,254.9453,11,258.9453,7,254.9453" style="stroke:#181818;stroke-width:1.0;"/><line style="stroke:#181818;stroke-width:1.0;stroke-dasharray:2.0,2.0;" x1="5" x2="287" y1="254.9453" y2="254.9453"/><text fill="#000000" font-family="sans-serif" font-size="13" font-weight="bold" lengthAdjust="spacing" textLength="14" x="17" y="250.1904">16</text><text fill="#000000" font-family="sans-serif" font-size="13" lengthAdjust="spacing" textLength="137" x="35" y="250.1904">announcementCategory</text><!--SRC=[ZL8zRy8m4DtzAqwTse5A3Es0gagKIbsGYe2HnPXhS4dExldIAl- -nbL2A27W9TBvVTrpmiwIrwmBA1mvisLN80YNg49puxNPwGmNKkK8Z4OqPNaR4BPwutuiPV2Xyu1AnR5OOxqcWPlH7BzA339Zvv6bcZWITdcEV0Cwm6GvdvuGl0jM75iC2TCCgeNTUukZOmgt62iw5PXDnyjZXYPo9Haia6IY1RCeVh0PhMZS2qYg_H2bT1c3biKQ6OOFIWsUqx8mWWobY_jIlM8mRBrOHxTt_mJkXqeRiTyH_5SQn9EnApsyeHo5WLeHtjUVyS5KmkvF2X23x0iv7-ImH4nHKnlpL6OpJag7rVfxRLWRF2DN1-oFTMs7NMbQzntBNNhJcd0XNtyXNJLSOuoqIT_sV_6O9a-3mKN3bbdwVzGl]--></g></svg>