<?xml version="1.0" encoding="us-ascii" standalone="no"?><svg xmlns="http://www.w3.org/2000/svg" xmlns:xlink="http://www.w3.org/1999/xlink" contentStyleType="text/css" height="323px" preserveAspectRatio="none" style="width:682px;height:323px;background:#FFFFFF;" version="1.1" viewBox="0 0 682 323" width="682px" zoomAndPan="magnify"><defs/><g><rect fill="#FFFFFF" height="173.1406" style="stroke:#181818;stroke-width:1.0;" width="10" x="191" y="81.8047"/><rect fill="#FFFFFF" height="28.5234" style="stroke:#181818;stroke-width:1.0;" width="10" x="470.5" y="133.8516"/><rect fill="#FFFFFF" height="28.5234" style="stroke:#181818;stroke-width:1.0;" width="10" x="595" y="190.8984"/><rect fill="none" height="130.6172" style="stroke:#000000;stroke-width:1.5;" width="604" x="72" y="96.8047"/><line style="stroke:#181818;stroke-width:0.5;stroke-dasharray:5.0,5.0;" x1="196" x2="196" y1="51.2813" y2="272.9453"/><line style="stroke:#181818;stroke-width:0.5;stroke-dasharray:5.0,5.0;" x1="368" x2="368" y1="51.2813" y2="272.9453"/><line style="stroke:#181818;stroke-width:0.5;stroke-dasharray:5.0,5.0;" x1="475" x2="475" y1="51.2813" y2="272.9453"/><line style="stroke:#181818;stroke-width:0.5;stroke-dasharray:5.0,5.0;" x1="600" x2="600" y1="51.2813" y2="272.9453"/><rect fill="#E3E3E3" height="29.6406" rx="2.5" ry="2.5" style="stroke:#181818;stroke-width:0.5;" width="228" x="82" y="20.6406"/><text fill="#000000" font-family="sans-serif" font-size="14" lengthAdjust="spacing" textLength="214" x="89" y="40.3145">:RequestAnnouncementController</text><rect fill="#E3E3E3" height="29.6406" rx="2.5" ry="2.5" style="stroke:#181818;stroke-width:0.5;" width="228" x="82" y="271.9453"/><text fill="#000000" font-family="sans-serif" font-size="14" lengthAdjust="spacing" textLength="214" x="89" y="291.6191">:RequestAnnouncementController</text><rect fill="#E3E3E3" height="29.6406" rx="2.5" ry="2.5" style="stroke:#181818;stroke-width:0.5;" width="97" x="320" y="20.6406"/><text fill="#000000" font-family="sans-serif" font-size="14" lengthAdjust="spacing" textLength="83" x="327" y="40.3145">:Repositories</text><rect fill="#E3E3E3" height="29.6406" rx="2.5" ry="2.5" style="stroke:#181818;stroke-width:0.5;" width="97" x="320" y="271.9453"/><text fill="#000000" font-family="sans-serif" font-size="14" lengthAdjust="spacing" textLength="83" x="327" y="291.6191">:Repositories</text><rect fill="#E3E3E3" height="45.2813" rx="2.5" ry="2.5" style="stroke:#181818;stroke-width:0.5;" width="97" x="427" y="5"/><text fill="#000000" font-family="sans-serif" font-size="14" lengthAdjust="spacing" textLength="74" x="438.5" y="24.6738">repositories</text><text fill="#000000" font-family="sans-serif" font-size="14" lengthAdjust="spacing" textLength="83" x="434" y="40.3145">:Repositories</text><rect fill="#E3E3E3" height="45.2813" rx="2.5" ry="2.5" style="stroke:#181818;stroke-width:0.5;" width="97" x="427" y="271.9453"/><text fill="#000000" font-family="sans-serif" font-size="14" lengthAdjust="spacing" textLength="74" x="438.5" y="291.6191">repositories</text><text fill="#000000" font-family="sans-serif" font-size="14" lengthAdjust="spacing" textLength="83" x="434" y="307.2598">:Repositories</text><rect fill="#E3E3E3" height="45.2813" rx="2.5" ry="2.5" style="stroke:#181818;stroke-width:0.5;" width="132" x="534" y="5"/><text fill="#000000" font-family="sans-serif" font-size="14" lengthAdjust="spacing" textLength="118" x="541" y="24.6738">agencyRepository:</text><text fill="#000000" font-family="sans-serif" font-size="14" lengthAdjust="spacing" textLength="115" x="542.5" y="40.3145">AgencyRepository</text><rect fill="#E3E3E3" height="45.2813" rx="2.5" ry="2.5" style="stroke:#181818;stroke-width:0.5;" width="132" x="534" y="271.9453"/><text fill="#000000" font-family="sans-serif" font-size="14" lengthAdjust="spacing" textLength="118" x="541" y="291.6191">agencyRepository:</text><text fill="#000000" font-family="sans-serif" font-size="14" lengthAdjust="spacing" textLength="115" x="542.5" y="307.2598">AgencyRepository</text><rect fill="#FFFFFF" height="173.1406" style="stroke:#181818;stroke-width:1.0;" width="10" x="191" y="81.8047"/><rect fill="#FFFFFF" height="28.5234" style="stroke:#181818;stroke-width:1.0;" width="10" x="470.5" y="133.8516"/><rect fill="#FFFFFF" height="28.5234" style="stroke:#181818;stroke-width:1.0;" width="10" x="595" y="190.8984"/><polygon fill="#181818" points="179,77.8047,189,81.8047,179,85.8047,183,81.8047" style="stroke:#181818;stroke-width:1.0;"/><line style="stroke:#181818;stroke-width:1.0;" x1="0" x2="185" y1="81.8047" y2="81.8047"/><text fill="#000000" font-family="sans-serif" font-size="13" font-weight="bold" lengthAdjust="spacing" textLength="14" x="7" y="77.0498">34</text><text fill="#000000" font-family="sans-serif" font-size="13" lengthAdjust="spacing" textLength="154" x="25" y="77.0498">getAgencyByDesignation()</text><path d="M72,96.8047 L235,96.8047 L235,103.3281 L225,113.3281 L72,113.3281 L72,96.8047 " fill="#EEEEEE" style="stroke:#000000;stroke-width:1.5;"/><rect fill="none" height="130.6172" style="stroke:#000000;stroke-width:1.5;" width="604" x="72" y="96.8047"/><text fill="#000000" font-family="sans-serif" font-size="13" font-weight="bold" lengthAdjust="spacing" textLength="118" x="87" y="109.5732">Get Agency Object</text><polygon fill="#181818" points="458.5,129.8516,468.5,133.8516,458.5,137.8516,462.5,133.8516" style="stroke:#181818;stroke-width:1.0;"/><line style="stroke:#181818;stroke-width:1.0;" x1="201" x2="464.5" y1="133.8516" y2="133.8516"/><text fill="#000000" font-family="sans-serif" font-size="13" font-weight="bold" lengthAdjust="spacing" textLength="25" x="208" y="129.0967">34.1</text><text fill="#000000" font-family="sans-serif" font-size="13" lengthAdjust="spacing" textLength="142" x="237" y="129.0967">getAgencyRepository(id)</text><polygon fill="#181818" points="212,158.375,202,162.375,212,166.375,208,162.375" style="stroke:#181818;stroke-width:1.0;"/><line style="stroke:#181818;stroke-width:1.0;stroke-dasharray:2.0,2.0;" x1="206" x2="474.5" y1="162.375" y2="162.375"/><text fill="#000000" font-family="sans-serif" font-size="13" font-weight="bold" lengthAdjust="spacing" textLength="25" x="218" y="157.6201">34.2</text><text fill="#000000" font-family="sans-serif" font-size="13" lengthAdjust="spacing" textLength="114" x="247" y="157.6201">agenciesRepository</text><polygon fill="#181818" points="583,186.8984,593,190.8984,583,194.8984,587,190.8984" style="stroke:#181818;stroke-width:1.0;"/><line style="stroke:#181818;stroke-width:1.0;" x1="201" x2="589" y1="190.8984" y2="190.8984"/><text fill="#000000" font-family="sans-serif" font-size="13" font-weight="bold" lengthAdjust="spacing" textLength="25" x="208" y="186.1436">34.3</text><text fill="#000000" font-family="sans-serif" font-size="13" lengthAdjust="spacing" textLength="220" x="237" y="186.1436">getAgencyByDesignation(designation)</text><polygon fill="#181818" points="212,215.4219,202,219.4219,212,223.4219,208,219.4219" style="stroke:#181818;stroke-width:1.0;"/><line style="stroke:#181818;stroke-width:1.0;stroke-dasharray:2.0,2.0;" x1="206" x2="599" y1="219.4219" y2="219.4219"/><text fill="#000000" font-family="sans-serif" font-size="13" font-weight="bold" lengthAdjust="spacing" textLength="25" x="218" y="214.667">34.4</text><text fill="#000000" font-family="sans-serif" font-size="13" lengthAdjust="spacing" textLength="42" x="247" y="214.667">agency</text><polygon fill="#181818" points="11,250.9453,1,254.9453,11,258.9453,7,254.9453" style="stroke:#181818;stroke-width:1.0;"/><line style="stroke:#181818;stroke-width:1.0;stroke-dasharray:2.0,2.0;" x1="5" x2="195" y1="254.9453" y2="254.9453"/><text fill="#000000" font-family="sans-serif" font-size="13" font-weight="bold" lengthAdjust="spacing" textLength="14" x="17" y="250.1904">35</text><text fill="#000000" font-family="sans-serif" font-size="13" lengthAdjust="spacing" textLength="42" x="35" y="250.1904">agency</text><!--SRC=[VL5BJyCm3BxdLrWxROSY8U1I8QGn92wJGDkEksIfruMrJabSKFyzMVPescxaqihsz_1djzTKIIjBA0qPjREcH61Ret2NJYNLNkQuvAP0iAXOKbx40sudC_EhAOUjB1mAuSkibQuaCOpI1NxNw7XAP6fIM2Bnp11RKnHeHo0Tp5QB-G1K6QVPM8qkp5mApL8VzDbG5s8Zn9g619_pwQgBy4kHQbhYT4tJNYaW-qKXPEtbwtA35XuUXKXUmWgGGevyd7vjtj3fd2HhG-D93t9tBwHY_ICPZyk3VxarTGNlo2T1-DXy-RH5Q9vVqF5wXsrYlTRTM6UJ3kIY51Bej09BShAVGWZ4vnMj6azd-0_LsLZVpkrGilR_Xk5XyF7OG2bfxt0yxIttrtcHil2DB_KKAiz9SeKu8Wmt_0C0]--></g></svg>