<?xml version="1.0" encoding="us-ascii" standalone="no"?><svg xmlns="http://www.w3.org/2000/svg" xmlns:xlink="http://www.w3.org/1999/xlink" contentStyleType="text/css" height="2282px" preserveAspectRatio="none" style="width:1464px;height:2282px;background:#FFFFFF;" version="1.1" viewBox="0 0 1464 2282" width="1464px" zoomAndPan="magnify"><defs/><g><rect fill="#FFFFFF" height="2094.0781" style="stroke:#181818;stroke-width:1.0;" width="10" x="38.5" y="90.6406"/><rect fill="#FFFFFF" height="182.5469" style="stroke:#181818;stroke-width:1.0;" width="10" x="565.5" y="111.1641"/><rect fill="#FFFFFF" height="183.4297" style="stroke:#181818;stroke-width:1.0;" width="10" x="565.5" y="322.2344"/><rect fill="#FFFFFF" height="28.5234" style="stroke:#181818;stroke-width:1.0;" width="10" x="565.5" y="557.7109"/><rect fill="#FFFFFF" height="1578.9609" style="stroke:#181818;stroke-width:1.0;" width="10" x="565.5" y="614.7578"/><rect fill="#FFFFFF" height="28.5234" style="stroke:#181818;stroke-width:1.0;" width="10" x="570.5" y="686.8047"/><rect fill="#FFFFFF" height="133.3828" style="stroke:#181818;stroke-width:1.0;" width="10" x="570.5" y="743.8516"/><rect fill="#FFFFFF" height="183.4297" style="stroke:#181818;stroke-width:1.0;" width="10" x="570.5" y="905.7578"/><rect fill="#FFFFFF" height="183.4297" style="stroke:#181818;stroke-width:1.0;" width="10" x="570.5" y="1117.7109"/><rect fill="#FFFFFF" height="70.0469" style="stroke:#181818;stroke-width:1.0;" width="10" x="570.5" y="1329.6641"/><rect fill="#FFFFFF" height="756.4844" style="stroke:#181818;stroke-width:1.0;" width="10" x="570.5" y="1428.2344"/><rect fill="#FFFFFF" height="84.8594" style="stroke:#181818;stroke-width:1.0;" width="10" x="901.5" y="180.3281"/><rect fill="#FFFFFF" height="84.8594" style="stroke:#181818;stroke-width:1.0;" width="10" x="901.5" y="392.2813"/><rect fill="#FFFFFF" height="84.8594" style="stroke:#181818;stroke-width:1.0;" width="10" x="901.5" y="975.8047"/><rect fill="#FFFFFF" height="84.8594" style="stroke:#181818;stroke-width:1.0;" width="10" x="901.5" y="1187.7578"/><rect fill="#FFFFFF" height="699.4375" style="stroke:#181818;stroke-width:1.0;" width="10" x="901.5" y="1456.7578"/><rect fill="#FFFFFF" height="84.8594" style="stroke:#181818;stroke-width:1.0;" width="10" x="1391.5" y="2042.8125"/><rect fill="none" height="272.7109" style="stroke:#000000;stroke-width:1.5;" width="744.5" x="10" y="520.6641"/><line style="stroke:#181818;stroke-width:0.5;stroke-dasharray:5.0,5.0;" x1="43" x2="43" y1="80.6406" y2="2202.7188"/><line style="stroke:#181818;stroke-width:0.5;stroke-dasharray:5.0,5.0;" x1="570" x2="570" y1="80.6406" y2="2202.7188"/><line style="stroke:#181818;stroke-width:0.5;stroke-dasharray:5.0,5.0;" x1="906" x2="906" y1="149.4844" y2="2202.7188"/><line style="stroke:#181818;stroke-width:0.5;stroke-dasharray:5.0,5.0;" x1="1396" x2="1396" y1="80.6406" y2="2202.7188"/><text fill="#000000" font-family="sans-serif" font-size="14" lengthAdjust="spacing" textLength="41" x="20" y="77.6738">Owner</text><ellipse cx="43.5" cy="13.5" fill="#E3E3E3" rx="8" ry="8" style="stroke:#181818;stroke-width:0.5;"/><path d="M43.5,21.5 L43.5,48.5 M30.5,29.5 L56.5,29.5 M43.5,48.5 L30.5,63.5 M43.5,48.5 L56.5,63.5 " fill="none" style="stroke:#181818;stroke-width:0.5;"/><text fill="#000000" font-family="sans-serif" font-size="14" lengthAdjust="spacing" textLength="41" x="20" y="2214.3926">Owner</text><ellipse cx="43.5" cy="2225.8594" fill="#E3E3E3" rx="8" ry="8" style="stroke:#181818;stroke-width:0.5;"/><path d="M43.5,2233.8594 L43.5,2260.8594 M30.5,2241.8594 L56.5,2241.8594 M43.5,2260.8594 L30.5,2275.8594 M43.5,2260.8594 L56.5,2275.8594 " fill="none" style="stroke:#181818;stroke-width:0.5;"/><rect fill="#E3E3E3" height="29.6406" rx="2.5" ry="2.5" style="stroke:#181818;stroke-width:0.5;" width="137" x="502" y="50"/><text fill="#000000" font-family="sans-serif" font-size="14" lengthAdjust="spacing" textLength="123" x="509" y="69.6738">:RequestPropertyUI</text><rect fill="#E3E3E3" height="29.6406" rx="2.5" ry="2.5" style="stroke:#181818;stroke-width:0.5;" width="137" x="502" y="2201.7188"/><text fill="#000000" font-family="sans-serif" font-size="14" lengthAdjust="spacing" textLength="123" x="509" y="2221.3926">:RequestPropertyUI</text><rect fill="#E3E3E3" height="29.6406" rx="2.5" ry="2.5" style="stroke:#181818;stroke-width:0.5;" width="187" x="813" y="2201.7188"/><text fill="#000000" font-family="sans-serif" font-size="14" lengthAdjust="spacing" textLength="173" x="820" y="2221.3926">:RequestPropertyController</text><rect fill="#E3E3E3" height="45.2813" rx="2.5" ry="2.5" style="stroke:#181818;stroke-width:0.5;" width="65" x="1364" y="34.3594"/><text fill="#000000" font-family="sans-serif" font-size="14" lengthAdjust="spacing" textLength="46" x="1373.5" y="54.0332">agency</text><text fill="#000000" font-family="sans-serif" font-size="14" lengthAdjust="spacing" textLength="51" x="1371" y="69.6738">:Agency</text><rect fill="#E3E3E3" height="45.2813" rx="2.5" ry="2.5" style="stroke:#181818;stroke-width:0.5;" width="65" x="1364" y="2201.7188"/><text fill="#000000" font-family="sans-serif" font-size="14" lengthAdjust="spacing" textLength="46" x="1373.5" y="2221.3926">agency</text><text fill="#000000" font-family="sans-serif" font-size="14" lengthAdjust="spacing" textLength="51" x="1371" y="2237.0332">:Agency</text><rect fill="#FFFFFF" height="2094.0781" style="stroke:#181818;stroke-width:1.0;" width="10" x="38.5" y="90.6406"/><rect fill="#FFFFFF" height="182.5469" style="stroke:#181818;stroke-width:1.0;" width="10" x="565.5" y="111.1641"/><rect fill="#FFFFFF" height="183.4297" style="stroke:#181818;stroke-width:1.0;" width="10" x="565.5" y="322.2344"/><rect fill="#FFFFFF" height="28.5234" style="stroke:#181818;stroke-width:1.0;" width="10" x="565.5" y="557.7109"/><rect fill="#FFFFFF" height="1578.9609" style="stroke:#181818;stroke-width:1.0;" width="10" x="565.5" y="614.7578"/><rect fill="#FFFFFF" height="28.5234" style="stroke:#181818;stroke-width:1.0;" width="10" x="570.5" y="686.8047"/><rect fill="#FFFFFF" height="133.3828" style="stroke:#181818;stroke-width:1.0;" width="10" x="570.5" y="743.8516"/><rect fill="#FFFFFF" height="183.4297" style="stroke:#181818;stroke-width:1.0;" width="10" x="570.5" y="905.7578"/><rect fill="#FFFFFF" height="183.4297" style="stroke:#181818;stroke-width:1.0;" width="10" x="570.5" y="1117.7109"/><rect fill="#FFFFFF" height="70.0469" style="stroke:#181818;stroke-width:1.0;" width="10" x="570.5" y="1329.6641"/><rect fill="#FFFFFF" height="756.4844" style="stroke:#181818;stroke-width:1.0;" width="10" x="570.5" y="1428.2344"/><rect fill="#FFFFFF" height="84.8594" style="stroke:#181818;stroke-width:1.0;" width="10" x="901.5" y="180.3281"/><rect fill="#FFFFFF" height="84.8594" style="stroke:#181818;stroke-width:1.0;" width="10" x="901.5" y="392.2813"/><rect fill="#FFFFFF" height="84.8594" style="stroke:#181818;stroke-width:1.0;" width="10" x="901.5" y="975.8047"/><rect fill="#FFFFFF" height="84.8594" style="stroke:#181818;stroke-width:1.0;" width="10" x="901.5" y="1187.7578"/><rect fill="#FFFFFF" height="699.4375" style="stroke:#181818;stroke-width:1.0;" width="10" x="901.5" y="1456.7578"/><rect fill="#FFFFFF" height="84.8594" style="stroke:#181818;stroke-width:1.0;" width="10" x="1391.5" y="2042.8125"/><polygon fill="#181818" points="553.5,107.1641,563.5,111.1641,553.5,115.1641,557.5,111.1641" style="stroke:#181818;stroke-width:1.0;"/><line style="stroke:#181818;stroke-width:1.0;" x1="48.5" x2="559.5" y1="111.1641" y2="111.1641"/><text fill="#000000" font-family="sans-serif" font-size="13" font-weight="bold" lengthAdjust="spacing" textLength="7" x="55.5" y="106.4092">1</text><text fill="#000000" font-family="sans-serif" font-size="13" lengthAdjust="spacing" textLength="259" x="66.5" y="106.4092">asks to submit a request to listing a property</text><polygon fill="#181818" points="801,135.6875,811,139.6875,801,143.6875,805,139.6875" style="stroke:#181818;stroke-width:1.0;"/><line style="stroke:#181818;stroke-width:1.0;" x1="575.5" x2="807" y1="139.6875" y2="139.6875"/><text fill="#000000" font-family="sans-serif" font-size="13" font-weight="bold" lengthAdjust="spacing" textLength="7" x="582.5" y="134.9326">2</text><text fill="#000000" font-family="sans-serif" font-size="13" lengthAdjust="spacing" textLength="36" x="593.5" y="134.9326">create</text><rect fill="#E3E3E3" height="29.6406" rx="2.5" ry="2.5" style="stroke:#181818;stroke-width:0.5;" width="187" x="813" y="119.1641"/><text fill="#000000" font-family="sans-serif" font-size="14" lengthAdjust="spacing" textLength="173" x="820" y="138.8379">:RequestPropertyController</text><polygon fill="#181818" points="889.5,176.3281,899.5,180.3281,889.5,184.3281,893.5,180.3281" style="stroke:#181818;stroke-width:1.0;"/><line style="stroke:#181818;stroke-width:1.0;" x1="575.5" x2="895.5" y1="180.3281" y2="180.3281"/><text fill="#000000" font-family="sans-serif" font-size="13" font-weight="bold" lengthAdjust="spacing" textLength="7" x="582.5" y="175.5732">3</text><text fill="#000000" font-family="sans-serif" font-size="13" lengthAdjust="spacing" textLength="148" x="593.5" y="175.5732">getPropertyCategoryList()</text><rect fill="none" height="51.3359" style="stroke:#000000;stroke-width:1.5;" width="193" x="810" y="188.3281"/><path d="M810,188.3281 L872,188.3281 L872,194.3281 L862,204.3281 L810,204.3281 L810,188.3281 " fill="#EEEEEE" style="stroke:#000000;stroke-width:2.0;"/><text fill="#000000" font-family="sans-serif" font-size="13" font-weight="bold" lengthAdjust="spacing" textLength="17" x="823" y="202.0967">ref</text><text fill="#000000" font-family="sans-serif" font-size="12" lengthAdjust="spacing" textLength="142" x="835.5" y="219.1914">Get Property Category List</text><text fill="#000000" font-family="sans-serif" font-size="12" lengthAdjust="spacing" textLength="3" x="905" y="232.5977">&#160;</text><polygon fill="#181818" points="586.5,261.1875,576.5,265.1875,586.5,269.1875,582.5,265.1875" style="stroke:#181818;stroke-width:1.0;"/><line style="stroke:#181818;stroke-width:1.0;stroke-dasharray:2.0,2.0;" x1="580.5" x2="905.5" y1="265.1875" y2="265.1875"/><text fill="#000000" font-family="sans-serif" font-size="13" font-weight="bold" lengthAdjust="spacing" textLength="7" x="592.5" y="260.4326">4</text><text fill="#000000" font-family="sans-serif" font-size="13" lengthAdjust="spacing" textLength="120" x="603.5" y="260.4326">propertyCategoryList</text><polygon fill="#181818" points="59.5,289.7109,49.5,293.7109,59.5,297.7109,55.5,293.7109" style="stroke:#181818;stroke-width:1.0;"/><line style="stroke:#181818;stroke-width:1.0;stroke-dasharray:2.0,2.0;" x1="53.5" x2="569.5" y1="293.7109" y2="293.7109"/><text fill="#000000" font-family="sans-serif" font-size="13" font-weight="bold" lengthAdjust="spacing" textLength="7" x="65.5" y="288.9561">5</text><text fill="#000000" font-family="sans-serif" font-size="13" lengthAdjust="spacing" textLength="323" x="76.5" y="288.9561">shows property  category list (apartment, house or land)</text><polygon fill="#181818" points="553.5,318.2344,563.5,322.2344,553.5,326.2344,557.5,322.2344" style="stroke:#181818;stroke-width:1.0;"/><line style="stroke:#181818;stroke-width:1.0;" x1="48.5" x2="559.5" y1="322.2344" y2="322.2344"/><text fill="#000000" font-family="sans-serif" font-size="13" font-weight="bold" lengthAdjust="spacing" textLength="7" x="55.5" y="317.4795">6</text><text fill="#000000" font-family="sans-serif" font-size="13" lengthAdjust="spacing" textLength="158" x="66.5" y="317.4795">selects a property category</text><line style="stroke:#181818;stroke-width:1.0;stroke-dasharray:2.0,2.0;" x1="575.5" x2="617.5" y1="350.7578" y2="350.7578"/><line style="stroke:#181818;stroke-width:1.0;stroke-dasharray:2.0,2.0;" x1="617.5" x2="617.5" y1="350.7578" y2="363.7578"/><line style="stroke:#181818;stroke-width:1.0;stroke-dasharray:2.0,2.0;" x1="576.5" x2="617.5" y1="363.7578" y2="363.7578"/><polygon fill="#181818" points="586.5,359.7578,576.5,363.7578,586.5,367.7578,582.5,363.7578" style="stroke:#181818;stroke-width:1.0;"/><text fill="#000000" font-family="sans-serif" font-size="13" font-weight="bold" lengthAdjust="spacing" textLength="7" x="582.5" y="346.0029">7</text><text fill="#000000" font-family="sans-serif" font-size="13" lengthAdjust="spacing" textLength="301" x="593.5" y="346.0029">keepPropertyCategory(propertyCategoryDescription)</text><polygon fill="#181818" points="889.5,388.2813,899.5,392.2813,889.5,396.2813,893.5,392.2813" style="stroke:#181818;stroke-width:1.0;"/><line style="stroke:#181818;stroke-width:1.0;" x1="575.5" x2="895.5" y1="392.2813" y2="392.2813"/><text fill="#000000" font-family="sans-serif" font-size="13" font-weight="bold" lengthAdjust="spacing" textLength="7" x="582.5" y="387.5264">8</text><text fill="#000000" font-family="sans-serif" font-size="13" lengthAdjust="spacing" textLength="186" x="593.5" y="387.5264">getAnnouncementCategoryList()</text><rect fill="none" height="51.3359" style="stroke:#000000;stroke-width:1.5;" width="193" x="810" y="400.2813"/><path d="M810,400.2813 L872,400.2813 L872,406.2813 L862,416.2813 L810,416.2813 L810,400.2813 " fill="#EEEEEE" style="stroke:#000000;stroke-width:2.0;"/><text fill="#000000" font-family="sans-serif" font-size="13" font-weight="bold" lengthAdjust="spacing" textLength="17" x="823" y="414.0498">ref</text><text fill="#000000" font-family="sans-serif" font-size="12" lengthAdjust="spacing" textLength="180" x="816.5" y="431.1445">Get Announcement Category List</text><text fill="#000000" font-family="sans-serif" font-size="12" lengthAdjust="spacing" textLength="3" x="905" y="444.5508">&#160;</text><polygon fill="#181818" points="586.5,473.1406,576.5,477.1406,586.5,481.1406,582.5,477.1406" style="stroke:#181818;stroke-width:1.0;"/><line style="stroke:#181818;stroke-width:1.0;stroke-dasharray:2.0,2.0;" x1="580.5" x2="905.5" y1="477.1406" y2="477.1406"/><text fill="#000000" font-family="sans-serif" font-size="13" font-weight="bold" lengthAdjust="spacing" textLength="7" x="592.5" y="472.3857">9</text><text fill="#000000" font-family="sans-serif" font-size="13" lengthAdjust="spacing" textLength="158" x="603.5" y="472.3857">announcementCategoryList</text><polygon fill="#181818" points="59.5,501.6641,49.5,505.6641,59.5,509.6641,55.5,505.6641" style="stroke:#181818;stroke-width:1.0;"/><line style="stroke:#181818;stroke-width:1.0;stroke-dasharray:2.0,2.0;" x1="53.5" x2="569.5" y1="505.6641" y2="505.6641"/><text fill="#000000" font-family="sans-serif" font-size="13" font-weight="bold" lengthAdjust="spacing" textLength="14" x="65.5" y="500.9092">10</text><text fill="#000000" font-family="sans-serif" font-size="13" lengthAdjust="spacing" textLength="288" x="83.5" y="500.9092">shows announcement category list (sale or rental)</text><path d="M10,520.6641 L71,520.6641 L71,527.1875 L61,537.1875 L10,537.1875 L10,520.6641 " fill="#EEEEEE" style="stroke:#000000;stroke-width:1.5;"/><rect fill="none" height="272.7109" style="stroke:#000000;stroke-width:1.5;" width="744.5" x="10" y="520.6641"/><text fill="#000000" font-family="sans-serif" font-size="13" font-weight="bold" lengthAdjust="spacing" textLength="16" x="25" y="533.4326">alt</text><polygon fill="#181818" points="553.5,553.7109,563.5,557.7109,553.5,561.7109,557.5,557.7109" style="stroke:#181818;stroke-width:1.0;"/><line style="stroke:#181818;stroke-width:1.0;" x1="48.5" x2="559.5" y1="557.7109" y2="557.7109"/><text fill="#000000" font-family="sans-serif" font-size="13" font-weight="bold" lengthAdjust="spacing" textLength="14" x="55.5" y="552.9561">11</text><text fill="#000000" font-family="sans-serif" font-size="13" lengthAdjust="spacing" textLength="70" x="73.5" y="552.9561">selects sale</text><polygon fill="#181818" points="59.5,582.2344,49.5,586.2344,59.5,590.2344,55.5,586.2344" style="stroke:#181818;stroke-width:1.0;"/><line style="stroke:#181818;stroke-width:1.0;stroke-dasharray:2.0,2.0;" x1="53.5" x2="569.5" y1="586.2344" y2="586.2344"/><text fill="#000000" font-family="sans-serif" font-size="13" font-weight="bold" lengthAdjust="spacing" textLength="14" x="65.5" y="581.4795">12</text><text fill="#000000" font-family="sans-serif" font-size="13" lengthAdjust="spacing" textLength="82" x="83.5" y="581.4795">requests price</text><polygon fill="#181818" points="553.5,610.7578,563.5,614.7578,553.5,618.7578,557.5,614.7578" style="stroke:#181818;stroke-width:1.0;"/><line style="stroke:#181818;stroke-width:1.0;" x1="48.5" x2="559.5" y1="614.7578" y2="614.7578"/><text fill="#000000" font-family="sans-serif" font-size="13" font-weight="bold" lengthAdjust="spacing" textLength="14" x="55.5" y="610.0029">13</text><text fill="#000000" font-family="sans-serif" font-size="13" lengthAdjust="spacing" textLength="92" x="73.5" y="610.0029">introduces price</text><line style="stroke:#181818;stroke-width:1.0;stroke-dasharray:2.0,2.0;" x1="575.5" x2="617.5" y1="643.2813" y2="643.2813"/><line style="stroke:#181818;stroke-width:1.0;stroke-dasharray:2.0,2.0;" x1="617.5" x2="617.5" y1="643.2813" y2="656.2813"/><line style="stroke:#181818;stroke-width:1.0;stroke-dasharray:2.0,2.0;" x1="576.5" x2="617.5" y1="656.2813" y2="656.2813"/><polygon fill="#181818" points="586.5,652.2813,576.5,656.2813,586.5,660.2813,582.5,656.2813" style="stroke:#181818;stroke-width:1.0;"/><text fill="#000000" font-family="sans-serif" font-size="13" font-weight="bold" lengthAdjust="spacing" textLength="14" x="582.5" y="638.5264">14</text><text fill="#000000" font-family="sans-serif" font-size="13" lengthAdjust="spacing" textLength="142" x="600.5" y="638.5264">keepRequestPrice(price)</text><line style="stroke:#000000;stroke-width:1.0;stroke-dasharray:2.0,2.0;" x1="10" x2="754.5" y1="665.2813" y2="665.2813"/><polygon fill="#181818" points="558.5,682.8047,568.5,686.8047,558.5,690.8047,562.5,686.8047" style="stroke:#181818;stroke-width:1.0;"/><line style="stroke:#181818;stroke-width:1.0;" x1="48.5" x2="564.5" y1="686.8047" y2="686.8047"/><text fill="#000000" font-family="sans-serif" font-size="13" font-weight="bold" lengthAdjust="spacing" textLength="14" x="55.5" y="682.0498">15</text><text fill="#000000" font-family="sans-serif" font-size="13" lengthAdjust="spacing" textLength="78" x="73.5" y="682.0498">selects rental</text><polygon fill="#181818" points="59.5,711.3281,49.5,715.3281,59.5,719.3281,55.5,715.3281" style="stroke:#181818;stroke-width:1.0;"/><line style="stroke:#181818;stroke-width:1.0;stroke-dasharray:2.0,2.0;" x1="53.5" x2="564.5" y1="715.3281" y2="715.3281"/><text fill="#000000" font-family="sans-serif" font-size="13" font-weight="bold" lengthAdjust="spacing" textLength="14" x="65.5" y="710.5732">16</text><text fill="#000000" font-family="sans-serif" font-size="13" lengthAdjust="spacing" textLength="76" x="83.5" y="710.5732">requests rent</text><polygon fill="#181818" points="558.5,739.8516,568.5,743.8516,558.5,747.8516,562.5,743.8516" style="stroke:#181818;stroke-width:1.0;"/><line style="stroke:#181818;stroke-width:1.0;" x1="48.5" x2="564.5" y1="743.8516" y2="743.8516"/><text fill="#000000" font-family="sans-serif" font-size="13" font-weight="bold" lengthAdjust="spacing" textLength="14" x="55.5" y="739.0967">17</text><text fill="#000000" font-family="sans-serif" font-size="13" lengthAdjust="spacing" textLength="136" x="73.5" y="739.0967">introduces monthly rent</text><line style="stroke:#181818;stroke-width:1.0;stroke-dasharray:2.0,2.0;" x1="580.5" x2="622.5" y1="772.375" y2="772.375"/><line style="stroke:#181818;stroke-width:1.0;stroke-dasharray:2.0,2.0;" x1="622.5" x2="622.5" y1="772.375" y2="785.375"/><line style="stroke:#181818;stroke-width:1.0;stroke-dasharray:2.0,2.0;" x1="581.5" x2="622.5" y1="785.375" y2="785.375"/><polygon fill="#181818" points="591.5,781.375,581.5,785.375,591.5,789.375,587.5,785.375" style="stroke:#181818;stroke-width:1.0;"/><text fill="#000000" font-family="sans-serif" font-size="13" font-weight="bold" lengthAdjust="spacing" textLength="14" x="587.5" y="767.6201">18</text><text fill="#000000" font-family="sans-serif" font-size="13" lengthAdjust="spacing" textLength="133" x="605.5" y="767.6201">keepRequestRent(rent)</text><rect fill="none" height="51.3359" style="stroke:#000000;stroke-width:1.5;" width="143" x="499" y="800.375"/><path d="M499,800.375 L561,800.375 L561,806.375 L551,816.375 L499,816.375 L499,800.375 " fill="#EEEEEE" style="stroke:#000000;stroke-width:2.0;"/><text fill="#000000" font-family="sans-serif" font-size="13" font-weight="bold" lengthAdjust="spacing" textLength="17" x="512" y="814.1436">ref</text><text fill="#000000" font-family="sans-serif" font-size="12" lengthAdjust="spacing" textLength="132" x="504.5" y="831.2383">Introduces Photographs</text><text fill="#000000" font-family="sans-serif" font-size="12" lengthAdjust="spacing" textLength="3" x="569" y="844.6445">&#160;</text><polygon fill="#181818" points="59.5,873.2344,49.5,877.2344,59.5,881.2344,55.5,877.2344" style="stroke:#181818;stroke-width:1.0;"/><line style="stroke:#181818;stroke-width:1.0;stroke-dasharray:2.0,2.0;" x1="53.5" x2="564.5" y1="877.2344" y2="877.2344"/><text fill="#000000" font-family="sans-serif" font-size="13" font-weight="bold" lengthAdjust="spacing" textLength="14" x="65.5" y="872.4795">19</text><text fill="#000000" font-family="sans-serif" font-size="13" lengthAdjust="spacing" textLength="117" x="83.5" y="872.4795">requests information</text><polygon fill="#181818" points="558.5,901.7578,568.5,905.7578,558.5,909.7578,562.5,905.7578" style="stroke:#181818;stroke-width:1.0;"/><line style="stroke:#181818;stroke-width:1.0;" x1="48.5" x2="564.5" y1="905.7578" y2="905.7578"/><text fill="#000000" font-family="sans-serif" font-size="13" font-weight="bold" lengthAdjust="spacing" textLength="14" x="55.5" y="901.0029">20</text><text fill="#000000" font-family="sans-serif" font-size="13" lengthAdjust="spacing" textLength="475" x="73.5" y="901.0029">introduces requested information (property charactheristics, address, commission)</text><line style="stroke:#181818;stroke-width:1.0;stroke-dasharray:2.0,2.0;" x1="580.5" x2="622.5" y1="934.2813" y2="934.2813"/><line style="stroke:#181818;stroke-width:1.0;stroke-dasharray:2.0,2.0;" x1="622.5" x2="622.5" y1="934.2813" y2="947.2813"/><line style="stroke:#181818;stroke-width:1.0;stroke-dasharray:2.0,2.0;" x1="581.5" x2="622.5" y1="947.2813" y2="947.2813"/><polygon fill="#181818" points="591.5,943.2813,581.5,947.2813,591.5,951.2813,587.5,947.2813" style="stroke:#181818;stroke-width:1.0;"/><text fill="#000000" font-family="sans-serif" font-size="13" font-weight="bold" lengthAdjust="spacing" textLength="14" x="587.5" y="929.5264">21</text><text fill="#000000" font-family="sans-serif" font-size="13" lengthAdjust="spacing" textLength="211" x="605.5" y="929.5264">keepPropertyInformation(information)</text><polygon fill="#181818" points="889.5,971.8047,899.5,975.8047,889.5,979.8047,893.5,975.8047" style="stroke:#181818;stroke-width:1.0;"/><line style="stroke:#181818;stroke-width:1.0;" x1="580.5" x2="895.5" y1="975.8047" y2="975.8047"/><text fill="#000000" font-family="sans-serif" font-size="13" font-weight="bold" lengthAdjust="spacing" textLength="14" x="587.5" y="971.0498">22</text><text fill="#000000" font-family="sans-serif" font-size="13" lengthAdjust="spacing" textLength="91" x="605.5" y="971.0498">getAgencyList()</text><rect fill="none" height="51.3359" style="stroke:#000000;stroke-width:1.5;" width="193" x="810" y="983.8047"/><path d="M810,983.8047 L872,983.8047 L872,989.8047 L862,999.8047 L810,999.8047 L810,983.8047 " fill="#EEEEEE" style="stroke:#000000;stroke-width:2.0;"/><text fill="#000000" font-family="sans-serif" font-size="13" font-weight="bold" lengthAdjust="spacing" textLength="17" x="823" y="997.5732">ref</text><text fill="#000000" font-family="sans-serif" font-size="12" lengthAdjust="spacing" textLength="84" x="864.5" y="1014.668">Get Agency List</text><text fill="#000000" font-family="sans-serif" font-size="12" lengthAdjust="spacing" textLength="3" x="905" y="1028.0742">&#160;</text><polygon fill="#181818" points="591.5,1056.6641,581.5,1060.6641,591.5,1064.6641,587.5,1060.6641" style="stroke:#181818;stroke-width:1.0;"/><line style="stroke:#181818;stroke-width:1.0;stroke-dasharray:2.0,2.0;" x1="585.5" x2="905.5" y1="1060.6641" y2="1060.6641"/><text fill="#000000" font-family="sans-serif" font-size="13" font-weight="bold" lengthAdjust="spacing" textLength="14" x="597.5" y="1055.9092">23</text><text fill="#000000" font-family="sans-serif" font-size="13" lengthAdjust="spacing" textLength="63" x="615.5" y="1055.9092">agencyList</text><polygon fill="#181818" points="59.5,1085.1875,49.5,1089.1875,59.5,1093.1875,55.5,1089.1875" style="stroke:#181818;stroke-width:1.0;"/><line style="stroke:#181818;stroke-width:1.0;stroke-dasharray:2.0,2.0;" x1="53.5" x2="564.5" y1="1089.1875" y2="1089.1875"/><text fill="#000000" font-family="sans-serif" font-size="13" font-weight="bold" lengthAdjust="spacing" textLength="14" x="65.5" y="1084.4326">24</text><text fill="#000000" font-family="sans-serif" font-size="13" lengthAdjust="spacing" textLength="145" x="83.5" y="1084.4326">shows list of all agencies</text><polygon fill="#181818" points="558.5,1113.7109,568.5,1117.7109,558.5,1121.7109,562.5,1117.7109" style="stroke:#181818;stroke-width:1.0;"/><line style="stroke:#181818;stroke-width:1.0;" x1="48.5" x2="564.5" y1="1117.7109" y2="1117.7109"/><text fill="#000000" font-family="sans-serif" font-size="13" font-weight="bold" lengthAdjust="spacing" textLength="14" x="55.5" y="1112.9561">25</text><text fill="#000000" font-family="sans-serif" font-size="13" lengthAdjust="spacing" textLength="185" x="73.5" y="1112.9561">chooses an agency from the list</text><line style="stroke:#181818;stroke-width:1.0;stroke-dasharray:2.0,2.0;" x1="580.5" x2="622.5" y1="1146.2344" y2="1146.2344"/><line style="stroke:#181818;stroke-width:1.0;stroke-dasharray:2.0,2.0;" x1="622.5" x2="622.5" y1="1146.2344" y2="1159.2344"/><line style="stroke:#181818;stroke-width:1.0;stroke-dasharray:2.0,2.0;" x1="581.5" x2="622.5" y1="1159.2344" y2="1159.2344"/><polygon fill="#181818" points="591.5,1155.2344,581.5,1159.2344,591.5,1163.2344,587.5,1159.2344" style="stroke:#181818;stroke-width:1.0;"/><text fill="#000000" font-family="sans-serif" font-size="13" font-weight="bold" lengthAdjust="spacing" textLength="14" x="587.5" y="1141.4795">26</text><text fill="#000000" font-family="sans-serif" font-size="13" lengthAdjust="spacing" textLength="122" x="605.5" y="1141.4795">keepAgency(agency)</text><polygon fill="#181818" points="889.5,1183.7578,899.5,1187.7578,889.5,1191.7578,893.5,1187.7578" style="stroke:#181818;stroke-width:1.0;"/><line style="stroke:#181818;stroke-width:1.0;" x1="580.5" x2="895.5" y1="1187.7578" y2="1187.7578"/><text fill="#000000" font-family="sans-serif" font-size="13" font-weight="bold" lengthAdjust="spacing" textLength="14" x="587.5" y="1183.0029">27</text><text fill="#000000" font-family="sans-serif" font-size="13" lengthAdjust="spacing" textLength="81" x="605.5" y="1183.0029">getAgentList()</text><rect fill="none" height="51.3359" style="stroke:#000000;stroke-width:1.5;" width="193" x="810" y="1195.7578"/><path d="M810,1195.7578 L872,1195.7578 L872,1201.7578 L862,1211.7578 L810,1211.7578 L810,1195.7578 " fill="#EEEEEE" style="stroke:#000000;stroke-width:2.0;"/><text fill="#000000" font-family="sans-serif" font-size="13" font-weight="bold" lengthAdjust="spacing" textLength="17" x="823" y="1209.5264">ref</text><text fill="#000000" font-family="sans-serif" font-size="12" lengthAdjust="spacing" textLength="76" x="868.5" y="1226.6211">Get Agent List</text><text fill="#000000" font-family="sans-serif" font-size="12" lengthAdjust="spacing" textLength="3" x="905" y="1240.0273">&#160;</text><polygon fill="#181818" points="591.5,1268.6172,581.5,1272.6172,591.5,1276.6172,587.5,1272.6172" style="stroke:#181818;stroke-width:1.0;"/><line style="stroke:#181818;stroke-width:1.0;stroke-dasharray:2.0,2.0;" x1="585.5" x2="905.5" y1="1272.6172" y2="1272.6172"/><text fill="#000000" font-family="sans-serif" font-size="13" font-weight="bold" lengthAdjust="spacing" textLength="14" x="597.5" y="1267.8623">28</text><text fill="#000000" font-family="sans-serif" font-size="13" lengthAdjust="spacing" textLength="53" x="615.5" y="1267.8623">agentList</text><polygon fill="#181818" points="59.5,1297.1406,49.5,1301.1406,59.5,1305.1406,55.5,1301.1406" style="stroke:#181818;stroke-width:1.0;"/><line style="stroke:#181818;stroke-width:1.0;stroke-dasharray:2.0,2.0;" x1="53.5" x2="564.5" y1="1301.1406" y2="1301.1406"/><text fill="#000000" font-family="sans-serif" font-size="13" font-weight="bold" lengthAdjust="spacing" textLength="14" x="65.5" y="1296.3857">29</text><text fill="#000000" font-family="sans-serif" font-size="13" lengthAdjust="spacing" textLength="364" x="83.5" y="1296.3857">shows list of agents available that work on the selected agency</text><polygon fill="#181818" points="558.5,1325.6641,568.5,1329.6641,558.5,1333.6641,562.5,1329.6641" style="stroke:#181818;stroke-width:1.0;"/><line style="stroke:#181818;stroke-width:1.0;" x1="48.5" x2="564.5" y1="1329.6641" y2="1329.6641"/><text fill="#000000" font-family="sans-serif" font-size="13" font-weight="bold" lengthAdjust="spacing" textLength="14" x="55.5" y="1324.9092">30</text><text fill="#000000" font-family="sans-serif" font-size="13" lengthAdjust="spacing" textLength="175" x="73.5" y="1324.9092">chooses an agent from the list</text><line style="stroke:#181818;stroke-width:1.0;stroke-dasharray:2.0,2.0;" x1="580.5" x2="622.5" y1="1358.1875" y2="1358.1875"/><line style="stroke:#181818;stroke-width:1.0;stroke-dasharray:2.0,2.0;" x1="622.5" x2="622.5" y1="1358.1875" y2="1371.1875"/><line style="stroke:#181818;stroke-width:1.0;stroke-dasharray:2.0,2.0;" x1="581.5" x2="622.5" y1="1371.1875" y2="1371.1875"/><polygon fill="#181818" points="591.5,1367.1875,581.5,1371.1875,591.5,1375.1875,587.5,1371.1875" style="stroke:#181818;stroke-width:1.0;"/><text fill="#000000" font-family="sans-serif" font-size="13" font-weight="bold" lengthAdjust="spacing" textLength="14" x="587.5" y="1353.4326">31</text><text fill="#000000" font-family="sans-serif" font-size="13" lengthAdjust="spacing" textLength="102" x="605.5" y="1353.4326">keepAgent(agent)</text><polygon fill="#181818" points="59.5,1395.7109,49.5,1399.7109,59.5,1403.7109,55.5,1399.7109" style="stroke:#181818;stroke-width:1.0;"/><line style="stroke:#181818;stroke-width:1.0;stroke-dasharray:2.0,2.0;" x1="53.5" x2="564.5" y1="1399.7109" y2="1399.7109"/><text fill="#000000" font-family="sans-serif" font-size="13" font-weight="bold" lengthAdjust="spacing" textLength="14" x="65.5" y="1394.9561">32</text><text fill="#000000" font-family="sans-serif" font-size="13" lengthAdjust="spacing" textLength="229" x="83.5" y="1394.9561">shows all data and request confirmation</text><polygon fill="#181818" points="558.5,1424.2344,568.5,1428.2344,558.5,1432.2344,562.5,1428.2344" style="stroke:#181818;stroke-width:1.0;"/><line style="stroke:#181818;stroke-width:1.0;" x1="48.5" x2="564.5" y1="1428.2344" y2="1428.2344"/><text fill="#000000" font-family="sans-serif" font-size="13" font-weight="bold" lengthAdjust="spacing" textLength="14" x="55.5" y="1423.4795">33</text><text fill="#000000" font-family="sans-serif" font-size="13" lengthAdjust="spacing" textLength="49" x="73.5" y="1423.4795">confirms</text><polygon fill="#181818" points="889.5,1452.7578,899.5,1456.7578,889.5,1460.7578,893.5,1456.7578" style="stroke:#181818;stroke-width:1.0;"/><line style="stroke:#181818;stroke-width:1.0;stroke-dasharray:2.0,2.0;" x1="580.5" x2="895.5" y1="1456.7578" y2="1456.7578"/><text fill="#000000" font-family="sans-serif" font-size="13" font-weight="bold" lengthAdjust="spacing" textLength="14" x="587.5" y="1452.0029">34</text><text fill="#000000" font-family="sans-serif" font-size="13" lengthAdjust="spacing" textLength="120" x="605.5" y="1452.0029">submitRequest(data)</text><line style="stroke:#181818;stroke-width:1.0;" x1="911.5" x2="953.5" y1="1485.2813" y2="1485.2813"/><line style="stroke:#181818;stroke-width:1.0;" x1="953.5" x2="953.5" y1="1485.2813" y2="1498.2813"/><line style="stroke:#181818;stroke-width:1.0;" x1="912.5" x2="953.5" y1="1498.2813" y2="1498.2813"/><polygon fill="#181818" points="922.5,1494.2813,912.5,1498.2813,922.5,1502.2813,918.5,1498.2813" style="stroke:#181818;stroke-width:1.0;"/><text fill="#000000" font-family="sans-serif" font-size="13" font-weight="bold" lengthAdjust="spacing" textLength="14" x="918.5" y="1480.5264">35</text><text fill="#000000" font-family="sans-serif" font-size="13" lengthAdjust="spacing" textLength="372" x="936.5" y="1480.5264">getPropertyCategoryByDescription(propertyCategoryDescription)</text><rect fill="none" height="51.3359" style="stroke:#000000;stroke-width:1.5;" width="193" x="810" y="1506.2813"/><path d="M810,1506.2813 L872,1506.2813 L872,1512.2813 L862,1522.2813 L810,1522.2813 L810,1506.2813 " fill="#EEEEEE" style="stroke:#000000;stroke-width:2.0;"/><text fill="#000000" font-family="sans-serif" font-size="13" font-weight="bold" lengthAdjust="spacing" textLength="17" x="823" y="1520.0498">ref</text><text fill="#000000" font-family="sans-serif" font-size="12" lengthAdjust="spacing" textLength="157" x="828" y="1537.1445">Get Property Category Object</text><text fill="#000000" font-family="sans-serif" font-size="12" lengthAdjust="spacing" textLength="3" x="905" y="1550.5508">&#160;</text><line style="stroke:#181818;stroke-width:1.0;stroke-dasharray:2.0,2.0;" x1="911.5" x2="953.5" y1="1583.1406" y2="1583.1406"/><line style="stroke:#181818;stroke-width:1.0;stroke-dasharray:2.0,2.0;" x1="953.5" x2="953.5" y1="1583.1406" y2="1596.1406"/><line style="stroke:#181818;stroke-width:1.0;stroke-dasharray:2.0,2.0;" x1="912.5" x2="953.5" y1="1596.1406" y2="1596.1406"/><polygon fill="#181818" points="922.5,1592.1406,912.5,1596.1406,922.5,1600.1406,918.5,1596.1406" style="stroke:#181818;stroke-width:1.0;"/><text fill="#000000" font-family="sans-serif" font-size="13" font-weight="bold" lengthAdjust="spacing" textLength="14" x="918.5" y="1578.3857">36</text><text fill="#000000" font-family="sans-serif" font-size="13" lengthAdjust="spacing" textLength="99" x="936.5" y="1578.3857">propertyCategory</text><line style="stroke:#181818;stroke-width:1.0;" x1="911.5" x2="953.5" y1="1624.6641" y2="1624.6641"/><line style="stroke:#181818;stroke-width:1.0;" x1="953.5" x2="953.5" y1="1624.6641" y2="1637.6641"/><line style="stroke:#181818;stroke-width:1.0;" x1="912.5" x2="953.5" y1="1637.6641" y2="1637.6641"/><polygon fill="#181818" points="922.5,1633.6641,912.5,1637.6641,922.5,1641.6641,918.5,1637.6641" style="stroke:#181818;stroke-width:1.0;"/><text fill="#000000" font-family="sans-serif" font-size="13" font-weight="bold" lengthAdjust="spacing" textLength="14" x="918.5" y="1619.9092">37</text><text fill="#000000" font-family="sans-serif" font-size="13" lengthAdjust="spacing" textLength="448" x="936.5" y="1619.9092">getAnnouncementCategoryByDescription(announcementCategoryDescription)</text><rect fill="none" height="51.3359" style="stroke:#000000;stroke-width:1.5;" width="203" x="810" y="1645.6641"/><path d="M810,1645.6641 L872,1645.6641 L872,1651.6641 L862,1661.6641 L810,1661.6641 L810,1645.6641 " fill="#EEEEEE" style="stroke:#000000;stroke-width:2.0;"/><text fill="#000000" font-family="sans-serif" font-size="13" font-weight="bold" lengthAdjust="spacing" textLength="17" x="823" y="1659.4326">ref</text><text fill="#000000" font-family="sans-serif" font-size="12" lengthAdjust="spacing" textLength="195" x="814" y="1676.5273">Get Announcement Category Object</text><text fill="#000000" font-family="sans-serif" font-size="12" lengthAdjust="spacing" textLength="3" x="910" y="1689.9336">&#160;</text><line style="stroke:#181818;stroke-width:1.0;stroke-dasharray:2.0,2.0;" x1="911.5" x2="953.5" y1="1722.5234" y2="1722.5234"/><line style="stroke:#181818;stroke-width:1.0;stroke-dasharray:2.0,2.0;" x1="953.5" x2="953.5" y1="1722.5234" y2="1735.5234"/><line style="stroke:#181818;stroke-width:1.0;stroke-dasharray:2.0,2.0;" x1="912.5" x2="953.5" y1="1735.5234" y2="1735.5234"/><polygon fill="#181818" points="922.5,1731.5234,912.5,1735.5234,922.5,1739.5234,918.5,1735.5234" style="stroke:#181818;stroke-width:1.0;"/><text fill="#000000" font-family="sans-serif" font-size="13" font-weight="bold" lengthAdjust="spacing" textLength="14" x="918.5" y="1717.7686">38</text><text fill="#000000" font-family="sans-serif" font-size="13" lengthAdjust="spacing" textLength="137" x="936.5" y="1717.7686">announcementCategory</text><line style="stroke:#181818;stroke-width:1.0;" x1="911.5" x2="953.5" y1="1764.0469" y2="1764.0469"/><line style="stroke:#181818;stroke-width:1.0;" x1="953.5" x2="953.5" y1="1764.0469" y2="1777.0469"/><line style="stroke:#181818;stroke-width:1.0;" x1="912.5" x2="953.5" y1="1777.0469" y2="1777.0469"/><polygon fill="#181818" points="922.5,1773.0469,912.5,1777.0469,922.5,1781.0469,918.5,1777.0469" style="stroke:#181818;stroke-width:1.0;"/><text fill="#000000" font-family="sans-serif" font-size="13" font-weight="bold" lengthAdjust="spacing" textLength="14" x="918.5" y="1759.292">39</text><text fill="#000000" font-family="sans-serif" font-size="13" lengthAdjust="spacing" textLength="220" x="936.5" y="1759.292">getAgencyByDesignation(designation)</text><rect fill="none" height="51.3359" style="stroke:#000000;stroke-width:1.5;" width="193" x="810" y="1785.0469"/><path d="M810,1785.0469 L872,1785.0469 L872,1791.0469 L862,1801.0469 L810,1801.0469 L810,1785.0469 " fill="#EEEEEE" style="stroke:#000000;stroke-width:2.0;"/><text fill="#000000" font-family="sans-serif" font-size="13" font-weight="bold" lengthAdjust="spacing" textLength="17" x="823" y="1798.8154">ref</text><text fill="#000000" font-family="sans-serif" font-size="12" lengthAdjust="spacing" textLength="99" x="857" y="1815.9102">Get Agency Object</text><text fill="#000000" font-family="sans-serif" font-size="12" lengthAdjust="spacing" textLength="3" x="905" y="1829.3164">&#160;</text><line style="stroke:#181818;stroke-width:1.0;stroke-dasharray:2.0,2.0;" x1="911.5" x2="953.5" y1="1861.9063" y2="1861.9063"/><line style="stroke:#181818;stroke-width:1.0;stroke-dasharray:2.0,2.0;" x1="953.5" x2="953.5" y1="1861.9063" y2="1874.9063"/><line style="stroke:#181818;stroke-width:1.0;stroke-dasharray:2.0,2.0;" x1="912.5" x2="953.5" y1="1874.9063" y2="1874.9063"/><polygon fill="#181818" points="922.5,1870.9063,912.5,1874.9063,922.5,1878.9063,918.5,1874.9063" style="stroke:#181818;stroke-width:1.0;"/><text fill="#000000" font-family="sans-serif" font-size="13" font-weight="bold" lengthAdjust="spacing" textLength="14" x="918.5" y="1857.1514">40</text><text fill="#000000" font-family="sans-serif" font-size="13" lengthAdjust="spacing" textLength="42" x="936.5" y="1857.1514">agency</text><line style="stroke:#181818;stroke-width:1.0;" x1="911.5" x2="953.5" y1="1903.4297" y2="1903.4297"/><line style="stroke:#181818;stroke-width:1.0;" x1="953.5" x2="953.5" y1="1903.4297" y2="1916.4297"/><line style="stroke:#181818;stroke-width:1.0;" x1="912.5" x2="953.5" y1="1916.4297" y2="1916.4297"/><polygon fill="#181818" points="922.5,1912.4297,912.5,1916.4297,922.5,1920.4297,918.5,1916.4297" style="stroke:#181818;stroke-width:1.0;"/><text fill="#000000" font-family="sans-serif" font-size="13" font-weight="bold" lengthAdjust="spacing" textLength="14" x="918.5" y="1898.6748">41</text><text fill="#000000" font-family="sans-serif" font-size="13" lengthAdjust="spacing" textLength="140" x="936.5" y="1898.6748">getAgentByEmail(email)</text><rect fill="none" height="51.3359" style="stroke:#000000;stroke-width:1.5;" width="193" x="810" y="1924.4297"/><path d="M810,1924.4297 L872,1924.4297 L872,1930.4297 L862,1940.4297 L810,1940.4297 L810,1924.4297 " fill="#EEEEEE" style="stroke:#000000;stroke-width:2.0;"/><text fill="#000000" font-family="sans-serif" font-size="13" font-weight="bold" lengthAdjust="spacing" textLength="17" x="823" y="1938.1982">ref</text><text fill="#000000" font-family="sans-serif" font-size="12" lengthAdjust="spacing" textLength="91" x="861" y="1955.293">Get Agent Object</text><text fill="#000000" font-family="sans-serif" font-size="12" lengthAdjust="spacing" textLength="3" x="905" y="1968.6992">&#160;</text><line style="stroke:#181818;stroke-width:1.0;stroke-dasharray:2.0,2.0;" x1="911.5" x2="953.5" y1="2001.2891" y2="2001.2891"/><line style="stroke:#181818;stroke-width:1.0;stroke-dasharray:2.0,2.0;" x1="953.5" x2="953.5" y1="2001.2891" y2="2014.2891"/><line style="stroke:#181818;stroke-width:1.0;stroke-dasharray:2.0,2.0;" x1="912.5" x2="953.5" y1="2014.2891" y2="2014.2891"/><polygon fill="#181818" points="922.5,2010.2891,912.5,2014.2891,922.5,2018.2891,918.5,2014.2891" style="stroke:#181818;stroke-width:1.0;"/><text fill="#000000" font-family="sans-serif" font-size="13" font-weight="bold" lengthAdjust="spacing" textLength="14" x="918.5" y="1996.5342">42</text><text fill="#000000" font-family="sans-serif" font-size="13" lengthAdjust="spacing" textLength="32" x="936.5" y="1996.5342">agent</text><polygon fill="#181818" points="1379.5,2038.8125,1389.5,2042.8125,1379.5,2046.8125,1383.5,2042.8125" style="stroke:#181818;stroke-width:1.0;"/><line style="stroke:#181818;stroke-width:1.0;stroke-dasharray:2.0,2.0;" x1="911.5" x2="1385.5" y1="2042.8125" y2="2042.8125"/><text fill="#000000" font-family="sans-serif" font-size="13" font-weight="bold" lengthAdjust="spacing" textLength="14" x="918.5" y="2038.0576">43</text><text fill="#000000" font-family="sans-serif" font-size="13" lengthAdjust="spacing" textLength="198" x="936.5" y="2038.0576">submitRequest(information, agent)</text><rect fill="none" height="51.3359" style="stroke:#000000;stroke-width:1.5;" width="97" x="1361" y="2050.8125"/><path d="M1361,2050.8125 L1423,2050.8125 L1423,2056.8125 L1413,2066.8125 L1361,2066.8125 L1361,2050.8125 " fill="#EEEEEE" style="stroke:#000000;stroke-width:2.0;"/><text fill="#000000" font-family="sans-serif" font-size="13" font-weight="bold" lengthAdjust="spacing" textLength="17" x="1374" y="2064.5811">ref</text><text fill="#000000" font-family="sans-serif" font-size="12" lengthAdjust="spacing" textLength="89" x="1365" y="2081.6758">Submit Request</text><text fill="#000000" font-family="sans-serif" font-size="12" lengthAdjust="spacing" textLength="3" x="1408" y="2095.082">&#160;</text><polygon fill="#181818" points="922.5,2123.6719,912.5,2127.6719,922.5,2131.6719,918.5,2127.6719" style="stroke:#181818;stroke-width:1.0;"/><line style="stroke:#181818;stroke-width:1.0;stroke-dasharray:2.0,2.0;" x1="916.5" x2="1395.5" y1="2127.6719" y2="2127.6719"/><text fill="#000000" font-family="sans-serif" font-size="13" font-weight="bold" lengthAdjust="spacing" textLength="14" x="928.5" y="2122.917">44</text><text fill="#000000" font-family="sans-serif" font-size="13" lengthAdjust="spacing" textLength="43" x="946.5" y="2122.917">request</text><polygon fill="#181818" points="591.5,2152.1953,581.5,2156.1953,591.5,2160.1953,587.5,2156.1953" style="stroke:#181818;stroke-width:1.0;"/><line style="stroke:#181818;stroke-width:1.0;stroke-dasharray:2.0,2.0;" x1="585.5" x2="905.5" y1="2156.1953" y2="2156.1953"/><text fill="#000000" font-family="sans-serif" font-size="13" font-weight="bold" lengthAdjust="spacing" textLength="14" x="597.5" y="2151.4404">45</text><text fill="#000000" font-family="sans-serif" font-size="13" lengthAdjust="spacing" textLength="43" x="615.5" y="2151.4404">request</text><polygon fill="#181818" points="54.5,2180.7188,44.5,2184.7188,54.5,2188.7188,50.5,2184.7188" style="stroke:#181818;stroke-width:1.0;"/><line style="stroke:#181818;stroke-width:1.0;stroke-dasharray:2.0,2.0;" x1="48.5" x2="564.5" y1="2184.7188" y2="2184.7188"/><text fill="#000000" font-family="sans-serif" font-size="13" font-weight="bold" lengthAdjust="spacing" textLength="14" x="60.5" y="2179.9639">46</text><text fill="#000000" font-family="sans-serif" font-size="13" lengthAdjust="spacing" textLength="159" x="78.5" y="2179.9639">informs operation succcess</text><!--SRC=[nLZ1Rjim3BtxAuXUvXJj3_GmeEs68K2n5ksANNPHP2RMOakUHBVBtu-I7ST97CTniTQ7mhMaH_8zYcJhbaeNmeeSSgEDJAt94SYM6BbcfH1oAHRuHAiCmQ8aeHTPUuDBHM9UbLx0N6GEeqYKP7IPpz16qQTK9GXpOsXc_aP2ah5mTl-gqPw1S73_ytl4AAIaAeGcEBjwn3ybEdgmfa1Bg-TfsFSyxTzsQpHPasKrxEsFnxlj0no1bgjV-kewl8HTrMiKURVKYo0CxaHGF_mBN7vcqt35kvSEo80hPxaY44n4iE-_PSgHZrv0KNlJG3J0x7_paG4PrhjuVixGqYBlw5hcnGLkGkHT2sDNTsmkdkoR234tdzUFnJcO5xJLCdGytv1WRGFMHi1RsKT3dNZ4xONWwkMQgQB3tMPxWWVSzK4pWgVyYXFAlBe6242kdV9CGooyi3bgke3Kb0w1KoeJEfbqcMaJtnRKOSQfx5gYDMRwrMjv6u2MYCMkHF4k2L_GIQiAKaPF3YjzhRKfjKGVspYrXwlULhzjzrW6x6L2r9q6ua0ierAX3RQR3Kva8GCihudiO0w8ZFeJmUCSlxUDO_Nzzscg99wIUSfNggIKk7jsSBerjOzFnm63amf3wUsBi69eJ8p-vCWGkQzGcgss8KwDz94Fnnx1nyc95yHiSfn1_DdfnkX3QiWih2XILntOgbdTCIezDpON_egE3BM6mgID1V6clgJSBYMbQ7t3aEu2H99OTFmYJPuhvq9v6ABFNkMPRYp6BUjznIOqltSfBy7IM-j9u-we2X9gXPbpvcGLb49tWimoDSQXBqIr8p3dKGbOou1yccOL7t45T4GXUY-1w6HzkZMYBOb6o-IHcEuNeJ8num9FgI1uDNO9VAKyxLLHuxjMqNZAbTqHazwg9GKfQTBVmZZn4a62hIRDy2YDdgiHHQS-vmRvkiweQdIjAshiVPdigNqalIgv-uRJc_QeCt0CUdiIzu-ozxFVd2h7xNKEjrjPNiUz6zOGehfckssokYQcqmXxEu73fyEXf8uckOkEGKI7UX2eLGjTTSHay_vnD5Pzu__pLlzHEumfkbbzpRd8nkX_VYWvz3xSTE4t-sgHTejbQwAwWBhOmy7QUNr0WOQgw-sMrNwUglylr8Ox_m3lyBzsknLftM7sjxQwoo4_Txhw4AYUnbvnvy2Np6eYTgMKF2yVdB-YgFM1GVu1]--></g></svg>