<?xml version="1.0" encoding="us-ascii" standalone="no"?><svg xmlns="http://www.w3.org/2000/svg" xmlns:xlink="http://www.w3.org/1999/xlink" contentStyleType="text/css" height="348px" preserveAspectRatio="none" style="width:624px;height:348px;background:#FFFFFF;" version="1.1" viewBox="0 0 624 348" width="624px" zoomAndPan="magnify"><defs/><g><rect fill="#FFFFFF" height="198.375" style="stroke:#181818;stroke-width:1.0;" width="10" x="235" y="81.8047"/><rect fill="none" height="155.8516" style="stroke:#000000;stroke-width:1.5;" width="420.5" x="197.5" y="96.8047"/><line style="stroke:#181818;stroke-width:0.5;stroke-dasharray:5.0,5.0;" x1="239.5" x2="239.5" y1="51.2813" y2="298.1797"/><line style="stroke:#181818;stroke-width:0.5;stroke-dasharray:5.0,5.0;" x1="552" x2="552" y1="151.4688" y2="298.1797"/><rect fill="#E3E3E3" height="45.2813" rx="2.5" ry="2.5" style="stroke:#181818;stroke-width:0.5;" width="65" x="207.5" y="5"/><text fill="#000000" font-family="sans-serif" font-size="14" lengthAdjust="spacing" textLength="46" x="217" y="24.6738">agency</text><text fill="#000000" font-family="sans-serif" font-size="14" lengthAdjust="spacing" textLength="51" x="214.5" y="40.3145">:Agency</text><rect fill="#E3E3E3" height="45.2813" rx="2.5" ry="2.5" style="stroke:#181818;stroke-width:0.5;" width="65" x="207.5" y="297.1797"/><text fill="#000000" font-family="sans-serif" font-size="14" lengthAdjust="spacing" textLength="46" x="217" y="316.8535">agency</text><text fill="#000000" font-family="sans-serif" font-size="14" lengthAdjust="spacing" textLength="51" x="214.5" y="332.4941">:Agency</text><rect fill="#E3E3E3" height="45.2813" rx="2.5" ry="2.5" style="stroke:#181818;stroke-width:0.5;" width="112" x="496" y="297.1797"/><text fill="#000000" font-family="sans-serif" font-size="14" lengthAdjust="spacing" textLength="94" x="505" y="316.8535">announcement</text><text fill="#000000" font-family="sans-serif" font-size="14" lengthAdjust="spacing" textLength="98" x="503" y="332.4941">:announcement</text><rect fill="#FFFFFF" height="198.375" style="stroke:#181818;stroke-width:1.0;" width="10" x="235" y="81.8047"/><polygon fill="#181818" points="223,77.8047,233,81.8047,223,85.8047,227,81.8047" style="stroke:#181818;stroke-width:1.0;"/><line style="stroke:#181818;stroke-width:1.0;" x1="0" x2="229" y1="81.8047" y2="81.8047"/><text fill="#000000" font-family="sans-serif" font-size="13" font-weight="bold" lengthAdjust="spacing" textLength="14" x="7" y="77.0498">81</text><text fill="#000000" font-family="sans-serif" font-size="13" lengthAdjust="spacing" textLength="198" x="25" y="77.0498">submitRequest(information, agent)</text><path d="M197.5,96.8047 L342.5,96.8047 L342.5,103.3281 L332.5,113.3281 L197.5,113.3281 L197.5,96.8047 " fill="#EEEEEE" style="stroke:#000000;stroke-width:1.5;"/><rect fill="none" height="155.8516" style="stroke:#000000;stroke-width:1.5;" width="420.5" x="197.5" y="96.8047"/><text fill="#000000" font-family="sans-serif" font-size="13" font-weight="bold" lengthAdjust="spacing" textLength="100" x="212.5" y="109.5732">Submit Request</text><polygon fill="#181818" points="484,129.8516,494,133.8516,484,137.8516,488,133.8516" style="stroke:#181818;stroke-width:1.0;"/><line style="stroke:#181818;stroke-width:1.0;" x1="245" x2="490" y1="133.8516" y2="133.8516"/><text fill="#000000" font-family="sans-serif" font-size="13" font-weight="bold" lengthAdjust="spacing" textLength="25" x="252" y="129.0967">81.1</text><text fill="#000000" font-family="sans-serif" font-size="13" lengthAdjust="spacing" textLength="198" x="281" y="129.0967">submitRequest(information, agent)</text><rect fill="#E3E3E3" height="45.2813" rx="2.5" ry="2.5" style="stroke:#181818;stroke-width:0.5;" width="112" x="496" y="113.3281"/><text fill="#000000" font-family="sans-serif" font-size="14" lengthAdjust="spacing" textLength="94" x="505" y="133.002">announcement</text><text fill="#000000" font-family="sans-serif" font-size="14" lengthAdjust="spacing" textLength="98" x="503" y="148.6426">:announcement</text><line style="stroke:#181818;stroke-width:1.0;" x1="245" x2="287" y1="190.1328" y2="190.1328"/><line style="stroke:#181818;stroke-width:1.0;" x1="287" x2="287" y1="190.1328" y2="203.1328"/><line style="stroke:#181818;stroke-width:1.0;" x1="246" x2="287" y1="203.1328" y2="203.1328"/><polygon fill="#181818" points="256,199.1328,246,203.1328,256,207.1328,252,203.1328" style="stroke:#181818;stroke-width:1.0;"/><text fill="#000000" font-family="sans-serif" font-size="13" font-weight="bold" lengthAdjust="spacing" textLength="25" x="252" y="185.3779">81.2</text><text fill="#000000" font-family="sans-serif" font-size="13" lengthAdjust="spacing" textLength="124" x="281" y="185.3779">addRequest (request)</text><line style="stroke:#181818;stroke-width:1.0;" x1="245" x2="287" y1="231.6563" y2="231.6563"/><line style="stroke:#181818;stroke-width:1.0;" x1="287" x2="287" y1="231.6563" y2="244.6563"/><line style="stroke:#181818;stroke-width:1.0;" x1="246" x2="287" y1="244.6563" y2="244.6563"/><polygon fill="#181818" points="256,240.6563,246,244.6563,256,248.6563,252,244.6563" style="stroke:#181818;stroke-width:1.0;"/><text fill="#000000" font-family="sans-serif" font-size="13" font-weight="bold" lengthAdjust="spacing" textLength="25" x="252" y="226.9014">81.3</text><text fill="#000000" font-family="sans-serif" font-size="13" lengthAdjust="spacing" textLength="142" x="281" y="226.9014">validateRequest(request)</text><polygon fill="#181818" points="11,276.1797,1,280.1797,11,284.1797,7,280.1797" style="stroke:#181818;stroke-width:1.0;"/><line style="stroke:#181818;stroke-width:1.0;stroke-dasharray:2.0,2.0;" x1="5" x2="239" y1="280.1797" y2="280.1797"/><text fill="#000000" font-family="sans-serif" font-size="13" font-weight="bold" lengthAdjust="spacing" textLength="14" x="17" y="275.4248">82</text><text fill="#000000" font-family="sans-serif" font-size="13" lengthAdjust="spacing" textLength="43" x="35" y="275.4248">request</text><!--SRC=[ZP31Ri8m38RlUGgB4qCh4ZjDrJI9LnXNBYOn9Q9nkiHXuksNDYshAWxBoR7_x_UVnAlb3WCwS9wzlWJl22GaKl4nwL1ViQ63t5k2G5gGctOkY1Sq_iTo0sTi8ocLssArxP05LXbbVJzolH-A5M24KYvqp3wn9aSiMJs_5cRMK0gJU4xkH07UTwhw72rhYEdah7pHTw8eQyjd7noAzVmAVH9vMR3RdK8jzeP2Kop8fma-TN0Op61qKyEaFqK8_TfPgitcF-kVU8pHqPWHX7KeHKxx09v3DsojoU6dbNzWhoSsfPY_-MteV5JLP5V3I2b3oyzGlm00]--></g></svg>