<?xml version="1.0" encoding="us-ascii" standalone="no"?><svg xmlns="http://www.w3.org/2000/svg" xmlns:xlink="http://www.w3.org/1999/xlink" contentStyleType="text/css" height="541.2px" preserveAspectRatio="none" style="width:1314px;height:541px;background:#FFFFFF;" version="1.1" viewBox="0 0 1314 541" width="1314.6px" zoomAndPan="magnify"><defs/><g><!--class ApplicationSession--><g id="elem_ApplicationSession"><rect codeLine="9" fill="#F1F1F1" height="47.5688" id="ApplicationSession" rx="1.5" ry="1.5" style="stroke:#181818;stroke-width:0.3;" width="90.6" x="624.9" y="45.4529"/><ellipse cx="633.9" cy="55.0529" fill="#ADD1B2" rx="6.6" ry="6.6" style="stroke:#181818;stroke-width:0.6;"/><path d="M635.5594,52.5779 Q635.6531,52.4467 635.7656,52.3811 Q635.8781,52.3154 636.0094,52.3154 Q636.2344,52.3154 636.375,52.4748 Q636.5156,52.6248 636.5156,52.9904 L636.5156,53.8623 Q636.5156,54.2279 636.375,54.3873 Q636.2344,54.5467 636.0094,54.5467 Q635.8031,54.5467 635.6813,54.4248 Q635.5594,54.3123 635.4938,54.0029 Q635.4656,53.7873 635.3531,53.6748 Q635.1563,53.4498 634.7906,53.3186 Q634.425,53.1873 634.05,53.1873 Q633.5906,53.1873 633.2063,53.3842 Q632.8313,53.5811 632.5313,54.0311 Q632.2406,54.4811 632.2406,55.0998 L632.2406,55.7561 Q632.2406,56.4967 632.775,56.9936 Q633.3094,57.4811 634.2656,57.4811 Q634.8281,57.4811 635.2219,57.3311 Q635.4563,57.2373 635.7094,56.9748 Q635.8688,56.8154 635.9531,56.7686 Q636.0469,56.7217 636.1687,56.7217 Q636.3656,56.7217 636.5156,56.8811 Q636.675,57.0311 636.675,57.2373 Q636.675,57.4436 636.4688,57.6873 Q636.1687,58.0342 635.6906,58.2311 Q635.0437,58.5029 634.2656,58.5029 Q633.3562,58.5029 632.6344,58.1279 Q632.0437,57.8279 631.6313,57.1904 Q631.2188,56.5436 631.2188,55.7748 L631.2188,55.0811 Q631.2188,54.2842 631.5844,53.5998 Q631.9594,52.9061 632.6156,52.5404 Q633.2719,52.1654 634.0125,52.1654 Q634.4531,52.1654 634.8375,52.2686 Q635.2312,52.3623 635.5594,52.5779 Z " fill="#000000"/><text fill="#000000" font-family="sans-serif" font-size="8.4" lengthAdjust="spacing" textLength="71.4" x="642.3" y="57.965">ApplicationSession</text><line style="stroke:#181818;stroke-width:0.3;" x1="625.5" x2="714.9" y1="64.6529" y2="64.6529"/><line style="stroke:#181818;stroke-width:0.3;" x1="625.5" x2="714.9" y1="69.4529" y2="69.4529"/><text fill="#000000" font-family="sans-serif" font-size="8.4" lengthAdjust="spacing" textLength="76.8" x="628.5" y="79.4572">+static getInstance()</text><text fill="#000000" font-family="sans-serif" font-size="8.4" lengthAdjust="spacing" textLength="81.6" x="628.5" y="88.8416">+getCurrentSession()</text></g><!--class UserSession--><g id="elem_UserSession"><rect codeLine="15" fill="#F1F1F1" height="38.1844" id="UserSession" rx="1.5" ry="1.5" style="stroke:#181818;stroke-width:0.3;" width="67.8" x="381.3" y="143.5529"/><ellipse cx="390.84" cy="153.1529" fill="#ADD1B2" rx="6.6" ry="6.6" style="stroke:#181818;stroke-width:0.6;"/><path d="M392.4994,150.6779 Q392.5931,150.5467 392.7056,150.4811 Q392.8181,150.4154 392.9494,150.4154 Q393.1744,150.4154 393.315,150.5748 Q393.4556,150.7248 393.4556,151.0904 L393.4556,151.9623 Q393.4556,152.3279 393.315,152.4873 Q393.1744,152.6467 392.9494,152.6467 Q392.7431,152.6467 392.6213,152.5248 Q392.4994,152.4123 392.4338,152.1029 Q392.4056,151.8873 392.2931,151.7748 Q392.0963,151.5498 391.7306,151.4186 Q391.365,151.2873 390.99,151.2873 Q390.5306,151.2873 390.1462,151.4842 Q389.7712,151.6811 389.4713,152.1311 Q389.1806,152.5811 389.1806,153.1998 L389.1806,153.8561 Q389.1806,154.5967 389.715,155.0936 Q390.2494,155.5811 391.2056,155.5811 Q391.7681,155.5811 392.1619,155.4311 Q392.3962,155.3373 392.6494,155.0748 Q392.8088,154.9154 392.8931,154.8686 Q392.9869,154.8217 393.1088,154.8217 Q393.3056,154.8217 393.4556,154.9811 Q393.615,155.1311 393.615,155.3373 Q393.615,155.5436 393.4088,155.7873 Q393.1088,156.1342 392.6306,156.3311 Q391.9838,156.6029 391.2056,156.6029 Q390.2963,156.6029 389.5744,156.2279 Q388.9838,155.9279 388.5712,155.2904 Q388.1588,154.6436 388.1588,153.8748 L388.1588,153.1811 Q388.1588,152.3842 388.5244,151.6998 Q388.8994,151.0061 389.5556,150.6404 Q390.2119,150.2654 390.9525,150.2654 Q391.3931,150.2654 391.7775,150.3686 Q392.1713,150.4623 392.4994,150.6779 Z " fill="#000000"/><text fill="#000000" font-family="sans-serif" font-size="8.4" lengthAdjust="spacing" textLength="47.4" x="399.36" y="156.065">UserSession</text><line style="stroke:#181818;stroke-width:0.3;" x1="381.9" x2="448.5" y1="162.7529" y2="162.7529"/><line style="stroke:#181818;stroke-width:0.3;" x1="381.9" x2="448.5" y1="167.5529" y2="167.5529"/><text fill="#000000" font-family="sans-serif" font-size="8.4" lengthAdjust="spacing" textLength="60.6" x="384.9" y="177.5572">+getUserEmail()</text></g><!--class Address--><g id="elem_Address"><rect codeLine="20" fill="#F1F1F1" height="85.1063" id="Address" rx="1.5" ry="1.5" style="stroke:#181818;stroke-width:0.3;" width="171.6" x="1138.8" y="451.9529"/><ellipse cx="1206.45" cy="461.5529" fill="#ADD1B2" rx="6.6" ry="6.6" style="stroke:#181818;stroke-width:0.6;"/><path d="M1208.1094,459.0779 Q1208.2031,458.9467 1208.3156,458.8811 Q1208.4281,458.8154 1208.5594,458.8154 Q1208.7844,458.8154 1208.925,458.9748 Q1209.0656,459.1248 1209.0656,459.4904 L1209.0656,460.3623 Q1209.0656,460.7279 1208.925,460.8873 Q1208.7844,461.0467 1208.5594,461.0467 Q1208.3531,461.0467 1208.2313,460.9248 Q1208.1094,460.8123 1208.0438,460.5029 Q1208.0156,460.2873 1207.9031,460.1748 Q1207.7063,459.9498 1207.3406,459.8186 Q1206.975,459.6873 1206.6,459.6873 Q1206.1406,459.6873 1205.7563,459.8842 Q1205.3813,460.0811 1205.0813,460.5311 Q1204.7906,460.9811 1204.7906,461.5998 L1204.7906,462.2561 Q1204.7906,462.9967 1205.325,463.4936 Q1205.8594,463.9811 1206.8156,463.9811 Q1207.3781,463.9811 1207.7719,463.8311 Q1208.0063,463.7373 1208.2594,463.4748 Q1208.4188,463.3154 1208.5031,463.2686 Q1208.5969,463.2217 1208.7188,463.2217 Q1208.9156,463.2217 1209.0656,463.3811 Q1209.225,463.5311 1209.225,463.7373 Q1209.225,463.9436 1209.0188,464.1873 Q1208.7188,464.5342 1208.2406,464.7311 Q1207.5938,465.0029 1206.8156,465.0029 Q1205.9063,465.0029 1205.1844,464.6279 Q1204.5938,464.3279 1204.1812,463.6904 Q1203.7688,463.0436 1203.7688,462.2748 L1203.7688,461.5811 Q1203.7688,460.7842 1204.1344,460.0998 Q1204.5094,459.4061 1205.1656,459.0404 Q1205.8219,458.6654 1206.5625,458.6654 Q1207.0031,458.6654 1207.3875,458.7686 Q1207.7813,458.8623 1208.1094,459.0779 Z " fill="#000000"/><text fill="#000000" font-family="sans-serif" font-size="8.4" lengthAdjust="spacing" textLength="31.2" x="1218.75" y="464.465">Address</text><line style="stroke:#181818;stroke-width:0.3;" x1="1139.4" x2="1309.8" y1="471.1529" y2="471.1529"/><text fill="#000000" font-family="sans-serif" font-size="8.4" lengthAdjust="spacing" textLength="24.6" x="1142.4" y="481.1572">-street</text><text fill="#000000" font-family="sans-serif" font-size="8.4" lengthAdjust="spacing" textLength="15.6" x="1142.4" y="490.5416">-city</text><text fill="#000000" font-family="sans-serif" font-size="8.4" lengthAdjust="spacing" textLength="27.6" x="1142.4" y="499.926">-district</text><text fill="#000000" font-family="sans-serif" font-size="8.4" lengthAdjust="spacing" textLength="21.6" x="1142.4" y="509.3104">-state</text><text fill="#000000" font-family="sans-serif" font-size="8.4" lengthAdjust="spacing" textLength="33.6" x="1142.4" y="518.6947">-zipCode</text><line style="stroke:#181818;stroke-width:0.3;" x1="1139.4" x2="1309.8" y1="522.8748" y2="522.8748"/><text fill="#000000" font-family="sans-serif" font-size="8.4" lengthAdjust="spacing" textLength="164.4" x="1142.4" y="532.8791">+Adress(street, city, district, state, zipCode)</text></g><!--class Commission--><g id="elem_Commission"><rect codeLine="30" fill="#F1F1F1" height="38.1844" id="Commission" rx="1.5" ry="1.5" style="stroke:#181818;stroke-width:0.3;" width="64.8" x="804.6" y="475.3529"/><ellipse cx="813.6" cy="484.9529" fill="#ADD1B2" rx="6.6" ry="6.6" style="stroke:#181818;stroke-width:0.6;"/><path d="M815.2594,482.4779 Q815.3531,482.3467 815.4656,482.2811 Q815.5781,482.2154 815.7094,482.2154 Q815.9344,482.2154 816.075,482.3748 Q816.2156,482.5248 816.2156,482.8904 L816.2156,483.7623 Q816.2156,484.1279 816.075,484.2873 Q815.9344,484.4467 815.7094,484.4467 Q815.5031,484.4467 815.3813,484.3248 Q815.2594,484.2123 815.1938,483.9029 Q815.1656,483.6873 815.0531,483.5748 Q814.8562,483.3498 814.4906,483.2186 Q814.125,483.0873 813.75,483.0873 Q813.2906,483.0873 812.9063,483.2842 Q812.5313,483.4811 812.2312,483.9311 Q811.9406,484.3811 811.9406,484.9998 L811.9406,485.6561 Q811.9406,486.3967 812.475,486.8936 Q813.0094,487.3811 813.9656,487.3811 Q814.5281,487.3811 814.9219,487.2311 Q815.1563,487.1373 815.4094,486.8748 Q815.5688,486.7154 815.6531,486.6686 Q815.7469,486.6217 815.8688,486.6217 Q816.0656,486.6217 816.2156,486.7811 Q816.375,486.9311 816.375,487.1373 Q816.375,487.3436 816.1687,487.5873 Q815.8688,487.9342 815.3906,488.1311 Q814.7438,488.4029 813.9656,488.4029 Q813.0563,488.4029 812.3344,488.0279 Q811.7438,487.7279 811.3313,487.0904 Q810.9187,486.4436 810.9187,485.6748 L810.9187,484.9811 Q810.9187,484.1842 811.2844,483.4998 Q811.6594,482.8061 812.3156,482.4404 Q812.9719,482.0654 813.7125,482.0654 Q814.1531,482.0654 814.5375,482.1686 Q814.9313,482.2623 815.2594,482.4779 Z " fill="#000000"/><text fill="#000000" font-family="sans-serif" font-size="8.4" lengthAdjust="spacing" textLength="45.6" x="822" y="487.865">Commission</text><line style="stroke:#181818;stroke-width:0.3;" x1="805.2" x2="868.8" y1="494.5529" y2="494.5529"/><text fill="#000000" font-family="sans-serif" font-size="8.4" lengthAdjust="spacing" textLength="9.6" x="808.2" y="504.5572">-id</text><line style="stroke:#181818;stroke-width:0.3;" x1="805.2" x2="868.8" y1="508.7373" y2="508.7373"/></g><!--class Agent--><g id="elem_Agent"><rect codeLine="34" fill="#F1F1F1" height="56.9531" id="Agent" rx="1.5" ry="1.5" style="stroke:#181818;stroke-width:0.3;" width="72.6" x="1199.1" y="358.3529"/><ellipse cx="1222.14" cy="367.9529" fill="#ADD1B2" rx="6.6" ry="6.6" style="stroke:#181818;stroke-width:0.6;"/><path d="M1223.7994,365.4779 Q1223.8931,365.3467 1224.0056,365.2811 Q1224.1181,365.2154 1224.2494,365.2154 Q1224.4744,365.2154 1224.615,365.3748 Q1224.7556,365.5248 1224.7556,365.8904 L1224.7556,366.7623 Q1224.7556,367.1279 1224.615,367.2873 Q1224.4744,367.4467 1224.2494,367.4467 Q1224.0431,367.4467 1223.9213,367.3248 Q1223.7994,367.2123 1223.7338,366.9029 Q1223.7056,366.6873 1223.5931,366.5748 Q1223.3963,366.3498 1223.0306,366.2186 Q1222.665,366.0873 1222.29,366.0873 Q1221.8306,366.0873 1221.4463,366.2842 Q1221.0713,366.4811 1220.7713,366.9311 Q1220.4806,367.3811 1220.4806,367.9998 L1220.4806,368.6561 Q1220.4806,369.3967 1221.015,369.8936 Q1221.5494,370.3811 1222.5056,370.3811 Q1223.0681,370.3811 1223.4619,370.2311 Q1223.6963,370.1373 1223.9494,369.8748 Q1224.1088,369.7154 1224.1931,369.6686 Q1224.2869,369.6217 1224.4088,369.6217 Q1224.6056,369.6217 1224.7556,369.7811 Q1224.915,369.9311 1224.915,370.1373 Q1224.915,370.3436 1224.7088,370.5873 Q1224.4088,370.9342 1223.9306,371.1311 Q1223.2838,371.4029 1222.5056,371.4029 Q1221.5963,371.4029 1220.8744,371.0279 Q1220.2838,370.7279 1219.8713,370.0904 Q1219.4588,369.4436 1219.4588,368.6748 L1219.4588,367.9811 Q1219.4588,367.1842 1219.8244,366.4998 Q1220.1994,365.8061 1220.8556,365.4404 Q1221.5119,365.0654 1222.2525,365.0654 Q1222.6931,365.0654 1223.0775,365.1686 Q1223.4713,365.2623 1223.7994,365.4779 Z " fill="#000000"/><text fill="#000000" font-family="sans-serif" font-size="8.4" lengthAdjust="spacing" textLength="22.2" x="1233.66" y="370.865">Agent</text><line style="stroke:#181818;stroke-width:0.3;" x1="1199.7" x2="1271.1" y1="377.5529" y2="377.5529"/><text fill="#000000" font-family="sans-serif" font-size="8.4" lengthAdjust="spacing" textLength="56.4" x="1202.7" y="387.5572">-phoneNumber</text><text fill="#000000" font-family="sans-serif" font-size="8.4" lengthAdjust="spacing" textLength="43.2" x="1202.7" y="396.9416">-taxNumber</text><text fill="#000000" font-family="sans-serif" font-size="8.4" lengthAdjust="spacing" textLength="65.4" x="1202.7" y="406.326">-passportNumber</text><line style="stroke:#181818;stroke-width:0.3;" x1="1199.7" x2="1271.1" y1="410.5061" y2="410.5061"/></g><!--class Announcement--><g id="elem_Announcement"><rect codeLine="40" fill="#F1F1F1" height="47.5688" id="Announcement" rx="1.5" ry="1.5" style="stroke:#181818;stroke-width:0.3;" width="388.8" x="744.6" y="363.1529"/><ellipse cx="907.95" cy="372.7529" fill="#ADD1B2" rx="6.6" ry="6.6" style="stroke:#181818;stroke-width:0.6;"/><path d="M909.6094,370.2779 Q909.7031,370.1467 909.8156,370.0811 Q909.9281,370.0154 910.0594,370.0154 Q910.2844,370.0154 910.425,370.1748 Q910.5656,370.3248 910.5656,370.6904 L910.5656,371.5623 Q910.5656,371.9279 910.425,372.0873 Q910.2844,372.2467 910.0594,372.2467 Q909.8531,372.2467 909.7312,372.1248 Q909.6094,372.0123 909.5437,371.7029 Q909.5156,371.4873 909.4031,371.3748 Q909.2063,371.1498 908.8406,371.0186 Q908.475,370.8873 908.1,370.8873 Q907.6406,370.8873 907.2563,371.0842 Q906.8813,371.2811 906.5813,371.7311 Q906.2906,372.1811 906.2906,372.7998 L906.2906,373.4561 Q906.2906,374.1967 906.825,374.6936 Q907.3594,375.1811 908.3156,375.1811 Q908.8781,375.1811 909.2719,375.0311 Q909.5063,374.9373 909.7594,374.6748 Q909.9187,374.5154 910.0031,374.4686 Q910.0969,374.4217 910.2188,374.4217 Q910.4156,374.4217 910.5656,374.5811 Q910.725,374.7311 910.725,374.9373 Q910.725,375.1436 910.5188,375.3873 Q910.2188,375.7342 909.7406,375.9311 Q909.0938,376.2029 908.3156,376.2029 Q907.4063,376.2029 906.6844,375.8279 Q906.0938,375.5279 905.6813,374.8904 Q905.2688,374.2436 905.2688,373.4748 L905.2688,372.7811 Q905.2688,371.9842 905.6344,371.2998 Q906.0094,370.6061 906.6656,370.2404 Q907.3219,369.8654 908.0625,369.8654 Q908.5031,369.8654 908.8875,369.9686 Q909.2813,370.0623 909.6094,370.2779 Z " fill="#000000"/><text fill="#000000" font-family="sans-serif" font-size="8.4" lengthAdjust="spacing" textLength="57" x="920.25" y="375.665">Announcement</text><line style="stroke:#181818;stroke-width:0.3;" x1="745.2" x2="1132.8" y1="382.3529" y2="382.3529"/><text fill="#000000" font-family="sans-serif" font-size="8.4" lengthAdjust="spacing" textLength="86.4" x="748.2" y="392.3572">-String publicationDate</text><line style="stroke:#181818;stroke-width:0.3;" x1="745.2" x2="1132.8" y1="396.5373" y2="396.5373"/><text fill="#000000" font-family="sans-serif" font-size="8.4" lengthAdjust="spacing" textLength="381.6" x="748.2" y="406.5416">+Announcement(Address, AnnouncementCategory, PropertyCategory, Commission, publicationDate)</text></g><!--class Agency--><g id="elem_Agency"><rect codeLine="46" fill="#F1F1F1" height="94.4906" id="Agency" rx="1.5" ry="1.5" style="stroke:#181818;stroke-width:0.3;" width="159" x="992.1" y="218.5529"/><ellipse cx="1054.95" cy="228.1529" fill="#ADD1B2" rx="6.6" ry="6.6" style="stroke:#181818;stroke-width:0.6;"/><path d="M1056.6094,225.6779 Q1056.7031,225.5467 1056.8156,225.4811 Q1056.9281,225.4154 1057.0594,225.4154 Q1057.2844,225.4154 1057.425,225.5748 Q1057.5656,225.7248 1057.5656,226.0904 L1057.5656,226.9623 Q1057.5656,227.3279 1057.425,227.4873 Q1057.2844,227.6467 1057.0594,227.6467 Q1056.8531,227.6467 1056.7313,227.5248 Q1056.6094,227.4123 1056.5438,227.1029 Q1056.5156,226.8873 1056.4031,226.7748 Q1056.2063,226.5498 1055.8406,226.4186 Q1055.475,226.2873 1055.1,226.2873 Q1054.6406,226.2873 1054.2563,226.4842 Q1053.8813,226.6811 1053.5813,227.1311 Q1053.2906,227.5811 1053.2906,228.1998 L1053.2906,228.8561 Q1053.2906,229.5967 1053.825,230.0936 Q1054.3594,230.5811 1055.3156,230.5811 Q1055.8781,230.5811 1056.2719,230.4311 Q1056.5063,230.3373 1056.7594,230.0748 Q1056.9188,229.9154 1057.0031,229.8686 Q1057.0969,229.8217 1057.2188,229.8217 Q1057.4156,229.8217 1057.5656,229.9811 Q1057.725,230.1311 1057.725,230.3373 Q1057.725,230.5436 1057.5188,230.7873 Q1057.2188,231.1342 1056.7406,231.3311 Q1056.0938,231.6029 1055.3156,231.6029 Q1054.4063,231.6029 1053.6844,231.2279 Q1053.0938,230.9279 1052.6812,230.2904 Q1052.2688,229.6436 1052.2688,228.8748 L1052.2688,228.1811 Q1052.2688,227.3842 1052.6344,226.6998 Q1053.0094,226.0061 1053.6656,225.6404 Q1054.3219,225.2654 1055.0625,225.2654 Q1055.5031,225.2654 1055.8875,225.3686 Q1056.2813,225.4623 1056.6094,225.6779 Z " fill="#000000"/><text fill="#000000" font-family="sans-serif" font-size="8.4" lengthAdjust="spacing" textLength="28.2" x="1067.25" y="231.065">Agency</text><line style="stroke:#181818;stroke-width:0.3;" x1="992.7" x2="1150.5" y1="237.7529" y2="237.7529"/><text fill="#000000" font-family="sans-serif" font-size="8.4" lengthAdjust="spacing" textLength="71.4" x="995.7" y="247.7572">-String designation</text><text fill="#000000" font-family="sans-serif" font-size="8.4" lengthAdjust="spacing" textLength="47.4" x="995.7" y="257.1416">-String email</text><text fill="#000000" font-family="sans-serif" font-size="8.4" lengthAdjust="spacing" textLength="67.8" x="995.7" y="266.526">-int phoneNumber</text><line style="stroke:#181818;stroke-width:0.3;" x1="992.7" x2="1150.5" y1="270.7061" y2="270.7061"/><text fill="#000000" font-family="sans-serif" font-size="8.4" lengthAdjust="spacing" textLength="136.8" x="995.7" y="280.7104">-addAnnouncement(announcement)</text><text fill="#000000" font-family="sans-serif" font-size="8.4" lengthAdjust="spacing" textLength="151.8" x="995.7" y="290.0947">-validateAnnouncement(announcement)</text><text fill="#000000" font-family="sans-serif" font-size="8.4" lengthAdjust="spacing" textLength="39" x="995.7" y="299.4791">+Agency()</text><text fill="#000000" font-family="sans-serif" font-size="8.4" lengthAdjust="spacing" textLength="93" x="995.7" y="308.8635">-publishAnnouncement()</text></g><!--class RequestAnnouncementUI--><g id="elem_RequestAnnouncementUI"><rect codeLine="57" fill="#F1F1F1" height="28.8" id="RequestAnnouncementUI" rx="1.5" ry="1.5" style="stroke:#181818;stroke-width:0.3;" width="115.2" x="4.2" y="54.7529"/><ellipse cx="13.2" cy="64.3529" fill="#ADD1B2" rx="6.6" ry="6.6" style="stroke:#181818;stroke-width:0.6;"/><path d="M14.8594,61.8779 Q14.9531,61.7467 15.0656,61.6811 Q15.1781,61.6154 15.3094,61.6154 Q15.5344,61.6154 15.675,61.7748 Q15.8156,61.9248 15.8156,62.2904 L15.8156,63.1623 Q15.8156,63.5279 15.675,63.6873 Q15.5344,63.8467 15.3094,63.8467 Q15.1031,63.8467 14.9813,63.7248 Q14.8594,63.6123 14.7938,63.3029 Q14.7656,63.0873 14.6531,62.9748 Q14.4562,62.7498 14.0906,62.6186 Q13.725,62.4873 13.35,62.4873 Q12.8906,62.4873 12.5063,62.6842 Q12.1313,62.8811 11.8312,63.3311 Q11.5406,63.7811 11.5406,64.3998 L11.5406,65.0561 Q11.5406,65.7967 12.075,66.2936 Q12.6094,66.7811 13.5656,66.7811 Q14.1281,66.7811 14.5219,66.6311 Q14.7563,66.5373 15.0094,66.2748 Q15.1688,66.1154 15.2531,66.0686 Q15.3469,66.0217 15.4688,66.0217 Q15.6656,66.0217 15.8156,66.1811 Q15.975,66.3311 15.975,66.5373 Q15.975,66.7436 15.7687,66.9873 Q15.4688,67.3342 14.9906,67.5311 Q14.3438,67.8029 13.5656,67.8029 Q12.6563,67.8029 11.9344,67.4279 Q11.3438,67.1279 10.9313,66.4904 Q10.5187,65.8436 10.5187,65.0748 L10.5187,64.3811 Q10.5187,63.5842 10.8844,62.8998 Q11.2594,62.2061 11.9156,61.8404 Q12.5719,61.4654 13.3125,61.4654 Q13.7531,61.4654 14.1375,61.5686 Q14.5313,61.6623 14.8594,61.8779 Z " fill="#000000"/><text fill="#000000" font-family="sans-serif" font-size="8.4" lengthAdjust="spacing" textLength="96" x="21.6" y="67.265">RequestAnnouncementUI</text><line style="stroke:#181818;stroke-width:0.3;" x1="4.8" x2="118.8" y1="73.9529" y2="73.9529"/><line style="stroke:#181818;stroke-width:0.3;" x1="4.8" x2="118.8" y1="78.7529" y2="78.7529"/></g><!--class RequestAnnouncementController--><g id="elem_RequestAnnouncementController"><rect codeLine="62" fill="#F1F1F1" height="75.7219" id="RequestAnnouncementController" rx="1.5" ry="1.5" style="stroke:#181818;stroke-width:0.3;" width="463.2" x="140.4" y="31.3529"/><ellipse cx="306.45" cy="40.9529" fill="#ADD1B2" rx="6.6" ry="6.6" style="stroke:#181818;stroke-width:0.6;"/><path d="M308.1094,38.4779 Q308.2031,38.3467 308.3156,38.2811 Q308.4281,38.2154 308.5594,38.2154 Q308.7844,38.2154 308.925,38.3748 Q309.0656,38.5248 309.0656,38.8904 L309.0656,39.7623 Q309.0656,40.1279 308.925,40.2873 Q308.7844,40.4467 308.5594,40.4467 Q308.3531,40.4467 308.2313,40.3248 Q308.1094,40.2123 308.0438,39.9029 Q308.0156,39.6873 307.9031,39.5748 Q307.7063,39.3498 307.3406,39.2186 Q306.975,39.0873 306.6,39.0873 Q306.1406,39.0873 305.7562,39.2842 Q305.3812,39.4811 305.0813,39.9311 Q304.7906,40.3811 304.7906,40.9998 L304.7906,41.6561 Q304.7906,42.3967 305.325,42.8936 Q305.8594,43.3811 306.8156,43.3811 Q307.3781,43.3811 307.7719,43.2311 Q308.0062,43.1373 308.2594,42.8748 Q308.4188,42.7154 308.5031,42.6686 Q308.5969,42.6217 308.7188,42.6217 Q308.9156,42.6217 309.0656,42.7811 Q309.225,42.9311 309.225,43.1373 Q309.225,43.3436 309.0188,43.5873 Q308.7188,43.9342 308.2406,44.1311 Q307.5938,44.4029 306.8156,44.4029 Q305.9063,44.4029 305.1844,44.0279 Q304.5938,43.7279 304.1813,43.0904 Q303.7688,42.4436 303.7688,41.6748 L303.7688,40.9811 Q303.7688,40.1842 304.1344,39.4998 Q304.5094,38.8061 305.1656,38.4404 Q305.8219,38.0654 306.5625,38.0654 Q307.0031,38.0654 307.3875,38.1686 Q307.7813,38.2623 308.1094,38.4779 Z " fill="#000000"/><text fill="#000000" font-family="sans-serif" font-size="8.4" lengthAdjust="spacing" textLength="126" x="318.75" y="43.865">RequestAnnouncementController</text><line style="stroke:#181818;stroke-width:0.3;" x1="141" x2="603" y1="50.5529" y2="50.5529"/><line style="stroke:#181818;stroke-width:0.3;" x1="141" x2="603" y1="55.3529" y2="55.3529"/><text fill="#000000" font-family="sans-serif" font-size="8.4" lengthAdjust="spacing" textLength="456" x="144" y="65.3572">+RequestAnnouncementController(AnnouncementCategoryRepository, PropertyCategoryRepository, AgencyRepository)</text><text fill="#000000" font-family="sans-serif" font-size="8.4" lengthAdjust="spacing" textLength="67.2" x="144" y="74.7416">+submitRequest()</text><text fill="#000000" font-family="sans-serif" font-size="8.4" lengthAdjust="spacing" textLength="298.8" x="144" y="84.126">-getAnnouncementCategoryByDescription(announcementCategoryDescription)</text><text fill="#000000" font-family="sans-serif" font-size="8.4" lengthAdjust="spacing" textLength="249.6" x="144" y="93.5104">-getPropertyCategoryByDescription(propertyCategoryDescription)</text><text fill="#000000" font-family="sans-serif" font-size="8.4" lengthAdjust="spacing" textLength="176.4" x="144" y="102.8947">-getAgencyByDesignation(agencyDesignation)</text></g><!--class Repositories--><g id="elem_Repositories"><rect codeLine="70" fill="#F1F1F1" height="75.7219" id="Repositories" rx="1.5" ry="1.5" style="stroke:#181818;stroke-width:0.3;" width="162.6" x="783.9" y="31.3529"/><ellipse cx="838.95" cy="40.9529" fill="#ADD1B2" rx="6.6" ry="6.6" style="stroke:#181818;stroke-width:0.6;"/><path d="M840.6094,38.4779 Q840.7031,38.3467 840.8156,38.2811 Q840.9281,38.2154 841.0594,38.2154 Q841.2844,38.2154 841.425,38.3748 Q841.5656,38.5248 841.5656,38.8904 L841.5656,39.7623 Q841.5656,40.1279 841.425,40.2873 Q841.2844,40.4467 841.0594,40.4467 Q840.8531,40.4467 840.7312,40.3248 Q840.6094,40.2123 840.5437,39.9029 Q840.5156,39.6873 840.4031,39.5748 Q840.2063,39.3498 839.8406,39.2186 Q839.475,39.0873 839.1,39.0873 Q838.6406,39.0873 838.2563,39.2842 Q837.8813,39.4811 837.5813,39.9311 Q837.2906,40.3811 837.2906,40.9998 L837.2906,41.6561 Q837.2906,42.3967 837.825,42.8936 Q838.3594,43.3811 839.3156,43.3811 Q839.8781,43.3811 840.2719,43.2311 Q840.5063,43.1373 840.7594,42.8748 Q840.9187,42.7154 841.0031,42.6686 Q841.0969,42.6217 841.2188,42.6217 Q841.4156,42.6217 841.5656,42.7811 Q841.725,42.9311 841.725,43.1373 Q841.725,43.3436 841.5188,43.5873 Q841.2188,43.9342 840.7406,44.1311 Q840.0938,44.4029 839.3156,44.4029 Q838.4063,44.4029 837.6844,44.0279 Q837.0938,43.7279 836.6813,43.0904 Q836.2688,42.4436 836.2688,41.6748 L836.2688,40.9811 Q836.2688,40.1842 836.6344,39.4998 Q837.0094,38.8061 837.6656,38.4404 Q838.3219,38.0654 839.0625,38.0654 Q839.5031,38.0654 839.8875,38.1686 Q840.2813,38.2623 840.6094,38.4779 Z " fill="#000000"/><text fill="#000000" font-family="sans-serif" font-size="8.4" lengthAdjust="spacing" textLength="47.4" x="851.25" y="43.865">Repositories</text><line style="stroke:#181818;stroke-width:0.3;" x1="784.5" x2="945.9" y1="50.5529" y2="50.5529"/><line style="stroke:#181818;stroke-width:0.3;" x1="784.5" x2="945.9" y1="55.3529" y2="55.3529"/><text fill="#000000" font-family="sans-serif" font-size="8.4" lengthAdjust="spacing" textLength="56.4" x="787.5" y="65.3572">-Repositories()</text><text fill="#000000" font-family="sans-serif" font-size="8.4" lengthAdjust="spacing" textLength="109.2" x="787.5" y="74.7416">+getInstance() : Repositories</text><text fill="#000000" font-family="sans-serif" font-size="8.4" lengthAdjust="spacing" textLength="155.4" x="787.5" y="84.126">+getAnnouncementCategoryRepository()</text><text fill="#000000" font-family="sans-serif" font-size="8.4" lengthAdjust="spacing" textLength="130.8" x="787.5" y="93.5104">+getPropertyCategoryRepository()</text><text fill="#000000" font-family="sans-serif" font-size="8.4" lengthAdjust="spacing" textLength="91.8" x="787.5" y="102.8947">+getAgencyRepository()</text></g><!--class AgencyRepository--><g id="elem_AgencyRepository"><rect codeLine="78" fill="#F1F1F1" height="38.1844" id="AgencyRepository" rx="1.5" ry="1.5" style="stroke:#181818;stroke-width:0.3;" width="112.8" x="1015.2" y="143.5529"/><ellipse cx="1035.27" cy="153.1529" fill="#ADD1B2" rx="6.6" ry="6.6" style="stroke:#181818;stroke-width:0.6;"/><path d="M1036.9294,150.6779 Q1037.0231,150.5467 1037.1356,150.4811 Q1037.2481,150.4154 1037.3794,150.4154 Q1037.6044,150.4154 1037.745,150.5748 Q1037.8856,150.7248 1037.8856,151.0904 L1037.8856,151.9623 Q1037.8856,152.3279 1037.745,152.4873 Q1037.6044,152.6467 1037.3794,152.6467 Q1037.1731,152.6467 1037.0513,152.5248 Q1036.9294,152.4123 1036.8638,152.1029 Q1036.8356,151.8873 1036.7231,151.7748 Q1036.5263,151.5498 1036.1606,151.4186 Q1035.795,151.2873 1035.42,151.2873 Q1034.9606,151.2873 1034.5763,151.4842 Q1034.2013,151.6811 1033.9013,152.1311 Q1033.6106,152.5811 1033.6106,153.1998 L1033.6106,153.8561 Q1033.6106,154.5967 1034.145,155.0936 Q1034.6794,155.5811 1035.6356,155.5811 Q1036.1981,155.5811 1036.5919,155.4311 Q1036.8263,155.3373 1037.0794,155.0748 Q1037.2388,154.9154 1037.3231,154.8686 Q1037.4169,154.8217 1037.5388,154.8217 Q1037.7356,154.8217 1037.8856,154.9811 Q1038.045,155.1311 1038.045,155.3373 Q1038.045,155.5436 1037.8388,155.7873 Q1037.5388,156.1342 1037.0606,156.3311 Q1036.4138,156.6029 1035.6356,156.6029 Q1034.7263,156.6029 1034.0044,156.2279 Q1033.4138,155.9279 1033.0013,155.2904 Q1032.5888,154.6436 1032.5888,153.8748 L1032.5888,153.1811 Q1032.5888,152.3842 1032.9544,151.6998 Q1033.3294,151.0061 1033.9856,150.6404 Q1034.6419,150.2654 1035.3825,150.2654 Q1035.8231,150.2654 1036.2075,150.3686 Q1036.6013,150.4623 1036.9294,150.6779 Z " fill="#000000"/><text fill="#000000" font-family="sans-serif" font-size="8.4" lengthAdjust="spacing" textLength="69" x="1046.13" y="156.065">AgencyRepository</text><line style="stroke:#181818;stroke-width:0.3;" x1="1015.8" x2="1127.4" y1="162.7529" y2="162.7529"/><line style="stroke:#181818;stroke-width:0.3;" x1="1015.8" x2="1127.4" y1="167.5529" y2="167.5529"/><text fill="#000000" font-family="sans-serif" font-size="8.4" lengthAdjust="spacing" textLength="105.6" x="1018.8" y="177.5572">+getAgencyByDesignation()</text></g><!--class PropertyCategoryRepository--><g id="elem_PropertyCategoryRepository"><rect codeLine="82" fill="#F1F1F1" height="38.1844" id="PropertyCategoryRepository" rx="1.5" ry="1.5" style="stroke:#181818;stroke-width:0.3;" width="149.4" x="665.7" y="143.5529"/><ellipse cx="684.69" cy="153.1529" fill="#ADD1B2" rx="6.6" ry="6.6" style="stroke:#181818;stroke-width:0.6;"/><path d="M686.3494,150.6779 Q686.4431,150.5467 686.5556,150.4811 Q686.6681,150.4154 686.7994,150.4154 Q687.0244,150.4154 687.165,150.5748 Q687.3056,150.7248 687.3056,151.0904 L687.3056,151.9623 Q687.3056,152.3279 687.165,152.4873 Q687.0244,152.6467 686.7994,152.6467 Q686.5931,152.6467 686.4713,152.5248 Q686.3494,152.4123 686.2838,152.1029 Q686.2556,151.8873 686.1431,151.7748 Q685.9463,151.5498 685.5806,151.4186 Q685.215,151.2873 684.84,151.2873 Q684.3806,151.2873 683.9963,151.4842 Q683.6213,151.6811 683.3213,152.1311 Q683.0306,152.5811 683.0306,153.1998 L683.0306,153.8561 Q683.0306,154.5967 683.565,155.0936 Q684.0994,155.5811 685.0556,155.5811 Q685.6181,155.5811 686.0119,155.4311 Q686.2463,155.3373 686.4994,155.0748 Q686.6588,154.9154 686.7431,154.8686 Q686.8369,154.8217 686.9588,154.8217 Q687.1556,154.8217 687.3056,154.9811 Q687.465,155.1311 687.465,155.3373 Q687.465,155.5436 687.2588,155.7873 Q686.9588,156.1342 686.4806,156.3311 Q685.8338,156.6029 685.0556,156.6029 Q684.1463,156.6029 683.4244,156.2279 Q682.8338,155.9279 682.4213,155.2904 Q682.0088,154.6436 682.0088,153.8748 L682.0088,153.1811 Q682.0088,152.3842 682.3744,151.6998 Q682.7494,151.0061 683.4056,150.6404 Q684.0619,150.2654 684.8025,150.2654 Q685.2431,150.2654 685.6275,150.3686 Q686.0213,150.4623 686.3494,150.6779 Z " fill="#000000"/><text fill="#000000" font-family="sans-serif" font-size="8.4" lengthAdjust="spacing" textLength="108" x="695.31" y="156.065">PropertyCategoryRepository</text><line style="stroke:#181818;stroke-width:0.3;" x1="666.3" x2="814.5" y1="162.7529" y2="162.7529"/><line style="stroke:#181818;stroke-width:0.3;" x1="666.3" x2="814.5" y1="167.5529" y2="167.5529"/><text fill="#000000" font-family="sans-serif" font-size="8.4" lengthAdjust="spacing" textLength="142.2" x="669.3" y="177.5572">+getPropertyCategoryByDescription()</text></g><!--class AnnouncementCategoryRepository--><g id="elem_AnnouncementCategoryRepository"><rect codeLine="86" fill="#F1F1F1" height="38.1844" id="AnnouncementCategoryRepository" rx="1.5" ry="1.5" style="stroke:#181818;stroke-width:0.3;" width="174" x="470.4" y="143.5529"/><ellipse cx="489.39" cy="153.1529" fill="#ADD1B2" rx="6.6" ry="6.6" style="stroke:#181818;stroke-width:0.6;"/><path d="M491.0494,150.6779 Q491.1431,150.5467 491.2556,150.4811 Q491.3681,150.4154 491.4994,150.4154 Q491.7244,150.4154 491.865,150.5748 Q492.0056,150.7248 492.0056,151.0904 L492.0056,151.9623 Q492.0056,152.3279 491.865,152.4873 Q491.7244,152.6467 491.4994,152.6467 Q491.2931,152.6467 491.1713,152.5248 Q491.0494,152.4123 490.9838,152.1029 Q490.9556,151.8873 490.8431,151.7748 Q490.6462,151.5498 490.2806,151.4186 Q489.915,151.2873 489.54,151.2873 Q489.0806,151.2873 488.6962,151.4842 Q488.3212,151.6811 488.0212,152.1311 Q487.7306,152.5811 487.7306,153.1998 L487.7306,153.8561 Q487.7306,154.5967 488.265,155.0936 Q488.7994,155.5811 489.7556,155.5811 Q490.3181,155.5811 490.7119,155.4311 Q490.9462,155.3373 491.1994,155.0748 Q491.3588,154.9154 491.4431,154.8686 Q491.5369,154.8217 491.6587,154.8217 Q491.8556,154.8217 492.0056,154.9811 Q492.165,155.1311 492.165,155.3373 Q492.165,155.5436 491.9587,155.7873 Q491.6587,156.1342 491.1806,156.3311 Q490.5337,156.6029 489.7556,156.6029 Q488.8462,156.6029 488.1244,156.2279 Q487.5337,155.9279 487.1213,155.2904 Q486.7087,154.6436 486.7087,153.8748 L486.7087,153.1811 Q486.7087,152.3842 487.0744,151.6998 Q487.4494,151.0061 488.1056,150.6404 Q488.7619,150.2654 489.5025,150.2654 Q489.9431,150.2654 490.3275,150.3686 Q490.7212,150.4623 491.0494,150.6779 Z " fill="#000000"/><text fill="#000000" font-family="sans-serif" font-size="8.4" lengthAdjust="spacing" textLength="132.6" x="500.01" y="156.065">AnnouncementCategoryRepository</text><line style="stroke:#181818;stroke-width:0.3;" x1="471" x2="643.8" y1="162.7529" y2="162.7529"/><line style="stroke:#181818;stroke-width:0.3;" x1="471" x2="643.8" y1="167.5529" y2="167.5529"/><text fill="#000000" font-family="sans-serif" font-size="8.4" lengthAdjust="spacing" textLength="166.8" x="474" y="177.5572">+getAnnouncementCategoryByDescription()</text></g><!--class PropertyCategory--><g id="elem_PropertyCategory"><rect codeLine="91" fill="#F1F1F1" height="47.5688" id="PropertyCategory" rx="1.5" ry="1.5" style="stroke:#181818;stroke-width:0.3;" width="126.6" x="653.1" y="470.8529"/><ellipse cx="680.25" cy="480.4529" fill="#ADD1B2" rx="6.6" ry="6.6" style="stroke:#181818;stroke-width:0.6;"/><path d="M681.9094,477.9779 Q682.0031,477.8467 682.1156,477.7811 Q682.2281,477.7154 682.3594,477.7154 Q682.5844,477.7154 682.725,477.8748 Q682.8656,478.0248 682.8656,478.3904 L682.8656,479.2623 Q682.8656,479.6279 682.725,479.7873 Q682.5844,479.9467 682.3594,479.9467 Q682.1531,479.9467 682.0313,479.8248 Q681.9094,479.7123 681.8438,479.4029 Q681.8156,479.1873 681.7031,479.0748 Q681.5063,478.8498 681.1406,478.7186 Q680.775,478.5873 680.4,478.5873 Q679.9406,478.5873 679.5563,478.7842 Q679.1813,478.9811 678.8813,479.4311 Q678.5906,479.8811 678.5906,480.4998 L678.5906,481.1561 Q678.5906,481.8967 679.125,482.3936 Q679.6594,482.8811 680.6156,482.8811 Q681.1781,482.8811 681.5719,482.7311 Q681.8063,482.6373 682.0594,482.3748 Q682.2188,482.2154 682.3031,482.1686 Q682.3969,482.1217 682.5188,482.1217 Q682.7156,482.1217 682.8656,482.2811 Q683.025,482.4311 683.025,482.6373 Q683.025,482.8436 682.8188,483.0873 Q682.5188,483.4342 682.0406,483.6311 Q681.3938,483.9029 680.6156,483.9029 Q679.7063,483.9029 678.9844,483.5279 Q678.3938,483.2279 677.9812,482.5904 Q677.5688,481.9436 677.5688,481.1748 L677.5688,480.4811 Q677.5688,479.6842 677.9344,478.9998 Q678.3094,478.3061 678.9656,477.9404 Q679.6219,477.5654 680.3625,477.5654 Q680.8031,477.5654 681.1875,477.6686 Q681.5813,477.7623 681.9094,477.9779 Z " fill="#000000"/><text fill="#000000" font-family="sans-serif" font-size="8.4" lengthAdjust="spacing" textLength="67.2" x="692.55" y="483.365">PropertyCategory</text><line style="stroke:#181818;stroke-width:0.3;" x1="653.7" x2="779.1" y1="490.0529" y2="490.0529"/><text fill="#000000" font-family="sans-serif" font-size="8.4" lengthAdjust="spacing" textLength="69" x="656.7" y="500.0572">-String description</text><line style="stroke:#181818;stroke-width:0.3;" x1="653.7" x2="779.1" y1="504.2373" y2="504.2373"/><text fill="#000000" font-family="sans-serif" font-size="8.4" lengthAdjust="spacing" textLength="119.4" x="656.7" y="514.2416">+PropertyCategory(description)</text></g><!--class AnnouncementCategory--><g id="elem_AnnouncementCategory"><rect codeLine="97" fill="#F1F1F1" height="47.5688" id="AnnouncementCategory" rx="1.5" ry="1.5" style="stroke:#181818;stroke-width:0.3;" width="151.2" x="480.6" y="470.8529"/><ellipse cx="507.75" cy="480.4529" fill="#ADD1B2" rx="6.6" ry="6.6" style="stroke:#181818;stroke-width:0.6;"/><path d="M509.4094,477.9779 Q509.5031,477.8467 509.6156,477.7811 Q509.7281,477.7154 509.8594,477.7154 Q510.0844,477.7154 510.225,477.8748 Q510.3656,478.0248 510.3656,478.3904 L510.3656,479.2623 Q510.3656,479.6279 510.225,479.7873 Q510.0844,479.9467 509.8594,479.9467 Q509.6531,479.9467 509.5313,479.8248 Q509.4094,479.7123 509.3438,479.4029 Q509.3156,479.1873 509.2031,479.0748 Q509.0062,478.8498 508.6406,478.7186 Q508.275,478.5873 507.9,478.5873 Q507.4406,478.5873 507.0563,478.7842 Q506.6813,478.9811 506.3812,479.4311 Q506.0906,479.8811 506.0906,480.4998 L506.0906,481.1561 Q506.0906,481.8967 506.625,482.3936 Q507.1594,482.8811 508.1156,482.8811 Q508.6781,482.8811 509.0719,482.7311 Q509.3063,482.6373 509.5594,482.3748 Q509.7188,482.2154 509.8031,482.1686 Q509.8969,482.1217 510.0187,482.1217 Q510.2156,482.1217 510.3656,482.2811 Q510.525,482.4311 510.525,482.6373 Q510.525,482.8436 510.3187,483.0873 Q510.0187,483.4342 509.5406,483.6311 Q508.8937,483.9029 508.1156,483.9029 Q507.2062,483.9029 506.4844,483.5279 Q505.8937,483.2279 505.4813,482.5904 Q505.0687,481.9436 505.0687,481.1748 L505.0687,480.4811 Q505.0687,479.6842 505.4344,478.9998 Q505.8094,478.3061 506.4656,477.9404 Q507.1219,477.5654 507.8625,477.5654 Q508.3031,477.5654 508.6875,477.6686 Q509.0812,477.7623 509.4094,477.9779 Z " fill="#000000"/><text fill="#000000" font-family="sans-serif" font-size="8.4" lengthAdjust="spacing" textLength="91.8" x="520.05" y="483.365">AnnouncementCategory</text><line style="stroke:#181818;stroke-width:0.3;" x1="481.2" x2="631.2" y1="490.0529" y2="490.0529"/><text fill="#000000" font-family="sans-serif" font-size="8.4" lengthAdjust="spacing" textLength="69" x="484.2" y="500.0572">-String description</text><line style="stroke:#181818;stroke-width:0.3;" x1="481.2" x2="631.2" y1="504.2373" y2="504.2373"/><text fill="#000000" font-family="sans-serif" font-size="8.4" lengthAdjust="spacing" textLength="144" x="484.2" y="514.2416">+AnnouncementCategory(description)</text></g><!--class SaleRequest--><g id="elem_SaleRequest"><rect codeLine="103" fill="#F1F1F1" height="38.1844" id="SaleRequest" rx="1.5" ry="1.5" style="stroke:#181818;stroke-width:0.3;" width="97.2" x="890.4" y="475.3529"/><ellipse cx="912.63" cy="484.9529" fill="#ADD1B2" rx="6.6" ry="6.6" style="stroke:#181818;stroke-width:0.6;"/><path d="M914.2894,482.4779 Q914.3831,482.3467 914.4956,482.2811 Q914.6081,482.2154 914.7394,482.2154 Q914.9644,482.2154 915.105,482.3748 Q915.2456,482.5248 915.2456,482.8904 L915.2456,483.7623 Q915.2456,484.1279 915.105,484.2873 Q914.9644,484.4467 914.7394,484.4467 Q914.5331,484.4467 914.4113,484.3248 Q914.2894,484.2123 914.2238,483.9029 Q914.1956,483.6873 914.0831,483.5748 Q913.8862,483.3498 913.5206,483.2186 Q913.155,483.0873 912.78,483.0873 Q912.3206,483.0873 911.9363,483.2842 Q911.5613,483.4811 911.2612,483.9311 Q910.9706,484.3811 910.9706,484.9998 L910.9706,485.6561 Q910.9706,486.3967 911.505,486.8936 Q912.0394,487.3811 912.9956,487.3811 Q913.5581,487.3811 913.9519,487.2311 Q914.1863,487.1373 914.4394,486.8748 Q914.5988,486.7154 914.6831,486.6686 Q914.7769,486.6217 914.8988,486.6217 Q915.0956,486.6217 915.2456,486.7811 Q915.405,486.9311 915.405,487.1373 Q915.405,487.3436 915.1987,487.5873 Q914.8988,487.9342 914.4206,488.1311 Q913.7738,488.4029 912.9956,488.4029 Q912.0863,488.4029 911.3644,488.0279 Q910.7738,487.7279 910.3612,487.0904 Q909.9487,486.4436 909.9487,485.6748 L909.9487,484.9811 Q909.9487,484.1842 910.3144,483.4998 Q910.6894,482.8061 911.3456,482.4404 Q912.0019,482.0654 912.7425,482.0654 Q913.1831,482.0654 913.5675,482.1686 Q913.9613,482.2623 914.2894,482.4779 Z " fill="#000000"/><text fill="#000000" font-family="sans-serif" font-size="8.4" lengthAdjust="spacing" textLength="48.6" x="923.97" y="487.865">SaleRequest</text><line style="stroke:#181818;stroke-width:0.3;" x1="891" x2="987" y1="494.5529" y2="494.5529"/><text fill="#000000" font-family="sans-serif" font-size="8.4" lengthAdjust="spacing" textLength="90" x="894" y="504.5572">-Double requestedPrice</text><line style="stroke:#181818;stroke-width:0.3;" x1="891" x2="987" y1="508.7373" y2="508.7373"/></g><!--class RentRequest--><g id="elem_RentRequest"><rect codeLine="107" fill="#F1F1F1" height="47.5688" id="RentRequest" rx="1.5" ry="1.5" style="stroke:#181818;stroke-width:0.3;" width="97.8" x="1008.9" y="470.8529"/><ellipse cx="1030.86" cy="480.4529" fill="#ADD1B2" rx="6.6" ry="6.6" style="stroke:#181818;stroke-width:0.6;"/><path d="M1032.5194,477.9779 Q1032.6131,477.8467 1032.7256,477.7811 Q1032.8381,477.7154 1032.9694,477.7154 Q1033.1944,477.7154 1033.335,477.8748 Q1033.4756,478.0248 1033.4756,478.3904 L1033.4756,479.2623 Q1033.4756,479.6279 1033.335,479.7873 Q1033.1944,479.9467 1032.9694,479.9467 Q1032.7631,479.9467 1032.6413,479.8248 Q1032.5194,479.7123 1032.4538,479.4029 Q1032.4256,479.1873 1032.3131,479.0748 Q1032.1162,478.8498 1031.7506,478.7186 Q1031.385,478.5873 1031.01,478.5873 Q1030.5506,478.5873 1030.1663,478.7842 Q1029.7913,478.9811 1029.4912,479.4311 Q1029.2006,479.8811 1029.2006,480.4998 L1029.2006,481.1561 Q1029.2006,481.8967 1029.735,482.3936 Q1030.2694,482.8811 1031.2256,482.8811 Q1031.7881,482.8811 1032.1819,482.7311 Q1032.4163,482.6373 1032.6694,482.3748 Q1032.8288,482.2154 1032.9131,482.1686 Q1033.0069,482.1217 1033.1287,482.1217 Q1033.3256,482.1217 1033.4756,482.2811 Q1033.635,482.4311 1033.635,482.6373 Q1033.635,482.8436 1033.4287,483.0873 Q1033.1287,483.4342 1032.6506,483.6311 Q1032.0037,483.9029 1031.2256,483.9029 Q1030.3162,483.9029 1029.5944,483.5279 Q1029.0037,483.2279 1028.5913,482.5904 Q1028.1787,481.9436 1028.1787,481.1748 L1028.1787,480.4811 Q1028.1787,479.6842 1028.5444,478.9998 Q1028.9194,478.3061 1029.5756,477.9404 Q1030.2319,477.5654 1030.9725,477.5654 Q1031.4131,477.5654 1031.7975,477.6686 Q1032.1912,477.7623 1032.5194,477.9779 Z " fill="#000000"/><text fill="#000000" font-family="sans-serif" font-size="8.4" lengthAdjust="spacing" textLength="49.8" x="1042.14" y="483.365">RentRequest</text><line style="stroke:#181818;stroke-width:0.3;" x1="1009.5" x2="1106.1" y1="490.0529" y2="490.0529"/><text fill="#000000" font-family="sans-serif" font-size="8.4" lengthAdjust="spacing" textLength="79.8" x="1012.5" y="500.0572">-Double monthlyRent</text><text fill="#000000" font-family="sans-serif" font-size="8.4" lengthAdjust="spacing" textLength="90.6" x="1012.5" y="509.4416">-String contractDuration</text><line style="stroke:#181818;stroke-width:0.3;" x1="1009.5" x2="1106.1" y1="513.6217" y2="513.6217"/></g><!--class Owner--><g id="elem_Owner"><rect codeLine="112" fill="#F1F1F1" height="56.9531" id="Owner" rx="1.5" ry="1.5" style="stroke:#181818;stroke-width:0.3;" width="70.8" x="1200" y="237.1529"/><ellipse cx="1221.15" cy="246.7529" fill="#ADD1B2" rx="6.6" ry="6.6" style="stroke:#181818;stroke-width:0.6;"/><path d="M1222.8094,244.2779 Q1222.9031,244.1467 1223.0156,244.0811 Q1223.1281,244.0154 1223.2594,244.0154 Q1223.4844,244.0154 1223.625,244.1748 Q1223.7656,244.3248 1223.7656,244.6904 L1223.7656,245.5623 Q1223.7656,245.9279 1223.625,246.0873 Q1223.4844,246.2467 1223.2594,246.2467 Q1223.0531,246.2467 1222.9312,246.1248 Q1222.8094,246.0123 1222.7437,245.7029 Q1222.7156,245.4873 1222.6031,245.3748 Q1222.4063,245.1498 1222.0406,245.0186 Q1221.675,244.8873 1221.3,244.8873 Q1220.8406,244.8873 1220.4563,245.0842 Q1220.0813,245.2811 1219.7813,245.7311 Q1219.4906,246.1811 1219.4906,246.7998 L1219.4906,247.4561 Q1219.4906,248.1967 1220.025,248.6936 Q1220.5594,249.1811 1221.5156,249.1811 Q1222.0781,249.1811 1222.4719,249.0311 Q1222.7063,248.9373 1222.9594,248.6748 Q1223.1187,248.5154 1223.2031,248.4686 Q1223.2969,248.4217 1223.4188,248.4217 Q1223.6156,248.4217 1223.7656,248.5811 Q1223.925,248.7311 1223.925,248.9373 Q1223.925,249.1436 1223.7188,249.3873 Q1223.4188,249.7342 1222.9406,249.9311 Q1222.2938,250.2029 1221.5156,250.2029 Q1220.6063,250.2029 1219.8844,249.8279 Q1219.2938,249.5279 1218.8813,248.8904 Q1218.4688,248.2436 1218.4688,247.4748 L1218.4688,246.7811 Q1218.4688,245.9842 1218.8344,245.2998 Q1219.2094,244.6061 1219.8656,244.2404 Q1220.5219,243.8654 1221.2625,243.8654 Q1221.7031,243.8654 1222.0875,243.9686 Q1222.4813,244.0623 1222.8094,244.2779 Z " fill="#000000"/><text fill="#000000" font-family="sans-serif" font-size="8.4" lengthAdjust="spacing" textLength="24.6" x="1232.25" y="249.665">Owner</text><line style="stroke:#181818;stroke-width:0.3;" x1="1200.6" x2="1270.2" y1="256.3529" y2="256.3529"/><text fill="#000000" font-family="sans-serif" font-size="8.4" lengthAdjust="spacing" textLength="48.6" x="1203.6" y="266.3572">-String name</text><text fill="#000000" font-family="sans-serif" font-size="8.4" lengthAdjust="spacing" textLength="47.4" x="1203.6" y="275.7416">-String email</text><text fill="#000000" font-family="sans-serif" font-size="8.4" lengthAdjust="spacing" textLength="63.6" x="1203.6" y="285.126">-String password</text><line style="stroke:#181818;stroke-width:0.3;" x1="1200.6" x2="1270.2" y1="289.3061" y2="289.3061"/></g><g id="elem_GMN20"><path d="M836.1,155.2529 L836.1,160.3529 L815.124,162.7529 L836.1,165.1529 L836.1,169.967 A0,0 0 0 0 836.1,169.967 L993.9,169.967 A0,0 0 0 0 993.9,169.967 L993.9,161.2529 L987.9,155.2529 L836.1,155.2529 A0,0 0 0 0 836.1,155.2529 " fill="#FEFFDD" style="stroke:#181818;stroke-width:0.3;"/><path d="M987.9,155.2529 L987.9,161.2529 L993.9,161.2529 L987.9,155.2529 " fill="#FEFFDD" style="stroke:#181818;stroke-width:0.3;"/><text fill="#000000" font-family="sans-serif" font-size="7.8" lengthAdjust="spacing" textLength="145.2" x="839.7" y="165.3141">- used for displaying property category list</text></g><g id="elem_GMN23"><path d="M381.3,258.1529 L381.3,272.867 A0,0 0 0 0 381.3,272.867 L561.9,272.867 A0,0 0 0 0 561.9,272.867 L561.9,264.1529 L555.9,258.1529 L480.012,258.1529 L541.662,182.0069 L475.212,258.1529 L381.3,258.1529 A0,0 0 0 0 381.3,258.1529 " fill="#FEFFDD" style="stroke:#181818;stroke-width:0.3;"/><path d="M555.9,258.1529 L555.9,264.1529 L561.9,264.1529 L555.9,258.1529 " fill="#FEFFDD" style="stroke:#181818;stroke-width:0.3;"/><text fill="#000000" font-family="sans-serif" font-size="7.8" lengthAdjust="spacing" textLength="168" x="384.9" y="268.2141">- used for displaying announcement category list</text></g><g id="elem_GMN26"><path d="M1010.4,61.6529 L1010.4,76.367 A0,0 0 0 0 1010.4,76.367 L1069.2,76.367 L1071.6,143.4329 L1074,76.367 L1132.8,76.367 A0,0 0 0 0 1132.8,76.367 L1132.8,67.6529 L1126.8,61.6529 L1010.4,61.6529 A0,0 0 0 0 1010.4,61.6529 " fill="#FEFFDD" style="stroke:#181818;stroke-width:0.3;"/><path d="M1126.8,61.6529 L1126.8,67.6529 L1132.8,67.6529 L1126.8,61.6529 " fill="#FEFFDD" style="stroke:#181818;stroke-width:0.3;"/><text fill="#000000" font-family="sans-serif" font-size="7.8" lengthAdjust="spacing" textLength="109.8" x="1014" y="71.7141">- used for displaying agency list</text></g><!--link RequestAnnouncementUI to RequestAnnouncementController--><g id="link_RequestAnnouncementUI_RequestAnnouncementController"><path codeLine="132" d="M119.544,69.1529 C125.712,69.1529 131.766,69.1529 137.34,69.1529 " fill="none" id="RequestAnnouncementUI-to-RequestAnnouncementController" style="stroke:#181818;stroke-width:0.6;stroke-dasharray:7.0,7.0;"/><polygon fill="#181818" points="140.388,69.1529,134.988,66.7529,137.388,69.1529,134.988,71.5529,140.388,69.1529" style="stroke:#181818;stroke-width:0.6;"/></g><!--link RequestAnnouncementController to Repositories--><g id="link_RequestAnnouncementController_Repositories"><path codeLine="133" d="M576.036,31.3169 C629.7,21.3629 672.9,13.3529 672.9,13.3529 C672.9,13.3529 714.3,13.3529 714.3,13.3529 C714.3,13.3529 773.4,31.3529 773.4,31.3529 C773.4,31.3529 776.256,32.5289 780.954,34.4669 " fill="none" id="RequestAnnouncementController-to-Repositories" style="stroke:#181818;stroke-width:0.6;stroke-dasharray:7.0,7.0;"/><polygon fill="#181818" points="783.75,35.6129,779.6772,31.3313,780.9777,34.4664,777.8427,35.7669,783.75,35.6129" style="stroke:#181818;stroke-width:0.6;"/><text fill="#000000" font-family="sans-serif" font-size="7.8" lengthAdjust="spacing" textLength="40.2" x="673.5" y="11.4141">repositories</text></g><!--link RequestAnnouncementController to PropertyCategoryRepository--><g id="link_RequestAnnouncementController_PropertyCategoryRepository"><path codeLine="134" d="M492.462,106.9709 C525.594,117.2069 552.6,125.5529 552.6,125.5529 C552.6,125.5529 655.2,143.5529 655.2,143.5529 C655.2,143.5529 657.996,144.1649 662.574,145.1609 " fill="none" id="RequestAnnouncementController-to-PropertyCategoryRepository" style="stroke:#181818;stroke-width:0.6;stroke-dasharray:7.0,7.0;"/><polygon fill="#181818" points="665.646,145.8329,660.8854,142.3319,662.7156,145.1903,659.8572,147.0205,665.646,145.8329" style="stroke:#181818;stroke-width:0.6;"/></g><!--link RequestAnnouncementController to AnnouncementCategoryRepository--><g id="link_RequestAnnouncementController_AnnouncementCategoryRepository"><path codeLine="135" d="M446.874,107.0669 C470.922,119.0549 496.626,131.8649 517.194,142.1129 " fill="none" id="RequestAnnouncementController-to-AnnouncementCategoryRepository" style="stroke:#181818;stroke-width:0.6;stroke-dasharray:7.0,7.0;"/><polygon fill="#181818" points="519.93,143.4809,516.1676,138.9242,517.245,142.1427,514.0264,143.2202,519.93,143.4809" style="stroke:#181818;stroke-width:0.6;"/></g><!--link RequestAnnouncementController to AgencyRepository--><g id="link_RequestAnnouncementController_AgencyRepository"><path codeLine="136" d="M603.672,105.3089 C610.494,106.3529 614.4,106.9529 614.4,106.9529 C614.4,106.9529 1004.4,143.5529 1004.4,143.5529 C1004.4,143.5529 1007.37,144.3749 1012.062,145.6769 " fill="none" id="RequestAnnouncementController-to-AgencyRepository" style="stroke:#181818;stroke-width:0.6;stroke-dasharray:7.0,7.0;"/><polygon fill="#181818" points="1015.194,146.5409,1010.627,142.7909,1012.3021,145.7429,1009.3501,147.4179,1015.194,146.5409" style="stroke:#181818;stroke-width:0.6;"/></g><!--link RequestAnnouncementController to AnnouncementCategory--><g id="link_RequestAnnouncementController_AnnouncementCategory"><path codeLine="138" d="M345.588,107.0669 C327.438,132.7109 306.6,162.1529 306.6,162.1529 C306.6,162.1529 306.6,162.1529 306.6,387.4529 C306.6,387.4529 333.6,433.9529 333.6,433.9529 C333.6,433.9529 413.442,455.4749 477.492,472.7369 " fill="none" id="RequestAnnouncementController-to-AnnouncementCategory" style="stroke:#181818;stroke-width:0.6;stroke-dasharray:7.0,7.0;"/><polygon fill="#181818" points="480.528,473.5589,475.9376,469.8376,477.6312,472.779,474.6897,474.4726,480.528,473.5589" style="stroke:#181818;stroke-width:0.6;"/></g><!--link RequestAnnouncementController to PropertyCategory--><g id="link_RequestAnnouncementController_PropertyCategory"><path codeLine="139" d="M362.79,107.0669 C356.466,132.7109 349.2,162.1529 349.2,162.1529 C349.2,162.1529 349.2,162.1529 349.2,387.4529 C349.2,387.4529 642.6,451.9529 642.6,451.9529 C642.6,451.9529 656.85,460.0649 672.828,469.1549 " fill="none" id="RequestAnnouncementController-to-PropertyCategory" style="stroke:#181818;stroke-width:0.6;stroke-dasharray:7.0,7.0;"/><polygon fill="#181818" points="675.612,470.7389,672.1058,465.9822,673.0046,469.2551,669.7317,470.154,675.612,470.7389" style="stroke:#181818;stroke-width:0.6;"/></g><!--link RequestAnnouncementController to ApplicationSession--><g id="link_RequestAnnouncementController_ApplicationSession"><path codeLine="140" d="M603.624,69.1529 C609.456,69.1529 615.636,69.1529 621.792,69.1529 " fill="none" id="RequestAnnouncementController-to-ApplicationSession" style="stroke:#181818;stroke-width:0.6;stroke-dasharray:7.0,7.0;"/><polygon fill="#181818" points="624.816,69.1529,619.416,66.7529,621.816,69.1529,619.416,71.5529,624.816,69.1529" style="stroke:#181818;stroke-width:0.6;"/></g><!--link RequestAnnouncementController to UserSession--><g id="link_RequestAnnouncementController_UserSession"><path codeLine="141" d="M389.448,107.0669 C394.8,118.5149 400.5,130.7189 405.18,140.7209 " fill="none" id="RequestAnnouncementController-to-UserSession" style="stroke:#181818;stroke-width:0.6;stroke-dasharray:7.0,7.0;"/><polygon fill="#181818" points="406.47,143.4809,406.3602,137.5726,405.2009,140.7626,402.0109,139.6032,406.47,143.4809" style="stroke:#181818;stroke-width:0.6;"/></g><!--link Repositories to PropertyCategoryRepository--><g id="link_Repositories_PropertyCategoryRepository"><path codeLine="143" d="M814.8,107.0669 C798.876,118.8569 781.872,131.4449 768.144,141.6089 " fill="none" id="Repositories-to-PropertyCategoryRepository" style="stroke:#181818;stroke-width:0.6;"/><polygon fill="#181818" points="765.624,143.4809,771.3922,142.1972,768.0353,141.6961,768.5364,138.3392,765.624,143.4809" style="stroke:#181818;stroke-width:0.6;"/><text fill="#000000" font-family="sans-serif" font-size="7.8" lengthAdjust="spacing" textLength="4.2" x="766.4824" y="137.0655">1</text></g><!--link Repositories to AnnouncementCategoryRepository--><g id="link_Repositories_AnnouncementCategoryRepository"><path codeLine="144" d="M783.75,102.7589 C777.408,105.3269 773.4,106.9529 773.4,106.9529 C773.4,106.9529 695.43,126.8789 633.18,142.7849 " fill="none" id="Repositories-to-AnnouncementCategoryRepository" style="stroke:#181818;stroke-width:0.6;"/><polygon fill="#181818" points="630.228,143.5409,636.0551,144.5233,633.1338,142.7952,634.8619,139.8739,630.228,143.5409" style="stroke:#181818;stroke-width:0.6;"/><text fill="#000000" font-family="sans-serif" font-size="7.8" lengthAdjust="spacing" textLength="4.2" x="641.4998" y="137.1386">1</text></g><!--link Repositories to AgencyRepository--><g id="link_Repositories_AgencyRepository"><path codeLine="145" d="M946.776,106.2689 C974.172,118.5329 1003.692,131.7509 1027.146,142.2509 " fill="none" id="Repositories-to-AgencyRepository" style="stroke:#181818;stroke-width:0.6;"/><polygon fill="#181818" points="1029.978,143.5169,1026.0271,139.1226,1027.239,142.293,1024.0687,143.5049,1029.978,143.5169" style="stroke:#181818;stroke-width:0.6;"/><text fill="#000000" font-family="sans-serif" font-size="7.8" lengthAdjust="spacing" textLength="4.2" x="1016.2138" y="137.1094">1</text></g><!--link PropertyCategoryRepository to PropertyCategory--><g id="link_PropertyCategoryRepository_PropertyCategory"><path codeLine="149" d="M739.038,182.0729 C734.988,237.8729 722.988,403.1789 718.302,467.7209 " fill="none" id="PropertyCategoryRepository-to-PropertyCategory" style="stroke:#181818;stroke-width:0.6;"/><polygon fill="#181818" points="718.086,470.7149,720.8657,465.5002,718.3004,467.7226,716.078,465.1573,718.086,470.7149" style="stroke:#181818;stroke-width:0.6;"/><text fill="#000000" font-family="sans-serif" font-size="7.8" lengthAdjust="spacing" textLength="4.2" x="734.1781" y="193.668">1</text><text fill="#000000" font-family="sans-serif" font-size="7.8" lengthAdjust="spacing" textLength="4.2" x="713.8123" y="464.3947">3</text></g><!--link AnnouncementCategoryRepository to AnnouncementCategory--><g id="link_AnnouncementCategoryRepository_AnnouncementCategory"><path codeLine="151" d="M562.476,182.0429 C566.832,198.0569 572.4,218.5529 572.4,218.5529 C572.4,218.5529 572.4,312.7529 572.4,312.7529 C572.4,312.7529 563.034,417.5369 558.546,467.7389 " fill="none" id="AnnouncementCategoryRepository-to-AnnouncementCategory" style="stroke:#181818;stroke-width:0.6;"/><polygon fill="#181818" points="558.27,470.8169,561.1384,465.6505,558.5354,467.8287,556.3572,465.2258,558.27,470.8169" style="stroke:#181818;stroke-width:0.6;"/><text fill="#000000" font-family="sans-serif" font-size="7.8" lengthAdjust="spacing" textLength="4.2" x="558.8433" y="193.6323">1</text><text fill="#000000" font-family="sans-serif" font-size="7.8" lengthAdjust="spacing" textLength="4.2" x="554.0645" y="464.3408">2</text></g><!--link AgencyRepository to Agency--><g id="link_AgencyRepository_Agency"><path codeLine="153" d="M1071.6,182.0069 C1071.6,191.4689 1071.6,203.4569 1071.6,215.3609 " fill="none" id="AgencyRepository-to-Agency" style="stroke:#181818;stroke-width:0.6;"/><polygon fill="#181818" points="1071.6,218.3849,1074,212.9849,1071.6,215.3849,1069.2,212.9849,1071.6,218.3849" style="stroke:#181818;stroke-width:0.6;"/><text fill="#000000" font-family="sans-serif" font-size="7.8" lengthAdjust="spacing" textLength="4.2" x="1066.9997" y="193.5895">1</text><text fill="#000000" font-family="sans-serif" font-size="7.8" lengthAdjust="spacing" textLength="3" x="1068.457" y="212.1416">*</text></g><!--link Agency to Agent--><g id="link_Agency_Agent"><path codeLine="157" d="M1135.164,312.8189 C1155.906,328.0169 1178.298,344.4209 1196.652,357.8669 " fill="none" id="Agency-to-Agent" style="stroke:#181818;stroke-width:0.6;"/><polygon fill="#181818" points="1199.1,359.6549,1196.1671,354.5248,1196.6816,357.8797,1193.3267,358.3943,1199.1,359.6549" style="stroke:#181818;stroke-width:0.6;"/><text fill="#000000" font-family="sans-serif" font-size="7.8" lengthAdjust="spacing" textLength="29.4" x="1168.2" y="338.4141">employs</text><text fill="#000000" font-family="sans-serif" font-size="7.8" lengthAdjust="spacing" textLength="4.2" x="1137.0144" y="324.9376">1</text><text fill="#000000" font-family="sans-serif" font-size="7.8" lengthAdjust="spacing" textLength="3" x="1191.2569" y="354.3163">*</text></g><!--link Agency to Announcement--><g id="link_Agency_Announcement"><path codeLine="158" d="M1020.144,312.8189 C1002.036,329.2109 982.368,347.0069 966.93,360.9749 " fill="none" id="Agency-to-Announcement" style="stroke:#181818;stroke-width:0.6;"/><polygon fill="#181818" points="964.686,363.0089,970.2979,361.1577,966.9078,360.993,967.0725,357.6029,964.686,363.0089" style="stroke:#181818;stroke-width:0.6;"/><text fill="#000000" font-family="sans-serif" font-size="7.8" lengthAdjust="spacing" textLength="4.2" x="1010.6721" y="324.9376">1</text><text fill="#000000" font-family="sans-serif" font-size="7.8" lengthAdjust="spacing" textLength="3" x="965.9941" y="356.6877">*</text></g><!--link Owner to Agent--><g id="link_Owner_Agent"><path codeLine="159" d="M1235.4,294.2369 C1235.4,312.4349 1235.4,336.1949 1235.4,355.0109 " fill="none" id="Owner-to-Agent" style="stroke:#181818;stroke-width:0.6;"/><polygon fill="#181818" points="1235.4,358.2269,1237.8,352.8269,1235.4,355.2269,1233,352.8269,1235.4,358.2269" style="stroke:#181818;stroke-width:0.6;"/><text fill="#000000" font-family="sans-serif" font-size="7.8" lengthAdjust="spacing" textLength="29.4" x="1236" y="338.4141">chooses</text><text fill="#000000" font-family="sans-serif" font-size="7.8" lengthAdjust="spacing" textLength="4.2" x="1230.9047" y="305.9337">1</text><text fill="#000000" font-family="sans-serif" font-size="7.8" lengthAdjust="spacing" textLength="3" x="1232.1703" y="351.8892">*</text></g><!--link Announcement to AnnouncementCategory--><g id="link_Announcement_AnnouncementCategory"><path codeLine="161" d="M832.83,410.5589 C747.78,429.0629 642.6,451.9529 642.6,451.9529 C642.6,451.9529 625.638,460.1969 606.75,469.3829 " fill="none" id="Announcement-to-AnnouncementCategory" style="stroke:#181818;stroke-width:0.6;"/><polygon fill="#181818" points="603.948,470.7389,609.8539,470.5385,606.6465,469.4282,607.7568,466.2208,603.948,470.7389" style="stroke:#181818;stroke-width:0.6;"/><text fill="#000000" font-family="sans-serif" font-size="7.8" lengthAdjust="spacing" textLength="3" x="810.6513" y="422.6038">*</text><text fill="#000000" font-family="sans-serif" font-size="7.8" lengthAdjust="spacing" textLength="4.2" x="607.8791" y="464.423">1</text></g><!--link Announcement to PropertyCategory--><g id="link_Announcement_PropertyCategory"><path codeLine="162" d="M887.202,410.5589 C845.712,429.0629 794.4,451.9529 794.4,451.9529 C794.4,451.9529 779.214,460.1309 762.246,469.2689 " fill="none" id="Announcement-to-PropertyCategory" style="stroke:#181818;stroke-width:0.6;"/><polygon fill="#181818" points="759.504,470.7389,765.3962,470.2896,762.1449,469.3156,763.1189,466.0643,759.504,470.7389" style="stroke:#181818;stroke-width:0.6;"/><text fill="#000000" font-family="sans-serif" font-size="7.8" lengthAdjust="spacing" textLength="3" x="874.7083" y="422.6038">*</text><text fill="#000000" font-family="sans-serif" font-size="7.8" lengthAdjust="spacing" textLength="4.2" x="762.6078" y="464.423">1</text></g><!--link Announcement to Agent--><g id="link_Announcement_Agent"><path codeLine="163" d="M1133.604,386.8529 C1156.884,386.8529 1178.46,386.8529 1195.71,386.8529 " fill="none" id="Announcement-to-Agent" style="stroke:#181818;stroke-width:0.6;"/><polygon fill="#181818" points="1198.878,386.8529,1193.478,384.4529,1195.878,386.8529,1193.478,389.2529,1198.878,386.8529" style="stroke:#181818;stroke-width:0.6;"/><text fill="#000000" font-family="sans-serif" font-size="7.8" lengthAdjust="spacing" textLength="43.8" x="1144.35" y="383.1141">published by</text></g><!--link Announcement to Address--><g id="link_Announcement_Address"><path codeLine="164" d="M1002.828,410.5589 C1053.966,429.0629 1117.2,451.9529 1117.2,451.9529 C1117.2,451.9529 1124.724,454.8929 1135.788,459.2249 " fill="none" id="Announcement-to-Address" style="stroke:#181818;stroke-width:0.6;"/><polygon fill="#181818" points="1138.674,460.3529,1134.5135,456.1564,1135.8786,459.2639,1132.7711,460.629,1138.674,460.3529" style="stroke:#181818;stroke-width:0.6;"/><text fill="#000000" font-family="sans-serif" font-size="7.8" lengthAdjust="spacing" textLength="3" x="1010.9302" y="422.6038">*</text><text fill="#000000" font-family="sans-serif" font-size="7.8" lengthAdjust="spacing" textLength="4.2" x="1129.9352" y="457.0446">1</text></g><!--reverse link Announcement to SaleRequest--><g id="link_Announcement_SaleRequest"><path codeLine="165" d="M939,422.7089 C939,440.2829 939,460.8209 939,475.3169 " fill="none" id="Announcement-backto-SaleRequest" style="stroke:#181818;stroke-width:0.6;"/><polygon fill="none" points="934.8,422.5589,939,410.5589,943.2,422.5589,934.8,422.5589" style="stroke:#181818;stroke-width:0.6;"/></g><!--reverse link Announcement to RentRequest--><g id="link_Announcement_RentRequest"><path codeLine="166" d="M973.812,418.6589 C992.382,435.3089 1014.846,455.4449 1031.868,470.7029 " fill="none" id="Announcement-backto-RentRequest" style="stroke:#181818;stroke-width:0.6;"/><polygon fill="none" points="970.908,421.7009,964.776,410.5589,976.518,415.4429,970.908,421.7009" style="stroke:#181818;stroke-width:0.6;"/></g><!--link Announcement to Commission--><g id="link_Announcement_Commission"><path codeLine="167" d="M916.866,410.5589 C899.094,429.1229 874.338,454.9649 857.118,472.9469 " fill="none" id="Announcement-to-Commission" style="stroke:#181818;stroke-width:0.6;"/><polygon fill="#181818" points="854.85,475.3169,860.3169,473.0736,856.9237,473.149,856.8483,469.7557,854.85,475.3169" style="stroke:#181818;stroke-width:0.6;"/></g><!--link Agent to Address--><g id="link_Agent_Address"><path codeLine="169" d="M1232.562,415.4369 C1231.53,425.6309 1230.33,437.4389 1229.184,448.7489 " fill="none" id="Agent-to-Address" style="stroke:#181818;stroke-width:0.6;"/><polygon fill="#181818" points="1228.86,451.9229,1231.7883,446.7902,1229.1602,448.938,1227.0124,446.3099,1228.86,451.9229" style="stroke:#181818;stroke-width:0.6;"/><text fill="#000000" font-family="sans-serif" font-size="7.8" lengthAdjust="spacing" textLength="3" x="1228.952" y="427.1337">*</text><text fill="#000000" font-family="sans-serif" font-size="7.8" lengthAdjust="spacing" textLength="4.2" x="1224.8962" y="445.4843">1</text></g><!--link ApplicationSession to ApplicationSession--><g id="link_ApplicationSession_ApplicationSession"><path codeLine="171" d="M715.596,58.8989 C727.5,59.5109 736.5,62.9249 736.5,69.1529 C736.5,74.8469 728.982,78.1889 718.596,79.1849 " fill="none" id="ApplicationSession-to-ApplicationSession" style="stroke:#181818;stroke-width:0.6;"/><polygon fill="#181818" points="715.596,79.4069,721.1594,81.3991,718.5877,79.1841,720.8028,76.6124,715.596,79.4069" style="stroke:#181818;stroke-width:0.6;"/><text fill="#000000" font-family="sans-serif" font-size="7.8" lengthAdjust="spacing" textLength="29.4" x="740.1" y="72.0141">instance</text></g><!--link ApplicationSession to UserSession--><g id="link_ApplicationSession_UserSession"><path codeLine="172" d="M635.496,92.8889 C624.15,100.4549 614.4,106.9529 614.4,106.9529 C614.4,106.9529 459.6,143.5529 459.6,143.5529 C459.6,143.5529 456.624,144.8009 452.22,146.6429 " fill="none" id="ApplicationSession-to-UserSession" style="stroke:#181818;stroke-width:0.6;"/><polygon fill="#181818" points="449.304,147.8669,455.2118,147.9989,452.072,146.71,453.3608,143.5702,449.304,147.8669" style="stroke:#181818;stroke-width:0.6;"/></g><!--SRC=[ZLRDSjGm3BxxAJnSsD9DXvzRX-bCsNBe1HWwF80tKNSz9BQn5KeAl3kou-mw__JIjVH9-YHPYb-wxr8POKN5AwrqVhIw0ews1dRM695_5mTumAO4RY57eGvb2d17KUWdgGxyKPGkrPHI0JO6kD5bum-C9Tgy5CxT8bgvhn7kSwqUv3Fmrum53RyrffIvG4aAS8x-iT_iaZiaKSuFWFUAVgiSDXSaflEkjXOKHZ19_tQklZcmgGy2Uz77IiWonTqMXIKO_yqoXnO0MPPBR5XMI3hB7BrS8B3iMPgTBYYXozjWicdnM-xnMzxXju4kR7d49x5skgfaeEJ3oI9XSQ0ilD0SjO9FTRK7op8KlxgVXb16Mupdiw5IkgQ2LD7-WJXGMqozxmfvvyaJvmIuYKblU-Ox0XwqfLI-M6t0OdEMd9blXxul-bdaJKAZ02SFAa1FCl0TeEo9RveioqHHz4YAv731if-Yb0N5My1SjWIelLaWwOuzSCBqA_oemM6g_dPFnDaYPASLMbsMO0bwkGZOJ5NsAnZj94xMEDMrQPmbb9chzvN46D8dIFTvAiI7vWvSRgNnDU-LfqCa-jRDa4dVXHbeH-OjsM3KzNeZWYoHz4eVqv8GfYuz-x7kJJc_xk63ThcoqSLyUIDWMEFDw1wVTRxRCvacLlCXe_roeI-cXthMsthtWySPSlqXxKneJmo1co9j-2B5MPzJu1c_3wA4UCkzkpjDS-o_GK42nHVQi93U9OLZD7tOy5WsNdaYbFl953dUrRPTHoSVdvzKcESEgKG5msNLRLN2FsaRzhRIIBpauOXSFoxtFkErWu8_Qki_4gOKJN0MJNZUbOyM5fvSxpMYhhplrTimxJ-T_PaOg4q8CBxkCoxR_TxvO6nwZLxTB2zFjhnQWtco8wwf_SaAM3MUxyMwxNAj_yD-K4gsPZ8JSzNiQYBH_w0tVb-jyqjVKgpNcIoxuI_Ul5Yk-0H-jSfJDgFAChOmTTx4MxuRisDiPQA2hJT-EqsL70mdvcJogcFg-SNtKCSbwf1kD5Icr8th8Jf84f6rosdetNl8Zrex6eTUCW6nLELvzAXAFMHsSmeSNrQq7VOBxk8Bimzu_oVBqWq_eKqs-e01EJw_GjlQJeTauriUC1FYQoxZKsFEg7VvwUyV]--></g></svg>