<?xml version="1.0" encoding="us-ascii" standalone="no"?><svg xmlns="http://www.w3.org/2000/svg" xmlns:xlink="http://www.w3.org/1999/xlink" contentStyleType="text/css" height="480px" preserveAspectRatio="none" style="width:522px;height:480px;background:#FFFFFF;" version="1.1" viewBox="0 0 522 480" width="522px" zoomAndPan="magnify"><defs/><g><rect fill="#FFFFFF" height="265.4766" style="stroke:#181818;stroke-width:1.0;" width="10" x="233" y="141.7344"/><rect fill="#FFFFFF" height="49.8125" style="stroke:#181818;stroke-width:1.0;" width="10" x="238" y="235.3047"/><rect fill="#FFFFFF" height="93.5703" style="stroke:#181818;stroke-width:1.0;" width="10" x="238" y="313.6406"/><rect fill="none" height="376.5703" style="stroke:#000000;stroke-width:1.5;" width="513" x="3" y="52.6406"/><rect fill="none" height="346.0469" style="stroke:#000000;stroke-width:1.5;" width="503" x="3" y="76.1641"/><rect fill="none" height="45.0469" style="stroke:#000000;stroke-width:1.5;" width="334" x="3" y="198.2578"/><rect fill="none" height="45.0469" style="stroke:#000000;stroke-width:1.5;" width="334" x="3" y="370.1641"/><line style="stroke:#181818;stroke-width:0.5;stroke-dasharray:5.0,5.0;" x1="238" x2="238" y1="35.6406" y2="446.2109"/><rect fill="#E3E3E3" height="29.6406" rx="2.5" ry="2.5" style="stroke:#181818;stroke-width:0.5;" width="178" x="149" y="5"/><text fill="#000000" font-family="sans-serif" font-size="14" lengthAdjust="spacing" textLength="164" x="156" y="24.6738">:RequestAnnouncementUI</text><rect fill="#E3E3E3" height="29.6406" rx="2.5" ry="2.5" style="stroke:#181818;stroke-width:0.5;" width="178" x="149" y="445.2109"/><text fill="#000000" font-family="sans-serif" font-size="14" lengthAdjust="spacing" textLength="164" x="156" y="464.8848">:RequestAnnouncementUI</text><rect fill="#FFFFFF" height="265.4766" style="stroke:#181818;stroke-width:1.0;" width="10" x="233" y="141.7344"/><rect fill="#FFFFFF" height="49.8125" style="stroke:#181818;stroke-width:1.0;" width="10" x="238" y="235.3047"/><rect fill="#FFFFFF" height="93.5703" style="stroke:#181818;stroke-width:1.0;" width="10" x="238" y="313.6406"/><path d="M3,52.6406 L64,52.6406 L64,59.1641 L54,69.1641 L3,69.1641 L3,52.6406 " fill="#EEEEEE" style="stroke:#000000;stroke-width:1.5;"/><rect fill="none" height="376.5703" style="stroke:#000000;stroke-width:1.5;" width="513" x="3" y="52.6406"/><text fill="#000000" font-family="sans-serif" font-size="13" font-weight="bold" lengthAdjust="spacing" textLength="16" x="18" y="65.4092">alt</text><text fill="#000000" font-family="sans-serif" font-size="11" font-weight="bold" lengthAdjust="spacing" textLength="101" x="79" y="64.5986">[successfull case]</text><path d="M3,76.1641 L76,76.1641 L76,82.6875 L66,92.6875 L3,92.6875 L3,76.1641 " fill="#EEEEEE" style="stroke:#000000;stroke-width:1.5;"/><rect fill="none" height="346.0469" style="stroke:#000000;stroke-width:1.5;" width="503" x="3" y="76.1641"/><text fill="#000000" font-family="sans-serif" font-size="13" font-weight="bold" lengthAdjust="spacing" textLength="28" x="18" y="88.9326">loop</text><polygon fill="#181818" points="11,109.2109,1,113.2109,11,117.2109,7,113.2109" style="stroke:#181818;stroke-width:1.0;"/><line style="stroke:#181818;stroke-width:1.0;stroke-dasharray:2.0,2.0;" x1="5" x2="237" y1="113.2109" y2="113.2109"/><text fill="#000000" font-family="sans-serif" font-size="13" font-weight="bold" lengthAdjust="spacing" textLength="7" x="17" y="108.4561">1</text><text fill="#000000" font-family="sans-serif" font-size="13" lengthAdjust="spacing" textLength="125" x="28" y="108.4561">requests photographs</text><polygon fill="#181818" points="221,137.7344,231,141.7344,221,145.7344,225,141.7344" style="stroke:#181818;stroke-width:1.0;"/><line style="stroke:#181818;stroke-width:1.0;" x1="0" x2="227" y1="141.7344" y2="141.7344"/><text fill="#000000" font-family="sans-serif" font-size="13" font-weight="bold" lengthAdjust="spacing" textLength="7" x="7" y="136.9795">2</text><text fill="#000000" font-family="sans-serif" font-size="13" lengthAdjust="spacing" textLength="196" x="18" y="136.9795">introduces the URI of photographs</text><line style="stroke:#181818;stroke-width:1.0;stroke-dasharray:2.0,2.0;" x1="243" x2="285" y1="170.2578" y2="170.2578"/><line style="stroke:#181818;stroke-width:1.0;stroke-dasharray:2.0,2.0;" x1="285" x2="285" y1="170.2578" y2="183.2578"/><line style="stroke:#181818;stroke-width:1.0;stroke-dasharray:2.0,2.0;" x1="244" x2="285" y1="183.2578" y2="183.2578"/><polygon fill="#181818" points="254,179.2578,244,183.2578,254,187.2578,250,183.2578" style="stroke:#181818;stroke-width:1.0;"/><text fill="#000000" font-family="sans-serif" font-size="13" font-weight="bold" lengthAdjust="spacing" textLength="7" x="250" y="165.5029">3</text><text fill="#000000" font-family="sans-serif" font-size="13" lengthAdjust="spacing" textLength="228" x="261" y="165.5029">keepRequestPhotographs(photographs)</text><path d="M3,198.2578 L84,198.2578 L84,204.7813 L74,214.7813 L3,214.7813 L3,198.2578 " fill="#EEEEEE" style="stroke:#000000;stroke-width:1.5;"/><rect fill="none" height="45.0469" style="stroke:#000000;stroke-width:1.5;" width="334" x="3" y="198.2578"/><text fill="#000000" font-family="sans-serif" font-size="13" font-weight="bold" lengthAdjust="spacing" textLength="36" x="18" y="211.0264">break</text><polygon fill="#181818" points="221,231.3047,231,235.3047,221,239.3047,225,235.3047" style="stroke:#181818;stroke-width:1.0;"/><line style="stroke:#181818;stroke-width:1.0;" x1="0" x2="227" y1="235.3047" y2="235.3047"/><text fill="#000000" font-family="sans-serif" font-size="13" font-weight="bold" lengthAdjust="spacing" textLength="7" x="7" y="230.5498">4</text><text fill="#000000" font-family="sans-serif" font-size="13" lengthAdjust="spacing" textLength="118" x="18" y="230.5498">introduces a number</text><line style="stroke:#000000;stroke-width:1.0;stroke-dasharray:2.0,2.0;" x1="3" x2="506" y1="251.3047" y2="251.3047"/><text fill="#000000" font-family="sans-serif" font-size="11" font-weight="bold" lengthAdjust="spacing" textLength="115" x="8" y="261.2627">[unsuccessfull case]</text><polygon fill="#181818" points="221,281.1172,231,285.1172,221,289.1172,225,285.1172" style="stroke:#181818;stroke-width:1.0;"/><line style="stroke:#181818;stroke-width:1.0;stroke-dasharray:2.0,2.0;" x1="0" x2="227" y1="285.1172" y2="285.1172"/><text fill="#000000" font-family="sans-serif" font-size="13" font-weight="bold" lengthAdjust="spacing" textLength="7" x="7" y="280.3623">1</text><text fill="#000000" font-family="sans-serif" font-size="13" lengthAdjust="spacing" textLength="125" x="18" y="280.3623">requests photographs</text><polygon fill="#181818" points="221,309.6406,231,313.6406,221,317.6406,225,313.6406" style="stroke:#181818;stroke-width:1.0;"/><line style="stroke:#181818;stroke-width:1.0;" x1="0" x2="227" y1="313.6406" y2="313.6406"/><text fill="#000000" font-family="sans-serif" font-size="13" font-weight="bold" lengthAdjust="spacing" textLength="7" x="7" y="308.8857">2</text><text fill="#000000" font-family="sans-serif" font-size="13" lengthAdjust="spacing" textLength="196" x="18" y="308.8857">introduces the URI of photographs</text><line style="stroke:#181818;stroke-width:1.0;stroke-dasharray:2.0,2.0;" x1="248" x2="290" y1="342.1641" y2="342.1641"/><line style="stroke:#181818;stroke-width:1.0;stroke-dasharray:2.0,2.0;" x1="290" x2="290" y1="342.1641" y2="355.1641"/><line style="stroke:#181818;stroke-width:1.0;stroke-dasharray:2.0,2.0;" x1="249" x2="290" y1="355.1641" y2="355.1641"/><polygon fill="#181818" points="259,351.1641,249,355.1641,259,359.1641,255,355.1641" style="stroke:#181818;stroke-width:1.0;"/><text fill="#000000" font-family="sans-serif" font-size="13" font-weight="bold" lengthAdjust="spacing" textLength="7" x="255" y="337.4092">3</text><text fill="#000000" font-family="sans-serif" font-size="13" lengthAdjust="spacing" textLength="228" x="266" y="337.4092">keepRequestPhotographs(photographs)</text><path d="M3,370.1641 L84,370.1641 L84,376.6875 L74,386.6875 L3,386.6875 L3,370.1641 " fill="#EEEEEE" style="stroke:#000000;stroke-width:1.5;"/><rect fill="none" height="45.0469" style="stroke:#000000;stroke-width:1.5;" width="334" x="3" y="370.1641"/><text fill="#000000" font-family="sans-serif" font-size="13" font-weight="bold" lengthAdjust="spacing" textLength="36" x="18" y="382.9326">break</text><polygon fill="#181818" points="11,403.2109,1,407.2109,11,411.2109,7,407.2109" style="stroke:#181818;stroke-width:1.0;"/><line style="stroke:#181818;stroke-width:1.0;" x1="5" x2="232" y1="407.2109" y2="407.2109"/><text fill="#000000" font-family="sans-serif" font-size="13" font-weight="bold" lengthAdjust="spacing" textLength="7" x="17" y="402.4561">4</text><text fill="#000000" font-family="sans-serif" font-size="13" lengthAdjust="spacing" textLength="60" x="28" y="402.4561">invalid URI</text><!--SRC=[rP11JiGm34NtEOKrArZq0gCH4ilkqA0vW2TrswYf7H9d4BSd7TfIYSAUI8aYntx_vwV1SS288up2Olie8u76J2QjBm7jW1szweSdY6GLkVFRXjHZ8- -EEsZH9pAcbDLP5v0L3iSplMLA-imicIsDn7gf3u09BhKnc5KuZrUAvUuLKhQMKcgpzs2nqBn8C0RcTQggCWR7OkHEJH1wKUaYXZwjNGsXLNT3fRl6KgwUlcOTQvGc5ntGlhISQv1s5xIBcLRXL0jk80hp9r- -6GyRtgEvHiBXJoS8SmoxsiHDEKgwaFb7HDiCLuL5udy7TQeM9pVqhfai_6P-YcZPdm00]--></g></svg>