<?xml version="1.0" encoding="us-ascii" standalone="no"?><svg xmlns="http://www.w3.org/2000/svg" xmlns:xlink="http://www.w3.org/1999/xlink" contentStyleType="text/css" height="323px" preserveAspectRatio="none" style="width:801px;height:323px;background:#FFFFFF;" version="1.1" viewBox="0 0 801 323" width="801px" zoomAndPan="magnify"><defs/><g><rect fill="#FFFFFF" height="173.1406" style="stroke:#181818;stroke-width:1.0;" width="10" x="245" y="81.8047"/><rect fill="#FFFFFF" height="28.5234" style="stroke:#181818;stroke-width:1.0;" width="10" x="524.5" y="133.8516"/><rect fill="#FFFFFF" height="28.5234" style="stroke:#181818;stroke-width:1.0;" width="10" x="681.5" y="190.8984"/><rect fill="none" height="130.6172" style="stroke:#000000;stroke-width:1.5;" width="669" x="126" y="96.8047"/><line style="stroke:#181818;stroke-width:0.5;stroke-dasharray:5.0,5.0;" x1="250" x2="250" y1="51.2813" y2="272.9453"/><line style="stroke:#181818;stroke-width:0.5;stroke-dasharray:5.0,5.0;" x1="422" x2="422" y1="51.2813" y2="272.9453"/><line style="stroke:#181818;stroke-width:0.5;stroke-dasharray:5.0,5.0;" x1="529" x2="529" y1="51.2813" y2="272.9453"/><line style="stroke:#181818;stroke-width:0.5;stroke-dasharray:5.0,5.0;" x1="686" x2="686" y1="51.2813" y2="272.9453"/><rect fill="#E3E3E3" height="29.6406" rx="2.5" ry="2.5" style="stroke:#181818;stroke-width:0.5;" width="228" x="136" y="20.6406"/><text fill="#000000" font-family="sans-serif" font-size="14" lengthAdjust="spacing" textLength="214" x="143" y="40.3145">:RequestAnnouncementController</text><rect fill="#E3E3E3" height="29.6406" rx="2.5" ry="2.5" style="stroke:#181818;stroke-width:0.5;" width="228" x="136" y="271.9453"/><text fill="#000000" font-family="sans-serif" font-size="14" lengthAdjust="spacing" textLength="214" x="143" y="291.6191">:RequestAnnouncementController</text><rect fill="#E3E3E3" height="29.6406" rx="2.5" ry="2.5" style="stroke:#181818;stroke-width:0.5;" width="97" x="374" y="20.6406"/><text fill="#000000" font-family="sans-serif" font-size="14" lengthAdjust="spacing" textLength="83" x="381" y="40.3145">:Repositories</text><rect fill="#E3E3E3" height="29.6406" rx="2.5" ry="2.5" style="stroke:#181818;stroke-width:0.5;" width="97" x="374" y="271.9453"/><text fill="#000000" font-family="sans-serif" font-size="14" lengthAdjust="spacing" textLength="83" x="381" y="291.6191">:Repositories</text><rect fill="#E3E3E3" height="45.2813" rx="2.5" ry="2.5" style="stroke:#181818;stroke-width:0.5;" width="97" x="481" y="5"/><text fill="#000000" font-family="sans-serif" font-size="14" lengthAdjust="spacing" textLength="74" x="492.5" y="24.6738">repositories</text><text fill="#000000" font-family="sans-serif" font-size="14" lengthAdjust="spacing" textLength="83" x="488" y="40.3145">:Repositories</text><rect fill="#E3E3E3" height="45.2813" rx="2.5" ry="2.5" style="stroke:#181818;stroke-width:0.5;" width="97" x="481" y="271.9453"/><text fill="#000000" font-family="sans-serif" font-size="14" lengthAdjust="spacing" textLength="74" x="492.5" y="291.6191">repositories</text><text fill="#000000" font-family="sans-serif" font-size="14" lengthAdjust="spacing" textLength="83" x="488" y="307.2598">:Repositories</text><rect fill="#E3E3E3" height="45.2813" rx="2.5" ry="2.5" style="stroke:#181818;stroke-width:0.5;" width="197" x="588" y="5"/><text fill="#000000" font-family="sans-serif" font-size="14" lengthAdjust="spacing" textLength="183" x="595" y="24.6738">propertyCategoryRepository:</text><text fill="#000000" font-family="sans-serif" font-size="14" lengthAdjust="spacing" textLength="180" x="596.5" y="40.3145">PropertyCategoryRepository</text><rect fill="#E3E3E3" height="45.2813" rx="2.5" ry="2.5" style="stroke:#181818;stroke-width:0.5;" width="197" x="588" y="271.9453"/><text fill="#000000" font-family="sans-serif" font-size="14" lengthAdjust="spacing" textLength="183" x="595" y="291.6191">propertyCategoryRepository:</text><text fill="#000000" font-family="sans-serif" font-size="14" lengthAdjust="spacing" textLength="180" x="596.5" y="307.2598">PropertyCategoryRepository</text><rect fill="#FFFFFF" height="173.1406" style="stroke:#181818;stroke-width:1.0;" width="10" x="245" y="81.8047"/><rect fill="#FFFFFF" height="28.5234" style="stroke:#181818;stroke-width:1.0;" width="10" x="524.5" y="133.8516"/><rect fill="#FFFFFF" height="28.5234" style="stroke:#181818;stroke-width:1.0;" width="10" x="681.5" y="190.8984"/><polygon fill="#181818" points="233,77.8047,243,81.8047,233,85.8047,237,81.8047" style="stroke:#181818;stroke-width:1.0;"/><line style="stroke:#181818;stroke-width:1.0;" x1="0" x2="239" y1="81.8047" y2="81.8047"/><text fill="#000000" font-family="sans-serif" font-size="13" font-weight="bold" lengthAdjust="spacing" textLength="14" x="7" y="77.0498">19</text><text fill="#000000" font-family="sans-serif" font-size="13" lengthAdjust="spacing" textLength="208" x="25" y="77.0498">getPropertyCategoryByDescription()</text><path d="M126,96.8047 L357,96.8047 L357,103.3281 L347,113.3281 L126,113.3281 L126,96.8047 " fill="#EEEEEE" style="stroke:#000000;stroke-width:1.5;"/><rect fill="none" height="130.6172" style="stroke:#000000;stroke-width:1.5;" width="669" x="126" y="96.8047"/><text fill="#000000" font-family="sans-serif" font-size="13" font-weight="bold" lengthAdjust="spacing" textLength="186" x="141" y="109.5732">Get Property Category Object</text><polygon fill="#181818" points="512.5,129.8516,522.5,133.8516,512.5,137.8516,516.5,133.8516" style="stroke:#181818;stroke-width:1.0;"/><line style="stroke:#181818;stroke-width:1.0;" x1="255" x2="518.5" y1="133.8516" y2="133.8516"/><text fill="#000000" font-family="sans-serif" font-size="13" font-weight="bold" lengthAdjust="spacing" textLength="25" x="262" y="129.0967">19.1</text><text fill="#000000" font-family="sans-serif" font-size="13" lengthAdjust="spacing" textLength="189" x="291" y="129.0967">getPropertyCategoryRepository()</text><polygon fill="#181818" points="266,158.375,256,162.375,266,166.375,262,162.375" style="stroke:#181818;stroke-width:1.0;"/><line style="stroke:#181818;stroke-width:1.0;stroke-dasharray:2.0,2.0;" x1="260" x2="528.5" y1="162.375" y2="162.375"/><text fill="#000000" font-family="sans-serif" font-size="13" font-weight="bold" lengthAdjust="spacing" textLength="25" x="272" y="157.6201">19.2</text><text fill="#000000" font-family="sans-serif" font-size="13" lengthAdjust="spacing" textLength="161" x="301" y="157.6201">propertyCategoryRepository</text><polygon fill="#181818" points="669.5,186.8984,679.5,190.8984,669.5,194.8984,673.5,190.8984" style="stroke:#181818;stroke-width:1.0;"/><line style="stroke:#181818;stroke-width:1.0;" x1="255" x2="675.5" y1="190.8984" y2="190.8984"/><text fill="#000000" font-family="sans-serif" font-size="13" font-weight="bold" lengthAdjust="spacing" textLength="25" x="262" y="186.1436">19.3</text><text fill="#000000" font-family="sans-serif" font-size="13" lengthAdjust="spacing" textLength="372" x="291" y="186.1436">getPropertyCategoryByDescription(propertyCategoryDescription)</text><polygon fill="#181818" points="266,215.4219,256,219.4219,266,223.4219,262,219.4219" style="stroke:#181818;stroke-width:1.0;"/><line style="stroke:#181818;stroke-width:1.0;stroke-dasharray:2.0,2.0;" x1="260" x2="685.5" y1="219.4219" y2="219.4219"/><text fill="#000000" font-family="sans-serif" font-size="13" font-weight="bold" lengthAdjust="spacing" textLength="25" x="272" y="214.667">19.4</text><text fill="#000000" font-family="sans-serif" font-size="13" lengthAdjust="spacing" textLength="99" x="301" y="214.667">propertyCategory</text><polygon fill="#181818" points="11,250.9453,1,254.9453,11,258.9453,7,254.9453" style="stroke:#181818;stroke-width:1.0;"/><line style="stroke:#181818;stroke-width:1.0;stroke-dasharray:2.0,2.0;" x1="5" x2="249" y1="254.9453" y2="254.9453"/><text fill="#000000" font-family="sans-serif" font-size="13" font-weight="bold" lengthAdjust="spacing" textLength="14" x="17" y="250.1904">20</text><text fill="#000000" font-family="sans-serif" font-size="13" lengthAdjust="spacing" textLength="99" x="35" y="250.1904">propertyCategory</text><!--SRC=[XLB1Ri8m3BtdAomksmwTncwhfacCIRiW3G57BY4r9QEDiyJTrhzVMaPfWO8laMm_l_Vi-AqsLZgPGqw6rCPHZi2kGE6RYfLgArESSvaXE5GiJPgr6_n69lIZJGfhcNaK8MusEa5O4_6AVaLeOwsqbOPX4C_mgq3F8sEeC0fpD3mcmuwo3Dq0f8VnOZOv0Ldocibfz7LFaoZdkjB3PBeGrq8ipUc0wMIqw2Ai8ukEox5aJCFW0qMyDDFUucvQRra8MGHnHRv21yCd4RtK_Y265FaOzbg-eLTEMzPaRk-wqFkXa8hrT-ZThKX0YDHHOU4TkT40-sdmiVeCzzhrLL4J1m6LzxFy1zc1V8zgIEkLDUaggWn4_vPYwDzWWqgmProZhVyArpTsBA1LE-Vdmj4wBdlxBdW_w_WA8PgaVbjdVtoeCyzHjFys9qGjWlfR_040]--></g></svg>