<?xml version="1.0" encoding="us-ascii" standalone="no"?><svg xmlns="http://www.w3.org/2000/svg" xmlns:xlink="http://www.w3.org/1999/xlink" contentStyleType="text/css" height="380px" preserveAspectRatio="none" style="width:825px;height:380px;background:#FFFFFF;" version="1.1" viewBox="0 0 825 380" width="825px" zoomAndPan="magnify"><defs/><g><rect fill="#FFFFFF" height="230.1875" style="stroke:#181818;stroke-width:1.0;" width="10" x="223" y="81.8047"/><rect fill="#FFFFFF" height="28.5234" style="stroke:#181818;stroke-width:1.0;" width="10" x="395.5" y="133.8516"/><rect fill="#FFFFFF" height="28.5234" style="stroke:#181818;stroke-width:1.0;" width="10" x="508" y="190.8984"/><rect fill="#FFFFFF" height="28.5234" style="stroke:#181818;stroke-width:1.0;" width="10" x="685.5" y="247.9453"/><rect fill="none" height="187.6641" style="stroke:#000000;stroke-width:1.5;" width="715.5" x="104" y="96.8047"/><line style="stroke:#181818;stroke-width:0.5;stroke-dasharray:5.0,5.0;" x1="228" x2="228" y1="51.2813" y2="329.9922"/><line style="stroke:#181818;stroke-width:0.5;stroke-dasharray:5.0,5.0;" x1="400" x2="400" y1="51.2813" y2="329.9922"/><line style="stroke:#181818;stroke-width:0.5;stroke-dasharray:5.0,5.0;" x1="512.5" x2="512.5" y1="51.2813" y2="329.9922"/><line style="stroke:#181818;stroke-width:0.5;stroke-dasharray:5.0,5.0;" x1="690.5" x2="690.5" y1="51.2813" y2="329.9922"/><rect fill="#E3E3E3" height="29.6406" rx="2.5" ry="2.5" style="stroke:#181818;stroke-width:0.5;" width="228" x="114" y="20.6406"/><text fill="#000000" font-family="sans-serif" font-size="14" lengthAdjust="spacing" textLength="214" x="121" y="40.3145">:RequestAnnouncementController</text><rect fill="#E3E3E3" height="29.6406" rx="2.5" ry="2.5" style="stroke:#181818;stroke-width:0.5;" width="228" x="114" y="328.9922"/><text fill="#000000" font-family="sans-serif" font-size="14" lengthAdjust="spacing" textLength="214" x="121" y="348.666">:RequestAnnouncementController</text><rect fill="#E3E3E3" height="29.6406" rx="2.5" ry="2.5" style="stroke:#181818;stroke-width:0.5;" width="97" x="352" y="20.6406"/><text fill="#000000" font-family="sans-serif" font-size="14" lengthAdjust="spacing" textLength="83" x="359" y="40.3145">:Repositories</text><rect fill="#E3E3E3" height="29.6406" rx="2.5" ry="2.5" style="stroke:#181818;stroke-width:0.5;" width="97" x="352" y="328.9922"/><text fill="#000000" font-family="sans-serif" font-size="14" lengthAdjust="spacing" textLength="83" x="359" y="348.666">:Repositories</text><rect fill="#E3E3E3" height="45.2813" rx="2.5" ry="2.5" style="stroke:#181818;stroke-width:0.5;" width="97" x="464.5" y="5"/><text fill="#000000" font-family="sans-serif" font-size="14" lengthAdjust="spacing" textLength="74" x="476" y="24.6738">repositories</text><text fill="#000000" font-family="sans-serif" font-size="14" lengthAdjust="spacing" textLength="83" x="471.5" y="40.3145">:Repositories</text><rect fill="#E3E3E3" height="45.2813" rx="2.5" ry="2.5" style="stroke:#181818;stroke-width:0.5;" width="97" x="464.5" y="328.9922"/><text fill="#000000" font-family="sans-serif" font-size="14" lengthAdjust="spacing" textLength="74" x="476" y="348.666">repositories</text><text fill="#000000" font-family="sans-serif" font-size="14" lengthAdjust="spacing" textLength="83" x="471.5" y="364.3066">:Repositories</text><rect fill="#E3E3E3" height="45.2813" rx="2.5" ry="2.5" style="stroke:#181818;stroke-width:0.5;" width="238" x="571.5" y="5"/><text fill="#000000" font-family="sans-serif" font-size="14" lengthAdjust="spacing" textLength="224" x="578.5" y="24.6738">announcementCategoryRepository:</text><text fill="#000000" font-family="sans-serif" font-size="14" lengthAdjust="spacing" textLength="221" x="580" y="40.3145">AnnouncementCategoryRepository</text><rect fill="#E3E3E3" height="45.2813" rx="2.5" ry="2.5" style="stroke:#181818;stroke-width:0.5;" width="238" x="571.5" y="328.9922"/><text fill="#000000" font-family="sans-serif" font-size="14" lengthAdjust="spacing" textLength="224" x="578.5" y="348.666">announcementCategoryRepository:</text><text fill="#000000" font-family="sans-serif" font-size="14" lengthAdjust="spacing" textLength="221" x="580" y="364.3066">AnnouncementCategoryRepository</text><rect fill="#FFFFFF" height="230.1875" style="stroke:#181818;stroke-width:1.0;" width="10" x="223" y="81.8047"/><rect fill="#FFFFFF" height="28.5234" style="stroke:#181818;stroke-width:1.0;" width="10" x="395.5" y="133.8516"/><rect fill="#FFFFFF" height="28.5234" style="stroke:#181818;stroke-width:1.0;" width="10" x="508" y="190.8984"/><rect fill="#FFFFFF" height="28.5234" style="stroke:#181818;stroke-width:1.0;" width="10" x="685.5" y="247.9453"/><polygon fill="#181818" points="211,77.8047,221,81.8047,211,85.8047,215,81.8047" style="stroke:#181818;stroke-width:1.0;"/><line style="stroke:#181818;stroke-width:1.0;" x1="0" x2="217" y1="81.8047" y2="81.8047"/><text fill="#000000" font-family="sans-serif" font-size="13" font-weight="bold" lengthAdjust="spacing" textLength="14" x="7" y="77.0498">15</text><text fill="#000000" font-family="sans-serif" font-size="13" lengthAdjust="spacing" textLength="186" x="25" y="77.0498">getAnnouncementCategoryList()</text><path d="M104,96.8047 L358,96.8047 L358,103.3281 L348,113.3281 L104,113.3281 L104,96.8047 " fill="#EEEEEE" style="stroke:#000000;stroke-width:1.5;"/><rect fill="none" height="187.6641" style="stroke:#000000;stroke-width:1.5;" width="715.5" x="104" y="96.8047"/><text fill="#000000" font-family="sans-serif" font-size="13" font-weight="bold" lengthAdjust="spacing" textLength="209" x="119" y="109.5732">Get Announcement Category List</text><polygon fill="#181818" points="383.5,129.8516,393.5,133.8516,383.5,137.8516,387.5,133.8516" style="stroke:#181818;stroke-width:1.0;"/><line style="stroke:#181818;stroke-width:1.0;" x1="233" x2="389.5" y1="133.8516" y2="133.8516"/><text fill="#000000" font-family="sans-serif" font-size="13" font-weight="bold" lengthAdjust="spacing" textLength="25" x="240" y="129.0967">15.1</text><text fill="#000000" font-family="sans-serif" font-size="13" lengthAdjust="spacing" textLength="75" x="269" y="129.0967">getInstance()</text><polygon fill="#181818" points="244,158.375,234,162.375,244,166.375,240,162.375" style="stroke:#181818;stroke-width:1.0;"/><line style="stroke:#181818;stroke-width:1.0;stroke-dasharray:2.0,2.0;" x1="238" x2="399.5" y1="162.375" y2="162.375"/><text fill="#000000" font-family="sans-serif" font-size="13" font-weight="bold" lengthAdjust="spacing" textLength="25" x="250" y="157.6201">15.2</text><text fill="#000000" font-family="sans-serif" font-size="13" lengthAdjust="spacing" textLength="67" x="279" y="157.6201">repositories</text><polygon fill="#181818" points="496,186.8984,506,190.8984,496,194.8984,500,190.8984" style="stroke:#181818;stroke-width:1.0;"/><line style="stroke:#181818;stroke-width:1.0;" x1="233" x2="502" y1="190.8984" y2="190.8984"/><text fill="#000000" font-family="sans-serif" font-size="13" font-weight="bold" lengthAdjust="spacing" textLength="25" x="240" y="186.1436">15.3</text><text fill="#000000" font-family="sans-serif" font-size="13" lengthAdjust="spacing" textLength="227" x="269" y="186.1436">getAnnouncementCategoryRepository()</text><polygon fill="#181818" points="244,215.4219,234,219.4219,244,223.4219,240,219.4219" style="stroke:#181818;stroke-width:1.0;"/><line style="stroke:#181818;stroke-width:1.0;stroke-dasharray:2.0,2.0;" x1="238" x2="512" y1="219.4219" y2="219.4219"/><text fill="#000000" font-family="sans-serif" font-size="13" font-weight="bold" lengthAdjust="spacing" textLength="25" x="250" y="214.667">15.4</text><text fill="#000000" font-family="sans-serif" font-size="13" lengthAdjust="spacing" textLength="199" x="279" y="214.667">announcementCategoryRepository</text><polygon fill="#181818" points="673.5,243.9453,683.5,247.9453,673.5,251.9453,677.5,247.9453" style="stroke:#181818;stroke-width:1.0;"/><line style="stroke:#181818;stroke-width:1.0;" x1="233" x2="679.5" y1="247.9453" y2="247.9453"/><text fill="#000000" font-family="sans-serif" font-size="13" font-weight="bold" lengthAdjust="spacing" textLength="25" x="240" y="243.1904">15.5</text><text fill="#000000" font-family="sans-serif" font-size="13" lengthAdjust="spacing" textLength="186" x="269" y="243.1904">getAnnouncementCategoryList()</text><polygon fill="#181818" points="244,272.4688,234,276.4688,244,280.4688,240,276.4688" style="stroke:#181818;stroke-width:1.0;"/><line style="stroke:#181818;stroke-width:1.0;stroke-dasharray:2.0,2.0;" x1="238" x2="689.5" y1="276.4688" y2="276.4688"/><text fill="#000000" font-family="sans-serif" font-size="13" font-weight="bold" lengthAdjust="spacing" textLength="25" x="250" y="271.7139">15.6</text><text fill="#000000" font-family="sans-serif" font-size="13" lengthAdjust="spacing" textLength="158" x="279" y="271.7139">announcementCategoryList</text><polygon fill="#181818" points="11,307.9922,1,311.9922,11,315.9922,7,311.9922" style="stroke:#181818;stroke-width:1.0;"/><line style="stroke:#181818;stroke-width:1.0;stroke-dasharray:2.0,2.0;" x1="5" x2="227" y1="311.9922" y2="311.9922"/><text fill="#000000" font-family="sans-serif" font-size="13" font-weight="bold" lengthAdjust="spacing" textLength="14" x="17" y="307.2373">16</text><text fill="#000000" font-family="sans-serif" font-size="13" lengthAdjust="spacing" textLength="158" x="35" y="307.2373">announcementCategoryList</text><!--SRC=[ZL8xJyCm4DxzAqwTO0XI1nWYX5HrG4WTKDknYt6Fr6fo3lO5r7-Fuv8NTTDuYNJvNlTmHqsbjBA0mf1H1siA1BOL2jV-AQKwoWmtVCeHB2gMbELzW3l8lVdHbC6dp1qAuSkibIubCSpIDNvLw7X1P2fIM23nqX1Ra-TePo0TBBVhrGMfD4wpiHfTmBI5qqRN_cneIB4zneuk1TvNY-sG8Vk996FcnJkRT4UBKK1G7OS88IiVj2e-qCByKOZa9JGBAMJ8CUvAExwx_yTxc0kfM7zxp7bMu5zcJLN2A_8W0pH2K2k9WAnVSFNkaJ6UmxoHyujLwCqRJkiPctsBYYacVtscqDzAIzdZDEacTBswwoFh96BPmzhRSb3gqerVG2plKAu9E1xhvhOlGj-wgePmmpVfparUSO_rECKTQH- -_Jjz2fNd99basZCCDor-0G00]--></g></svg>