<?xml version="1.0" encoding="us-ascii" standalone="no"?><svg xmlns="http://www.w3.org/2000/svg" xmlns:xlink="http://www.w3.org/1999/xlink" contentStyleType="text/css" height="406px" preserveAspectRatio="none" style="width:1190px;height:406px;background:#FFFFFF;" version="1.1" viewBox="0 0 1190 406" width="1190px" zoomAndPan="magnify"><defs/><g><text fill="#000000" font-family="sans-serif" font-size="14" font-weight="bold" lengthAdjust="spacing" textLength="156" x="510" y="25.1074">US001 - Domain Model</text><!--class UnregisteredUser--><g id="elem_UnregisteredUser"><rect codeLine="15" fill="#F1F1F1" height="36.6211" id="UnregisteredUser" rx="2.5" ry="2.5" style="stroke:#181818;stroke-width:0.5;" width="116" x="229.5" y="106.6211"/><text fill="#000000" font-family="sans-serif" font-size="14" lengthAdjust="spacing" textLength="110" x="232.5" y="126.7285">UnregisteredUser</text><line style="stroke:#181818;stroke-width:0.5;" x1="230.5" x2="344.5" y1="135.2422" y2="135.2422"/></g><!--class PropertyCategory--><g id="elem_PropertyCategory"><rect codeLine="18" fill="#F1F1F1" height="36.6211" id="PropertyCategory" rx="2.5" ry="2.5" style="stroke:#181818;stroke-width:0.5;" width="118" x="889" y="74.6211"/><text fill="#000000" font-family="sans-serif" font-size="14" lengthAdjust="spacing" textLength="112" x="892" y="94.7285">PropertyCategory</text><line style="stroke:#181818;stroke-width:0.5;" x1="890" x2="1006" y1="103.2422" y2="103.2422"/></g><g id="elem_GMN4"><path d="M1069,45.6211 L1069,89.1211 L1007.27,93.1211 L1069,97.1211 L1069,124.7852 A0,0 0 0 0 1069,124.7852 L1183,124.7852 A0,0 0 0 0 1183,124.7852 L1183,55.6211 L1173,45.6211 L1069,45.6211 A0,0 0 0 0 1069,45.6211 " fill="#FAFAFA" style="stroke:#181818;stroke-width:0.5;"/><path d="M1173,45.6211 L1173,55.6211 L1183,55.6211 L1173,45.6211 " fill="#FAFAFA" style="stroke:#181818;stroke-width:0.5;"/><text fill="#000000" font-family="sans-serif" font-size="13" lengthAdjust="spacing" textLength="75" x="1075" y="64.6494">- description:</text><text fill="#000000" font-family="sans-serif" font-size="13" lengthAdjust="spacing" textLength="43" x="1091" y="81.9404">1 - land</text><text fill="#000000" font-family="sans-serif" font-size="13" lengthAdjust="spacing" textLength="77" x="1091" y="99.2314">2 - apartment</text><text fill="#000000" font-family="sans-serif" font-size="13" lengthAdjust="spacing" textLength="54" x="1091" y="116.5225">3 - house</text></g><!--class BusinessCategory--><g id="elem_BusinessCategory"><rect codeLine="28" fill="#F1F1F1" height="36.6211" id="BusinessCategory" rx="2.5" ry="2.5" style="stroke:#181818;stroke-width:0.5;" width="121" x="887.5" y="163.6211"/><text fill="#000000" font-family="sans-serif" font-size="14" lengthAdjust="spacing" textLength="115" x="890.5" y="183.7285">BusinessCategory</text><line style="stroke:#181818;stroke-width:0.5;" x1="888.5" x2="1007.5" y1="192.2422" y2="192.2422"/></g><g id="elem_GMN8"><path d="M1078,160.1211 L1078,178.1211 L1008.76,182.1211 L1078,186.1211 L1078,221.9941 A0,0 0 0 0 1078,221.9941 L1174,221.9941 A0,0 0 0 0 1174,221.9941 L1174,170.1211 L1164,160.1211 L1078,160.1211 A0,0 0 0 0 1078,160.1211 " fill="#FAFAFA" style="stroke:#181818;stroke-width:0.5;"/><path d="M1164,160.1211 L1164,170.1211 L1174,170.1211 L1164,160.1211 " fill="#FAFAFA" style="stroke:#181818;stroke-width:0.5;"/><text fill="#000000" font-family="sans-serif" font-size="13" lengthAdjust="spacing" textLength="75" x="1084" y="179.1494">- description:</text><text fill="#000000" font-family="sans-serif" font-size="13" lengthAdjust="spacing" textLength="43" x="1100" y="196.4404">1 - sale</text><text fill="#000000" font-family="sans-serif" font-size="13" lengthAdjust="spacing" textLength="41" x="1100" y="213.7314">2 - rent</text></g><!--class Land--><g id="elem_Land"><rect codeLine="37" fill="#F1F1F1" height="73.8633" id="Land" rx="2.5" ry="2.5" style="stroke:#181818;stroke-width:0.5;" width="170" x="435" y="183.1211"/><text fill="#000000" font-family="sans-serif" font-size="14" lengthAdjust="spacing" textLength="32" x="504" y="203.2285">Land</text><line style="stroke:#181818;stroke-width:0.5;" x1="436" x2="604" y1="211.7422" y2="211.7422"/><text fill="#000000" font-family="sans-serif" font-size="14" lengthAdjust="spacing" textLength="34" x="441" y="230.8496">-area</text><text fill="#000000" font-family="sans-serif" font-size="14" lengthAdjust="spacing" textLength="158" x="441" y="249.4707">-distanceFromCityCentre</text></g><!--class Apartment--><g id="elem_Apartment"><rect codeLine="42" fill="#F1F1F1" height="92.4844" id="Apartment" rx="2.5" ry="2.5" style="stroke:#181818;stroke-width:0.5;" width="175" x="200" y="179.1211"/><text fill="#000000" font-family="sans-serif" font-size="14" lengthAdjust="spacing" textLength="65" x="255" y="199.2285">Apartment</text><line style="stroke:#181818;stroke-width:0.5;" x1="201" x2="374" y1="207.7422" y2="207.7422"/><text fill="#000000" font-family="sans-serif" font-size="14" lengthAdjust="spacing" textLength="132" x="206" y="226.8496">-numberOfBedrooms</text><text fill="#000000" font-family="sans-serif" font-size="14" lengthAdjust="spacing" textLength="136" x="206" y="245.4707">-numberOfBathrooms</text><text fill="#000000" font-family="sans-serif" font-size="14" lengthAdjust="spacing" textLength="163" x="206" y="264.0918">-numberOfParkingSpaces</text></g><!--class AvailableEquipment--><g id="elem_AvailableEquipment"><rect codeLine="48" fill="#F1F1F1" height="73.8633" id="AvailableEquipment" rx="2.5" ry="2.5" style="stroke:#181818;stroke-width:0.5;" width="130" x="222.5" y="306.1211"/><text fill="#000000" font-family="sans-serif" font-size="14" lengthAdjust="spacing" textLength="124" x="225.5" y="326.2285">AvailableEquipment</text><line style="stroke:#181818;stroke-width:0.5;" x1="223.5" x2="351.5" y1="334.7422" y2="334.7422"/><text fill="#000000" font-family="sans-serif" font-size="14" lengthAdjust="spacing" textLength="96" x="228.5" y="353.8496">-centralHeating</text><text fill="#000000" font-family="sans-serif" font-size="14" lengthAdjust="spacing" textLength="100" x="228.5" y="372.4707">-airConditioning</text></g><!--class House--><g id="elem_House"><rect codeLine="53" fill="#F1F1F1" height="92.4844" id="House" rx="2.5" ry="2.5" style="stroke:#181818;stroke-width:0.5;" width="133" x="7" y="179.1211"/><text fill="#000000" font-family="sans-serif" font-size="14" lengthAdjust="spacing" textLength="40" x="53.5" y="199.2285">House</text><line style="stroke:#181818;stroke-width:0.5;" x1="8" x2="139" y1="207.7422" y2="207.7422"/><text fill="#000000" font-family="sans-serif" font-size="14" lengthAdjust="spacing" textLength="91" x="13" y="226.8496">-hasBasement</text><text fill="#000000" font-family="sans-serif" font-size="14" lengthAdjust="spacing" textLength="121" x="13" y="245.4707">-hasInhabitableLoft</text><text fill="#000000" font-family="sans-serif" font-size="14" lengthAdjust="spacing" textLength="87" x="13" y="264.0918">-sunExposure</text></g><!--class Announcement--><g id="elem_Announcement"><rect codeLine="59" fill="#F1F1F1" height="36.6211" id="Announcement" rx="2.5" ry="2.5" style="stroke:#181818;stroke-width:0.5;" width="101" x="665" y="206.6211"/><text fill="#000000" font-family="sans-serif" font-size="14" lengthAdjust="spacing" textLength="95" x="668" y="226.7285">Announcement</text><line style="stroke:#181818;stroke-width:0.5;" x1="666" x2="765" y1="235.2422" y2="235.2422"/></g><!--class Commission--><g id="elem_Commission"><rect codeLine="62" fill="#F1F1F1" height="36.6211" id="Commission" rx="2.5" ry="2.5" style="stroke:#181818;stroke-width:0.5;" width="82" x="674.5" y="283.6211"/><text fill="#000000" font-family="sans-serif" font-size="14" lengthAdjust="spacing" textLength="76" x="677.5" y="303.7285">Commission</text><line style="stroke:#181818;stroke-width:0.5;" x1="675.5" x2="755.5" y1="312.2422" y2="312.2422"/></g><!--class SaleRequest--><g id="elem_SaleRequest"><rect codeLine="65" fill="#F1F1F1" height="55.2422" id="SaleRequest" rx="2.5" ry="2.5" style="stroke:#181818;stroke-width:0.5;" width="113" x="891.5" y="235.6211"/><text fill="#000000" font-family="sans-serif" font-size="14" lengthAdjust="spacing" textLength="81" x="907.5" y="255.7285">SaleRequest</text><line style="stroke:#181818;stroke-width:0.5;" x1="892.5" x2="1003.5" y1="264.2422" y2="264.2422"/><text fill="#000000" font-family="sans-serif" font-size="14" lengthAdjust="spacing" textLength="101" x="897.5" y="283.3496">-requestedPrice</text></g><!--class RentRequest--><g id="elem_RentRequest"><rect codeLine="69" fill="#F1F1F1" height="73.8633" id="RentRequest" rx="2.5" ry="2.5" style="stroke:#181818;stroke-width:0.5;" width="122" x="887" y="326.1211"/><text fill="#000000" font-family="sans-serif" font-size="14" lengthAdjust="spacing" textLength="83" x="906.5" y="346.2285">RentRequest</text><line style="stroke:#181818;stroke-width:0.5;" x1="888" x2="1008" y1="354.7422" y2="354.7422"/><text fill="#000000" font-family="sans-serif" font-size="14" lengthAdjust="spacing" textLength="84" x="893" y="373.8496">-monthlyRent</text><text fill="#000000" font-family="sans-serif" font-size="14" lengthAdjust="spacing" textLength="110" x="893" y="392.4707">-contractDuration</text></g><!--class Agent--><g id="elem_Agent"><rect fill="#F1F1F1" height="36.6211" id="Agent" rx="2.5" ry="2.5" style="stroke:#181818;stroke-width:0.5;" width="43" x="498.5" y="292.6211"/><text fill="#000000" font-family="sans-serif" font-size="14" lengthAdjust="spacing" textLength="37" x="501.5" y="312.7285">Agent</text><line style="stroke:#181818;stroke-width:0.5;" x1="499.5" x2="540.5" y1="321.2422" y2="321.2422"/></g><!--reverse link Announcement to RentRequest--><g id="link_Announcement_RentRequest"><path codeLine="73" d="M762,263.7111 C762,263.7111 762,354.8711 762,354.8711 C762,354.8711 832.63,354.8711 886.84,354.8711 " fill="none" id="Announcement-backto-RentRequest" style="stroke:#181818;stroke-width:1.0;"/><polygon fill="none" points="755,263.7111,762,243.7111,769,263.7111,755,263.7111" style="stroke:#181818;stroke-width:1.0;"/></g><!--reverse link Announcement to SaleRequest--><g id="link_Announcement_SaleRequest"><path codeLine="74" d="M786.24,239.6211 C786.24,239.6211 891.25,239.6211 891.25,239.6211 " fill="none" id="Announcement-backto-SaleRequest" style="stroke:#181818;stroke-width:1.0;"/><polygon fill="none" points="786.24,246.6211,766.24,239.6211,786.24,232.6211,786.24,246.6211" style="stroke:#181818;stroke-width:1.0;"/></g><!--link Apartment to Land--><g id="link_Apartment_Land"><path codeLine="75" d="M375.07,220.1211 C375.07,220.1211 414.82,220.1211 414.82,220.1211 " fill="none" id="Apartment-to-Land" style="stroke:#181818;stroke-width:1.0;"/><polygon fill="none" points="414.82,213.1211,434.82,220.1211,414.82,227.1211,414.82,213.1211" style="stroke:#181818;stroke-width:1.0;"/></g><!--link House to Apartment--><g id="link_House_Apartment"><path codeLine="76" d="M140.04,225.1211 C140.04,225.1211 179.75,225.1211 179.75,225.1211 " fill="none" id="House-to-Apartment" style="stroke:#181818;stroke-width:1.0;"/><polygon fill="none" points="179.75,218.1211,199.75,225.1211,179.75,232.1211,179.75,218.1211" style="stroke:#181818;stroke-width:1.0;"/></g><!--link Land to Announcement--><g id="link_Land_Announcement"><path codeLine="77" d="M605.18,225.1211 C605.18,225.1211 644.9,225.1211 644.9,225.1211 " fill="none" id="Land-to-Announcement" style="stroke:#181818;stroke-width:1.0;"/><polygon fill="none" points="644.9,218.1211,664.9,225.1211,644.9,232.1211,644.9,218.1211" style="stroke:#181818;stroke-width:1.0;"/></g><!--link UnregisteredUser to Announcement--><g id="link_UnregisteredUser_Announcement"><path codeLine="78" d="M345.74,134.1211 C457.48,134.1211 691,134.1211 691,134.1211 C691,134.1211 691,179.6111 691,206.2611 " fill="none" id="UnregisteredUser-Announcement" style="stroke:#181818;stroke-width:1.0;"/><polygon fill="#000000" points="525.3343,144.7892,517.0815,140.0625,515.8793,145.8161,525.3343,144.7892" style="stroke:#000000;stroke-width:1.0;"/><text fill="#000000" font-family="sans-serif" font-size="13" lengthAdjust="spacing" textLength="24" x="529.44" y="149.1494">lists</text><text fill="#000000" font-family="sans-serif" font-size="13" lengthAdjust="spacing" textLength="7" x="353.6504" y="150.4345">1</text><text fill="#000000" font-family="sans-serif" font-size="13" lengthAdjust="spacing" textLength="20" x="660.8656" y="195.3508">0..*</text></g><!--reverse link Apartment to AvailableEquipment--><g id="link_Apartment_AvailableEquipment"><path codeLine="79" d="M288,284.4211 C288,284.4211 288,306.0611 288,306.0611 " fill="none" id="Apartment-backto-AvailableEquipment" style="stroke:#181818;stroke-width:1.0;"/><polygon fill="#181818" points="288,271.4211,284,277.4211,288,283.4211,292,277.4211,288,271.4211" style="stroke:#181818;stroke-width:1.0;"/></g><!--link Agent to Commission--><g id="link_Agent_Commission"><path codeLine="80" d="M541.67,311.2911 C573.58,311.2911 633.81,311.2911 674.3,311.2911 " fill="none" id="Agent-Commission" style="stroke:#181818;stroke-width:1.0;"/><polygon fill="#000000" points="566.98,320.9366,557.9349,317.9977,557.9349,323.8755,566.98,320.9366" style="stroke:#000000;stroke-width:1.0;"/><text fill="#000000" font-family="sans-serif" font-size="13" lengthAdjust="spacing" textLength="36" x="570.98" y="326.3194">sets a</text><text fill="#000000" font-family="sans-serif" font-size="13" lengthAdjust="spacing" textLength="7" x="549.3783" y="328.0772">1</text><text fill="#000000" font-family="sans-serif" font-size="13" lengthAdjust="spacing" textLength="7" x="659.6172" y="328.414">1</text></g><!--link Agent to Announcement--><g id="link_Agent_Announcement"><path codeLine="81" d="M541.81,301.9511 C583.41,301.9511 670,301.9511 670,301.9511 C670,301.9511 670,266.4611 670,243.7211 " fill="none" id="Agent-Announcement" style="stroke:#181818;stroke-width:1.0;"/><polygon fill="#000000" points="574.5723,290.5287,565.1216,291.5938,567.5526,296.9454,574.5723,290.5287" style="stroke:#000000;stroke-width:1.0;"/><text fill="#000000" font-family="sans-serif" font-size="13" lengthAdjust="spacing" textLength="55" x="579.02" y="297.9794">publishes</text><text fill="#000000" font-family="sans-serif" font-size="13" lengthAdjust="spacing" textLength="7" x="549.5612" y="315.8768">1</text><text fill="#000000" font-family="sans-serif" font-size="13" lengthAdjust="spacing" textLength="20" x="637.1656" y="264.0937">1..*</text></g><!--reverse link Announcement to Commission--><g id="link_Announcement_Commission"><path codeLine="82" d="M716,256.7611 C716,256.7611 716,283.3911 716,283.3911 " fill="none" id="Announcement-backto-Commission" style="stroke:#181818;stroke-width:1.0;"/><polygon fill="#181818" points="716,243.7611,712,249.7611,716,255.7611,720,249.7611,716,243.7611" style="stroke:#181818;stroke-width:1.0;"/></g><!--link Announcement to BusinessCategory--><g id="link_Announcement_BusinessCategory"><path codeLine="83" d="M741,206.5511 C741,198.9311 741,191.8711 741,191.8711 C741,191.8711 826.21,191.8711 887.29,191.8711 " fill="none" id="Announcement-BusinessCategory" style="stroke:#181818;stroke-width:1.0;"/><polygon fill="#000000" points="816.785,201.0174,807.4917,198.9963,808.0786,204.8447,816.785,201.0174" style="stroke:#000000;stroke-width:1.0;"/><text fill="#000000" font-family="sans-serif" font-size="13" lengthAdjust="spacing" textLength="32" x="820.81" y="206.8994">has a</text><text fill="#000000" font-family="sans-serif" font-size="13" lengthAdjust="spacing" textLength="7" x="740.7375" y="195.3918">1</text><text fill="#000000" font-family="sans-serif" font-size="13" lengthAdjust="spacing" textLength="7" x="872.4644" y="208.1645">1</text></g><!--link Announcement to PropertyCategory--><g id="link_Announcement_PropertyCategory"><path codeLine="84" d="M716,206.4211 C716,169.4611 716,90.6211 716,90.6211 C716,90.6211 820.12,90.6211 888.86,90.6211 " fill="none" id="Announcement-PropertyCategory" style="stroke:#181818;stroke-width:1.0;"/><polygon fill="#000000" points="706.684,97.4838,697.5336,100.0763,700.805,104.9596,706.684,97.4838" style="stroke:#000000;stroke-width:1.0;"/><text fill="#000000" font-family="sans-serif" font-size="13" lengthAdjust="spacing" textLength="32" x="711.53" y="105.6494">has a</text><text fill="#000000" font-family="sans-serif" font-size="13" lengthAdjust="spacing" textLength="7" x="708.0813" y="195.222">1</text><text fill="#000000" font-family="sans-serif" font-size="13" lengthAdjust="spacing" textLength="7" x="873.8343" y="105.4611">1</text></g><!--SRC=[XLHTRzim37pNhn3oMC15khq5Gu0qxT027HOao0zWRCOMQaikIM_BrlxtKKvZEn_TykBuADwTJfJvsVaQ22fR1H_IWaA5LgX1mrsbXlGPSbp9haHBc0hul1mku0AoyDFvt6wXv66bT1vbLwCD94Km9Mx5Ih3aya9ivYAP2zuCEj8Ic6SYv3QDu6CQ_ChzHZisfd0PsjHHgjhj_mgLCsDZn8awMw_6unkRsBjGWVFsMyYmDARbisjFc3iM9CpMZ6J_cBT3RK6XHfBT70JpGBjzpGV1TvzXUxR6MFqbDaDEoTLn3vCMYh_eeGIVTS0d1K1t9nLwwT3FYXQXqRZGPpRA7GpTDgonCV_BqEcQ_nbYqDI6XYXwELL-KjkgjkS2GZZGQdJWK_ogup5t6eCs4_OHpWwxwvfzKssGlczlCQCGAZw5GOfB-0989o5VwSWX3_X_W2jXK-BzI-Fg8w4qMe7o0K6qyM3TqJpupCKS8jeHFSJ0kzu2-1OOksDfaKTVmCP9L7iAsqE16t__gmxS76tR-z1eBE-6EdmUgieng_WGNUaHBF6bGUxTq_uTimMvTC2yLCRJjNf1fIXtozwjNWxTUoft3K5xZzxCaQKlhqcI3BakbGUsJ7-EIV8wRSV1x2DhtxkoQGTbZmqOpTar6zsCR1GPZQ-lhqR7WKtqwy32TZgGlKekdBMPvR6svseVWu0dTcePbGPEbrrIdDgwsQXieTDrL5BXdlIurEr1dsTNCrBgq4JrZthElYzzpry0]--></g></svg>