<?xml version="1.0" encoding="us-ascii" standalone="no"?><svg xmlns="http://www.w3.org/2000/svg" xmlns:xlink="http://www.w3.org/1999/xlink" contentStyleType="text/css" height="1552px" preserveAspectRatio="none" style="width:1799px;height:1552px;background:#FFFFFF;" version="1.1" viewBox="0 0 1799 1552" width="1799px" zoomAndPan="magnify"><defs/><g><!--class ApplicationSession--><g id="elem_ApplicationSession"><rect codeLine="9" fill="#F1F1F1" height="85.2422" id="ApplicationSession" rx="2.5" ry="2.5" style="stroke:#181818;stroke-width:0.5;" width="151" x="1545" y="142"/><ellipse cx="1560" cy="158" fill="#ADD1B2" rx="11" ry="11" style="stroke:#181818;stroke-width:1.0;"/><path d="M1562.7656,153.875 Q1562.9219,153.6563 1563.1094,153.5469 Q1563.2969,153.4375 1563.5156,153.4375 Q1563.8906,153.4375 1564.125,153.7031 Q1564.3594,153.9531 1564.3594,154.5625 L1564.3594,156.0156 Q1564.3594,156.625 1564.125,156.8906 Q1563.8906,157.1563 1563.5156,157.1563 Q1563.1719,157.1563 1562.9688,156.9531 Q1562.7656,156.7656 1562.6563,156.25 Q1562.6094,155.8906 1562.4219,155.7031 Q1562.0938,155.3281 1561.4844,155.1094 Q1560.875,154.8906 1560.25,154.8906 Q1559.4844,154.8906 1558.8438,155.2188 Q1558.2188,155.5469 1557.7188,156.2969 Q1557.2344,157.0469 1557.2344,158.0781 L1557.2344,159.1719 Q1557.2344,160.4063 1558.125,161.2344 Q1559.0156,162.0469 1560.6094,162.0469 Q1561.5469,162.0469 1562.2031,161.7969 Q1562.5938,161.6406 1563.0156,161.2031 Q1563.2813,160.9375 1563.4219,160.8594 Q1563.5781,160.7813 1563.7813,160.7813 Q1564.1094,160.7813 1564.3594,161.0469 Q1564.625,161.2969 1564.625,161.6406 Q1564.625,161.9844 1564.2813,162.3906 Q1563.7813,162.9688 1562.9844,163.2969 Q1561.9063,163.75 1560.6094,163.75 Q1559.0938,163.75 1557.8906,163.125 Q1556.9063,162.625 1556.2188,161.5625 Q1555.5313,160.4844 1555.5313,159.2031 L1555.5313,158.0469 Q1555.5313,156.7188 1556.1406,155.5781 Q1556.7656,154.4219 1557.8594,153.8125 Q1558.9531,153.1875 1560.1875,153.1875 Q1560.9219,153.1875 1561.5625,153.3594 Q1562.2188,153.5156 1562.7656,153.875 Z " fill="#000000"/><text fill="#000000" font-family="sans-serif" font-size="14" lengthAdjust="spacing" textLength="119" x="1574" y="163.7969">ApplicationSession</text><line style="stroke:#181818;stroke-width:0.5;" x1="1546" x2="1695" y1="174" y2="174"/><line style="stroke:#181818;stroke-width:0.5;" x1="1546" x2="1695" y1="182" y2="182"/><text fill="#000000" font-family="sans-serif" font-size="14" lengthAdjust="spacing" textLength="128" x="1551" y="201.1074">+static getInstance()</text><text fill="#000000" font-family="sans-serif" font-size="14" lengthAdjust="spacing" textLength="136" x="1551" y="219.7285">+getCurrentSession()</text></g><!--class UserSession--><g id="elem_UserSession"><rect codeLine="15" fill="#F1F1F1" height="66.6211" id="UserSession" rx="2.5" ry="2.5" style="stroke:#181818;stroke-width:0.5;" width="113" x="1655" y="436.5"/><ellipse cx="1670.9" cy="452.5" fill="#ADD1B2" rx="11" ry="11" style="stroke:#181818;stroke-width:1.0;"/><path d="M1673.6656,448.375 Q1673.8219,448.1563 1674.0094,448.0469 Q1674.1969,447.9375 1674.4156,447.9375 Q1674.7906,447.9375 1675.025,448.2031 Q1675.2594,448.4531 1675.2594,449.0625 L1675.2594,450.5156 Q1675.2594,451.125 1675.025,451.3906 Q1674.7906,451.6563 1674.4156,451.6563 Q1674.0719,451.6563 1673.8688,451.4531 Q1673.6656,451.2656 1673.5563,450.75 Q1673.5094,450.3906 1673.3219,450.2031 Q1672.9938,449.8281 1672.3844,449.6094 Q1671.775,449.3906 1671.15,449.3906 Q1670.3844,449.3906 1669.7438,449.7188 Q1669.1188,450.0469 1668.6188,450.7969 Q1668.1344,451.5469 1668.1344,452.5781 L1668.1344,453.6719 Q1668.1344,454.9063 1669.025,455.7344 Q1669.9156,456.5469 1671.5094,456.5469 Q1672.4469,456.5469 1673.1031,456.2969 Q1673.4938,456.1406 1673.9156,455.7031 Q1674.1813,455.4375 1674.3219,455.3594 Q1674.4781,455.2813 1674.6813,455.2813 Q1675.0094,455.2813 1675.2594,455.5469 Q1675.525,455.7969 1675.525,456.1406 Q1675.525,456.4844 1675.1813,456.8906 Q1674.6813,457.4688 1673.8844,457.7969 Q1672.8063,458.25 1671.5094,458.25 Q1669.9938,458.25 1668.7906,457.625 Q1667.8063,457.125 1667.1188,456.0625 Q1666.4313,454.9844 1666.4313,453.7031 L1666.4313,452.5469 Q1666.4313,451.2188 1667.0406,450.0781 Q1667.6656,448.9219 1668.7594,448.3125 Q1669.8531,447.6875 1671.0875,447.6875 Q1671.8219,447.6875 1672.4625,447.8594 Q1673.1188,448.0156 1673.6656,448.375 Z " fill="#000000"/><text fill="#000000" font-family="sans-serif" font-size="14" lengthAdjust="spacing" textLength="79" x="1685.1" y="458.2969">UserSession</text><line style="stroke:#181818;stroke-width:0.5;" x1="1656" x2="1767" y1="468.5" y2="468.5"/><line style="stroke:#181818;stroke-width:0.5;" x1="1656" x2="1767" y1="476.5" y2="476.5"/><text fill="#000000" font-family="sans-serif" font-size="14" lengthAdjust="spacing" textLength="101" x="1661" y="495.6074">+getUserEmail()</text></g><!--class Address--><g id="elem_Address"><rect codeLine="20" fill="#F1F1F1" height="159.7266" id="Address" rx="2.5" ry="2.5" style="stroke:#181818;stroke-width:0.5;" width="286" x="1455.5" y="1386"/><ellipse cx="1568.25" cy="1402" fill="#ADD1B2" rx="11" ry="11" style="stroke:#181818;stroke-width:1.0;"/><path d="M1571.0156,1397.875 Q1571.1719,1397.6563 1571.3594,1397.5469 Q1571.5469,1397.4375 1571.7656,1397.4375 Q1572.1406,1397.4375 1572.375,1397.7031 Q1572.6094,1397.9531 1572.6094,1398.5625 L1572.6094,1400.0156 Q1572.6094,1400.625 1572.375,1400.8906 Q1572.1406,1401.1563 1571.7656,1401.1563 Q1571.4219,1401.1563 1571.2188,1400.9531 Q1571.0156,1400.7656 1570.9063,1400.25 Q1570.8594,1399.8906 1570.6719,1399.7031 Q1570.3438,1399.3281 1569.7344,1399.1094 Q1569.125,1398.8906 1568.5,1398.8906 Q1567.7344,1398.8906 1567.0938,1399.2188 Q1566.4688,1399.5469 1565.9688,1400.2969 Q1565.4844,1401.0469 1565.4844,1402.0781 L1565.4844,1403.1719 Q1565.4844,1404.4063 1566.375,1405.2344 Q1567.2656,1406.0469 1568.8594,1406.0469 Q1569.7969,1406.0469 1570.4531,1405.7969 Q1570.8438,1405.6406 1571.2656,1405.2031 Q1571.5313,1404.9375 1571.6719,1404.8594 Q1571.8281,1404.7813 1572.0313,1404.7813 Q1572.3594,1404.7813 1572.6094,1405.0469 Q1572.875,1405.2969 1572.875,1405.6406 Q1572.875,1405.9844 1572.5313,1406.3906 Q1572.0313,1406.9688 1571.2344,1407.2969 Q1570.1563,1407.75 1568.8594,1407.75 Q1567.3438,1407.75 1566.1406,1407.125 Q1565.1563,1406.625 1564.4688,1405.5625 Q1563.7813,1404.4844 1563.7813,1403.2031 L1563.7813,1402.0469 Q1563.7813,1400.7188 1564.3906,1399.5781 Q1565.0156,1398.4219 1566.1094,1397.8125 Q1567.2031,1397.1875 1568.4375,1397.1875 Q1569.1719,1397.1875 1569.8125,1397.3594 Q1570.4688,1397.5156 1571.0156,1397.875 Z " fill="#000000"/><text fill="#000000" font-family="sans-serif" font-size="14" lengthAdjust="spacing" textLength="52" x="1588.75" y="1407.7969">Address</text><line style="stroke:#181818;stroke-width:0.5;" x1="1456.5" x2="1740.5" y1="1418" y2="1418"/><text fill="#000000" font-family="sans-serif" font-size="14" lengthAdjust="spacing" textLength="41" x="1461.5" y="1437.1074">-street</text><text fill="#000000" font-family="sans-serif" font-size="14" lengthAdjust="spacing" textLength="26" x="1461.5" y="1455.7285">-city</text><text fill="#000000" font-family="sans-serif" font-size="14" lengthAdjust="spacing" textLength="46" x="1461.5" y="1474.3496">-district</text><text fill="#000000" font-family="sans-serif" font-size="14" lengthAdjust="spacing" textLength="36" x="1461.5" y="1492.9707">-state</text><text fill="#000000" font-family="sans-serif" font-size="14" lengthAdjust="spacing" textLength="56" x="1461.5" y="1511.5918">-zipCode</text><line style="stroke:#181818;stroke-width:0.5;" x1="1456.5" x2="1740.5" y1="1519.1055" y2="1519.1055"/><text fill="#000000" font-family="sans-serif" font-size="14" lengthAdjust="spacing" textLength="274" x="1461.5" y="1538.2129">+Adress(street, city, district, state, zipCode)</text></g><!--class Commission--><g id="elem_Commission"><rect codeLine="30" fill="#F1F1F1" height="66.6211" id="Commission" rx="2.5" ry="2.5" style="stroke:#181818;stroke-width:0.5;" width="108" x="1312.5" y="1432.5"/><ellipse cx="1327.5" cy="1448.5" fill="#ADD1B2" rx="11" ry="11" style="stroke:#181818;stroke-width:1.0;"/><path d="M1330.2656,1444.375 Q1330.4219,1444.1563 1330.6094,1444.0469 Q1330.7969,1443.9375 1331.0156,1443.9375 Q1331.3906,1443.9375 1331.625,1444.2031 Q1331.8594,1444.4531 1331.8594,1445.0625 L1331.8594,1446.5156 Q1331.8594,1447.125 1331.625,1447.3906 Q1331.3906,1447.6563 1331.0156,1447.6563 Q1330.6719,1447.6563 1330.4688,1447.4531 Q1330.2656,1447.2656 1330.1563,1446.75 Q1330.1094,1446.3906 1329.9219,1446.2031 Q1329.5938,1445.8281 1328.9844,1445.6094 Q1328.375,1445.3906 1327.75,1445.3906 Q1326.9844,1445.3906 1326.3438,1445.7188 Q1325.7188,1446.0469 1325.2188,1446.7969 Q1324.7344,1447.5469 1324.7344,1448.5781 L1324.7344,1449.6719 Q1324.7344,1450.9063 1325.625,1451.7344 Q1326.5156,1452.5469 1328.1094,1452.5469 Q1329.0469,1452.5469 1329.7031,1452.2969 Q1330.0938,1452.1406 1330.5156,1451.7031 Q1330.7813,1451.4375 1330.9219,1451.3594 Q1331.0781,1451.2813 1331.2813,1451.2813 Q1331.6094,1451.2813 1331.8594,1451.5469 Q1332.125,1451.7969 1332.125,1452.1406 Q1332.125,1452.4844 1331.7813,1452.8906 Q1331.2813,1453.4688 1330.4844,1453.7969 Q1329.4063,1454.25 1328.1094,1454.25 Q1326.5938,1454.25 1325.3906,1453.625 Q1324.4063,1453.125 1323.7188,1452.0625 Q1323.0313,1450.9844 1323.0313,1449.7031 L1323.0313,1448.5469 Q1323.0313,1447.2188 1323.6406,1446.0781 Q1324.2656,1444.9219 1325.3594,1444.3125 Q1326.4531,1443.6875 1327.6875,1443.6875 Q1328.4219,1443.6875 1329.0625,1443.8594 Q1329.7188,1444.0156 1330.2656,1444.375 Z " fill="#000000"/><text fill="#000000" font-family="sans-serif" font-size="14" lengthAdjust="spacing" textLength="76" x="1341.5" y="1454.2969">Commission</text><line style="stroke:#181818;stroke-width:0.5;" x1="1313.5" x2="1419.5" y1="1464.5" y2="1464.5"/><text fill="#000000" font-family="sans-serif" font-size="14" lengthAdjust="spacing" textLength="74" x="1318.5" y="1483.6074">-description</text><line style="stroke:#181818;stroke-width:0.5;" x1="1313.5" x2="1419.5" y1="1491.1211" y2="1491.1211"/></g><!--class Agent--><g id="elem_Agent"><rect codeLine="34" fill="#F1F1F1" height="159.7266" id="Agent" rx="2.5" ry="2.5" style="stroke:#181818;stroke-width:0.5;" width="147" x="1451" y="1109.5"/><ellipse cx="1501.75" cy="1125.5" fill="#ADD1B2" rx="11" ry="11" style="stroke:#181818;stroke-width:1.0;"/><path d="M1504.5156,1121.375 Q1504.6719,1121.1563 1504.8594,1121.0469 Q1505.0469,1120.9375 1505.2656,1120.9375 Q1505.6406,1120.9375 1505.875,1121.2031 Q1506.1094,1121.4531 1506.1094,1122.0625 L1506.1094,1123.5156 Q1506.1094,1124.125 1505.875,1124.3906 Q1505.6406,1124.6563 1505.2656,1124.6563 Q1504.9219,1124.6563 1504.7188,1124.4531 Q1504.5156,1124.2656 1504.4063,1123.75 Q1504.3594,1123.3906 1504.1719,1123.2031 Q1503.8438,1122.8281 1503.2344,1122.6094 Q1502.625,1122.3906 1502,1122.3906 Q1501.2344,1122.3906 1500.5938,1122.7188 Q1499.9688,1123.0469 1499.4688,1123.7969 Q1498.9844,1124.5469 1498.9844,1125.5781 L1498.9844,1126.6719 Q1498.9844,1127.9063 1499.875,1128.7344 Q1500.7656,1129.5469 1502.3594,1129.5469 Q1503.2969,1129.5469 1503.9531,1129.2969 Q1504.3438,1129.1406 1504.7656,1128.7031 Q1505.0313,1128.4375 1505.1719,1128.3594 Q1505.3281,1128.2813 1505.5313,1128.2813 Q1505.8594,1128.2813 1506.1094,1128.5469 Q1506.375,1128.7969 1506.375,1129.1406 Q1506.375,1129.4844 1506.0313,1129.8906 Q1505.5313,1130.4688 1504.7344,1130.7969 Q1503.6563,1131.25 1502.3594,1131.25 Q1500.8438,1131.25 1499.6406,1130.625 Q1498.6563,1130.125 1497.9688,1129.0625 Q1497.2813,1127.9844 1497.2813,1126.7031 L1497.2813,1125.5469 Q1497.2813,1124.2188 1497.8906,1123.0781 Q1498.5156,1121.9219 1499.6094,1121.3125 Q1500.7031,1120.6875 1501.9375,1120.6875 Q1502.6719,1120.6875 1503.3125,1120.8594 Q1503.9688,1121.0156 1504.5156,1121.375 Z " fill="#000000"/><text fill="#000000" font-family="sans-serif" font-size="14" lengthAdjust="spacing" textLength="37" x="1522.25" y="1131.2969">Agent</text><line style="stroke:#181818;stroke-width:0.5;" x1="1452" x2="1597" y1="1141.5" y2="1141.5"/><text fill="#000000" font-family="sans-serif" font-size="14" lengthAdjust="spacing" textLength="81" x="1457" y="1160.6074">-String name</text><text fill="#000000" font-family="sans-serif" font-size="14" lengthAdjust="spacing" textLength="135" x="1457" y="1179.2285">-String phoneNumber</text><text fill="#000000" font-family="sans-serif" font-size="14" lengthAdjust="spacing" textLength="120" x="1457" y="1197.8496">-Passport passport</text><text fill="#000000" font-family="sans-serif" font-size="14" lengthAdjust="spacing" textLength="114" x="1457" y="1216.4707">-Location address</text><text fill="#000000" font-family="sans-serif" font-size="14" lengthAdjust="spacing" textLength="113" x="1457" y="1235.0918">-String taxNumber</text><line style="stroke:#181818;stroke-width:0.5;" x1="1452" x2="1597" y1="1242.6055" y2="1242.6055"/><text fill="#000000" font-family="sans-serif" font-size="14" lengthAdjust="spacing" textLength="55" x="1457" y="1261.7129">+Agent()</text></g><!--class Announcement--><g id="elem_Announcement"><rect codeLine="45" fill="#F1F1F1" height="271.4531" id="Announcement" rx="2.5" ry="2.5" style="stroke:#181818;stroke-width:0.5;" width="326" x="999.5" y="1054"/><ellipse cx="1110.75" cy="1070" fill="#ADD1B2" rx="11" ry="11" style="stroke:#181818;stroke-width:1.0;"/><path d="M1113.5156,1065.875 Q1113.6719,1065.6563 1113.8594,1065.5469 Q1114.0469,1065.4375 1114.2656,1065.4375 Q1114.6406,1065.4375 1114.875,1065.7031 Q1115.1094,1065.9531 1115.1094,1066.5625 L1115.1094,1068.0156 Q1115.1094,1068.625 1114.875,1068.8906 Q1114.6406,1069.1563 1114.2656,1069.1563 Q1113.9219,1069.1563 1113.7188,1068.9531 Q1113.5156,1068.7656 1113.4063,1068.25 Q1113.3594,1067.8906 1113.1719,1067.7031 Q1112.8438,1067.3281 1112.2344,1067.1094 Q1111.625,1066.8906 1111,1066.8906 Q1110.2344,1066.8906 1109.5938,1067.2188 Q1108.9688,1067.5469 1108.4688,1068.2969 Q1107.9844,1069.0469 1107.9844,1070.0781 L1107.9844,1071.1719 Q1107.9844,1072.4063 1108.875,1073.2344 Q1109.7656,1074.0469 1111.3594,1074.0469 Q1112.2969,1074.0469 1112.9531,1073.7969 Q1113.3438,1073.6406 1113.7656,1073.2031 Q1114.0313,1072.9375 1114.1719,1072.8594 Q1114.3281,1072.7813 1114.5313,1072.7813 Q1114.8594,1072.7813 1115.1094,1073.0469 Q1115.375,1073.2969 1115.375,1073.6406 Q1115.375,1073.9844 1115.0313,1074.3906 Q1114.5313,1074.9688 1113.7344,1075.2969 Q1112.6563,1075.75 1111.3594,1075.75 Q1109.8438,1075.75 1108.6406,1075.125 Q1107.6563,1074.625 1106.9688,1073.5625 Q1106.2813,1072.4844 1106.2813,1071.2031 L1106.2813,1070.0469 Q1106.2813,1068.7188 1106.8906,1067.5781 Q1107.5156,1066.4219 1108.6094,1065.8125 Q1109.7031,1065.1875 1110.9375,1065.1875 Q1111.6719,1065.1875 1112.3125,1065.3594 Q1112.9688,1065.5156 1113.5156,1065.875 Z " fill="#000000"/><text fill="#000000" font-family="sans-serif" font-size="14" lengthAdjust="spacing" textLength="95" x="1131.25" y="1075.7969">Announcement</text><line style="stroke:#181818;stroke-width:0.5;" x1="1000.5" x2="1324.5" y1="1086" y2="1086"/><text fill="#000000" font-family="sans-serif" font-size="14" lengthAdjust="spacing" textLength="144" x="1005.5" y="1105.1074">-String publicationDate</text><text fill="#000000" font-family="sans-serif" font-size="14" lengthAdjust="spacing" textLength="112" x="1005.5" y="1123.7285">-Location location</text><text fill="#000000" font-family="sans-serif" font-size="14" lengthAdjust="spacing" textLength="68" x="1005.5" y="1142.3496">-Land land</text><text fill="#000000" font-family="sans-serif" font-size="14" lengthAdjust="spacing" textLength="138" x="1005.5" y="1160.9707">-Apartment apartment</text><text fill="#000000" font-family="sans-serif" font-size="14" lengthAdjust="spacing" textLength="88" x="1005.5" y="1179.5918">-House house</text><text fill="#000000" font-family="sans-serif" font-size="14" lengthAdjust="spacing" textLength="158" x="1005.5" y="1198.2129">-Commission commission</text><text fill="#000000" font-family="sans-serif" font-size="14" lengthAdjust="spacing" textLength="169" x="1005.5" y="1216.834">-SaleRequest saleRequest</text><text fill="#000000" font-family="sans-serif" font-size="14" lengthAdjust="spacing" textLength="170" x="1005.5" y="1235.4551">-RentRequest rentRequest</text><text fill="#000000" font-family="sans-serif" font-size="14" lengthAdjust="spacing" textLength="232" x="1005.5" y="1254.0762">-PropertyCategory propertyCategory</text><text fill="#000000" font-family="sans-serif" font-size="14" lengthAdjust="spacing" textLength="314" x="1005.5" y="1272.6973">-AnnouncementCategory announcementCategory</text><text fill="#000000" font-family="sans-serif" font-size="14" lengthAdjust="spacing" textLength="82" x="1005.5" y="1291.3184">-Agent agent</text><line style="stroke:#181818;stroke-width:0.5;" x1="1000.5" x2="1324.5" y1="1298.832" y2="1298.832"/><text fill="#000000" font-family="sans-serif" font-size="14" lengthAdjust="spacing" textLength="113" x="1005.5" y="1317.9395">+Announcement()</text></g><!--class Agency--><g id="elem_Agency"><rect codeLine="61" fill="#F1F1F1" height="383.1797" id="Agency" rx="2.5" ry="2.5" style="stroke:#181818;stroke-width:0.5;" width="265" x="1392" y="592"/><ellipse cx="1496.75" cy="608" fill="#ADD1B2" rx="11" ry="11" style="stroke:#181818;stroke-width:1.0;"/><path d="M1499.5156,603.875 Q1499.6719,603.6563 1499.8594,603.5469 Q1500.0469,603.4375 1500.2656,603.4375 Q1500.6406,603.4375 1500.875,603.7031 Q1501.1094,603.9531 1501.1094,604.5625 L1501.1094,606.0156 Q1501.1094,606.625 1500.875,606.8906 Q1500.6406,607.1563 1500.2656,607.1563 Q1499.9219,607.1563 1499.7188,606.9531 Q1499.5156,606.7656 1499.4063,606.25 Q1499.3594,605.8906 1499.1719,605.7031 Q1498.8438,605.3281 1498.2344,605.1094 Q1497.625,604.8906 1497,604.8906 Q1496.2344,604.8906 1495.5938,605.2188 Q1494.9688,605.5469 1494.4688,606.2969 Q1493.9844,607.0469 1493.9844,608.0781 L1493.9844,609.1719 Q1493.9844,610.4063 1494.875,611.2344 Q1495.7656,612.0469 1497.3594,612.0469 Q1498.2969,612.0469 1498.9531,611.7969 Q1499.3438,611.6406 1499.7656,611.2031 Q1500.0313,610.9375 1500.1719,610.8594 Q1500.3281,610.7813 1500.5313,610.7813 Q1500.8594,610.7813 1501.1094,611.0469 Q1501.375,611.2969 1501.375,611.6406 Q1501.375,611.9844 1501.0313,612.3906 Q1500.5313,612.9688 1499.7344,613.2969 Q1498.6563,613.75 1497.3594,613.75 Q1495.8438,613.75 1494.6406,613.125 Q1493.6563,612.625 1492.9688,611.5625 Q1492.2813,610.4844 1492.2813,609.2031 L1492.2813,608.0469 Q1492.2813,606.7188 1492.8906,605.5781 Q1493.5156,604.4219 1494.6094,603.8125 Q1495.7031,603.1875 1496.9375,603.1875 Q1497.6719,603.1875 1498.3125,603.3594 Q1498.9688,603.5156 1499.5156,603.875 Z " fill="#000000"/><text fill="#000000" font-family="sans-serif" font-size="14" lengthAdjust="spacing" textLength="47" x="1517.25" y="613.7969">Agency</text><line style="stroke:#181818;stroke-width:0.5;" x1="1393" x2="1656" y1="624" y2="624"/><text fill="#000000" font-family="sans-serif" font-size="14" lengthAdjust="spacing" textLength="57" x="1398" y="643.1074">-String id</text><text fill="#000000" font-family="sans-serif" font-size="14" lengthAdjust="spacing" textLength="243" x="1398" y="661.7285">-List&lt;Announcement&gt; announcements</text><text fill="#000000" font-family="sans-serif" font-size="14" lengthAdjust="spacing" textLength="127" x="1398" y="680.3496">-List&lt;Agent&gt; agents</text><text fill="#000000" font-family="sans-serif" font-size="14" lengthAdjust="spacing" textLength="79" x="1398" y="698.9707">-String email</text><text fill="#000000" font-family="sans-serif" font-size="14" lengthAdjust="spacing" textLength="135" x="1398" y="717.5918">-String phoneNumber</text><text fill="#000000" font-family="sans-serif" font-size="14" lengthAdjust="spacing" textLength="114" x="1398" y="736.2129">-Location address</text><line style="stroke:#181818;stroke-width:0.5;" x1="1393" x2="1656" y1="743.7266" y2="743.7266"/><text fill="#000000" font-family="sans-serif" font-size="14" lengthAdjust="spacing" textLength="228" x="1398" y="762.834">-addAnnouncement(announcement)</text><text fill="#000000" font-family="sans-serif" font-size="14" lengthAdjust="spacing" textLength="253" x="1398" y="781.4551">-validateAnnouncement(announcement)</text><text fill="#000000" font-family="sans-serif" font-size="14" lengthAdjust="spacing" textLength="103" x="1398" y="800.0762">-employs(agent)</text><text fill="#000000" font-family="sans-serif" font-size="14" lengthAdjust="spacing" textLength="65" x="1398" y="818.6973">+Agency()</text><text fill="#000000" font-family="sans-serif" font-size="14" lengthAdjust="spacing" textLength="218" x="1398" y="837.3184">+publishLandSaleAnnouncement()</text><text fill="#000000" font-family="sans-serif" font-size="14" lengthAdjust="spacing" textLength="220" x="1398" y="855.9395">+publishLandRentAnnouncement()</text><text fill="#000000" font-family="sans-serif" font-size="14" lengthAdjust="spacing" textLength="251" x="1398" y="874.5605">+publishApartmentSaleAnnouncement()</text><text fill="#000000" font-family="sans-serif" font-size="14" lengthAdjust="spacing" textLength="253" x="1398" y="893.1816">+publishApartmentRentAnnouncement()</text><text fill="#000000" font-family="sans-serif" font-size="14" lengthAdjust="spacing" textLength="226" x="1398" y="911.8027">+publishHouseSaleAnnouncement()</text><text fill="#000000" font-family="sans-serif" font-size="14" lengthAdjust="spacing" textLength="228" x="1398" y="930.4238">+publishHouseRentAnnouncement()</text><text fill="#000000" font-family="sans-serif" font-size="14" lengthAdjust="spacing" textLength="159" x="1398" y="949.0449">-validateAnnouncement()</text><text fill="#000000" font-family="sans-serif" font-size="14" lengthAdjust="spacing" textLength="101" x="1398" y="967.666">-validateAgent()</text></g><!--class PublishAnnouncementUI--><g id="elem_PublishAnnouncementUI"><rect codeLine="84" fill="#F1F1F1" height="48" id="PublishAnnouncementUI" rx="2.5" ry="2.5" style="stroke:#181818;stroke-width:0.5;" width="185" x="7" y="160.5"/><ellipse cx="22" cy="176.5" fill="#ADD1B2" rx="11" ry="11" style="stroke:#181818;stroke-width:1.0;"/><path d="M24.7656,172.375 Q24.9219,172.1563 25.1094,172.0469 Q25.2969,171.9375 25.5156,171.9375 Q25.8906,171.9375 26.125,172.2031 Q26.3594,172.4531 26.3594,173.0625 L26.3594,174.5156 Q26.3594,175.125 26.125,175.3906 Q25.8906,175.6563 25.5156,175.6563 Q25.1719,175.6563 24.9688,175.4531 Q24.7656,175.2656 24.6563,174.75 Q24.6094,174.3906 24.4219,174.2031 Q24.0938,173.8281 23.4844,173.6094 Q22.875,173.3906 22.25,173.3906 Q21.4844,173.3906 20.8438,173.7188 Q20.2188,174.0469 19.7188,174.7969 Q19.2344,175.5469 19.2344,176.5781 L19.2344,177.6719 Q19.2344,178.9063 20.125,179.7344 Q21.0156,180.5469 22.6094,180.5469 Q23.5469,180.5469 24.2031,180.2969 Q24.5938,180.1406 25.0156,179.7031 Q25.2813,179.4375 25.4219,179.3594 Q25.5781,179.2813 25.7813,179.2813 Q26.1094,179.2813 26.3594,179.5469 Q26.625,179.7969 26.625,180.1406 Q26.625,180.4844 26.2813,180.8906 Q25.7813,181.4688 24.9844,181.7969 Q23.9063,182.25 22.6094,182.25 Q21.0938,182.25 19.8906,181.625 Q18.9063,181.125 18.2188,180.0625 Q17.5313,178.9844 17.5313,177.7031 L17.5313,176.5469 Q17.5313,175.2188 18.1406,174.0781 Q18.7656,172.9219 19.8594,172.3125 Q20.9531,171.6875 22.1875,171.6875 Q22.9219,171.6875 23.5625,171.8594 Q24.2188,172.0156 24.7656,172.375 Z " fill="#000000"/><text fill="#000000" font-family="sans-serif" font-size="14" lengthAdjust="spacing" textLength="153" x="36" y="182.2969">PublishAnnouncementUI</text><line style="stroke:#181818;stroke-width:0.5;" x1="8" x2="191" y1="192.5" y2="192.5"/><line style="stroke:#181818;stroke-width:0.5;" x1="8" x2="191" y1="200.5" y2="200.5"/></g><!--class PublishAnnouncementController--><g id="elem_PublishAnnouncementController"><rect codeLine="89" fill="#F1F1F1" height="327.3164" id="PublishAnnouncementController" rx="2.5" ry="2.5" style="stroke:#181818;stroke-width:0.5;" width="765" x="227" y="21"/><ellipse cx="503.75" cy="37" fill="#ADD1B2" rx="11" ry="11" style="stroke:#181818;stroke-width:1.0;"/><path d="M506.5156,32.875 Q506.6719,32.6563 506.8594,32.5469 Q507.0469,32.4375 507.2656,32.4375 Q507.6406,32.4375 507.875,32.7031 Q508.1094,32.9531 508.1094,33.5625 L508.1094,35.0156 Q508.1094,35.625 507.875,35.8906 Q507.6406,36.1563 507.2656,36.1563 Q506.9219,36.1563 506.7188,35.9531 Q506.5156,35.7656 506.4063,35.25 Q506.3594,34.8906 506.1719,34.7031 Q505.8438,34.3281 505.2344,34.1094 Q504.625,33.8906 504,33.8906 Q503.2344,33.8906 502.5938,34.2188 Q501.9688,34.5469 501.4688,35.2969 Q500.9844,36.0469 500.9844,37.0781 L500.9844,38.1719 Q500.9844,39.4063 501.875,40.2344 Q502.7656,41.0469 504.3594,41.0469 Q505.2969,41.0469 505.9531,40.7969 Q506.3438,40.6406 506.7656,40.2031 Q507.0313,39.9375 507.1719,39.8594 Q507.3281,39.7813 507.5313,39.7813 Q507.8594,39.7813 508.1094,40.0469 Q508.375,40.2969 508.375,40.6406 Q508.375,40.9844 508.0313,41.3906 Q507.5313,41.9688 506.7344,42.2969 Q505.6563,42.75 504.3594,42.75 Q502.8438,42.75 501.6406,42.125 Q500.6563,41.625 499.9688,40.5625 Q499.2813,39.4844 499.2813,38.2031 L499.2813,37.0469 Q499.2813,35.7188 499.8906,34.5781 Q500.5156,33.4219 501.6094,32.8125 Q502.7031,32.1875 503.9375,32.1875 Q504.6719,32.1875 505.3125,32.3594 Q505.9688,32.5156 506.5156,32.875 Z " fill="#000000"/><text fill="#000000" font-family="sans-serif" font-size="14" lengthAdjust="spacing" textLength="203" x="524.25" y="42.7969">PublishAnnouncementController</text><line style="stroke:#181818;stroke-width:0.5;" x1="228" x2="991" y1="53" y2="53"/><line style="stroke:#181818;stroke-width:0.5;" x1="228" x2="991" y1="61" y2="61"/><text fill="#000000" font-family="sans-serif" font-size="14" lengthAdjust="spacing" textLength="753" x="233" y="80.1074">+PublishAnnouncementController(AnnouncementCategoryRepository, PropertyCategoryRepository, AgencyRepository)</text><text fill="#000000" font-family="sans-serif" font-size="14" lengthAdjust="spacing" textLength="218" x="233" y="98.7285">+publishLandSaleAnnouncement()</text><text fill="#000000" font-family="sans-serif" font-size="14" lengthAdjust="spacing" textLength="220" x="233" y="117.3496">+publishLandRentAnnouncement()</text><text fill="#000000" font-family="sans-serif" font-size="14" lengthAdjust="spacing" textLength="251" x="233" y="135.9707">+publishApartmentSaleAnnouncement()</text><text fill="#000000" font-family="sans-serif" font-size="14" lengthAdjust="spacing" textLength="253" x="233" y="154.5918">+publishApartmentRentAnnouncement()</text><text fill="#000000" font-family="sans-serif" font-size="14" lengthAdjust="spacing" textLength="226" x="233" y="173.2129">+publishHouseSaleAnnouncement()</text><text fill="#000000" font-family="sans-serif" font-size="14" lengthAdjust="spacing" textLength="228" x="233" y="191.834">+publishHouseRentAnnouncement()</text><text fill="#000000" font-family="sans-serif" font-size="14" lengthAdjust="spacing" textLength="150" x="233" y="210.4551">-getAgencyRepository()</text><text fill="#000000" font-family="sans-serif" font-size="14" lengthAdjust="spacing" textLength="215" x="233" y="229.0762">-getPropertyCategoryRepository()</text><text fill="#000000" font-family="sans-serif" font-size="14" lengthAdjust="spacing" textLength="256" x="233" y="247.6973">-getAnnouncementCategoryRepository()</text><text fill="#000000" font-family="sans-serif" font-size="14" lengthAdjust="spacing" textLength="193" x="233" y="266.3184">-getAuthenticationRepository()</text><text fill="#000000" font-family="sans-serif" font-size="14" lengthAdjust="spacing" textLength="498" x="233" y="284.9395">-getAnnouncementCategoryByDescription(announcementCategoryDescription)</text><text fill="#000000" font-family="sans-serif" font-size="14" lengthAdjust="spacing" textLength="416" x="233" y="303.5605">-getPropertyCategoryByDescription(propertyCategoryDescription)</text><text fill="#000000" font-family="sans-serif" font-size="14" lengthAdjust="spacing" textLength="286" x="233" y="322.1816">-getAgencyByDescription(agencyDescription)</text><text fill="#000000" font-family="sans-serif" font-size="14" lengthAdjust="spacing" textLength="155" x="233" y="340.8027">-getAgentFromSession()</text></g><!--class Repositories--><g id="elem_Repositories"><rect codeLine="107" fill="#F1F1F1" height="141.1055" id="Repositories" rx="2.5" ry="2.5" style="stroke:#181818;stroke-width:0.5;" width="271" x="1096" y="114"/><ellipse cx="1187.75" cy="130" fill="#ADD1B2" rx="11" ry="11" style="stroke:#181818;stroke-width:1.0;"/><path d="M1190.5156,125.875 Q1190.6719,125.6563 1190.8594,125.5469 Q1191.0469,125.4375 1191.2656,125.4375 Q1191.6406,125.4375 1191.875,125.7031 Q1192.1094,125.9531 1192.1094,126.5625 L1192.1094,128.0156 Q1192.1094,128.625 1191.875,128.8906 Q1191.6406,129.1563 1191.2656,129.1563 Q1190.9219,129.1563 1190.7188,128.9531 Q1190.5156,128.7656 1190.4063,128.25 Q1190.3594,127.8906 1190.1719,127.7031 Q1189.8438,127.3281 1189.2344,127.1094 Q1188.625,126.8906 1188,126.8906 Q1187.2344,126.8906 1186.5938,127.2188 Q1185.9688,127.5469 1185.4688,128.2969 Q1184.9844,129.0469 1184.9844,130.0781 L1184.9844,131.1719 Q1184.9844,132.4063 1185.875,133.2344 Q1186.7656,134.0469 1188.3594,134.0469 Q1189.2969,134.0469 1189.9531,133.7969 Q1190.3438,133.6406 1190.7656,133.2031 Q1191.0313,132.9375 1191.1719,132.8594 Q1191.3281,132.7813 1191.5313,132.7813 Q1191.8594,132.7813 1192.1094,133.0469 Q1192.375,133.2969 1192.375,133.6406 Q1192.375,133.9844 1192.0313,134.3906 Q1191.5313,134.9688 1190.7344,135.2969 Q1189.6563,135.75 1188.3594,135.75 Q1186.8438,135.75 1185.6406,135.125 Q1184.6563,134.625 1183.9688,133.5625 Q1183.2813,132.4844 1183.2813,131.2031 L1183.2813,130.0469 Q1183.2813,128.7188 1183.8906,127.5781 Q1184.5156,126.4219 1185.6094,125.8125 Q1186.7031,125.1875 1187.9375,125.1875 Q1188.6719,125.1875 1189.3125,125.3594 Q1189.9688,125.5156 1190.5156,125.875 Z " fill="#000000"/><text fill="#000000" font-family="sans-serif" font-size="14" lengthAdjust="spacing" textLength="79" x="1208.25" y="135.7969">Repositories</text><line style="stroke:#181818;stroke-width:0.5;" x1="1097" x2="1366" y1="146" y2="146"/><line style="stroke:#181818;stroke-width:0.5;" x1="1097" x2="1366" y1="154" y2="154"/><text fill="#000000" font-family="sans-serif" font-size="14" lengthAdjust="spacing" textLength="94" x="1102" y="173.1074">-Repositories()</text><text fill="#000000" font-family="sans-serif" font-size="14" lengthAdjust="spacing" textLength="182" x="1102" y="191.7285">+getInstance() : Repositories</text><text fill="#000000" font-family="sans-serif" font-size="14" lengthAdjust="spacing" textLength="259" x="1102" y="210.3496">+getAnnouncementCategoryRepository()</text><text fill="#000000" font-family="sans-serif" font-size="14" lengthAdjust="spacing" textLength="218" x="1102" y="228.9707">+getPropertyCategoryRepository()</text><text fill="#000000" font-family="sans-serif" font-size="14" lengthAdjust="spacing" textLength="153" x="1102" y="247.5918">+getAgencyRepository()</text></g><!--class AgencyRepository--><g id="elem_AgencyRepository"><rect codeLine="115" fill="#F1F1F1" height="66.6211" id="AgencyRepository" rx="2.5" ry="2.5" style="stroke:#181818;stroke-width:0.5;" width="188" x="1431.5" y="436.5"/><ellipse cx="1464.95" cy="452.5" fill="#ADD1B2" rx="11" ry="11" style="stroke:#181818;stroke-width:1.0;"/><path d="M1467.7156,448.375 Q1467.8719,448.1563 1468.0594,448.0469 Q1468.2469,447.9375 1468.4656,447.9375 Q1468.8406,447.9375 1469.075,448.2031 Q1469.3094,448.4531 1469.3094,449.0625 L1469.3094,450.5156 Q1469.3094,451.125 1469.075,451.3906 Q1468.8406,451.6563 1468.4656,451.6563 Q1468.1219,451.6563 1467.9188,451.4531 Q1467.7156,451.2656 1467.6063,450.75 Q1467.5594,450.3906 1467.3719,450.2031 Q1467.0438,449.8281 1466.4344,449.6094 Q1465.825,449.3906 1465.2,449.3906 Q1464.4344,449.3906 1463.7938,449.7188 Q1463.1688,450.0469 1462.6688,450.7969 Q1462.1844,451.5469 1462.1844,452.5781 L1462.1844,453.6719 Q1462.1844,454.9063 1463.075,455.7344 Q1463.9656,456.5469 1465.5594,456.5469 Q1466.4969,456.5469 1467.1531,456.2969 Q1467.5438,456.1406 1467.9656,455.7031 Q1468.2313,455.4375 1468.3719,455.3594 Q1468.5281,455.2813 1468.7313,455.2813 Q1469.0594,455.2813 1469.3094,455.5469 Q1469.575,455.7969 1469.575,456.1406 Q1469.575,456.4844 1469.2313,456.8906 Q1468.7313,457.4688 1467.9344,457.7969 Q1466.8563,458.25 1465.5594,458.25 Q1464.0438,458.25 1462.8406,457.625 Q1461.8563,457.125 1461.1688,456.0625 Q1460.4813,454.9844 1460.4813,453.7031 L1460.4813,452.5469 Q1460.4813,451.2188 1461.0906,450.0781 Q1461.7156,448.9219 1462.8094,448.3125 Q1463.9031,447.6875 1465.1375,447.6875 Q1465.8719,447.6875 1466.5125,447.8594 Q1467.1688,448.0156 1467.7156,448.375 Z " fill="#000000"/><text fill="#000000" font-family="sans-serif" font-size="14" lengthAdjust="spacing" textLength="115" x="1483.05" y="458.2969">AgencyRepository</text><line style="stroke:#181818;stroke-width:0.5;" x1="1432.5" x2="1618.5" y1="468.5" y2="468.5"/><line style="stroke:#181818;stroke-width:0.5;" x1="1432.5" x2="1618.5" y1="476.5" y2="476.5"/><text fill="#000000" font-family="sans-serif" font-size="14" lengthAdjust="spacing" textLength="176" x="1437.5" y="495.6074">+getAgencyByDesignation()</text></g><!--class PropertyCategoryRepository--><g id="elem_PropertyCategoryRepository"><rect codeLine="119" fill="#F1F1F1" height="122.4844" id="PropertyCategoryRepository" rx="2.5" ry="2.5" style="stroke:#181818;stroke-width:0.5;" width="249" x="849" y="409"/><ellipse cx="880.65" cy="425" fill="#ADD1B2" rx="11" ry="11" style="stroke:#181818;stroke-width:1.0;"/><path d="M883.4156,420.875 Q883.5719,420.6563 883.7594,420.5469 Q883.9469,420.4375 884.1656,420.4375 Q884.5406,420.4375 884.775,420.7031 Q885.0094,420.9531 885.0094,421.5625 L885.0094,423.0156 Q885.0094,423.625 884.775,423.8906 Q884.5406,424.1563 884.1656,424.1563 Q883.8219,424.1563 883.6188,423.9531 Q883.4156,423.7656 883.3063,423.25 Q883.2594,422.8906 883.0719,422.7031 Q882.7438,422.3281 882.1344,422.1094 Q881.525,421.8906 880.9,421.8906 Q880.1344,421.8906 879.4938,422.2188 Q878.8688,422.5469 878.3688,423.2969 Q877.8844,424.0469 877.8844,425.0781 L877.8844,426.1719 Q877.8844,427.4063 878.775,428.2344 Q879.6656,429.0469 881.2594,429.0469 Q882.1969,429.0469 882.8531,428.7969 Q883.2438,428.6406 883.6656,428.2031 Q883.9313,427.9375 884.0719,427.8594 Q884.2281,427.7813 884.4313,427.7813 Q884.7594,427.7813 885.0094,428.0469 Q885.275,428.2969 885.275,428.6406 Q885.275,428.9844 884.9313,429.3906 Q884.4313,429.9688 883.6344,430.2969 Q882.5563,430.75 881.2594,430.75 Q879.7438,430.75 878.5406,430.125 Q877.5563,429.625 876.8688,428.5625 Q876.1813,427.4844 876.1813,426.2031 L876.1813,425.0469 Q876.1813,423.7188 876.7906,422.5781 Q877.4156,421.4219 878.5094,420.8125 Q879.6031,420.1875 880.8375,420.1875 Q881.5719,420.1875 882.2125,420.3594 Q882.8688,420.5156 883.4156,420.875 Z " fill="#000000"/><text fill="#000000" font-family="sans-serif" font-size="14" lengthAdjust="spacing" textLength="180" x="898.35" y="430.7969">PropertyCategoryRepository</text><line style="stroke:#181818;stroke-width:0.5;" x1="850" x2="1097" y1="441" y2="441"/><line style="stroke:#181818;stroke-width:0.5;" x1="850" x2="1097" y1="449" y2="449"/><text fill="#000000" font-family="sans-serif" font-size="14" lengthAdjust="spacing" textLength="237" x="855" y="468.1074">+getPropertyCategoryByDescription()</text><text fill="#000000" font-family="sans-serif" font-size="14" lengthAdjust="spacing" textLength="39" x="855" y="486.7285">-add()</text><text fill="#000000" font-family="sans-serif" font-size="14" lengthAdjust="spacing" textLength="176" x="855" y="505.3496">-validatePropertyCategory()</text><text fill="#000000" font-family="sans-serif" font-size="14" lengthAdjust="spacing" textLength="169" x="855" y="523.9707">-getPropertyCategoryList()</text></g><!--class AnnouncementCategoryRepository--><g id="elem_AnnouncementCategoryRepository"><rect codeLine="126" fill="#F1F1F1" height="122.4844" id="AnnouncementCategoryRepository" rx="2.5" ry="2.5" style="stroke:#181818;stroke-width:0.5;" width="513" x="301" y="409"/><ellipse cx="442.75" cy="425" fill="#ADD1B2" rx="11" ry="11" style="stroke:#181818;stroke-width:1.0;"/><path d="M445.5156,420.875 Q445.6719,420.6563 445.8594,420.5469 Q446.0469,420.4375 446.2656,420.4375 Q446.6406,420.4375 446.875,420.7031 Q447.1094,420.9531 447.1094,421.5625 L447.1094,423.0156 Q447.1094,423.625 446.875,423.8906 Q446.6406,424.1563 446.2656,424.1563 Q445.9219,424.1563 445.7188,423.9531 Q445.5156,423.7656 445.4063,423.25 Q445.3594,422.8906 445.1719,422.7031 Q444.8438,422.3281 444.2344,422.1094 Q443.625,421.8906 443,421.8906 Q442.2344,421.8906 441.5938,422.2188 Q440.9688,422.5469 440.4688,423.2969 Q439.9844,424.0469 439.9844,425.0781 L439.9844,426.1719 Q439.9844,427.4063 440.875,428.2344 Q441.7656,429.0469 443.3594,429.0469 Q444.2969,429.0469 444.9531,428.7969 Q445.3438,428.6406 445.7656,428.2031 Q446.0313,427.9375 446.1719,427.8594 Q446.3281,427.7813 446.5313,427.7813 Q446.8594,427.7813 447.1094,428.0469 Q447.375,428.2969 447.375,428.6406 Q447.375,428.9844 447.0313,429.3906 Q446.5313,429.9688 445.7344,430.2969 Q444.6563,430.75 443.3594,430.75 Q441.8438,430.75 440.6406,430.125 Q439.6563,429.625 438.9688,428.5625 Q438.2813,427.4844 438.2813,426.2031 L438.2813,425.0469 Q438.2813,423.7188 438.8906,422.5781 Q439.5156,421.4219 440.6094,420.8125 Q441.7031,420.1875 442.9375,420.1875 Q443.6719,420.1875 444.3125,420.3594 Q444.9688,420.5156 445.5156,420.875 Z " fill="#000000"/><text fill="#000000" font-family="sans-serif" font-size="14" lengthAdjust="spacing" textLength="221" x="463.25" y="430.7969">AnnouncementCategoryRepository</text><line style="stroke:#181818;stroke-width:0.5;" x1="302" x2="813" y1="441" y2="441"/><line style="stroke:#181818;stroke-width:0.5;" x1="302" x2="813" y1="449" y2="449"/><text fill="#000000" font-family="sans-serif" font-size="14" lengthAdjust="spacing" textLength="501" x="307" y="468.1074">+getAnnouncementCategoryByDescription(announcementCategoryDescription)</text><text fill="#000000" font-family="sans-serif" font-size="14" lengthAdjust="spacing" textLength="39" x="307" y="486.7285">-add()</text><text fill="#000000" font-family="sans-serif" font-size="14" lengthAdjust="spacing" textLength="217" x="307" y="505.3496">-validateAnnouncementCategory()</text><text fill="#000000" font-family="sans-serif" font-size="14" lengthAdjust="spacing" textLength="210" x="307" y="523.9707">-getAnnouncementCategoryList()</text></g><!--class PropertyCategory--><g id="elem_PropertyCategory"><rect codeLine="134" fill="#F1F1F1" height="85.2422" id="PropertyCategory" rx="2.5" ry="2.5" style="stroke:#181818;stroke-width:0.5;" width="211" x="602" y="1423.5"/><ellipse cx="647.25" cy="1439.5" fill="#ADD1B2" rx="11" ry="11" style="stroke:#181818;stroke-width:1.0;"/><path d="M650.0156,1435.375 Q650.1719,1435.1563 650.3594,1435.0469 Q650.5469,1434.9375 650.7656,1434.9375 Q651.1406,1434.9375 651.375,1435.2031 Q651.6094,1435.4531 651.6094,1436.0625 L651.6094,1437.5156 Q651.6094,1438.125 651.375,1438.3906 Q651.1406,1438.6563 650.7656,1438.6563 Q650.4219,1438.6563 650.2188,1438.4531 Q650.0156,1438.2656 649.9063,1437.75 Q649.8594,1437.3906 649.6719,1437.2031 Q649.3438,1436.8281 648.7344,1436.6094 Q648.125,1436.3906 647.5,1436.3906 Q646.7344,1436.3906 646.0938,1436.7188 Q645.4688,1437.0469 644.9688,1437.7969 Q644.4844,1438.5469 644.4844,1439.5781 L644.4844,1440.6719 Q644.4844,1441.9063 645.375,1442.7344 Q646.2656,1443.5469 647.8594,1443.5469 Q648.7969,1443.5469 649.4531,1443.2969 Q649.8438,1443.1406 650.2656,1442.7031 Q650.5313,1442.4375 650.6719,1442.3594 Q650.8281,1442.2813 651.0313,1442.2813 Q651.3594,1442.2813 651.6094,1442.5469 Q651.875,1442.7969 651.875,1443.1406 Q651.875,1443.4844 651.5313,1443.8906 Q651.0313,1444.4688 650.2344,1444.7969 Q649.1563,1445.25 647.8594,1445.25 Q646.3438,1445.25 645.1406,1444.625 Q644.1563,1444.125 643.4688,1443.0625 Q642.7813,1441.9844 642.7813,1440.7031 L642.7813,1439.5469 Q642.7813,1438.2188 643.3906,1437.0781 Q644.0156,1435.9219 645.1094,1435.3125 Q646.2031,1434.6875 647.4375,1434.6875 Q648.1719,1434.6875 648.8125,1434.8594 Q649.4688,1435.0156 650.0156,1435.375 Z " fill="#000000"/><text fill="#000000" font-family="sans-serif" font-size="14" lengthAdjust="spacing" textLength="112" x="667.75" y="1445.2969">PropertyCategory</text><line style="stroke:#181818;stroke-width:0.5;" x1="603" x2="812" y1="1455.5" y2="1455.5"/><text fill="#000000" font-family="sans-serif" font-size="14" lengthAdjust="spacing" textLength="115" x="608" y="1474.6074">-String description</text><line style="stroke:#181818;stroke-width:0.5;" x1="603" x2="812" y1="1482.1211" y2="1482.1211"/><text fill="#000000" font-family="sans-serif" font-size="14" lengthAdjust="spacing" textLength="199" x="608" y="1501.2285">+PropertyCategory(description)</text></g><!--class AnnouncementCategory--><g id="elem_AnnouncementCategory"><rect codeLine="140" fill="#F1F1F1" height="85.2422" id="AnnouncementCategory" rx="2.5" ry="2.5" style="stroke:#181818;stroke-width:0.5;" width="252" x="192.5" y="1423.5"/><ellipse cx="237.75" cy="1439.5" fill="#ADD1B2" rx="11" ry="11" style="stroke:#181818;stroke-width:1.0;"/><path d="M240.5156,1435.375 Q240.6719,1435.1563 240.8594,1435.0469 Q241.0469,1434.9375 241.2656,1434.9375 Q241.6406,1434.9375 241.875,1435.2031 Q242.1094,1435.4531 242.1094,1436.0625 L242.1094,1437.5156 Q242.1094,1438.125 241.875,1438.3906 Q241.6406,1438.6563 241.2656,1438.6563 Q240.9219,1438.6563 240.7188,1438.4531 Q240.5156,1438.2656 240.4063,1437.75 Q240.3594,1437.3906 240.1719,1437.2031 Q239.8438,1436.8281 239.2344,1436.6094 Q238.625,1436.3906 238,1436.3906 Q237.2344,1436.3906 236.5938,1436.7188 Q235.9688,1437.0469 235.4688,1437.7969 Q234.9844,1438.5469 234.9844,1439.5781 L234.9844,1440.6719 Q234.9844,1441.9063 235.875,1442.7344 Q236.7656,1443.5469 238.3594,1443.5469 Q239.2969,1443.5469 239.9531,1443.2969 Q240.3438,1443.1406 240.7656,1442.7031 Q241.0313,1442.4375 241.1719,1442.3594 Q241.3281,1442.2813 241.5313,1442.2813 Q241.8594,1442.2813 242.1094,1442.5469 Q242.375,1442.7969 242.375,1443.1406 Q242.375,1443.4844 242.0313,1443.8906 Q241.5313,1444.4688 240.7344,1444.7969 Q239.6563,1445.25 238.3594,1445.25 Q236.8438,1445.25 235.6406,1444.625 Q234.6563,1444.125 233.9688,1443.0625 Q233.2813,1441.9844 233.2813,1440.7031 L233.2813,1439.5469 Q233.2813,1438.2188 233.8906,1437.0781 Q234.5156,1435.9219 235.6094,1435.3125 Q236.7031,1434.6875 237.9375,1434.6875 Q238.6719,1434.6875 239.3125,1434.8594 Q239.9688,1435.0156 240.5156,1435.375 Z " fill="#000000"/><text fill="#000000" font-family="sans-serif" font-size="14" lengthAdjust="spacing" textLength="153" x="258.25" y="1445.2969">AnnouncementCategory</text><line style="stroke:#181818;stroke-width:0.5;" x1="193.5" x2="443.5" y1="1455.5" y2="1455.5"/><text fill="#000000" font-family="sans-serif" font-size="14" lengthAdjust="spacing" textLength="115" x="198.5" y="1474.6074">-String description</text><line style="stroke:#181818;stroke-width:0.5;" x1="193.5" x2="443.5" y1="1482.1211" y2="1482.1211"/><text fill="#000000" font-family="sans-serif" font-size="14" lengthAdjust="spacing" textLength="240" x="198.5" y="1501.2285">+AnnouncementCategory(description)</text></g><!--class SaleRequest--><g id="elem_SaleRequest"><rect codeLine="146" fill="#F1F1F1" height="66.6211" id="SaleRequest" rx="2.5" ry="2.5" style="stroke:#181818;stroke-width:0.5;" width="162" x="848.5" y="1432.5"/><ellipse cx="885.55" cy="1448.5" fill="#ADD1B2" rx="11" ry="11" style="stroke:#181818;stroke-width:1.0;"/><path d="M888.3156,1444.375 Q888.4719,1444.1563 888.6594,1444.0469 Q888.8469,1443.9375 889.0656,1443.9375 Q889.4406,1443.9375 889.675,1444.2031 Q889.9094,1444.4531 889.9094,1445.0625 L889.9094,1446.5156 Q889.9094,1447.125 889.675,1447.3906 Q889.4406,1447.6563 889.0656,1447.6563 Q888.7219,1447.6563 888.5188,1447.4531 Q888.3156,1447.2656 888.2063,1446.75 Q888.1594,1446.3906 887.9719,1446.2031 Q887.6438,1445.8281 887.0344,1445.6094 Q886.425,1445.3906 885.8,1445.3906 Q885.0344,1445.3906 884.3938,1445.7188 Q883.7688,1446.0469 883.2688,1446.7969 Q882.7844,1447.5469 882.7844,1448.5781 L882.7844,1449.6719 Q882.7844,1450.9063 883.675,1451.7344 Q884.5656,1452.5469 886.1594,1452.5469 Q887.0969,1452.5469 887.7531,1452.2969 Q888.1438,1452.1406 888.5656,1451.7031 Q888.8313,1451.4375 888.9719,1451.3594 Q889.1281,1451.2813 889.3313,1451.2813 Q889.6594,1451.2813 889.9094,1451.5469 Q890.175,1451.7969 890.175,1452.1406 Q890.175,1452.4844 889.8313,1452.8906 Q889.3313,1453.4688 888.5344,1453.7969 Q887.4563,1454.25 886.1594,1454.25 Q884.6438,1454.25 883.4406,1453.625 Q882.4563,1453.125 881.7688,1452.0625 Q881.0813,1450.9844 881.0813,1449.7031 L881.0813,1448.5469 Q881.0813,1447.2188 881.6906,1446.0781 Q882.3156,1444.9219 883.4094,1444.3125 Q884.5031,1443.6875 885.7375,1443.6875 Q886.4719,1443.6875 887.1125,1443.8594 Q887.7688,1444.0156 888.3156,1444.375 Z " fill="#000000"/><text fill="#000000" font-family="sans-serif" font-size="14" lengthAdjust="spacing" textLength="81" x="904.45" y="1454.2969">SaleRequest</text><line style="stroke:#181818;stroke-width:0.5;" x1="849.5" x2="1009.5" y1="1464.5" y2="1464.5"/><text fill="#000000" font-family="sans-serif" font-size="14" lengthAdjust="spacing" textLength="150" x="854.5" y="1483.6074">-Double requestedPrice</text><line style="stroke:#181818;stroke-width:0.5;" x1="849.5" x2="1009.5" y1="1491.1211" y2="1491.1211"/></g><!--class Photography--><g id="elem_Photography"><rect codeLine="150" fill="#F1F1F1" height="66.6211" id="Photography" rx="2.5" ry="2.5" style="stroke:#181818;stroke-width:0.5;" width="231" x="1046" y="1432.5"/><ellipse cx="1116.75" cy="1448.5" fill="#ADD1B2" rx="11" ry="11" style="stroke:#181818;stroke-width:1.0;"/><path d="M1119.5156,1444.375 Q1119.6719,1444.1563 1119.8594,1444.0469 Q1120.0469,1443.9375 1120.2656,1443.9375 Q1120.6406,1443.9375 1120.875,1444.2031 Q1121.1094,1444.4531 1121.1094,1445.0625 L1121.1094,1446.5156 Q1121.1094,1447.125 1120.875,1447.3906 Q1120.6406,1447.6563 1120.2656,1447.6563 Q1119.9219,1447.6563 1119.7188,1447.4531 Q1119.5156,1447.2656 1119.4063,1446.75 Q1119.3594,1446.3906 1119.1719,1446.2031 Q1118.8438,1445.8281 1118.2344,1445.6094 Q1117.625,1445.3906 1117,1445.3906 Q1116.2344,1445.3906 1115.5938,1445.7188 Q1114.9688,1446.0469 1114.4688,1446.7969 Q1113.9844,1447.5469 1113.9844,1448.5781 L1113.9844,1449.6719 Q1113.9844,1450.9063 1114.875,1451.7344 Q1115.7656,1452.5469 1117.3594,1452.5469 Q1118.2969,1452.5469 1118.9531,1452.2969 Q1119.3438,1452.1406 1119.7656,1451.7031 Q1120.0313,1451.4375 1120.1719,1451.3594 Q1120.3281,1451.2813 1120.5313,1451.2813 Q1120.8594,1451.2813 1121.1094,1451.5469 Q1121.375,1451.7969 1121.375,1452.1406 Q1121.375,1452.4844 1121.0313,1452.8906 Q1120.5313,1453.4688 1119.7344,1453.7969 Q1118.6563,1454.25 1117.3594,1454.25 Q1115.8438,1454.25 1114.6406,1453.625 Q1113.6563,1453.125 1112.9688,1452.0625 Q1112.2813,1450.9844 1112.2813,1449.7031 L1112.2813,1448.5469 Q1112.2813,1447.2188 1112.8906,1446.0781 Q1113.5156,1444.9219 1114.6094,1444.3125 Q1115.7031,1443.6875 1116.9375,1443.6875 Q1117.6719,1443.6875 1118.3125,1443.8594 Q1118.9688,1444.0156 1119.5156,1444.375 Z " fill="#000000"/><text fill="#000000" font-family="sans-serif" font-size="14" lengthAdjust="spacing" textLength="81" x="1137.25" y="1454.2969">Photography</text><line style="stroke:#181818;stroke-width:0.5;" x1="1047" x2="1276" y1="1464.5" y2="1464.5"/><text fill="#000000" font-family="sans-serif" font-size="14" lengthAdjust="spacing" textLength="219" x="1052" y="1483.6074">-List&lt;Photography&gt; photographies</text><line style="stroke:#181818;stroke-width:0.5;" x1="1047" x2="1276" y1="1491.1211" y2="1491.1211"/></g><g id="elem_GMN19"><path d="M1133,456.5 L1133,466 L1098.04,470 L1133,474 L1133,483.791 A0,0 0 0 0 1133,483.791 L1396,483.791 A0,0 0 0 0 1396,483.791 L1396,466.5 L1386,456.5 L1133,456.5 A0,0 0 0 0 1133,456.5 " fill="#FEFFDD" style="stroke:#181818;stroke-width:0.5;"/><path d="M1386,456.5 L1386,466.5 L1396,466.5 L1386,456.5 " fill="#FEFFDD" style="stroke:#181818;stroke-width:0.5;"/><text fill="#000000" font-family="sans-serif" font-size="13" lengthAdjust="spacing" textLength="242" x="1139" y="475.5283">- used for displaying property category list</text></g><g id="elem_GMN22"><path d="M407,770 L407,797.291 A0,0 0 0 0 407,797.291 L708,797.291 A0,0 0 0 0 708,797.291 L708,780 L698,770 L561.5,770 L557.5,531.06 L553.5,770 L407,770 A0,0 0 0 0 407,770 " fill="#FEFFDD" style="stroke:#181818;stroke-width:0.5;"/><path d="M698,770 L698,780 L708,780 L698,770 " fill="#FEFFDD" style="stroke:#181818;stroke-width:0.5;"/><text fill="#000000" font-family="sans-serif" font-size="13" lengthAdjust="spacing" textLength="280" x="413" y="789.0283">- used for displaying announcement category list</text></g><!--link PublishAnnouncementUI to PublishAnnouncementController--><g id="link_PublishAnnouncementUI_PublishAnnouncementController"><path codeLine="162" d="M192.46,184.5 C202.53,184.5 212.45,184.5 221.65,184.5 " fill="none" id="PublishAnnouncementUI-to-PublishAnnouncementController" style="stroke:#181818;stroke-width:1.0;stroke-dasharray:7.0,7.0;"/><polygon fill="#181818" points="226.68,184.5,217.68,180.5,221.68,184.5,217.68,188.5,226.68,184.5" style="stroke:#181818;stroke-width:1.0;"/></g><!--link PublishAnnouncementController to Repositories--><g id="link_PublishAnnouncementController_Repositories"><path codeLine="164" d="M992.35,184.5 C1027.03,184.5 1060.44,184.5 1090.74,184.5 " fill="none" id="PublishAnnouncementController-to-Repositories" style="stroke:#181818;stroke-width:1.0;stroke-dasharray:7.0,7.0;"/><polygon fill="#181818" points="1095.96,184.5,1086.96,180.5,1090.96,184.5,1086.96,188.5,1095.96,184.5" style="stroke:#181818;stroke-width:1.0;"/><text fill="#000000" font-family="sans-serif" font-size="13" lengthAdjust="spacing" textLength="67" x="1010.5" y="177.5283">repositories</text></g><!--link PublishAnnouncementController to PropertyCategoryRepository--><g id="link_PublishAnnouncementController_PropertyCategoryRepository"><path codeLine="165" d="M818.34,348.15 C844.48,368.51 869.86,388.28 892.26,405.73 " fill="none" id="PublishAnnouncementController-to-PropertyCategoryRepository" style="stroke:#181818;stroke-width:1.0;stroke-dasharray:7.0,7.0;"/><polygon fill="#181818" points="896.41,408.96,891.7681,400.2736,892.4655,405.8873,886.8519,406.5848,896.41,408.96" style="stroke:#181818;stroke-width:1.0;"/></g><!--link PublishAnnouncementController to AnnouncementCategoryRepository--><g id="link_PublishAnnouncementController_AnnouncementCategoryRepository"><path codeLine="166" d="M579.63,348.36 C576.06,367.82 572.59,386.73 569.5,403.6 " fill="none" id="PublishAnnouncementController-to-AnnouncementCategoryRepository" style="stroke:#181818;stroke-width:1.0;stroke-dasharray:7.0,7.0;"/><polygon fill="#181818" points="568.55,408.76,574.1059,400.6278,569.4507,403.8418,566.2367,399.1867,568.55,408.76" style="stroke:#181818;stroke-width:1.0;"/></g><!--link PublishAnnouncementController to AgencyRepository--><g id="link_PublishAnnouncementController_AgencyRepository"><path codeLine="167" d="M992.21,318.1 C1043.31,335.81 1078.5,348 1078.5,348 C1078.5,348 1413.5,409 1413.5,409 C1413.5,409 1435.49,420.78 1459.99,433.9 " fill="none" id="PublishAnnouncementController-to-AgencyRepository" style="stroke:#181818;stroke-width:1.0;stroke-dasharray:7.0,7.0;"/><polygon fill="#181818" points="1464.58,436.37,1458.5251,428.6022,1460.1694,434.0148,1454.7568,435.6592,1464.58,436.37" style="stroke:#181818;stroke-width:1.0;"/></g><!--link PublishAnnouncementController to AnnouncementCategory--><g id="link_PublishAnnouncementController_AnnouncementCategory"><path codeLine="168" d="M340.12,348.22 C282.97,382.74 239.5,409 239.5,409 C239.5,409 176.5,469 176.5,469 C176.5,469 176.5,469 176.5,1190.5 C176.5,1190.5 254.09,1340.48 294.56,1418.72 " fill="none" id="PublishAnnouncementController-to-AnnouncementCategory" style="stroke:#181818;stroke-width:1.0;stroke-dasharray:7.0,7.0;"/><polygon fill="#181818" points="296.93,1423.31,296.3446,1413.4786,294.6313,1418.8697,289.2402,1417.1564,296.93,1423.31" style="stroke:#181818;stroke-width:1.0;"/></g><!--link PublishAnnouncementController to PropertyCategory--><g id="link_PublishAnnouncementController_PropertyCategory"><path codeLine="169" d="M372.15,348.22 C321.8,382.74 283.5,409 283.5,409 C283.5,409 247.5,469 247.5,469 C247.5,469 247.5,469 247.5,1015.5 C247.5,1015.5 543.97,1305.2 660.89,1419.46 " fill="none" id="PublishAnnouncementController-to-PropertyCategory" style="stroke:#181818;stroke-width:1.0;stroke-dasharray:7.0,7.0;"/><polygon fill="#181818" points="664.64,1423.12,660.9931,1413.9712,661.0618,1419.6277,655.4054,1419.6964,664.64,1423.12" style="stroke:#181818;stroke-width:1.0;"/></g><!--link PublishAnnouncementController to ApplicationSession--><g id="link_PublishAnnouncementController_ApplicationSession"><path codeLine="170" d="M992.23,44.07 C1052.84,21.84 1096,6 1096,6 C1096,6 1367,6 1367,6 C1367,6 1480.55,85.96 1555.66,138.84 " fill="none" id="PublishAnnouncementController-to-ApplicationSession" style="stroke:#181818;stroke-width:1.0;stroke-dasharray:7.0,7.0;"/><polygon fill="#181818" points="1560.1,141.97,1555.0366,133.5224,1556.0092,139.095,1550.4366,140.0676,1560.1,141.97" style="stroke:#181818;stroke-width:1.0;"/></g><!--link PublishAnnouncementController to UserSession--><g id="link_PublishAnnouncementController_UserSession"><path codeLine="171" d="M992.21,318.1 C1043.31,335.81 1078.5,348 1078.5,348 C1078.5,348 1637.5,409 1637.5,409 C1637.5,409 1651.32,420.2 1667.01,432.93 " fill="none" id="PublishAnnouncementController-to-UserSession" style="stroke:#181818;stroke-width:1.0;stroke-dasharray:7.0,7.0;"/><polygon fill="#181818" points="1671.04,436.19,1666.5579,427.4201,1667.1524,433.0457,1661.5269,433.6402,1671.04,436.19" style="stroke:#181818;stroke-width:1.0;"/></g><!--link Repositories to PropertyCategoryRepository--><g id="link_Repositories_PropertyCategoryRepository"><path codeLine="173" d="M1168.06,255.21 C1126.41,300.98 1072.34,360.39 1031.77,404.97 " fill="none" id="Repositories-to-PropertyCategoryRepository" style="stroke:#181818;stroke-width:1.0;"/><polygon fill="#181818" points="1028.39,408.69,1037.4084,404.7316,1031.7576,404.9942,1031.4951,399.3434,1028.39,408.69" style="stroke:#181818;stroke-width:1.0;"/><text fill="#000000" font-family="sans-serif" font-size="13" lengthAdjust="spacing" textLength="7" x="1027.332" y="397.6354">1</text></g><!--link Repositories to AnnouncementCategoryRepository--><g id="link_Repositories_AnnouncementCategoryRepository"><path codeLine="174" d="M1136.39,255.12 C1076.13,299.23 1009.5,348 1009.5,348 C1009.5,348 898.71,377.66 786.83,407.61 " fill="none" id="Repositories-to-AnnouncementCategoryRepository" style="stroke:#181818;stroke-width:1.0;"/><polygon fill="#181818" points="781.84,408.94,791.5704,410.4627,786.6681,407.6401,789.4906,402.7378,781.84,408.94" style="stroke:#181818;stroke-width:1.0;"/><text fill="#000000" font-family="sans-serif" font-size="13" lengthAdjust="spacing" textLength="7" x="800.3746" y="397.9143">1</text></g><!--link Repositories to AgencyRepository--><g id="link_Repositories_AgencyRepository"><path codeLine="175" d="M1303.8,255.21 C1362.01,311.35 1441.5,388 1487.79,432.64 " fill="none" id="Repositories-to-AgencyRepository" style="stroke:#181818;stroke-width:1.0;"/><polygon fill="#181818" points="1491.61,436.32,1487.9079,427.1934,1488.0108,432.8493,1482.3549,432.9522,1491.61,436.32" style="stroke:#181818;stroke-width:1.0;"/><text fill="#000000" font-family="sans-serif" font-size="13" lengthAdjust="spacing" textLength="7" x="1477.2488" y="425.1101">1</text></g><!--link PropertyCategoryRepository to PropertyCategory--><g id="link_PropertyCategoryRepository_PropertyCategory"><path codeLine="177" d="M957.36,531.31 C908.62,713.46 763.58,1255.42 720.01,1418.24 " fill="none" id="PropertyCategoryRepository-to-PropertyCategory" style="stroke:#181818;stroke-width:1.0;"/><polygon fill="#181818" points="718.63,1423.4,724.8322,1415.7494,719.9299,1418.5719,717.1073,1413.6696,718.63,1423.4" style="stroke:#181818;stroke-width:1.0;"/><text fill="#000000" font-family="sans-serif" font-size="13" lengthAdjust="spacing" textLength="7" x="948.0891" y="553.3989">1</text><text fill="#000000" font-family="sans-serif" font-size="13" lengthAdjust="spacing" textLength="7" x="712.846" y="1412.2881">3</text></g><!--link AnnouncementCategoryRepository to AnnouncementCategory--><g id="link_AnnouncementCategoryRepository_AnnouncementCategory"><path codeLine="179" d="M473.99,531.15 C431.83,561.51 389.5,592 389.5,592 C389.5,592 337.03,1237.2 322.3,1418.26 " fill="none" id="AnnouncementCategoryRepository-to-AnnouncementCategory" style="stroke:#181818;stroke-width:1.0;"/><polygon fill="#181818" points="321.88,1423.48,326.5869,1414.8287,322.2799,1418.496,318.6126,1414.1889,321.88,1423.48" style="stroke:#181818;stroke-width:1.0;"/><text fill="#000000" font-family="sans-serif" font-size="13" lengthAdjust="spacing" textLength="7" x="456.3857" y="553.6551">1</text><text fill="#000000" font-family="sans-serif" font-size="13" lengthAdjust="spacing" textLength="7" x="314.8609" y="1412.3809">2</text></g><!--link AgencyRepository to Agency--><g id="link_AgencyRepository_Agency"><path codeLine="181" d="M1525.39,503.75 C1525.33,525.02 1525.23,554.71 1525.13,586.82 " fill="none" id="AgencyRepository-to-Agency" style="stroke:#181818;stroke-width:1.0;"/><polygon fill="#181818" points="1525.11,592,1529.1357,583.0115,1525.1243,587,1521.1357,582.9886,1525.11,592" style="stroke:#181818;stroke-width:1.0;"/><text fill="#000000" font-family="sans-serif" font-size="13" lengthAdjust="spacing" textLength="7" x="1517.7695" y="525.0976">1</text><text fill="#000000" font-family="sans-serif" font-size="13" lengthAdjust="spacing" textLength="5" x="1520.0303" y="580.5932">*</text></g><!--link Agency to Agent--><g id="link_Agency_Agent"><path codeLine="183" d="M1524.5,975.26 C1524.5,1020.62 1524.5,1066.74 1524.5,1104.43 " fill="none" id="Agency-to-Agent" style="stroke:#181818;stroke-width:1.0;"/><polygon fill="#181818" points="1524.5,1109.46,1528.5,1100.46,1524.5,1104.46,1520.5,1100.46,1524.5,1109.46" style="stroke:#181818;stroke-width:1.0;"/><text fill="#000000" font-family="sans-serif" font-size="13" lengthAdjust="spacing" textLength="49" x="1525.5" y="1020.0283">employs</text><text fill="#000000" font-family="sans-serif" font-size="13" lengthAdjust="spacing" textLength="7" x="1517.3633" y="997.1132">1</text><text fill="#000000" font-family="sans-serif" font-size="13" lengthAdjust="spacing" textLength="5" x="1519.2695" y="1098.3521">*</text></g><!--link Agency to Announcement--><g id="link_Agency_Announcement"><path codeLine="184" d="M1391.76,932.64 C1357.49,970.88 1320.74,1011.9 1286.91,1049.65 " fill="none" id="Agency-to-Announcement" style="stroke:#181818;stroke-width:1.0;"/><polygon fill="#181818" points="1283.23,1053.76,1292.2162,1049.7291,1286.5677,1050.0372,1286.2596,1044.3887,1283.23,1053.76" style="stroke:#181818;stroke-width:1.0;"/><text fill="#000000" font-family="sans-serif" font-size="13" lengthAdjust="spacing" textLength="7" x="1376.8836" y="937.8023">1</text><text fill="#000000" font-family="sans-serif" font-size="13" lengthAdjust="spacing" textLength="5" x="1284.6957" y="1042.8958">*</text></g><!--link Announcement to AnnouncementCategory--><g id="link_Announcement_AnnouncementCategory"><path codeLine="186" d="M999.27,1243.59 C839.04,1295.7 597.75,1374.18 449.61,1422.36 " fill="none" id="Announcement-to-AnnouncementCategory" style="stroke:#181818;stroke-width:1.0;"/><polygon fill="#181818" points="444.81,1423.92,454.605,1424.9483,449.5661,1422.3775,452.137,1417.3386,444.81,1423.92" style="stroke:#181818;stroke-width:1.0;"/><text fill="#000000" font-family="sans-serif" font-size="13" lengthAdjust="spacing" textLength="5" x="986.2425" y="1242.8227">*</text><text fill="#000000" font-family="sans-serif" font-size="13" lengthAdjust="spacing" textLength="7" x="452.7775" y="1414.7869">1</text></g><!--link Announcement to PropertyCategory--><g id="link_Announcement_PropertyCategory"><path codeLine="187" d="M999.42,1286.53 C915.46,1335.97 830.5,1386 830.5,1386 C830.5,1386 804.71,1402.57 776.74,1420.53 " fill="none" id="Announcement-to-PropertyCategory" style="stroke:#181818;stroke-width:1.0;"/><polygon fill="#181818" points="772.24,1423.42,781.9759,1421.9329,776.4501,1420.7227,777.6603,1415.1968,772.24,1423.42" style="stroke:#181818;stroke-width:1.0;"/><text fill="#000000" font-family="sans-serif" font-size="13" lengthAdjust="spacing" textLength="5" x="986.3997" y="1287.8426">*</text><text fill="#000000" font-family="sans-serif" font-size="13" lengthAdjust="spacing" textLength="7" x="775.0001" y="1412.3113">1</text></g><!--link Announcement to Agent--><g id="link_Announcement_Agent"><path codeLine="188" d="M1325.76,1189.5 C1367.4,1189.5 1410.31,1189.5 1445.55,1189.5 " fill="none" id="Announcement-to-Agent" style="stroke:#181818;stroke-width:1.0;"/><polygon fill="#181818" points="1450.7,1189.5,1441.7,1185.5,1445.7,1189.5,1441.7,1193.5,1450.7,1189.5" style="stroke:#181818;stroke-width:1.0;"/><text fill="#000000" font-family="sans-serif" font-size="13" lengthAdjust="spacing" textLength="73" x="1351.75" y="1182.5283">published by</text></g><!--link Announcement to Address--><g id="link_Announcement_Address"><path codeLine="189" d="M1325.78,1293.3 C1372.97,1323.01 1423.82,1355.02 1468.68,1383.27 " fill="none" id="Announcement-to-Address" style="stroke:#181818;stroke-width:1.0;"/><polygon fill="#181818" points="1473,1385.99,1467.5078,1377.8147,1468.7664,1383.3297,1463.2514,1384.5884,1473,1385.99" style="stroke:#181818;stroke-width:1.0;"/><text fill="#000000" font-family="sans-serif" font-size="13" lengthAdjust="spacing" textLength="5" x="1333.2919" y="1294.6429">*</text><text fill="#000000" font-family="sans-serif" font-size="13" lengthAdjust="spacing" textLength="7" x="1453.7047" y="1374.6091">1</text></g><!--reverse link Announcement to SaleRequest--><g id="link_Announcement_SaleRequest"><path codeLine="190" d="M1044.48,1329.54 C1011.83,1368.01 979.34,1406.28 957.27,1432.28 " fill="none" id="Announcement-backto-SaleRequest" style="stroke:#181818;stroke-width:1.0;"/><polygon fill="#181818" points="1048.05,1325.34,1039.1823,1329.6252,1044.8196,1329.1564,1045.2885,1334.7938,1048.05,1325.34" style="stroke:#181818;stroke-width:1.0;"/></g><!--reverse link Announcement to Commission--><g id="link_Announcement_Commission"><path codeLine="191" d="M1265.83,1329.54 C1294.42,1368.01 1322.86,1406.28 1342.19,1432.28 " fill="none" id="Announcement-backto-Commission" style="stroke:#181818;stroke-width:1.0;"/><polygon fill="#181818" points="1262.71,1325.34,1264.8495,1334.9537,1265.6848,1329.3588,1271.2796,1330.194,1262.71,1325.34" style="stroke:#181818;stroke-width:1.0;"/></g><!--reverse link Announcement to Photography--><g id="link_Announcement_Photography"><path codeLine="192" d="M1161.99,1330.48 C1161.85,1368.62 1161.71,1406.49 1161.62,1432.28 " fill="none" id="Announcement-backto-Photography" style="stroke:#181818;stroke-width:1.0;"/><polygon fill="#181818" points="1162.01,1325.34,1157.9843,1334.3285,1161.9957,1330.34,1165.9843,1334.3514,1162.01,1325.34" style="stroke:#181818;stroke-width:1.0;"/></g><!--link Agent to Address--><g id="link_Agent_Address"><path codeLine="194" d="M1545.8,1269.53 C1555.16,1304.25 1566.17,1345.07 1575.7,1380.41 " fill="none" id="Agent-to-Address" style="stroke:#181818;stroke-width:1.0;"/><polygon fill="#181818" points="1577.09,1385.58,1578.6127,1375.8496,1575.7901,1380.7519,1570.8878,1377.9294,1577.09,1385.58" style="stroke:#181818;stroke-width:1.0;"/><text fill="#000000" font-family="sans-serif" font-size="13" lengthAdjust="spacing" textLength="5" x="1542.4156" y="1291.1906">*</text><text fill="#000000" font-family="sans-serif" font-size="13" lengthAdjust="spacing" textLength="7" x="1567.8715" y="1374.714">1</text></g><!--link ApplicationSession to ApplicationSession--><g id="link_ApplicationSession_ApplicationSession"><path codeLine="196" d="M1696.16,148.47 C1716,150.61 1731,162.62 1731,184.5 C1731,204.5 1718.47,216.25 1701.16,219.76 " fill="none" id="ApplicationSession-to-ApplicationSession" style="stroke:#181818;stroke-width:1.0;"/><polygon fill="#181818" points="1696.16,220.53,1705.6619,223.1212,1701.1024,219.7729,1704.4506,215.2134,1696.16,220.53" style="stroke:#181818;stroke-width:1.0;"/><text fill="#000000" font-family="sans-serif" font-size="13" lengthAdjust="spacing" textLength="49" x="1737" y="190.0283">instance</text></g><!--link ApplicationSession to UserSession--><g id="link_ApplicationSession_UserSession"><path codeLine="197" d="M1633.83,227.03 C1651.48,282.01 1682.34,378.17 1699.37,431.2 " fill="none" id="ApplicationSession-to-UserSession" style="stroke:#181818;stroke-width:1.0;"/><polygon fill="#181818" points="1700.97,436.2,1702.025,426.4078,1699.4404,431.4397,1694.4085,428.8551,1700.97,436.2" style="stroke:#181818;stroke-width:1.0;"/></g><!--SRC=[tLVDRjms4BxpAOXSkkukZQQz6S42stMB6Z02mqOUW2lH4X59L4cgZHBatJkaVdOaKPGFEVMoIyryyyDlHaFg9_DPLZNNlAIbgbIIQrKAQdKZo5LJy-GppyIBRGj1jKWihx820qpEK_Mlh3BwoWk3DOMiX6rhGMjLjEw14AHD2cxCoLejBuqL3ucgNkHNGNyXn6legQuBcN0hGI6CWJ_oZUofiI1AQ2RiGmNhAX6x6n33yxdHMbIs1uFq- -3gan4Q-m2m4_rHSbbWt2bDDS3eDyACrK9OmX9fMy9I2SyoiKxEhI3igwpFAeKDxK_UPDVX3zJX3tJ07towua1xF8frLcKfVKekN2fCecNjDelIoM0xJli2pe3VYfTYVAXpLOcFJNaHch0dWDTAMwXMjo3iKNNSKTvjQZIq_4jl1icx2C00YbbLgW5IosdekhaCnRZt18pkYtu18bwbj80VmavGOkjTy655s5-gCOBcxfSmjFraN48uNeXdyNSZZANckYRi6LmC2drTmzQrgeMsxHdIofHkQJqJG3PeJoEC1uG0zPHpz-leGPX9du0-QH4z4lRy23N_W2sEanXcG6ITAkjalGFXMZ5SsqKX2OFL93KSvuQmVtWXKzXI32FAkb2jsVayRhfEI5htAlbIcznLqrLZnW5MkvgigCS6YBWOCH4_lcSYFhm-O1_c0CiNdV_KPuKCFZr0ZUEGiwgiLaKXD43tKS0kr8VFebP6MbWTwBoLiQwhprNoloaKpEBvtdhnEXs3NPJF0TJO7FJzy7gJZz_R- -iuteK61TA7Svswc8-aXNd7m2okbmMXzayugGFdtBWxAVmXXfzTBIQ79hsRuBrsaz7zLbtsuNhEHkTLvzwQAG4ogtofiDLwoDu-pl-D7vduzP_ZLrhEJUn9zb5-XhtyW9QQfHjo6MdWQzeh_A6Z2zyyO83DUKbnMb4ULdq6am_xnSS_kBjNC3pShTDBHFe4Tog1kY9NLcMQrxaFxezN93kwSxH_S0qETfMou4vckQNgDTvLZCB0IkchqkusLnUyzITpRqAJOTSmtEpe-gAiLQNplTafOV-uCvOnmaVKxJ5-C0NjqBa5zfF1SGU4excmQRnEuxPjdAOtsC_6oPR5IiXDizl0Fj-GtV8JPZi__B529eLXx4ZVlNyN8po8to0vR3CdbaJU5cVWx7vRvaR8nflWRPtnh-54mS7yo1XDVXxo741Z9ht6GZFtDzq9Oe2WUDD4lJh6tpfwmS04oOvZOltD28R09UAk_oQT0ZumXcVbKddzl5hgq8ZiU0i79ClkzPY0-8xA_bgnPeIR-Zy0]--></g></svg>