<?xml version="1.0" encoding="us-ascii" standalone="no"?><svg xmlns="http://www.w3.org/2000/svg" xmlns:xlink="http://www.w3.org/1999/xlink" contentStyleType="text/css" height="291.9px" preserveAspectRatio="none" style="width:568px;height:291px;background:#FFFFFF;" version="1.1" viewBox="0 0 568 291" width="568.4px" zoomAndPan="magnify"><defs/><g><rect fill="#FFFFFF" height="176.6297" style="stroke:#181818;stroke-width:0.6999999999999998;" width="7" x="151.2" y="63.3732"/><rect fill="#FFFFFF" height="21.9037" style="stroke:#181818;stroke-width:0.6999999999999998;" width="7" x="268.45" y="103.6807"/><rect fill="#FFFFFF" height="21.9037" style="stroke:#181818;stroke-width:0.6999999999999998;" width="7" x="345.8" y="147.4881"/><rect fill="#FFFFFF" height="21.9037" style="stroke:#181818;stroke-width:0.6999999999999998;" width="7" x="470.4" y="191.2955"/><rect fill="none" height="144.926" style="stroke:#000000;stroke-width:1.0499999999999998;" width="493.15" x="71.4" y="73.8732"/><line style="stroke:#181818;stroke-width:0.3499999999999999;stroke-dasharray:5.0,5.0;" x1="154.7" x2="154.7" y1="40.0695" y2="252.6029"/><line style="stroke:#181818;stroke-width:0.3499999999999999;stroke-dasharray:5.0,5.0;" x1="271.6" x2="271.6" y1="40.0695" y2="252.6029"/><line style="stroke:#181818;stroke-width:0.3499999999999999;stroke-dasharray:5.0,5.0;" x1="348.95" x2="348.95" y1="40.0695" y2="252.6029"/><line style="stroke:#181818;stroke-width:0.3499999999999999;stroke-dasharray:5.0,5.0;" x1="473.55" x2="473.55" y1="40.0695" y2="252.6029"/><rect fill="#E3E3E3" height="22.8348" rx="1.75" ry="1.75" style="stroke:#181818;stroke-width:0.3499999999999999;" width="152.6" x="78.4" y="16.5348"/><text fill="#000000" font-family="sans-serif" font-size="9.8" lengthAdjust="spacing" textLength="142.8" x="83.3" y="32.01">:CreateAnnouncementController</text><rect fill="#E3E3E3" height="22.8348" rx="1.75" ry="1.75" style="stroke:#181818;stroke-width:0.3499999999999999;" width="152.6" x="78.4" y="251.9029"/><text fill="#000000" font-family="sans-serif" font-size="9.8" lengthAdjust="spacing" textLength="142.8" x="83.3" y="267.3781">:CreateAnnouncementController</text><rect fill="#E3E3E3" height="22.8348" rx="1.75" ry="1.75" style="stroke:#181818;stroke-width:0.3499999999999999;" width="67.9" x="238" y="16.5348"/><text fill="#000000" font-family="sans-serif" font-size="9.8" lengthAdjust="spacing" textLength="58.1" x="242.9" y="32.01">:Repositories</text><rect fill="#E3E3E3" height="22.8348" rx="1.75" ry="1.75" style="stroke:#181818;stroke-width:0.3499999999999999;" width="67.9" x="238" y="251.9029"/><text fill="#000000" font-family="sans-serif" font-size="9.8" lengthAdjust="spacing" textLength="58.1" x="242.9" y="267.3781">:Repositories</text><rect fill="#E3E3E3" height="35.8695" rx="1.75" ry="1.75" style="stroke:#181818;stroke-width:0.3499999999999999;" width="67.9" x="315.35" y="3.5"/><text fill="#000000" font-family="sans-serif" font-size="9.8" lengthAdjust="spacing" textLength="51.8" x="323.4" y="18.9752">repositories</text><text fill="#000000" font-family="sans-serif" font-size="9.8" lengthAdjust="spacing" textLength="58.1" x="320.25" y="32.01">:Repositories</text><rect fill="#E3E3E3" height="35.8695" rx="1.75" ry="1.75" style="stroke:#181818;stroke-width:0.3499999999999999;" width="67.9" x="315.35" y="251.9029"/><text fill="#000000" font-family="sans-serif" font-size="9.8" lengthAdjust="spacing" textLength="51.8" x="323.4" y="267.3781">repositories</text><text fill="#000000" font-family="sans-serif" font-size="9.8" lengthAdjust="spacing" textLength="58.1" x="320.25" y="280.4129">:Repositories</text><rect fill="#E3E3E3" height="35.8695" rx="1.75" ry="1.75" style="stroke:#181818;stroke-width:0.3499999999999999;" width="167.3" x="390.25" y="3.5"/><text fill="#000000" font-family="sans-serif" font-size="9.8" lengthAdjust="spacing" textLength="154" x="396.9" y="18.9752">announcementCategoryRepository</text><text fill="#000000" font-family="sans-serif" font-size="9.8" lengthAdjust="spacing" textLength="157.5" x="395.15" y="32.01">:AnnouncementCategoryRepository</text><rect fill="#E3E3E3" height="35.8695" rx="1.75" ry="1.75" style="stroke:#181818;stroke-width:0.3499999999999999;" width="167.3" x="390.25" y="251.9029"/><text fill="#000000" font-family="sans-serif" font-size="9.8" lengthAdjust="spacing" textLength="154" x="396.9" y="267.3781">announcementCategoryRepository</text><text fill="#000000" font-family="sans-serif" font-size="9.8" lengthAdjust="spacing" textLength="157.5" x="395.15" y="280.4129">:AnnouncementCategoryRepository</text><rect fill="#FFFFFF" height="176.6297" style="stroke:#181818;stroke-width:0.6999999999999998;" width="7" x="151.2" y="63.3732"/><rect fill="#FFFFFF" height="21.9037" style="stroke:#181818;stroke-width:0.6999999999999998;" width="7" x="268.45" y="103.6807"/><rect fill="#FFFFFF" height="21.9037" style="stroke:#181818;stroke-width:0.6999999999999998;" width="7" x="345.8" y="147.4881"/><rect fill="#FFFFFF" height="21.9037" style="stroke:#181818;stroke-width:0.6999999999999998;" width="7" x="470.4" y="191.2955"/><polygon fill="#181818" points="142.8,60.5732,149.8,63.3732,142.8,66.1732,145.6,63.3732" style="stroke:#181818;stroke-width:0.6999999999999998;"/><line style="stroke:#181818;stroke-width:0.6999999999999998;" x1="0" x2="147" y1="63.3732" y2="63.3732"/><text fill="#000000" font-family="sans-serif" font-size="9.1" font-weight="bold" lengthAdjust="spacing" textLength="4.9" x="4.9" y="59.6894">8</text><text fill="#000000" font-family="sans-serif" font-size="9.1" lengthAdjust="spacing" textLength="130.2" x="12.6" y="59.6894">getAnnouncementCategoryList()</text><path d="M71.4,73.8732 L249.2,73.8732 L249.2,80.377 L242.2,87.377 L71.4,87.377 L71.4,73.8732 " fill="#EEEEEE" style="stroke:#000000;stroke-width:1.0499999999999998;"/><rect fill="none" height="144.926" style="stroke:#000000;stroke-width:1.0499999999999998;" width="493.15" x="71.4" y="73.8732"/><text fill="#000000" font-family="sans-serif" font-size="9.1" font-weight="bold" lengthAdjust="spacing" textLength="146.3" x="81.9" y="84.3931">Get Announcement Category List</text><polygon fill="#181818" points="260.05,100.8807,267.05,103.6807,260.05,106.4807,262.85,103.6807" style="stroke:#181818;stroke-width:0.6999999999999998;"/><line style="stroke:#181818;stroke-width:0.6999999999999998;" x1="158.2" x2="264.25" y1="103.6807" y2="103.6807"/><text fill="#000000" font-family="sans-serif" font-size="9.1" font-weight="bold" lengthAdjust="spacing" textLength="12.6" x="163.1" y="99.9968">8.1</text><text fill="#000000" font-family="sans-serif" font-size="9.1" lengthAdjust="spacing" textLength="52.5" x="178.5" y="99.9968">getInstance()</text><polygon fill="#181818" points="165.9,122.7844,158.9,125.5844,165.9,128.3844,163.1,125.5844" style="stroke:#181818;stroke-width:0.6999999999999998;"/><line style="stroke:#181818;stroke-width:0.6999999999999998;stroke-dasharray:2.0,2.0;" x1="161.7" x2="271.25" y1="125.5844" y2="125.5844"/><text fill="#000000" font-family="sans-serif" font-size="9.1" font-weight="bold" lengthAdjust="spacing" textLength="12.6" x="170.1" y="121.9005">8.2</text><text fill="#000000" font-family="sans-serif" font-size="9.1" lengthAdjust="spacing" textLength="46.9" x="185.5" y="121.9005">repositories</text><polygon fill="#181818" points="337.4,144.6881,344.4,147.4881,337.4,150.2881,340.2,147.4881" style="stroke:#181818;stroke-width:0.6999999999999998;"/><line style="stroke:#181818;stroke-width:0.6999999999999998;" x1="158.2" x2="341.6" y1="147.4881" y2="147.4881"/><text fill="#000000" font-family="sans-serif" font-size="9.1" font-weight="bold" lengthAdjust="spacing" textLength="12.6" x="163.1" y="143.8042">8.3</text><text fill="#000000" font-family="sans-serif" font-size="9.1" lengthAdjust="spacing" textLength="158.9" x="178.5" y="143.8042">getAnnouncementCategoryRepository()</text><polygon fill="#181818" points="165.9,166.5918,158.9,169.3918,165.9,172.1918,163.1,169.3918" style="stroke:#181818;stroke-width:0.6999999999999998;"/><line style="stroke:#181818;stroke-width:0.6999999999999998;stroke-dasharray:2.0,2.0;" x1="161.7" x2="348.6" y1="169.3918" y2="169.3918"/><text fill="#000000" font-family="sans-serif" font-size="9.1" font-weight="bold" lengthAdjust="spacing" textLength="12.6" x="170.1" y="165.7079">8.4</text><text fill="#000000" font-family="sans-serif" font-size="9.1" lengthAdjust="spacing" textLength="139.3" x="185.5" y="165.7079">announcementCategoryRepository</text><polygon fill="#181818" points="462,188.4955,469,191.2955,462,194.0955,464.8,191.2955" style="stroke:#181818;stroke-width:0.6999999999999998;"/><line style="stroke:#181818;stroke-width:0.6999999999999998;" x1="158.2" x2="466.2" y1="191.2955" y2="191.2955"/><text fill="#000000" font-family="sans-serif" font-size="9.1" font-weight="bold" lengthAdjust="spacing" textLength="12.6" x="163.1" y="187.6116">8.5</text><text fill="#000000" font-family="sans-serif" font-size="9.1" lengthAdjust="spacing" textLength="122.5" x="178.5" y="187.6116">getAnnouncementCategories()</text><polygon fill="#181818" points="165.9,210.3992,158.9,213.1992,165.9,215.9992,163.1,213.1992" style="stroke:#181818;stroke-width:0.6999999999999998;"/><line style="stroke:#181818;stroke-width:0.6999999999999998;stroke-dasharray:2.0,2.0;" x1="161.7" x2="473.2" y1="213.1992" y2="213.1992"/><text fill="#000000" font-family="sans-serif" font-size="9.1" font-weight="bold" lengthAdjust="spacing" textLength="12.6" x="170.1" y="209.5153">8.6</text><text fill="#000000" font-family="sans-serif" font-size="9.1" lengthAdjust="spacing" textLength="110.6" x="185.5" y="209.5153">announcementCategoryList</text><polygon fill="#181818" points="7.7,237.2029,0.7,240.0029,7.7,242.8029,4.9,240.0029" style="stroke:#181818;stroke-width:0.6999999999999998;"/><line style="stroke:#181818;stroke-width:0.6999999999999998;stroke-dasharray:2.0,2.0;" x1="3.5" x2="154" y1="240.0029" y2="240.0029"/><text fill="#000000" font-family="sans-serif" font-size="9.1" font-weight="bold" lengthAdjust="spacing" textLength="4.9" x="11.9" y="236.319">9</text><text fill="#000000" font-family="sans-serif" font-size="9.1" lengthAdjust="spacing" textLength="110.6" x="19.6" y="236.319">announcementCategoryList</text><!--SRC=[ZLEnJiCm4Dtz5QSkm10aDgWGKjK18J7HbUMQN5EhoJcoBq3_7ZSegHqb3bwYsE_TlVViSoVD3LgieJPiygCrDO7ObfGRJXhCJrZIJiuLWQLSaCig1BWZ5kPRSma7h1mfXQqORkizMQLkZheWE1WZU_EZb6U8pdM3BB1QRosXq8RPj9nJJInRms9DLP5T0Jgu_ewO7zGOfyLOJQv33XlddRxeymfYYWqOdvmgyCREUymfvcEeqgikFVBAyHKtIK3N8mq9WuD7fI1x2GA0DPGaKnNUjPFRkuXy_w0m5_tb4M66u5TfJTl0Aqca1lfYSAccL0VjLo32Ivf8-azRdvlN4h878LDN524lQwfw5WMnXl0gem85_R_PdAdUnNpUL-ooq-4j9OmE7SS-qqzksVbqyzXusk1i23xvEVDBZtmSn8A2R3m5E3C2StaiwUbun4Nt3ORegTjuphAmVQf_q3EOEVKB]--></g></svg>