<?xml version="1.0" encoding="us-ascii" standalone="no"?><svg xmlns="http://www.w3.org/2000/svg" xmlns:xlink="http://www.w3.org/1999/xlink" contentStyleType="text/css" height="1103.9px" preserveAspectRatio="none" style="width:1057px;height:1103px;background:#FFFFFF;" version="1.1" viewBox="0 0 1057 1103" width="1057.7px" zoomAndPan="magnify"><defs/><g><rect fill="#FFFFFF" height="967.9291" style="stroke:#181818;stroke-width:0.6999999999999998;" width="7" x="15.05" y="65.5348"/><rect fill="#FFFFFF" height="141.1949" style="stroke:#181818;stroke-width:0.6999999999999998;" width="7" x="343.35" y="81.8385"/><rect fill="#FFFFFF" height="141.6639" style="stroke:#181818;stroke-width:0.6999999999999998;" width="7" x="343.35" y="244.9371"/><rect fill="#FFFFFF" height="52.9074" style="stroke:#181818;stroke-width:0.6999999999999998;" width="7" x="343.35" y="408.5047"/><rect fill="#FFFFFF" height="52.9074" style="stroke:#181818;stroke-width:0.6999999999999998;" width="7" x="343.35" y="483.3158"/><rect fill="#FFFFFF" height="475.3369" style="stroke:#181818;stroke-width:0.6999999999999998;" width="7" x="343.35" y="558.127"/><rect fill="#FFFFFF" height="66.8527" style="stroke:#181818;stroke-width:0.6999999999999998;" width="7" x="636.65" y="134.277"/><rect fill="#FFFFFF" height="66.8527" style="stroke:#181818;stroke-width:0.6999999999999998;" width="7" x="636.65" y="297.8445"/><rect fill="#FFFFFF" height="431.5295" style="stroke:#181818;stroke-width:0.6999999999999998;" width="7" x="636.65" y="580.0307"/><rect fill="#FFFFFF" height="74.5527" style="stroke:#181818;stroke-width:0.6999999999999998;" width="7" x="640.15" y="607.5344"/><rect fill="#FFFFFF" height="74.5527" style="stroke:#181818;stroke-width:0.6999999999999998;" width="7" x="640.15" y="714.4908"/><rect fill="#FFFFFF" height="74.5527" style="stroke:#181818;stroke-width:0.6999999999999998;" width="7" x="640.15" y="821.4473"/><rect fill="#FFFFFF" height="66.8527" style="stroke:#181818;stroke-width:0.6999999999999998;" width="7" x="979.65" y="922.8037"/><line style="stroke:#181818;stroke-width:0.3499999999999999;stroke-dasharray:5.0,5.0;" x1="18.2" x2="18.2" y1="58.5348" y2="1046.0639"/><line style="stroke:#181818;stroke-width:0.3499999999999999;stroke-dasharray:5.0,5.0;" x1="346.5" x2="346.5" y1="58.5348" y2="1046.0639"/><line style="stroke:#181818;stroke-width:0.3499999999999999;stroke-dasharray:5.0,5.0;" x1="639.8" x2="639.8" y1="109.7059" y2="1046.0639"/><line style="stroke:#181818;stroke-width:0.3499999999999999;stroke-dasharray:5.0,5.0;" x1="982.8" x2="982.8" y1="58.5348" y2="1046.0639"/><text fill="#000000" font-family="sans-serif" font-size="9.8" lengthAdjust="spacing" textLength="25.9" x="3.5" y="56.0752">Agent</text><ellipse cx="18.55" cy="9.45" fill="#E3E3E3" rx="5.6" ry="5.6" style="stroke:#181818;stroke-width:0.3499999999999999;"/><path d="M18.55,15.05 L18.55,33.95 M9.45,20.65 L27.65,20.65 M18.55,33.95 L9.45,44.45 M18.55,33.95 L27.65,44.45 " fill="none" style="stroke:#181818;stroke-width:0.3499999999999999;"/><text fill="#000000" font-family="sans-serif" font-size="9.8" lengthAdjust="spacing" textLength="25.9" x="3.5" y="1055.9391">Agent</text><ellipse cx="18.55" cy="1064.3486" fill="#E3E3E3" rx="5.6" ry="5.6" style="stroke:#181818;stroke-width:0.3499999999999999;"/><path d="M18.55,1069.9486 L18.55,1088.8486 M9.45,1075.5486 L27.65,1075.5486 M18.55,1088.8486 L9.45,1099.3486 M18.55,1088.8486 L27.65,1099.3486 " fill="none" style="stroke:#181818;stroke-width:0.3499999999999999;"/><rect fill="#E3E3E3" height="22.8348" rx="1.75" ry="1.75" style="stroke:#181818;stroke-width:0.3499999999999999;" width="119.7" x="287" y="35"/><text fill="#000000" font-family="sans-serif" font-size="9.8" lengthAdjust="spacing" textLength="109.9" x="291.9" y="50.4752">:PublishAnnouncementUI</text><rect fill="#E3E3E3" height="22.8348" rx="1.75" ry="1.75" style="stroke:#181818;stroke-width:0.3499999999999999;" width="119.7" x="287" y="1045.3639"/><text fill="#000000" font-family="sans-serif" font-size="9.8" lengthAdjust="spacing" textLength="109.9" x="291.9" y="1060.8391">:PublishAnnouncementUI</text><rect fill="#E3E3E3" height="22.8348" rx="1.75" ry="1.75" style="stroke:#181818;stroke-width:0.3499999999999999;" width="154.7" x="562.8" y="1045.3639"/><text fill="#000000" font-family="sans-serif" font-size="9.8" lengthAdjust="spacing" textLength="144.9" x="567.7" y="1060.8391">:PublishAnnouncementController</text><rect fill="#E3E3E3" height="35.8695" rx="1.75" ry="1.75" style="stroke:#181818;stroke-width:0.3499999999999999;" width="45.5" x="960.4" y="21.9652"/><text fill="#000000" font-family="sans-serif" font-size="9.8" lengthAdjust="spacing" textLength="32.2" x="967.05" y="37.4404">agency</text><text fill="#000000" font-family="sans-serif" font-size="9.8" lengthAdjust="spacing" textLength="35.7" x="965.3" y="50.4752">:Agency</text><rect fill="#E3E3E3" height="35.8695" rx="1.75" ry="1.75" style="stroke:#181818;stroke-width:0.3499999999999999;" width="45.5" x="960.4" y="1045.3639"/><text fill="#000000" font-family="sans-serif" font-size="9.8" lengthAdjust="spacing" textLength="32.2" x="967.05" y="1060.8391">agency</text><text fill="#000000" font-family="sans-serif" font-size="9.8" lengthAdjust="spacing" textLength="35.7" x="965.3" y="1073.8738">:Agency</text><rect fill="#FFFFFF" height="967.9291" style="stroke:#181818;stroke-width:0.6999999999999998;" width="7" x="15.05" y="65.5348"/><rect fill="#FFFFFF" height="141.1949" style="stroke:#181818;stroke-width:0.6999999999999998;" width="7" x="343.35" y="81.8385"/><rect fill="#FFFFFF" height="141.6639" style="stroke:#181818;stroke-width:0.6999999999999998;" width="7" x="343.35" y="244.9371"/><rect fill="#FFFFFF" height="52.9074" style="stroke:#181818;stroke-width:0.6999999999999998;" width="7" x="343.35" y="408.5047"/><rect fill="#FFFFFF" height="52.9074" style="stroke:#181818;stroke-width:0.6999999999999998;" width="7" x="343.35" y="483.3158"/><rect fill="#FFFFFF" height="475.3369" style="stroke:#181818;stroke-width:0.6999999999999998;" width="7" x="343.35" y="558.127"/><rect fill="#FFFFFF" height="66.8527" style="stroke:#181818;stroke-width:0.6999999999999998;" width="7" x="636.65" y="134.277"/><rect fill="#FFFFFF" height="66.8527" style="stroke:#181818;stroke-width:0.6999999999999998;" width="7" x="636.65" y="297.8445"/><rect fill="#FFFFFF" height="431.5295" style="stroke:#181818;stroke-width:0.6999999999999998;" width="7" x="636.65" y="580.0307"/><rect fill="#FFFFFF" height="74.5527" style="stroke:#181818;stroke-width:0.6999999999999998;" width="7" x="640.15" y="607.5344"/><rect fill="#FFFFFF" height="74.5527" style="stroke:#181818;stroke-width:0.6999999999999998;" width="7" x="640.15" y="714.4908"/><rect fill="#FFFFFF" height="74.5527" style="stroke:#181818;stroke-width:0.6999999999999998;" width="7" x="640.15" y="821.4473"/><rect fill="#FFFFFF" height="66.8527" style="stroke:#181818;stroke-width:0.6999999999999998;" width="7" x="979.65" y="922.8037"/><polygon fill="#181818" points="334.95,79.0385,341.95,81.8385,334.95,84.6385,337.75,81.8385" style="stroke:#181818;stroke-width:0.6999999999999998;"/><line style="stroke:#181818;stroke-width:0.6999999999999998;" x1="22.05" x2="339.15" y1="81.8385" y2="81.8385"/><text fill="#000000" font-family="sans-serif" font-size="9.1" font-weight="bold" lengthAdjust="spacing" textLength="4.9" x="26.95" y="78.1546">1</text><text fill="#000000" font-family="sans-serif" font-size="9.1" lengthAdjust="spacing" textLength="151.2" x="34.65" y="78.1546">asks to publish a sale announcement</text><polygon fill="#181818" points="554.4,100.9422,561.4,103.7422,554.4,106.5422,557.2,103.7422" style="stroke:#181818;stroke-width:0.6999999999999998;"/><line style="stroke:#181818;stroke-width:0.6999999999999998;" x1="350.35" x2="558.6" y1="103.7422" y2="103.7422"/><text fill="#000000" font-family="sans-serif" font-size="9.1" font-weight="bold" lengthAdjust="spacing" textLength="4.9" x="355.25" y="100.0583">2</text><text fill="#000000" font-family="sans-serif" font-size="9.1" lengthAdjust="spacing" textLength="25.2" x="362.95" y="100.0583">create</text><rect fill="#E3E3E3" height="22.8348" rx="1.75" ry="1.75" style="stroke:#181818;stroke-width:0.3499999999999999;" width="154.7" x="562.8" y="87.4385"/><text fill="#000000" font-family="sans-serif" font-size="9.8" lengthAdjust="spacing" textLength="144.9" x="567.7" y="102.9137">:PublishAnnouncementController</text><polygon fill="#181818" points="628.25,131.477,635.25,134.277,628.25,137.077,631.05,134.277" style="stroke:#181818;stroke-width:0.6999999999999998;"/><line style="stroke:#181818;stroke-width:0.6999999999999998;" x1="350.35" x2="632.45" y1="134.277" y2="134.277"/><text fill="#000000" font-family="sans-serif" font-size="9.1" font-weight="bold" lengthAdjust="spacing" textLength="4.9" x="355.25" y="130.5931">3</text><text fill="#000000" font-family="sans-serif" font-size="9.1" lengthAdjust="spacing" textLength="103.6" x="362.95" y="130.5931">getPropertyCategoryList()</text><rect fill="none" height="41.449" style="stroke:#000000;stroke-width:1.0499999999999998;" width="158.9" x="560.7" y="139.877"/><path d="M560.7,139.877 L604.1,139.877 L604.1,146.177 L597.1,153.177 L560.7,153.177 L560.7,139.877 " fill="#EEEEEE" style="stroke:#000000;stroke-width:1.3999999999999997;"/><text fill="#000000" font-family="sans-serif" font-size="9.1" font-weight="bold" lengthAdjust="spacing" textLength="11.9" x="569.8" y="151.0968">ref</text><text fill="#000000" font-family="sans-serif" font-size="8.4" lengthAdjust="spacing" textLength="99.4" x="590.45" y="165.0414">Get Property Category List</text><text fill="#000000" font-family="sans-serif" font-size="8.4" lengthAdjust="spacing" textLength="2.1" x="639.1" y="176.2141">&#160;</text><polygon fill="#181818" points="358.05,198.3297,351.05,201.1297,358.05,203.9297,355.25,201.1297" style="stroke:#181818;stroke-width:0.6999999999999998;"/><line style="stroke:#181818;stroke-width:0.6999999999999998;stroke-dasharray:2.0,2.0;" x1="353.85" x2="639.45" y1="201.1297" y2="201.1297"/><text fill="#000000" font-family="sans-serif" font-size="9.1" font-weight="bold" lengthAdjust="spacing" textLength="4.9" x="362.25" y="197.4458">4</text><text fill="#000000" font-family="sans-serif" font-size="9.1" lengthAdjust="spacing" textLength="84" x="369.95" y="197.4458">propertyCategoryList</text><polygon fill="#181818" points="29.75,220.2334,22.75,223.0334,29.75,225.8334,26.95,223.0334" style="stroke:#181818;stroke-width:0.6999999999999998;"/><line style="stroke:#181818;stroke-width:0.6999999999999998;stroke-dasharray:2.0,2.0;" x1="25.55" x2="346.15" y1="223.0334" y2="223.0334"/><text fill="#000000" font-family="sans-serif" font-size="9.1" font-weight="bold" lengthAdjust="spacing" textLength="4.9" x="33.95" y="219.3495">5</text><text fill="#000000" font-family="sans-serif" font-size="9.1" lengthAdjust="spacing" textLength="209.3" x="41.65" y="219.3495">shows property category list and asks to sleect one</text><polygon fill="#181818" points="334.95,242.1371,341.95,244.9371,334.95,247.7371,337.75,244.9371" style="stroke:#181818;stroke-width:0.6999999999999998;"/><line style="stroke:#181818;stroke-width:0.6999999999999998;" x1="22.05" x2="339.15" y1="244.9371" y2="244.9371"/><text fill="#000000" font-family="sans-serif" font-size="9.1" font-weight="bold" lengthAdjust="spacing" textLength="4.9" x="26.95" y="241.2532">6</text><text fill="#000000" font-family="sans-serif" font-size="9.1" lengthAdjust="spacing" textLength="110.6" x="34.65" y="241.2532">selects a property category</text><line style="stroke:#181818;stroke-width:0.6999999999999998;stroke-dasharray:2.0,2.0;" x1="350.35" x2="379.75" y1="266.8408" y2="266.8408"/><line style="stroke:#181818;stroke-width:0.6999999999999998;stroke-dasharray:2.0,2.0;" x1="379.75" x2="379.75" y1="266.8408" y2="275.9408"/><line style="stroke:#181818;stroke-width:0.6999999999999998;stroke-dasharray:2.0,2.0;" x1="351.05" x2="379.75" y1="275.9408" y2="275.9408"/><polygon fill="#181818" points="358.05,273.1408,351.05,275.9408,358.05,278.7408,355.25,275.9408" style="stroke:#181818;stroke-width:0.6999999999999998;"/><text fill="#000000" font-family="sans-serif" font-size="9.1" font-weight="bold" lengthAdjust="spacing" textLength="4.9" x="355.25" y="263.1569">7</text><text fill="#000000" font-family="sans-serif" font-size="9.1" lengthAdjust="spacing" textLength="210.7" x="362.95" y="263.1569">keepPropertyCategory(propertyCategoryDescription)</text><polygon fill="#181818" points="628.25,295.0445,635.25,297.8445,628.25,300.6445,631.05,297.8445" style="stroke:#181818;stroke-width:0.6999999999999998;"/><line style="stroke:#181818;stroke-width:0.6999999999999998;" x1="350.35" x2="632.45" y1="297.8445" y2="297.8445"/><text fill="#000000" font-family="sans-serif" font-size="9.1" font-weight="bold" lengthAdjust="spacing" textLength="4.9" x="355.25" y="294.1606">8</text><text fill="#000000" font-family="sans-serif" font-size="9.1" lengthAdjust="spacing" textLength="122.5" x="362.95" y="294.1606">getAnnouncementCategories()</text><rect fill="none" height="41.449" style="stroke:#000000;stroke-width:1.0499999999999998;" width="158.9" x="560.7" y="303.4445"/><path d="M560.7,303.4445 L604.1,303.4445 L604.1,309.7445 L597.1,316.7445 L560.7,316.7445 L560.7,303.4445 " fill="#EEEEEE" style="stroke:#000000;stroke-width:1.3999999999999997;"/><text fill="#000000" font-family="sans-serif" font-size="9.1" font-weight="bold" lengthAdjust="spacing" textLength="11.9" x="569.8" y="314.6644">ref</text><text fill="#000000" font-family="sans-serif" font-size="8.4" lengthAdjust="spacing" textLength="126" x="577.15" y="328.609">Get Announcement Category List</text><text fill="#000000" font-family="sans-serif" font-size="8.4" lengthAdjust="spacing" textLength="2.1" x="639.1" y="339.7816">&#160;</text><polygon fill="#181818" points="358.05,361.8973,351.05,364.6973,358.05,367.4973,355.25,364.6973" style="stroke:#181818;stroke-width:0.6999999999999998;"/><line style="stroke:#181818;stroke-width:0.6999999999999998;stroke-dasharray:2.0,2.0;" x1="353.85" x2="639.45" y1="364.6973" y2="364.6973"/><text fill="#000000" font-family="sans-serif" font-size="9.1" font-weight="bold" lengthAdjust="spacing" textLength="4.9" x="362.25" y="361.0134">9</text><text fill="#000000" font-family="sans-serif" font-size="9.1" lengthAdjust="spacing" textLength="110.6" x="369.95" y="361.0134">announcementCategoryList</text><polygon fill="#181818" points="29.75,383.801,22.75,386.601,29.75,389.401,26.95,386.601" style="stroke:#181818;stroke-width:0.6999999999999998;"/><line style="stroke:#181818;stroke-width:0.6999999999999998;stroke-dasharray:2.0,2.0;" x1="25.55" x2="346.15" y1="386.601" y2="386.601"/><text fill="#000000" font-family="sans-serif" font-size="9.1" font-weight="bold" lengthAdjust="spacing" textLength="9.8" x="33.95" y="382.9171">10</text><text fill="#000000" font-family="sans-serif" font-size="9.1" lengthAdjust="spacing" textLength="291.9" x="46.55" y="382.9171">shows announcement category list (sale or rental) and asks to select on</text><polygon fill="#181818" points="334.95,405.7047,341.95,408.5047,334.95,411.3047,337.75,408.5047" style="stroke:#181818;stroke-width:0.6999999999999998;"/><line style="stroke:#181818;stroke-width:0.6999999999999998;" x1="22.05" x2="339.15" y1="408.5047" y2="408.5047"/><text fill="#000000" font-family="sans-serif" font-size="9.1" font-weight="bold" lengthAdjust="spacing" textLength="9.8" x="26.95" y="404.8208">11</text><text fill="#000000" font-family="sans-serif" font-size="9.1" lengthAdjust="spacing" textLength="164.5" x="39.55" y="404.8208">selects the sale announcement category</text><line style="stroke:#181818;stroke-width:0.6999999999999998;stroke-dasharray:2.0,2.0;" x1="350.35" x2="379.75" y1="430.4084" y2="430.4084"/><line style="stroke:#181818;stroke-width:0.6999999999999998;stroke-dasharray:2.0,2.0;" x1="379.75" x2="379.75" y1="430.4084" y2="439.5084"/><line style="stroke:#181818;stroke-width:0.6999999999999998;stroke-dasharray:2.0,2.0;" x1="351.05" x2="379.75" y1="439.5084" y2="439.5084"/><polygon fill="#181818" points="358.05,436.7084,351.05,439.5084,358.05,442.3084,355.25,439.5084" style="stroke:#181818;stroke-width:0.6999999999999998;"/><text fill="#000000" font-family="sans-serif" font-size="9.1" font-weight="bold" lengthAdjust="spacing" textLength="9.8" x="355.25" y="426.7245">12</text><text fill="#000000" font-family="sans-serif" font-size="9.1" lengthAdjust="spacing" textLength="263.9" x="367.85" y="426.7245">keepAnnouncementCategory(announcementCategoryDescription)</text><polygon fill="#181818" points="29.75,458.6121,22.75,461.4121,29.75,464.2121,26.95,461.4121" style="stroke:#181818;stroke-width:0.6999999999999998;"/><line style="stroke:#181818;stroke-width:0.6999999999999998;stroke-dasharray:2.0,2.0;" x1="25.55" x2="346.15" y1="461.4121" y2="461.4121"/><text fill="#000000" font-family="sans-serif" font-size="9.1" font-weight="bold" lengthAdjust="spacing" textLength="9.8" x="33.95" y="457.7282">13</text><text fill="#000000" font-family="sans-serif" font-size="9.1" lengthAdjust="spacing" textLength="55.3" x="46.55" y="457.7282">requests data</text><polygon fill="#181818" points="334.95,480.5158,341.95,483.3158,334.95,486.1158,337.75,483.3158" style="stroke:#181818;stroke-width:0.6999999999999998;"/><line style="stroke:#181818;stroke-width:0.6999999999999998;" x1="22.05" x2="339.15" y1="483.3158" y2="483.3158"/><text fill="#000000" font-family="sans-serif" font-size="9.1" font-weight="bold" lengthAdjust="spacing" textLength="9.8" x="26.95" y="479.6319">14</text><text fill="#000000" font-family="sans-serif" font-size="9.1" lengthAdjust="spacing" textLength="85.4" x="39.55" y="479.6319">types requested data</text><line style="stroke:#181818;stroke-width:0.6999999999999998;stroke-dasharray:2.0,2.0;" x1="350.35" x2="379.75" y1="505.2195" y2="505.2195"/><line style="stroke:#181818;stroke-width:0.6999999999999998;stroke-dasharray:2.0,2.0;" x1="379.75" x2="379.75" y1="505.2195" y2="514.3195"/><line style="stroke:#181818;stroke-width:0.6999999999999998;stroke-dasharray:2.0,2.0;" x1="351.05" x2="379.75" y1="514.3195" y2="514.3195"/><polygon fill="#181818" points="358.05,511.5195,351.05,514.3195,358.05,517.1195,355.25,514.3195" style="stroke:#181818;stroke-width:0.6999999999999998;"/><text fill="#000000" font-family="sans-serif" font-size="9.1" font-weight="bold" lengthAdjust="spacing" textLength="9.8" x="355.25" y="501.5356">15</text><text fill="#000000" font-family="sans-serif" font-size="9.1" lengthAdjust="spacing" textLength="122.5" x="367.85" y="501.5356">keepAnnouncementData(data)</text><polygon fill="#181818" points="29.75,533.4232,22.75,536.2232,29.75,539.0232,26.95,536.2232" style="stroke:#181818;stroke-width:0.6999999999999998;"/><line style="stroke:#181818;stroke-width:0.6999999999999998;" x1="25.55" x2="346.15" y1="536.2232" y2="536.2232"/><text fill="#000000" font-family="sans-serif" font-size="9.1" font-weight="bold" lengthAdjust="spacing" textLength="9.8" x="33.95" y="532.5394">16</text><text fill="#000000" font-family="sans-serif" font-size="9.1" lengthAdjust="spacing" textLength="165.2" x="46.55" y="532.5394">shows all data and requests confirmation</text><polygon fill="#181818" points="334.95,555.327,341.95,558.127,334.95,560.927,337.75,558.127" style="stroke:#181818;stroke-width:0.6999999999999998;"/><line style="stroke:#181818;stroke-width:0.6999999999999998;" x1="22.05" x2="339.15" y1="558.127" y2="558.127"/><text fill="#000000" font-family="sans-serif" font-size="9.1" font-weight="bold" lengthAdjust="spacing" textLength="9.8" x="26.95" y="554.4431">17</text><text fill="#000000" font-family="sans-serif" font-size="9.1" lengthAdjust="spacing" textLength="34.3" x="39.55" y="554.4431">confirms</text><polygon fill="#181818" points="628.25,577.2307,635.25,580.0307,628.25,582.8307,631.05,580.0307" style="stroke:#181818;stroke-width:0.6999999999999998;"/><line style="stroke:#181818;stroke-width:0.6999999999999998;" x1="350.35" x2="632.45" y1="580.0307" y2="580.0307"/><text fill="#000000" font-family="sans-serif" font-size="9.1" font-weight="bold" lengthAdjust="spacing" textLength="9.8" x="355.25" y="576.3468">18</text><text fill="#000000" font-family="sans-serif" font-size="9.1" lengthAdjust="spacing" textLength="112.7" x="367.85" y="576.3468">publishAnnouncement(data)</text><line style="stroke:#181818;stroke-width:0.6999999999999998;" x1="643.65" x2="676.55" y1="598.4344" y2="598.4344"/><line style="stroke:#181818;stroke-width:0.6999999999999998;" x1="676.55" x2="676.55" y1="598.4344" y2="607.5344"/><line style="stroke:#181818;stroke-width:0.6999999999999998;" x1="647.85" x2="676.55" y1="607.5344" y2="607.5344"/><polygon fill="#181818" points="654.85,604.7344,647.85,607.5344,654.85,610.3344,652.05,607.5344" style="stroke:#181818;stroke-width:0.6999999999999998;"/><text fill="#000000" font-family="sans-serif" font-size="9.1" font-weight="bold" lengthAdjust="spacing" textLength="9.8" x="652.05" y="594.7505">19</text><text fill="#000000" font-family="sans-serif" font-size="9.1" lengthAdjust="spacing" textLength="260.4" x="664.65" y="594.7505">getPropertyCategoryByDescription(propertyCategoryDescription)</text><rect fill="none" height="41.449" style="stroke:#000000;stroke-width:1.0499999999999998;" width="158.9" x="560.7" y="616.6344"/><path d="M560.7,616.6344 L604.1,616.6344 L604.1,622.9344 L597.1,629.9344 L560.7,629.9344 L560.7,616.6344 " fill="#EEEEEE" style="stroke:#000000;stroke-width:1.3999999999999997;"/><text fill="#000000" font-family="sans-serif" font-size="9.1" font-weight="bold" lengthAdjust="spacing" textLength="11.9" x="569.8" y="627.8542">ref</text><text fill="#000000" font-family="sans-serif" font-size="8.4" lengthAdjust="spacing" textLength="109.9" x="585.2" y="641.7988">Get Property Category Object</text><text fill="#000000" font-family="sans-serif" font-size="8.4" lengthAdjust="spacing" textLength="2.1" x="639.1" y="652.9715">&#160;</text><line style="stroke:#181818;stroke-width:0.6999999999999998;stroke-dasharray:2.0,2.0;" x1="647.15" x2="676.55" y1="681.3871" y2="681.3871"/><line style="stroke:#181818;stroke-width:0.6999999999999998;stroke-dasharray:2.0,2.0;" x1="676.55" x2="676.55" y1="681.3871" y2="690.4871"/><line style="stroke:#181818;stroke-width:0.6999999999999998;stroke-dasharray:2.0,2.0;" x1="643.65" x2="676.55" y1="690.4871" y2="690.4871"/><polygon fill="#181818" points="650.65,687.6871,643.65,690.4871,650.65,693.2871,647.85,690.4871" style="stroke:#181818;stroke-width:0.6999999999999998;"/><text fill="#000000" font-family="sans-serif" font-size="9.1" font-weight="bold" lengthAdjust="spacing" textLength="9.8" x="652.05" y="677.7032">20</text><text fill="#000000" font-family="sans-serif" font-size="9.1" lengthAdjust="spacing" textLength="69.3" x="664.65" y="677.7032">propertyCategory</text><line style="stroke:#181818;stroke-width:0.6999999999999998;" x1="643.65" x2="676.55" y1="705.3908" y2="705.3908"/><line style="stroke:#181818;stroke-width:0.6999999999999998;" x1="676.55" x2="676.55" y1="705.3908" y2="714.4908"/><line style="stroke:#181818;stroke-width:0.6999999999999998;" x1="647.85" x2="676.55" y1="714.4908" y2="714.4908"/><polygon fill="#181818" points="654.85,711.6908,647.85,714.4908,654.85,717.2908,652.05,714.4908" style="stroke:#181818;stroke-width:0.6999999999999998;"/><text fill="#000000" font-family="sans-serif" font-size="9.1" font-weight="bold" lengthAdjust="spacing" textLength="9.8" x="652.05" y="701.7069">21</text><text fill="#000000" font-family="sans-serif" font-size="9.1" lengthAdjust="spacing" textLength="313.6" x="664.65" y="701.7069">getAnnouncementCategoryByDescription(announcementCategoryDescription)</text><rect fill="none" height="41.449" style="stroke:#000000;stroke-width:1.0499999999999998;" width="158.9" x="560.7" y="723.5908"/><path d="M560.7,723.5908 L604.1,723.5908 L604.1,729.8908 L597.1,736.8908 L560.7,736.8908 L560.7,723.5908 " fill="#EEEEEE" style="stroke:#000000;stroke-width:1.3999999999999997;"/><text fill="#000000" font-family="sans-serif" font-size="9.1" font-weight="bold" lengthAdjust="spacing" textLength="11.9" x="569.8" y="734.8106">ref</text><text fill="#000000" font-family="sans-serif" font-size="8.4" lengthAdjust="spacing" textLength="136.5" x="571.9" y="748.7553">Get Announcement Category Object</text><text fill="#000000" font-family="sans-serif" font-size="8.4" lengthAdjust="spacing" textLength="2.1" x="639.1" y="759.9279">&#160;</text><line style="stroke:#181818;stroke-width:0.6999999999999998;stroke-dasharray:2.0,2.0;" x1="647.15" x2="676.55" y1="788.3436" y2="788.3436"/><line style="stroke:#181818;stroke-width:0.6999999999999998;stroke-dasharray:2.0,2.0;" x1="676.55" x2="676.55" y1="788.3436" y2="797.4436"/><line style="stroke:#181818;stroke-width:0.6999999999999998;stroke-dasharray:2.0,2.0;" x1="643.65" x2="676.55" y1="797.4436" y2="797.4436"/><polygon fill="#181818" points="650.65,794.6436,643.65,797.4436,650.65,800.2436,647.85,797.4436" style="stroke:#181818;stroke-width:0.6999999999999998;"/><text fill="#000000" font-family="sans-serif" font-size="9.1" font-weight="bold" lengthAdjust="spacing" textLength="9.8" x="652.05" y="784.6597">22</text><text fill="#000000" font-family="sans-serif" font-size="9.1" lengthAdjust="spacing" textLength="95.9" x="664.65" y="784.6597">announcementCategory</text><line style="stroke:#181818;stroke-width:0.6999999999999998;" x1="643.65" x2="676.55" y1="812.3473" y2="812.3473"/><line style="stroke:#181818;stroke-width:0.6999999999999998;" x1="676.55" x2="676.55" y1="812.3473" y2="821.4473"/><line style="stroke:#181818;stroke-width:0.6999999999999998;" x1="647.85" x2="676.55" y1="821.4473" y2="821.4473"/><polygon fill="#181818" points="654.85,818.6473,647.85,821.4473,654.85,824.2473,652.05,821.4473" style="stroke:#181818;stroke-width:0.6999999999999998;"/><text fill="#000000" font-family="sans-serif" font-size="9.1" font-weight="bold" lengthAdjust="spacing" textLength="9.8" x="652.05" y="808.6634">23</text><text fill="#000000" font-family="sans-serif" font-size="9.1" lengthAdjust="spacing" textLength="95.9" x="664.65" y="808.6634">getAgentFromSession()</text><rect fill="none" height="41.449" style="stroke:#000000;stroke-width:1.0499999999999998;" width="158.9" x="560.7" y="830.5473"/><path d="M560.7,830.5473 L604.1,830.5473 L604.1,836.8473 L597.1,843.8473 L560.7,843.8473 L560.7,830.5473 " fill="#EEEEEE" style="stroke:#000000;stroke-width:1.3999999999999997;"/><text fill="#000000" font-family="sans-serif" font-size="9.1" font-weight="bold" lengthAdjust="spacing" textLength="11.9" x="569.8" y="841.7671">ref</text><text fill="#000000" font-family="sans-serif" font-size="8.4" lengthAdjust="spacing" textLength="37.1" x="621.6" y="855.7117">Get Agent</text><text fill="#000000" font-family="sans-serif" font-size="8.4" lengthAdjust="spacing" textLength="2.1" x="639.1" y="866.8844">&#160;</text><line style="stroke:#181818;stroke-width:0.6999999999999998;" x1="647.15" x2="676.55" y1="895.3" y2="895.3"/><line style="stroke:#181818;stroke-width:0.6999999999999998;" x1="676.55" x2="676.55" y1="895.3" y2="904.4"/><line style="stroke:#181818;stroke-width:0.6999999999999998;" x1="643.65" x2="676.55" y1="904.4" y2="904.4"/><polygon fill="#181818" points="650.65,901.6,643.65,904.4,650.65,907.2,647.85,904.4" style="stroke:#181818;stroke-width:0.6999999999999998;"/><text fill="#000000" font-family="sans-serif" font-size="9.1" font-weight="bold" lengthAdjust="spacing" textLength="9.8" x="652.05" y="891.6161">24</text><text fill="#000000" font-family="sans-serif" font-size="9.1" lengthAdjust="spacing" textLength="22.4" x="664.65" y="891.6161">agent</text><polygon fill="#181818" points="971.25,920.0037,978.25,922.8037,971.25,925.6037,974.05,922.8037" style="stroke:#181818;stroke-width:0.6999999999999998;"/><line style="stroke:#181818;stroke-width:0.6999999999999998;" x1="643.65" x2="975.45" y1="922.8037" y2="922.8037"/><text fill="#000000" font-family="sans-serif" font-size="9.1" font-weight="bold" lengthAdjust="spacing" textLength="9.8" x="648.55" y="919.1198">25</text><text fill="#000000" font-family="sans-serif" font-size="9.1" lengthAdjust="spacing" textLength="95.2" x="661.15" y="919.1198">publishAnnouncement()</text><rect fill="none" height="41.449" style="stroke:#000000;stroke-width:1.0499999999999998;" width="95.2" x="958.3" y="928.4037"/><path d="M958.3,928.4037 L1001.7,928.4037 L1001.7,934.7037 L994.7,941.7037 L958.3,941.7037 L958.3,928.4037 " fill="#EEEEEE" style="stroke:#000000;stroke-width:1.3999999999999997;"/><text fill="#000000" font-family="sans-serif" font-size="9.1" font-weight="bold" lengthAdjust="spacing" textLength="11.9" x="967.4" y="939.6235">ref</text><text fill="#000000" font-family="sans-serif" font-size="8.4" lengthAdjust="spacing" textLength="89.6" x="961.1" y="953.5682">Publish Announcement</text><text fill="#000000" font-family="sans-serif" font-size="8.4" lengthAdjust="spacing" textLength="2.1" x="1004.85" y="964.7408">&#160;</text><polygon fill="#181818" points="651.35,986.8564,644.35,989.6564,651.35,992.4564,648.55,989.6564" style="stroke:#181818;stroke-width:0.6999999999999998;"/><line style="stroke:#181818;stroke-width:0.6999999999999998;stroke-dasharray:2.0,2.0;" x1="647.15" x2="982.45" y1="989.6564" y2="989.6564"/><text fill="#000000" font-family="sans-serif" font-size="9.1" font-weight="bold" lengthAdjust="spacing" textLength="9.8" x="655.55" y="985.9726">26</text><text fill="#000000" font-family="sans-serif" font-size="9.1" lengthAdjust="spacing" textLength="59.5" x="668.15" y="985.9726">announcement</text><polygon fill="#181818" points="358.05,1008.7602,351.05,1011.5602,358.05,1014.3602,355.25,1011.5602" style="stroke:#181818;stroke-width:0.6999999999999998;"/><line style="stroke:#181818;stroke-width:0.6999999999999998;stroke-dasharray:2.0,2.0;" x1="353.85" x2="639.45" y1="1011.5602" y2="1011.5602"/><text fill="#000000" font-family="sans-serif" font-size="9.1" font-weight="bold" lengthAdjust="spacing" textLength="9.8" x="362.25" y="1007.8763">27</text><text fill="#000000" font-family="sans-serif" font-size="9.1" lengthAdjust="spacing" textLength="59.5" x="374.85" y="1007.8763">announcement</text><polygon fill="#181818" points="26.25,1030.6639,19.25,1033.4639,26.25,1036.2639,23.45,1033.4639" style="stroke:#181818;stroke-width:0.6999999999999998;"/><line style="stroke:#181818;stroke-width:0.6999999999999998;stroke-dasharray:2.0,2.0;" x1="22.05" x2="346.15" y1="1033.4639" y2="1033.4639"/><text fill="#000000" font-family="sans-serif" font-size="9.1" font-weight="bold" lengthAdjust="spacing" textLength="9.8" x="30.45" y="1029.78">28</text><text fill="#000000" font-family="sans-serif" font-size="9.1" lengthAdjust="spacing" textLength="106.4" x="43.05" y="1029.78">informs operation success</text><!--SRC=[jLPDZvim4BtpAqQvD5bf_q0EbT9TjLgfKbTQxQqNnqo86x2fRNRBl-zWlWoO45ej9q9c7c_UcnbiBaBcJBCCCYKLFskL8LXTO6IwVtB6Bop15rkc21gvPJ99_G1pPh5w5pA14qiDHX4hh995TaGTHP_E8aOuAMMFwa_4k5KQDeS4fTq0C-3k8iAnWekSIGkR_NDnJ8Kv7wHKXUIOKSJhauj-VLeEVL3IQfMcg5rA_tEOIXL9NlwK-uExwSZmCgfOYZTciM4N0Ltk5ku_4mVOK_35W5MGr-y71eQHEipZKQTrK4JTFQWkWY2WdjdT7K5oZHGt6qCH2TfdhNBKjdoWq4JfyhimThlhaZIUGBrHi5SrUDStjD12G8i15KXF3cLSuVGFkX8yq06gH_A-5IWF4EsIOhoAMPLEEBNYUselzMuwGE0jRHBUak9nPuP9aReJbAnLzDxIYZyqqM1AyORCcu27lMk8kUGBOZvsOpkk-X4DroAtGibT3p6rTT2_TQv0qnWxgzMIswtZFlgSwnFdGwQoAStUs7ynrGSS6Rjr0qNBGjD_BDqDdNREaTFhZBPddCxfIiy3LfNRa31JxmCoQFnTe25gCRFijc9icQDf4p7kCrTHVwIiRPKwwCkHEsdgq9tq7LEkv4deZ5M5tSQuoJ3pB4SJaK-tUiDrzJvQNg5VVAUkJx3_aaKMjqxe_5x-SVn5RJj5dMpecKKyr7HKs21vONQNHGrDnL3OnH7v477drzygSQy96ohi5d5NoLlDqrSwdBsWCPMQ7zoBthadfCsrlXkhuv3-gzVgKrbuAypeq1xaPZLe0aBrDqVAGTi4fPW-h56ljyYS5Y7Aas_mRL0p1lkVdZq8ULAqaw7Q2cwNWoauf_OAxVGHJnlz1G00]--></g></svg>