<?xml version="1.0" encoding="us-ascii" standalone="no"?><svg xmlns="http://www.w3.org/2000/svg" xmlns:xlink="http://www.w3.org/1999/xlink" contentStyleType="text/css" height="291.9px" preserveAspectRatio="none" style="width:555px;height:291px;background:#FFFFFF;" version="1.1" viewBox="0 0 555 291" width="555.8px" zoomAndPan="magnify"><defs/><g><rect fill="#FFFFFF" height="176.6297" style="stroke:#181818;stroke-width:0.6999999999999998;" width="7" x="171.5" y="63.3732"/><rect fill="#FFFFFF" height="21.9037" style="stroke:#181818;stroke-width:0.6999999999999998;" width="7" x="288.4" y="103.6807"/><rect fill="#FFFFFF" height="21.9037" style="stroke:#181818;stroke-width:0.6999999999999998;" width="7" x="361.9" y="147.4881"/><rect fill="#FFFFFF" height="21.9037" style="stroke:#181818;stroke-width:0.6999999999999998;" width="7" x="472.5" y="191.2955"/><rect fill="none" height="144.926" style="stroke:#000000;stroke-width:1.0499999999999998;" width="461.3" x="90.65" y="73.8732"/><line style="stroke:#181818;stroke-width:0.3499999999999999;stroke-dasharray:5.0,5.0;" x1="174.65" x2="174.65" y1="40.0695" y2="252.6029"/><line style="stroke:#181818;stroke-width:0.3499999999999999;stroke-dasharray:5.0,5.0;" x1="291.55" x2="291.55" y1="40.0695" y2="252.6029"/><line style="stroke:#181818;stroke-width:0.3499999999999999;stroke-dasharray:5.0,5.0;" x1="365.05" x2="365.05" y1="40.0695" y2="252.6029"/><line style="stroke:#181818;stroke-width:0.3499999999999999;stroke-dasharray:5.0,5.0;" x1="475.65" x2="475.65" y1="40.0695" y2="252.6029"/><rect fill="#E3E3E3" height="22.8348" rx="1.75" ry="1.75" style="stroke:#181818;stroke-width:0.3499999999999999;" width="154.7" x="97.65" y="16.5348"/><text fill="#000000" font-family="sans-serif" font-size="9.8" lengthAdjust="spacing" textLength="144.9" x="102.55" y="32.01">:PublishAnnouncementController</text><rect fill="#E3E3E3" height="22.8348" rx="1.75" ry="1.75" style="stroke:#181818;stroke-width:0.3499999999999999;" width="154.7" x="97.65" y="251.9029"/><text fill="#000000" font-family="sans-serif" font-size="9.8" lengthAdjust="spacing" textLength="144.9" x="102.55" y="267.3781">:PublishAnnouncementController</text><rect fill="#E3E3E3" height="22.8348" rx="1.75" ry="1.75" style="stroke:#181818;stroke-width:0.3499999999999999;" width="65.1" x="259.35" y="16.5348"/><text fill="#000000" font-family="sans-serif" font-size="9.8" lengthAdjust="spacing" textLength="55.3" x="264.25" y="32.01">Repositories</text><rect fill="#E3E3E3" height="22.8348" rx="1.75" ry="1.75" style="stroke:#181818;stroke-width:0.3499999999999999;" width="65.1" x="259.35" y="251.9029"/><text fill="#000000" font-family="sans-serif" font-size="9.8" lengthAdjust="spacing" textLength="55.3" x="264.25" y="267.3781">Repositories</text><rect fill="#E3E3E3" height="35.8695" rx="1.75" ry="1.75" style="stroke:#181818;stroke-width:0.3499999999999999;" width="67.9" x="331.45" y="3.5"/><text fill="#000000" font-family="sans-serif" font-size="9.8" lengthAdjust="spacing" textLength="51.8" x="339.5" y="18.9752">repositories</text><text fill="#000000" font-family="sans-serif" font-size="9.8" lengthAdjust="spacing" textLength="58.1" x="336.35" y="32.01">:Repositories</text><rect fill="#E3E3E3" height="35.8695" rx="1.75" ry="1.75" style="stroke:#181818;stroke-width:0.3499999999999999;" width="67.9" x="331.45" y="251.9029"/><text fill="#000000" font-family="sans-serif" font-size="9.8" lengthAdjust="spacing" textLength="51.8" x="339.5" y="267.3781">repositories</text><text fill="#000000" font-family="sans-serif" font-size="9.8" lengthAdjust="spacing" textLength="58.1" x="336.35" y="280.4129">:Repositories</text><rect fill="#E3E3E3" height="35.8695" rx="1.75" ry="1.75" style="stroke:#181818;stroke-width:0.3499999999999999;" width="137.9" x="407.05" y="3.5"/><text fill="#000000" font-family="sans-serif" font-size="9.8" lengthAdjust="spacing" textLength="128.1" x="411.95" y="18.9752">propertyCategoryRepository:</text><text fill="#000000" font-family="sans-serif" font-size="9.8" lengthAdjust="spacing" textLength="126" x="413" y="32.01">PropertyCategoryRepository</text><rect fill="#E3E3E3" height="35.8695" rx="1.75" ry="1.75" style="stroke:#181818;stroke-width:0.3499999999999999;" width="137.9" x="407.05" y="251.9029"/><text fill="#000000" font-family="sans-serif" font-size="9.8" lengthAdjust="spacing" textLength="128.1" x="411.95" y="267.3781">propertyCategoryRepository:</text><text fill="#000000" font-family="sans-serif" font-size="9.8" lengthAdjust="spacing" textLength="126" x="413" y="280.4129">PropertyCategoryRepository</text><rect fill="#FFFFFF" height="176.6297" style="stroke:#181818;stroke-width:0.6999999999999998;" width="7" x="171.5" y="63.3732"/><rect fill="#FFFFFF" height="21.9037" style="stroke:#181818;stroke-width:0.6999999999999998;" width="7" x="288.4" y="103.6807"/><rect fill="#FFFFFF" height="21.9037" style="stroke:#181818;stroke-width:0.6999999999999998;" width="7" x="361.9" y="147.4881"/><rect fill="#FFFFFF" height="21.9037" style="stroke:#181818;stroke-width:0.6999999999999998;" width="7" x="472.5" y="191.2955"/><polygon fill="#181818" points="163.1,60.5732,170.1,63.3732,163.1,66.1732,165.9,63.3732" style="stroke:#181818;stroke-width:0.6999999999999998;"/><line style="stroke:#181818;stroke-width:0.6999999999999998;" x1="0" x2="167.3" y1="63.3732" y2="63.3732"/><text fill="#000000" font-family="sans-serif" font-size="9.1" font-weight="bold" lengthAdjust="spacing" textLength="9.8" x="4.9" y="59.6894">19</text><text fill="#000000" font-family="sans-serif" font-size="9.1" lengthAdjust="spacing" textLength="145.6" x="17.5" y="59.6894">getPropertyCategoryByDescription()</text><path d="M90.65,73.8732 L252.35,73.8732 L252.35,80.377 L245.35,87.377 L90.65,87.377 L90.65,73.8732 " fill="#EEEEEE" style="stroke:#000000;stroke-width:1.0499999999999998;"/><rect fill="none" height="144.926" style="stroke:#000000;stroke-width:1.0499999999999998;" width="461.3" x="90.65" y="73.8732"/><text fill="#000000" font-family="sans-serif" font-size="9.1" font-weight="bold" lengthAdjust="spacing" textLength="130.2" x="101.15" y="84.3931">Get Property Category Object</text><polygon fill="#181818" points="280,100.8807,287,103.6807,280,106.4807,282.8,103.6807" style="stroke:#181818;stroke-width:0.6999999999999998;"/><line style="stroke:#181818;stroke-width:0.6999999999999998;" x1="178.5" x2="284.2" y1="103.6807" y2="103.6807"/><text fill="#000000" font-family="sans-serif" font-size="9.1" font-weight="bold" lengthAdjust="spacing" textLength="17.5" x="183.4" y="99.9968">19.1</text><text fill="#000000" font-family="sans-serif" font-size="9.1" lengthAdjust="spacing" textLength="52.5" x="203.7" y="99.9968">getInstance()</text><polygon fill="#181818" points="186.2,122.7844,179.2,125.5844,186.2,128.3844,183.4,125.5844" style="stroke:#181818;stroke-width:0.6999999999999998;"/><line style="stroke:#181818;stroke-width:0.6999999999999998;" x1="182" x2="291.2" y1="125.5844" y2="125.5844"/><text fill="#000000" font-family="sans-serif" font-size="9.1" font-weight="bold" lengthAdjust="spacing" textLength="17.5" x="190.4" y="121.9005">19.2</text><text fill="#000000" font-family="sans-serif" font-size="9.1" lengthAdjust="spacing" textLength="46.9" x="210.7" y="121.9005">repositories</text><polygon fill="#181818" points="353.5,144.6881,360.5,147.4881,353.5,150.2881,356.3,147.4881" style="stroke:#181818;stroke-width:0.6999999999999998;"/><line style="stroke:#181818;stroke-width:0.6999999999999998;" x1="178.5" x2="357.7" y1="147.4881" y2="147.4881"/><text fill="#000000" font-family="sans-serif" font-size="9.1" font-weight="bold" lengthAdjust="spacing" textLength="17.5" x="183.4" y="143.8042">19.3</text><text fill="#000000" font-family="sans-serif" font-size="9.1" lengthAdjust="spacing" textLength="132.3" x="203.7" y="143.8042">getPropertyCategoryRepository()</text><polygon fill="#181818" points="186.2,166.5918,179.2,169.3918,186.2,172.1918,183.4,169.3918" style="stroke:#181818;stroke-width:0.6999999999999998;"/><line style="stroke:#181818;stroke-width:0.6999999999999998;stroke-dasharray:2.0,2.0;" x1="182" x2="364.7" y1="169.3918" y2="169.3918"/><text fill="#000000" font-family="sans-serif" font-size="9.1" font-weight="bold" lengthAdjust="spacing" textLength="17.5" x="190.4" y="165.7079">19.4</text><text fill="#000000" font-family="sans-serif" font-size="9.1" lengthAdjust="spacing" textLength="112.7" x="210.7" y="165.7079">propertyCategoryRepository</text><polygon fill="#181818" points="464.1,188.4955,471.1,191.2955,464.1,194.0955,466.9,191.2955" style="stroke:#181818;stroke-width:0.6999999999999998;"/><line style="stroke:#181818;stroke-width:0.6999999999999998;" x1="178.5" x2="468.3" y1="191.2955" y2="191.2955"/><text fill="#000000" font-family="sans-serif" font-size="9.1" font-weight="bold" lengthAdjust="spacing" textLength="17.5" x="183.4" y="187.6116">19.5</text><text fill="#000000" font-family="sans-serif" font-size="9.1" lengthAdjust="spacing" textLength="260.4" x="203.7" y="187.6116">getPropertyCategoryByDescription(propertyCategoryDescription)</text><polygon fill="#181818" points="186.2,210.3992,179.2,213.1992,186.2,215.9992,183.4,213.1992" style="stroke:#181818;stroke-width:0.6999999999999998;"/><line style="stroke:#181818;stroke-width:0.6999999999999998;stroke-dasharray:2.0,2.0;" x1="182" x2="475.3" y1="213.1992" y2="213.1992"/><text fill="#000000" font-family="sans-serif" font-size="9.1" font-weight="bold" lengthAdjust="spacing" textLength="17.5" x="190.4" y="209.5153">19.6</text><text fill="#000000" font-family="sans-serif" font-size="9.1" lengthAdjust="spacing" textLength="69.3" x="210.7" y="209.5153">propertyCategory</text><polygon fill="#181818" points="7.7,237.2029,0.7,240.0029,7.7,242.8029,4.9,240.0029" style="stroke:#181818;stroke-width:0.6999999999999998;"/><line style="stroke:#181818;stroke-width:0.6999999999999998;stroke-dasharray:2.0,2.0;" x1="3.5" x2="174.3" y1="240.0029" y2="240.0029"/><text fill="#000000" font-family="sans-serif" font-size="9.1" font-weight="bold" lengthAdjust="spacing" textLength="9.8" x="11.9" y="236.319">20</text><text fill="#000000" font-family="sans-serif" font-size="9.1" lengthAdjust="spacing" textLength="69.3" x="24.5" y="236.319">propertyCategory</text><!--SRC=[ZLF1JiCm3BtdAonES2XYtAWG4Wm9SM9Yrrsop7HXhHCbBgX_JrQfQRgsOxvKjP_jzsp77pHPwMG5bI6ZzivK2Eng53v6h5G7MU2QcnB1eM99HPa2_5xkpA-c0hvawL68u6Qjj9N4S9Mlwcsf_VwPoDIai4BYfI5sfYpHNO7qqFyEKp_H6g_PE8s-1KP7izP74cnecE6IZ0tbPmgyamz250xphJCM7JTBoLW4L8_FDxIQ3RQrkt3l5aBMWM9TRT71ua5aJubKoA50FgtvqhoYLqvRreQkRuO5RXT2AjO_0PlEJ42mmfdQmXjov05TJVZOVeUrjR2Z9Hm2eucPjiow0GKINM9iFhM7Y3hQ1006wdD8LnLpTtXPZpa97Ud9sVQmyvhYQSn8wkAGdKYQlvxp0iSDX_h6btN1xPoIIM8JwgUEDrK_Zl-hVahpN1kaNVjDplt-hlKyPjdmqOpQ9EMJH_47]--></g></svg>