<?xml version="1.0" encoding="us-ascii" standalone="no"?><svg xmlns="http://www.w3.org/2000/svg" xmlns:xlink="http://www.w3.org/1999/xlink" contentStyleType="text/css" height="266px" preserveAspectRatio="none" style="width:368px;height:265px;background:#FFFFFF;" version="1.1" viewBox="0 0 368 265" width="368.2px" zoomAndPan="magnify"><defs/><g><rect fill="#FFFFFF" height="150.7844" style="stroke:#181818;stroke-width:0.6999999999999998;" width="7" x="121.1" y="63.3732"/><rect fill="none" height="119.0807" style="stroke:#000000;stroke-width:1.0499999999999998;" width="269.5" x="94.85" y="73.8732"/><line style="stroke:#181818;stroke-width:0.3499999999999999;stroke-dasharray:5.0,5.0;" x1="124.25" x2="124.25" y1="40.0695" y2="226.7576"/><line style="stroke:#181818;stroke-width:0.3499999999999999;stroke-dasharray:5.0,5.0;" x1="317.45" x2="317.45" y1="116.1617" y2="226.7576"/><rect fill="#E3E3E3" height="35.8695" rx="1.75" ry="1.75" style="stroke:#181818;stroke-width:0.3499999999999999;" width="45.5" x="101.85" y="3.5"/><text fill="#000000" font-family="sans-serif" font-size="9.8" lengthAdjust="spacing" textLength="32.2" x="108.5" y="18.9752">agency</text><text fill="#000000" font-family="sans-serif" font-size="9.8" lengthAdjust="spacing" textLength="35.7" x="106.75" y="32.01">:Agency</text><rect fill="#E3E3E3" height="35.8695" rx="1.75" ry="1.75" style="stroke:#181818;stroke-width:0.3499999999999999;" width="45.5" x="101.85" y="226.0576"/><text fill="#000000" font-family="sans-serif" font-size="9.8" lengthAdjust="spacing" textLength="32.2" x="108.5" y="241.5328">agency</text><text fill="#000000" font-family="sans-serif" font-size="9.8" lengthAdjust="spacing" textLength="35.7" x="106.75" y="254.5676">:Agency</text><rect fill="#E3E3E3" height="35.8695" rx="1.75" ry="1.75" style="stroke:#181818;stroke-width:0.3499999999999999;" width="79.1" x="278.25" y="226.0576"/><text fill="#000000" font-family="sans-serif" font-size="9.8" lengthAdjust="spacing" textLength="65.8" x="284.9" y="241.5328">announcement</text><text fill="#000000" font-family="sans-serif" font-size="9.8" lengthAdjust="spacing" textLength="69.3" x="283.15" y="254.5676">:Announcement</text><rect fill="#FFFFFF" height="150.7844" style="stroke:#181818;stroke-width:0.6999999999999998;" width="7" x="121.1" y="63.3732"/><polygon fill="#181818" points="112.7,60.5732,119.7,63.3732,112.7,66.1732,115.5,63.3732" style="stroke:#181818;stroke-width:0.6999999999999998;"/><line style="stroke:#181818;stroke-width:0.6999999999999998;" x1="0" x2="116.9" y1="63.3732" y2="63.3732"/><text fill="#000000" font-family="sans-serif" font-size="9.1" font-weight="bold" lengthAdjust="spacing" textLength="9.8" x="4.9" y="59.6894">25</text><text fill="#000000" font-family="sans-serif" font-size="9.1" lengthAdjust="spacing" textLength="95.2" x="17.5" y="59.6894">publishAnnouncement()</text><path d="M94.85,73.8732 L229.25,73.8732 L229.25,80.377 L222.25,87.377 L94.85,87.377 L94.85,73.8732 " fill="#EEEEEE" style="stroke:#000000;stroke-width:1.0499999999999998;"/><rect fill="none" height="119.0807" style="stroke:#000000;stroke-width:1.0499999999999998;" width="269.5" x="94.85" y="73.8732"/><text fill="#000000" font-family="sans-serif" font-size="9.1" font-weight="bold" lengthAdjust="spacing" textLength="102.9" x="105.35" y="84.3931">Publish Announcement</text><polygon fill="#181818" points="269.85,100.8807,276.85,103.6807,269.85,106.4807,272.65,103.6807" style="stroke:#181818;stroke-width:0.6999999999999998;"/><line style="stroke:#181818;stroke-width:0.6999999999999998;" x1="128.1" x2="274.05" y1="103.6807" y2="103.6807"/><text fill="#000000" font-family="sans-serif" font-size="9.1" font-weight="bold" lengthAdjust="spacing" textLength="17.5" x="133" y="99.9968">25.1</text><text fill="#000000" font-family="sans-serif" font-size="9.1" lengthAdjust="spacing" textLength="34.3" x="153.3" y="99.9968">publish()</text><rect fill="#E3E3E3" height="35.8695" rx="1.75" ry="1.75" style="stroke:#181818;stroke-width:0.3499999999999999;" width="79.1" x="278.25" y="87.377"/><text fill="#000000" font-family="sans-serif" font-size="9.8" lengthAdjust="spacing" textLength="65.8" x="284.9" y="102.8521">announcement</text><text fill="#000000" font-family="sans-serif" font-size="9.8" lengthAdjust="spacing" textLength="69.3" x="283.15" y="115.8869">:Announcement</text><line style="stroke:#181818;stroke-width:0.6999999999999998;" x1="128.1" x2="157.5" y1="147.2502" y2="147.2502"/><line style="stroke:#181818;stroke-width:0.6999999999999998;" x1="157.5" x2="157.5" y1="147.2502" y2="156.3502"/><line style="stroke:#181818;stroke-width:0.6999999999999998;" x1="128.8" x2="157.5" y1="156.3502" y2="156.3502"/><polygon fill="#181818" points="135.8,153.5502,128.8,156.3502,135.8,159.1502,133,156.3502" style="stroke:#181818;stroke-width:0.6999999999999998;"/><text fill="#000000" font-family="sans-serif" font-size="9.1" font-weight="bold" lengthAdjust="spacing" textLength="17.5" x="133" y="143.5663">25.2</text><text fill="#000000" font-family="sans-serif" font-size="9.1" lengthAdjust="spacing" textLength="143.5" x="153.3" y="143.5663">addAnnouncement (announcement)</text><line style="stroke:#181818;stroke-width:0.6999999999999998;" x1="128.1" x2="157.5" y1="178.2539" y2="178.2539"/><line style="stroke:#181818;stroke-width:0.6999999999999998;" x1="157.5" x2="157.5" y1="178.2539" y2="187.3539"/><line style="stroke:#181818;stroke-width:0.6999999999999998;" x1="128.8" x2="157.5" y1="187.3539" y2="187.3539"/><polygon fill="#181818" points="135.8,184.5539,128.8,187.3539,135.8,190.1539,133,187.3539" style="stroke:#181818;stroke-width:0.6999999999999998;"/><text fill="#000000" font-family="sans-serif" font-size="9.1" font-weight="bold" lengthAdjust="spacing" textLength="17.5" x="133" y="174.57">25.3</text><text fill="#000000" font-family="sans-serif" font-size="9.1" lengthAdjust="spacing" textLength="156.1" x="153.3" y="174.57">validateAnnouncement(announcement)</text><polygon fill="#181818" points="7.7,211.3576,0.7,214.1576,7.7,216.9576,4.9,214.1576" style="stroke:#181818;stroke-width:0.6999999999999998;"/><line style="stroke:#181818;stroke-width:0.6999999999999998;stroke-dasharray:2.0,2.0;" x1="3.5" x2="123.9" y1="214.1576" y2="214.1576"/><text fill="#000000" font-family="sans-serif" font-size="9.1" font-weight="bold" lengthAdjust="spacing" textLength="9.8" x="11.9" y="210.4737">26</text><text fill="#000000" font-family="sans-serif" font-size="9.1" lengthAdjust="spacing" textLength="59.5" x="24.5" y="210.4737">announcement</text><!--SRC=[RL3BQiCm4BphAvQSae0BAII7K0hzWq9px6KZRMrXQINqICdVLxPZexhTqsftPdP6iTViCQ05wzZ9BZXBa48c4PUDHzbZIn_fRWW2oOJScXeGErJkMtCBNsWY2L76IKljaHDi2fNb_PFFRsEp0OmmjIiSiyiioHAd0LqzHyu5Ooy4vkGusoi5U3wAvlKXTGQVhqR7hgPjTolyqq6WJFg6YMOBKAeDBdjudmIWLX3ZVgW93kNWu6E_NmwM8tyniobKgfQ3RHsok5ke_zDlQBGgPd-5MaaCJ68rDNNQqpXvQPfPkDYfeobQ_uNu0G00]--></g></svg>