<?xml version="1.0" encoding="us-ascii" standalone="no"?><svg xmlns="http://www.w3.org/2000/svg" xmlns:xlink="http://www.w3.org/1999/xlink" contentStyleType="text/css" height="582px" preserveAspectRatio="none" style="width:1083px;height:582px;background:#FFFFFF;" version="1.1" viewBox="0 0 1083 582" width="1083px" zoomAndPan="magnify"><defs/><g><text fill="#000000" font-family="sans-serif" font-size="14" font-weight="bold" lengthAdjust="spacing" textLength="156" x="456.5" y="25.1074">US002 - Domain Model</text><!--class Agent--><g id="elem_Agent"><rect codeLine="14" fill="#F1F1F1" height="36.6211" id="Agent" rx="2.5" ry="2.5" style="stroke:#181818;stroke-width:0.5;" width="43" x="32.5" y="222.1211"/><text fill="#000000" font-family="sans-serif" font-size="14" lengthAdjust="spacing" textLength="37" x="35.5" y="242.2285">Agent</text><line style="stroke:#181818;stroke-width:0.5;" x1="33.5" x2="74.5" y1="250.7422" y2="250.7422"/></g><!--class Announcement--><g id="elem_Announcement"><rect codeLine="17" fill="#F1F1F1" height="55.2422" id="Announcement" rx="2.5" ry="2.5" style="stroke:#181818;stroke-width:0.5;" width="115" x="254" y="215.1211"/><text fill="#000000" font-family="sans-serif" font-size="14" lengthAdjust="spacing" textLength="95" x="264" y="235.2285">Announcement</text><line style="stroke:#181818;stroke-width:0.5;" x1="255" x2="368" y1="243.7422" y2="243.7422"/><text fill="#000000" font-family="sans-serif" font-size="14" lengthAdjust="spacing" textLength="103" x="260" y="262.8496">-publicationDate</text></g><!--class Address--><g id="elem_Address"><rect codeLine="22" fill="#F1F1F1" height="129.7266" id="Address" rx="2.5" ry="2.5" style="stroke:#181818;stroke-width:0.5;" width="68" x="527" y="49.6211"/><text fill="#000000" font-family="sans-serif" font-size="14" lengthAdjust="spacing" textLength="52" x="535" y="69.7285">Address</text><line style="stroke:#181818;stroke-width:0.5;" x1="528" x2="594" y1="78.2422" y2="78.2422"/><text fill="#000000" font-family="sans-serif" font-size="14" lengthAdjust="spacing" textLength="36" x="533" y="97.3496">-state</text><text fill="#000000" font-family="sans-serif" font-size="14" lengthAdjust="spacing" textLength="26" x="533" y="115.9707">-city</text><text fill="#000000" font-family="sans-serif" font-size="14" lengthAdjust="spacing" textLength="46" x="533" y="134.5918">-district</text><text fill="#000000" font-family="sans-serif" font-size="14" lengthAdjust="spacing" textLength="41" x="533" y="153.2129">-street</text><text fill="#000000" font-family="sans-serif" font-size="14" lengthAdjust="spacing" textLength="56" x="533" y="171.834">-zipCode</text></g><!--class SaleRequest--><g id="elem_SaleRequest"><rect codeLine="30" fill="#F1F1F1" height="55.2422" id="SaleRequest" rx="2.5" ry="2.5" style="stroke:#181818;stroke-width:0.5;" width="113" x="504.5" y="215.1211"/><text fill="#000000" font-family="sans-serif" font-size="14" lengthAdjust="spacing" textLength="81" x="520.5" y="235.2285">SaleRequest</text><line style="stroke:#181818;stroke-width:0.5;" x1="505.5" x2="616.5" y1="243.7422" y2="243.7422"/><text fill="#000000" font-family="sans-serif" font-size="14" lengthAdjust="spacing" textLength="101" x="510.5" y="262.8496">-requestedPrice</text></g><!--class AnnouncementCategory--><g id="elem_AnnouncementCategory"><rect codeLine="34" fill="#F1F1F1" height="36.6211" id="AnnouncementCategory" rx="2.5" ry="2.5" style="stroke:#181818;stroke-width:0.5;" width="159" x="232" y="306.1211"/><text fill="#000000" font-family="sans-serif" font-size="14" lengthAdjust="spacing" textLength="153" x="235" y="326.2285">AnnouncementCategory</text><line style="stroke:#181818;stroke-width:0.5;" x1="233" x2="390" y1="334.7422" y2="334.7422"/></g><!--class PropertyCategory--><g id="elem_PropertyCategory"><rect codeLine="37" fill="#F1F1F1" height="36.6211" id="PropertyCategory" rx="2.5" ry="2.5" style="stroke:#181818;stroke-width:0.5;" width="118" x="502" y="419.1211"/><text fill="#000000" font-family="sans-serif" font-size="14" lengthAdjust="spacing" textLength="112" x="505" y="439.2285">PropertyCategory</text><line style="stroke:#181818;stroke-width:0.5;" x1="503" x2="619" y1="447.7422" y2="447.7422"/></g><!--class Land--><g id="elem_Land"><rect codeLine="40" fill="#F1F1F1" height="73.8633" id="Land" rx="2.5" ry="2.5" style="stroke:#181818;stroke-width:0.5;" width="170" x="476" y="491.6211"/><text fill="#000000" font-family="sans-serif" font-size="14" lengthAdjust="spacing" textLength="32" x="545" y="511.7285">Land</text><line style="stroke:#181818;stroke-width:0.5;" x1="477" x2="645" y1="520.2422" y2="520.2422"/><text fill="#000000" font-family="sans-serif" font-size="14" lengthAdjust="spacing" textLength="34" x="482" y="539.3496">-area</text><text fill="#000000" font-family="sans-serif" font-size="14" lengthAdjust="spacing" textLength="158" x="482" y="557.9707">-distanceFromCityCentre</text></g><!--class House--><g id="elem_House"><rect codeLine="45" fill="#F1F1F1" height="92.4844" id="House" rx="2.5" ry="2.5" style="stroke:#181818;stroke-width:0.5;" width="133" x="943" y="482.6211"/><text fill="#000000" font-family="sans-serif" font-size="14" lengthAdjust="spacing" textLength="40" x="989.5" y="502.7285">House</text><line style="stroke:#181818;stroke-width:0.5;" x1="944" x2="1075" y1="511.2422" y2="511.2422"/><text fill="#000000" font-family="sans-serif" font-size="14" lengthAdjust="spacing" textLength="91" x="949" y="530.3496">-hasBasement</text><text fill="#000000" font-family="sans-serif" font-size="14" lengthAdjust="spacing" textLength="121" x="949" y="548.9707">-hasInhabitableLoft</text><text fill="#000000" font-family="sans-serif" font-size="14" lengthAdjust="spacing" textLength="87" x="949" y="567.5918">-sunExposure</text></g><!--class Apartment--><g id="elem_Apartment"><rect codeLine="51" fill="#F1F1F1" height="92.4844" id="Apartment" rx="2.5" ry="2.5" style="stroke:#181818;stroke-width:0.5;" width="175" x="707" y="482.6211"/><text fill="#000000" font-family="sans-serif" font-size="14" lengthAdjust="spacing" textLength="65" x="762" y="502.7285">Apartment</text><line style="stroke:#181818;stroke-width:0.5;" x1="708" x2="881" y1="511.2422" y2="511.2422"/><text fill="#000000" font-family="sans-serif" font-size="14" lengthAdjust="spacing" textLength="132" x="713" y="530.3496">-numberOfBedrooms</text><text fill="#000000" font-family="sans-serif" font-size="14" lengthAdjust="spacing" textLength="136" x="713" y="548.9707">-numberOfBathrooms</text><text fill="#000000" font-family="sans-serif" font-size="14" lengthAdjust="spacing" textLength="163" x="713" y="567.5918">-numberOfParkingSpaces</text></g><!--class AvailableEquipment--><g id="elem_AvailableEquipment"><rect codeLine="58" fill="#F1F1F1" height="73.8633" id="AvailableEquipment" rx="2.5" ry="2.5" style="stroke:#181818;stroke-width:0.5;" width="130" x="729.5" y="373.6211"/><text fill="#000000" font-family="sans-serif" font-size="14" lengthAdjust="spacing" textLength="124" x="732.5" y="393.7285">AvailableEquipment</text><line style="stroke:#181818;stroke-width:0.5;" x1="730.5" x2="858.5" y1="402.2422" y2="402.2422"/><text fill="#000000" font-family="sans-serif" font-size="14" lengthAdjust="spacing" textLength="99" x="735.5" y="421.3496">-central heating</text><text fill="#000000" font-family="sans-serif" font-size="14" lengthAdjust="spacing" textLength="101" x="735.5" y="439.9707">-air conditioning</text></g><!--class Photographs--><g id="elem_Photographs"><rect codeLine="63" fill="#F1F1F1" height="55.2422" id="Photographs" rx="2.5" ry="2.5" style="stroke:#181818;stroke-width:0.5;" width="108" x="257.5" y="501.1211"/><text fill="#000000" font-family="sans-serif" font-size="14" lengthAdjust="spacing" textLength="81" x="271" y="521.2285">Photographs</text><line style="stroke:#181818;stroke-width:0.5;" x1="258.5" x2="364.5" y1="529.7422" y2="529.7422"/><text fill="#000000" font-family="sans-serif" font-size="14" lengthAdjust="spacing" textLength="96" x="263.5" y="548.8496">-photographies</text></g><!--class Commission--><g id="elem_Commission"><rect codeLine="67" fill="#F1F1F1" height="36.6211" id="Commission" rx="2.5" ry="2.5" style="stroke:#181818;stroke-width:0.5;" width="82" x="270.5" y="143.1211"/><text fill="#000000" font-family="sans-serif" font-size="14" lengthAdjust="spacing" textLength="76" x="273.5" y="163.2285">Commission</text><line style="stroke:#181818;stroke-width:0.5;" x1="271.5" x2="351.5" y1="171.7422" y2="171.7422"/></g><g id="elem_GMN14"><path d="M246.5,45.6211 L246.5,107.4941 A0,0 0 0 0 246.5,107.4941 L307.5,107.4941 L311.5,143.0311 L315.5,107.4941 L376.5,107.4941 A0,0 0 0 0 376.5,107.4941 L376.5,55.6211 L366.5,45.6211 L246.5,45.6211 A0,0 0 0 0 246.5,45.6211 " fill="#FAFAFA" style="stroke:#181818;stroke-width:0.5;"/><path d="M366.5,45.6211 L366.5,55.6211 L376.5,55.6211 L366.5,45.6211 " fill="#FAFAFA" style="stroke:#181818;stroke-width:0.5;"/><text fill="#000000" font-family="sans-serif" font-size="13" lengthAdjust="spacing" textLength="71" x="252.5" y="64.6494">-description:</text><text fill="#000000" font-family="sans-serif" font-size="13" lengthAdjust="spacing" textLength="93" x="268.5" y="81.9404">1 - fixed amount</text><text fill="#000000" font-family="sans-serif" font-size="13" lengthAdjust="spacing" textLength="83" x="268.5" y="99.2314">2 - percentage</text></g><g id="elem_GMN17"><path d="M6,294.6211 L6,356.4941 A0,0 0 0 0 6,356.4941 L102,356.4941 A0,0 0 0 0 102,356.4941 L102,329.4411 L232,324.9311 L102,321.4411 L102,304.6211 L92,294.6211 L6,294.6211 A0,0 0 0 0 6,294.6211 " fill="#FAFAFA" style="stroke:#181818;stroke-width:0.5;"/><path d="M92,294.6211 L92,304.6211 L102,304.6211 L92,294.6211 " fill="#FAFAFA" style="stroke:#181818;stroke-width:0.5;"/><text fill="#000000" font-family="sans-serif" font-size="13" lengthAdjust="spacing" textLength="75" x="12" y="313.6494">- description:</text><text fill="#000000" font-family="sans-serif" font-size="13" lengthAdjust="spacing" textLength="43" x="28" y="330.9404">1 - sale</text><text fill="#000000" font-family="sans-serif" font-size="13" lengthAdjust="spacing" textLength="41" x="28" y="348.2314">2 - rent</text></g><g id="elem_GMN20"><path d="M504,305.1211 L504,384.2852 A0,0 0 0 0 504,384.2852 L557,384.2852 L561,419.0911 L565,384.2852 L618,384.2852 A0,0 0 0 0 618,384.2852 L618,315.1211 L608,305.1211 L504,305.1211 A0,0 0 0 0 504,305.1211 " fill="#FAFAFA" style="stroke:#181818;stroke-width:0.5;"/><path d="M608,305.1211 L608,315.1211 L618,315.1211 L608,305.1211 " fill="#FAFAFA" style="stroke:#181818;stroke-width:0.5;"/><text fill="#000000" font-family="sans-serif" font-size="13" lengthAdjust="spacing" textLength="75" x="510" y="324.1494">- description:</text><text fill="#000000" font-family="sans-serif" font-size="13" lengthAdjust="spacing" textLength="43" x="526" y="341.4404">1 - land</text><text fill="#000000" font-family="sans-serif" font-size="13" lengthAdjust="spacing" textLength="77" x="526" y="358.7314">2 - apartment</text><text fill="#000000" font-family="sans-serif" font-size="13" lengthAdjust="spacing" textLength="54" x="526" y="376.0225">3 - house</text></g><!--link Agent to Announcement--><g id="link_Agent_Announcement"><path codeLine="89" d="M75.91,240.7811 C114.4,241.0911 197.69,241.7411 253.94,242.1811 " fill="none" id="Agent-Announcement" style="stroke:#181818;stroke-width:1.0;"/><polygon fill="#000000" points="141.9998,232.3059,132.9782,229.296,132.9319,235.1736,141.9998,232.3059" style="stroke:#000000;stroke-width:1.0;"/><text fill="#000000" font-family="sans-serif" font-size="13" lengthAdjust="spacing" textLength="55" x="146" y="237.6494">publishes</text><text fill="#000000" font-family="sans-serif" font-size="13" lengthAdjust="spacing" textLength="7" x="83.3742" y="257.4517">1</text><text fill="#000000" font-family="sans-serif" font-size="13" lengthAdjust="spacing" textLength="20" x="226.1284" y="257.1442">0..*</text></g><!--link Announcement to SaleRequest--><g id="link_Announcement_SaleRequest"><path codeLine="90" d="M369.28,242.6211 C409.81,242.6211 464.06,242.6211 504.34,242.6211 " fill="none" id="Announcement-SaleRequest" style="stroke:#181818;stroke-width:1.0;"/></g><!--link Announcement to Land--><g id="link_Announcement_Land"><path codeLine="91" d="M369.3,270.1411 C377.2,275.5411 384.75,281.7111 391,288.6211 C451.73,355.7011 416.96,405.0511 476,473.6211 C481.57,480.0911 488.09,486.1011 494.99,491.5911 " fill="none" id="Announcement-Land" style="stroke:#181818;stroke-width:1.0;"/><polygon fill="#000000" points="428.4681,332.615,426.5592,323.298,421.4474,326.1994,428.4681,332.615" style="stroke:#000000;stroke-width:1.0;"/><text fill="#000000" font-family="sans-serif" font-size="13" lengthAdjust="spacing" textLength="10" x="435" y="333.6494">of</text><text fill="#000000" font-family="sans-serif" font-size="13" lengthAdjust="spacing" textLength="7" x="374.8569" y="292.5047">1</text><text fill="#000000" font-family="sans-serif" font-size="13" lengthAdjust="spacing" textLength="7" x="475.1741" y="480.2643">1</text></g><!--link PropertyCategory to Land--><g id="link_PropertyCategory_Land"><path codeLine="92" d="M561,456.4911 C561,468.0911 561,479.6911 561,491.3011 " fill="none" id="PropertyCategory-Land" style="stroke:#181818;stroke-width:1.0;"/></g><!--reverse link Land to Apartment--><g id="link_Land_Apartment"><path codeLine="93" d="M666.52,528.6211 C680.06,528.6211 693.8,528.6211 707,528.6211 " fill="none" id="Land-backto-Apartment" style="stroke:#181818;stroke-width:1.0;"/><polygon fill="none" points="666.23,535.6211,646.23,528.6211,666.23,521.6211,666.23,535.6211" style="stroke:#181818;stroke-width:1.0;"/></g><!--reverse link Apartment to House--><g id="link_Apartment_House"><path codeLine="94" d="M902.3,528.6211 C916.14,528.6211 929.97,528.6211 942.85,528.6211 " fill="none" id="Apartment-backto-House" style="stroke:#181818;stroke-width:1.0;"/><polygon fill="none" points="902.14,535.6211,882.14,528.6211,902.14,521.6211,902.14,535.6211" style="stroke:#181818;stroke-width:1.0;"/></g><!--reverse link Announcement to Address--><g id="link_Announcement_Address"><path codeLine="95" d="M377.73,208.8811 C425.67,184.0911 488.82,151.4311 526.81,131.7911 " fill="none" id="Announcement-backto-Address" style="stroke:#181818;stroke-width:1.0;"/><polygon fill="#181818" points="365.9,215.0011,373.0671,215.7969,376.5582,209.4873,369.3912,208.6915,365.9,215.0011" style="stroke:#181818;stroke-width:1.0;"/></g><!--link Announcement to AnnouncementCategory--><g id="link_Announcement_AnnouncementCategory"><path codeLine="96" d="M311.5,270.3711 C311.5,282.2611 311.5,294.1511 311.5,306.0411 " fill="none" id="Announcement-AnnouncementCategory" style="stroke:#181818;stroke-width:1.0;"/></g><!--link AvailableEquipment to Apartment--><g id="link_AvailableEquipment_Apartment"><path codeLine="97" d="M794.5,447.7011 C794.5,454.9511 794.5,462.2111 794.5,469.4711 " fill="none" id="AvailableEquipment-to-Apartment" style="stroke:#181818;stroke-width:1.0;"/><polygon fill="#181818" points="794.5,482.5311,798.5,476.5311,794.5,470.5311,790.5,476.5311,794.5,482.5311" style="stroke:#181818;stroke-width:1.0;"/></g><!--link Photographs to Land--><g id="link_Photographs_Land"><path codeLine="98" d="M365.59,528.6211 C393.93,528.6211 429.71,528.6211 462.82,528.6211 " fill="none" id="Photographs-to-Land" style="stroke:#181818;stroke-width:1.0;"/><polygon fill="#181818" points="475.84,528.6211,469.84,524.6211,463.84,528.6211,469.84,532.6211,475.84,528.6211" style="stroke:#181818;stroke-width:1.0;"/></g><!--link Commission to Announcement--><g id="link_Commission_Announcement"><path codeLine="99" d="M311.5,180.4211 C311.5,187.6411 311.5,194.8711 311.5,202.0911 " fill="none" id="Commission-to-Announcement" style="stroke:#181818;stroke-width:1.0;"/><polygon fill="#181818" points="311.5,215.0911,315.5,209.0911,311.5,203.0911,307.5,209.0911,311.5,215.0911" style="stroke:#181818;stroke-width:1.0;"/></g><!--SRC=[VLHTRzim37pNhn3oMC15shq5Gu4sxR027HOis0zW9COMQekkH6zDk_ttKKhZZzQONnppnBkpUKnyTBw508rko9Ef0ZMeENIeOe-qO1wXn2qVQjG13OClw_61M86btywNUWzrHALgtBDcqi6L5MlhKfCZhqOzfeOOhvc3stMCzuRyrhsWNYfLEOlQk6148_zka2koKIbsB0v-RfVBIrteMsh0UVsDBDPAPJvzNQ9d_Qh-zWNlgVC6csDTorNejjlLpa2oT0kCIe_EMnjGxg-gY9ommZW-gCAwA5ODft90bFkBQzSYFRHkeSOV-DHX79J2yHdjHffntjPQP4eAXx7jJQ0M0n_ci0VmjXU0WF3sCra4uVmYCroBwRLmXv7cL-eYzeqLn1k8sS1GkVSLx1p3hiO7sf-0sFcxvvPYDsQxbZ7ovAlwhjbX-Bw_GHk8clY-35pDrJSG91JbLbA6CkD1u1UuEZcvU-fSErOowSMWrXNA27rvB88BMa9aNPfggWxViYAcCa1RnHD3svUSQFOdrzGqBaOXa8Efx8bb6wZLj9-2cSLYDC6rIN2LA-cwa5VRksUq6XePCVT0YgpCD9cNPH9sdTdpgWZzN2BwNXdkdDP9Bqho9iNB7BqtSPIu92cLdxBeZfYfIRBlWpQX-O_iIRgMC7u0aZoSyl41_PIobhBO8uF3u_ukBXQwAFHYUNv-jfXycTLnTsE5KL-foN9BmsW3fzY9K6vfUrRfpQ_KXoKhCghoWdt-8mrzoDKGzmpaNPfgdANpnt-FTyRcPpkJx-9if3YERI58jZOAOJeyubN_0000]--></g></svg>