<?xml version="1.0" encoding="us-ascii" standalone="no"?><svg xmlns="http://www.w3.org/2000/svg" xmlns:xlink="http://www.w3.org/1999/xlink" contentStyleType="text/css" height="607px" preserveAspectRatio="none" style="width:787px;height:607px;background:#FFFFFF;" version="1.1" viewBox="0 0 787 607" width="787px" zoomAndPan="magnify"><defs/><g><text fill="#000000" font-family="sans-serif" font-size="14" font-weight="bold" lengthAdjust="spacing" textLength="156" x="308.5" y="25.1074">US001 - Domain Model</text><!--class UnregisteredUser--><g id="elem_UnregisteredUser"><rect codeLine="15" fill="#F1F1F1" height="36.6211" id="UnregisteredUser" rx="2.5" ry="2.5" style="stroke:#181818;stroke-width:0.5;" width="116" x="229.5" y="46.6211"/><text fill="#000000" font-family="sans-serif" font-size="14" lengthAdjust="spacing" textLength="110" x="232.5" y="66.7285">UnregisteredUser</text><line style="stroke:#181818;stroke-width:0.5;" x1="230.5" x2="344.5" y1="75.2422" y2="75.2422"/></g><!--class TypeOfProperty--><g id="elem_TypeOfProperty"><rect codeLine="18" fill="#F1F1F1" height="36.6211" id="TypeOfProperty" rx="2.5" ry="2.5" style="stroke:#181818;stroke-width:0.5;" width="107" x="466.5" y="147.6211"/><text fill="#000000" font-family="sans-serif" font-size="14" lengthAdjust="spacing" textLength="101" x="469.5" y="167.7285">TypeOfProperty</text><line style="stroke:#181818;stroke-width:0.5;" x1="467.5" x2="572.5" y1="176.2422" y2="176.2422"/></g><g id="elem_GMN4"><path d="M230.5,118.6211 L230.5,197.7852 A0,0 0 0 0 230.5,197.7852 L344.5,197.7852 A0,0 0 0 0 344.5,197.7852 L344.5,170.1211 L466.24,166.1211 L344.5,162.1211 L344.5,128.6211 L334.5,118.6211 L230.5,118.6211 A0,0 0 0 0 230.5,118.6211 " fill="#FAFAFA" style="stroke:#181818;stroke-width:0.5;"/><path d="M334.5,118.6211 L334.5,128.6211 L344.5,128.6211 L334.5,118.6211 " fill="#FAFAFA" style="stroke:#181818;stroke-width:0.5;"/><text fill="#000000" font-family="sans-serif" font-size="13" lengthAdjust="spacing" textLength="75" x="236.5" y="137.6494">- description:</text><text fill="#000000" font-family="sans-serif" font-size="13" lengthAdjust="spacing" textLength="43" x="252.5" y="154.9404">1 - land</text><text fill="#000000" font-family="sans-serif" font-size="13" lengthAdjust="spacing" textLength="77" x="252.5" y="172.2314">2 - apartment</text><text fill="#000000" font-family="sans-serif" font-size="13" lengthAdjust="spacing" textLength="54" x="252.5" y="189.5225">3 - house</text></g><!--class TypeOfBusiness--><g id="elem_TypeOfBusiness"><rect codeLine="28" fill="#F1F1F1" height="36.6211" id="TypeOfBusiness" rx="2.5" ry="2.5" style="stroke:#181818;stroke-width:0.5;" width="110" x="465" y="236.6211"/><text fill="#000000" font-family="sans-serif" font-size="14" lengthAdjust="spacing" textLength="104" x="468" y="256.7285">TypeOfBusiness</text><line style="stroke:#181818;stroke-width:0.5;" x1="466" x2="574" y1="265.2422" y2="265.2422"/></g><g id="elem_GMN8"><path d="M239.5,233.1211 L239.5,294.9941 A0,0 0 0 0 239.5,294.9941 L335.5,294.9941 A0,0 0 0 0 335.5,294.9941 L335.5,259.1211 L464.95,255.1211 L335.5,251.1211 L335.5,243.1211 L325.5,233.1211 L239.5,233.1211 A0,0 0 0 0 239.5,233.1211 " fill="#FAFAFA" style="stroke:#181818;stroke-width:0.5;"/><path d="M325.5,233.1211 L325.5,243.1211 L335.5,243.1211 L325.5,233.1211 " fill="#FAFAFA" style="stroke:#181818;stroke-width:0.5;"/><text fill="#000000" font-family="sans-serif" font-size="13" lengthAdjust="spacing" textLength="75" x="245.5" y="252.1494">- description:</text><text fill="#000000" font-family="sans-serif" font-size="13" lengthAdjust="spacing" textLength="43" x="261.5" y="269.4404">1 - sale</text><text fill="#000000" font-family="sans-serif" font-size="13" lengthAdjust="spacing" textLength="41" x="261.5" y="286.7314">2 - rent</text></g><!--class Land--><g id="elem_Land"><rect codeLine="37" fill="#F1F1F1" height="92.4844" id="Land" rx="2.5" ry="2.5" style="stroke:#181818;stroke-width:0.5;" width="170" x="435" y="309.1211"/><text fill="#000000" font-family="sans-serif" font-size="14" lengthAdjust="spacing" textLength="32" x="504" y="329.2285">Land</text><line style="stroke:#181818;stroke-width:0.5;" x1="436" x2="604" y1="337.7422" y2="337.7422"/><text fill="#000000" font-family="sans-serif" font-size="14" lengthAdjust="spacing" textLength="34" x="441" y="356.8496">-area</text><text fill="#000000" font-family="sans-serif" font-size="14" lengthAdjust="spacing" textLength="158" x="441" y="375.4707">-distanceFromCityCentre</text><text fill="#000000" font-family="sans-serif" font-size="14" lengthAdjust="spacing" textLength="85" x="441" y="394.0918">-photographs</text></g><!--class Apartment--><g id="elem_Apartment"><rect codeLine="43" fill="#F1F1F1" height="111.1055" id="Apartment" rx="2.5" ry="2.5" style="stroke:#181818;stroke-width:0.5;" width="175" x="200" y="330.6211"/><text fill="#000000" font-family="sans-serif" font-size="14" lengthAdjust="spacing" textLength="65" x="255" y="350.7285">Apartment</text><line style="stroke:#181818;stroke-width:0.5;" x1="201" x2="374" y1="359.2422" y2="359.2422"/><text fill="#000000" font-family="sans-serif" font-size="14" lengthAdjust="spacing" textLength="132" x="206" y="378.3496">-numberOfBedrooms</text><text fill="#000000" font-family="sans-serif" font-size="14" lengthAdjust="spacing" textLength="136" x="206" y="396.9707">-numberOfBathrooms</text><text fill="#000000" font-family="sans-serif" font-size="14" lengthAdjust="spacing" textLength="163" x="206" y="415.5918">-numberOfParkingSpaces</text><text fill="#000000" font-family="sans-serif" font-size="14" lengthAdjust="spacing" textLength="128" x="206" y="434.2129">-availableEquipment</text></g><!--class House--><g id="elem_House"><rect codeLine="50" fill="#F1F1F1" height="92.4844" id="House" rx="2.5" ry="2.5" style="stroke:#181818;stroke-width:0.5;" width="133" x="7" y="340.1211"/><text fill="#000000" font-family="sans-serif" font-size="14" lengthAdjust="spacing" textLength="40" x="53.5" y="360.2285">House</text><line style="stroke:#181818;stroke-width:0.5;" x1="8" x2="139" y1="368.7422" y2="368.7422"/><text fill="#000000" font-family="sans-serif" font-size="14" lengthAdjust="spacing" textLength="91" x="13" y="387.8496">-hasBasement</text><text fill="#000000" font-family="sans-serif" font-size="14" lengthAdjust="spacing" textLength="121" x="13" y="406.4707">-hasInhabitableLoft</text><text fill="#000000" font-family="sans-serif" font-size="14" lengthAdjust="spacing" textLength="87" x="13" y="425.0918">-sunExposure</text></g><!--class Announcement--><g id="elem_Announcement"><rect codeLine="56" fill="#F1F1F1" height="73.8633" id="Announcement" rx="2.5" ry="2.5" style="stroke:#181818;stroke-width:0.5;" width="115" x="665" y="268.1211"/><text fill="#000000" font-family="sans-serif" font-size="14" lengthAdjust="spacing" textLength="95" x="675" y="288.2285">Announcement</text><line style="stroke:#181818;stroke-width:0.5;" x1="666" x2="779" y1="296.7422" y2="296.7422"/><text fill="#000000" font-family="sans-serif" font-size="14" lengthAdjust="spacing" textLength="78" x="671" y="315.8496">-commission</text><text fill="#000000" font-family="sans-serif" font-size="14" lengthAdjust="spacing" textLength="103" x="671" y="334.4707">-publicationDate</text></g><!--class SaleRequest--><g id="elem_SaleRequest"><rect codeLine="61" fill="#F1F1F1" height="55.2422" id="SaleRequest" rx="2.5" ry="2.5" style="stroke:#181818;stroke-width:0.5;" width="113" x="463.5" y="436.6211"/><text fill="#000000" font-family="sans-serif" font-size="14" lengthAdjust="spacing" textLength="81" x="479.5" y="456.7285">SaleRequest</text><line style="stroke:#181818;stroke-width:0.5;" x1="464.5" x2="575.5" y1="465.2422" y2="465.2422"/><text fill="#000000" font-family="sans-serif" font-size="14" lengthAdjust="spacing" textLength="101" x="469.5" y="484.3496">-requestedPrice</text></g><!--class RentRequest--><g id="elem_RentRequest"><rect codeLine="65" fill="#F1F1F1" height="73.8633" id="RentRequest" rx="2.5" ry="2.5" style="stroke:#181818;stroke-width:0.5;" width="122" x="459" y="527.1211"/><text fill="#000000" font-family="sans-serif" font-size="14" lengthAdjust="spacing" textLength="83" x="478.5" y="547.2285">RentRequest</text><line style="stroke:#181818;stroke-width:0.5;" x1="460" x2="580" y1="555.7422" y2="555.7422"/><text fill="#000000" font-family="sans-serif" font-size="14" lengthAdjust="spacing" textLength="84" x="465" y="574.8496">-monthlyRent</text><text fill="#000000" font-family="sans-serif" font-size="14" lengthAdjust="spacing" textLength="110" x="465" y="593.4707">-contractDuration</text></g><!--link RentRequest to Announcement--><g id="link_RentRequest_Announcement"><path codeLine="70" d="M581.25,564.1211 C646.96,564.1211 742,564.1211 742,564.1211 C742,564.1211 742,362.2311 742,362.2311 " fill="none" id="RentRequest-to-Announcement" style="stroke:#181818;stroke-width:1.0;"/><polygon fill="none" points="735,362.2311,742,342.2311,749,362.2311,735,362.2311" style="stroke:#181818;stroke-width:1.0;"/></g><!--link SaleRequest to Announcement--><g id="link_SaleRequest_Announcement"><path codeLine="71" d="M576.71,464.1211 C630.77,464.1211 704,464.1211 704,464.1211 C704,464.1211 704,362.4011 704,362.4011 " fill="none" id="SaleRequest-to-Announcement" style="stroke:#181818;stroke-width:1.0;"/><polygon fill="none" points="697,362.4011,704,342.4011,711,362.4011,697,362.4011" style="stroke:#181818;stroke-width:1.0;"/></g><!--link TypeOfProperty to Announcement--><g id="link_TypeOfProperty_Announcement"><path codeLine="72" d="M573.72,166.1211 C628.03,166.1211 704,166.1211 704,166.1211 C704,166.1211 704,226.7011 704,267.8711 " fill="none" id="TypeOfProperty-Announcement" style="stroke:#181818;stroke-width:1.0;"/></g><!--link TypeOfBusiness to Announcement--><g id="link_TypeOfBusiness_Announcement"><path codeLine="73" d="M520,273.8111 C520,279.5411 520,284.3711 520,284.3711 C520,284.3711 604.89,284.3711 664.74,284.3711 " fill="none" id="TypeOfBusiness-Announcement" style="stroke:#181818;stroke-width:1.0;"/></g><!--link Apartment to Land--><g id="link_Apartment_Land"><path codeLine="74" d="M375.07,365.8711 C394.63,365.8711 415.36,365.8711 434.82,365.8711 " fill="none" id="Apartment-Land" style="stroke:#181818;stroke-width:1.0;"/></g><!--link House to Apartment--><g id="link_House_Apartment"><path codeLine="75" d="M140.04,386.1211 C158.93,386.1211 179.8,386.1211 199.75,386.1211 " fill="none" id="House-Apartment" style="stroke:#181818;stroke-width:1.0;"/></g><!--link Land to Announcement--><g id="link_Land_Announcement"><path codeLine="76" d="M605.29,325.6211 C605.29,325.6211 644.91,325.6211 644.91,325.6211 " fill="none" id="Land-to-Announcement" style="stroke:#181818;stroke-width:1.0;"/><polygon fill="none" points="644.91,318.6211,664.91,325.6211,644.91,332.6211,644.91,318.6211" style="stroke:#181818;stroke-width:1.0;"/></g><!--link UnregisteredUser to Announcement--><g id="link_UnregisteredUser_Announcement"><path codeLine="77" d="M345.52,65.1211 C468.05,65.1211 742,65.1211 742,65.1211 C742,65.1211 742,200.4711 742,267.8811 " fill="none" id="UnregisteredUser-Announcement" style="stroke:#181818;stroke-width:1.0;"/><polygon fill="#000000" points="615.5917,77.0432,608.8767,70.3082,606.2004,75.5414,615.5917,77.0432" style="stroke:#000000;stroke-width:1.0;"/><text fill="#000000" font-family="sans-serif" font-size="13" lengthAdjust="spacing" textLength="24" x="620.14" y="80.1494">lists</text><text fill="#000000" font-family="sans-serif" font-size="13" lengthAdjust="spacing" textLength="7" x="353.4023" y="80.2814">1</text><text fill="#000000" font-family="sans-serif" font-size="13" lengthAdjust="spacing" textLength="20" x="723.6922" y="256.8001">0..*</text></g><!--SRC=[XLHDRzim3BthLmWv3d2HRhSU2hHDXnNei21PVm0ZCvPGMN8fQblsyTz7EOtZE1tcayL7yZq-KqxFBdH0qEesXcWinHOrKqQL1gG3ymmDhdddKHCQXj3uSKAoKCVlBZHw2pwD4Uy2ygv37ObjL1wth3bgSerbNRlIpCMWHXN6GqetpEGscV71nB1sFr7FbRAkHcqS6U7ktrkKddLIYXsBigVrV7wfAxs8BRYWFySQlL9zF_qK21kN60dhfuIaVwa_1-ohwFkoNLBia7YtHq9arBtQk9qaA2rFfMjCXbnNv5_reV8KUW-X7WBl9G0o6BSOU8X-aAYDMPp2KEl2TQhbDYVnJOx_qd98-9-M1EBLM0iL6LFIHr4iLFjUG0Y7jc8O18CVPIdk7E_kf9Zm5UnivDWGT3OThRmvZ3gq2xdT88bYh2d6Dat3mFQj-198Dg9Po-hX0ODlu3niFDw_PDVrXWx4dugR0wc5T0i91y_xo4Emi75S6Zp6xG58ETp_w6BACjXnZ11Ybi5F9Z6nRLrAPLrV7SWRxmmKrnV0e_ArkBx2bupfM4txCzPBScQKknAAQQxSHBP-jphAbrl018ONcNg-KZ-khAhVroUgrLZ3EJfP-Qfw2nwsS0eVlx8WPNdKtlwID-nwlrJdp6SNSNOvaxHAp-ON5-zcfzPVoVyZSTBNwYy0]--></g></svg>