<?xml version="1.0" encoding="us-ascii" standalone="no"?><svg xmlns="http://www.w3.org/2000/svg" xmlns:xlink="http://www.w3.org/1999/xlink" contentStyleType="text/css" height="806px" preserveAspectRatio="none" style="width:1000px;height:806px;background:#FFFFFF;" version="1.1" viewBox="0 0 1000 806" width="1000px" zoomAndPan="magnify"><defs/><g><text fill="#000000" font-family="sans-serif" font-size="14" font-weight="bold" lengthAdjust="spacing" textLength="156" x="415" y="22.6738">US004 - Domain Model</text><!--class RegisteredUser--><g id="elem_RegisteredUser"><rect codeLine="13" fill="#F1F1F1" height="80.5625" id="RegisteredUser" rx="2.5" ry="2.5" style="stroke:#181818;stroke-width:0.5;" width="104" x="168" y="43.6406"/><text fill="#000000" font-family="sans-serif" font-size="14" lengthAdjust="spacing" textLength="98" x="171" y="61.3145">RegisteredUser</text><line style="stroke:#181818;stroke-width:0.5;" x1="169" x2="271" y1="69.2813" y2="69.2813"/><text fill="#000000" font-family="sans-serif" font-size="14" lengthAdjust="spacing" textLength="40" x="174" y="85.9551">-name</text><text fill="#000000" font-family="sans-serif" font-size="14" lengthAdjust="spacing" textLength="38" x="174" y="101.5957">-email</text><text fill="#000000" font-family="sans-serif" font-size="14" lengthAdjust="spacing" textLength="65" x="174" y="117.2363">-password</text></g><!--class Owner--><g id="elem_Owner"><rect codeLine="19" fill="#F1F1F1" height="33.6406" id="Owner" rx="2.5" ry="2.5" style="stroke:#181818;stroke-width:0.5;" width="47" x="307.5" y="67.1406"/><text fill="#000000" font-family="sans-serif" font-size="14" lengthAdjust="spacing" textLength="41" x="310.5" y="84.8145">Owner</text><line style="stroke:#181818;stroke-width:0.5;" x1="308.5" x2="353.5" y1="92.7813" y2="92.7813"/></g><!--class TypeOfProperty--><g id="elem_TypeOfProperty"><rect codeLine="22" fill="#F1F1F1" height="33.6406" id="TypeOfProperty" rx="2.5" ry="2.5" style="stroke:#181818;stroke-width:0.5;" width="107" x="250.5" y="616.1406"/><text fill="#000000" font-family="sans-serif" font-size="14" lengthAdjust="spacing" textLength="101" x="253.5" y="633.8145">TypeOfProperty</text><line style="stroke:#181818;stroke-width:0.5;" x1="251.5" x2="356.5" y1="641.7813" y2="641.7813"/></g><g id="elem_GMN5"><path d="M101,599.1406 L101,667.2344 A0,0 0 0 0 101,667.2344 L215,667.2344 A0,0 0 0 0 215,667.2344 L215,637.1406 L250.48,633.1406 L215,629.1406 L215,609.1406 L205,599.1406 L101,599.1406 A0,0 0 0 0 101,599.1406 " fill="#FAFAFA" style="stroke:#181818;stroke-width:0.5;"/><path d="M205,599.1406 L205,609.1406 L215,609.1406 L205,599.1406 " fill="#FAFAFA" style="stroke:#181818;stroke-width:0.5;"/><text fill="#000000" font-family="sans-serif" font-size="13" lengthAdjust="spacing" textLength="71" x="107" y="615.9092">- description</text><text fill="#000000" font-family="sans-serif" font-size="13" lengthAdjust="spacing" textLength="43" x="123" y="630.4326">1 - land</text><text fill="#000000" font-family="sans-serif" font-size="13" lengthAdjust="spacing" textLength="77" x="123" y="644.9561">2 - apartment</text><text fill="#000000" font-family="sans-serif" font-size="13" lengthAdjust="spacing" textLength="54" x="123" y="659.4795">3 - house</text></g><!--class TypeOfBusiness--><g id="elem_TypeOfBusiness"><rect codeLine="32" fill="#F1F1F1" height="33.6406" id="TypeOfBusiness" rx="2.5" ry="2.5" style="stroke:#181818;stroke-width:0.5;" width="110" x="640" y="467.1406"/><text fill="#000000" font-family="sans-serif" font-size="14" lengthAdjust="spacing" textLength="104" x="643" y="484.8145">TypeOfBusiness</text><line style="stroke:#181818;stroke-width:0.5;" x1="641" x2="749" y1="492.7813" y2="492.7813"/></g><g id="elem_GMN9"><path d="M785,457.1406 L785,480.1406 L750.25,484.1406 L785,488.1406 L785,510.7109 A0,0 0 0 0 785,510.7109 L877,510.7109 A0,0 0 0 0 877,510.7109 L877,467.1406 L867,457.1406 L785,457.1406 A0,0 0 0 0 785,457.1406 " fill="#FAFAFA" style="stroke:#181818;stroke-width:0.5;"/><path d="M867,457.1406 L867,467.1406 L877,467.1406 L867,457.1406 " fill="#FAFAFA" style="stroke:#181818;stroke-width:0.5;"/><text fill="#000000" font-family="sans-serif" font-size="13" lengthAdjust="spacing" textLength="71" x="791" y="473.9092">- description</text><text fill="#000000" font-family="sans-serif" font-size="13" lengthAdjust="spacing" textLength="43" x="807" y="488.4326">1 - sale</text><text fill="#000000" font-family="sans-serif" font-size="13" lengthAdjust="spacing" textLength="41" x="807" y="502.9561">2 - rent</text></g><!--class Announcement--><g id="elem_Announcement"><rect codeLine="41" fill="#F1F1F1" height="49.2813" id="Announcement" rx="2.5" ry="2.5" style="stroke:#181818;stroke-width:0.5;" width="115" x="333.5" y="341.6406"/><text fill="#000000" font-family="sans-serif" font-size="14" lengthAdjust="spacing" textLength="95" x="343.5" y="359.3145">Announcement</text><line style="stroke:#181818;stroke-width:0.5;" x1="334.5" x2="447.5" y1="367.2813" y2="367.2813"/><text fill="#000000" font-family="sans-serif" font-size="14" lengthAdjust="spacing" textLength="103" x="339.5" y="383.9551">-publicationDate</text></g><!--class Land--><g id="elem_Land"><rect codeLine="45" fill="#F1F1F1" height="64.9219" id="Land" rx="2.5" ry="2.5" style="stroke:#181818;stroke-width:0.5;" width="170" x="393" y="600.6406"/><text fill="#000000" font-family="sans-serif" font-size="14" lengthAdjust="spacing" textLength="32" x="462" y="618.3145">Land</text><line style="stroke:#181818;stroke-width:0.5;" x1="394" x2="562" y1="626.2813" y2="626.2813"/><text fill="#000000" font-family="sans-serif" font-size="14" lengthAdjust="spacing" textLength="34" x="399" y="642.9551">-area</text><text fill="#000000" font-family="sans-serif" font-size="14" lengthAdjust="spacing" textLength="158" x="399" y="658.5957">-distanceFromCityCentre</text></g><!--class House--><g id="elem_House"><rect codeLine="50" fill="#F1F1F1" height="80.5625" id="House" rx="2.5" ry="2.5" style="stroke:#181818;stroke-width:0.5;" width="184" x="809" y="592.6406"/><text fill="#000000" font-family="sans-serif" font-size="14" lengthAdjust="spacing" textLength="40" x="881" y="610.3145">House</text><line style="stroke:#181818;stroke-width:0.5;" x1="810" x2="992" y1="618.2813" y2="618.2813"/><text fill="#000000" font-family="sans-serif" font-size="14" lengthAdjust="spacing" textLength="142" x="815" y="634.9551">-existenceOfBasement</text><text fill="#000000" font-family="sans-serif" font-size="14" lengthAdjust="spacing" textLength="172" x="815" y="650.5957">-existenceOfInhabitableLoft</text><text fill="#000000" font-family="sans-serif" font-size="14" lengthAdjust="spacing" textLength="87" x="815" y="666.2363">-sunExposure</text></g><!--class Apartment--><g id="elem_Apartment"><rect codeLine="56" fill="#F1F1F1" height="80.5625" id="Apartment" rx="2.5" ry="2.5" style="stroke:#181818;stroke-width:0.5;" width="175" x="598.5" y="592.6406"/><text fill="#000000" font-family="sans-serif" font-size="14" lengthAdjust="spacing" textLength="65" x="653.5" y="610.3145">Apartment</text><line style="stroke:#181818;stroke-width:0.5;" x1="599.5" x2="772.5" y1="618.2813" y2="618.2813"/><text fill="#000000" font-family="sans-serif" font-size="14" lengthAdjust="spacing" textLength="132" x="604.5" y="634.9551">-numberOfBedrooms</text><text fill="#000000" font-family="sans-serif" font-size="14" lengthAdjust="spacing" textLength="136" x="604.5" y="650.5957">-numberOfBathrooms</text><text fill="#000000" font-family="sans-serif" font-size="14" lengthAdjust="spacing" textLength="163" x="604.5" y="666.2363">-numberOfParkingSpaces</text></g><!--class SaleRequest--><g id="elem_SaleRequest"><rect codeLine="62" fill="#F1F1F1" height="49.2813" id="SaleRequest" rx="2.5" ry="2.5" style="stroke:#181818;stroke-width:0.5;" width="113" x="334.5" y="459.6406"/><text fill="#000000" font-family="sans-serif" font-size="14" lengthAdjust="spacing" textLength="81" x="350.5" y="477.3145">SaleRequest</text><line style="stroke:#181818;stroke-width:0.5;" x1="335.5" x2="446.5" y1="485.2813" y2="485.2813"/><text fill="#000000" font-family="sans-serif" font-size="14" lengthAdjust="spacing" textLength="101" x="340.5" y="501.9551">-requestedPrice</text></g><!--class RentRequest--><g id="elem_RentRequest"><rect codeLine="66" fill="#F1F1F1" height="64.9219" id="RentRequest" rx="2.5" ry="2.5" style="stroke:#181818;stroke-width:0.5;" width="122" x="483" y="451.6406"/><text fill="#000000" font-family="sans-serif" font-size="14" lengthAdjust="spacing" textLength="83" x="502.5" y="469.3145">RentRequest</text><line style="stroke:#181818;stroke-width:0.5;" x1="484" x2="604" y1="477.2813" y2="477.2813"/><text fill="#000000" font-family="sans-serif" font-size="14" lengthAdjust="spacing" textLength="84" x="489" y="493.9551">-monthlyRent</text><text fill="#000000" font-family="sans-serif" font-size="14" lengthAdjust="spacing" textLength="110" x="489" y="509.5957">-contractDuration</text></g><!--class Agent--><g id="elem_Agent"><rect codeLine="71" fill="#F1F1F1" height="33.6406" id="Agent" rx="2.5" ry="2.5" style="stroke:#181818;stroke-width:0.5;" width="43" x="309.5" y="216.1406"/><text fill="#000000" font-family="sans-serif" font-size="14" lengthAdjust="spacing" textLength="37" x="312.5" y="233.8145">Agent</text><line style="stroke:#181818;stroke-width:0.5;" x1="310.5" x2="351.5" y1="241.7813" y2="241.7813"/></g><!--class Employee--><g id="elem_Employee"><rect codeLine="74" fill="#F1F1F1" height="64.9219" id="Employee" rx="2.5" ry="2.5" style="stroke:#181818;stroke-width:0.5;" width="106" x="167" y="200.6406"/><text fill="#000000" font-family="sans-serif" font-size="14" lengthAdjust="spacing" textLength="62" x="189" y="218.3145">Employee</text><line style="stroke:#181818;stroke-width:0.5;" x1="168" x2="272" y1="226.2813" y2="226.2813"/><text fill="#000000" font-family="sans-serif" font-size="14" lengthAdjust="spacing" textLength="94" x="173" y="242.9551">-phoneNumber</text><text fill="#000000" font-family="sans-serif" font-size="14" lengthAdjust="spacing" textLength="72" x="173" y="258.5957">-taxNumber</text></g><!--class Address--><g id="elem_Address"><rect codeLine="79" fill="#F1F1F1" height="64.9219" id="Address" rx="2.5" ry="2.5" style="stroke:#181818;stroke-width:0.5;" width="68" x="7" y="451.6406"/><text fill="#000000" font-family="sans-serif" font-size="14" lengthAdjust="spacing" textLength="52" x="15" y="469.3145">Address</text><line style="stroke:#181818;stroke-width:0.5;" x1="8" x2="74" y1="477.2813" y2="477.2813"/><text fill="#000000" font-family="sans-serif" font-size="14" lengthAdjust="spacing" textLength="41" x="13" y="493.9551">-street</text><text fill="#000000" font-family="sans-serif" font-size="14" lengthAdjust="spacing" textLength="56" x="13" y="509.5957">-zipCode</text></g><!--class City--><g id="elem_City"><rect codeLine="83" fill="#F1F1F1" height="33.6406" id="City" rx="2.5" ry="2.5" style="stroke:#181818;stroke-width:0.5;" width="30" x="195" y="467.1406"/><text fill="#000000" font-family="sans-serif" font-size="14" lengthAdjust="spacing" textLength="24" x="198" y="484.8145">City</text><line style="stroke:#181818;stroke-width:0.5;" x1="196" x2="224" y1="492.7813" y2="492.7813"/></g><!--class District--><g id="elem_District"><rect codeLine="86" fill="#F1F1F1" height="33.6406" id="District" rx="2.5" ry="2.5" style="stroke:#181818;stroke-width:0.5;" width="49" x="110.5" y="467.1406"/><text fill="#000000" font-family="sans-serif" font-size="14" lengthAdjust="spacing" textLength="43" x="113.5" y="484.8145">District</text><line style="stroke:#181818;stroke-width:0.5;" x1="111.5" x2="158.5" y1="492.7813" y2="492.7813"/></g><!--class State--><g id="elem_State"><rect codeLine="89" fill="#F1F1F1" height="33.6406" id="State" rx="2.5" ry="2.5" style="stroke:#181818;stroke-width:0.5;" width="39" x="260.5" y="467.1406"/><text fill="#000000" font-family="sans-serif" font-size="14" lengthAdjust="spacing" textLength="33" x="263.5" y="484.8145">State</text><line style="stroke:#181818;stroke-width:0.5;" x1="261.5" x2="298.5" y1="492.7813" y2="492.7813"/></g><!--class Passport--><g id="elem_Passport"><rect codeLine="92" fill="#F1F1F1" height="49.2813" id="Passport" rx="2.5" ry="2.5" style="stroke:#181818;stroke-width:0.5;" width="121" x="10.5" y="208.6406"/><text fill="#000000" font-family="sans-serif" font-size="14" lengthAdjust="spacing" textLength="56" x="43" y="226.3145">Passport</text><line style="stroke:#181818;stroke-width:0.5;" x1="11.5" x2="130.5" y1="234.2813" y2="234.2813"/><text fill="#000000" font-family="sans-serif" font-size="14" lengthAdjust="spacing" textLength="109" x="16.5" y="250.9551">-passportNumber</text></g><!--class AvailableEquipment--><g id="elem_AvailableEquipment"><rect codeLine="96" fill="#F1F1F1" height="64.9219" id="AvailableEquipment" rx="2.5" ry="2.5" style="stroke:#181818;stroke-width:0.5;" width="130" x="621" y="734.6406"/><text fill="#000000" font-family="sans-serif" font-size="14" lengthAdjust="spacing" textLength="124" x="624" y="752.3145">AvailableEquipment</text><line style="stroke:#181818;stroke-width:0.5;" x1="622" x2="750" y1="760.2813" y2="760.2813"/><text fill="#000000" font-family="sans-serif" font-size="14" lengthAdjust="spacing" textLength="96" x="627" y="776.9551">-centralHeating</text><text fill="#000000" font-family="sans-serif" font-size="14" lengthAdjust="spacing" textLength="100" x="627" y="792.5957">-airConditioning</text></g><!--class Photographs--><g id="elem_Photographs"><rect codeLine="100" fill="#F1F1F1" height="49.2813" id="Photographs" rx="2.5" ry="2.5" style="stroke:#181818;stroke-width:0.5;" width="97" x="429.5" y="742.6406"/><text fill="#000000" font-family="sans-serif" font-size="14" lengthAdjust="spacing" textLength="81" x="437.5" y="760.3145">Photographs</text><line style="stroke:#181818;stroke-width:0.5;" x1="430.5" x2="525.5" y1="768.2813" y2="768.2813"/><text fill="#000000" font-family="sans-serif" font-size="14" lengthAdjust="spacing" textLength="85" x="435.5" y="784.9551">-photographs</text></g><!--class Comission--><g id="elem_Comission"><rect codeLine="104" fill="#F1F1F1" height="33.6406" id="Comission" rx="2.5" ry="2.5" style="stroke:#181818;stroke-width:0.5;" width="71" x="483.5" y="349.1406"/><text fill="#000000" font-family="sans-serif" font-size="14" lengthAdjust="spacing" textLength="65" x="486.5" y="366.8145">Comission</text><line style="stroke:#181818;stroke-width:0.5;" x1="484.5" x2="553.5" y1="374.7813" y2="374.7813"/></g><!--reverse link RegisteredUser to Owner--><g id="link_RegisteredUser_Owner"><path codeLine="108" d="M292.27,84.1406 C297.2,84.1406 302.12,84.1406 307.04,84.1406 " fill="none" id="RegisteredUser-backto-Owner" style="stroke:#181818;stroke-width:1.0;"/><polygon fill="none" points="292.03,91.1406,272.03,84.1406,292.03,77.1406,292.03,91.1406" style="stroke:#181818;stroke-width:1.0;"/></g><!--reverse link RegisteredUser to Employee--><g id="link_RegisteredUser_Employee"><path codeLine="109" d="M220,145.0706 C220,163.9606 220,184.0906 220,200.2406 " fill="none" id="RegisteredUser-backto-Employee" style="stroke:#181818;stroke-width:1.0;"/><polygon fill="none" points="213,144.9206,220,124.9206,227,144.9206,213,144.9206" style="stroke:#181818;stroke-width:1.0;"/></g><!--reverse link Employee to Agent--><g id="link_Employee_Agent"><path codeLine="110" d="M293.61,233.1406 C298.86,233.1406 304.12,233.1406 309.37,233.1406 " fill="none" id="Employee-backto-Agent" style="stroke:#181818;stroke-width:1.0;"/><polygon fill="none" points="293.33,240.1406,273.33,233.1406,293.33,226.1406,293.33,240.1406" style="stroke:#181818;stroke-width:1.0;"/></g><!--link Owner to Agent--><g id="link_Owner_Agent"><path codeLine="111" d="M331,101.1506 C331,129.2806 331,187.2706 331,215.7006 " fill="none" id="Owner-Agent" style="stroke:#181818;stroke-width:1.0;"/><polygon fill="#000000" points="336,167.9023,338.9389,158.8573,333.0611,158.8573,336,167.9023" style="stroke:#000000;stroke-width:1.0;"/><text fill="#000000" font-family="sans-serif" font-size="13" lengthAdjust="spacing" textLength="49" x="345" y="167.4092">chooses</text><text fill="#000000" font-family="sans-serif" font-size="13" lengthAdjust="spacing" textLength="7" x="322.9281" y="120.4074">1</text><text fill="#000000" font-family="sans-serif" font-size="13" lengthAdjust="spacing" textLength="7" x="322.8406" y="205.5196">1</text></g><!--link Agent to Announcement--><g id="link_Agent_Announcement"><path codeLine="112" d="M338.36,250.2006 C348.81,273.0206 368.03,314.9806 380.13,341.4006 " fill="none" id="Agent-Announcement" style="stroke:#181818;stroke-width:1.0;"/><polygon fill="#000000" points="373.082,308.4482,371.9876,299.0009,366.6436,301.4484,373.082,308.4482" style="stroke:#000000;stroke-width:1.0;"/><text fill="#000000" font-family="sans-serif" font-size="13" lengthAdjust="spacing" textLength="55" x="380" y="308.4092">publishes</text><text fill="#000000" font-family="sans-serif" font-size="13" lengthAdjust="spacing" textLength="7" x="332.5421" y="269.4727">1</text><text fill="#000000" font-family="sans-serif" font-size="13" lengthAdjust="spacing" textLength="20" x="354.7821" y="331.0668">0..*</text></g><!--reverse link Announcement to SaleRequest--><g id="link_Announcement_SaleRequest"><path codeLine="113" d="M391,411.0706 C391,427.4906 391,445.5106 391,459.4206 " fill="none" id="Announcement-backto-SaleRequest" style="stroke:#181818;stroke-width:1.0;"/><polygon fill="none" points="384,410.8906,391,390.8906,398,410.8906,384,410.8906" style="stroke:#181818;stroke-width:1.0;"/></g><!--reverse link Announcement to RentRequest--><g id="link_Announcement_RentRequest"><path codeLine="114" d="M438.55,403.1906 C458.94,418.6506 482.56,436.5506 502.26,451.5006 " fill="none" id="Announcement-backto-RentRequest" style="stroke:#181818;stroke-width:1.0;"/><polygon fill="none" points="434.04,408.5606,422.33,390.8906,442.5,397.4006,434.04,408.5606" style="stroke:#181818;stroke-width:1.0;"/></g><!--link Announcement to TypeOfBusiness--><g id="link_Announcement_TypeOfBusiness"><path codeLine="115" d="M448.59,386.9806 C495.77,403.5006 564.1,428.0606 623,451.6406 C634.91,456.4106 647.78,461.9206 659.3,466.9906 " fill="none" id="Announcement-TypeOfBusiness" style="stroke:#181818;stroke-width:1.0;"/></g><!--link TypeOfProperty to Land--><g id="link_TypeOfProperty_Land"><path codeLine="116" d="M357.7,633.1406 C369.44,633.1406 381.19,633.1406 392.94,633.1406 " fill="none" id="TypeOfProperty-Land" style="stroke:#181818;stroke-width:1.0;"/></g><!--link SaleRequest to Land--><g id="link_SaleRequest_Land"><path codeLine="117" d="M404.98,508.7606 C419.72,533.6706 443.04,573.0706 459.35,600.6206 " fill="none" id="SaleRequest-Land" style="stroke:#181818;stroke-width:1.0;"/><polygon fill="#000000" points="441.5467,559.2051,439.4688,549.9244,434.4105,552.9182,441.5467,559.2051" style="stroke:#000000;stroke-width:1.0;"/><text fill="#000000" font-family="sans-serif" font-size="13" lengthAdjust="spacing" textLength="10" x="448" y="559.4092">of</text><text fill="#000000" font-family="sans-serif" font-size="13" lengthAdjust="spacing" textLength="7" x="400.6655" y="528.6628">1</text><text fill="#000000" font-family="sans-serif" font-size="13" lengthAdjust="spacing" textLength="7" x="447.5047" y="589.81">1</text></g><!--link RentRequest to Land--><g id="link_RentRequest_Land"><path codeLine="118" d="M529.84,516.6806 C518.74,541.3906 503.37,575.6306 492.25,600.4006 " fill="none" id="RentRequest-Land" style="stroke:#181818;stroke-width:1.0;"/><polygon fill="#000000" points="516.952,559.4637,523.338,552.416,517.9758,550.0084,516.952,559.4637" style="stroke:#000000;stroke-width:1.0;"/><text fill="#000000" font-family="sans-serif" font-size="13" lengthAdjust="spacing" textLength="10" x="528" y="559.4092">of</text><text fill="#000000" font-family="sans-serif" font-size="13" lengthAdjust="spacing" textLength="7" x="519.3632" y="536.2928">1</text><text fill="#000000" font-family="sans-serif" font-size="13" lengthAdjust="spacing" textLength="7" x="487.4672" y="590.0348">1</text></g><!--reverse link Land to Apartment--><g id="link_Land_Apartment"><path codeLine="119" d="M583.54,633.1406 C588.46,633.1406 593.38,633.1406 598.3,633.1406 " fill="none" id="Land-backto-Apartment" style="stroke:#181818;stroke-width:1.0;"/><polygon fill="none" points="583.31,640.1406,563.31,633.1406,583.31,626.1406,583.31,640.1406" style="stroke:#181818;stroke-width:1.0;"/></g><!--reverse link Apartment to House--><g id="link_Apartment_House"><path codeLine="120" d="M793.88,633.1406 C798.77,633.1406 803.66,633.1406 808.55,633.1406 " fill="none" id="Apartment-backto-House" style="stroke:#181818;stroke-width:1.0;"/><polygon fill="none" points="793.76,640.1406,773.76,633.1406,793.76,626.1406,793.76,640.1406" style="stroke:#181818;stroke-width:1.0;"/></g><!--reverse link Address to District--><g id="link_Address_District"><path codeLine="121" d="M95.15,484.1406 C100.17,484.1406 105.19,484.1406 110.22,484.1406 " fill="none" id="Address-backto-District" style="stroke:#181818;stroke-width:1.0;"/><polygon fill="none" points="95.15,491.1406,75.15,484.1406,95.15,477.1406,95.15,491.1406" style="stroke:#181818;stroke-width:1.0;"/></g><!--reverse link District to City--><g id="link_District_City"><path codeLine="122" d="M179.87,484.1406 C184.79,484.1406 189.72,484.1406 194.65,484.1406 " fill="none" id="District-backto-City" style="stroke:#181818;stroke-width:1.0;"/><polygon fill="none" points="179.61,491.1406,159.61,484.1406,179.61,477.1406,179.61,491.1406" style="stroke:#181818;stroke-width:1.0;"/></g><!--reverse link City to State--><g id="link_City_State"><path codeLine="123" d="M245.12,484.1406 C250.16,484.1406 255.21,484.1406 260.25,484.1406 " fill="none" id="City-backto-State" style="stroke:#181818;stroke-width:1.0;"/><polygon fill="none" points="245.04,491.1406,225.04,484.1406,245.04,477.1406,245.04,491.1406" style="stroke:#181818;stroke-width:1.0;"/></g><!--reverse link Announcement to Address--><g id="link_Announcement_Address"><path codeLine="124" d="M320.69,386.0106 C239.4,408.0006 114.03,442.4906 93,451.6406 C87.1,454.2106 81.05,457.3406 75.27,460.6306 " fill="none" id="Announcement-backto-Address" style="stroke:#181818;stroke-width:1.0;"/><polygon fill="#181818" points="333.33,382.6006,326.4956,380.3005,321.7438,385.7246,328.5782,388.0247,333.33,382.6006" style="stroke:#181818;stroke-width:1.0;"/></g><!--link Employee to Address--><g id="link_Employee_Address"><path codeLine="125" d="M197.33,265.6806 C162.99,313.4406 98.16,403.6206 63.77,451.4706 " fill="none" id="Employee-Address" style="stroke:#181818;stroke-width:1.0;"/><text fill="#000000" font-family="sans-serif" font-size="13" lengthAdjust="spacing" textLength="7" x="185.1778" y="285.2928">1</text><text fill="#000000" font-family="sans-serif" font-size="13" lengthAdjust="spacing" textLength="7" x="60.7444" y="441.1193">1</text></g><!--link Passport to Employee--><g id="link_Passport_Employee"><path codeLine="126" d="M131.53,233.1406 C143.28,233.1406 155.03,233.1406 166.78,233.1406 " fill="none" id="Passport-Employee" style="stroke:#181818;stroke-width:1.0;"/><text fill="#000000" font-family="sans-serif" font-size="13" lengthAdjust="spacing" textLength="7" x="139.3337" y="230.0708">1</text><text fill="#000000" font-family="sans-serif" font-size="13" lengthAdjust="spacing" textLength="7" x="152.1583" y="230.009">1</text></g><!--reverse link Apartment to AvailableEquipment--><g id="link_Apartment_AvailableEquipment"><path codeLine="127" d="M686,686.9406 C686,703.0606 686,720.2706 686,734.5206 " fill="none" id="Apartment-backto-AvailableEquipment" style="stroke:#181818;stroke-width:1.0;"/><polygon fill="#181818" points="686,673.7406,682,679.7406,686,685.7406,690,679.7406,686,673.7406" style="stroke:#181818;stroke-width:1.0;"/></g><!--reverse link Land to Photographs--><g id="link_Land_Photographs"><path codeLine="128" d="M478,678.8806 C478,700.2606 478,724.9806 478,742.6306 " fill="none" id="Land-backto-Photographs" style="stroke:#181818;stroke-width:1.0;"/><polygon fill="#181818" points="478,665.7606,474,671.7606,478,677.7606,482,671.7606,478,665.7606" style="stroke:#181818;stroke-width:1.0;"/></g><!--reverse link Announcement to Comission--><g id="link_Announcement_Comission"><path codeLine="129" d="M462.19,366.1406 C469.28,366.1406 476.37,366.1406 483.45,366.1406 " fill="none" id="Announcement-backto-Comission" style="stroke:#181818;stroke-width:1.0;"/><polygon fill="#181818" points="449,366.1406,455,370.1406,461,366.1406,455,362.1406,449,366.1406" style="stroke:#181818;stroke-width:1.0;"/></g><!--SRC=[XLJDJXin4BxxAIoEI46XxGbLI91GWKHBb9G7SBoJjSMkRMnl8T2-UyVUjTTPKdKFYVtDU7w_6VSabM6MjRJLIdDXTGlKsmw8onB3-1EhOUFt3L0Bt3DLDwM24wpIBrBLTCSQ1wGGyOOvT-MzbTlEmntNQYFVWCu94R82ogNbQ2gUM_12LuuGBpqwUjpCvr_eZ2vrowIYttK53I7H7br3BPq72zMZ0qlV2SLlHXLhOJW2Fcg6iy4dBzfMv4zw__2YuhCC_DmRUDYjh3PW_RwNAEs1Dh3pLEyc2eFX2XotqdYfLKJ2TuvumrILWKy8C2o6Rq7vZ7v6LEWEYmMgei7LOIZNdPCAy3g6OcKjYbYIndzYSQo1WrXi26Fgz4eftIaE8SPSJjDj6ybPCBbag9khTO_vPIrcWQKOi2aChNn35Ysato_GcYtUtOQ4yqDu3Jr4TSo5ESZbEP3SAS6sqhDj0_TwbnHSfsvUZNPTQVqg5NdaGzTkmQ9vgApMhPl2p8jZ-8fPv6-zGTw36-rli99hUEx0ZHviVuTgPIKlObbZ65DT730lclrwp1EdmLl6_RApiSf5BdMVHmPkMjFeFOpLCq8h-14Z7X3FNeVxQAQgR4-YeMxO3aZUtwHPu52XTgySEbQwN68JCAk3C3OUYL02A_mnslhtOjR2_KCalt0UGnTldZjfGfVI2nv8mffRm1AeEf5AseLMbGnL2MYASIMqrxLbHhYY40aQtIrqAvt3np5KCjaNNt_F-XLmJ90gJNB90neRGlgzSN9-GcUp-DVtwO9oeRK3Hoz9ZoIL-TdPwSdXT5tqS-L4hrwAWgTPoRDZue9Q4p4A9wjXijQmMd5sIKdb8fiurnTXnLoIai7_K8ddM9oytiOP37YSTv986934APB95T30F1Bf5swHOvFKJj5zOlFOcB8HnsLXVGyQYQb5ZD7iHsRsYKLXmRUF4VKBELED_0K0]--></g></svg>