<?xml version="1.0" encoding="us-ascii" standalone="no"?><svg xmlns="http://www.w3.org/2000/svg" xmlns:xlink="http://www.w3.org/1999/xlink" contentStyleType="text/css" height="388px" preserveAspectRatio="none" style="width:373px;height:388px;background:#FFFFFF;" version="1.1" viewBox="0 0 373 388" width="373px" zoomAndPan="magnify"><defs/><g><text fill="#000000" font-family="sans-serif" font-size="14" font-weight="bold" lengthAdjust="spacing" textLength="284" x="43.5" y="27.6738">System Sequence Diagram (SSD) - US007</text><rect fill="#FFFFFF" height="163.1406" style="stroke:#181818;stroke-width:1.0;" width="10" x="60" y="127.2813"/><rect fill="#FFFFFF" height="28.5234" style="stroke:#181818;stroke-width:1.0;" width="10" x="330" y="147.8047"/><rect fill="#FFFFFF" height="28.5234" style="stroke:#181818;stroke-width:1.0;" width="10" x="330" y="204.8516"/><rect fill="#FFFFFF" height="37.5234" style="stroke:#181818;stroke-width:1.0;" width="10" x="330" y="261.8984"/><line style="stroke:#181818;stroke-width:0.5;stroke-dasharray:5.0,5.0;" x1="65" x2="65" y1="117.2813" y2="308.4219"/><line style="stroke:#181818;stroke-width:0.5;stroke-dasharray:5.0,5.0;" x1="335" x2="335" y1="117.2813" y2="308.4219"/><text fill="#000000" font-family="sans-serif" font-size="14" lengthAdjust="spacing" textLength="114" x="5" y="114.3145">Unregistered User</text><ellipse cx="65" cy="50.1406" fill="#E2E2F0" rx="8" ry="8" style="stroke:#181818;stroke-width:0.5;"/><path d="M65,58.1406 L65,85.1406 M52,66.1406 L78,66.1406 M65,85.1406 L52,100.1406 M65,85.1406 L78,100.1406 " fill="none" style="stroke:#181818;stroke-width:0.5;"/><text fill="#000000" font-family="sans-serif" font-size="14" lengthAdjust="spacing" textLength="114" x="5" y="320.0957">Unregistered User</text><ellipse cx="65" cy="331.5625" fill="#E2E2F0" rx="8" ry="8" style="stroke:#181818;stroke-width:0.5;"/><path d="M65,339.5625 L65,366.5625 M52,347.5625 L78,347.5625 M65,366.5625 L52,381.5625 M65,366.5625 L78,381.5625 " fill="none" style="stroke:#181818;stroke-width:0.5;"/><rect fill="#E2E2F0" height="29.6406" rx="2.5" ry="2.5" style="stroke:#181818;stroke-width:0.5;" width="64" x="303" y="86.6406"/><text fill="#000000" font-family="sans-serif" font-size="14" lengthAdjust="spacing" textLength="50" x="310" y="106.3145">:System</text><rect fill="#E2E2F0" height="29.6406" rx="2.5" ry="2.5" style="stroke:#181818;stroke-width:0.5;" width="64" x="303" y="307.4219"/><text fill="#000000" font-family="sans-serif" font-size="14" lengthAdjust="spacing" textLength="50" x="310" y="327.0957">:System</text><rect fill="#FFFFFF" height="163.1406" style="stroke:#181818;stroke-width:1.0;" width="10" x="60" y="127.2813"/><rect fill="#FFFFFF" height="28.5234" style="stroke:#181818;stroke-width:1.0;" width="10" x="330" y="147.8047"/><rect fill="#FFFFFF" height="28.5234" style="stroke:#181818;stroke-width:1.0;" width="10" x="330" y="204.8516"/><rect fill="#FFFFFF" height="37.5234" style="stroke:#181818;stroke-width:1.0;" width="10" x="330" y="261.8984"/><polygon fill="#181818" points="318,143.8047,328,147.8047,318,151.8047,322,147.8047" style="stroke:#181818;stroke-width:1.0;"/><line style="stroke:#181818;stroke-width:1.0;" x1="70" x2="324" y1="147.8047" y2="147.8047"/><text fill="#000000" font-family="sans-serif" font-size="13" font-weight="bold" lengthAdjust="spacing" textLength="7" x="77" y="143.0498">1</text><text fill="#000000" font-family="sans-serif" font-size="13" lengthAdjust="spacing" textLength="195" x="88" y="143.0498">requests to register in the system</text><polygon fill="#181818" points="81,172.3281,71,176.3281,81,180.3281,77,176.3281" style="stroke:#181818;stroke-width:1.0;"/><line style="stroke:#181818;stroke-width:1.0;stroke-dasharray:2.0,2.0;" x1="75" x2="334" y1="176.3281" y2="176.3281"/><text fill="#000000" font-family="sans-serif" font-size="13" font-weight="bold" lengthAdjust="spacing" textLength="7" x="87" y="171.5732">2</text><text fill="#000000" font-family="sans-serif" font-size="13" lengthAdjust="spacing" textLength="225" x="98" y="171.5732">requests data (name, email, password)</text><polygon fill="#181818" points="318,200.8516,328,204.8516,318,208.8516,322,204.8516" style="stroke:#181818;stroke-width:1.0;"/><line style="stroke:#181818;stroke-width:1.0;" x1="70" x2="324" y1="204.8516" y2="204.8516"/><text fill="#000000" font-family="sans-serif" font-size="13" font-weight="bold" lengthAdjust="spacing" textLength="7" x="77" y="200.0967">3</text><text fill="#000000" font-family="sans-serif" font-size="13" lengthAdjust="spacing" textLength="122" x="88" y="200.0967">types requested data</text><polygon fill="#181818" points="81,229.375,71,233.375,81,237.375,77,233.375" style="stroke:#181818;stroke-width:1.0;"/><line style="stroke:#181818;stroke-width:1.0;stroke-dasharray:2.0,2.0;" x1="75" x2="334" y1="233.375" y2="233.375"/><text fill="#000000" font-family="sans-serif" font-size="13" font-weight="bold" lengthAdjust="spacing" textLength="7" x="87" y="228.6201">4</text><text fill="#000000" font-family="sans-serif" font-size="13" lengthAdjust="spacing" textLength="219" x="98" y="228.6201">shows data and requests confirmation</text><polygon fill="#181818" points="318,257.8984,328,261.8984,318,265.8984,322,261.8984" style="stroke:#181818;stroke-width:1.0;"/><line style="stroke:#181818;stroke-width:1.0;" x1="70" x2="324" y1="261.8984" y2="261.8984"/><text fill="#000000" font-family="sans-serif" font-size="13" font-weight="bold" lengthAdjust="spacing" textLength="7" x="77" y="257.1436">5</text><text fill="#000000" font-family="sans-serif" font-size="13" lengthAdjust="spacing" textLength="78" x="88" y="257.1436">confirms data</text><polygon fill="#181818" points="76,286.4219,66,290.4219,76,294.4219,72,290.4219" style="stroke:#181818;stroke-width:1.0;"/><line style="stroke:#181818;stroke-width:1.0;stroke-dasharray:2.0,2.0;" x1="70" x2="329" y1="290.4219" y2="290.4219"/><text fill="#000000" font-family="sans-serif" font-size="13" font-weight="bold" lengthAdjust="spacing" textLength="7" x="82" y="285.667">6</text><text fill="#000000" font-family="sans-serif" font-size="13" lengthAdjust="spacing" textLength="158" x="93" y="285.667">displays operation success</text><!--SRC=[fP9DRiCW44Rtd6BaLIB5KdQLikWgDx1yW0bCx55iS9bn8z- - -2-D4hKRiqBmyRq7GcxiEupOGeVsXXKLEZG4aQoYhneoyWX8ZIxSsLTmnKR866LDqM8GfHOA-kh9Mu8pOpN6TqLntaCEPN4yVXY3lGRVjnUAQMurHCXA7wdYT3gIWr8ePe02pwlZeabqPSiTUeNiDEEcv3oTwlWRbTwF6bZ6wmxadwluALqsgOiAQ80r1kn1QmAP6MF70xDor_AbA4-TRvodTeUAiFFOqW6eHMuEwSr5xY6w_TJbw4_4l_uwT2Gh9ptb2DfYB7MuBxhetUy5RF1NZYqg1xz9U2cIpQQEfMjm40WTnSaBfBUMH5xzth_63m00]--></g></svg>