<?xml version="1.0" encoding="us-ascii" standalone="no"?><svg xmlns="http://www.w3.org/2000/svg" xmlns:xlink="http://www.w3.org/1999/xlink" contentStyleType="text/css" height="786.8px" preserveAspectRatio="none" style="width:1319px;height:786px;background:#FFFFFF;" version="1.1" viewBox="0 0 1319 786" width="1319.5px" zoomAndPan="magnify"><defs/><g><text fill="#000000" font-family="sans-serif" font-size="9.8" font-weight="bold" lengthAdjust="spacing" textLength="107.8" x="600.95" y="17.5752">Project Domain Model</text><!--cluster User--><g id="cluster_User"><rect fill="none" height="161.7" rx="1.75" ry="1.75" style="stroke:#000000;stroke-width:1.0499999999999998;" width="112.7" x="805.7" y="138.3348"/><text fill="#000000" font-family="sans-serif" font-size="9.8" font-weight="bold" lengthAdjust="spacing" textLength="23.1" x="850.5" y="150.31">User</text></g><!--cluster Workers--><g id="cluster_Workers"><rect fill="none" height="213.5" rx="1.75" ry="1.75" style="stroke:#000000;stroke-width:1.0499999999999998;" width="552.3" x="658" y="393.8348"/><text fill="#000000" font-family="sans-serif" font-size="9.8" font-weight="bold" lengthAdjust="spacing" textLength="41.3" x="913.5" y="405.81">Workers</text></g><!--cluster Client--><g id="cluster_Client"><rect fill="none" height="116.9" rx="1.75" ry="1.75" style="stroke:#000000;stroke-width:1.0499999999999998;" width="58.1" x="1257.2" y="97.7348"/><text fill="#000000" font-family="sans-serif" font-size="9.8" font-weight="bold" lengthAdjust="spacing" textLength="28.7" x="1271.9" y="109.71">Client</text></g><!--cluster Business--><g id="cluster_Business"><rect fill="none" height="473.9" rx="1.75" ry="1.75" style="stroke:#000000;stroke-width:1.0499999999999998;" width="452.9" x="4.9" y="32.6348"/><text fill="#000000" font-family="sans-serif" font-size="9.8" font-weight="bold" lengthAdjust="spacing" textLength="45.5" x="208.6" y="44.61">Business</text></g><!--class UnregisteredUser--><g id="elem_UnregisteredUser"><rect codeLine="20" fill="#F1F1F1" height="27.4969" id="UnregisteredUser" rx="1.75" ry="1.75" style="stroke:#000000;stroke-width:0.3499999999999999;" width="90.3" x="816.9" y="164.5848"/><text fill="#000000" font-family="sans-serif" font-size="11.2" lengthAdjust="spacing" textLength="86.1" x="819" y="180.1707">UnregisteredUser</text><line style="stroke:#000000;stroke-width:0.3499999999999999;" x1="817.6" x2="906.5" y1="186.4816" y2="186.4816"/></g><!--class RegisteredUser--><g id="elem_RegisteredUser"><rect codeLine="21" fill="#F1F1F1" height="72.1875" id="RegisteredUser" rx="1.75" ry="1.75" style="stroke:#000000;stroke-width:0.3499999999999999;" width="81.2" x="821.45" y="216.3848"/><text fill="#000000" font-family="sans-serif" font-size="11.2" lengthAdjust="spacing" textLength="77" x="823.55" y="231.9707">RegisteredUser</text><line style="stroke:#000000;stroke-width:0.3499999999999999;" x1="822.15" x2="901.95" y1="238.2816" y2="238.2816"/><text fill="#000000" font-family="sans-serif" font-size="11.2" lengthAdjust="spacing" textLength="30.8" x="825.65" y="253.1676">-name</text><text fill="#000000" font-family="sans-serif" font-size="11.2" lengthAdjust="spacing" textLength="30.1" x="825.65" y="268.0645">-email</text><text fill="#000000" font-family="sans-serif" font-size="11.2" lengthAdjust="spacing" textLength="51.1" x="825.65" y="282.9613">-password</text></g><!--class Employee--><g id="elem_Employee"><rect codeLine="29" fill="#F1F1F1" height="72.1875" id="Employee" rx="1.75" ry="1.75" style="stroke:#000000;stroke-width:0.3499999999999999;" width="105.7" x="950.25" y="471.8848"/><text fill="#000000" font-family="sans-serif" font-size="11.2" lengthAdjust="spacing" textLength="49" x="978.6" y="487.4707">Employee</text><line style="stroke:#000000;stroke-width:0.3499999999999999;" x1="950.95" x2="1055.25" y1="493.7816" y2="493.7816"/><text fill="#000000" font-family="sans-serif" font-size="11.2" lengthAdjust="spacing" textLength="97.3" x="954.45" y="508.6676">-citizenCardNumber</text><text fill="#000000" font-family="sans-serif" font-size="11.2" lengthAdjust="spacing" textLength="56" x="954.45" y="523.5645">-taxNumber</text><text fill="#000000" font-family="sans-serif" font-size="11.2" lengthAdjust="spacing" textLength="72.1" x="954.45" y="538.4613">-phoneNumber</text></g><!--class SystemAdministrator--><g id="elem_SystemAdministrator"><rect codeLine="34" fill="#F1F1F1" height="27.4969" id="SystemAdministrator" rx="1.75" ry="1.75" style="stroke:#000000;stroke-width:0.3499999999999999;" width="105.7" x="669.2" y="467.6848"/><text fill="#000000" font-family="sans-serif" font-size="11.2" lengthAdjust="spacing" textLength="101.5" x="671.3" y="483.2707">SystemAdministrator</text><line style="stroke:#000000;stroke-width:0.3499999999999999;" x1="669.9" x2="774.2" y1="489.5816" y2="489.5816"/></g><g id="elem_Agent"><rect fill="#F1F1F1" height="27.0348" style="stroke:#181818;stroke-width:0.3499999999999999;" width="35.7" x="985.25" y="420.0848"/><text fill="#000000" font-family="sans-serif" font-size="9.8" lengthAdjust="spacing" textLength="25.9" x="990.15" y="432.06">Agent</text><line style="stroke:#181818;stroke-width:0.3499999999999999;" x1="985.95" x2="1020.25" y1="435.9195" y2="435.9195"/></g><g id="elem_StoreManager"><rect fill="#F1F1F1" height="27.0348" style="stroke:#181818;stroke-width:0.3499999999999999;" width="72.8" x="1126.3" y="494.2848"/><text fill="#000000" font-family="sans-serif" font-size="9.8" lengthAdjust="spacing" textLength="63" x="1131.2" y="506.26">StoreManager</text><line style="stroke:#181818;stroke-width:0.3499999999999999;" x1="1127" x2="1198.4" y1="510.1195" y2="510.1195"/></g><g id="elem_StoreNetworkManager"><rect fill="#F1F1F1" height="27.0348" style="stroke:#181818;stroke-width:0.3499999999999999;" width="107.8" x="949.2" y="568.4848"/><text fill="#000000" font-family="sans-serif" font-size="9.8" lengthAdjust="spacing" textLength="98" x="954.1" y="580.46">StoreNetworkManager</text><line style="stroke:#181818;stroke-width:0.3499999999999999;" x1="949.9" x2="1056.3" y1="584.3195" y2="584.3195"/></g><!--class Buyer--><g id="elem_Buyer"><rect codeLine="45" fill="#F1F1F1" height="27.4969" id="Buyer" rx="1.75" ry="1.75" style="stroke:#000000;stroke-width:0.3499999999999999;" width="32.2" x="1270.15" y="123.9848"/><text fill="#000000" font-family="sans-serif" font-size="11.2" lengthAdjust="spacing" textLength="28" x="1272.25" y="139.5707">Buyer</text><line style="stroke:#000000;stroke-width:0.3499999999999999;" x1="1270.85" x2="1301.65" y1="145.8816" y2="145.8816"/></g><!--class Owner--><g id="elem_Owner"><rect codeLine="46" fill="#F1F1F1" height="27.4969" id="Owner" rx="1.75" ry="1.75" style="stroke:#000000;stroke-width:0.3499999999999999;" width="35.7" x="1268.4" y="175.7848"/><text fill="#000000" font-family="sans-serif" font-size="11.2" lengthAdjust="spacing" textLength="31.5" x="1270.5" y="191.3707">Owner</text><line style="stroke:#000000;stroke-width:0.3499999999999999;" x1="1269.1" x2="1303.4" y1="197.6816" y2="197.6816"/></g><!--class Agency--><g id="elem_Agency"><rect codeLine="55" fill="#F1F1F1" height="72.1875" id="Agency" rx="1.75" ry="1.75" style="stroke:#000000;stroke-width:0.3499999999999999;" width="80.5" x="16.1" y="422.8848"/><text fill="#000000" font-family="sans-serif" font-size="11.2" lengthAdjust="spacing" textLength="36.4" x="38.15" y="438.4707">Agency</text><line style="stroke:#000000;stroke-width:0.3499999999999999;" x1="16.8" x2="95.9" y1="444.7816" y2="444.7816"/><text fill="#000000" font-family="sans-serif" font-size="11.2" lengthAdjust="spacing" textLength="60.2" x="20.3" y="459.6676">-designation</text><text fill="#000000" font-family="sans-serif" font-size="11.2" lengthAdjust="spacing" textLength="30.1" x="20.3" y="474.5645">-email</text><text fill="#000000" font-family="sans-serif" font-size="11.2" lengthAdjust="spacing" textLength="72.1" x="20.3" y="489.4613">-phoneNumber</text></g><!--class Announcement--><g id="elem_Announcement"><rect codeLine="61" fill="#F1F1F1" height="57.2906" id="Announcement" rx="1.75" ry="1.75" style="stroke:#000000;stroke-width:0.3499999999999999;" width="88.2" x="337.05" y="315.4348"/><text fill="#000000" font-family="sans-serif" font-size="11.2" lengthAdjust="spacing" textLength="72.1" x="345.1" y="331.0207">Announcement</text><line style="stroke:#000000;stroke-width:0.3499999999999999;" x1="337.75" x2="424.55" y1="337.3316" y2="337.3316"/><text fill="#000000" font-family="sans-serif" font-size="11.2" lengthAdjust="spacing" textLength="62.3" x="341.25" y="352.2176">-commission</text><text fill="#000000" font-family="sans-serif" font-size="11.2" lengthAdjust="spacing" textLength="79.8" x="341.25" y="367.1145">-publicationDate</text></g><!--class SaleRequest--><g id="elem_SaleRequest"><rect codeLine="66" fill="#F1F1F1" height="42.3937" id="SaleRequest" rx="1.75" ry="1.75" style="stroke:#000000;stroke-width:0.3499999999999999;" width="86.8" x="162.75" y="370.3848"/><text fill="#000000" font-family="sans-serif" font-size="11.2" lengthAdjust="spacing" textLength="63" x="174.65" y="385.9707">SaleRequest</text><line style="stroke:#000000;stroke-width:0.3499999999999999;" x1="163.45" x2="248.85" y1="392.2816" y2="392.2816"/><text fill="#000000" font-family="sans-serif" font-size="11.2" lengthAdjust="spacing" textLength="78.4" x="166.95" y="407.1676">-requestedPrice</text></g><!--class RentRequest--><g id="elem_RentRequest"><rect codeLine="70" fill="#F1F1F1" height="57.2906" id="RentRequest" rx="1.75" ry="1.75" style="stroke:#000000;stroke-width:0.3499999999999999;" width="91.7" x="160.3" y="437.9348"/><text fill="#000000" font-family="sans-serif" font-size="11.2" lengthAdjust="spacing" textLength="63" x="174.65" y="453.5207">RentRequest</text><line style="stroke:#000000;stroke-width:0.3499999999999999;" x1="161" x2="251.3" y1="459.8316" y2="459.8316"/><text fill="#000000" font-family="sans-serif" font-size="11.2" lengthAdjust="spacing" textLength="62.3" x="164.5" y="474.7176">-monthlyRent</text><text fill="#000000" font-family="sans-serif" font-size="11.2" lengthAdjust="spacing" textLength="83.3" x="164.5" y="489.6145">-contractDuration</text></g><!--class TypeOfBusiness--><g id="elem_TypeOfBusiness"><rect codeLine="75" fill="#F1F1F1" height="27.4969" id="TypeOfBusiness" rx="1.75" ry="1.75" style="stroke:#000000;stroke-width:0.3499999999999999;" width="84" x="164.15" y="318.5848"/><text fill="#000000" font-family="sans-serif" font-size="11.2" lengthAdjust="spacing" textLength="79.8" x="166.25" y="334.1707">TypeOfBusiness</text><line style="stroke:#000000;stroke-width:0.3499999999999999;" x1="164.85" x2="247.45" y1="340.4816" y2="340.4816"/></g><g id="elem_GMN30"><path d="M22.75,310.5348 L22.75,353.8459 A0,0 0 0 0 22.75,353.8459 L89.95,353.8459 A0,0 0 0 0 89.95,353.8459 L89.95,335.0348 L164.066,332.2348 L89.95,329.4348 L89.95,317.5348 L82.95,310.5348 L22.75,310.5348 A0,0 0 0 0 22.75,310.5348 " fill="#FEFFDD" style="stroke:#181818;stroke-width:0.3499999999999999;"/><path d="M82.95,310.5348 L82.95,317.5348 L89.95,317.5348 L82.95,310.5348 " fill="#FEFFDD" style="stroke:#181818;stroke-width:0.3499999999999999;"/><text fill="#000000" font-family="sans-serif" font-size="9.1" lengthAdjust="spacing" textLength="52.5" x="26.95" y="323.8546">- description:</text><text fill="#000000" font-family="sans-serif" font-size="9.1" lengthAdjust="spacing" textLength="30.1" x="38.15" y="335.9583">1 - sale</text><text fill="#000000" font-family="sans-serif" font-size="9.1" lengthAdjust="spacing" textLength="28.7" x="38.15" y="348.062">2 - rent</text></g><!--class TypeOfProperty--><g id="elem_TypeOfProperty"><rect codeLine="84" fill="#F1F1F1" height="27.4969" id="TypeOfProperty" rx="1.75" ry="1.75" style="stroke:#000000;stroke-width:0.3499999999999999;" width="80.5" x="165.9" y="170.1848"/><text fill="#000000" font-family="sans-serif" font-size="11.2" lengthAdjust="spacing" textLength="76.3" x="168" y="185.7707">TypeOfProperty</text><line style="stroke:#000000;stroke-width:0.3499999999999999;" x1="166.6" x2="245.7" y1="192.0816" y2="192.0816"/></g><g id="elem_GMN34"><path d="M16.45,156.1848 L16.45,211.5996 A0,0 0 0 0 16.45,211.5996 L96.25,211.5996 A0,0 0 0 0 96.25,211.5996 L96.25,186.6348 L165.795,183.8348 L96.25,181.0348 L96.25,163.1848 L89.25,156.1848 L16.45,156.1848 A0,0 0 0 0 16.45,156.1848 " fill="#FEFFDD" style="stroke:#181818;stroke-width:0.3499999999999999;"/><path d="M89.25,156.1848 L89.25,163.1848 L96.25,163.1848 L89.25,156.1848 " fill="#FEFFDD" style="stroke:#181818;stroke-width:0.3499999999999999;"/><text fill="#000000" font-family="sans-serif" font-size="9.1" lengthAdjust="spacing" textLength="52.5" x="20.65" y="169.5046">- description:</text><text fill="#000000" font-family="sans-serif" font-size="9.1" lengthAdjust="spacing" textLength="30.1" x="31.85" y="181.6083">1 - land</text><text fill="#000000" font-family="sans-serif" font-size="9.1" lengthAdjust="spacing" textLength="53.9" x="31.85" y="193.712">2 - apartment</text><text fill="#000000" font-family="sans-serif" font-size="9.1" lengthAdjust="spacing" textLength="37.8" x="31.85" y="205.8157">3 - house</text></g><!--class Land--><g id="elem_Land"><rect codeLine="94" fill="#F1F1F1" height="72.1875" id="Land" rx="1.75" ry="1.75" style="stroke:#000000;stroke-width:0.3499999999999999;" width="130.9" x="315.7" y="147.7848"/><text fill="#000000" font-family="sans-serif" font-size="11.2" lengthAdjust="spacing" textLength="24.5" x="368.9" y="163.3707">Land</text><line style="stroke:#000000;stroke-width:0.3499999999999999;" x1="316.4" x2="445.9" y1="169.6816" y2="169.6816"/><text fill="#000000" font-family="sans-serif" font-size="11.2" lengthAdjust="spacing" textLength="25.9" x="319.9" y="184.5676">-area</text><text fill="#000000" font-family="sans-serif" font-size="11.2" lengthAdjust="spacing" textLength="122.5" x="319.9" y="199.4645">-distanceFromCityCentre</text><text fill="#000000" font-family="sans-serif" font-size="11.2" lengthAdjust="spacing" textLength="64.4" x="319.9" y="214.3613">-photographs</text></g><!--class House--><g id="elem_House"><rect codeLine="100" fill="#F1F1F1" height="72.1875" id="House" rx="1.75" ry="1.75" style="stroke:#000000;stroke-width:0.3499999999999999;" width="100.1" x="156.1" y="221.9848"/><text fill="#000000" font-family="sans-serif" font-size="11.2" lengthAdjust="spacing" textLength="31.5" x="190.4" y="237.5707">House</text><line style="stroke:#000000;stroke-width:0.3499999999999999;" x1="156.8" x2="255.5" y1="243.8816" y2="243.8816"/><text fill="#000000" font-family="sans-serif" font-size="11.2" lengthAdjust="spacing" textLength="70.7" x="160.3" y="258.7676">-hasBasement</text><text fill="#000000" font-family="sans-serif" font-size="11.2" lengthAdjust="spacing" textLength="91.7" x="160.3" y="273.6645">-hasInhabitableLoft</text><text fill="#000000" font-family="sans-serif" font-size="11.2" lengthAdjust="spacing" textLength="66.5" x="160.3" y="288.5613">-sunExposure</text></g><!--class Apartment--><g id="elem_Apartment"><rect codeLine="106" fill="#F1F1F1" height="87.0844" id="Apartment" rx="1.75" ry="1.75" style="stroke:#000000;stroke-width:0.3499999999999999;" width="135.1" x="138.6" y="58.5348"/><text fill="#000000" font-family="sans-serif" font-size="11.2" lengthAdjust="spacing" textLength="50.4" x="180.95" y="74.1207">Apartment</text><line style="stroke:#000000;stroke-width:0.3499999999999999;" x1="139.3" x2="273" y1="80.4316" y2="80.4316"/><text fill="#000000" font-family="sans-serif" font-size="11.2" lengthAdjust="spacing" textLength="102.2" x="142.8" y="95.3176">-numberOfBedrooms</text><text fill="#000000" font-family="sans-serif" font-size="11.2" lengthAdjust="spacing" textLength="104.3" x="142.8" y="110.2145">-numberOfBathrooms</text><text fill="#000000" font-family="sans-serif" font-size="11.2" lengthAdjust="spacing" textLength="126.7" x="142.8" y="125.1113">-numberOfParkingSpaces</text><text fill="#000000" font-family="sans-serif" font-size="11.2" lengthAdjust="spacing" textLength="99.4" x="142.8" y="140.0082">-availableEquipment</text></g><!--class Item--><g id="elem_Item"><rect codeLine="114" fill="#F1F1F1" height="42.3937" id="Item" rx="1.75" ry="1.75" style="stroke:#000000;stroke-width:0.3499999999999999;" width="35.7" x="844.2" y="618.8848"/><text fill="#000000" font-family="sans-serif" font-size="11.2" lengthAdjust="spacing" textLength="20.3" x="851.9" y="634.4707">Item</text><line style="stroke:#000000;stroke-width:0.3499999999999999;" x1="844.9" x2="879.2" y1="640.7816" y2="640.7816"/><text fill="#000000" font-family="sans-serif" font-size="11.2" lengthAdjust="spacing" textLength="27.3" x="848.4" y="655.6676">name</text></g><!--class Category--><g id="elem_Category"><rect codeLine="118" fill="#F1F1F1" height="27.4969" id="Category" rx="1.75" ry="1.75" style="stroke:#000000;stroke-width:0.3499999999999999;" width="49" x="978.6" y="623.0848"/><text fill="#000000" font-family="sans-serif" font-size="11.2" lengthAdjust="spacing" textLength="44.8" x="980.7" y="638.6707">Category</text><line style="stroke:#000000;stroke-width:0.3499999999999999;" x1="979.3" x2="1026.9" y1="644.9816" y2="644.9816"/></g><g id="elem_GMN42"><path d="M969.5,674.8848 L969.5,730.2996 A0,0 0 0 0 969.5,730.2996 L1036.7,730.2996 A0,0 0 0 0 1036.7,730.2996 L1036.7,681.8848 L1029.7,674.8848 L1005.9,674.8848 L1003.1,650.6858 L1000.3,674.8848 L969.5,674.8848 A0,0 0 0 0 969.5,674.8848 " fill="#FEFFDD" style="stroke:#181818;stroke-width:0.3499999999999999;"/><path d="M1029.7,674.8848 L1029.7,681.8848 L1036.7,681.8848 L1029.7,674.8848 " fill="#FEFFDD" style="stroke:#181818;stroke-width:0.3499999999999999;"/><text fill="#000000" font-family="sans-serif" font-size="9.1" lengthAdjust="spacing" textLength="52.5" x="973.7" y="688.2046">- description:</text><text fill="#000000" font-family="sans-serif" font-size="9.1" lengthAdjust="spacing" textLength="33.6" x="984.9" y="700.3083">1 - state</text><text fill="#000000" font-family="sans-serif" font-size="9.1" lengthAdjust="spacing" textLength="40.6" x="984.9" y="712.412">2 - district</text><text fill="#000000" font-family="sans-serif" font-size="9.1" lengthAdjust="spacing" textLength="28" x="984.9" y="724.5157">3 - city</text></g><!--class System--><g id="elem_System"><rect codeLine="128" fill="#F1F1F1" height="27.4969" id="System" rx="1.75" ry="1.75" style="stroke:#000000;stroke-width:0.3499999999999999;" width="40.6" x="982.8" y="754.6848"/><text fill="#000000" font-family="sans-serif" font-size="11.2" lengthAdjust="spacing" textLength="36.4" x="984.9" y="770.2707">System</text><line style="stroke:#000000;stroke-width:0.3499999999999999;" x1="983.5" x2="1022.7" y1="776.5816" y2="776.5816"/></g><!--class Address--><g id="elem_Address"><rect codeLine="130" fill="#F1F1F1" height="101.9812" id="Address" rx="1.75" ry="1.75" style="stroke:#000000;stroke-width:0.3499999999999999;" width="53.2" x="488.6" y="389.6348"/><text fill="#000000" font-family="sans-serif" font-size="11.2" lengthAdjust="spacing" textLength="41.3" x="494.55" y="405.2207">Address</text><line style="stroke:#000000;stroke-width:0.3499999999999999;" x1="489.3" x2="541.1" y1="411.5316" y2="411.5316"/><text fill="#000000" font-family="sans-serif" font-size="11.2" lengthAdjust="spacing" textLength="30.8" x="492.8" y="426.4176">-street</text><text fill="#000000" font-family="sans-serif" font-size="11.2" lengthAdjust="spacing" textLength="19.6" x="492.8" y="441.3145">-city</text><text fill="#000000" font-family="sans-serif" font-size="11.2" lengthAdjust="spacing" textLength="35.7" x="492.8" y="456.2113">-district</text><text fill="#000000" font-family="sans-serif" font-size="11.2" lengthAdjust="spacing" textLength="27.3" x="492.8" y="471.1082">-state</text><text fill="#000000" font-family="sans-serif" font-size="11.2" lengthAdjust="spacing" textLength="44.8" x="492.8" y="486.0051">-zipCode</text></g><!--class Role--><g id="elem_Role"><rect codeLine="156" fill="#F1F1F1" height="27.4969" id="Role" rx="1.75" ry="1.75" style="stroke:#000000;stroke-width:0.3499999999999999;" width="26.6" x="1149.4" y="275.1848"/><text fill="#000000" font-family="sans-serif" font-size="11.2" lengthAdjust="spacing" textLength="22.4" x="1151.5" y="290.7707">Role</text><line style="stroke:#000000;stroke-width:0.3499999999999999;" x1="1150.1" x2="1175.3" y1="297.0816" y2="297.0816"/></g><g id="elem_GMN72"><path d="M1099,326.9848 L1099,382.3996 A0,0 0 0 0 1099,382.3996 L1226.4,382.3996 A0,0 0 0 0 1226.4,382.3996 L1226.4,333.9848 L1219.4,326.9848 L1165.5,326.9848 L1162.7,302.7858 L1159.9,326.9848 L1099,326.9848 A0,0 0 0 0 1099,326.9848 " fill="#FEFFDD" style="stroke:#181818;stroke-width:0.3499999999999999;"/><path d="M1219.4,326.9848 L1219.4,333.9848 L1226.4,333.9848 L1219.4,326.9848 " fill="#FEFFDD" style="stroke:#181818;stroke-width:0.3499999999999999;"/><text fill="#000000" font-family="sans-serif" font-size="9.1" lengthAdjust="spacing" textLength="52.5" x="1103.2" y="340.3046">- description:</text><text fill="#000000" font-family="sans-serif" font-size="9.1" lengthAdjust="spacing" textLength="35.7" x="1114.4" y="352.4083">1 - agent</text><text fill="#000000" font-family="sans-serif" font-size="9.1" lengthAdjust="spacing" textLength="68.6" x="1114.4" y="364.512">2 - storeManager</text><text fill="#000000" font-family="sans-serif" font-size="9.1" lengthAdjust="spacing" textLength="101.5" x="1114.4" y="376.6157">3 - storeNetworkManager</text></g><!--link Employee to Agent--><g id="link_Employee_Agent"><path codeLine="38" d="M1003.1,471.7028 C1003.1,463.0928 1003.1,454.4268 1003.1,447.5458 " fill="none" id="Employee-Agent" style="stroke:#181818;stroke-width:0.6999999999999998;"/><text fill="#000000" font-family="sans-serif" font-size="9.1" lengthAdjust="spacing" textLength="4.9" x="997.8708" y="463.9622">1</text><text fill="#000000" font-family="sans-serif" font-size="9.1" lengthAdjust="spacing" textLength="3.5" x="999.1516" y="462.4894">*</text></g><!--link StoreNetworkManager to Employee--><g id="link_StoreNetworkManager_Employee"><path codeLine="39" d="M1003.1,568.1768 C1003.1,561.2958 1003.1,552.6368 1003.1,544.0548 " fill="none" id="StoreNetworkManager-Employee" style="stroke:#181818;stroke-width:0.6999999999999998;"/><text fill="#000000" font-family="sans-serif" font-size="9.1" lengthAdjust="spacing" textLength="3.5" x="999.1078" y="560.5634">*</text><text fill="#000000" font-family="sans-serif" font-size="9.1" lengthAdjust="spacing" textLength="4.9" x="997.8708" y="559.5356">1</text></g><!--link Employee to StoreManager--><g id="link_Employee_StoreManager"><path codeLine="40" d="M1056.02,507.9348 C1079.071,507.9348 1105.503,507.9348 1126.293,507.9348 " fill="none" id="Employee-StoreManager" style="stroke:#181818;stroke-width:0.6999999999999998;"/><text fill="#000000" font-family="sans-serif" font-size="9.1" lengthAdjust="spacing" textLength="4.9" x="1061.4705" y="518.346">1</text><text fill="#000000" font-family="sans-serif" font-size="9.1" lengthAdjust="spacing" textLength="3.5" x="1117.1887" y="518.6629">*</text></g><!--link SystemAdministrator to Employee--><g id="link_SystemAdministrator_Employee"><path codeLine="41" d="M774.914,483.4348 C825.083,483.4348 900.067,483.4348 950.236,483.4348 " fill="none" id="SystemAdministrator-Employee" style="stroke:#181818;stroke-width:0.6999999999999998;"/><polygon fill="#000000" points="824.075,490.1866,817.7434,488.1294,817.7434,492.2439,824.075,490.1866" style="stroke:#000000;stroke-width:0.6999999999999998;"/><text fill="#000000" font-family="sans-serif" font-size="9.1" lengthAdjust="spacing" textLength="35" x="826.875" y="493.9546">registers</text><text fill="#000000" font-family="sans-serif" font-size="9.1" lengthAdjust="spacing" textLength="4.9" x="780.6183" y="494.0851">1</text><text fill="#000000" font-family="sans-serif" font-size="9.1" lengthAdjust="spacing" textLength="3.5" x="941.1039" y="491.3476">*</text></g><!--link RegisteredUser to Buyer--><g id="link_RegisteredUser_Buyer"><path codeLine="49" d="M902.762,245.7848 C943.32,245.7848 999.6,245.7848 999.6,245.7848 C999.6,245.7848 999.6,131.1038 999.6,131.1038 C999.6,131.1038 1209.376,131.1038 1270.017,131.1038 " fill="none" id="RegisteredUser-Buyer" style="stroke:#181818;stroke-width:0.6999999999999998;"/></g><!--link RegisteredUser to Owner--><g id="link_RegisteredUser_Owner"><path codeLine="50" d="M862.4,216.1328 C862.4,204.9958 862.4,195.6158 862.4,195.6158 C862.4,195.6158 1187.634,195.6158 1268.309,195.6158 " fill="none" id="RegisteredUser-Owner" style="stroke:#181818;stroke-width:0.6999999999999998;"/></g><!--link RegisteredUser to Employee--><g id="link_RegisteredUser_Employee"><path codeLine="51" d="M891.8,288.6178 C891.8,352.2898 891.8,477.6598 891.8,477.6598 C891.8,477.6598 921.389,477.6598 950.061,477.6598 " fill="none" id="RegisteredUser-Employee" style="stroke:#181818;stroke-width:0.6999999999999998;"/></g><!--link Agent to Owner--><g id="link_Agent_Owner"><path codeLine="52" d="M1014.3,419.7768 C1014.3,369.3138 1014.3,199.3538 1014.3,199.3538 C1014.3,199.3538 1207.458,199.3538 1268.197,199.3538 " fill="none" id="Agent-Owner" style="stroke:#181818;stroke-width:0.6999999999999998;"/><polygon fill="#000000" points="986.394,208.4001,992.5239,205.8028,989.8265,202.6958,986.394,208.4001" style="stroke:#000000;stroke-width:0.6999999999999998;"/><text fill="#000000" font-family="sans-serif" font-size="9.1" lengthAdjust="spacing" textLength="35" x="995.337" y="209.8736">contacts</text><text fill="#000000" font-family="sans-serif" font-size="9.1" lengthAdjust="spacing" textLength="4.9" x="1011.8609" y="412.1634">1</text><text fill="#000000" font-family="sans-serif" font-size="9.1" lengthAdjust="spacing" textLength="3.5" x="1259.3749" y="213.4393">*</text></g><!--link Address to SystemAdministrator--><g id="link_Address_SystemAdministrator"><path codeLine="138" d="M541.821,479.7598 C573.846,479.7598 628.376,479.7598 669.088,479.7598 " fill="none" id="Address-SystemAdministrator" style="stroke:#181818;stroke-width:0.6999999999999998;"/><polygon fill="#000000" points="564.858,486.5116,571.1896,488.5689,571.1896,484.4544,564.858,486.5116" style="stroke:#000000;stroke-width:0.6999999999999998;"/><text fill="#000000" font-family="sans-serif" font-size="9.1" lengthAdjust="spacing" textLength="30.1" x="574.658" y="490.2796">creates</text><text fill="#000000" font-family="sans-serif" font-size="9.1" lengthAdjust="spacing" textLength="3.5" x="547.4065" y="498.4756">*</text><text fill="#000000" font-family="sans-serif" font-size="9.1" lengthAdjust="spacing" textLength="4.9" x="658.7334" y="490.0106">1</text></g><!--link SystemAdministrator to Item--><g id="link_SystemAdministrator_Item"><path codeLine="139" d="M774.907,489.2098 C814.695,489.2098 862.4,489.2098 862.4,489.2098 C862.4,489.2098 862.4,576.8358 862.4,618.5978 " fill="none" id="SystemAdministrator-Item" style="stroke:#181818;stroke-width:0.6999999999999998;"/><polygon fill="#000000" points="837.7606,519.812,835.9181,513.4146,832.5097,515.7194,837.7606,519.812" style="stroke:#000000;stroke-width:0.6999999999999998;"/><text fill="#000000" font-family="sans-serif" font-size="9.1" lengthAdjust="spacing" textLength="19.6" x="842.1" y="520.6806">adds</text><text fill="#000000" font-family="sans-serif" font-size="9.1" lengthAdjust="spacing" textLength="4.9" x="780.4034" y="501.8817">1</text></g><!--link Item to Category--><g id="link_Item_Category"><path codeLine="140" d="M879.914,636.7348 C904.897,636.7348 950.362,636.7348 978.523,636.7348 " fill="none" id="Item-Category" style="stroke:#181818;stroke-width:0.6999999999999998;"/><polygon fill="#000000" points="918.715,643.4866,912.3834,641.4294,912.3834,645.5439,918.715,643.4866" style="stroke:#000000;stroke-width:0.6999999999999998;"/><text fill="#000000" font-family="sans-serif" font-size="9.1" lengthAdjust="spacing" textLength="7" x="921.515" y="647.2546">of</text><text fill="#000000" font-family="sans-serif" font-size="9.1" lengthAdjust="spacing" textLength="4.9" x="885.3734" y="647.2816">1</text><text fill="#000000" font-family="sans-serif" font-size="9.1" lengthAdjust="spacing" textLength="4.9" x="968.0487" y="647.7825">1</text></g><!--link Item to System--><g id="link_Item_System"><path codeLine="141" d="M862.4,661.6758 C862.4,698.1458 862.4,768.3348 862.4,768.3348 C862.4,768.3348 943.621,768.3348 982.639,768.3348 " fill="none" id="Item-System" style="stroke:#181818;stroke-width:0.6999999999999998;"/><polygon fill="#000000" points="857.1083,777.4092,853.7369,771.6686,851.0066,774.7466,857.1083,777.4092" style="stroke:#000000;stroke-width:0.6999999999999998;"/><text fill="#000000" font-family="sans-serif" font-size="9.1" lengthAdjust="spacing" textLength="7.7" x="860.79" y="778.8546">to</text><text fill="#000000" font-family="sans-serif" font-size="9.1" lengthAdjust="spacing" textLength="3.5" x="858.6331" y="676.7656">*</text><text fill="#000000" font-family="sans-serif" font-size="9.1" lengthAdjust="spacing" textLength="4.9" x="972.4408" y="779.5313">1</text></g><!--link Agency to Employee--><g id="link_Agency_Employee"><path codeLine="142" d="M56.7,495.3138 C56.7,508.2428 56.7,519.6598 56.7,519.6598 C56.7,519.6598 750.883,519.6598 950.187,519.6598 " fill="none" id="Agency-Employee" style="stroke:#181818;stroke-width:0.6999999999999998;"/></g><!--link Announcement to Address--><g id="link_Announcement_Address"><path codeLine="143" d="M425.411,357.5538 C464.457,357.5538 515.2,357.5538 515.2,357.5538 C515.2,357.5538 515.2,372.3588 515.2,389.4738 " fill="none" id="Announcement-Address" style="stroke:#181818;stroke-width:0.6999999999999998;"/></g><!--link TypeOfBusiness to Announcement--><g id="link_TypeOfBusiness_Announcement"><path codeLine="145" d="M248.29,332.2348 C275.093,332.2348 309.743,332.2348 336.931,332.2348 " fill="none" id="TypeOfBusiness-Announcement" style="stroke:#181818;stroke-width:0.6999999999999998;"/></g><!--link RentRequest to Announcement--><g id="link_RentRequest_Announcement"><path codeLine="146" d="M252.189,464.8848 C299.656,464.8848 366.8,464.8848 366.8,464.8848 C366.8,464.8848 366.8,387.0588 366.8,387.0588 " fill="none" id="RentRequest-to-Announcement" style="stroke:#181818;stroke-width:0.6999999999999998;"/><polygon fill="none" points="361.9,387.0588,366.8,373.0588,371.7,387.0588,361.9,387.0588" style="stroke:#181818;stroke-width:0.6999999999999998;"/></g><!--link SaleRequest to Announcement--><g id="link_SaleRequest_Announcement"><path codeLine="147" d="M249.753,377.5598 C305.858,377.5598 396.2,377.5598 396.2,377.5598 C396.2,377.5598 396.2,377.0978 396.2,377.0978 " fill="none" id="SaleRequest-to-Announcement" style="stroke:#181818;stroke-width:0.6999999999999998;"/><polygon fill="none" points="391.3,386.9118,396.2,372.9118,401.1,386.9118,391.3,386.9118" style="stroke:#181818;stroke-width:0.6999999999999998;"/></g><!--link Apartment to Land--><g id="link_Apartment_Land"><path codeLine="148" d="M265.3,145.4398 C265.3,149.4158 265.3,151.9848 265.3,151.9848 C265.3,151.9848 289.289,151.9848 315.441,151.9848 " fill="none" id="Apartment-Land" style="stroke:#181818;stroke-width:0.6999999999999998;"/></g><!--link TypeOfProperty to Land--><g id="link_TypeOfProperty_Land"><path codeLine="149" d="M246.519,183.8348 C267.008,183.8348 292.418,183.8348 315.616,183.8348 " fill="none" id="TypeOfProperty-Land" style="stroke:#181818;stroke-width:0.6999999999999998;"/></g><!--link House to Apartment--><g id="link_House_Apartment"><path codeLine="150" d="M161,221.8308 C161,221.8308 161,159.4398 161,159.4398 " fill="none" id="House-to-Apartment" style="stroke:#181818;stroke-width:0.6999999999999998;"/><polygon fill="none" points="156.1,159.4468,161,145.4398,165.9,159.4398,156.1,159.4468" style="stroke:#181818;stroke-width:0.6999999999999998;"/></g><!--reverse link Announcement to Land--><g id="link_Announcement_Land"><path codeLine="151" d="M381.5,301.2878 C381.5,301.2878 381.5,220.0388 381.5,220.0388 " fill="none" id="Announcement-backto-Land" style="stroke:#181818;stroke-width:0.6999999999999998;"/><polygon fill="none" points="386.4,301.2878,381.5,315.2878,376.6,301.2878,386.4,301.2878" style="stroke:#181818;stroke-width:0.6999999999999998;"/></g><!--link Announcement to Agent--><g id="link_Announcement_Agent"><path codeLine="152" d="M425.369,342.2658 C565.824,342.2658 992.6,342.2658 992.6,342.2658 C992.6,342.2658 992.6,394.5278 992.6,420.0428 " fill="none" id="Announcement-Agent" style="stroke:#181818;stroke-width:0.6999999999999998;"/><polygon fill="#000000" points="702.4054,348.5422,708.3988,351.4405,708.9578,347.3641,702.4054,348.5422" style="stroke:#000000;stroke-width:0.6999999999999998;"/><text fill="#000000" font-family="sans-serif" font-size="9.1" lengthAdjust="spacing" textLength="35" x="712.173" y="352.7856">registers</text><text fill="#000000" font-family="sans-serif" font-size="9.1" lengthAdjust="spacing" textLength="14" x="430.9711" y="352.5491">0..*</text><text fill="#000000" font-family="sans-serif" font-size="9.1" lengthAdjust="spacing" textLength="4.9" x="983.8959" y="412.2616">1</text></g><!--link Announcement to UnregisteredUser--><g id="link_Announcement_UnregisteredUser"><path codeLine="153" d="M425.39,319.2848 C446.656,319.2848 467.6,319.2848 467.6,319.2848 C467.6,319.2848 467.6,178.2348 467.6,178.2348 C467.6,178.2348 713.195,178.2348 816.802,178.2348 " fill="none" id="Announcement-UnregisteredUser" style="stroke:#181818;stroke-width:0.6999999999999998;"/><polygon fill="#000000" points="523.4783,186.1732,530.1323,185.9621,528.7374,182.0912,523.4783,186.1732" style="stroke:#000000;stroke-width:0.6999999999999998;"/><text fill="#000000" font-family="sans-serif" font-size="9.1" lengthAdjust="spacing" textLength="16.8" x="533.071" y="188.7546">lists</text><text fill="#000000" font-family="sans-serif" font-size="9.1" lengthAdjust="spacing" textLength="14" x="430.9944" y="313.853">0..*</text><text fill="#000000" font-family="sans-serif" font-size="9.1" lengthAdjust="spacing" textLength="4.9" x="806.3869" y="188.743">1</text></g><!--link Announcement to Buyer--><g id="link_Announcement_Buyer"><path codeLine="154" d="M425.432,323.1348 C568.218,323.1348 1007.3,323.1348 1007.3,323.1348 C1007.3,323.1348 1007.3,138.2158 1007.3,138.2158 C1007.3,138.2158 1210.51,138.2158 1270.045,138.2158 " fill="none" id="Announcement-Buyer" style="stroke:#181818;stroke-width:0.6999999999999998;"/><polygon fill="#000000" points="912.979,330.6352,919.604,331.2907,918.7241,327.2714,912.979,330.6352" style="stroke:#000000;stroke-width:0.6999999999999998;"/><text fill="#000000" font-family="sans-serif" font-size="9.1" lengthAdjust="spacing" textLength="16.8" x="922.698" y="333.6546">lists</text><text fill="#000000" font-family="sans-serif" font-size="9.1" lengthAdjust="spacing" textLength="14" x="430.7205" y="331.4187">0..*</text><text fill="#000000" font-family="sans-serif" font-size="9.1" lengthAdjust="spacing" textLength="4.9" x="1259.6651" y="149.9551">1</text></g><!--link Employee to Role--><g id="link_Employee_Role"><path codeLine="166" d="M1038.8,471.6538 C1038.8,411.6498 1038.8,298.2848 1038.8,298.2848 C1038.8,298.2848 1117.095,298.2848 1149.204,298.2848 " fill="none" id="Employee-Role" style="stroke:#181818;stroke-width:0.6999999999999998;"/></g><!--SRC=[ZLPRRzGw47xFhx3s4Ic8WeH4LI5jjqLKubBjWdZs9hE9gMC7Ut9AuFI_CtPkTf9IyX9bhj_SO- -4ghdX5QjvTiSBE60hWHd8aAj2Gc970LloNDyBLR0JbpRaIA40sngODbZgW959RkqMqOXZWt2JQNKGlu2zI4gH0wk0f7ERI3WXGysCA4fakN3EXLQTK2PC9i7EZRxJ2hsjipV_ucykmtudZ9x9ocl_VQbD3cQdfJRiA2aXoKEIe43AoAtHtmaNkz8L5ufzr3d89EcJnhvQCBtDplvNPQ0G5i50xfW1QnynUYttf4pn2e9F85So-Av9_PuWUjA3mpRu_wRD7HWRGRYkQgbRWCX39f3YLJjkyazDTUo1TJpaFnUqkjGA0kf3uE3GKXZLDg-4ee0CHzt9wAFFrBO0XI7XG0BmaIi2R1RqJu0Ksbt8zWROvjacTHsIiitPPWpA2wmeEd6M-avwJ26IREeriMLWNYYb_bTfwZN7x9wpeTAMlGrhifF2uGzBSjcqKIjylbVqJJgpdkWSzUBhl4vrpakdGFhiETWzPAz2U6aia6TesSK4zhAnDCGsxY1d8ckZ_id1Ya9nFvz_QTH5ruHMbTADog2QijFtfgugOMrikcwEKcJUuHL7M9exS0bx-D60ZQsPZWRvhH7PYjwUtA_fLPITKhRxeNa7R8eQ8SEhnap1H_Q-q0ByV9hbiPTG6e7vDQTFCy4ujvaHjJD_FfBTSqPCIs56n9S-nXuagDmxMGAYlLM3mVP9G8FWlmAINEKBG9nsB5PXwjppYZYbRYmyYlK36Okgm0tm40brEQUUUMTqjHFOxiY5WRZZK1U6rwLTbkQzynsPBxczv1QgkCX4lL4bFmhaHmaVz2basaPT_worRSnACss7kEDrxYU0QWsvqRgoQooEvMEyMsxeQXK7cb48-Vm_cZQ7yFf78-en1dyGEZWtjBu8YJyd8t57urDeq_vs9Dy0HuseAzS20o_vI-5z5-8mWqF5NMLemAPClUgkJ9jCTGxFnV2rpNCppOcpR00m6Q_K22Mq7m98sIzHx-WCkt06Qtwd-tr7UszjZTFseyv2SCllqJMV-WIUCvxdRgVxRFOCzngIHSOeTGF_sSZlx1AN_cdU9kEXyBUcMwb9j0D9hSUVp1XEOxOk8e6B_xr8iCfM-S6AJFoaTL36MPreirKmjJLPwewmdwM5b_xWEaCnR_FY-VFPHUuEKtWsBvBvxrANRd-SEmEHqNFwuxJeIlEKBtz11_6BeVVsMhfri1m3ntXg17WHBesNlYTd_pN36DYL7vjfAZmA7-FG8dy0]--></g></svg>