<?xml version="1.0" encoding="us-ascii" standalone="no"?><svg xmlns="http://www.w3.org/2000/svg" xmlns:xlink="http://www.w3.org/1999/xlink" contentStyleType="text/css" height="536px" preserveAspectRatio="none" style="width:1047px;height:536px;background:#FFFFFF;" version="1.1" viewBox="0 0 1047 536" width="1047px" zoomAndPan="magnify"><defs/><g><rect fill="#FFFFFF" height="87.582" style="stroke:#181818;stroke-width:1.0;" width="10" x="231" y="71.9121"/><rect fill="#FFFFFF" height="91.291" style="stroke:#181818;stroke-width:1.0;" width="10" x="424" y="129.4941"/><rect fill="#FFFFFF" height="289.7461" style="stroke:#181818;stroke-width:1.0;" width="10" x="603" y="190.7852"/><rect fill="none" height="274.7461" style="stroke:#000000;stroke-width:1.5;" width="879.5" x="161.5" y="86.9121"/><line style="stroke:#181818;stroke-width:0.5;stroke-dasharray:5.0,5.0;" x1="235.5" x2="235.5" y1="38.6211" y2="498.5313"/><line style="stroke:#181818;stroke-width:0.5;stroke-dasharray:5.0,5.0;" x1="428.5" x2="428.5" y1="38.6211" y2="498.5313"/><line style="stroke:#181818;stroke-width:0.5;stroke-dasharray:5.0,5.0;" x1="608" x2="608" y1="38.6211" y2="498.5313"/><rect fill="#E2E2F0" height="32.6211" rx="2.5" ry="2.5" style="stroke:#181818;stroke-width:0.5;" width="129" x="171.5" y="5"/><text fill="#000000" font-family="sans-serif" font-size="14" lengthAdjust="spacing" textLength="115" x="178.5" y="27.1074">AgencyRepository</text><rect fill="#E2E2F0" height="32.6211" rx="2.5" ry="2.5" style="stroke:#181818;stroke-width:0.5;" width="129" x="171.5" y="497.5313"/><text fill="#000000" font-family="sans-serif" font-size="14" lengthAdjust="spacing" textLength="115" x="178.5" y="519.6387">AgencyRepository</text><rect fill="#E2E2F0" height="32.6211" rx="2.5" ry="2.5" style="stroke:#181818;stroke-width:0.5;" width="61" x="398.5" y="5"/><text fill="#000000" font-family="sans-serif" font-size="14" lengthAdjust="spacing" textLength="47" x="405.5" y="27.1074">Agency</text><rect fill="#E2E2F0" height="32.6211" rx="2.5" ry="2.5" style="stroke:#181818;stroke-width:0.5;" width="61" x="398.5" y="497.5313"/><text fill="#000000" font-family="sans-serif" font-size="14" lengthAdjust="spacing" textLength="47" x="405.5" y="519.6387">Agency</text><rect fill="#E2E2F0" height="32.6211" rx="2.5" ry="2.5" style="stroke:#181818;stroke-width:0.5;" width="164" x="526" y="5"/><text fill="#000000" font-family="sans-serif" font-size="14" lengthAdjust="spacing" textLength="150" x="533" y="27.1074">AnnouncementHandling</text><rect fill="#E2E2F0" height="32.6211" rx="2.5" ry="2.5" style="stroke:#181818;stroke-width:0.5;" width="164" x="526" y="497.5313"/><text fill="#000000" font-family="sans-serif" font-size="14" lengthAdjust="spacing" textLength="150" x="533" y="519.6387">AnnouncementHandling</text><rect fill="#FFFFFF" height="87.582" style="stroke:#181818;stroke-width:1.0;" width="10" x="231" y="71.9121"/><rect fill="#FFFFFF" height="91.291" style="stroke:#181818;stroke-width:1.0;" width="10" x="424" y="129.4941"/><rect fill="#FFFFFF" height="289.7461" style="stroke:#181818;stroke-width:1.0;" width="10" x="603" y="190.7852"/><polygon fill="#181818" points="219,67.9121,229,71.9121,219,75.9121,223,71.9121" style="stroke:#181818;stroke-width:1.0;"/><line style="stroke:#181818;stroke-width:1.0;" x1="0" x2="225" y1="71.9121" y2="71.9121"/><text fill="#000000" font-family="sans-serif" font-size="13" lengthAdjust="spacing" textLength="212" x="7" y="66.6494">getDefaultSortedAnnouncementList()</text><path d="M161.5,86.9121 L234.5,86.9121 L234.5,96.2031 L224.5,106.2031 L161.5,106.2031 L161.5,86.9121 " fill="#EEEEEE" style="stroke:#000000;stroke-width:1.5;"/><rect fill="none" height="274.7461" style="stroke:#000000;stroke-width:1.5;" width="879.5" x="161.5" y="86.9121"/><text fill="#000000" font-family="sans-serif" font-size="13" font-weight="bold" lengthAdjust="spacing" textLength="28" x="176.5" y="101.9404">loop</text><text fill="#000000" font-family="sans-serif" font-size="11" font-weight="bold" lengthAdjust="spacing" textLength="95" x="249.5" y="100.7822">[for each agency]</text><polygon fill="#181818" points="412,125.4941,422,129.4941,412,133.4941,416,129.4941" style="stroke:#181818;stroke-width:1.0;"/><line style="stroke:#181818;stroke-width:1.0;" x1="241" x2="418" y1="129.4941" y2="129.4941"/><text fill="#000000" font-family="sans-serif" font-size="13" lengthAdjust="spacing" textLength="164" x="248" y="124.2314">getAgencyAnnouncements()</text><polygon fill="#181818" points="591,186.7852,601,190.7852,591,194.7852,595,190.7852" style="stroke:#181818;stroke-width:1.0;"/><line style="stroke:#181818;stroke-width:1.0;stroke-dasharray:2.0,2.0;" x1="434" x2="597" y1="190.7852" y2="190.7852"/><text fill="#000000" font-family="sans-serif" font-size="13" lengthAdjust="spacing" textLength="150" x="441" y="185.5225">agencyAnnouncementList</text><line style="stroke:#181818;stroke-width:1.0;" x1="613" x2="655" y1="252.0762" y2="252.0762"/><line style="stroke:#181818;stroke-width:1.0;" x1="655" x2="655" y1="252.0762" y2="265.0762"/><line style="stroke:#181818;stroke-width:1.0;" x1="614" x2="655" y1="265.0762" y2="265.0762"/><polygon fill="#181818" points="624,261.0762,614,265.0762,624,269.0762,620,265.0762" style="stroke:#181818;stroke-width:1.0;"/><text fill="#000000" font-family="sans-serif" font-size="13" lengthAdjust="spacing" textLength="330" x="620" y="246.8135">sortAnnouncementsByDefault(agencyAnnouncementList)</text><line style="stroke:#181818;stroke-width:1.0;stroke-dasharray:2.0,2.0;" x1="613" x2="655" y1="296.3672" y2="296.3672"/><line style="stroke:#181818;stroke-width:1.0;stroke-dasharray:2.0,2.0;" x1="655" x2="655" y1="296.3672" y2="309.3672"/><line style="stroke:#181818;stroke-width:1.0;stroke-dasharray:2.0,2.0;" x1="614" x2="655" y1="309.3672" y2="309.3672"/><polygon fill="#181818" points="624,305.3672,614,309.3672,624,313.3672,620,309.3672" style="stroke:#181818;stroke-width:1.0;"/><text fill="#000000" font-family="sans-serif" font-size="13" lengthAdjust="spacing" textLength="228" x="620" y="291.1045">defaultSortedAgencyAnnouncementList</text><line style="stroke:#181818;stroke-width:1.0;" x1="613" x2="655" y1="340.6582" y2="340.6582"/><line style="stroke:#181818;stroke-width:1.0;" x1="655" x2="655" y1="340.6582" y2="353.6582"/><line style="stroke:#181818;stroke-width:1.0;" x1="614" x2="655" y1="353.6582" y2="353.6582"/><polygon fill="#181818" points="624,349.6582,614,353.6582,624,357.6582,620,353.6582" style="stroke:#181818;stroke-width:1.0;"/><text fill="#000000" font-family="sans-serif" font-size="13" lengthAdjust="spacing" textLength="409" x="620" y="335.3955">addAgencyAnnouncementList(defaultSortedAgencyAnnouncementList)</text><line style="stroke:#181818;stroke-width:1.0;stroke-dasharray:2.0,2.0;" x1="613" x2="655" y1="391.9492" y2="391.9492"/><line style="stroke:#181818;stroke-width:1.0;stroke-dasharray:2.0,2.0;" x1="655" x2="655" y1="391.9492" y2="404.9492"/><line style="stroke:#181818;stroke-width:1.0;stroke-dasharray:2.0,2.0;" x1="614" x2="655" y1="404.9492" y2="404.9492"/><polygon fill="#181818" points="624,400.9492,614,404.9492,624,408.9492,620,404.9492" style="stroke:#181818;stroke-width:1.0;"/><text fill="#000000" font-family="sans-serif" font-size="13" lengthAdjust="spacing" textLength="113" x="620" y="386.6865">announcementsList</text><line style="stroke:#181818;stroke-width:1.0;" x1="613" x2="655" y1="436.2402" y2="436.2402"/><line style="stroke:#181818;stroke-width:1.0;" x1="655" x2="655" y1="436.2402" y2="449.2402"/><line style="stroke:#181818;stroke-width:1.0;" x1="614" x2="655" y1="449.2402" y2="449.2402"/><polygon fill="#181818" points="624,445.2402,614,449.2402,624,453.2402,620,449.2402" style="stroke:#181818;stroke-width:1.0;"/><text fill="#000000" font-family="sans-serif" font-size="13" lengthAdjust="spacing" textLength="325" x="620" y="430.9775">getDefaultSortedAnnouncementList(announcementsList)</text><polygon fill="#181818" points="11,476.5313,1,480.5313,11,484.5313,7,480.5313" style="stroke:#181818;stroke-width:1.0;"/><line style="stroke:#181818;stroke-width:1.0;stroke-dasharray:2.0,2.0;" x1="5" x2="607" y1="480.5313" y2="480.5313"/><text fill="#000000" font-family="sans-serif" font-size="13" lengthAdjust="spacing" textLength="184" x="17" y="475.2686">defaultSortedAnnouncementList</text><!--SRC=[fPDD2eCm48NtdcAMkiW5f1GiNNJHLNk2a8nMi1FHMF3szISr_aHKwYgOcNpllKpO6Q84ITGFp5MPQbNK8IIehnZpAjDFLMYK4P6gIE0RIT_JKlk1nuLEFrpZejlpeFaofNA8LG78nGjuLzFlpEk1_HHqt7uv1fODhMsS4Rj_4ZTqM2Am5ZGwzyP9PYabeP4tDpdqMuIZUwXQIB42EX6ENbXLL3QnJpAurEP2VBVOO0zj5ISdb-rEumytNAuSwky06sT8qipFCMjydA8rSip0vdjOK8pg4sEx8f-7FHucrz1z0G00]--></g></svg>