<?xml version="1.0" encoding="us-ascii" standalone="no"?><svg xmlns="http://www.w3.org/2000/svg" xmlns:xlink="http://www.w3.org/1999/xlink" contentStyleType="text/css" height="447px" preserveAspectRatio="none" style="width:1103px;height:447px;background:#FFFFFF;" version="1.1" viewBox="0 0 1103 447" width="1103px" zoomAndPan="magnify"><defs/><g><rect fill="#FFFFFF" height="87.582" style="stroke:#181818;stroke-width:1.0;" width="10" x="287" y="71.9121"/><rect fill="#FFFFFF" height="91.291" style="stroke:#181818;stroke-width:1.0;" width="10" x="480" y="129.4941"/><rect fill="#FFFFFF" height="201.1641" style="stroke:#181818;stroke-width:1.0;" width="10" x="659" y="190.7852"/><rect fill="none" height="274.7461" style="stroke:#000000;stroke-width:1.5;" width="879.5" x="217.5" y="86.9121"/><line style="stroke:#181818;stroke-width:0.5;stroke-dasharray:5.0,5.0;" x1="291.5" x2="291.5" y1="38.6211" y2="409.9492"/><line style="stroke:#181818;stroke-width:0.5;stroke-dasharray:5.0,5.0;" x1="484.5" x2="484.5" y1="38.6211" y2="409.9492"/><line style="stroke:#181818;stroke-width:0.5;stroke-dasharray:5.0,5.0;" x1="663.5" x2="663.5" y1="38.6211" y2="409.9492"/><rect fill="#E2E2F0" height="32.6211" rx="2.5" ry="2.5" style="stroke:#181818;stroke-width:0.5;" width="129" x="227.5" y="5"/><text fill="#000000" font-family="sans-serif" font-size="14" lengthAdjust="spacing" textLength="115" x="234.5" y="27.1074">AgencyRepository</text><rect fill="#E2E2F0" height="32.6211" rx="2.5" ry="2.5" style="stroke:#181818;stroke-width:0.5;" width="129" x="227.5" y="408.9492"/><text fill="#000000" font-family="sans-serif" font-size="14" lengthAdjust="spacing" textLength="115" x="234.5" y="431.0566">AgencyRepository</text><rect fill="#E2E2F0" height="32.6211" rx="2.5" ry="2.5" style="stroke:#181818;stroke-width:0.5;" width="61" x="454.5" y="5"/><text fill="#000000" font-family="sans-serif" font-size="14" lengthAdjust="spacing" textLength="47" x="461.5" y="27.1074">Agency</text><rect fill="#E2E2F0" height="32.6211" rx="2.5" ry="2.5" style="stroke:#181818;stroke-width:0.5;" width="61" x="454.5" y="408.9492"/><text fill="#000000" font-family="sans-serif" font-size="14" lengthAdjust="spacing" textLength="47" x="461.5" y="431.0566">Agency</text><rect fill="#E2E2F0" height="32.6211" rx="2.5" ry="2.5" style="stroke:#181818;stroke-width:0.5;" width="171" x="578.5" y="5"/><text fill="#000000" font-family="sans-serif" font-size="14" lengthAdjust="spacing" textLength="157" x="585.5" y="27.1074">AnnouncementValidation</text><rect fill="#E2E2F0" height="32.6211" rx="2.5" ry="2.5" style="stroke:#181818;stroke-width:0.5;" width="171" x="578.5" y="408.9492"/><text fill="#000000" font-family="sans-serif" font-size="14" lengthAdjust="spacing" textLength="157" x="585.5" y="431.0566">AnnouncementValidation</text><rect fill="#FFFFFF" height="87.582" style="stroke:#181818;stroke-width:1.0;" width="10" x="287" y="71.9121"/><rect fill="#FFFFFF" height="91.291" style="stroke:#181818;stroke-width:1.0;" width="10" x="480" y="129.4941"/><rect fill="#FFFFFF" height="201.1641" style="stroke:#181818;stroke-width:1.0;" width="10" x="659" y="190.7852"/><polygon fill="#181818" points="275,67.9121,285,71.9121,275,75.9121,279,71.9121" style="stroke:#181818;stroke-width:1.0;"/><line style="stroke:#181818;stroke-width:1.0;" x1="0" x2="281" y1="71.9121" y2="71.9121"/><text fill="#000000" font-family="sans-serif" font-size="13" lengthAdjust="spacing" textLength="268" x="7" y="66.6494">getAgenciesAnnouncementsSortedByDefault()</text><path d="M217.5,86.9121 L290.5,86.9121 L290.5,96.2031 L280.5,106.2031 L217.5,106.2031 L217.5,86.9121 " fill="#EEEEEE" style="stroke:#000000;stroke-width:1.5;"/><rect fill="none" height="274.7461" style="stroke:#000000;stroke-width:1.5;" width="879.5" x="217.5" y="86.9121"/><text fill="#000000" font-family="sans-serif" font-size="13" font-weight="bold" lengthAdjust="spacing" textLength="28" x="232.5" y="101.9404">loop</text><text fill="#000000" font-family="sans-serif" font-size="11" font-weight="bold" lengthAdjust="spacing" textLength="95" x="305.5" y="100.7822">[for each agency]</text><polygon fill="#181818" points="468,125.4941,478,129.4941,468,133.4941,472,129.4941" style="stroke:#181818;stroke-width:1.0;"/><line style="stroke:#181818;stroke-width:1.0;" x1="297" x2="474" y1="129.4941" y2="129.4941"/><text fill="#000000" font-family="sans-serif" font-size="13" lengthAdjust="spacing" textLength="164" x="304" y="124.2314">getAgencyAnnouncements()</text><polygon fill="#181818" points="647,186.7852,657,190.7852,647,194.7852,651,190.7852" style="stroke:#181818;stroke-width:1.0;"/><line style="stroke:#181818;stroke-width:1.0;stroke-dasharray:2.0,2.0;" x1="490" x2="653" y1="190.7852" y2="190.7852"/><text fill="#000000" font-family="sans-serif" font-size="13" lengthAdjust="spacing" textLength="150" x="497" y="185.5225">agencyAnnouncementList</text><line style="stroke:#181818;stroke-width:1.0;" x1="669" x2="711" y1="252.0762" y2="252.0762"/><line style="stroke:#181818;stroke-width:1.0;" x1="711" x2="711" y1="252.0762" y2="265.0762"/><line style="stroke:#181818;stroke-width:1.0;" x1="670" x2="711" y1="265.0762" y2="265.0762"/><polygon fill="#181818" points="680,261.0762,670,265.0762,680,269.0762,676,265.0762" style="stroke:#181818;stroke-width:1.0;"/><text fill="#000000" font-family="sans-serif" font-size="13" lengthAdjust="spacing" textLength="330" x="676" y="246.8135">sortAnnouncementsByDefault(agencyAnnouncementList)</text><line style="stroke:#181818;stroke-width:1.0;stroke-dasharray:2.0,2.0;" x1="669" x2="711" y1="296.3672" y2="296.3672"/><line style="stroke:#181818;stroke-width:1.0;stroke-dasharray:2.0,2.0;" x1="711" x2="711" y1="296.3672" y2="309.3672"/><line style="stroke:#181818;stroke-width:1.0;stroke-dasharray:2.0,2.0;" x1="670" x2="711" y1="309.3672" y2="309.3672"/><polygon fill="#181818" points="680,305.3672,670,309.3672,680,313.3672,676,309.3672" style="stroke:#181818;stroke-width:1.0;"/><text fill="#000000" font-family="sans-serif" font-size="13" lengthAdjust="spacing" textLength="228" x="676" y="291.1045">defaultSortedAgencyAnnouncementList</text><line style="stroke:#181818;stroke-width:1.0;" x1="669" x2="711" y1="340.6582" y2="340.6582"/><line style="stroke:#181818;stroke-width:1.0;" x1="711" x2="711" y1="340.6582" y2="353.6582"/><line style="stroke:#181818;stroke-width:1.0;" x1="670" x2="711" y1="353.6582" y2="353.6582"/><polygon fill="#181818" points="680,349.6582,670,353.6582,680,357.6582,676,353.6582" style="stroke:#181818;stroke-width:1.0;"/><text fill="#000000" font-family="sans-serif" font-size="13" lengthAdjust="spacing" textLength="409" x="676" y="335.3955">addAgencyAnnouncementList(defaultSortedAgencyAnnouncementList)</text><polygon fill="#181818" points="11,387.9492,1,391.9492,11,395.9492,7,391.9492" style="stroke:#181818;stroke-width:1.0;"/><line style="stroke:#181818;stroke-width:1.0;stroke-dasharray:2.0,2.0;" x1="5" x2="663" y1="391.9492" y2="391.9492"/><text fill="#000000" font-family="sans-serif" font-size="13" lengthAdjust="spacing" textLength="113" x="17" y="386.6865">announcementsList</text><!--SRC=[fP5D3e8m44Rtd6AMikW5Y371k7IbYVk63jW4Mq874sul5AJy52IH5MbdllSwmquGPwYI-eQ5Df9qMKUG8Tb3YIPMIbSgmHSgCdTT4efpVS6KLpaTme0d9D-SS14I1D1ykTO5fBe4vCaJkAtfRkRrmBuY3bzFu0sjRPmHxPd07nwE2Am5ZN8VF9U2azGgwWN7jrTfQ4Xm46__KBVGSH9MnDiD6rwccVja5cu5VkLm7t43ARhyRkEnVov_legBbU333dZ_GbIY-paojWuQZywQZpVat-K7]--></g></svg>