<?xml version="1.0" encoding="us-ascii" standalone="no"?><svg xmlns="http://www.w3.org/2000/svg" xmlns:xlink="http://www.w3.org/1999/xlink" contentStyleType="text/css" height="521px" preserveAspectRatio="none" style="width:2760px;height:521px;background:#FFFFFF;" version="1.1" viewBox="0 0 2760 521" width="2760px" zoomAndPan="magnify"><defs/><g><!--class DisplayPropertiesUI--><g id="elem_DisplayPropertiesUI"><rect codeLine="8" fill="#F1F1F1" height="48" id="DisplayPropertiesUI" rx="2.5" ry="2.5" style="stroke:#181818;stroke-width:0.5;" width="155" x="549.5" y="35"/><ellipse cx="564.5" cy="51" fill="#ADD1B2" rx="11" ry="11" style="stroke:#181818;stroke-width:1.0;"/><path d="M567.2656,46.875 Q567.4219,46.6563 567.6094,46.5469 Q567.7969,46.4375 568.0156,46.4375 Q568.3906,46.4375 568.625,46.7031 Q568.8594,46.9531 568.8594,47.5625 L568.8594,49.0156 Q568.8594,49.625 568.625,49.8906 Q568.3906,50.1563 568.0156,50.1563 Q567.6719,50.1563 567.4688,49.9531 Q567.2656,49.7656 567.1563,49.25 Q567.1094,48.8906 566.9219,48.7031 Q566.5938,48.3281 565.9844,48.1094 Q565.375,47.8906 564.75,47.8906 Q563.9844,47.8906 563.3438,48.2188 Q562.7188,48.5469 562.2188,49.2969 Q561.7344,50.0469 561.7344,51.0781 L561.7344,52.1719 Q561.7344,53.4063 562.625,54.2344 Q563.5156,55.0469 565.1094,55.0469 Q566.0469,55.0469 566.7031,54.7969 Q567.0938,54.6406 567.5156,54.2031 Q567.7813,53.9375 567.9219,53.8594 Q568.0781,53.7813 568.2813,53.7813 Q568.6094,53.7813 568.8594,54.0469 Q569.125,54.2969 569.125,54.6406 Q569.125,54.9844 568.7813,55.3906 Q568.2813,55.9688 567.4844,56.2969 Q566.4063,56.75 565.1094,56.75 Q563.5938,56.75 562.3906,56.125 Q561.4063,55.625 560.7188,54.5625 Q560.0313,53.4844 560.0313,52.2031 L560.0313,51.0469 Q560.0313,49.7188 560.6406,48.5781 Q561.2656,47.4219 562.3594,46.8125 Q563.4531,46.1875 564.6875,46.1875 Q565.4219,46.1875 566.0625,46.3594 Q566.7188,46.5156 567.2656,46.875 Z " fill="#000000"/><text fill="#000000" font-family="sans-serif" font-size="14" lengthAdjust="spacing" textLength="123" x="578.5" y="56.7969">DisplayPropertiesUI</text><line style="stroke:#181818;stroke-width:0.5;" x1="550.5" x2="703.5" y1="67" y2="67"/><line style="stroke:#181818;stroke-width:0.5;" x1="550.5" x2="703.5" y1="75" y2="75"/></g><!--class DisplayPropertiesController--><g id="elem_DisplayPropertiesController"><rect codeLine="11" fill="#F1F1F1" height="103.8633" id="DisplayPropertiesController" rx="2.5" ry="2.5" style="stroke:#181818;stroke-width:0.5;" width="612" x="740" y="7"/><ellipse cx="955.25" cy="23" fill="#ADD1B2" rx="11" ry="11" style="stroke:#181818;stroke-width:1.0;"/><path d="M958.0156,18.875 Q958.1719,18.6563 958.3594,18.5469 Q958.5469,18.4375 958.7656,18.4375 Q959.1406,18.4375 959.375,18.7031 Q959.6094,18.9531 959.6094,19.5625 L959.6094,21.0156 Q959.6094,21.625 959.375,21.8906 Q959.1406,22.1563 958.7656,22.1563 Q958.4219,22.1563 958.2188,21.9531 Q958.0156,21.7656 957.9063,21.25 Q957.8594,20.8906 957.6719,20.7031 Q957.3438,20.3281 956.7344,20.1094 Q956.125,19.8906 955.5,19.8906 Q954.7344,19.8906 954.0938,20.2188 Q953.4688,20.5469 952.9688,21.2969 Q952.4844,22.0469 952.4844,23.0781 L952.4844,24.1719 Q952.4844,25.4063 953.375,26.2344 Q954.2656,27.0469 955.8594,27.0469 Q956.7969,27.0469 957.4531,26.7969 Q957.8438,26.6406 958.2656,26.2031 Q958.5313,25.9375 958.6719,25.8594 Q958.8281,25.7813 959.0313,25.7813 Q959.3594,25.7813 959.6094,26.0469 Q959.875,26.2969 959.875,26.6406 Q959.875,26.9844 959.5313,27.3906 Q959.0313,27.9688 958.2344,28.2969 Q957.1563,28.75 955.8594,28.75 Q954.3438,28.75 953.1406,28.125 Q952.1563,27.625 951.4688,26.5625 Q950.7813,25.4844 950.7813,24.2031 L950.7813,23.0469 Q950.7813,21.7188 951.3906,20.5781 Q952.0156,19.4219 953.1094,18.8125 Q954.2031,18.1875 955.4375,18.1875 Q956.1719,18.1875 956.8125,18.3594 Q957.4688,18.5156 958.0156,18.875 Z " fill="#000000"/><text fill="#000000" font-family="sans-serif" font-size="14" lengthAdjust="spacing" textLength="173" x="975.75" y="28.7969">DisplayPropertiesController</text><line style="stroke:#181818;stroke-width:0.5;" x1="741" x2="1351" y1="39" y2="39"/><line style="stroke:#181818;stroke-width:0.5;" x1="741" x2="1351" y1="47" y2="47"/><text fill="#000000" font-family="sans-serif" font-size="14" lengthAdjust="spacing" textLength="600" x="746" y="66.1074">+DisplayPropertiesController(PropertyCategoryRepository, AnnouncementCategoryRepository)</text><text fill="#000000" font-family="sans-serif" font-size="14" lengthAdjust="spacing" textLength="498" x="746" y="84.7285">-getAnnouncementCategoryByDescription(announcementCategoryDescription)</text><text fill="#000000" font-family="sans-serif" font-size="14" lengthAdjust="spacing" textLength="416" x="746" y="103.3496">-getPropertyCategoryByDescription(propertyCategoryDescription)</text></g><!--class Repositories--><g id="elem_Repositories"><rect codeLine="17" fill="#F1F1F1" height="122.4844" id="Repositories" rx="2.5" ry="2.5" style="stroke:#181818;stroke-width:0.5;" width="266" x="913" y="172"/><ellipse cx="1002.25" cy="188" fill="#ADD1B2" rx="11" ry="11" style="stroke:#181818;stroke-width:1.0;"/><path d="M1005.0156,183.875 Q1005.1719,183.6563 1005.3594,183.5469 Q1005.5469,183.4375 1005.7656,183.4375 Q1006.1406,183.4375 1006.375,183.7031 Q1006.6094,183.9531 1006.6094,184.5625 L1006.6094,186.0156 Q1006.6094,186.625 1006.375,186.8906 Q1006.1406,187.1563 1005.7656,187.1563 Q1005.4219,187.1563 1005.2188,186.9531 Q1005.0156,186.7656 1004.9063,186.25 Q1004.8594,185.8906 1004.6719,185.7031 Q1004.3438,185.3281 1003.7344,185.1094 Q1003.125,184.8906 1002.5,184.8906 Q1001.7344,184.8906 1001.0938,185.2188 Q1000.4688,185.5469 999.9688,186.2969 Q999.4844,187.0469 999.4844,188.0781 L999.4844,189.1719 Q999.4844,190.4063 1000.375,191.2344 Q1001.2656,192.0469 1002.8594,192.0469 Q1003.7969,192.0469 1004.4531,191.7969 Q1004.8438,191.6406 1005.2656,191.2031 Q1005.5313,190.9375 1005.6719,190.8594 Q1005.8281,190.7813 1006.0313,190.7813 Q1006.3594,190.7813 1006.6094,191.0469 Q1006.875,191.2969 1006.875,191.6406 Q1006.875,191.9844 1006.5313,192.3906 Q1006.0313,192.9688 1005.2344,193.2969 Q1004.1563,193.75 1002.8594,193.75 Q1001.3438,193.75 1000.1406,193.125 Q999.1563,192.625 998.4688,191.5625 Q997.7813,190.4844 997.7813,189.2031 L997.7813,188.0469 Q997.7813,186.7188 998.3906,185.5781 Q999.0156,184.4219 1000.1094,183.8125 Q1001.2031,183.1875 1002.4375,183.1875 Q1003.1719,183.1875 1003.8125,183.3594 Q1004.4688,183.5156 1005.0156,183.875 Z " fill="#000000"/><text fill="#000000" font-family="sans-serif" font-size="14" lengthAdjust="spacing" textLength="79" x="1022.75" y="193.7969">Repositories</text><line style="stroke:#181818;stroke-width:0.5;" x1="914" x2="1178" y1="204" y2="204"/><line style="stroke:#181818;stroke-width:0.5;" x1="914" x2="1178" y1="212" y2="212"/><text fill="#000000" font-family="sans-serif" font-size="14" lengthAdjust="spacing" textLength="94" x="919" y="231.1074">-Repositories()</text><text fill="#000000" font-family="sans-serif" font-size="14" lengthAdjust="spacing" textLength="178" x="919" y="249.7285">+getInstance(): Repositories</text><text fill="#000000" font-family="sans-serif" font-size="14" lengthAdjust="spacing" textLength="254" x="919" y="268.3496">+getAnnouncementCategoyRepository()</text><text fill="#000000" font-family="sans-serif" font-size="14" lengthAdjust="spacing" textLength="218" x="919" y="286.9707">+getPropertyCategoryRepository()</text></g><!--class AnnouncementCategory--><g id="elem_AnnouncementCategory"><rect codeLine="24" fill="#F1F1F1" height="85.2422" id="AnnouncementCategory" rx="2.5" ry="2.5" style="stroke:#181818;stroke-width:0.5;" width="252" x="493" y="401"/><ellipse cx="538.25" cy="417" fill="#ADD1B2" rx="11" ry="11" style="stroke:#181818;stroke-width:1.0;"/><path d="M541.0156,412.875 Q541.1719,412.6563 541.3594,412.5469 Q541.5469,412.4375 541.7656,412.4375 Q542.1406,412.4375 542.375,412.7031 Q542.6094,412.9531 542.6094,413.5625 L542.6094,415.0156 Q542.6094,415.625 542.375,415.8906 Q542.1406,416.1563 541.7656,416.1563 Q541.4219,416.1563 541.2188,415.9531 Q541.0156,415.7656 540.9063,415.25 Q540.8594,414.8906 540.6719,414.7031 Q540.3438,414.3281 539.7344,414.1094 Q539.125,413.8906 538.5,413.8906 Q537.7344,413.8906 537.0938,414.2188 Q536.4688,414.5469 535.9688,415.2969 Q535.4844,416.0469 535.4844,417.0781 L535.4844,418.1719 Q535.4844,419.4063 536.375,420.2344 Q537.2656,421.0469 538.8594,421.0469 Q539.7969,421.0469 540.4531,420.7969 Q540.8438,420.6406 541.2656,420.2031 Q541.5313,419.9375 541.6719,419.8594 Q541.8281,419.7813 542.0313,419.7813 Q542.3594,419.7813 542.6094,420.0469 Q542.875,420.2969 542.875,420.6406 Q542.875,420.9844 542.5313,421.3906 Q542.0313,421.9688 541.2344,422.2969 Q540.1563,422.75 538.8594,422.75 Q537.3438,422.75 536.1406,422.125 Q535.1563,421.625 534.4688,420.5625 Q533.7813,419.4844 533.7813,418.2031 L533.7813,417.0469 Q533.7813,415.7188 534.3906,414.5781 Q535.0156,413.4219 536.1094,412.8125 Q537.2031,412.1875 538.4375,412.1875 Q539.1719,412.1875 539.8125,412.3594 Q540.4688,412.5156 541.0156,412.875 Z " fill="#000000"/><text fill="#000000" font-family="sans-serif" font-size="14" lengthAdjust="spacing" textLength="153" x="558.75" y="422.7969">AnnouncementCategory</text><line style="stroke:#181818;stroke-width:0.5;" x1="494" x2="744" y1="433" y2="433"/><text fill="#000000" font-family="sans-serif" font-size="14" lengthAdjust="spacing" textLength="115" x="499" y="452.1074">-String description</text><line style="stroke:#181818;stroke-width:0.5;" x1="494" x2="744" y1="459.6211" y2="459.6211"/><text fill="#000000" font-family="sans-serif" font-size="14" lengthAdjust="spacing" textLength="240" x="499" y="478.7285">+AnnouncementCategory(description)</text></g><!--class PropertyCategory--><g id="elem_PropertyCategory"><rect codeLine="29" fill="#F1F1F1" height="85.2422" id="PropertyCategory" rx="2.5" ry="2.5" style="stroke:#181818;stroke-width:0.5;" width="211" x="1902.5" y="401"/><ellipse cx="1947.75" cy="417" fill="#ADD1B2" rx="11" ry="11" style="stroke:#181818;stroke-width:1.0;"/><path d="M1950.5156,412.875 Q1950.6719,412.6563 1950.8594,412.5469 Q1951.0469,412.4375 1951.2656,412.4375 Q1951.6406,412.4375 1951.875,412.7031 Q1952.1094,412.9531 1952.1094,413.5625 L1952.1094,415.0156 Q1952.1094,415.625 1951.875,415.8906 Q1951.6406,416.1563 1951.2656,416.1563 Q1950.9219,416.1563 1950.7188,415.9531 Q1950.5156,415.7656 1950.4063,415.25 Q1950.3594,414.8906 1950.1719,414.7031 Q1949.8438,414.3281 1949.2344,414.1094 Q1948.625,413.8906 1948,413.8906 Q1947.2344,413.8906 1946.5938,414.2188 Q1945.9688,414.5469 1945.4688,415.2969 Q1944.9844,416.0469 1944.9844,417.0781 L1944.9844,418.1719 Q1944.9844,419.4063 1945.875,420.2344 Q1946.7656,421.0469 1948.3594,421.0469 Q1949.2969,421.0469 1949.9531,420.7969 Q1950.3438,420.6406 1950.7656,420.2031 Q1951.0313,419.9375 1951.1719,419.8594 Q1951.3281,419.7813 1951.5313,419.7813 Q1951.8594,419.7813 1952.1094,420.0469 Q1952.375,420.2969 1952.375,420.6406 Q1952.375,420.9844 1952.0313,421.3906 Q1951.5313,421.9688 1950.7344,422.2969 Q1949.6563,422.75 1948.3594,422.75 Q1946.8438,422.75 1945.6406,422.125 Q1944.6563,421.625 1943.9688,420.5625 Q1943.2813,419.4844 1943.2813,418.2031 L1943.2813,417.0469 Q1943.2813,415.7188 1943.8906,414.5781 Q1944.5156,413.4219 1945.6094,412.8125 Q1946.7031,412.1875 1947.9375,412.1875 Q1948.6719,412.1875 1949.3125,412.3594 Q1949.9688,412.5156 1950.5156,412.875 Z " fill="#000000"/><text fill="#000000" font-family="sans-serif" font-size="14" lengthAdjust="spacing" textLength="112" x="1968.25" y="422.7969">PropertyCategory</text><line style="stroke:#181818;stroke-width:0.5;" x1="1903.5" x2="2112.5" y1="433" y2="433"/><text fill="#000000" font-family="sans-serif" font-size="14" lengthAdjust="spacing" textLength="115" x="1908.5" y="452.1074">-String description</text><line style="stroke:#181818;stroke-width:0.5;" x1="1903.5" x2="2112.5" y1="459.6211" y2="459.6211"/><text fill="#000000" font-family="sans-serif" font-size="14" lengthAdjust="spacing" textLength="199" x="1908.5" y="478.7285">+PropertyCategory(description)</text></g><!--class AnnouncementCategoryRepository--><g id="elem_AnnouncementCategoryRepository"><rect codeLine="34" fill="#F1F1F1" height="66.6211" id="AnnouncementCategoryRepository" rx="2.5" ry="2.5" style="stroke:#181818;stroke-width:0.5;" width="518" x="360" y="199.5"/><ellipse cx="504.25" cy="215.5" fill="#ADD1B2" rx="11" ry="11" style="stroke:#181818;stroke-width:1.0;"/><path d="M507.0156,211.375 Q507.1719,211.1563 507.3594,211.0469 Q507.5469,210.9375 507.7656,210.9375 Q508.1406,210.9375 508.375,211.2031 Q508.6094,211.4531 508.6094,212.0625 L508.6094,213.5156 Q508.6094,214.125 508.375,214.3906 Q508.1406,214.6563 507.7656,214.6563 Q507.4219,214.6563 507.2188,214.4531 Q507.0156,214.2656 506.9063,213.75 Q506.8594,213.3906 506.6719,213.2031 Q506.3438,212.8281 505.7344,212.6094 Q505.125,212.3906 504.5,212.3906 Q503.7344,212.3906 503.0938,212.7188 Q502.4688,213.0469 501.9688,213.7969 Q501.4844,214.5469 501.4844,215.5781 L501.4844,216.6719 Q501.4844,217.9063 502.375,218.7344 Q503.2656,219.5469 504.8594,219.5469 Q505.7969,219.5469 506.4531,219.2969 Q506.8438,219.1406 507.2656,218.7031 Q507.5313,218.4375 507.6719,218.3594 Q507.8281,218.2813 508.0313,218.2813 Q508.3594,218.2813 508.6094,218.5469 Q508.875,218.7969 508.875,219.1406 Q508.875,219.4844 508.5313,219.8906 Q508.0313,220.4688 507.2344,220.7969 Q506.1563,221.25 504.8594,221.25 Q503.3438,221.25 502.1406,220.625 Q501.1563,220.125 500.4688,219.0625 Q499.7813,217.9844 499.7813,216.7031 L499.7813,215.5469 Q499.7813,214.2188 500.3906,213.0781 Q501.0156,211.9219 502.1094,211.3125 Q503.2031,210.6875 504.4375,210.6875 Q505.1719,210.6875 505.8125,210.8594 Q506.4688,211.0156 507.0156,211.375 Z " fill="#000000"/><text fill="#000000" font-family="sans-serif" font-size="14" lengthAdjust="spacing" textLength="221" x="524.75" y="221.2969">AnnouncementCategoryRepository</text><line style="stroke:#181818;stroke-width:0.5;" x1="361" x2="877" y1="231.5" y2="231.5"/><line style="stroke:#181818;stroke-width:0.5;" x1="361" x2="877" y1="239.5" y2="239.5"/><text fill="#000000" font-family="sans-serif" font-size="14" lengthAdjust="spacing" textLength="506" x="366" y="258.6074">+getAnnouncementCategoryByDescription(announcementCategoryDescription))</text></g><!--class PropertyCategoryRepository--><g id="elem_PropertyCategoryRepository"><rect codeLine="38" fill="#F1F1F1" height="66.6211" id="PropertyCategoryRepository" rx="2.5" ry="2.5" style="stroke:#181818;stroke-width:0.5;" width="431" x="2024.5" y="199.5"/><ellipse cx="2145.75" cy="215.5" fill="#ADD1B2" rx="11" ry="11" style="stroke:#181818;stroke-width:1.0;"/><path d="M2148.5156,211.375 Q2148.6719,211.1563 2148.8594,211.0469 Q2149.0469,210.9375 2149.2656,210.9375 Q2149.6406,210.9375 2149.875,211.2031 Q2150.1094,211.4531 2150.1094,212.0625 L2150.1094,213.5156 Q2150.1094,214.125 2149.875,214.3906 Q2149.6406,214.6563 2149.2656,214.6563 Q2148.9219,214.6563 2148.7188,214.4531 Q2148.5156,214.2656 2148.4063,213.75 Q2148.3594,213.3906 2148.1719,213.2031 Q2147.8438,212.8281 2147.2344,212.6094 Q2146.625,212.3906 2146,212.3906 Q2145.2344,212.3906 2144.5938,212.7188 Q2143.9688,213.0469 2143.4688,213.7969 Q2142.9844,214.5469 2142.9844,215.5781 L2142.9844,216.6719 Q2142.9844,217.9063 2143.875,218.7344 Q2144.7656,219.5469 2146.3594,219.5469 Q2147.2969,219.5469 2147.9531,219.2969 Q2148.3438,219.1406 2148.7656,218.7031 Q2149.0313,218.4375 2149.1719,218.3594 Q2149.3281,218.2813 2149.5313,218.2813 Q2149.8594,218.2813 2150.1094,218.5469 Q2150.375,218.7969 2150.375,219.1406 Q2150.375,219.4844 2150.0313,219.8906 Q2149.5313,220.4688 2148.7344,220.7969 Q2147.6563,221.25 2146.3594,221.25 Q2144.8438,221.25 2143.6406,220.625 Q2142.6563,220.125 2141.9688,219.0625 Q2141.2813,217.9844 2141.2813,216.7031 L2141.2813,215.5469 Q2141.2813,214.2188 2141.8906,213.0781 Q2142.5156,211.9219 2143.6094,211.3125 Q2144.7031,210.6875 2145.9375,210.6875 Q2146.6719,210.6875 2147.3125,210.8594 Q2147.9688,211.0156 2148.5156,211.375 Z " fill="#000000"/><text fill="#000000" font-family="sans-serif" font-size="14" lengthAdjust="spacing" textLength="180" x="2166.25" y="221.2969">PropertyCategoryRepository</text><line style="stroke:#181818;stroke-width:0.5;" x1="2025.5" x2="2454.5" y1="231.5" y2="231.5"/><line style="stroke:#181818;stroke-width:0.5;" x1="2025.5" x2="2454.5" y1="239.5" y2="239.5"/><text fill="#000000" font-family="sans-serif" font-size="14" lengthAdjust="spacing" textLength="419" x="2030.5" y="258.6074">+getPropertyCategoryByDescription(propertyCategoryDescription)</text></g><g id="elem_GMN9"><path d="M23.5,219.5 L23.5,246.791 A0,0 0 0 0 23.5,246.791 L324.5,246.791 A0,0 0 0 0 324.5,246.791 L324.5,237.5 L359.82,233 L324.5,229.5 L324.5,229.5 L314.5,219.5 L23.5,219.5 A0,0 0 0 0 23.5,219.5 " fill="#FEFFDD" style="stroke:#181818;stroke-width:0.5;"/><path d="M314.5,219.5 L314.5,229.5 L324.5,229.5 L314.5,219.5 " fill="#FEFFDD" style="stroke:#181818;stroke-width:0.5;"/><text fill="#000000" font-family="sans-serif" font-size="13" lengthAdjust="spacing" textLength="280" x="29.5" y="238.5283">- used for displaying announcement category list</text></g><g id="elem_GMN12"><path d="M2490.5,219.5 L2490.5,229 L2455.77,233 L2490.5,237 L2490.5,246.791 A0,0 0 0 0 2490.5,246.791 L2753.5,246.791 A0,0 0 0 0 2753.5,246.791 L2753.5,229.5 L2743.5,219.5 L2490.5,219.5 A0,0 0 0 0 2490.5,219.5 " fill="#FEFFDD" style="stroke:#181818;stroke-width:0.5;"/><path d="M2743.5,219.5 L2743.5,229.5 L2753.5,229.5 L2743.5,219.5 " fill="#FEFFDD" style="stroke:#181818;stroke-width:0.5;"/><text fill="#000000" font-family="sans-serif" font-size="13" lengthAdjust="spacing" textLength="242" x="2496.5" y="238.5283">- used for displaying property category list</text></g><!--class AnnouncementHandling--><g id="elem_AnnouncementHandling"><rect codeLine="51" fill="#F1F1F1" height="141.1055" id="AnnouncementHandling" rx="2.5" ry="2.5" style="stroke:#181818;stroke-width:0.5;" width="676" x="1191" y="373"/><ellipse cx="1449.75" cy="389" fill="#ADD1B2" rx="11" ry="11" style="stroke:#181818;stroke-width:1.0;"/><path d="M1452.5156,384.875 Q1452.6719,384.6563 1452.8594,384.5469 Q1453.0469,384.4375 1453.2656,384.4375 Q1453.6406,384.4375 1453.875,384.7031 Q1454.1094,384.9531 1454.1094,385.5625 L1454.1094,387.0156 Q1454.1094,387.625 1453.875,387.8906 Q1453.6406,388.1563 1453.2656,388.1563 Q1452.9219,388.1563 1452.7188,387.9531 Q1452.5156,387.7656 1452.4063,387.25 Q1452.3594,386.8906 1452.1719,386.7031 Q1451.8438,386.3281 1451.2344,386.1094 Q1450.625,385.8906 1450,385.8906 Q1449.2344,385.8906 1448.5938,386.2188 Q1447.9688,386.5469 1447.4688,387.2969 Q1446.9844,388.0469 1446.9844,389.0781 L1446.9844,390.1719 Q1446.9844,391.4063 1447.875,392.2344 Q1448.7656,393.0469 1450.3594,393.0469 Q1451.2969,393.0469 1451.9531,392.7969 Q1452.3438,392.6406 1452.7656,392.2031 Q1453.0313,391.9375 1453.1719,391.8594 Q1453.3281,391.7813 1453.5313,391.7813 Q1453.8594,391.7813 1454.1094,392.0469 Q1454.375,392.2969 1454.375,392.6406 Q1454.375,392.9844 1454.0313,393.3906 Q1453.5313,393.9688 1452.7344,394.2969 Q1451.6563,394.75 1450.3594,394.75 Q1448.8438,394.75 1447.6406,394.125 Q1446.6563,393.625 1445.9688,392.5625 Q1445.2813,391.4844 1445.2813,390.2031 L1445.2813,389.0469 Q1445.2813,387.7188 1445.8906,386.5781 Q1446.5156,385.4219 1447.6094,384.8125 Q1448.7031,384.1875 1449.9375,384.1875 Q1450.6719,384.1875 1451.3125,384.3594 Q1451.9688,384.5156 1452.5156,384.875 Z " fill="#000000"/><text fill="#000000" font-family="sans-serif" font-size="14" lengthAdjust="spacing" textLength="150" x="1470.25" y="394.7969">AnnouncementHandling</text><line style="stroke:#181818;stroke-width:0.5;" x1="1192" x2="1866" y1="405" y2="405"/><text fill="#000000" font-family="sans-serif" font-size="14" lengthAdjust="spacing" textLength="128" x="1197" y="424.1074">-announcementsList</text><line style="stroke:#181818;stroke-width:0.5;" x1="1192" x2="1866" y1="431.6211" y2="431.6211"/><text fill="#000000" font-family="sans-serif" font-size="14" lengthAdjust="spacing" textLength="369" x="1197" y="450.7285">+addAgencyAnnouncementList(agencyAnnouncementList)</text><text fill="#000000" font-family="sans-serif" font-size="14" lengthAdjust="spacing" textLength="664" x="1197" y="469.3496">+filterAnnouncements(announcementsList, propertyCategory, announcementCategory, numberOfRooms)</text><text fill="#000000" font-family="sans-serif" font-size="14" lengthAdjust="spacing" textLength="328" x="1197" y="487.9707">+sortAnnouncementsByDefault(announcementsList)</text><text fill="#000000" font-family="sans-serif" font-size="14" lengthAdjust="spacing" textLength="531" x="1197" y="506.5918">+sortAnnouncementsBySelectedData(displaybleAnnouncementList, selectedSorting)</text></g><!--class Announcement--><g id="elem_Announcement"><rect codeLine="59" fill="#F1F1F1" height="66.6211" id="Announcement" rx="2.5" ry="2.5" style="stroke:#181818;stroke-width:0.5;" width="704" x="1214" y="199.5"/><ellipse cx="1514.25" cy="215.5" fill="#ADD1B2" rx="11" ry="11" style="stroke:#181818;stroke-width:1.0;"/><path d="M1517.0156,211.375 Q1517.1719,211.1563 1517.3594,211.0469 Q1517.5469,210.9375 1517.7656,210.9375 Q1518.1406,210.9375 1518.375,211.2031 Q1518.6094,211.4531 1518.6094,212.0625 L1518.6094,213.5156 Q1518.6094,214.125 1518.375,214.3906 Q1518.1406,214.6563 1517.7656,214.6563 Q1517.4219,214.6563 1517.2188,214.4531 Q1517.0156,214.2656 1516.9063,213.75 Q1516.8594,213.3906 1516.6719,213.2031 Q1516.3438,212.8281 1515.7344,212.6094 Q1515.125,212.3906 1514.5,212.3906 Q1513.7344,212.3906 1513.0938,212.7188 Q1512.4688,213.0469 1511.9688,213.7969 Q1511.4844,214.5469 1511.4844,215.5781 L1511.4844,216.6719 Q1511.4844,217.9063 1512.375,218.7344 Q1513.2656,219.5469 1514.8594,219.5469 Q1515.7969,219.5469 1516.4531,219.2969 Q1516.8438,219.1406 1517.2656,218.7031 Q1517.5313,218.4375 1517.6719,218.3594 Q1517.8281,218.2813 1518.0313,218.2813 Q1518.3594,218.2813 1518.6094,218.5469 Q1518.875,218.7969 1518.875,219.1406 Q1518.875,219.4844 1518.5313,219.8906 Q1518.0313,220.4688 1517.2344,220.7969 Q1516.1563,221.25 1514.8594,221.25 Q1513.3438,221.25 1512.1406,220.625 Q1511.1563,220.125 1510.4688,219.0625 Q1509.7813,217.9844 1509.7813,216.7031 L1509.7813,215.5469 Q1509.7813,214.2188 1510.3906,213.0781 Q1511.0156,211.9219 1512.1094,211.3125 Q1513.2031,210.6875 1514.4375,210.6875 Q1515.1719,210.6875 1515.8125,210.8594 Q1516.4688,211.0156 1517.0156,211.375 Z " fill="#000000"/><text fill="#000000" font-family="sans-serif" font-size="14" lengthAdjust="spacing" textLength="95" x="1534.75" y="221.2969">Announcement</text><line style="stroke:#181818;stroke-width:0.5;" x1="1215" x2="1917" y1="231.5" y2="231.5"/><line style="stroke:#181818;stroke-width:0.5;" x1="1215" x2="1917" y1="239.5" y2="239.5"/><text fill="#000000" font-family="sans-serif" font-size="14" lengthAdjust="spacing" textLength="692" x="1220" y="258.6074">+Announcement (adress, announcementCategory, propertyCategory, commission, publicationDate, photoList)</text></g><!--link DisplayPropertiesUI to DisplayPropertiesController--><g id="link_DisplayPropertiesUI_DisplayPropertiesController"><path codeLine="63" d="M704.59,59 C715.2,59 725.56,59 734.68,59 " fill="none" id="DisplayPropertiesUI-to-DisplayPropertiesController" style="stroke:#181818;stroke-width:1.0;stroke-dasharray:7.0,7.0;"/><polygon fill="#181818" points="739.9,59,730.9,55,734.9,59,730.9,63,739.9,59" style="stroke:#181818;stroke-width:1.0;"/></g><!--link DisplayPropertiesController to Repositories--><g id="link_DisplayPropertiesController_Repositories"><path codeLine="65" d="M1046,111.14 C1046,128.61 1046,148.39 1046,166.81 " fill="none" id="DisplayPropertiesController-to-Repositories" style="stroke:#181818;stroke-width:1.0;stroke-dasharray:7.0,7.0;"/><polygon fill="#181818" points="1046,171.97,1050,162.97,1046,166.97,1042,162.97,1046,171.97" style="stroke:#181818;stroke-width:1.0;"/></g><!--link DisplayPropertiesController to AnnouncementCategoryRepository--><g id="link_DisplayPropertiesController_AnnouncementCategoryRepository"><path codeLine="66" d="M919.33,111.02 C850.08,138.92 766.13,172.74 704.61,197.51 " fill="none" id="DisplayPropertiesController-to-AnnouncementCategoryRepository" style="stroke:#181818;stroke-width:1.0;stroke-dasharray:7.0,7.0;"/><polygon fill="#181818" points="699.85,199.43,709.6928,199.7753,704.4874,197.5608,706.702,192.3554,699.85,199.43" style="stroke:#181818;stroke-width:1.0;"/></g><!--link DisplayPropertiesController to PropertyCategoryRepository--><g id="link_DisplayPropertiesController_PropertyCategoryRepository"><path codeLine="67" d="M1352.14,86.07 C1630.14,109.75 1997,141 1997,141 C1997,141 2079.24,171.8 2148.03,197.56 " fill="none" id="DisplayPropertiesController-to-PropertyCategoryRepository" style="stroke:#181818;stroke-width:1.0;stroke-dasharray:7.0,7.0;"/><polygon fill="#181818" points="2152.96,199.4,2145.9375,192.4946,2148.2784,197.6444,2143.1285,199.9852,2152.96,199.4" style="stroke:#181818;stroke-width:1.0;"/></g><!--link DisplayPropertiesController to AnnouncementCategory--><g id="link_DisplayPropertiesController_AnnouncementCategory"><path codeLine="68" d="M739.88,108.19 C728.59,109.96 722,111 722,111 C722,111 6,172 6,172 C6,172 6,294 6,294 C6,294 307.61,367.06 487.7,410.69 " fill="none" id="DisplayPropertiesController-to-AnnouncementCategory" style="stroke:#181818;stroke-width:1.0;stroke-dasharray:7.0,7.0;"/><polygon fill="#181818" points="492.73,411.91,484.9187,405.9114,487.8694,410.7377,483.043,413.6884,492.73,411.91" style="stroke:#181818;stroke-width:1.0;"/></g><!--link DisplayPropertiesController to PropertyCategory--><g id="link_DisplayPropertiesController_PropertyCategory"><path codeLine="69" d="M1352.29,98.54 C1609.73,130.94 1936,172 1936,172 C1936,172 1974.98,318.45 1995.58,395.83 " fill="none" id="DisplayPropertiesController-to-PropertyCategory" style="stroke:#181818;stroke-width:1.0;stroke-dasharray:7.0,7.0;"/><polygon fill="#181818" points="1996.91,400.83,1998.4596,391.1038,1995.6235,395.9984,1990.7289,393.1623,1996.91,400.83" style="stroke:#181818;stroke-width:1.0;"/></g><!--link AnnouncementCategoryRepository to AnnouncementCategory--><g id="link_AnnouncementCategoryRepository_AnnouncementCategory"><path codeLine="71" d="M619,266.58 C619,301.22 619,356.31 619,395.61 " fill="none" id="AnnouncementCategoryRepository-to-AnnouncementCategory" style="stroke:#181818;stroke-width:1.0;"/><polygon fill="#181818" points="619,400.81,623,391.81,619,395.81,615,391.81,619,400.81" style="stroke:#181818;stroke-width:1.0;"/><text fill="#000000" font-family="sans-serif" font-size="13" lengthAdjust="spacing" textLength="7" x="611.3766" y="288.1635">1</text><text fill="#000000" font-family="sans-serif" font-size="13" lengthAdjust="spacing" textLength="7" x="611.4422" y="389.6838">3</text></g><!--link PropertyCategoryRepository to PropertyCategory--><g id="link_PropertyCategoryRepository_PropertyCategory"><path codeLine="72" d="M2203.75,266.58 C2164.66,301.71 2102.15,357.89 2058.31,397.29 " fill="none" id="PropertyCategoryRepository-to-PropertyCategory" style="stroke:#181818;stroke-width:1.0;"/><polygon fill="#181818" points="2054.39,400.81,2063.7613,397.7804,2058.1128,397.4723,2058.4209,391.8238,2054.39,400.81" style="stroke:#181818;stroke-width:1.0;"/><text fill="#000000" font-family="sans-serif" font-size="13" lengthAdjust="spacing" textLength="7" x="2189.6695" y="288.1635">1</text><text fill="#000000" font-family="sans-serif" font-size="13" lengthAdjust="spacing" textLength="7" x="2054.2256" y="389.6838">3</text></g><!--reverse link AnnouncementCategoryRepository to Repositories--><g id="link_AnnouncementCategoryRepository_Repositories"><path codeLine="74" d="M883.33,233 C895.61,233 903.67,233 903.67,233 C903.67,233 906.97,233 912.57,233 " fill="none" id="AnnouncementCategoryRepository-backto-Repositories" style="stroke:#181818;stroke-width:1.0;"/><polygon fill="#181818" points="878.22,233,887.22,237,883.22,233,887.22,229,878.22,233" style="stroke:#181818;stroke-width:1.0;"/><text fill="#000000" font-family="sans-serif" font-size="13" lengthAdjust="spacing" textLength="7" x="886.0195" y="229.7859">1</text></g><!--link Repositories to PropertyCategoryRepository--><g id="link_Repositories_PropertyCategoryRepository"><path codeLine="75" d="M1158.39,171.97 C1189.3,155.18 1214.5,141.5 1214.5,141.5 C1214.5,141.5 1979.5,141.5 1979.5,141.5 C1979.5,141.5 2066.28,171.98 2139.67,197.76 " fill="none" id="Repositories-to-PropertyCategoryRepository" style="stroke:#181818;stroke-width:1.0;"/><polygon fill="#181818" points="2144.48,199.45,2137.3158,192.6917,2139.7629,197.7919,2134.6628,200.239,2144.48,199.45" style="stroke:#181818;stroke-width:1.0;"/><text fill="#000000" font-family="sans-serif" font-size="13" lengthAdjust="spacing" textLength="7" x="2117.9854" y="188.2657">1</text></g><!--link Announcement to AnnouncementCategory--><g id="link_Announcement_AnnouncementCategory"><path codeLine="77" d="M1418.29,266.52 C1235.01,306.87 925.3,375.06 750.08,413.64 " fill="none" id="Announcement-to-AnnouncementCategory" style="stroke:#181818;stroke-width:1.0;"/><polygon fill="#181818" points="745.2,414.72,754.8534,416.6724,750.0809,413.6353,753.118,408.8629,745.2,414.72" style="stroke:#181818;stroke-width:1.0;"/><text fill="#000000" font-family="sans-serif" font-size="13" lengthAdjust="spacing" textLength="7" x="1384.3557" y="288.0928">1</text><text fill="#000000" font-family="sans-serif" font-size="13" lengthAdjust="spacing" textLength="7" x="753.1036" y="409.4781">1</text></g><!--link Announcement to PropertyCategory--><g id="link_Announcement_PropertyCategory"><path codeLine="78" d="M1640.79,266.59 C1735.08,307.67 1885,373 1885,373 C1885,373 1905.49,384.58 1929.75,398.29 " fill="none" id="Announcement-to-PropertyCategory" style="stroke:#181818;stroke-width:1.0;"/><polygon fill="#181818" points="1934.32,400.87,1928.4455,392.9649,1929.9648,398.4139,1924.5158,399.9333,1934.32,400.87" style="stroke:#181818;stroke-width:1.0;"/><text fill="#000000" font-family="sans-serif" font-size="13" lengthAdjust="spacing" textLength="7" x="1646.4885" y="288.1753">1</text><text fill="#000000" font-family="sans-serif" font-size="13" lengthAdjust="spacing" textLength="7" x="1915.0194" y="389.7534">1</text></g><!--link Announcement to AnnouncementHandling--><g id="link_Announcement_AnnouncementHandling"><path codeLine="79" d="M1560.22,266.58 C1555.2,294.87 1547.76,336.8 1541.4,372.64 " fill="none" id="Announcement-AnnouncementHandling" style="stroke:#181818;stroke-width:1.0;"/><polygon fill="#000000" points="1554.8736,328.7224,1550.3995,337.1149,1556.187,338.1419,1554.8736,328.7224" style="stroke:#000000;stroke-width:1.0;"/><text fill="#000000" font-family="sans-serif" font-size="13" lengthAdjust="spacing" textLength="108" x="1563" y="339.0283">sorts and validates</text><text fill="#000000" font-family="sans-serif" font-size="13" lengthAdjust="spacing" textLength="5" x="1553.7451" y="288.1635">*</text><text fill="#000000" font-family="sans-serif" font-size="13" lengthAdjust="spacing" textLength="7" x="1535.3178" y="361.4939">1</text></g><!--SRC=[hLN1ZjCm4BtdAqOzfT2kgBYjLYkLxO5AIA2j-00tdgJMEdRaSK01yUyuRP8wYPF2Ga-DP-QzUUDdcrw4AfXXEHGiUM4P7cmb4GmcbgbCOaHT0fqOrz-5oY1balo850fjLI0KMbRrH-G54yc8jjOQSImjxXEj3k87mhieEaTW9wYGhFfYT8762gIlU_WP_PeCFsbbZPOIZKi3ztixbnCtYzKJivXfKprZeKbOzsy5MwLqgHBCKTbnV7b6NqE6DfJueTeX9KOKLcWLiq265_UmXWtrSOf1j8VH3QLhqcbjfh3kBSRBPZIESA_8xMM2yVA-btFD6Clpnk13JGypzheBJQlhyk2Cu2p4hxeQ-51Lp8FoXstS1XzMJ03F6wBrstynn8oS8EE_sKPfYo0njQ3JFrEvXfAGGweDyClngYVhguAa7RyKP6kM2uqHsUdCSrDNcAFLCiOVRz97fhYiYrf0lq7wLDTT3C0utsQeaiglhkCn2owtfa-5j6ZyACKZZXKCvx-2qFwlG9Nv4Stdz5dhd5eEqgPdAAhtDcMbj6EgcPe3IdTh8zyno-9cdaU9GsKhe2Rnu33Sx2RytzsklSMOSOD4K_h6SqXqdWiYPqGNBOzIk5rr7wv9T0idRVL5bkiXz1BSFSxTxe4QxtcuSyMz2-zMylp1k5a-xVTNCVyrNnJTEDcBpGBMwqTOl5-46MTEh5_xAkA7_WiLzTwm6dYpc9jWZ-BQpMP2oMJsgFT-vfiwSmJRNJFty70-UkJyp-4Rau8x78f-0m00]--></g></svg>