<?xml version="1.0" encoding="us-ascii" standalone="no"?><svg xmlns="http://www.w3.org/2000/svg" xmlns:xlink="http://www.w3.org/1999/xlink" contentStyleType="text/css" height="728px" preserveAspectRatio="none" style="width:529px;height:728px;background:#FFFFFF;" version="1.1" viewBox="0 0 529 728" width="529px" zoomAndPan="magnify"><defs/><g><text fill="#000000" font-family="sans-serif" font-size="14" font-weight="bold" lengthAdjust="spacing" textLength="156" x="179.75" y="25.1074">US005 - Domain Model</text><!--class RegisteredUser--><g id="elem_RegisteredUser"><rect codeLine="12" fill="#F1F1F1" height="92.4844" id="RegisteredUser" rx="2.5" ry="2.5" style="stroke:#181818;stroke-width:0.5;" width="104" x="294" y="620.1211"/><text fill="#000000" font-family="sans-serif" font-size="14" lengthAdjust="spacing" textLength="98" x="297" y="640.2285">RegisteredUser</text><line style="stroke:#181818;stroke-width:0.5;" x1="295" x2="397" y1="648.7422" y2="648.7422"/><text fill="#000000" font-family="sans-serif" font-size="14" lengthAdjust="spacing" textLength="40" x="300" y="667.8496">-name</text><text fill="#000000" font-family="sans-serif" font-size="14" lengthAdjust="spacing" textLength="38" x="300" y="686.4707">-email</text><text fill="#000000" font-family="sans-serif" font-size="14" lengthAdjust="spacing" textLength="65" x="300" y="705.0918">-password</text></g><!--class SystemAdministrator--><g id="elem_SystemAdministrator"><rect codeLine="18" fill="#F1F1F1" height="36.6211" id="SystemAdministrator" rx="2.5" ry="2.5" style="stroke:#181818;stroke-width:0.5;" width="135" x="277.5" y="46.6211"/><text fill="#000000" font-family="sans-serif" font-size="14" lengthAdjust="spacing" textLength="129" x="280.5" y="66.7285">SystemAdministrator</text><line style="stroke:#181818;stroke-width:0.5;" x1="278.5" x2="411.5" y1="75.2422" y2="75.2422"/></g><!--class Address--><g id="elem_Address"><rect codeLine="21" fill="#F1F1F1" height="111.1055" id="Address" rx="2.5" ry="2.5" style="stroke:#181818;stroke-width:0.5;" width="89" x="433.5" y="610.6211"/><text fill="#000000" font-family="sans-serif" font-size="14" lengthAdjust="spacing" textLength="52" x="452" y="630.7285">Address</text><line style="stroke:#181818;stroke-width:0.5;" x1="434.5" x2="521.5" y1="639.2422" y2="639.2422"/><text fill="#000000" font-family="sans-serif" font-size="14" lengthAdjust="spacing" textLength="77" x="439.5" y="658.3496">-streetName</text><text fill="#000000" font-family="sans-serif" font-size="14" lengthAdjust="spacing" textLength="26" x="439.5" y="676.9707">-city</text><text fill="#000000" font-family="sans-serif" font-size="14" lengthAdjust="spacing" textLength="36" x="439.5" y="695.5918">-state</text><text fill="#000000" font-family="sans-serif" font-size="14" lengthAdjust="spacing" textLength="53" x="439.5" y="714.2129">-zipcode</text></g><!--class Agency--><g id="elem_Agency"><rect codeLine="28" fill="#F1F1F1" height="92.4844" id="Agency" rx="2.5" ry="2.5" style="stroke:#181818;stroke-width:0.5;" width="106" x="354" y="224.6211"/><text fill="#000000" font-family="sans-serif" font-size="14" lengthAdjust="spacing" textLength="47" x="383.5" y="244.7285">Agency</text><line style="stroke:#181818;stroke-width:0.5;" x1="355" x2="459" y1="253.2422" y2="253.2422"/><text fill="#000000" font-family="sans-serif" font-size="14" lengthAdjust="spacing" textLength="78" x="360" y="272.3496">-designation</text><text fill="#000000" font-family="sans-serif" font-size="14" lengthAdjust="spacing" textLength="38" x="360" y="290.9707">-email</text><text fill="#000000" font-family="sans-serif" font-size="14" lengthAdjust="spacing" textLength="94" x="360" y="309.5918">-phoneNumber</text></g><!--class Employee--><g id="elem_Employee"><rect codeLine="34" fill="#F1F1F1" height="92.4844" id="Employee" rx="2.5" ry="2.5" style="stroke:#181818;stroke-width:0.5;" width="136" x="278" y="457.6211"/><text fill="#000000" font-family="sans-serif" font-size="14" lengthAdjust="spacing" textLength="62" x="315" y="477.7285">Employee</text><line style="stroke:#181818;stroke-width:0.5;" x1="279" x2="413" y1="486.2422" y2="486.2422"/><text fill="#000000" font-family="sans-serif" font-size="14" lengthAdjust="spacing" textLength="124" x="284" y="505.3496">-citizenCardNumber</text><text fill="#000000" font-family="sans-serif" font-size="14" lengthAdjust="spacing" textLength="72" x="284" y="523.9707">-taxNumber</text><text fill="#000000" font-family="sans-serif" font-size="14" lengthAdjust="spacing" textLength="94" x="284" y="542.5918">-phoneNumber</text></g><!--class Role--><g id="elem_Role"><rect codeLine="40" fill="#F1F1F1" height="36.6211" id="Role" rx="2.5" ry="2.5" style="stroke:#181818;stroke-width:0.5;" width="35" x="223.5" y="647.6211"/><text fill="#000000" font-family="sans-serif" font-size="14" lengthAdjust="spacing" textLength="29" x="226.5" y="667.7285">Role</text><line style="stroke:#181818;stroke-width:0.5;" x1="224.5" x2="257.5" y1="676.2422" y2="676.2422"/></g><g id="elem_GMN8"><path d="M6,626.6211 L6,705.7852 A0,0 0 0 0 6,705.7852 L188,705.7852 A0,0 0 0 0 188,705.7852 L188,670.1211 L223.24,666.1211 L188,662.1211 L188,636.6211 L178,626.6211 L6,626.6211 A0,0 0 0 0 6,626.6211 " fill="#FAFAFA" style="stroke:#181818;stroke-width:0.5;"/><path d="M178,626.6211 L178,636.6211 L188,636.6211 L178,626.6211 " fill="#FAFAFA" style="stroke:#181818;stroke-width:0.5;"/><text fill="#000000" font-family="sans-serif" font-size="13" lengthAdjust="spacing" textLength="75" x="12" y="645.6494">- description:</text><text fill="#000000" font-family="sans-serif" font-size="13" lengthAdjust="spacing" textLength="51" x="28" y="662.9404">1 - agent</text><text fill="#000000" font-family="sans-serif" font-size="13" lengthAdjust="spacing" textLength="98" x="28" y="680.2314">2 - storeManager</text><text fill="#000000" font-family="sans-serif" font-size="13" lengthAdjust="spacing" textLength="145" x="28" y="697.5225">3 - storeNetworkManager</text></g><!--link Employee to RegisteredUser--><g id="link_Employee_RegisteredUser"><path codeLine="50" d="M346,549.7611 C346,565.2911 346,583.0211 346,599.8311 " fill="none" id="Employee-to-RegisteredUser" style="stroke:#181818;stroke-width:1.0;"/><polygon fill="none" points="353,600.0511,346,620.0511,339,600.0511,353,600.0511" style="stroke:#181818;stroke-width:1.0;"/></g><!--link SystemAdministrator to Employee--><g id="link_SystemAdministrator_Employee"><path codeLine="51" d="M329.86,83.8111 C317.13,100.5311 301,126.8811 301,153.1211 C301,153.1211 301,153.1211 301,388.1211 C301,405.2211 305.4,422.8211 311.45,438.9411 " fill="none" id="SystemAdministrator-to-Employee" style="stroke:#181818;stroke-width:1.0;"/><polygon fill="none" points="317.91,436.2511,319.3,457.4011,305.03,441.7411,317.91,436.2511" style="stroke:#181818;stroke-width:1.0;"/></g><!--link SystemAdministrator to Agency--><g id="link_SystemAdministrator_Agency"><path codeLine="52" d="M350.39,83.8211 C359.85,114.8611 379.7,180.0111 393.19,224.3011 " fill="none" id="SystemAdministrator-Agency" style="stroke:#181818;stroke-width:1.0;"/><polygon fill="#000000" points="380.4572,159.0495,380.6324,149.5406,375.0097,151.2537,380.4572,159.0495" style="stroke:#000000;stroke-width:1.0;"/><text fill="#000000" font-family="sans-serif" font-size="13" lengthAdjust="spacing" textLength="50" x="388" y="159.6494">registers</text><text fill="#000000" font-family="sans-serif" font-size="13" lengthAdjust="spacing" textLength="7" x="343.8979" y="105.2494">1</text><text fill="#000000" font-family="sans-serif" font-size="13" lengthAdjust="spacing" textLength="20" x="369.6929" y="213.2635">1..*</text></g><!--link Agency to Employee--><g id="link_Agency_Employee"><path codeLine="53" d="M395.09,316.7111 C384.38,357.2811 368.72,416.5911 357.98,457.2511 " fill="none" id="Agency-Employee" style="stroke:#181818;stroke-width:1.0;"/><polygon fill="#000000" points="381.7235,392.1009,386.8743,384.1059,381.1912,382.6053,381.7235,392.1009" style="stroke:#000000;stroke-width:1.0;"/><text fill="#000000" font-family="sans-serif" font-size="13" lengthAdjust="spacing" textLength="21" x="392" y="392.6494">has</text><text fill="#000000" font-family="sans-serif" font-size="13" lengthAdjust="spacing" textLength="7" x="385.7303" y="339.0837">1</text><text fill="#000000" font-family="sans-serif" font-size="13" lengthAdjust="spacing" textLength="5" x="354.3724" y="446.2062">*</text></g><!--link Agency to Address--><g id="link_Agency_Address"><path codeLine="54" d="M415.14,316.7611 C428.26,389.4311 454.01,532.1311 468.14,610.4611 " fill="none" id="Agency-Address" style="stroke:#181818;stroke-width:1.0;"/></g><!--link Employee to Address--><g id="link_Employee_Address"><path codeLine="55" d="M383.12,549.7611 C398.75,568.7611 417.08,591.0411 433.43,610.9311 " fill="none" id="Employee-Address" style="stroke:#181818;stroke-width:1.0;"/></g><!--link Employee to Role--><g id="link_Employee_Role"><path codeLine="56" d="M316.07,549.6711 C303.62,568.4711 289.06,590.5711 276,610.6211 C268.02,622.8711 259.12,636.7311 252.29,647.4111 " fill="none" id="Employee-Role" style="stroke:#181818;stroke-width:1.0;"/></g><!--SRC=[RLB1Rjim3BthAuWS1xX8D-oIGu5WtM67vj2W7y1AZ2r4eWo9GUTk-_SnZgrwWtMH_DxZqnFfSlRSOyO8CN6oNKwHGFA5JAbCZ_QCBHrb20IPh22tOIae7Rhqvhc54uP2Pa7PWANiHR9_lGZzi8cF_frWQqpd7O7rsQhLU8uaNNB56F6Y5xqSjzklqC1ZYkWPdfAZOCpe1y_K-YAKoRqKol3BWAu662DDHzAYC9rxBNbBsPa_S_rnqEguTz6p-cIKT3MfzDwvJBfFlgeWaaCrjrw6cK6Pm7VVMusuC6c9xL2pEIg-PHIVU2rYbvWEb_XA-SFXU-n36eYgXrwipUDlcDsalU62F__vNdLxJe5kZ-Ga185E0kaqmXyHRVRzDU9kXAxhNWaTFaj5FYjIj6FqXAnChiINcJYGQB_FCq_iu7gdCVL5JVFxuRyfchMXZBgvQbMnkT-egj7zxkxJPkxwJl_Jctc11pE1LQgwccG77IuqIa_JNuPTnSRE_GK0]--></g></svg>