<?xml version="1.0" encoding="us-ascii" standalone="no"?><svg xmlns="http://www.w3.org/2000/svg" xmlns:xlink="http://www.w3.org/1999/xlink" contentStyleType="text/css" height="766px" preserveAspectRatio="none" style="width:889px;height:766px;background:#FFFFFF;" version="1.1" viewBox="0 0 889 766" width="889px" zoomAndPan="magnify"><defs/><g><text fill="#000000" font-family="sans-serif" font-size="14" font-weight="bold" lengthAdjust="spacing" textLength="284" x="303.5" y="30.1074">System Sequence Diagram (SSD) - US001</text><rect fill="#FFFFFF" height="531.9473" style="stroke:#181818;stroke-width:1.0;" width="10" x="85" y="133.2422"/><rect fill="#FFFFFF" height="31.291" style="stroke:#181818;stroke-width:1.0;" width="10" x="825" y="156.5332"/><rect fill="#FFFFFF" height="31.291" style="stroke:#181818;stroke-width:1.0;" width="10" x="825" y="245.4063"/><rect fill="#FFFFFF" height="31.291" style="stroke:#181818;stroke-width:1.0;" width="10" x="825" y="309.9883"/><rect fill="#FFFFFF" height="31.291" style="stroke:#181818;stroke-width:1.0;" width="10" x="825" y="372.5703"/><rect fill="#FFFFFF" height="31.291" style="stroke:#181818;stroke-width:1.0;" width="10" x="825" y="494.7344"/><rect fill="#FFFFFF" height="31.291" style="stroke:#181818;stroke-width:1.0;" width="10" x="825" y="633.8984"/><rect fill="none" height="369.4922" style="stroke:#000000;stroke-width:1.5;" width="872" x="10" y="202.8242"/><rect fill="none" height="146.4551" style="stroke:#000000;stroke-width:1.5;" width="852" x="20" y="418.8613"/><line style="stroke:#181818;stroke-width:0.5;stroke-dasharray:5.0,5.0;" x1="90" x2="90" y1="123.2422" y2="683.1895"/><line style="stroke:#181818;stroke-width:0.5;stroke-dasharray:5.0,5.0;" x1="830" x2="830" y1="123.2422" y2="683.1895"/><text fill="#000000" font-family="sans-serif" font-size="14" lengthAdjust="spacing" textLength="114" x="30" y="119.7285">Unregistered User</text><ellipse cx="90" cy="53.1211" fill="#E3E3E3" rx="8" ry="8" style="stroke:#181818;stroke-width:0.5;"/><path d="M90,61.1211 L90,88.1211 M77,69.1211 L103,69.1211 M90,88.1211 L77,103.1211 M90,88.1211 L103,103.1211 " fill="none" style="stroke:#181818;stroke-width:0.5;"/><text fill="#000000" font-family="sans-serif" font-size="14" lengthAdjust="spacing" textLength="114" x="30" y="697.2969">Unregistered User</text><ellipse cx="90" cy="709.3105" fill="#E3E3E3" rx="8" ry="8" style="stroke:#181818;stroke-width:0.5;"/><path d="M90,717.3105 L90,744.3105 M77,725.3105 L103,725.3105 M90,744.3105 L77,759.3105 M90,744.3105 L103,759.3105 " fill="none" style="stroke:#181818;stroke-width:0.5;"/><rect fill="#E3E3E3" height="32.6211" rx="2.5" ry="2.5" style="stroke:#181818;stroke-width:0.5;" width="64" x="798" y="89.6211"/><text fill="#000000" font-family="sans-serif" font-size="14" lengthAdjust="spacing" textLength="50" x="805" y="111.7285">:System</text><rect fill="#E3E3E3" height="32.6211" rx="2.5" ry="2.5" style="stroke:#181818;stroke-width:0.5;" width="64" x="798" y="682.1895"/><text fill="#000000" font-family="sans-serif" font-size="14" lengthAdjust="spacing" textLength="50" x="805" y="704.2969">:System</text><rect fill="#FFFFFF" height="531.9473" style="stroke:#181818;stroke-width:1.0;" width="10" x="85" y="133.2422"/><rect fill="#FFFFFF" height="31.291" style="stroke:#181818;stroke-width:1.0;" width="10" x="825" y="156.5332"/><rect fill="#FFFFFF" height="31.291" style="stroke:#181818;stroke-width:1.0;" width="10" x="825" y="245.4063"/><rect fill="#FFFFFF" height="31.291" style="stroke:#181818;stroke-width:1.0;" width="10" x="825" y="309.9883"/><rect fill="#FFFFFF" height="31.291" style="stroke:#181818;stroke-width:1.0;" width="10" x="825" y="372.5703"/><rect fill="#FFFFFF" height="31.291" style="stroke:#181818;stroke-width:1.0;" width="10" x="825" y="494.7344"/><rect fill="#FFFFFF" height="31.291" style="stroke:#181818;stroke-width:1.0;" width="10" x="825" y="633.8984"/><polygon fill="#181818" points="813,152.5332,823,156.5332,813,160.5332,817,156.5332" style="stroke:#181818;stroke-width:1.0;"/><line style="stroke:#181818;stroke-width:1.0;" x1="95" x2="819" y1="156.5332" y2="156.5332"/><text fill="#000000" font-family="sans-serif" font-size="13" lengthAdjust="spacing" textLength="516" x="102" y="151.2705">Decides to enter the app without registering and requests to see the displayed properties.</text><polygon fill="#181818" points="106,183.8242,96,187.8242,106,191.8242,102,187.8242" style="stroke:#181818;stroke-width:1.0;"/><line style="stroke:#181818;stroke-width:1.0;stroke-dasharray:2.0,2.0;" x1="100" x2="829" y1="187.8242" y2="187.8242"/><text fill="#000000" font-family="sans-serif" font-size="13" lengthAdjust="spacing" textLength="309" x="112" y="182.5615">Asks the user if he wants to filter the listing (Yes/No).</text><path d="M10,202.8242 L71,202.8242 L71,212.1152 L61,222.1152 L10,222.1152 L10,202.8242 " fill="#EEEEEE" style="stroke:#000000;stroke-width:1.5;"/><rect fill="none" height="369.4922" style="stroke:#000000;stroke-width:1.5;" width="872" x="10" y="202.8242"/><text fill="#000000" font-family="sans-serif" font-size="13" font-weight="bold" lengthAdjust="spacing" textLength="16" x="25" y="217.8525">alt</text><polygon fill="#181818" points="813,241.4063,823,245.4063,813,249.4063,817,245.4063" style="stroke:#181818;stroke-width:1.0;"/><line style="stroke:#181818;stroke-width:1.0;" x1="95" x2="819" y1="245.4063" y2="245.4063"/><text fill="#000000" font-family="sans-serif" font-size="13" lengthAdjust="spacing" textLength="168" x="102" y="240.1436">(No) Selects default settings.</text><polygon fill="#181818" points="106,272.6973,96,276.6973,106,280.6973,102,276.6973" style="stroke:#181818;stroke-width:1.0;"/><line style="stroke:#181818;stroke-width:1.0;stroke-dasharray:2.0,2.0;" x1="100" x2="829" y1="276.6973" y2="276.6973"/><text fill="#000000" font-family="sans-serif" font-size="13" lengthAdjust="spacing" textLength="370" x="112" y="271.4346">Displays properties sorted by default (most recently added first).</text><line style="stroke:#000000;stroke-width:1.0;stroke-dasharray:2.0,2.0;" x1="10" x2="882" y1="285.6973" y2="285.6973"/><polygon fill="#181818" points="813,305.9883,823,309.9883,813,313.9883,817,309.9883" style="stroke:#181818;stroke-width:1.0;"/><line style="stroke:#181818;stroke-width:1.0;" x1="95" x2="819" y1="309.9883" y2="309.9883"/><text fill="#000000" font-family="sans-serif" font-size="13" lengthAdjust="spacing" textLength="183" x="102" y="304.7256">(Yes) Requests to select filters.</text><polygon fill="#181818" points="106,337.2793,96,341.2793,106,345.2793,102,341.2793" style="stroke:#181818;stroke-width:1.0;"/><line style="stroke:#181818;stroke-width:1.0;stroke-dasharray:2.0,2.0;" x1="100" x2="829" y1="341.2793" y2="341.2793"/><text fill="#000000" font-family="sans-serif" font-size="13" lengthAdjust="spacing" textLength="294" x="112" y="336.0166">Asks the user if he wants to buy or rent a property.</text><polygon fill="#181818" points="813,368.5703,823,372.5703,813,376.5703,817,372.5703" style="stroke:#181818;stroke-width:1.0;"/><line style="stroke:#181818;stroke-width:1.0;" x1="95" x2="819" y1="372.5703" y2="372.5703"/><text fill="#000000" font-family="sans-serif" font-size="13" lengthAdjust="spacing" textLength="264" x="102" y="367.3076">Chooses if he wants to buy or rent a property.</text><polygon fill="#181818" points="106,399.8613,96,403.8613,106,407.8613,102,403.8613" style="stroke:#181818;stroke-width:1.0;"/><line style="stroke:#181818;stroke-width:1.0;stroke-dasharray:2.0,2.0;" x1="100" x2="829" y1="403.8613" y2="403.8613"/><text fill="#000000" font-family="sans-serif" font-size="13" lengthAdjust="spacing" textLength="403" x="112" y="398.5986">Asks the user the desired type of property (house, apartment or land).</text><path d="M20,418.8613 L81,418.8613 L81,428.1523 L71,438.1523 L20,438.1523 L20,418.8613 " fill="#EEEEEE" style="stroke:#000000;stroke-width:1.5;"/><rect fill="none" height="146.4551" style="stroke:#000000;stroke-width:1.5;" width="852" x="20" y="418.8613"/><text fill="#000000" font-family="sans-serif" font-size="13" font-weight="bold" lengthAdjust="spacing" textLength="16" x="35" y="433.8896">alt</text><polygon fill="#181818" points="818,457.4434,828,461.4434,818,465.4434,822,461.4434" style="stroke:#181818;stroke-width:1.0;"/><line style="stroke:#181818;stroke-width:1.0;" x1="95" x2="824" y1="461.4434" y2="461.4434"/><text fill="#000000" font-family="sans-serif" font-size="13" lengthAdjust="spacing" textLength="83" x="102" y="456.1807">Chooses land.</text><line style="stroke:#000000;stroke-width:1.0;stroke-dasharray:2.0,2.0;" x1="20" x2="872" y1="470.4434" y2="470.4434"/><polygon fill="#181818" points="813,490.7344,823,494.7344,813,498.7344,817,494.7344" style="stroke:#181818;stroke-width:1.0;"/><line style="stroke:#181818;stroke-width:1.0;" x1="95" x2="819" y1="494.7344" y2="494.7344"/><text fill="#000000" font-family="sans-serif" font-size="13" lengthAdjust="spacing" textLength="171" x="102" y="489.4717">Chooses house or apartment.</text><polygon fill="#181818" points="106,522.0254,96,526.0254,106,530.0254,102,526.0254" style="stroke:#181818;stroke-width:1.0;"/><line style="stroke:#181818;stroke-width:1.0;stroke-dasharray:2.0,2.0;" x1="100" x2="829" y1="526.0254" y2="526.0254"/><text fill="#000000" font-family="sans-serif" font-size="13" lengthAdjust="spacing" textLength="337" x="112" y="520.7627">Asks the user the desired number of rooms (1, 2, 3, 4, 5+)</text><polygon fill="#181818" points="818,553.3164,828,557.3164,818,561.3164,822,557.3164" style="stroke:#181818;stroke-width:1.0;"/><line style="stroke:#181818;stroke-width:1.0;" x1="95" x2="824" y1="557.3164" y2="557.3164"/><text fill="#000000" font-family="sans-serif" font-size="13" lengthAdjust="spacing" textLength="224" x="102" y="552.0537">Chooses the desired number of rooms.</text><polygon fill="#181818" points="106,598.6074,96,602.6074,106,606.6074,102,602.6074" style="stroke:#181818;stroke-width:1.0;"/><line style="stroke:#181818;stroke-width:1.0;stroke-dasharray:2.0,2.0;" x1="100" x2="829" y1="602.6074" y2="602.6074"/><text fill="#000000" font-family="sans-serif" font-size="13" lengthAdjust="spacing" textLength="711" x="112" y="597.3447">Asks the user how he wants to sort the displayed properties (price, city or state of the property - ascending or descending).</text><polygon fill="#181818" points="813,629.8984,823,633.8984,813,637.8984,817,633.8984" style="stroke:#181818;stroke-width:1.0;"/><line style="stroke:#181818;stroke-width:1.0;" x1="95" x2="819" y1="633.8984" y2="633.8984"/><text fill="#000000" font-family="sans-serif" font-size="13" lengthAdjust="spacing" textLength="209" x="102" y="628.6357">Chooses the desired type of sorting.</text><polygon fill="#181818" points="101,661.1895,91,665.1895,101,669.1895,97,665.1895" style="stroke:#181818;stroke-width:1.0;"/><line style="stroke:#181818;stroke-width:1.0;stroke-dasharray:2.0,2.0;" x1="95" x2="829" y1="665.1895" y2="665.1895"/><text fill="#000000" font-family="sans-serif" font-size="13" lengthAdjust="spacing" textLength="353" x="107" y="659.9268">Displays listed properties according to user's sorting method.</text><!--SRC=[fLLBavim3BxpApIvB4oJTBUFImwTsMdEFPJ9eKV7YE09O6g9PlZtbHqWIITXaoudWoL_3qk2zgPkb5CLLBQskd2sGc3NOaJZJgFqNkqmvQv4SAXPrRloF80AbTc3gNUGgv8mYjYmXAOTCLQGukyMQusmDchdm-CqNIUmW4tw_FmIHKgpTJ3Rr0vtHZ8SPh0XT3DG51QHeB3Hfb4rmsnrF3Ri7fVX2FD7CHx38v37hs3nhGzPmHgroP20BM0j8C05WceQE1WkRCime7iPgixaNMWJXmn23F6PeQPKdH1id6rGM24j0zp8OA04_TERi10gdj8ANcbFuR3MCpGvoF8WoW9GRig1MobiF9Vu5zB77pOvucHu5KcLF2B-gpoMPBc4KYwE93zNRScYYFtfFVj91LTLh8zEq9aHGDQnMBFjHfIuikITrM9vsO7ACjdFZIDEJi0t966ef9kYn9K4VbxSaLVOE_ZVkYPlPzjs8ANgH0seGNdtff9h_ByNrf9uzY32UyI40aOolh-uQn1iFY90B3r0E9UEa5whFBpGAAKFahladTVVb5n_ulAK5kxudhp0pbCQ-IqlyYPzUT2RkgssyadSSTPM1F7B73xDuVCSlipXwuVaukm9JwRqJE2TX66TzQqWY_SCcS8UBghCD-hDUGPnuuoMKj26Gp4IUqYXvpF6Wbd8_9Msplo8aY0HqxzD3wfx31cAqzEK0nyTiEDeyXFqKfhIshf0MLpmrZpHW08LodyWkqN-x4lun_m5]--></g></svg>