<?xml version="1.0" encoding="us-ascii" standalone="no"?><svg xmlns="http://www.w3.org/2000/svg" xmlns:xlink="http://www.w3.org/1999/xlink" contentStyleType="text/css" height="424.9px" preserveAspectRatio="none" style="width:552px;height:424px;background:#FFFFFF;" version="1.1" viewBox="0 0 552 424" width="552.3px" zoomAndPan="magnify"><defs/><g><!--entity SystemAdministrator--><g id="elem_SystemAdministrator"><ellipse cx="50.75" cy="317.1" fill="#F1F1F1" rx="5.6" ry="5.6" style="stroke:#181818;stroke-width:0.3499999999999999;"/><path d="M50.75,322.7 L50.75,341.6 M41.65,328.3 L59.85,328.3 M50.75,341.6 L41.65,352.1 M50.75,341.6 L59.85,352.1 " fill="none" style="stroke:#181818;stroke-width:0.3499999999999999;"/><text fill="#000000" font-family="sans-serif" font-size="9.8" lengthAdjust="spacing" textLength="93.1" x="4.2" y="363.7252">System Administrator</text></g><!--entity UnregisteredUser--><g id="elem_UnregisteredUser"><ellipse cx="50.75" cy="198.8" fill="#F1F1F1" rx="5.6" ry="5.6" style="stroke:#181818;stroke-width:0.3499999999999999;"/><path d="M50.75,204.4 L50.75,223.3 M41.65,210 L59.85,210 M50.75,223.3 L41.65,233.8 M50.75,223.3 L59.85,233.8 " fill="none" style="stroke:#181818;stroke-width:0.3499999999999999;"/><text fill="#000000" font-family="sans-serif" font-size="9.8" lengthAdjust="spacing" textLength="79.8" x="10.85" y="245.4252">Unregistered User</text></g><!--entity Agent--><g id="elem_Agent"><ellipse cx="50.75" cy="119" fill="#F1F1F1" rx="5.6" ry="5.6" style="stroke:#181818;stroke-width:0.3499999999999999;"/><path d="M50.75,124.6 L50.75,143.5 M41.65,130.2 L59.85,130.2 M50.75,143.5 L41.65,154 M50.75,143.5 L59.85,154 " fill="none" style="stroke:#181818;stroke-width:0.3499999999999999;"/><text fill="#000000" font-family="sans-serif" font-size="9.8" lengthAdjust="spacing" textLength="25.9" x="37.8" y="165.6252">Agent</text></g><!--entity Owner--><g id="elem_Owner"><ellipse cx="50.75" cy="25.2" fill="#F1F1F1" rx="5.6" ry="5.6" style="stroke:#181818;stroke-width:0.3499999999999999;"/><path d="M50.75,30.8 L50.75,49.7 M41.65,36.4 L59.85,36.4 M50.75,49.7 L41.65,60.2 M50.75,49.7 L59.85,60.2 " fill="none" style="stroke:#181818;stroke-width:0.3499999999999999;"/><text fill="#000000" font-family="sans-serif" font-size="9.8" lengthAdjust="spacing" textLength="28.7" x="36.4" y="71.8252">Owner</text></g><g id="elem_UC1"><ellipse cx="344.1665" cy="220.3833" fill="#F1F1F1" rx="80.2665" ry="17.7333" style="stroke:#181818;stroke-width:0.3499999999999999;"/><text fill="#000000" font-family="sans-serif" font-size="9.8" lengthAdjust="spacing" textLength="133.7" x="277.3165" y="223.0411">UC1 - Display listed properties</text></g><g id="elem_UC2"><ellipse cx="344.009" cy="140.5518" fill="#F1F1F1" rx="122.109" ry="26.1018" style="stroke:#181818;stroke-width:0.3499999999999999;"/><text fill="#000000" font-family="sans-serif" font-size="9.8" lengthAdjust="spacing" textLength="222.6" x="232.709" y="143.2096">UC2 - Publish a sale announcement on the system</text></g><g id="elem_UC3"><ellipse cx="343.9201" cy="281.444" fill="#F1F1F1" rx="82.8201" ry="18.244" style="stroke:#181818;stroke-width:0.3499999999999999;"/><text fill="#000000" font-family="sans-serif" font-size="9.8" lengthAdjust="spacing" textLength="139.3" x="274.2701" y="284.1018">UC3 - Register a new employee</text></g><g id="elem_UC4"><ellipse cx="343.8893" cy="46.7979" fill="#F1F1F1" rx="204.5893" ry="42.5979" style="stroke:#181818;stroke-width:0.3499999999999999;"/><text fill="#000000" font-family="sans-serif" font-size="9.8" lengthAdjust="spacing" textLength="391.3" x="148.2393" y="49.4557">UC4 - Submit a request for listing a property sale or rent, choosing the responsible agent</text></g><g id="elem_UC5"><ellipse cx="343.9077" cy="338.7715" fill="#F1F1F1" rx="64.9577" ry="14.6715" style="stroke:#181818;stroke-width:0.3499999999999999;"/><text fill="#000000" font-family="sans-serif" font-size="9.8" lengthAdjust="spacing" textLength="98.7" x="292.4577" y="342.1341">UC5 - Register a store</text></g><g id="elem_UC6"><ellipse cx="344.1087" cy="399.7817" fill="#F1F1F1" rx="98.7587" ry="21.4317" style="stroke:#181818;stroke-width:0.3499999999999999;"/><text fill="#000000" font-family="sans-serif" font-size="9.8" lengthAdjust="spacing" textLength="173.6" x="257.3087" y="402.4396">UC6 - Specify states, districts and cities</text></g><!--link UnregisteredUser to UC1--><g id="link_UnregisteredUser_UC1"><path d="M90.818,220.5 C133.987,220.5 204.512,220.5 260.071,220.5 " fill="none" id="UnregisteredUser-to-UC1" style="stroke:#181818;stroke-width:0.6999999999999998;"/><polygon fill="#181818" points="263.711,220.5,257.411,217.7,260.211,220.5,257.411,223.3,263.711,220.5" style="stroke:#181818;stroke-width:0.6999999999999998;"/></g><!--link Agent to UC2--><g id="link_Agent_UC2"><path d="M63.805,140.7 C90.671,140.7 156.912,140.7 218.176,140.7 " fill="none" id="Agent-to-UC2" style="stroke:#181818;stroke-width:0.6999999999999998;"/><polygon fill="#181818" points="221.83,140.7,215.53,137.9,218.33,140.7,215.53,143.5,221.83,140.7" style="stroke:#181818;stroke-width:0.6999999999999998;"/></g><!--link SystemAdministrator to UC3--><g id="link_SystemAdministrator_UC3"><path d="M97.391,323.526 C110.796,319.438 125.545,315.301 139.3,312.2 C181.027,302.785 228.221,295.449 266.7,290.311 " fill="none" id="SystemAdministrator-to-UC3" style="stroke:#181818;stroke-width:0.6999999999999998;"/><polygon fill="#181818" points="270.396,289.814,263.7827,287.8662,266.9264,290.274,264.5186,293.4176,270.396,289.814" style="stroke:#181818;stroke-width:0.6999999999999998;"/></g><!--link Owner to UC4--><g id="link_Owner_UC4"><path d="M65.135,46.9 C79.975,46.9 105.581,46.9 135.429,46.9 " fill="none" id="Owner-to-UC4" style="stroke:#181818;stroke-width:0.6999999999999998;"/><polygon fill="#181818" points="139.09,46.9,132.79,44.1,135.59,46.9,132.79,49.7,139.09,46.9" style="stroke:#181818;stroke-width:0.6999999999999998;"/></g><!--link SystemAdministrator to UC5--><g id="link_SystemAdministrator_UC5"><path d="M97.377,338.8 C145.138,338.8 220.43,338.8 275.142,338.8 " fill="none" id="SystemAdministrator-to-UC5" style="stroke:#181818;stroke-width:0.6999999999999998;"/><polygon fill="#181818" points="278.712,338.8,272.412,336,275.212,338.8,272.412,341.6,278.712,338.8" style="stroke:#181818;stroke-width:0.6999999999999998;"/></g><!--link SystemAdministrator to UC6--><g id="link_SystemAdministrator_UC6"><path d="M97.398,354.389 C110.803,358.582 125.545,362.845 139.3,366.1 C177.296,375.088 219.828,382.501 256.186,388.059 " fill="none" id="SystemAdministrator-to-UC6" style="stroke:#181818;stroke-width:0.6999999999999998;"/><polygon fill="#181818" points="259.686,388.591,253.8721,384.8858,256.2249,388.0708,253.0398,390.4236,259.686,388.591" style="stroke:#181818;stroke-width:0.6999999999999998;"/></g><!--SRC=[VLAxRiCm3Dpr5KJdPCXpB12aUui6-G16fcqXbkIAD0B_VId73foYo2OTZyVJKNnreSM47dmCqTOfUW997Hb-L5gqLwpe97r3aCWAXggP4xZ68jvSgA34XicOXae1YP1SLGiKBZUv68n1Ap71swbd8G-7mhlWM18g-WR8S2yyuLFFEIIg5AH41PoPxWrpD8CJ-r1Ha84nd2RuynR6nk5aJCTaaKdbZojOmeVZji4UcYnPG9jYIqaSyNtOSJLlM6l3LtTHRWq8Z9eEXX2xOCdhJ8W1f2RWuKsZm7eki561xz6-AWIw0VcsYJtHID_CwLkbdxgBTwBaH3yTiK2fpyfkS_eu6UxlRhIKrCW2R1qZPqRsauZR6DXTijz7J2e_dxLxjiQQtkHfD-VjiwUMh2jrfg0GBtJVkZfdXJME0goRvRStvk_6OBby7v8T5ZNUrkQVdp3MDcROtNZRlc3kNjJsvXS0]--></g></svg>