<?xml version="1.0" encoding="us-ascii" standalone="no"?><svg xmlns="http://www.w3.org/2000/svg" xmlns:xlink="http://www.w3.org/1999/xlink" contentStyleType="text/css" height="906px" preserveAspectRatio="none" style="width:1082px;height:906px;background:#FFFFFF;" version="1.1" viewBox="0 0 1082 906" width="1082px" zoomAndPan="magnify"><defs/><g><text fill="#000000" font-family="sans-serif" font-size="14" font-weight="bold" lengthAdjust="spacing" textLength="156" x="456" y="25.1074">US004 - Domain Model</text><!--class RegisteredUser--><g id="elem_RegisteredUser"><rect codeLine="77" fill="#F1F1F1" height="148.3477" id="RegisteredUser" rx="2.5" ry="2.5" style="stroke:#181818;stroke-width:0.5;" width="104" x="32" y="46.6211"/><text fill="#000000" font-family="sans-serif" font-size="14" lengthAdjust="spacing" textLength="98" x="35" y="66.7285">RegisteredUser</text><line style="stroke:#181818;stroke-width:0.5;" x1="33" x2="135" y1="75.2422" y2="75.2422"/><text fill="#000000" font-family="sans-serif" font-size="14" lengthAdjust="spacing" textLength="40" x="38" y="94.3496">-name</text><text fill="#000000" font-family="sans-serif" font-size="14" lengthAdjust="spacing" textLength="38" x="38" y="112.9707">-email</text><text fill="#000000" font-family="sans-serif" font-size="14" lengthAdjust="spacing" textLength="65" x="38" y="131.5918">-password</text><text fill="#000000" font-family="sans-serif" font-size="14" lengthAdjust="spacing" textLength="40" x="38" y="150.2129">-name</text><text fill="#000000" font-family="sans-serif" font-size="14" lengthAdjust="spacing" textLength="38" x="38" y="168.834">-email</text><text fill="#000000" font-family="sans-serif" font-size="14" lengthAdjust="spacing" textLength="65" x="38" y="187.4551">-password</text></g><!--class Owner--><g id="elem_Owner"><rect codeLine="19" fill="#F1F1F1" height="36.6211" id="Owner" rx="2.5" ry="2.5" style="stroke:#181818;stroke-width:0.5;" width="47" x="174.5" y="102.1211"/><text fill="#000000" font-family="sans-serif" font-size="14" lengthAdjust="spacing" textLength="41" x="177.5" y="122.2285">Owner</text><line style="stroke:#181818;stroke-width:0.5;" x1="175.5" x2="220.5" y1="130.7422" y2="130.7422"/></g><!--class TypeOfProperty--><g id="elem_TypeOfProperty"><rect codeLine="22" fill="#F1F1F1" height="36.6211" id="TypeOfProperty" rx="2.5" ry="2.5" style="stroke:#181818;stroke-width:0.5;" width="107" x="332.5" y="825.6211"/><text fill="#000000" font-family="sans-serif" font-size="14" lengthAdjust="spacing" textLength="101" x="335.5" y="845.7285">TypeOfProperty</text><line style="stroke:#181818;stroke-width:0.5;" x1="333.5" x2="438.5" y1="854.2422" y2="854.2422"/></g><g id="elem_GMN5"><path d="M183,804.6211 L183,883.7852 A0,0 0 0 0 183,883.7852 L297,883.7852 A0,0 0 0 0 297,883.7852 L297,848.1211 L332.48,844.1211 L297,840.1211 L297,814.6211 L287,804.6211 L183,804.6211 A0,0 0 0 0 183,804.6211 " fill="#FAFAFA" style="stroke:#181818;stroke-width:0.5;"/><path d="M287,804.6211 L287,814.6211 L297,814.6211 L287,804.6211 " fill="#FAFAFA" style="stroke:#181818;stroke-width:0.5;"/><text fill="#000000" font-family="sans-serif" font-size="13" lengthAdjust="spacing" textLength="71" x="189" y="823.6494">- description</text><text fill="#000000" font-family="sans-serif" font-size="13" lengthAdjust="spacing" textLength="43" x="205" y="840.9404">1 - land</text><text fill="#000000" font-family="sans-serif" font-size="13" lengthAdjust="spacing" textLength="77" x="205" y="858.2314">2 - apartment</text><text fill="#000000" font-family="sans-serif" font-size="13" lengthAdjust="spacing" textLength="54" x="205" y="875.5225">3 - house</text></g><!--class TypeOfBusiness--><g id="elem_TypeOfBusiness"><rect codeLine="32" fill="#F1F1F1" height="36.6211" id="TypeOfBusiness" rx="2.5" ry="2.5" style="stroke:#181818;stroke-width:0.5;" width="110" x="144" y="626.1211"/><text fill="#000000" font-family="sans-serif" font-size="14" lengthAdjust="spacing" textLength="104" x="147" y="646.2285">TypeOfBusiness</text><line style="stroke:#181818;stroke-width:0.5;" x1="145" x2="253" y1="654.7422" y2="654.7422"/></g><g id="elem_GMN9"><path d="M289,613.6211 L289,640.6211 L254.25,644.6211 L289,648.6211 L289,675.4941 A0,0 0 0 0 289,675.4941 L381,675.4941 A0,0 0 0 0 381,675.4941 L381,623.6211 L371,613.6211 L289,613.6211 A0,0 0 0 0 289,613.6211 " fill="#FAFAFA" style="stroke:#181818;stroke-width:0.5;"/><path d="M371,613.6211 L371,623.6211 L381,623.6211 L371,613.6211 " fill="#FAFAFA" style="stroke:#181818;stroke-width:0.5;"/><text fill="#000000" font-family="sans-serif" font-size="13" lengthAdjust="spacing" textLength="71" x="295" y="632.6494">- description</text><text fill="#000000" font-family="sans-serif" font-size="13" lengthAdjust="spacing" textLength="43" x="311" y="649.9404">1 - sale</text><text fill="#000000" font-family="sans-serif" font-size="13" lengthAdjust="spacing" textLength="41" x="311" y="667.2314">2 - rent</text></g><!--class Announcement--><g id="elem_Announcement"><rect codeLine="41" fill="#F1F1F1" height="73.8633" id="Announcement" rx="2.5" ry="2.5" style="stroke:#181818;stroke-width:0.5;" width="115" x="142.5" y="444.6211"/><text fill="#000000" font-family="sans-serif" font-size="14" lengthAdjust="spacing" textLength="95" x="152.5" y="464.7285">Announcement</text><line style="stroke:#181818;stroke-width:0.5;" x1="143.5" x2="256.5" y1="473.2422" y2="473.2422"/><text fill="#000000" font-family="sans-serif" font-size="14" lengthAdjust="spacing" textLength="78" x="148.5" y="492.3496">-commission</text><text fill="#000000" font-family="sans-serif" font-size="14" lengthAdjust="spacing" textLength="103" x="148.5" y="510.9707">-publicationDate</text></g><!--class Land--><g id="elem_Land"><rect codeLine="46" fill="#F1F1F1" height="92.4844" id="Land" rx="2.5" ry="2.5" style="stroke:#181818;stroke-width:0.5;" width="170" x="475" y="798.1211"/><text fill="#000000" font-family="sans-serif" font-size="14" lengthAdjust="spacing" textLength="32" x="544" y="818.2285">Land</text><line style="stroke:#181818;stroke-width:0.5;" x1="476" x2="644" y1="826.7422" y2="826.7422"/><text fill="#000000" font-family="sans-serif" font-size="14" lengthAdjust="spacing" textLength="34" x="481" y="845.8496">-area</text><text fill="#000000" font-family="sans-serif" font-size="14" lengthAdjust="spacing" textLength="158" x="481" y="864.4707">-distanceFromCityCentre</text><text fill="#000000" font-family="sans-serif" font-size="14" lengthAdjust="spacing" textLength="85" x="481" y="883.0918">-photographs</text></g><!--class House--><g id="elem_House"><rect codeLine="52" fill="#F1F1F1" height="92.4844" id="House" rx="2.5" ry="2.5" style="stroke:#181818;stroke-width:0.5;" width="184" x="891" y="798.1211"/><text fill="#000000" font-family="sans-serif" font-size="14" lengthAdjust="spacing" textLength="40" x="963" y="818.2285">House</text><line style="stroke:#181818;stroke-width:0.5;" x1="892" x2="1074" y1="826.7422" y2="826.7422"/><text fill="#000000" font-family="sans-serif" font-size="14" lengthAdjust="spacing" textLength="142" x="897" y="845.8496">-existenceOfBasement</text><text fill="#000000" font-family="sans-serif" font-size="14" lengthAdjust="spacing" textLength="172" x="897" y="864.4707">-existenceOfInhabitableLoft</text><text fill="#000000" font-family="sans-serif" font-size="14" lengthAdjust="spacing" textLength="87" x="897" y="883.0918">-sunExposure</text></g><!--class Apartment--><g id="elem_Apartment"><rect codeLine="58" fill="#F1F1F1" height="111.1055" id="Apartment" rx="2.5" ry="2.5" style="stroke:#181818;stroke-width:0.5;" width="175" x="680.5" y="788.6211"/><text fill="#000000" font-family="sans-serif" font-size="14" lengthAdjust="spacing" textLength="65" x="735.5" y="808.7285">Apartment</text><line style="stroke:#181818;stroke-width:0.5;" x1="681.5" x2="854.5" y1="817.2422" y2="817.2422"/><text fill="#000000" font-family="sans-serif" font-size="14" lengthAdjust="spacing" textLength="132" x="686.5" y="836.3496">-numberOfBedrooms</text><text fill="#000000" font-family="sans-serif" font-size="14" lengthAdjust="spacing" textLength="136" x="686.5" y="854.9707">-numberOfBathrooms</text><text fill="#000000" font-family="sans-serif" font-size="14" lengthAdjust="spacing" textLength="163" x="686.5" y="873.5918">-numberOfParkingSpaces</text><text fill="#000000" font-family="sans-serif" font-size="14" lengthAdjust="spacing" textLength="128" x="686.5" y="892.2129">-availableEquipment</text></g><!--class SaleRequest--><g id="elem_SaleRequest"><rect codeLine="65" fill="#F1F1F1" height="55.2422" id="SaleRequest" rx="2.5" ry="2.5" style="stroke:#181818;stroke-width:0.5;" width="113" x="416.5" y="617.1211"/><text fill="#000000" font-family="sans-serif" font-size="14" lengthAdjust="spacing" textLength="81" x="432.5" y="637.2285">SaleRequest</text><line style="stroke:#181818;stroke-width:0.5;" x1="417.5" x2="528.5" y1="645.7422" y2="645.7422"/><text fill="#000000" font-family="sans-serif" font-size="14" lengthAdjust="spacing" textLength="101" x="422.5" y="664.8496">-requestedPrice</text></g><!--class RentRequest--><g id="elem_RentRequest"><rect codeLine="69" fill="#F1F1F1" height="73.8633" id="RentRequest" rx="2.5" ry="2.5" style="stroke:#181818;stroke-width:0.5;" width="122" x="565" y="607.6211"/><text fill="#000000" font-family="sans-serif" font-size="14" lengthAdjust="spacing" textLength="83" x="584.5" y="627.7285">RentRequest</text><line style="stroke:#181818;stroke-width:0.5;" x1="566" x2="686" y1="636.2422" y2="636.2422"/><text fill="#000000" font-family="sans-serif" font-size="14" lengthAdjust="spacing" textLength="84" x="571" y="655.3496">-monthlyRent</text><text fill="#000000" font-family="sans-serif" font-size="14" lengthAdjust="spacing" textLength="110" x="571" y="673.9707">-contractDuration</text></g><!--class Agent--><g id="elem_Agent"><rect codeLine="74" fill="#F1F1F1" height="36.6211" id="Agent" rx="2.5" ry="2.5" style="stroke:#181818;stroke-width:0.5;" width="43" x="178.5" y="301.1211"/><text fill="#000000" font-family="sans-serif" font-size="14" lengthAdjust="spacing" textLength="37" x="181.5" y="321.2285">Agent</text><line style="stroke:#181818;stroke-width:0.5;" x1="179.5" x2="220.5" y1="329.7422" y2="329.7422"/></g><!--class Employee--><g id="elem_Employee"><rect codeLine="83" fill="#F1F1F1" height="92.4844" id="Employee" rx="2.5" ry="2.5" style="stroke:#181818;stroke-width:0.5;" width="136" x="7" y="273.6211"/><text fill="#000000" font-family="sans-serif" font-size="14" lengthAdjust="spacing" textLength="62" x="44" y="293.7285">Employee</text><line style="stroke:#181818;stroke-width:0.5;" x1="8" x2="142" y1="302.2422" y2="302.2422"/><text fill="#000000" font-family="sans-serif" font-size="14" lengthAdjust="spacing" textLength="124" x="13" y="321.3496">-citizenCardNumber</text><text fill="#000000" font-family="sans-serif" font-size="14" lengthAdjust="spacing" textLength="72" x="13" y="339.9707">-taxNumber</text><text fill="#000000" font-family="sans-serif" font-size="14" lengthAdjust="spacing" textLength="94" x="13" y="358.5918">-phoneNumber</text></g><!--class Address--><g id="elem_Address"><rect codeLine="89" fill="#F1F1F1" height="129.7266" id="Address" rx="2.5" ry="2.5" style="stroke:#181818;stroke-width:0.5;" width="68" x="41" y="579.6211"/><text fill="#000000" font-family="sans-serif" font-size="14" lengthAdjust="spacing" textLength="52" x="49" y="599.7285">Address</text><line style="stroke:#181818;stroke-width:0.5;" x1="42" x2="108" y1="608.2422" y2="608.2422"/><text fill="#000000" font-family="sans-serif" font-size="14" lengthAdjust="spacing" textLength="41" x="47" y="627.3496">-street</text><text fill="#000000" font-family="sans-serif" font-size="14" lengthAdjust="spacing" textLength="26" x="47" y="645.9707">-city</text><text fill="#000000" font-family="sans-serif" font-size="14" lengthAdjust="spacing" textLength="46" x="47" y="664.5918">-district</text><text fill="#000000" font-family="sans-serif" font-size="14" lengthAdjust="spacing" textLength="36" x="47" y="683.2129">-state</text><text fill="#000000" font-family="sans-serif" font-size="14" lengthAdjust="spacing" textLength="56" x="47" y="701.834">-zipCode</text></g><!--reverse link RegisteredUser to Owner--><g id="link_RegisteredUser_Owner"><path codeLine="97" d="M156.4,120.6211 C162.37,120.6211 168.34,120.6211 174.3,120.6211 " fill="none" id="RegisteredUser-backto-Owner" style="stroke:#181818;stroke-width:1.0;"/><polygon fill="none" points="156.1,127.6211,136.1,120.6211,156.1,113.6211,156.1,127.6211" style="stroke:#181818;stroke-width:1.0;"/></g><!--reverse link RegisteredUser to Employee--><g id="link_RegisteredUser_Employee"><path codeLine="98" d="M79.74,214.8511 C78.81,235.2311 77.86,255.9211 77.07,273.4011 " fill="none" id="RegisteredUser-backto-Employee" style="stroke:#181818;stroke-width:1.0;"/><polygon fill="none" points="72.76,214.3611,80.66,194.7011,86.74,214.9911,72.76,214.3611" style="stroke:#181818;stroke-width:1.0;"/></g><!--reverse link Employee to Agent--><g id="link_Employee_Agent"><path codeLine="99" d="M163.57,319.6211 C168.49,319.6211 173.4,319.6211 178.32,319.6211 " fill="none" id="Employee-backto-Agent" style="stroke:#181818;stroke-width:1.0;"/><polygon fill="none" points="163.36,326.6211,143.36,319.6211,163.36,312.6211,163.36,326.6211" style="stroke:#181818;stroke-width:1.0;"/></g><!--link Owner to Agent--><g id="link_Owner_Agent"><path codeLine="100" d="M198.18,139.4511 C198.56,176.9611 199.44,263.6311 199.82,300.9711 " fill="none" id="Owner-Agent" style="stroke:#181818;stroke-width:1.0;"/><polygon fill="#000000" points="204.0508,239.2663,206.8977,230.1919,201.0202,230.2516,204.0508,239.2663" style="stroke:#000000;stroke-width:1.0;"/><text fill="#000000" font-family="sans-serif" font-size="13" lengthAdjust="spacing" textLength="49" x="213" y="239.6494">chooses</text><text fill="#000000" font-family="sans-serif" font-size="13" lengthAdjust="spacing" textLength="7" x="190.2878" y="160.9144">1</text><text fill="#000000" font-family="sans-serif" font-size="13" lengthAdjust="spacing" textLength="7" x="191.693" y="289.7873">1</text></g><!--link Agent to Announcement--><g id="link_Agent_Announcement"><path codeLine="101" d="M200,338.3511 C200,363.8211 200,411.3211 200,444.3911 " fill="none" id="Agent-Announcement" style="stroke:#181818;stroke-width:1.0;"/><polygon fill="#000000" points="205,410.2666,207.9389,401.2215,202.0611,401.2215,205,410.2666" style="stroke:#000000;stroke-width:1.0;"/><text fill="#000000" font-family="sans-serif" font-size="13" lengthAdjust="spacing" textLength="55" x="214" y="410.6494">publishes</text><text fill="#000000" font-family="sans-serif" font-size="13" lengthAdjust="spacing" textLength="7" x="192.0594" y="359.7875">1</text><text fill="#000000" font-family="sans-serif" font-size="13" lengthAdjust="spacing" textLength="20" x="178.2188" y="433.3119">0..*</text></g><!--reverse link Announcement to SaleRequest--><g id="link_Announcement_SaleRequest"><path codeLine="102" d="M276.19,514.1411 C314.34,531.3011 360.49,554.2111 399,579.6211 C415.45,590.4711 432.18,604.6311 445.57,616.8711 " fill="none" id="Announcement-backto-SaleRequest" style="stroke:#181818;stroke-width:1.0;"/><polygon fill="none" points="273.36,520.5411,257.89,506.0611,279.01,507.7311,273.36,520.5411" style="stroke:#181818;stroke-width:1.0;"/></g><!--reverse link Announcement to RentRequest--><g id="link_Announcement_RentRequest"><path codeLine="103" d="M277.51,494.9111 C350.13,508.5511 460.19,534.7811 547,579.6211 C561.27,586.9911 575.38,597.2111 587.64,607.3211 " fill="none" id="Announcement-backto-RentRequest" style="stroke:#181818;stroke-width:1.0;"/><polygon fill="none" points="276.05,501.7611,257.62,491.3111,278.54,487.9811,276.05,501.7611" style="stroke:#181818;stroke-width:1.0;"/></g><!--link Announcement to TypeOfBusiness--><g id="link_Announcement_TypeOfBusiness"><path codeLine="104" d="M199.78,518.7511 C199.57,552.1311 199.27,600.3011 199.11,625.9611 " fill="none" id="Announcement-TypeOfBusiness" style="stroke:#181818;stroke-width:1.0;"/></g><!--link TypeOfProperty to Land--><g id="link_TypeOfProperty_Land"><path codeLine="105" d="M439.7,844.1211 C451.44,844.1211 463.19,844.1211 474.94,844.1211 " fill="none" id="TypeOfProperty-Land" style="stroke:#181818;stroke-width:1.0;"/></g><!--link SaleRequest to Land--><g id="link_SaleRequest_Land"><path codeLine="106" d="M484.73,672.2611 C498.93,704.4711 523.04,759.2111 540.14,798.0511 " fill="none" id="SaleRequest-Land" style="stroke:#181818;stroke-width:1.0;"/><polygon fill="#000000" points="528.0156,753.8423,527.0589,744.38,521.6798,746.7495,528.0156,753.8423" style="stroke:#000000;stroke-width:1.0;"/><text fill="#000000" font-family="sans-serif" font-size="13" lengthAdjust="spacing" textLength="10" x="535" y="754.6494">of</text><text fill="#000000" font-family="sans-serif" font-size="13" lengthAdjust="spacing" textLength="7" x="479.5303" y="694.2004">1</text><text fill="#000000" font-family="sans-serif" font-size="13" lengthAdjust="spacing" textLength="7" x="529.563" y="786.7086">1</text></g><!--link RentRequest to Land--><g id="link_RentRequest_Land"><path codeLine="107" d="M613.89,681.8411 C602.95,714.5811 586.81,762.9011 575.04,798.1111 " fill="none" id="RentRequest-Land" style="stroke:#181818;stroke-width:1.0;"/><polygon fill="#000000" points="596.4154,754.0089,602.0694,746.3614,596.4945,744.4986,596.4154,754.0089" style="stroke:#000000;stroke-width:1.0;"/><text fill="#000000" font-family="sans-serif" font-size="13" lengthAdjust="spacing" textLength="10" x="607" y="754.6494">of</text><text fill="#000000" font-family="sans-serif" font-size="13" lengthAdjust="spacing" textLength="7" x="604.3046" y="703.4772">1</text><text fill="#000000" font-family="sans-serif" font-size="13" lengthAdjust="spacing" textLength="7" x="569.8071" y="786.7778">1</text></g><!--reverse link Land to Apartment--><g id="link_Land_Apartment"><path codeLine="108" d="M665.54,844.1211 C670.46,844.1211 675.38,844.1211 680.3,844.1211 " fill="none" id="Land-backto-Apartment" style="stroke:#181818;stroke-width:1.0;"/><polygon fill="none" points="665.31,851.1211,645.31,844.1211,665.31,837.1211,665.31,851.1211" style="stroke:#181818;stroke-width:1.0;"/></g><!--reverse link Apartment to House--><g id="link_Apartment_House"><path codeLine="109" d="M875.88,844.1211 C880.77,844.1211 885.66,844.1211 890.55,844.1211 " fill="none" id="Apartment-backto-House" style="stroke:#181818;stroke-width:1.0;"/><polygon fill="none" points="875.76,851.1211,855.76,844.1211,875.76,837.1211,875.76,851.1211" style="stroke:#181818;stroke-width:1.0;"/></g><!--link Announcement to Address--><g id="link_Announcement_Address"><path codeLine="110" d="M171.95,518.7511 C153.38,542.6711 128.9,574.1911 109.19,599.5811 " fill="none" id="Announcement-Address" style="stroke:#181818;stroke-width:1.0;"/><text fill="#000000" font-family="sans-serif" font-size="13" lengthAdjust="spacing" textLength="7" x="159.7245" y="540.3723">1</text><text fill="#000000" font-family="sans-serif" font-size="13" lengthAdjust="spacing" textLength="7" x="116.9636" y="585.625">1</text></g><!--link Employee to Address--><g id="link_Employee_Address"><path codeLine="111" d="M75,365.8711 C75,421.5211 75,516.3311 75,579.4711 " fill="none" id="Employee-Address" style="stroke:#181818;stroke-width:1.0;"/><text fill="#000000" font-family="sans-serif" font-size="13" lengthAdjust="spacing" textLength="7" x="67.4641" y="388.2682">1</text><text fill="#000000" font-family="sans-serif" font-size="13" lengthAdjust="spacing" textLength="7" x="67.6172" y="568.4748">1</text></g><!--SRC=[hLHDRzim3BthLmWz3aYHRZiLGu4kxR02tLeawmzW9COMQaik9Qzrj_xtKN9iAqQ6NPPBvCSFFJwIye_6Da1GozfPfqfoDSf0BGe_MXfGZr3W9dGLIa8Lm1PLxk1BqExPs4BkeF8eCfEgmFlB4CXisu0tojcDUKMv5A8q6gKof3XLEjSOIgUz4C44lkXXirn-b0jvvMemLdvp6YiXKZwvniBuW8JwmIF9NqBoRo4jrBW_8WTL-tF38S-Ej7WRuk-URGeRWHzTWtUxUt8DKkXwYtK1POMx8Drkvh1FhD4hCaqmpYOa_iuOhy3g4NZF0B0OeKORHlG3ewLhMIoqMiQh3gbyRhsno9yJ5J95cN4PFFx1nKE51rmeqfXVUccjQwt2o76KKxcwDjuF6Ld8TbiP1V6EA-3WKRvRBdWC0q8OI76NWDD-uR5QcT2jE3qDBMfA5rn1q9H-olGrQZAcmfVOPax0vOB7KS43ouqjOMi2R2kyTRl1mRVs-gLnlgMCv-NGXsbasdgBnEbHatErdyCGocFuFH2FUB7XrS311Zzvv2ABwwVMD8dhUF66kx36fnRzT3NrtwZloQYCv9eZvxwydA6iklKa06zI853XggNKaAp8eY_mxNzjotNTLAx3gItA15vYkmBItvCWUpp0oy4tTzZY7fdeQKtzOEyRnHE1OShSPRF3mepz377Y-lEhQLRy7CISize-_LxqottCCDGXne8YckGI_OjmSdOY5ulqrwjuBbNfd4SlBqIF32xBqzDt9uTxSzulY2zxzzmKRrhaKt3Cd3L-PcRZREbd3nQBafPGv8EMLPCMz3m-7XSYdw-_kAHp4cTykARLYNXQqqEIkNPzYoUTZzZ-0000]--></g></svg>