<?xml version="1.0" encoding="us-ascii" standalone="no"?><svg xmlns="http://www.w3.org/2000/svg" xmlns:xlink="http://www.w3.org/1999/xlink" contentStyleType="text/css" height="581.6px" preserveAspectRatio="none" style="width:499px;height:581px;background:#FFFFFF;" version="1.1" viewBox="0 0 499 581" width="499.2px" zoomAndPan="magnify"><defs/><g><text fill="#000000" font-family="sans-serif" font-size="11.2" font-weight="bold" lengthAdjust="spacing" textLength="227.2" x="135.4" y="24.0859">System Sequence Diagram (SSD) - US004</text><rect fill="#FFFFFF" height="401.325" style="stroke:#181818;stroke-width:0.8000000000000002;" width="8" x="18.8" y="106.5938"/><rect fill="#FFFFFF" height="25.0328" style="stroke:#181818;stroke-width:0.8000000000000002;" width="8" x="465.2" y="125.2266"/><rect fill="#FFFFFF" height="25.0328" style="stroke:#181818;stroke-width:0.8000000000000002;" width="8" x="465.2" y="175.2922"/><rect fill="#FFFFFF" height="25.0328" style="stroke:#181818;stroke-width:0.8000000000000002;" width="8" x="465.2" y="225.3578"/><rect fill="#FFFFFF" height="25.0328" style="stroke:#181818;stroke-width:0.8000000000000002;" width="8" x="465.2" y="275.4234"/><rect fill="#FFFFFF" height="25.0328" style="stroke:#181818;stroke-width:0.8000000000000002;" width="8" x="465.2" y="325.4891"/><rect fill="#FFFFFF" height="25.0328" style="stroke:#181818;stroke-width:0.8000000000000002;" width="8" x="465.2" y="375.5547"/><rect fill="#FFFFFF" height="25.0328" style="stroke:#181818;stroke-width:0.8000000000000002;" width="8" x="465.2" y="425.6203"/><rect fill="#FFFFFF" height="25.0328" style="stroke:#181818;stroke-width:0.8000000000000002;" width="8" x="465.2" y="475.6859"/><line style="stroke:#181818;stroke-width:0.4000000000000001;stroke-dasharray:5.0,5.0;" x1="22.4" x2="22.4" y1="98.5938" y2="515.1188"/><line style="stroke:#181818;stroke-width:0.4000000000000001;stroke-dasharray:5.0,5.0;" x1="469.2" x2="469.2" y1="98.5938" y2="515.1188"/><text fill="#000000" font-family="sans-serif" font-size="11.2" lengthAdjust="spacing" textLength="32.8" x="4" y="95.7828">Owner</text><ellipse cx="22.8" cy="42.4969" fill="#E3E3E3" rx="6.4" ry="6.4" style="stroke:#181818;stroke-width:0.4000000000000001;"/><path d="M22.8,48.8969 L22.8,70.4969 M12.4,55.2969 L33.2,55.2969 M22.8,70.4969 L12.4,82.4969 M22.8,70.4969 L33.2,82.4969 " fill="none" style="stroke:#181818;stroke-width:0.4000000000000001;"/><text fill="#000000" font-family="sans-serif" font-size="11.2" lengthAdjust="spacing" textLength="32.8" x="4" y="526.4047">Owner</text><ellipse cx="22.8" cy="536.0156" fill="#E3E3E3" rx="6.4" ry="6.4" style="stroke:#181818;stroke-width:0.4000000000000001;"/><path d="M22.8,542.4156 L22.8,564.0156 M12.4,548.8156 L33.2,548.8156 M22.8,564.0156 L12.4,576.0156 M22.8,564.0156 L33.2,576.0156 " fill="none" style="stroke:#181818;stroke-width:0.4000000000000001;"/><rect fill="#E3E3E3" height="26.0969" rx="2" ry="2" style="stroke:#181818;stroke-width:0.4000000000000001;" width="51.2" x="443.6" y="71.6969"/><text fill="#000000" font-family="sans-serif" font-size="11.2" lengthAdjust="spacing" textLength="40" x="449.2" y="89.3828">:System</text><rect fill="#E3E3E3" height="26.0969" rx="2" ry="2" style="stroke:#181818;stroke-width:0.4000000000000001;" width="51.2" x="443.6" y="514.3188"/><text fill="#000000" font-family="sans-serif" font-size="11.2" lengthAdjust="spacing" textLength="40" x="449.2" y="532.0047">:System</text><rect fill="#FFFFFF" height="401.325" style="stroke:#181818;stroke-width:0.8000000000000002;" width="8" x="18.8" y="106.5938"/><rect fill="#FFFFFF" height="25.0328" style="stroke:#181818;stroke-width:0.8000000000000002;" width="8" x="465.2" y="125.2266"/><rect fill="#FFFFFF" height="25.0328" style="stroke:#181818;stroke-width:0.8000000000000002;" width="8" x="465.2" y="175.2922"/><rect fill="#FFFFFF" height="25.0328" style="stroke:#181818;stroke-width:0.8000000000000002;" width="8" x="465.2" y="225.3578"/><rect fill="#FFFFFF" height="25.0328" style="stroke:#181818;stroke-width:0.8000000000000002;" width="8" x="465.2" y="275.4234"/><rect fill="#FFFFFF" height="25.0328" style="stroke:#181818;stroke-width:0.8000000000000002;" width="8" x="465.2" y="325.4891"/><rect fill="#FFFFFF" height="25.0328" style="stroke:#181818;stroke-width:0.8000000000000002;" width="8" x="465.2" y="375.5547"/><rect fill="#FFFFFF" height="25.0328" style="stroke:#181818;stroke-width:0.8000000000000002;" width="8" x="465.2" y="425.6203"/><rect fill="#FFFFFF" height="25.0328" style="stroke:#181818;stroke-width:0.8000000000000002;" width="8" x="465.2" y="475.6859"/><polygon fill="#181818" points="455.6,122.0266,463.6,125.2266,455.6,128.4266,458.8,125.2266" style="stroke:#181818;stroke-width:0.8000000000000002;"/><line style="stroke:#181818;stroke-width:0.8000000000000002;" x1="26.8" x2="460.4" y1="125.2266" y2="125.2266"/><text fill="#000000" font-family="sans-serif" font-size="10.4" font-weight="bold" lengthAdjust="spacing" textLength="5.6" x="32.4" y="121.0164">1</text><text fill="#000000" font-family="sans-serif" font-size="10.4" lengthAdjust="spacing" textLength="209.6" x="41.2" y="121.0164">asks to submit a request for listing a property</text><polygon fill="#181818" points="35.6,147.0594,27.6,150.2594,35.6,153.4594,32.4,150.2594" style="stroke:#181818;stroke-width:0.8000000000000002;"/><line style="stroke:#181818;stroke-width:0.8000000000000002;stroke-dasharray:2.0,2.0;" x1="30.8" x2="468.4" y1="150.2594" y2="150.2594"/><text fill="#000000" font-family="sans-serif" font-size="10.4" font-weight="bold" lengthAdjust="spacing" textLength="5.6" x="40.4" y="146.0492">2</text><text fill="#000000" font-family="sans-serif" font-size="10.4" lengthAdjust="spacing" textLength="233.6" x="49.2" y="146.0492">shows announcement  category list (sale or rental)</text><polygon fill="#181818" points="455.6,172.0922,463.6,175.2922,455.6,178.4922,458.8,175.2922" style="stroke:#181818;stroke-width:0.8000000000000002;"/><line style="stroke:#181818;stroke-width:0.8000000000000002;" x1="26.8" x2="460.4" y1="175.2922" y2="175.2922"/><text fill="#000000" font-family="sans-serif" font-size="10.4" font-weight="bold" lengthAdjust="spacing" textLength="5.6" x="32.4" y="171.082">3</text><text fill="#000000" font-family="sans-serif" font-size="10.4" lengthAdjust="spacing" textLength="96.8" x="41.2" y="171.082">selects sale or rental</text><polygon fill="#181818" points="35.6,197.125,27.6,200.325,35.6,203.525,32.4,200.325" style="stroke:#181818;stroke-width:0.8000000000000002;"/><line style="stroke:#181818;stroke-width:0.8000000000000002;stroke-dasharray:2.0,2.0;" x1="30.8" x2="468.4" y1="200.325" y2="200.325"/><text fill="#000000" font-family="sans-serif" font-size="10.4" font-weight="bold" lengthAdjust="spacing" textLength="5.6" x="40.4" y="196.1148">4</text><text fill="#000000" font-family="sans-serif" font-size="10.4" lengthAdjust="spacing" textLength="255.2" x="49.2" y="196.1148">shows property category list (apartment, house or land)</text><polygon fill="#181818" points="455.6,222.1578,463.6,225.3578,455.6,228.5578,458.8,225.3578" style="stroke:#181818;stroke-width:0.8000000000000002;"/><line style="stroke:#181818;stroke-width:0.8000000000000002;" x1="26.8" x2="460.4" y1="225.3578" y2="225.3578"/><text fill="#000000" font-family="sans-serif" font-size="10.4" font-weight="bold" lengthAdjust="spacing" textLength="5.6" x="32.4" y="221.1477">5</text><text fill="#000000" font-family="sans-serif" font-size="10.4" lengthAdjust="spacing" textLength="85.6" x="41.2" y="221.1477">selects a category</text><polygon fill="#181818" points="35.6,247.1906,27.6,250.3906,35.6,253.5906,32.4,250.3906" style="stroke:#181818;stroke-width:0.8000000000000002;"/><line style="stroke:#181818;stroke-width:0.8000000000000002;stroke-dasharray:2.0,2.0;" x1="30.8" x2="468.4" y1="250.3906" y2="250.3906"/><text fill="#000000" font-family="sans-serif" font-size="10.4" font-weight="bold" lengthAdjust="spacing" textLength="5.6" x="40.4" y="246.1805">6</text><text fill="#000000" font-family="sans-serif" font-size="10.4" lengthAdjust="spacing" textLength="127.2" x="49.2" y="246.1805">shows number of rooms list</text><polygon fill="#181818" points="455.6,272.2234,463.6,275.4234,455.6,278.6234,458.8,275.4234" style="stroke:#181818;stroke-width:0.8000000000000002;"/><line style="stroke:#181818;stroke-width:0.8000000000000002;" x1="26.8" x2="460.4" y1="275.4234" y2="275.4234"/><text fill="#000000" font-family="sans-serif" font-size="10.4" font-weight="bold" lengthAdjust="spacing" textLength="5.6" x="32.4" y="271.2133">7</text><text fill="#000000" font-family="sans-serif" font-size="10.4" lengthAdjust="spacing" textLength="114.4" x="41.2" y="271.2133">selects number of rooms</text><polygon fill="#181818" points="35.6,297.2563,27.6,300.4563,35.6,303.6563,32.4,300.4563" style="stroke:#181818;stroke-width:0.8000000000000002;"/><line style="stroke:#181818;stroke-width:0.8000000000000002;stroke-dasharray:2.0,2.0;" x1="30.8" x2="468.4" y1="300.4563" y2="300.4563"/><text fill="#000000" font-family="sans-serif" font-size="10.4" font-weight="bold" lengthAdjust="spacing" textLength="5.6" x="40.4" y="296.2461">8</text><text fill="#000000" font-family="sans-serif" font-size="10.4" lengthAdjust="spacing" textLength="93.6" x="49.2" y="296.2461">requests information</text><polygon fill="#181818" points="455.6,322.2891,463.6,325.4891,455.6,328.6891,458.8,325.4891" style="stroke:#181818;stroke-width:0.8000000000000002;"/><line style="stroke:#181818;stroke-width:0.8000000000000002;" x1="26.8" x2="460.4" y1="325.4891" y2="325.4891"/><text fill="#000000" font-family="sans-serif" font-size="10.4" font-weight="bold" lengthAdjust="spacing" textLength="5.6" x="32.4" y="321.2789">9</text><text fill="#000000" font-family="sans-serif" font-size="10.4" lengthAdjust="spacing" textLength="414.4" x="41.2" y="321.2789">introduces requested information (property charactheristics, requested price, commission)</text><polygon fill="#181818" points="35.6,347.3219,27.6,350.5219,35.6,353.7219,32.4,350.5219" style="stroke:#181818;stroke-width:0.8000000000000002;"/><line style="stroke:#181818;stroke-width:0.8000000000000002;stroke-dasharray:2.0,2.0;" x1="30.8" x2="468.4" y1="350.5219" y2="350.5219"/><text fill="#000000" font-family="sans-serif" font-size="10.4" font-weight="bold" lengthAdjust="spacing" textLength="11.2" x="40.4" y="346.3117">10</text><text fill="#000000" font-family="sans-serif" font-size="10.4" lengthAdjust="spacing" textLength="116" x="54.8" y="346.3117">shows list of all agencies</text><polygon fill="#181818" points="455.6,372.3547,463.6,375.5547,455.6,378.7547,458.8,375.5547" style="stroke:#181818;stroke-width:0.8000000000000002;"/><line style="stroke:#181818;stroke-width:0.8000000000000002;" x1="26.8" x2="460.4" y1="375.5547" y2="375.5547"/><text fill="#000000" font-family="sans-serif" font-size="10.4" font-weight="bold" lengthAdjust="spacing" textLength="11.2" x="32.4" y="371.3445">11</text><text fill="#000000" font-family="sans-serif" font-size="10.4" lengthAdjust="spacing" textLength="148" x="46.8" y="371.3445">chooses an agency from the list</text><polygon fill="#181818" points="35.6,397.3875,27.6,400.5875,35.6,403.7875,32.4,400.5875" style="stroke:#181818;stroke-width:0.8000000000000002;"/><line style="stroke:#181818;stroke-width:0.8000000000000002;stroke-dasharray:2.0,2.0;" x1="30.8" x2="468.4" y1="400.5875" y2="400.5875"/><text fill="#000000" font-family="sans-serif" font-size="10.4" font-weight="bold" lengthAdjust="spacing" textLength="11.2" x="40.4" y="396.3773">12</text><text fill="#000000" font-family="sans-serif" font-size="10.4" lengthAdjust="spacing" textLength="291.2" x="54.8" y="396.3773">shows list of agents available that work on the selected agency</text><polygon fill="#181818" points="455.6,422.4203,463.6,425.6203,455.6,428.8203,458.8,425.6203" style="stroke:#181818;stroke-width:0.8000000000000002;"/><line style="stroke:#181818;stroke-width:0.8000000000000002;" x1="26.8" x2="460.4" y1="425.6203" y2="425.6203"/><text fill="#000000" font-family="sans-serif" font-size="10.4" font-weight="bold" lengthAdjust="spacing" textLength="11.2" x="32.4" y="421.4102">13</text><text fill="#000000" font-family="sans-serif" font-size="10.4" lengthAdjust="spacing" textLength="140" x="46.8" y="421.4102">chooses an agent from the list</text><polygon fill="#181818" points="35.6,447.4531,27.6,450.6531,35.6,453.8531,32.4,450.6531" style="stroke:#181818;stroke-width:0.8000000000000002;"/><line style="stroke:#181818;stroke-width:0.8000000000000002;stroke-dasharray:2.0,2.0;" x1="30.8" x2="468.4" y1="450.6531" y2="450.6531"/><text fill="#000000" font-family="sans-serif" font-size="10.4" font-weight="bold" lengthAdjust="spacing" textLength="11.2" x="40.4" y="446.443">14</text><text fill="#000000" font-family="sans-serif" font-size="10.4" lengthAdjust="spacing" textLength="204.8" x="54.8" y="446.443">shows all information and agent confirmation</text><polygon fill="#181818" points="455.6,472.4859,463.6,475.6859,455.6,478.8859,458.8,475.6859" style="stroke:#181818;stroke-width:0.8000000000000002;"/><line style="stroke:#181818;stroke-width:0.8000000000000002;" x1="26.8" x2="460.4" y1="475.6859" y2="475.6859"/><text fill="#000000" font-family="sans-serif" font-size="10.4" font-weight="bold" lengthAdjust="spacing" textLength="11.2" x="32.4" y="471.4758">15</text><text fill="#000000" font-family="sans-serif" font-size="10.4" lengthAdjust="spacing" textLength="39.2" x="46.8" y="471.4758">confirms</text><polygon fill="#181818" points="35.6,497.5188,27.6,500.7188,35.6,503.9188,32.4,500.7188" style="stroke:#181818;stroke-width:0.8000000000000002;"/><line style="stroke:#181818;stroke-width:0.8000000000000002;stroke-dasharray:2.0,2.0;" x1="30.8" x2="468.4" y1="500.7188" y2="500.7188"/><text fill="#000000" font-family="sans-serif" font-size="10.4" font-weight="bold" lengthAdjust="spacing" textLength="11.2" x="40.4" y="496.5086">16</text><text fill="#000000" font-family="sans-serif" font-size="10.4" lengthAdjust="spacing" textLength="124.8" x="54.8" y="496.5086">informs operatrion success</text><!--SRC=[hLInZjim3Dtz5KIc14Y06pfbw7Hx1wCVmCYqBSGINP6-m7zVodPowRLNm6ur2P3utkFZa-JgOuy90mIExDh4WK3JG8KyJdfqLsoerB4ZIEGKOzCzNv0MAxxvs42DdL21Wt8SmeLIKQXNgof7KGfGqe-1eYDuzTZaodrPlXxW1D_BbvSl1Jhb1BjljqXf1oWmxGeZKUzyZr5XTvwXfkDvM-Gw_uPAo_q2R4rRE7szKv-ju2gW339SWbT0QyNKY49jf9qNpGqWz8bxIZfEA0_aEnKiQq4z6S7CT3ON-2Q0CV9WBGOojU2ijk4qJlYm5pGlZ2tP8NQ72QsYFvByhb-eC-y5VWNvgynFLTwR_2WGizTP-X5Q7cJYwJ1M6wNY0t-ZctEAW6j8p44cbTkaV41QQzkI5G4VBIu1rNDS9yH7JLmDZkGEHjKp6kpVXzBQitBQKigfT79ygkYJTtG4no5u4QixRBHs6hZPWLq7zhgZyoJhEd8jir2E_0mmGctV1vZkzpcjJkP3bY7c1BsXx_1YYTSM5MwShc1UPOvvicR9JFvFslL_ICzEFW_Ktiq2xZZMVbDgbihLUPrr2EH4eQOiHmPduVjqniLF]--></g></svg>