<?xml version="1.0" encoding="us-ascii" standalone="no"?><svg xmlns="http://www.w3.org/2000/svg" xmlns:xlink="http://www.w3.org/1999/xlink" contentStyleType="text/css" height="248px" preserveAspectRatio="none" style="width:966px;height:248px;background:#FFFFFF;" version="1.1" viewBox="0 0 966 248" width="966.4px" zoomAndPan="magnify"><defs/><g><text fill="#000000" font-family="sans-serif" font-size="11.2" font-weight="bold" lengthAdjust="spacing" textLength="124.8" x="415.2" y="20.0859">US002 - Domain Model</text><!--class Agent--><g id="elem_Agent"><rect codeLine="14" fill="#F1F1F1" height="29.2969" id="Agent" rx="2" ry="2" style="stroke:#181818;stroke-width:0.4000000000000001;" width="34.4" x="26" y="108.0969"/><text fill="#000000" font-family="sans-serif" font-size="11.2" lengthAdjust="spacing" textLength="29.6" x="28.4" y="124.1828">Agent</text><line style="stroke:#181818;stroke-width:0.4000000000000001;" x1="26.8" x2="59.6" y1="130.9938" y2="130.9938"/></g><!--class Announcement--><g id="elem_Announcement"><rect codeLine="17" fill="#F1F1F1" height="103.7813" id="Announcement" rx="2" ry="2" style="stroke:#181818;stroke-width:0.4000000000000001;" width="92" x="181.6" y="70.8969"/><text fill="#000000" font-family="sans-serif" font-size="11.2" lengthAdjust="spacing" textLength="76" x="189.6" y="86.9828">Announcement</text><line style="stroke:#181818;stroke-width:0.4000000000000001;" x1="182.4" x2="272.8" y1="93.7938" y2="93.7938"/><text fill="#000000" font-family="sans-serif" font-size="11.2" lengthAdjust="spacing" textLength="62.4" x="186.4" y="109.0797">-commission</text><text fill="#000000" font-family="sans-serif" font-size="11.2" lengthAdjust="spacing" textLength="82.4" x="186.4" y="123.9766">-publicationDate</text><text fill="#000000" font-family="sans-serif" font-size="11.2" lengthAdjust="spacing" textLength="62.4" x="186.4" y="138.8734">-description:</text><text fill="#000000" font-family="sans-serif" font-size="11.2" lengthAdjust="spacing" textLength="37.6" x="186.4" y="153.7703">1 - sale</text><text fill="#000000" font-family="sans-serif" font-size="11.2" lengthAdjust="spacing" textLength="36.8" x="186.4" y="168.6672">2 - rent</text></g><!--class Address--><g id="elem_Address"><rect codeLine="25" fill="#F1F1F1" height="103.7813" id="Address" rx="2" ry="2" style="stroke:#181818;stroke-width:0.4000000000000001;" width="54.4" x="340.4" y="37.2969"/><text fill="#000000" font-family="sans-serif" font-size="11.2" lengthAdjust="spacing" textLength="41.6" x="346.8" y="53.3828">Address</text><line style="stroke:#181818;stroke-width:0.4000000000000001;" x1="341.2" x2="394" y1="60.1938" y2="60.1938"/><text fill="#000000" font-family="sans-serif" font-size="11.2" lengthAdjust="spacing" textLength="32.8" x="345.2" y="75.4797">-street</text><text fill="#000000" font-family="sans-serif" font-size="11.2" lengthAdjust="spacing" textLength="20.8" x="345.2" y="90.3766">-city</text><text fill="#000000" font-family="sans-serif" font-size="11.2" lengthAdjust="spacing" textLength="36.8" x="345.2" y="105.2734">-district</text><text fill="#000000" font-family="sans-serif" font-size="11.2" lengthAdjust="spacing" textLength="28.8" x="345.2" y="120.1703">-state</text><text fill="#000000" font-family="sans-serif" font-size="11.2" lengthAdjust="spacing" textLength="44.8" x="345.2" y="135.0672">-zipCode</text></g><!--class SaleRequest--><g id="elem_SaleRequest"><rect codeLine="33" fill="#F1F1F1" height="44.1938" id="SaleRequest" rx="2" ry="2" style="stroke:#181818;stroke-width:0.4000000000000001;" width="90.4" x="322.4" y="169.6969"/><text fill="#000000" font-family="sans-serif" font-size="11.2" lengthAdjust="spacing" textLength="64.8" x="335.2" y="185.7828">SaleRequest</text><line style="stroke:#181818;stroke-width:0.4000000000000001;" x1="323.2" x2="412" y1="192.5938" y2="192.5938"/><text fill="#000000" font-family="sans-serif" font-size="11.2" lengthAdjust="spacing" textLength="80.8" x="327.2" y="207.8797">-requestedPrice</text></g><!--class TypeOfBusiness--><g id="elem_TypeOfBusiness"><rect codeLine="37" fill="#F1F1F1" height="29.2969" id="TypeOfBusiness" rx="2" ry="2" style="stroke:#181818;stroke-width:0.4000000000000001;" width="88" x="183.6" y="203.2969"/><text fill="#000000" font-family="sans-serif" font-size="11.2" lengthAdjust="spacing" textLength="83.2" x="186" y="219.3828">TypeOfBusiness</text><line style="stroke:#181818;stroke-width:0.4000000000000001;" x1="184.4" x2="270.8" y1="226.1938" y2="226.1938"/></g><!--class TypeOfProperty--><g id="elem_TypeOfProperty"><rect codeLine="40" fill="#F1F1F1" height="88.8844" id="TypeOfProperty" rx="2" ry="2" style="stroke:#181818;stroke-width:0.4000000000000001;" width="85.6" x="506" y="37.6969"/><text fill="#000000" font-family="sans-serif" font-size="11.2" lengthAdjust="spacing" textLength="80.8" x="508.4" y="53.7828">TypeOfProperty</text><line style="stroke:#181818;stroke-width:0.4000000000000001;" x1="506.8" x2="590.8" y1="60.5938" y2="60.5938"/><text fill="#000000" font-family="sans-serif" font-size="11.2" lengthAdjust="spacing" textLength="62.4" x="510.8" y="75.8797">-description:</text><text fill="#000000" font-family="sans-serif" font-size="11.2" lengthAdjust="spacing" textLength="42.4" x="510.8" y="90.7766">1 - Land</text><text fill="#000000" font-family="sans-serif" font-size="11.2" lengthAdjust="spacing" textLength="68.8" x="510.8" y="105.6734">2 - Apartment</text><text fill="#000000" font-family="sans-serif" font-size="11.2" lengthAdjust="spacing" textLength="48.8" x="510.8" y="120.5703">3 - House</text></g><!--class Land--><g id="elem_Land"><rect codeLine="47" fill="#F1F1F1" height="73.9875" id="Land" rx="2" ry="2" style="stroke:#181818;stroke-width:0.4000000000000001;" width="136" x="480.8" y="154.8969"/><text fill="#000000" font-family="sans-serif" font-size="11.2" lengthAdjust="spacing" textLength="25.6" x="536" y="170.9828">Land</text><line style="stroke:#181818;stroke-width:0.4000000000000001;" x1="481.6" x2="616" y1="177.7938" y2="177.7938"/><text fill="#000000" font-family="sans-serif" font-size="11.2" lengthAdjust="spacing" textLength="27.2" x="485.6" y="193.0797">-area</text><text fill="#000000" font-family="sans-serif" font-size="11.2" lengthAdjust="spacing" textLength="126.4" x="485.6" y="207.9766">-distanceFromCityCentre</text><text fill="#000000" font-family="sans-serif" font-size="11.2" lengthAdjust="spacing" textLength="68" x="485.6" y="222.8734">-photographs</text></g><!--class House--><g id="elem_House"><rect codeLine="53" fill="#F1F1F1" height="73.9875" id="House" rx="2" ry="2" style="stroke:#181818;stroke-width:0.4000000000000001;" width="106.4" x="854.4" y="154.8969"/><text fill="#000000" font-family="sans-serif" font-size="11.2" lengthAdjust="spacing" textLength="32" x="891.6" y="170.9828">House</text><line style="stroke:#181818;stroke-width:0.4000000000000001;" x1="855.2" x2="960" y1="177.7938" y2="177.7938"/><text fill="#000000" font-family="sans-serif" font-size="11.2" lengthAdjust="spacing" textLength="72.8" x="859.2" y="193.0797">-hasBasement</text><text fill="#000000" font-family="sans-serif" font-size="11.2" lengthAdjust="spacing" textLength="96.8" x="859.2" y="207.9766">-hasInhabitableLoft</text><text fill="#000000" font-family="sans-serif" font-size="11.2" lengthAdjust="spacing" textLength="69.6" x="859.2" y="222.8734">-sunExposure</text></g><!--class Apartment--><g id="elem_Apartment"><rect codeLine="59" fill="#F1F1F1" height="88.8844" id="Apartment" rx="2" ry="2" style="stroke:#181818;stroke-width:0.4000000000000001;" width="140" x="665.6" y="147.2969"/><text fill="#000000" font-family="sans-serif" font-size="11.2" lengthAdjust="spacing" textLength="52" x="709.6" y="163.3828">Apartment</text><line style="stroke:#181818;stroke-width:0.4000000000000001;" x1="666.4" x2="804.8" y1="170.1938" y2="170.1938"/><text fill="#000000" font-family="sans-serif" font-size="11.2" lengthAdjust="spacing" textLength="105.6" x="670.4" y="185.4797">-numberOfBedrooms</text><text fill="#000000" font-family="sans-serif" font-size="11.2" lengthAdjust="spacing" textLength="108.8" x="670.4" y="200.3766">-numberOfBathrooms</text><text fill="#000000" font-family="sans-serif" font-size="11.2" lengthAdjust="spacing" textLength="130.4" x="670.4" y="215.2734">-numberOfParkingSpaces</text><text fill="#000000" font-family="sans-serif" font-size="11.2" lengthAdjust="spacing" textLength="102.4" x="670.4" y="230.1703">-availableEquipment</text></g><g id="elem_GMN11"><path d="M4.8,193.2969 L4.8,242.7953 A0,0 0 0 0 4.8,242.7953 L81.6,242.7953 A0,0 0 0 0 81.6,242.7953 L81.6,221.2969 L183.416,218.0969 L81.6,214.8969 L81.6,201.2969 L73.6,193.2969 L4.8,193.2969 A0,0 0 0 0 4.8,193.2969 " fill="#FAFAFA" style="stroke:#181818;stroke-width:0.4000000000000001;"/><path d="M73.6,193.2969 L73.6,201.2969 L81.6,201.2969 L73.6,193.2969 " fill="#FAFAFA" style="stroke:#181818;stroke-width:0.4000000000000001;"/><text fill="#000000" font-family="sans-serif" font-size="10.4" lengthAdjust="spacing" textLength="60" x="9.6" y="208.5195">- description:</text><text fill="#000000" font-family="sans-serif" font-size="10.4" lengthAdjust="spacing" textLength="34.4" x="22.4" y="222.3523">1 - sale</text><text fill="#000000" font-family="sans-serif" font-size="10.4" lengthAdjust="spacing" textLength="32.8" x="22.4" y="236.1852">2 - rent</text></g><g id="elem_GMN14"><path d="M690,50.4969 L690,78.8969 L591.624,82.0969 L690,85.2969 L690,113.8281 A0,0 0 0 0 690,113.8281 L781.2,113.8281 A0,0 0 0 0 781.2,113.8281 L781.2,58.4969 L773.2,50.4969 L690,50.4969 A0,0 0 0 0 690,50.4969 " fill="#FAFAFA" style="stroke:#181818;stroke-width:0.4000000000000001;"/><path d="M773.2,50.4969 L773.2,58.4969 L781.2,58.4969 L773.2,50.4969 " fill="#FAFAFA" style="stroke:#181818;stroke-width:0.4000000000000001;"/><text fill="#000000" font-family="sans-serif" font-size="10.4" lengthAdjust="spacing" textLength="60" x="694.8" y="65.7195">- description:</text><text fill="#000000" font-family="sans-serif" font-size="10.4" lengthAdjust="spacing" textLength="34.4" x="707.6" y="79.5523">1 - land</text><text fill="#000000" font-family="sans-serif" font-size="10.4" lengthAdjust="spacing" textLength="61.6" x="707.6" y="93.3852">2 - apartment</text><text fill="#000000" font-family="sans-serif" font-size="10.4" lengthAdjust="spacing" textLength="43.2" x="707.6" y="107.218">3 - house</text></g><!--link Agent to Announcement--><g id="link_Agent_Announcement"><path codeLine="79" d="M60.544,122.8969 C87.616,122.8969 142.28,122.8969 181.544,122.8969 " fill="none" id="Agent-Announcement" style="stroke:#181818;stroke-width:0.8000000000000002;"/><polygon fill="#000000" points="113.6,115.4133,106.3639,113.0621,106.3639,117.7644,113.6,115.4133" style="stroke:#000000;stroke-width:0.8000000000000002;"/><text fill="#000000" font-family="sans-serif" font-size="10.4" lengthAdjust="spacing" textLength="40" x="116.8" y="119.7195">registers</text><text fill="#000000" font-family="sans-serif" font-size="10.4" lengthAdjust="spacing" textLength="5.6" x="66.7131" y="136.2841">1</text><text fill="#000000" font-family="sans-serif" font-size="10.4" lengthAdjust="spacing" textLength="16" x="159.2938" y="134.9319">0..*</text></g><!--reverse link Announcement to SaleRequest--><g id="link_Announcement_SaleRequest"><path codeLine="80" d="M288.392,152.7209 C299.784,158.3849 311.52,164.2169 322.328,169.5849 " fill="none" id="Announcement-backto-SaleRequest" style="stroke:#181818;stroke-width:0.8000000000000002;"/><polygon fill="none" points="285.552,157.5609,273.72,145.4249,290.536,147.5289,285.552,157.5609" style="stroke:#181818;stroke-width:0.8000000000000002;"/></g><!--link SaleRequest to Land--><g id="link_SaleRequest_Land"><path codeLine="81" d="M413.024,191.6969 C433.392,191.6969 457.944,191.6969 480.488,191.6969 " fill="none" id="SaleRequest-Land" style="stroke:#181818;stroke-width:0.8000000000000002;"/><polygon fill="#000000" points="444.8,184.2133,437.5639,181.8621,437.5639,186.5644,444.8,184.2133" style="stroke:#000000;stroke-width:0.8000000000000002;"/><text fill="#000000" font-family="sans-serif" font-size="10.4" lengthAdjust="spacing" textLength="8" x="448" y="188.5195">of</text><text fill="#000000" font-family="sans-serif" font-size="10.4" lengthAdjust="spacing" textLength="5.6" x="419.2027" y="203.7933">1</text><text fill="#000000" font-family="sans-serif" font-size="10.4" lengthAdjust="spacing" textLength="5.6" x="468.7768" y="203.4973">1</text></g><!--link TypeOfProperty to Land--><g id="link_TypeOfProperty_Land"><path codeLine="82" d="M548.8,126.7289 C548.8,136.1129 548.8,145.4969 548.8,154.8809 " fill="none" id="TypeOfProperty-Land" style="stroke:#181818;stroke-width:0.8000000000000002;"/></g><!--reverse link Land to Apartment--><g id="link_Land_Apartment"><path codeLine="83" d="M633.216,191.6969 C644.048,191.6969 655.04,191.6969 665.6,191.6969 " fill="none" id="Land-backto-Apartment" style="stroke:#181818;stroke-width:0.8000000000000002;"/><polygon fill="none" points="632.984,197.2969,616.984,191.6969,632.984,186.0969,632.984,197.2969" style="stroke:#181818;stroke-width:0.8000000000000002;"/></g><!--reverse link Apartment to House--><g id="link_Apartment_House"><path codeLine="84" d="M821.84,191.6969 C832.912,191.6969 843.976,191.6969 854.28,191.6969 " fill="none" id="Apartment-backto-House" style="stroke:#181818;stroke-width:0.8000000000000002;"/><polygon fill="none" points="821.712,197.2969,805.712,191.6969,821.712,186.0969,821.712,197.2969" style="stroke:#181818;stroke-width:0.8000000000000002;"/></g><!--link Announcement to Address--><g id="link_Announcement_Address"><path codeLine="85" d="M273.72,111.8969 C295.792,106.5369 321.56,100.2809 340.384,95.7129 " fill="none" id="Announcement-Address" style="stroke:#181818;stroke-width:0.8000000000000002;"/></g><!--link Announcement to TypeOfBusiness--><g id="link_Announcement_TypeOfBusiness"><path codeLine="86" d="M227.6,174.9849 C227.6,184.3929 227.6,193.8089 227.6,203.2249 " fill="none" id="Announcement-TypeOfBusiness" style="stroke:#181818;stroke-width:0.8000000000000002;"/></g><!--SRC=[VLFRRjGm47ttLrZxY9Hg2syhL6cxBQ9I4IiMFc3MdYHM4pkr9y2syE-CdSsLXRmaFiwSCvSpuSdO1ZpKidRMgTAx6YNv5aKORXfGJr3WWKuLIe-Am1RLz8TGWdO_Z2ra3bL08IhCIPAJtXGbIMrYa75MJ69K1I5iYRmvjeGFojc3UK6v5g8q6gKoNh56-gwHIgU346I8C_XsMA_VoapUkHgCbP-Snag8n2Ut1LgIh-Bt05ZhMgkmxd39JoQLgsiJGioe0vhsM1a5CSSx83oZ6eFofede9a7nkUQB01KEG4p5C_j4KskF_7uLMI2FI29JXauYquRFHb74eqpsOfeTfp-67fZv2pwt6CPiVNT6lUVOoRzVJmr-pc_RO6odjhZPUzUWfzD0TB6ULD0ZM3qYiQ8jJubYqqRu7SCVNHicASIuWHuyGg_4XG9t_GFRQSUbxvZ8zsrjIaUkyD2KOMHAn0DL2U4M0Wxw2Ncm9HmDmR72HvVt5w6rzpyR5re_oMl8Vc2qRNr4p-r2xPshmn86AY_XU_3isEB0Au3z7Nm7KyKixfzRqzJdqKlh26KoliiNinbw-AyPNFBLp5lnWDphA2BIASbr-pNezHEVSVn7izUjPkEVQCFVBfYOeKncw94nlMu9LzShcMLojRwwUhEQxU66QohO8UY3l16p3Nt_YqCcIo2c2z4pyYiQRnCBln4Biv_Dd9oPs4OdZwv85vsNP_Bnzsvv5_XoeE8F]--></g></svg>