<?xml version="1.0" encoding="us-ascii" standalone="no"?><svg xmlns="http://www.w3.org/2000/svg" xmlns:xlink="http://www.w3.org/1999/xlink" contentStyleType="text/css" height="747px" preserveAspectRatio="none" style="width:2271px;height:747px;background:#FFFFFF;" version="1.1" viewBox="0 0 2271 747" width="2271px" zoomAndPan="magnify"><defs/><g><!--class RegisterEmployeeUI--><g id="elem_RegisterEmployeeUI"><rect codeLine="9" fill="#F1F1F1" height="141.1055" id="RegisterEmployeeUI" rx="2.5" ry="2.5" style="stroke:#181818;stroke-width:0.5;" width="217" x="7" y="495.5"/><ellipse cx="48.1" cy="511.5" fill="#ADD1B2" rx="11" ry="11" style="stroke:#181818;stroke-width:1.0;"/><path d="M50.8656,507.375 Q51.0219,507.1563 51.2094,507.0469 Q51.3969,506.9375 51.6156,506.9375 Q51.9906,506.9375 52.225,507.2031 Q52.4594,507.4531 52.4594,508.0625 L52.4594,509.5156 Q52.4594,510.125 52.225,510.3906 Q51.9906,510.6563 51.6156,510.6563 Q51.2719,510.6563 51.0688,510.4531 Q50.8656,510.2656 50.7563,509.75 Q50.7094,509.3906 50.5219,509.2031 Q50.1938,508.8281 49.5844,508.6094 Q48.975,508.3906 48.35,508.3906 Q47.5844,508.3906 46.9438,508.7188 Q46.3188,509.0469 45.8188,509.7969 Q45.3344,510.5469 45.3344,511.5781 L45.3344,512.6719 Q45.3344,513.9063 46.225,514.7344 Q47.1156,515.5469 48.7094,515.5469 Q49.6469,515.5469 50.3031,515.2969 Q50.6938,515.1406 51.1156,514.7031 Q51.3813,514.4375 51.5219,514.3594 Q51.6781,514.2813 51.8813,514.2813 Q52.2094,514.2813 52.4594,514.5469 Q52.725,514.7969 52.725,515.1406 Q52.725,515.4844 52.3813,515.8906 Q51.8813,516.4688 51.0844,516.7969 Q50.0063,517.25 48.7094,517.25 Q47.1938,517.25 45.9906,516.625 Q45.0063,516.125 44.3188,515.0625 Q43.6313,513.9844 43.6313,512.7031 L43.6313,511.5469 Q43.6313,510.2188 44.2406,509.0781 Q44.8656,507.9219 45.9594,507.3125 Q47.0531,506.6875 48.2875,506.6875 Q49.0219,506.6875 49.6625,506.8594 Q50.3188,507.0156 50.8656,507.375 Z " fill="#000000"/><text fill="#000000" font-family="sans-serif" font-size="14" lengthAdjust="spacing" textLength="127" x="67.9" y="517.2969">RegisterEmployeeUI</text><line style="stroke:#181818;stroke-width:0.5;" x1="8" x2="223" y1="527.5" y2="527.5"/><text fill="#000000" font-family="sans-serif" font-size="14" lengthAdjust="spacing" textLength="205" x="13" y="546.6074">-RegisterEmployeeController ctrl</text><text fill="#000000" font-family="sans-serif" font-size="14" lengthAdjust="spacing" textLength="107" x="13" y="565.2285">-List&lt;Role&gt; roles</text><line style="stroke:#181818;stroke-width:0.5;" x1="8" x2="223" y1="572.7422" y2="572.7422"/><text fill="#000000" font-family="sans-serif" font-size="14" lengthAdjust="spacing" textLength="145" x="13" y="591.8496">+RegisterEmployeeUI()</text><text fill="#000000" font-family="sans-serif" font-size="14" lengthAdjust="spacing" textLength="39" x="13" y="610.4707">+run()</text><text fill="#000000" font-family="sans-serif" font-size="14" lengthAdjust="spacing" textLength="114" x="13" y="629.0918">+bootstrapRoles()</text></g><!--class RegisterEmployeeController--><g id="elem_RegisterEmployeeController"><rect codeLine="17" fill="#F1F1F1" height="271.4531" id="RegisterEmployeeController" rx="2.5" ry="2.5" style="stroke:#181818;stroke-width:0.5;" width="385" x="285" y="430.5"/><ellipse cx="384.75" cy="446.5" fill="#ADD1B2" rx="11" ry="11" style="stroke:#181818;stroke-width:1.0;"/><path d="M387.5156,442.375 Q387.6719,442.1563 387.8594,442.0469 Q388.0469,441.9375 388.2656,441.9375 Q388.6406,441.9375 388.875,442.2031 Q389.1094,442.4531 389.1094,443.0625 L389.1094,444.5156 Q389.1094,445.125 388.875,445.3906 Q388.6406,445.6563 388.2656,445.6563 Q387.9219,445.6563 387.7188,445.4531 Q387.5156,445.2656 387.4063,444.75 Q387.3594,444.3906 387.1719,444.2031 Q386.8438,443.8281 386.2344,443.6094 Q385.625,443.3906 385,443.3906 Q384.2344,443.3906 383.5938,443.7188 Q382.9688,444.0469 382.4688,444.7969 Q381.9844,445.5469 381.9844,446.5781 L381.9844,447.6719 Q381.9844,448.9063 382.875,449.7344 Q383.7656,450.5469 385.3594,450.5469 Q386.2969,450.5469 386.9531,450.2969 Q387.3438,450.1406 387.7656,449.7031 Q388.0313,449.4375 388.1719,449.3594 Q388.3281,449.2813 388.5313,449.2813 Q388.8594,449.2813 389.1094,449.5469 Q389.375,449.7969 389.375,450.1406 Q389.375,450.4844 389.0313,450.8906 Q388.5313,451.4688 387.7344,451.7969 Q386.6563,452.25 385.3594,452.25 Q383.8438,452.25 382.6406,451.625 Q381.6563,451.125 380.9688,450.0625 Q380.2813,448.9844 380.2813,447.7031 L380.2813,446.5469 Q380.2813,445.2188 380.8906,444.0781 Q381.5156,442.9219 382.6094,442.3125 Q383.7031,441.6875 384.9375,441.6875 Q385.6719,441.6875 386.3125,441.8594 Q386.9688,442.0156 387.5156,442.375 Z " fill="#000000"/><text fill="#000000" font-family="sans-serif" font-size="14" lengthAdjust="spacing" textLength="177" x="405.25" y="452.2969">RegisterEmployeeController</text><line style="stroke:#181818;stroke-width:0.5;" x1="286" x2="669" y1="462.5" y2="462.5"/><text fill="#000000" font-family="sans-serif" font-size="14" lengthAdjust="spacing" textLength="234" x="291" y="481.6074">-EmployeeRepository employeeRepo</text><text fill="#000000" font-family="sans-serif" font-size="14" lengthAdjust="spacing" textLength="204" x="291" y="500.2285">-AgencyRepository agencyRepo</text><text fill="#000000" font-family="sans-serif" font-size="14" lengthAdjust="spacing" textLength="98" x="291" y="518.8496">-Employee emp</text><text fill="#000000" font-family="sans-serif" font-size="14" lengthAdjust="spacing" textLength="106" x="291" y="537.4707">-String password</text><line style="stroke:#181818;stroke-width:0.5;" x1="286" x2="669" y1="544.9844" y2="544.9844"/><text fill="#000000" font-family="sans-serif" font-size="14" lengthAdjust="spacing" textLength="284" x="291" y="564.0918">+create( String email, String name, Role role,</text><text fill="#000000" font-family="sans-serif" font-size="14" lengthAdjust="spacing" textLength="283" x="291" y="582.7129">String phoneNumber,String passportNumber,</text><text fill="#000000" font-family="sans-serif" font-size="14" lengthAdjust="spacing" textLength="365" x="291" y="601.334">String passportDateOfIssue, String passportDateOfExpiry,</text><text fill="#000000" font-family="sans-serif" font-size="14" lengthAdjust="spacing" textLength="236" x="291" y="619.9551">String state, String city, String district,</text><text fill="#000000" font-family="sans-serif" font-size="14" lengthAdjust="spacing" textLength="181" x="291" y="638.5762">String street, String zipCode,</text><text fill="#000000" font-family="sans-serif" font-size="14" lengthAdjust="spacing" textLength="373" x="291" y="657.1973">String taxNumber, Agency agency, boolean storeAddress );</text><text fill="#000000" font-family="sans-serif" font-size="14" lengthAdjust="spacing" textLength="110" x="291" y="675.8184">+saveEmployee()</text><text fill="#000000" font-family="sans-serif" font-size="14" lengthAdjust="spacing" textLength="114" x="291" y="694.4395">+generatedPass()</text></g><!--class Employee--><g id="elem_Employee"><rect codeLine="28" fill="#F1F1F1" height="252.832" id="Employee" rx="2.5" ry="2.5" style="stroke:#181818;stroke-width:0.5;" width="104" x="1844" y="243.5"/><ellipse cx="1863.5" cy="259.5" fill="#ADD1B2" rx="11" ry="11" style="stroke:#181818;stroke-width:1.0;"/><path d="M1866.2656,255.375 Q1866.4219,255.1563 1866.6094,255.0469 Q1866.7969,254.9375 1867.0156,254.9375 Q1867.3906,254.9375 1867.625,255.2031 Q1867.8594,255.4531 1867.8594,256.0625 L1867.8594,257.5156 Q1867.8594,258.125 1867.625,258.3906 Q1867.3906,258.6563 1867.0156,258.6563 Q1866.6719,258.6563 1866.4688,258.4531 Q1866.2656,258.2656 1866.1563,257.75 Q1866.1094,257.3906 1865.9219,257.2031 Q1865.5938,256.8281 1864.9844,256.6094 Q1864.375,256.3906 1863.75,256.3906 Q1862.9844,256.3906 1862.3438,256.7188 Q1861.7188,257.0469 1861.2188,257.7969 Q1860.7344,258.5469 1860.7344,259.5781 L1860.7344,260.6719 Q1860.7344,261.9063 1861.625,262.7344 Q1862.5156,263.5469 1864.1094,263.5469 Q1865.0469,263.5469 1865.7031,263.2969 Q1866.0938,263.1406 1866.5156,262.7031 Q1866.7813,262.4375 1866.9219,262.3594 Q1867.0781,262.2813 1867.2813,262.2813 Q1867.6094,262.2813 1867.8594,262.5469 Q1868.125,262.7969 1868.125,263.1406 Q1868.125,263.4844 1867.7813,263.8906 Q1867.2813,264.4688 1866.4844,264.7969 Q1865.4063,265.25 1864.1094,265.25 Q1862.5938,265.25 1861.3906,264.625 Q1860.4063,264.125 1859.7188,263.0625 Q1859.0313,261.9844 1859.0313,260.7031 L1859.0313,259.5469 Q1859.0313,258.2188 1859.6406,257.0781 Q1860.2656,255.9219 1861.3594,255.3125 Q1862.4531,254.6875 1863.6875,254.6875 Q1864.4219,254.6875 1865.0625,254.8594 Q1865.7188,255.0156 1866.2656,255.375 Z " fill="#000000"/><text fill="#000000" font-family="sans-serif" font-size="14" lengthAdjust="spacing" textLength="62" x="1878.5" y="265.2969">Employee</text><line style="stroke:#181818;stroke-width:0.5;" x1="1845" x2="1947" y1="275.5" y2="275.5"/><text fill="#000000" font-family="sans-serif" font-size="14" lengthAdjust="spacing" textLength="38" x="1850" y="294.6074">-email</text><text fill="#000000" font-family="sans-serif" font-size="14" lengthAdjust="spacing" textLength="40" x="1850" y="313.2285">-name</text><text fill="#000000" font-family="sans-serif" font-size="14" lengthAdjust="spacing" textLength="45" x="1850" y="331.8496">-phone</text><text fill="#000000" font-family="sans-serif" font-size="14" lengthAdjust="spacing" textLength="60" x="1850" y="350.4707">-passport</text><text fill="#000000" font-family="sans-serif" font-size="14" lengthAdjust="spacing" textLength="54" x="1850" y="369.0918">-location</text><text fill="#000000" font-family="sans-serif" font-size="14" lengthAdjust="spacing" textLength="72" x="1850" y="387.7129">-taxNumber</text><text fill="#000000" font-family="sans-serif" font-size="14" lengthAdjust="spacing" textLength="29" x="1850" y="406.334">-role</text><text fill="#000000" font-family="sans-serif" font-size="14" lengthAdjust="spacing" textLength="51" x="1850" y="424.9551">-agency</text><line style="stroke:#181818;stroke-width:0.5;" x1="1845" x2="1947" y1="432.4688" y2="432.4688"/><text fill="#000000" font-family="sans-serif" font-size="14" lengthAdjust="spacing" textLength="85" x="1850" y="451.5762">+verifyemail()</text><text fill="#000000" font-family="sans-serif" font-size="14" lengthAdjust="spacing" textLength="87" x="1850" y="470.1973">+verifyname()</text><text fill="#000000" font-family="sans-serif" font-size="14" lengthAdjust="spacing" textLength="92" x="1850" y="488.8184">+verifyphone()</text></g><!--class Passport--><g id="elem_Passport"><rect codeLine="42" fill="#F1F1F1" height="103.8633" id="Passport" rx="2.5" ry="2.5" style="stroke:#181818;stroke-width:0.5;" width="98" x="2087.5" y="341"/><ellipse cx="2107" cy="357" fill="#ADD1B2" rx="11" ry="11" style="stroke:#181818;stroke-width:1.0;"/><path d="M2109.7656,352.875 Q2109.9219,352.6563 2110.1094,352.5469 Q2110.2969,352.4375 2110.5156,352.4375 Q2110.8906,352.4375 2111.125,352.7031 Q2111.3594,352.9531 2111.3594,353.5625 L2111.3594,355.0156 Q2111.3594,355.625 2111.125,355.8906 Q2110.8906,356.1563 2110.5156,356.1563 Q2110.1719,356.1563 2109.9688,355.9531 Q2109.7656,355.7656 2109.6563,355.25 Q2109.6094,354.8906 2109.4219,354.7031 Q2109.0938,354.3281 2108.4844,354.1094 Q2107.875,353.8906 2107.25,353.8906 Q2106.4844,353.8906 2105.8438,354.2188 Q2105.2188,354.5469 2104.7188,355.2969 Q2104.2344,356.0469 2104.2344,357.0781 L2104.2344,358.1719 Q2104.2344,359.4063 2105.125,360.2344 Q2106.0156,361.0469 2107.6094,361.0469 Q2108.5469,361.0469 2109.2031,360.7969 Q2109.5938,360.6406 2110.0156,360.2031 Q2110.2813,359.9375 2110.4219,359.8594 Q2110.5781,359.7813 2110.7813,359.7813 Q2111.1094,359.7813 2111.3594,360.0469 Q2111.625,360.2969 2111.625,360.6406 Q2111.625,360.9844 2111.2813,361.3906 Q2110.7813,361.9688 2109.9844,362.2969 Q2108.9063,362.75 2107.6094,362.75 Q2106.0938,362.75 2104.8906,362.125 Q2103.9063,361.625 2103.2188,360.5625 Q2102.5313,359.4844 2102.5313,358.2031 L2102.5313,357.0469 Q2102.5313,355.7188 2103.1406,354.5781 Q2103.7656,353.4219 2104.8594,352.8125 Q2105.9531,352.1875 2107.1875,352.1875 Q2107.9219,352.1875 2108.5625,352.3594 Q2109.2188,352.5156 2109.7656,352.875 Z " fill="#000000"/><text fill="#000000" font-family="sans-serif" font-size="14" lengthAdjust="spacing" textLength="56" x="2122" y="362.7969">Passport</text><line style="stroke:#181818;stroke-width:0.5;" x1="2088.5" x2="2184.5" y1="373" y2="373"/><text fill="#000000" font-family="sans-serif" font-size="14" lengthAdjust="spacing" textLength="53" x="2093.5" y="392.1074">-number</text><text fill="#000000" font-family="sans-serif" font-size="14" lengthAdjust="spacing" textLength="81" x="2093.5" y="410.7285">-dateOfIssue</text><text fill="#000000" font-family="sans-serif" font-size="14" lengthAdjust="spacing" textLength="86" x="2093.5" y="429.3496">-dateOfExpiry</text><line style="stroke:#181818;stroke-width:0.5;" x1="2088.5" x2="2184.5" y1="436.8633" y2="436.8633"/></g><!--class Location--><g id="elem_Location"><rect codeLine="48" fill="#F1F1F1" height="159.7266" id="Location" rx="2.5" ry="2.5" style="stroke:#181818;stroke-width:0.5;" width="86" x="2093.5" y="7"/><ellipse cx="2108.5" cy="23" fill="#ADD1B2" rx="11" ry="11" style="stroke:#181818;stroke-width:1.0;"/><path d="M2111.2656,18.875 Q2111.4219,18.6563 2111.6094,18.5469 Q2111.7969,18.4375 2112.0156,18.4375 Q2112.3906,18.4375 2112.625,18.7031 Q2112.8594,18.9531 2112.8594,19.5625 L2112.8594,21.0156 Q2112.8594,21.625 2112.625,21.8906 Q2112.3906,22.1563 2112.0156,22.1563 Q2111.6719,22.1563 2111.4688,21.9531 Q2111.2656,21.7656 2111.1563,21.25 Q2111.1094,20.8906 2110.9219,20.7031 Q2110.5938,20.3281 2109.9844,20.1094 Q2109.375,19.8906 2108.75,19.8906 Q2107.9844,19.8906 2107.3438,20.2188 Q2106.7188,20.5469 2106.2188,21.2969 Q2105.7344,22.0469 2105.7344,23.0781 L2105.7344,24.1719 Q2105.7344,25.4063 2106.625,26.2344 Q2107.5156,27.0469 2109.1094,27.0469 Q2110.0469,27.0469 2110.7031,26.7969 Q2111.0938,26.6406 2111.5156,26.2031 Q2111.7813,25.9375 2111.9219,25.8594 Q2112.0781,25.7813 2112.2813,25.7813 Q2112.6094,25.7813 2112.8594,26.0469 Q2113.125,26.2969 2113.125,26.6406 Q2113.125,26.9844 2112.7813,27.3906 Q2112.2813,27.9688 2111.4844,28.2969 Q2110.4063,28.75 2109.1094,28.75 Q2107.5938,28.75 2106.3906,28.125 Q2105.4063,27.625 2104.7188,26.5625 Q2104.0313,25.4844 2104.0313,24.2031 L2104.0313,23.0469 Q2104.0313,21.7188 2104.6406,20.5781 Q2105.2656,19.4219 2106.3594,18.8125 Q2107.4531,18.1875 2108.6875,18.1875 Q2109.4219,18.1875 2110.0625,18.3594 Q2110.7188,18.5156 2111.2656,18.875 Z " fill="#000000"/><text fill="#000000" font-family="sans-serif" font-size="14" lengthAdjust="spacing" textLength="54" x="2122.5" y="28.7969">Location</text><line style="stroke:#181818;stroke-width:0.5;" x1="2094.5" x2="2178.5" y1="39" y2="39"/><text fill="#000000" font-family="sans-serif" font-size="14" lengthAdjust="spacing" textLength="36" x="2099.5" y="58.1074">-state</text><text fill="#000000" font-family="sans-serif" font-size="14" lengthAdjust="spacing" textLength="26" x="2099.5" y="76.7285">-city</text><text fill="#000000" font-family="sans-serif" font-size="14" lengthAdjust="spacing" textLength="46" x="2099.5" y="95.3496">-district</text><text fill="#000000" font-family="sans-serif" font-size="14" lengthAdjust="spacing" textLength="41" x="2099.5" y="113.9707">-street</text><text fill="#000000" font-family="sans-serif" font-size="14" lengthAdjust="spacing" textLength="56" x="2099.5" y="132.5918">-zipCode</text><line style="stroke:#181818;stroke-width:0.5;" x1="2094.5" x2="2178.5" y1="140.1055" y2="140.1055"/><text fill="#000000" font-family="sans-serif" font-size="14" lengthAdjust="spacing" textLength="67" x="2099.5" y="159.2129">+toString()</text></g><!--class Agency--><g id="elem_Agency"><rect codeLine="57" fill="#F1F1F1" height="159.7266" id="Agency" rx="2.5" ry="2.5" style="stroke:#181818;stroke-width:0.5;" width="255" x="2009" y="480"/><ellipse cx="2108.75" cy="496" fill="#ADD1B2" rx="11" ry="11" style="stroke:#181818;stroke-width:1.0;"/><path d="M2111.5156,491.875 Q2111.6719,491.6563 2111.8594,491.5469 Q2112.0469,491.4375 2112.2656,491.4375 Q2112.6406,491.4375 2112.875,491.7031 Q2113.1094,491.9531 2113.1094,492.5625 L2113.1094,494.0156 Q2113.1094,494.625 2112.875,494.8906 Q2112.6406,495.1563 2112.2656,495.1563 Q2111.9219,495.1563 2111.7188,494.9531 Q2111.5156,494.7656 2111.4063,494.25 Q2111.3594,493.8906 2111.1719,493.7031 Q2110.8438,493.3281 2110.2344,493.1094 Q2109.625,492.8906 2109,492.8906 Q2108.2344,492.8906 2107.5938,493.2188 Q2106.9688,493.5469 2106.4688,494.2969 Q2105.9844,495.0469 2105.9844,496.0781 L2105.9844,497.1719 Q2105.9844,498.4063 2106.875,499.2344 Q2107.7656,500.0469 2109.3594,500.0469 Q2110.2969,500.0469 2110.9531,499.7969 Q2111.3438,499.6406 2111.7656,499.2031 Q2112.0313,498.9375 2112.1719,498.8594 Q2112.3281,498.7813 2112.5313,498.7813 Q2112.8594,498.7813 2113.1094,499.0469 Q2113.375,499.2969 2113.375,499.6406 Q2113.375,499.9844 2113.0313,500.3906 Q2112.5313,500.9688 2111.7344,501.2969 Q2110.6563,501.75 2109.3594,501.75 Q2107.8438,501.75 2106.6406,501.125 Q2105.6563,500.625 2104.9688,499.5625 Q2104.2813,498.4844 2104.2813,497.2031 L2104.2813,496.0469 Q2104.2813,494.7188 2104.8906,493.5781 Q2105.5156,492.4219 2106.6094,491.8125 Q2107.7031,491.1875 2108.9375,491.1875 Q2109.6719,491.1875 2110.3125,491.3594 Q2110.9688,491.5156 2111.5156,491.875 Z " fill="#000000"/><text fill="#000000" font-family="sans-serif" font-size="14" lengthAdjust="spacing" textLength="47" x="2129.25" y="501.7969">Agency</text><line style="stroke:#181818;stroke-width:0.5;" x1="2010" x2="2263" y1="512" y2="512"/><text fill="#000000" font-family="sans-serif" font-size="14" lengthAdjust="spacing" textLength="16" x="2015" y="531.1074">-id</text><text fill="#000000" font-family="sans-serif" font-size="14" lengthAdjust="spacing" textLength="243" x="2015" y="549.7285">-List&lt;Announcement&gt; announcements</text><text fill="#000000" font-family="sans-serif" font-size="14" lengthAdjust="spacing" textLength="78" x="2015" y="568.3496">-designation</text><text fill="#000000" font-family="sans-serif" font-size="14" lengthAdjust="spacing" textLength="38" x="2015" y="586.9707">-email</text><text fill="#000000" font-family="sans-serif" font-size="14" lengthAdjust="spacing" textLength="94" x="2015" y="605.5918">-phoneNumber</text><text fill="#000000" font-family="sans-serif" font-size="14" lengthAdjust="spacing" textLength="56" x="2015" y="624.2129">-address</text><line style="stroke:#181818;stroke-width:0.5;" x1="2010" x2="2263" y1="631.7266" y2="631.7266"/></g><!--class EmployeeRepository--><g id="elem_EmployeeRepository"><rect codeLine="66" fill="#F1F1F1" height="196.9688" id="EmployeeRepository" rx="2.5" ry="2.5" style="stroke:#181818;stroke-width:0.5;" width="385" x="1289.5" y="271.5"/><ellipse cx="1412.75" cy="287.5" fill="#ADD1B2" rx="11" ry="11" style="stroke:#181818;stroke-width:1.0;"/><path d="M1415.5156,283.375 Q1415.6719,283.1563 1415.8594,283.0469 Q1416.0469,282.9375 1416.2656,282.9375 Q1416.6406,282.9375 1416.875,283.2031 Q1417.1094,283.4531 1417.1094,284.0625 L1417.1094,285.5156 Q1417.1094,286.125 1416.875,286.3906 Q1416.6406,286.6563 1416.2656,286.6563 Q1415.9219,286.6563 1415.7188,286.4531 Q1415.5156,286.2656 1415.4063,285.75 Q1415.3594,285.3906 1415.1719,285.2031 Q1414.8438,284.8281 1414.2344,284.6094 Q1413.625,284.3906 1413,284.3906 Q1412.2344,284.3906 1411.5938,284.7188 Q1410.9688,285.0469 1410.4688,285.7969 Q1409.9844,286.5469 1409.9844,287.5781 L1409.9844,288.6719 Q1409.9844,289.9063 1410.875,290.7344 Q1411.7656,291.5469 1413.3594,291.5469 Q1414.2969,291.5469 1414.9531,291.2969 Q1415.3438,291.1406 1415.7656,290.7031 Q1416.0313,290.4375 1416.1719,290.3594 Q1416.3281,290.2813 1416.5313,290.2813 Q1416.8594,290.2813 1417.1094,290.5469 Q1417.375,290.7969 1417.375,291.1406 Q1417.375,291.4844 1417.0313,291.8906 Q1416.5313,292.4688 1415.7344,292.7969 Q1414.6563,293.25 1413.3594,293.25 Q1411.8438,293.25 1410.6406,292.625 Q1409.6563,292.125 1408.9688,291.0625 Q1408.2813,289.9844 1408.2813,288.7031 L1408.2813,287.5469 Q1408.2813,286.2188 1408.8906,285.0781 Q1409.5156,283.9219 1410.6094,283.3125 Q1411.7031,282.6875 1412.9375,282.6875 Q1413.6719,282.6875 1414.3125,282.8594 Q1414.9688,283.0156 1415.5156,283.375 Z " fill="#000000"/><text fill="#000000" font-family="sans-serif" font-size="14" lengthAdjust="spacing" textLength="130" x="1433.25" y="293.2969">EmployeeRepository</text><line style="stroke:#181818;stroke-width:0.5;" x1="1290.5" x2="1673.5" y1="303.5" y2="303.5"/><text fill="#000000" font-family="sans-serif" font-size="14" lengthAdjust="spacing" textLength="177" x="1295.5" y="322.6074">-List&lt;Employee&gt; employees</text><line style="stroke:#181818;stroke-width:0.5;" x1="1290.5" x2="1673.5" y1="330.1211" y2="330.1211"/><text fill="#000000" font-family="sans-serif" font-size="14" lengthAdjust="spacing" textLength="284" x="1295.5" y="349.2285">+create( String email, String name, Role role,</text><text fill="#000000" font-family="sans-serif" font-size="14" lengthAdjust="spacing" textLength="283" x="1295.5" y="367.8496">String phoneNumber,String passportNumber,</text><text fill="#000000" font-family="sans-serif" font-size="14" lengthAdjust="spacing" textLength="365" x="1295.5" y="386.4707">String passportDateOfIssue, String passportDateOfExpiry,</text><text fill="#000000" font-family="sans-serif" font-size="14" lengthAdjust="spacing" textLength="236" x="1295.5" y="405.0918">String state, String city, String district,</text><text fill="#000000" font-family="sans-serif" font-size="14" lengthAdjust="spacing" textLength="181" x="1295.5" y="423.7129">String street, String zipCode,</text><text fill="#000000" font-family="sans-serif" font-size="14" lengthAdjust="spacing" textLength="373" x="1295.5" y="442.334">String taxNumber, Agency agency, boolean storeAddress );</text><text fill="#000000" font-family="sans-serif" font-size="14" lengthAdjust="spacing" textLength="222" x="1295.5" y="460.9551">+validateEmployee(Employee emp)</text></g><!--class AgencyRepository--><g id="elem_AgencyRepository"><rect codeLine="71" fill="#F1F1F1" height="85.2422" id="AgencyRepository" rx="2.5" ry="2.5" style="stroke:#181818;stroke-width:0.5;" width="197" x="1383.5" y="517.5"/><ellipse cx="1421" cy="533.5" fill="#ADD1B2" rx="11" ry="11" style="stroke:#181818;stroke-width:1.0;"/><path d="M1423.7656,529.375 Q1423.9219,529.1563 1424.1094,529.0469 Q1424.2969,528.9375 1424.5156,528.9375 Q1424.8906,528.9375 1425.125,529.2031 Q1425.3594,529.4531 1425.3594,530.0625 L1425.3594,531.5156 Q1425.3594,532.125 1425.125,532.3906 Q1424.8906,532.6563 1424.5156,532.6563 Q1424.1719,532.6563 1423.9688,532.4531 Q1423.7656,532.2656 1423.6563,531.75 Q1423.6094,531.3906 1423.4219,531.2031 Q1423.0938,530.8281 1422.4844,530.6094 Q1421.875,530.3906 1421.25,530.3906 Q1420.4844,530.3906 1419.8438,530.7188 Q1419.2188,531.0469 1418.7188,531.7969 Q1418.2344,532.5469 1418.2344,533.5781 L1418.2344,534.6719 Q1418.2344,535.9063 1419.125,536.7344 Q1420.0156,537.5469 1421.6094,537.5469 Q1422.5469,537.5469 1423.2031,537.2969 Q1423.5938,537.1406 1424.0156,536.7031 Q1424.2813,536.4375 1424.4219,536.3594 Q1424.5781,536.2813 1424.7813,536.2813 Q1425.1094,536.2813 1425.3594,536.5469 Q1425.625,536.7969 1425.625,537.1406 Q1425.625,537.4844 1425.2813,537.8906 Q1424.7813,538.4688 1423.9844,538.7969 Q1422.9063,539.25 1421.6094,539.25 Q1420.0938,539.25 1418.8906,538.625 Q1417.9063,538.125 1417.2188,537.0625 Q1416.5313,535.9844 1416.5313,534.7031 L1416.5313,533.5469 Q1416.5313,532.2188 1417.1406,531.0781 Q1417.7656,529.9219 1418.8594,529.3125 Q1419.9531,528.6875 1421.1875,528.6875 Q1421.9219,528.6875 1422.5625,528.8594 Q1423.2188,529.0156 1423.7656,529.375 Z " fill="#000000"/><text fill="#000000" font-family="sans-serif" font-size="14" lengthAdjust="spacing" textLength="115" x="1440" y="539.2969">AgencyRepository</text><line style="stroke:#181818;stroke-width:0.5;" x1="1384.5" x2="1579.5" y1="549.5" y2="549.5"/><text fill="#000000" font-family="sans-serif" font-size="14" lengthAdjust="spacing" textLength="151" x="1389.5" y="568.6074">-List&lt;Agency&gt; agencies</text><line style="stroke:#181818;stroke-width:0.5;" x1="1384.5" x2="1579.5" y1="576.1211" y2="576.1211"/><text fill="#000000" font-family="sans-serif" font-size="14" lengthAdjust="spacing" textLength="185" x="1389.5" y="595.2285">+List&lt;Agency&gt; getAgencies()</text></g><!--class AuthenticationRepository--><g id="elem_AuthenticationRepository"><rect codeLine="76" fill="#F1F1F1" height="85.2422" id="AuthenticationRepository" rx="2.5" ry="2.5" style="stroke:#181818;stroke-width:0.5;" width="456" x="1254" y="655.5"/><ellipse cx="1398.75" cy="671.5" fill="#ADD1B2" rx="11" ry="11" style="stroke:#181818;stroke-width:1.0;"/><path d="M1401.5156,667.375 Q1401.6719,667.1563 1401.8594,667.0469 Q1402.0469,666.9375 1402.2656,666.9375 Q1402.6406,666.9375 1402.875,667.2031 Q1403.1094,667.4531 1403.1094,668.0625 L1403.1094,669.5156 Q1403.1094,670.125 1402.875,670.3906 Q1402.6406,670.6563 1402.2656,670.6563 Q1401.9219,670.6563 1401.7188,670.4531 Q1401.5156,670.2656 1401.4063,669.75 Q1401.3594,669.3906 1401.1719,669.2031 Q1400.8438,668.8281 1400.2344,668.6094 Q1399.625,668.3906 1399,668.3906 Q1398.2344,668.3906 1397.5938,668.7188 Q1396.9688,669.0469 1396.4688,669.7969 Q1395.9844,670.5469 1395.9844,671.5781 L1395.9844,672.6719 Q1395.9844,673.9063 1396.875,674.7344 Q1397.7656,675.5469 1399.3594,675.5469 Q1400.2969,675.5469 1400.9531,675.2969 Q1401.3438,675.1406 1401.7656,674.7031 Q1402.0313,674.4375 1402.1719,674.3594 Q1402.3281,674.2813 1402.5313,674.2813 Q1402.8594,674.2813 1403.1094,674.5469 Q1403.375,674.7969 1403.375,675.1406 Q1403.375,675.4844 1403.0313,675.8906 Q1402.5313,676.4688 1401.7344,676.7969 Q1400.6563,677.25 1399.3594,677.25 Q1397.8438,677.25 1396.6406,676.625 Q1395.6563,676.125 1394.9688,675.0625 Q1394.2813,673.9844 1394.2813,672.7031 L1394.2813,671.5469 Q1394.2813,670.2188 1394.8906,669.0781 Q1395.5156,667.9219 1396.6094,667.3125 Q1397.7031,666.6875 1398.9375,666.6875 Q1399.6719,666.6875 1400.3125,666.8594 Q1400.9688,667.0156 1401.5156,667.375 Z " fill="#000000"/><text fill="#000000" font-family="sans-serif" font-size="14" lengthAdjust="spacing" textLength="158" x="1419.25" y="677.2969">AuthenticationRepository</text><line style="stroke:#181818;stroke-width:0.5;" x1="1255" x2="1709" y1="687.5" y2="687.5"/><line style="stroke:#181818;stroke-width:0.5;" x1="1255" x2="1709" y1="695.5" y2="695.5"/><text fill="#000000" font-family="sans-serif" font-size="14" lengthAdjust="spacing" textLength="270" x="1260" y="714.6074">+addUserRole(String id, String description)</text><text fill="#000000" font-family="sans-serif" font-size="14" lengthAdjust="spacing" textLength="444" x="1260" y="733.2285">+addUserWithRole(String name, String email, String pwd, String roleId)</text></g><!--class Repositories--><g id="elem_Repositories"><rect codeLine="80" fill="#F1F1F1" height="159.7266" id="Repositories" rx="2.5" ry="2.5" style="stroke:#181818;stroke-width:0.5;" width="336" x="731" y="419"/><ellipse cx="855.25" cy="435" fill="#ADD1B2" rx="11" ry="11" style="stroke:#181818;stroke-width:1.0;"/><path d="M858.0156,430.875 Q858.1719,430.6563 858.3594,430.5469 Q858.5469,430.4375 858.7656,430.4375 Q859.1406,430.4375 859.375,430.7031 Q859.6094,430.9531 859.6094,431.5625 L859.6094,433.0156 Q859.6094,433.625 859.375,433.8906 Q859.1406,434.1563 858.7656,434.1563 Q858.4219,434.1563 858.2188,433.9531 Q858.0156,433.7656 857.9063,433.25 Q857.8594,432.8906 857.6719,432.7031 Q857.3438,432.3281 856.7344,432.1094 Q856.125,431.8906 855.5,431.8906 Q854.7344,431.8906 854.0938,432.2188 Q853.4688,432.5469 852.9688,433.2969 Q852.4844,434.0469 852.4844,435.0781 L852.4844,436.1719 Q852.4844,437.4063 853.375,438.2344 Q854.2656,439.0469 855.8594,439.0469 Q856.7969,439.0469 857.4531,438.7969 Q857.8438,438.6406 858.2656,438.2031 Q858.5313,437.9375 858.6719,437.8594 Q858.8281,437.7813 859.0313,437.7813 Q859.3594,437.7813 859.6094,438.0469 Q859.875,438.2969 859.875,438.6406 Q859.875,438.9844 859.5313,439.3906 Q859.0313,439.9688 858.2344,440.2969 Q857.1563,440.75 855.8594,440.75 Q854.3438,440.75 853.1406,440.125 Q852.1563,439.625 851.4688,438.5625 Q850.7813,437.4844 850.7813,436.2031 L850.7813,435.0469 Q850.7813,433.7188 851.3906,432.5781 Q852.0156,431.4219 853.1094,430.8125 Q854.2031,430.1875 855.4375,430.1875 Q856.1719,430.1875 856.8125,430.3594 Q857.4688,430.5156 858.0156,430.875 Z " fill="#000000"/><text fill="#000000" font-family="sans-serif" font-size="14" lengthAdjust="spacing" textLength="79" x="875.75" y="440.7969">Repositories</text><line style="stroke:#181818;stroke-width:0.5;" x1="732" x2="1066" y1="451" y2="451"/><text fill="#000000" font-family="sans-serif" font-size="14" lengthAdjust="spacing" textLength="268" x="737" y="470.1074">-EmployeeRepository employeeRepository</text><text fill="#000000" font-family="sans-serif" font-size="14" lengthAdjust="spacing" textLength="238" x="737" y="488.7285">-AgencyRepository agencyRepository</text><text fill="#000000" font-family="sans-serif" font-size="14" lengthAdjust="spacing" textLength="324" x="737" y="507.3496">-AuthenticationRepository authenticationRepository</text><line style="stroke:#181818;stroke-width:0.5;" x1="732" x2="1066" y1="514.8633" y2="514.8633"/><text fill="#000000" font-family="sans-serif" font-size="14" lengthAdjust="spacing" textLength="168" x="737" y="533.9707">+getEmployeeRepository()</text><text fill="#000000" font-family="sans-serif" font-size="14" lengthAdjust="spacing" textLength="153" x="737" y="552.5918">+getAgencyRepository()</text><text fill="#000000" font-family="sans-serif" font-size="14" lengthAdjust="spacing" textLength="196" x="737" y="571.2129">+getAuthenticationRepository()</text></g><!--class Role--><g id="elem_Role"><rect codeLine="88" fill="#F1F1F1" height="103.8633" id="Role" rx="2.5" ry="2.5" style="stroke:#181818;stroke-width:0.5;" width="214" x="2029.5" y="202"/><ellipse cx="2117.75" cy="218" fill="#EB937F" rx="11" ry="11" style="stroke:#181818;stroke-width:1.0;"/><path d="M2116.6094,218.7969 L2116.6094,221.2969 L2120.9375,221.2969 L2120.9375,220.375 Q2120.9375,219.7656 2121.1719,219.5 Q2121.4219,219.2344 2121.7969,219.2344 Q2122.1719,219.2344 2122.4063,219.5 Q2122.6406,219.7656 2122.6406,220.375 L2122.6406,223 L2114.6406,223 Q2114.0156,223 2113.75,222.7656 Q2113.5,222.5313 2113.5,222.1406 Q2113.5,221.7656 2113.7656,221.5313 Q2114.0313,221.2969 2114.6406,221.2969 L2114.9063,221.2969 L2114.9063,214.6406 L2114.6406,214.6406 Q2114.0156,214.6406 2113.75,214.4063 Q2113.5,214.1719 2113.5,213.7813 Q2113.5,213.4063 2113.75,213.1719 Q2114.0156,212.9375 2114.6406,212.9375 L2122.2656,212.9375 L2122.2656,215.5313 Q2122.2656,216.1406 2122.0313,216.4063 Q2121.8125,216.6563 2121.4219,216.6563 Q2121.0469,216.6563 2120.8125,216.4063 Q2120.5781,216.1406 2120.5781,215.5313 L2120.5781,214.6406 L2116.6094,214.6406 L2116.6094,217.0938 L2118.0938,217.0938 Q2118.0938,216.4375 2118.2188,216.25 Q2118.4844,215.8438 2118.9531,215.8438 Q2119.3281,215.8438 2119.5625,216.1094 Q2119.7969,216.3594 2119.7969,216.9688 L2119.7969,218.9375 Q2119.7969,219.4844 2119.6719,219.6719 Q2119.4063,220.0625 2118.9531,220.0625 Q2118.4844,220.0625 2118.2188,219.6563 Q2118.0938,219.4688 2118.0938,218.7969 L2116.6094,218.7969 Z " fill="#000000"/><text fill="#000000" font-family="sans-serif" font-size="14" lengthAdjust="spacing" textLength="29" x="2138.25" y="223.7969">Role</text><line style="stroke:#181818;stroke-width:0.5;" x1="2030.5" x2="2242.5" y1="234" y2="234"/><text fill="#000000" font-family="sans-serif" font-size="14" lengthAdjust="spacing" textLength="124" x="2035.5" y="253.1074">STORE_MANAGER</text><text fill="#000000" font-family="sans-serif" font-size="14" lengthAdjust="spacing" textLength="202" x="2035.5" y="271.7285">STORE_NETWORK_MANAGER</text><text fill="#000000" font-family="sans-serif" font-size="14" lengthAdjust="spacing" textLength="47" x="2035.5" y="290.3496">AGENT</text><line style="stroke:#181818;stroke-width:0.5;" x1="2030.5" x2="2242.5" y1="297.8633" y2="297.8633"/></g><!--link RegisterEmployeeUI to RegisterEmployeeController--><g id="link_RegisterEmployeeUI_RegisterEmployeeController"><path codeLine="94" d="M224.02,566 C241.64,566 260.36,566 279.34,566 " fill="none" id="RegisterEmployeeUI-to-RegisterEmployeeController" style="stroke:#181818;stroke-width:1.0;stroke-dasharray:7.0,7.0;"/><polygon fill="#181818" points="284.7,566,275.7,562,279.7,566,275.7,570,284.7,566" style="stroke:#181818;stroke-width:1.0;"/></g><!--link RegisterEmployeeController to Repositories--><g id="link_RegisterEmployeeController_Repositories"><path codeLine="95" d="M670.14,535.39 C688.69,532.43 707.44,529.44 725.78,526.51 " fill="none" id="RegisterEmployeeController-to-Repositories" style="stroke:#181818;stroke-width:1.0;stroke-dasharray:7.0,7.0;"/><polygon fill="#181818" points="730.95,525.68,721.4265,523.1693,726.0142,526.4789,722.7047,531.0666,730.95,525.68" style="stroke:#181818;stroke-width:1.0;"/></g><!--link Repositories to EmployeeRepository--><g id="link_Repositories_EmployeeRepository"><path codeLine="96" d="M1067.27,461.86 C1135.04,446.81 1213.79,429.33 1284.28,413.68 " fill="none" id="Repositories-to-EmployeeRepository" style="stroke:#181818;stroke-width:1.0;"/><polygon fill="#181818" points="1289.34,412.55,1279.6866,410.5976,1284.4591,413.6347,1281.422,418.4071,1289.34,412.55" style="stroke:#181818;stroke-width:1.0;"/><polygon fill="#000000" points="1146.8811,419.5618,1137.4141,418.6532,1138.6881,424.3913,1146.8811,419.5618" style="stroke:#000000;stroke-width:1.0;"/><text fill="#000000" font-family="sans-serif" font-size="13" lengthAdjust="spacing" textLength="32" x="1151" y="426.0283">has a</text></g><!--link Repositories to AgencyRepository--><g id="link_Repositories_AgencyRepository"><path codeLine="97" d="M1067.27,516.56 C1167.68,527.1 1292.21,540.18 1378.27,549.21 " fill="none" id="Repositories-to-AgencyRepository" style="stroke:#181818;stroke-width:1.0;"/><polygon fill="#181818" points="1383.36,549.75,1374.8194,544.8451,1378.3865,549.2355,1373.9962,552.8027,1383.36,549.75" style="stroke:#181818;stroke-width:1.0;"/><polygon fill="#000000" points="1146.9727,511.1676,1138.2839,507.3003,1137.6702,513.146,1146.9727,511.1676" style="stroke:#000000;stroke-width:1.0;"/><text fill="#000000" font-family="sans-serif" font-size="13" lengthAdjust="spacing" textLength="32" x="1151" y="516.0283">has a</text></g><!--link Repositories to AuthenticationRepository--><g id="link_Repositories_AuthenticationRepository"><path codeLine="98" d="M1067.27,556.29 C1157.91,587.34 1268.2,625.11 1352.11,653.85 " fill="none" id="Repositories-to-AuthenticationRepository" style="stroke:#181818;stroke-width:1.0;"/><polygon fill="#181818" points="1356.84,655.47,1349.6331,648.7573,1352.1125,653.8418,1347.028,656.3212,1356.84,655.47" style="stroke:#181818;stroke-width:1.0;"/><polygon fill="#000000" points="1106.7302,561.2657,1099.1255,555.5544,1097.2209,561.1151,1106.7302,561.2657" style="stroke:#000000;stroke-width:1.0;"/><text fill="#000000" font-family="sans-serif" font-size="13" lengthAdjust="spacing" textLength="112" x="1111" y="565.0283">registers Employee</text></g><!--link RegisterEmployeeController to EmployeeRepository--><g id="link_RegisterEmployeeController_EmployeeRepository"><path codeLine="99" d="M670.2,440.73 C705.25,417.83 731,401 731,401 C731,401 1061.87,387.32 1284.09,378.14 " fill="none" id="RegisterEmployeeController-to-EmployeeRepository" style="stroke:#181818;stroke-width:1.0;stroke-dasharray:7.0,7.0;"/><polygon fill="#181818" points="1289.32,377.92,1280.1673,374.2829,1284.324,378.1198,1280.4871,382.2765,1289.32,377.92" style="stroke:#181818;stroke-width:1.0;"/></g><!--link RegisterEmployeeController to AgencyRepository--><g id="link_RegisterEmployeeController_AgencyRepository"><path codeLine="100" d="M670.2,589.54 C705.25,593.84 731,597 731,597 C731,597 1097,610 1097,610 C1097,610 1224,610 1224,610 C1224,610 1306.75,593.9 1378.34,579.97 " fill="none" id="RegisterEmployeeController-to-AgencyRepository" style="stroke:#181818;stroke-width:1.0;stroke-dasharray:7.0,7.0;"/><polygon fill="#181818" points="1383.47,578.97,1373.8713,576.7644,1378.5622,579.9259,1375.4007,584.6168,1383.47,578.97" style="stroke:#181818;stroke-width:1.0;"/></g><!--link RegisterEmployeeController to AuthenticationRepository--><g id="link_RegisterEmployeeController_AuthenticationRepository"><path codeLine="101" d="M670.2,603.96 C705.25,610.9 731,616 731,616 C731,616 1028.49,648.53 1248.75,672.61 " fill="none" id="RegisterEmployeeController-to-AuthenticationRepository" style="stroke:#181818;stroke-width:1.0;stroke-dasharray:7.0,7.0;"/><polygon fill="#181818" points="1253.94,673.17,1245.4274,668.2167,1248.9695,672.6272,1244.559,676.1694,1253.94,673.17" style="stroke:#181818;stroke-width:1.0;"/></g><!--link AgencyRepository to Agency--><g id="link_AgencyRepository_Agency"><path codeLine="102" d="M1580.69,560 C1694.72,560 1883.62,560 2008.83,560 " fill="none" id="AgencyRepository-Agency" style="stroke:#181818;stroke-width:1.0;"/><polygon fill="#000000" points="1869,550.6455,1859.9549,547.7066,1859.9549,553.5844,1869,550.6455" style="stroke:#000000;stroke-width:1.0;"/><text fill="#000000" font-family="sans-serif" font-size="13" lengthAdjust="spacing" textLength="59" x="1873" y="556.0283">keeps info</text><text fill="#000000" font-family="sans-serif" font-size="13" lengthAdjust="spacing" textLength="7" x="1588.5139" y="574.681">1</text><text fill="#000000" font-family="sans-serif" font-size="13" lengthAdjust="spacing" textLength="5" x="1995.8978" y="574.5635">*</text></g><!--link EmployeeRepository to Employee--><g id="link_EmployeeRepository_Employee"><path codeLine="103" d="M1674.53,370 C1736.73,370 1800.7,370 1843.6,370 " fill="none" id="EmployeeRepository-Employee" style="stroke:#181818;stroke-width:1.0;"/><polygon fill="#000000" points="1750,360.6455,1740.9549,357.7066,1740.9549,363.5844,1750,360.6455" style="stroke:#000000;stroke-width:1.0;"/><text fill="#000000" font-family="sans-serif" font-size="13" lengthAdjust="spacing" textLength="59" x="1754" y="366.0283">keeps info</text><text fill="#000000" font-family="sans-serif" font-size="13" lengthAdjust="spacing" textLength="7" x="1682.8" y="384.3937">1</text><text fill="#000000" font-family="sans-serif" font-size="13" lengthAdjust="spacing" textLength="5" x="1830.8797" y="385.2559">*</text></g><!--reverse link Employee to Passport--><g id="link_Employee_Passport"><path codeLine="104" d="M1961.19,376.19 C2000.87,380.02 2050.97,384.85 2087.27,388.35 " fill="none" id="Employee-backto-Passport" style="stroke:#181818;stroke-width:1.0;"/><polygon fill="#181818" points="1948.16,374.93,1953.7502,379.4852,1960.1051,376.077,1954.5149,371.5218,1948.16,374.93" style="stroke:#181818;stroke-width:1.0;"/></g><!--reverse link Employee to Location--><g id="link_Employee_Location"><path codeLine="105" d="M1954.85,273.93 C1982.22,228.47 2009,184 2009,184 C2009,184 2056.58,147.52 2093.38,119.3 " fill="none" id="Employee-backto-Location" style="stroke:#181818;stroke-width:1.0;"/><polygon fill="#181818" points="1948.08,285.16,1954.5999,282.0792,1954.2636,274.8759,1947.7438,277.9567,1948.08,285.16" style="stroke:#181818;stroke-width:1.0;"/></g><!--link Employee to Agency--><g id="link_Employee_Agency"><path codeLine="106" d="M1948.08,412.42 C1977.62,436.95 2009,463 2009,463 C2009,463 2013.41,466.38 2020.59,471.89 " fill="none" id="Employee-to-Agency" style="stroke:#181818;stroke-width:1.0;"/><polygon fill="none" points="2031.03,479.9,2028.7003,473.0756,2021.5048,472.6013,2023.8345,479.4257,2031.03,479.9" style="stroke:#181818;stroke-width:1.0;"/></g><!--reverse link Employee to Role--><g id="link_Employee_Role"><path codeLine="107" d="M1959.93,339.39 C1981.13,329.08 2005.41,317.27 2029.02,305.79 " fill="none" id="Employee-backto-Role" style="stroke:#181818;stroke-width:1.0;"/><polygon fill="#181818" points="1948.16,345.12,1955.3053,346.0918,1958.9505,339.8698,1951.8052,338.8981,1948.16,345.12" style="stroke:#181818;stroke-width:1.0;"/></g><!--SRC=[xLRTJjim5BxtKrYz0bgZxPPDaIfMJTLOGIs8cqcJIKvJ2zUER1V8qDvznx6J6DAM5zXDe_ET_-ySsxMFGbNSy2sjUFx8IrYvMW8ra3kkIWd4TWPsmmlzB5H9rrpQL2E50bTNG2ijQo-GH9bBRktKEICUTWxckLOhyGVe9q8ah1rrcXfHRXmjX4ygj2AaSQ5BA8LrO6RRIkeQu6x-IjXxy58hPxIKO6ZkZ2Ji2jLVbrf2HX47IyR3E2UdP6nsodyUj7RM6Lvv5ul8tqFf-qnOHWikeT9ME6rg2Wb4sBG4bTU9cdT0x-rz2AChv0PPhJ3hipO56US6k8EJLW5RBkIabHJVmeJwSfi69xzKwx_H2XQxxGEOIHAoqiP5j3UD-3TCSxsUMxk32TshcxrKmjIzftK8TxQvS7Kd54YN4RcRqCJQ0BZEue-eBdK1YO7ZBx4s6XYBF4qe3aO2LnX26vWMXG6SoUaNChRy2Le2_GJH7WmMLTnWuGZq4sojS5uDXOHvxWXhYC9FR9GmgNFUR1xhwY7CaqjOA8UCdy28TTs4yKc3wCFrKXCstQ2Rc03pgnYqw0blXS1mxtKLYq6lXcp2FCje7Udri6ULi4Wd6JiTw4oJ1penY2ZYePWgfNSgXoqebr6UI1QZWnMbYYn4jfA5GYB228RizZl-6XErcgmx4_R_JX_TwISkXT-6Rg_J6y8FDPtfaF20Po6Fy6o_WKjmqwW9voD6sxaD3b-4TKkZZd7OTnQC7yX9x4eKFIbWSoCgxtNQsTuBjqdjmqZtJhjwxcFvSS-BliMk32psutisG4TlsyxaGBUK7r3ucyKDyuShnxtFsC87WZKd4_0MQ9RybQnkhvUptp-dY-dtsJ9AYzdj_VNoHuVYp-BMdxVX0qRFpxCZ3nGvyae6pvvaaWgKiMpFmQONTCCjvJGRMW-eFsPxQ0ON-8SZLDpVAqs0esqC2_t8utsn7zeVser1rwFF8yP6PwFso5_GHu3AKg7M6ZlPmsddqJLym8UUCTQz9M_HzgteKSPqBE6jfL-xVm00]--></g></svg>