<?xml version="1.0" encoding="us-ascii" standalone="no"?><svg xmlns="http://www.w3.org/2000/svg" xmlns:xlink="http://www.w3.org/1999/xlink" contentStyleType="text/css" height="1935px" preserveAspectRatio="none" style="width:2245px;height:1935px;background:#FFFFFF;" version="1.1" viewBox="0 0 2245 1935" width="2245px" zoomAndPan="magnify"><defs/><g><rect fill="#FFFFFF" height="1740.666" style="stroke:#181818;stroke-width:1.0;" width="10" x="69.5" y="93.6211"/><rect fill="#FFFFFF" height="31.291" style="stroke:#181818;stroke-width:1.0;" width="10" x="495.5" y="116.9121"/><rect fill="#FFFFFF" height="57.582" style="stroke:#181818;stroke-width:1.0;" width="10" x="495.5" y="179.4941"/><rect fill="#FFFFFF" height="31.291" style="stroke:#181818;stroke-width:1.0;" width="10" x="495.5" y="268.3672"/><rect fill="#FFFFFF" height="31.291" style="stroke:#181818;stroke-width:1.0;" width="10" x="495.5" y="330.9492"/><rect fill="#FFFFFF" height="31.291" style="stroke:#181818;stroke-width:1.0;" width="10" x="495.5" y="393.5313"/><rect fill="#FFFFFF" height="31.291" style="stroke:#181818;stroke-width:1.0;" width="10" x="495.5" y="456.1133"/><rect fill="#FFFFFF" height="57.582" style="stroke:#181818;stroke-width:1.0;" width="10" x="495.5" y="518.6953"/><rect fill="#FFFFFF" height="170.4551" style="stroke:#181818;stroke-width:1.0;" width="10" x="495.5" y="607.5684"/><rect fill="#FFFFFF" height="31.291" style="stroke:#181818;stroke-width:1.0;" width="10" x="495.5" y="809.3145"/><rect fill="#FFFFFF" height="563.4805" style="stroke:#181818;stroke-width:1.0;" width="10" x="495.5" y="871.8965"/><rect fill="#FFFFFF" height="367.6191" style="stroke:#181818;stroke-width:1.0;" width="10" x="495.5" y="1466.668"/><rect fill="#FFFFFF" height="93.873" style="stroke:#181818;stroke-width:1.0;" width="10" x="822.5" y="652.8594"/><rect fill="#FFFFFF" height="431.7344" style="stroke:#181818;stroke-width:1.0;" width="10" x="822.5" y="972.3516"/><rect fill="#FFFFFF" height="305.0371" style="stroke:#181818;stroke-width:1.0;" width="10" x="822.5" y="1497.959"/><rect fill="#FFFFFF" height="31.291" style="stroke:#181818;stroke-width:1.0;" width="10" x="1111.5" y="684.1504"/><rect fill="#FFFFFF" height="299.9883" style="stroke:#181818;stroke-width:1.0;" width="10" x="1266" y="1072.8066"/><rect fill="#FFFFFF" height="119.873" style="stroke:#181818;stroke-width:1.0;" width="10" x="1266" y="1651.832"/><rect fill="#FFFFFF" height="30" style="stroke:#181818;stroke-width:1.0;" width="10" x="1442" y="1590.541"/><rect fill="#FFFFFF" height="30" style="stroke:#181818;stroke-width:1.0;" width="10" x="2164" y="1529.25"/><rect fill="none" height="428.0742" style="stroke:#000000;stroke-width:1.5;" width="585" x="10" y="194.4941"/><rect fill="none" height="81.873" style="stroke:#000000;stroke-width:1.5;" width="565" x="20" y="533.6953"/><rect fill="none" height="123.1641" style="stroke:#000000;stroke-width:1.5;" width="914" x="1185" y="1131.4277"/><line style="stroke:#181818;stroke-width:0.5;stroke-dasharray:5.0,5.0;" x1="74" x2="74" y1="83.6211" y2="1852.2871"/><line style="stroke:#181818;stroke-width:0.5;stroke-dasharray:5.0,5.0;" x1="500" x2="500" y1="83.6211" y2="1852.2871"/><line style="stroke:#181818;stroke-width:0.5;stroke-dasharray:5.0,5.0;" x1="827" x2="827" y1="83.6211" y2="1852.2871"/><line style="stroke:#181818;stroke-width:0.5;stroke-dasharray:5.0,5.0;" x1="987" x2="987" y1="83.6211" y2="1852.2871"/><line style="stroke:#181818;stroke-width:0.5;stroke-dasharray:5.0,5.0;" x1="1116" x2="1116" y1="83.6211" y2="1852.2871"/><line style="stroke:#181818;stroke-width:0.5;stroke-dasharray:5.0,5.0;" x1="1271" x2="1271" y1="83.6211" y2="1852.2871"/><line style="stroke:#181818;stroke-width:0.5;stroke-dasharray:5.0,5.0;" x1="1447" x2="1447" y1="83.6211" y2="1852.2871"/><line style="stroke:#181818;stroke-width:0.5;stroke-dasharray:5.0,5.0;" x1="1891" x2="1891" y1="1293.4023" y2="1852.2871"/><line style="stroke:#181818;stroke-width:0.5;stroke-dasharray:5.0,5.0;" x1="1978" x2="1978" y1="1112.6172" y2="1852.2871"/><line style="stroke:#181818;stroke-width:0.5;stroke-dasharray:5.0,5.0;" x1="2056" x2="2056" y1="1242.7813" y2="1852.2871"/><line style="stroke:#181818;stroke-width:0.5;stroke-dasharray:5.0,5.0;" x1="2169" x2="2169" y1="83.6211" y2="1852.2871"/><text fill="#000000" font-family="sans-serif" font-size="14" lengthAdjust="spacing" textLength="83" x="30" y="80.1074">Administrator</text><ellipse cx="74.5" cy="13.5" fill="#E3E3E3" rx="8" ry="8" style="stroke:#181818;stroke-width:0.5;"/><path d="M74.5,21.5 L74.5,48.5 M61.5,29.5 L87.5,29.5 M74.5,48.5 L61.5,63.5 M74.5,48.5 L87.5,63.5 " fill="none" style="stroke:#181818;stroke-width:0.5;"/><text fill="#000000" font-family="sans-serif" font-size="14" lengthAdjust="spacing" textLength="83" x="30" y="1866.3945">Administrator</text><ellipse cx="74.5" cy="1878.4082" fill="#E3E3E3" rx="8" ry="8" style="stroke:#181818;stroke-width:0.5;"/><path d="M74.5,1886.4082 L74.5,1913.4082 M61.5,1894.4082 L87.5,1894.4082 M74.5,1913.4082 L61.5,1928.4082 M74.5,1913.4082 L87.5,1928.4082 " fill="none" style="stroke:#181818;stroke-width:0.5;"/><rect fill="#E3E3E3" height="32.6211" rx="2.5" ry="2.5" style="stroke:#181818;stroke-width:0.5;" width="149" x="426" y="50"/><text fill="#000000" font-family="sans-serif" font-size="14" lengthAdjust="spacing" textLength="135" x="433" y="72.1074">: RegisterEmployeeUI</text><rect fill="#E3E3E3" height="32.6211" rx="2.5" ry="2.5" style="stroke:#181818;stroke-width:0.5;" width="149" x="426" y="1851.2871"/><text fill="#000000" font-family="sans-serif" font-size="14" lengthAdjust="spacing" textLength="135" x="433" y="1873.3945">: RegisterEmployeeUI</text><rect fill="#E3E3E3" height="32.6211" rx="2.5" ry="2.5" style="stroke:#181818;stroke-width:0.5;" width="199" x="728" y="50"/><text fill="#000000" font-family="sans-serif" font-size="14" lengthAdjust="spacing" textLength="185" x="735" y="72.1074">: RegisterEmployeeController</text><rect fill="#E3E3E3" height="32.6211" rx="2.5" ry="2.5" style="stroke:#181818;stroke-width:0.5;" width="199" x="728" y="1851.2871"/><text fill="#000000" font-family="sans-serif" font-size="14" lengthAdjust="spacing" textLength="185" x="735" y="1873.3945">: RegisterEmployeeController</text><rect fill="#E3E3E3" height="32.6211" rx="2.5" ry="2.5" style="stroke:#181818;stroke-width:0.5;" width="101" x="937" y="50"/><text fill="#000000" font-family="sans-serif" font-size="14" lengthAdjust="spacing" textLength="87" x="944" y="72.1074">: Repositories</text><rect fill="#E3E3E3" height="32.6211" rx="2.5" ry="2.5" style="stroke:#181818;stroke-width:0.5;" width="101" x="937" y="1851.2871"/><text fill="#000000" font-family="sans-serif" font-size="14" lengthAdjust="spacing" textLength="87" x="944" y="1873.3945">: Repositories</text><rect fill="#E3E3E3" height="32.6211" rx="2.5" ry="2.5" style="stroke:#181818;stroke-width:0.5;" width="137" x="1048" y="50"/><text fill="#000000" font-family="sans-serif" font-size="14" lengthAdjust="spacing" textLength="123" x="1055" y="72.1074">: AgencyRepository</text><rect fill="#E3E3E3" height="32.6211" rx="2.5" ry="2.5" style="stroke:#181818;stroke-width:0.5;" width="137" x="1048" y="1851.2871"/><text fill="#000000" font-family="sans-serif" font-size="14" lengthAdjust="spacing" textLength="123" x="1055" y="1873.3945">: AgencyRepository</text><rect fill="#E3E3E3" height="32.6211" rx="2.5" ry="2.5" style="stroke:#181818;stroke-width:0.5;" width="152" x="1195" y="50"/><text fill="#000000" font-family="sans-serif" font-size="14" lengthAdjust="spacing" textLength="138" x="1202" y="72.1074">: EmployeeRepository</text><rect fill="#E3E3E3" height="32.6211" rx="2.5" ry="2.5" style="stroke:#181818;stroke-width:0.5;" width="152" x="1195" y="1851.2871"/><text fill="#000000" font-family="sans-serif" font-size="14" lengthAdjust="spacing" textLength="138" x="1202" y="1873.3945">: EmployeeRepository</text><rect fill="#E3E3E3" height="32.6211" rx="2.5" ry="2.5" style="stroke:#181818;stroke-width:0.5;" width="180" x="1357" y="50"/><text fill="#000000" font-family="sans-serif" font-size="14" lengthAdjust="spacing" textLength="166" x="1364" y="72.1074">: AuthenticationRepository</text><rect fill="#E3E3E3" height="32.6211" rx="2.5" ry="2.5" style="stroke:#181818;stroke-width:0.5;" width="180" x="1357" y="1851.2871"/><text fill="#000000" font-family="sans-serif" font-size="14" lengthAdjust="spacing" textLength="166" x="1364" y="1873.3945">: AuthenticationRepository</text><rect fill="#E3E3E3" height="32.6211" rx="2.5" ry="2.5" style="stroke:#181818;stroke-width:0.5;" width="84" x="1849" y="1851.2871"/><text fill="#000000" font-family="sans-serif" font-size="14" lengthAdjust="spacing" textLength="70" x="1856" y="1873.3945">: Employee</text><rect fill="#E3E3E3" height="32.6211" rx="2.5" ry="2.5" style="stroke:#181818;stroke-width:0.5;" width="70" x="1943" y="1851.2871"/><text fill="#000000" font-family="sans-serif" font-size="14" lengthAdjust="spacing" textLength="56" x="1950" y="1873.3945">Passport</text><rect fill="#E3E3E3" height="32.6211" rx="2.5" ry="2.5" style="stroke:#181818;stroke-width:0.5;" width="66" x="2023" y="1851.2871"/><text fill="#000000" font-family="sans-serif" font-size="14" lengthAdjust="spacing" textLength="52" x="2030" y="1873.3945">Address</text><rect fill="#E3E3E3" height="32.6211" rx="2.5" ry="2.5" style="stroke:#181818;stroke-width:0.5;" width="140" x="2099" y="50"/><text fill="#000000" font-family="sans-serif" font-size="14" lengthAdjust="spacing" textLength="126" x="2106" y="72.1074">PasswordGenerator</text><rect fill="#E3E3E3" height="32.6211" rx="2.5" ry="2.5" style="stroke:#181818;stroke-width:0.5;" width="140" x="2099" y="1851.2871"/><text fill="#000000" font-family="sans-serif" font-size="14" lengthAdjust="spacing" textLength="126" x="2106" y="1873.3945">PasswordGenerator</text><rect fill="#FFFFFF" height="1740.666" style="stroke:#181818;stroke-width:1.0;" width="10" x="69.5" y="93.6211"/><rect fill="#FFFFFF" height="31.291" style="stroke:#181818;stroke-width:1.0;" width="10" x="495.5" y="116.9121"/><rect fill="#FFFFFF" height="57.582" style="stroke:#181818;stroke-width:1.0;" width="10" x="495.5" y="179.4941"/><rect fill="#FFFFFF" height="31.291" style="stroke:#181818;stroke-width:1.0;" width="10" x="495.5" y="268.3672"/><rect fill="#FFFFFF" height="31.291" style="stroke:#181818;stroke-width:1.0;" width="10" x="495.5" y="330.9492"/><rect fill="#FFFFFF" height="31.291" style="stroke:#181818;stroke-width:1.0;" width="10" x="495.5" y="393.5313"/><rect fill="#FFFFFF" height="31.291" style="stroke:#181818;stroke-width:1.0;" width="10" x="495.5" y="456.1133"/><rect fill="#FFFFFF" height="57.582" style="stroke:#181818;stroke-width:1.0;" width="10" x="495.5" y="518.6953"/><rect fill="#FFFFFF" height="170.4551" style="stroke:#181818;stroke-width:1.0;" width="10" x="495.5" y="607.5684"/><rect fill="#FFFFFF" height="31.291" style="stroke:#181818;stroke-width:1.0;" width="10" x="495.5" y="809.3145"/><rect fill="#FFFFFF" height="563.4805" style="stroke:#181818;stroke-width:1.0;" width="10" x="495.5" y="871.8965"/><rect fill="#FFFFFF" height="367.6191" style="stroke:#181818;stroke-width:1.0;" width="10" x="495.5" y="1466.668"/><rect fill="#FFFFFF" height="93.873" style="stroke:#181818;stroke-width:1.0;" width="10" x="822.5" y="652.8594"/><rect fill="#FFFFFF" height="431.7344" style="stroke:#181818;stroke-width:1.0;" width="10" x="822.5" y="972.3516"/><rect fill="#FFFFFF" height="305.0371" style="stroke:#181818;stroke-width:1.0;" width="10" x="822.5" y="1497.959"/><rect fill="#FFFFFF" height="31.291" style="stroke:#181818;stroke-width:1.0;" width="10" x="1111.5" y="684.1504"/><rect fill="#FFFFFF" height="299.9883" style="stroke:#181818;stroke-width:1.0;" width="10" x="1266" y="1072.8066"/><rect fill="#FFFFFF" height="119.873" style="stroke:#181818;stroke-width:1.0;" width="10" x="1266" y="1651.832"/><rect fill="#FFFFFF" height="30" style="stroke:#181818;stroke-width:1.0;" width="10" x="1442" y="1590.541"/><rect fill="#FFFFFF" height="30" style="stroke:#181818;stroke-width:1.0;" width="10" x="2164" y="1529.25"/><polygon fill="#181818" points="483.5,112.9121,493.5,116.9121,483.5,120.9121,487.5,116.9121" style="stroke:#181818;stroke-width:1.0;"/><line style="stroke:#181818;stroke-width:1.0;" x1="79.5" x2="489.5" y1="116.9121" y2="116.9121"/><text fill="#000000" font-family="sans-serif" font-size="13" font-weight="bold" lengthAdjust="spacing" textLength="7" x="86.5" y="111.6494">1</text><text fill="#000000" font-family="sans-serif" font-size="13" lengthAdjust="spacing" textLength="237" x="97.5" y="111.6494">starts the registration of a new Employee</text><polygon fill="#181818" points="90.5,144.2031,80.5,148.2031,90.5,152.2031,86.5,148.2031" style="stroke:#181818;stroke-width:1.0;"/><line style="stroke:#181818;stroke-width:1.0;stroke-dasharray:2.0,2.0;" x1="84.5" x2="499.5" y1="148.2031" y2="148.2031"/><text fill="#000000" font-family="sans-serif" font-size="13" font-weight="bold" lengthAdjust="spacing" textLength="7" x="96.5" y="142.9404">2</text><text fill="#000000" font-family="sans-serif" font-size="13" lengthAdjust="spacing" textLength="381" x="107.5" y="142.9404">requests data (name, Passport, taxNumber, email, phoneNumber)</text><polygon fill="#181818" points="483.5,175.4941,493.5,179.4941,483.5,183.4941,487.5,179.4941" style="stroke:#181818;stroke-width:1.0;"/><line style="stroke:#181818;stroke-width:1.0;" x1="79.5" x2="489.5" y1="179.4941" y2="179.4941"/><text fill="#000000" font-family="sans-serif" font-size="13" font-weight="bold" lengthAdjust="spacing" textLength="7" x="86.5" y="174.2314">3</text><text fill="#000000" font-family="sans-serif" font-size="13" lengthAdjust="spacing" textLength="122" x="97.5" y="174.2314">types requested data</text><path d="M10,194.4941 L75,194.4941 L75,203.7852 L65,213.7852 L10,213.7852 L10,194.4941 " fill="#EEEEEE" style="stroke:#000000;stroke-width:1.5;"/><rect fill="none" height="428.0742" style="stroke:#000000;stroke-width:1.5;" width="585" x="10" y="194.4941"/><text fill="#000000" font-family="sans-serif" font-size="13" font-weight="bold" lengthAdjust="spacing" textLength="20" x="25" y="209.5225">opt</text><text fill="#000000" font-family="sans-serif" font-size="11" font-weight="bold" lengthAdjust="spacing" textLength="185" x="90" y="208.3643">[admin wants to specify address]</text><polygon fill="#181818" points="90.5,233.0762,80.5,237.0762,90.5,241.0762,86.5,237.0762" style="stroke:#181818;stroke-width:1.0;"/><line style="stroke:#181818;stroke-width:1.0;stroke-dasharray:2.0,2.0;" x1="84.5" x2="499.5" y1="237.0762" y2="237.0762"/><text fill="#000000" font-family="sans-serif" font-size="13" font-weight="bold" lengthAdjust="spacing" textLength="7" x="96.5" y="231.8135">4</text><text fill="#000000" font-family="sans-serif" font-size="13" lengthAdjust="spacing" textLength="148" x="107.5" y="231.8135">asks for employee's state</text><polygon fill="#181818" points="483.5,264.3672,493.5,268.3672,483.5,272.3672,487.5,268.3672" style="stroke:#181818;stroke-width:1.0;"/><line style="stroke:#181818;stroke-width:1.0;" x1="79.5" x2="489.5" y1="268.3672" y2="268.3672"/><text fill="#000000" font-family="sans-serif" font-size="13" font-weight="bold" lengthAdjust="spacing" textLength="7" x="86.5" y="263.1045">5</text><text fill="#000000" font-family="sans-serif" font-size="13" lengthAdjust="spacing" textLength="127" x="97.5" y="263.1045">type employee's state</text><polygon fill="#181818" points="90.5,295.6582,80.5,299.6582,90.5,303.6582,86.5,299.6582" style="stroke:#181818;stroke-width:1.0;"/><line style="stroke:#181818;stroke-width:1.0;stroke-dasharray:2.0,2.0;" x1="84.5" x2="499.5" y1="299.6582" y2="299.6582"/><text fill="#000000" font-family="sans-serif" font-size="13" font-weight="bold" lengthAdjust="spacing" textLength="7" x="96.5" y="294.3955">6</text><text fill="#000000" font-family="sans-serif" font-size="13" lengthAdjust="spacing" textLength="140" x="107.5" y="294.3955">asks for employee's city</text><polygon fill="#181818" points="483.5,326.9492,493.5,330.9492,483.5,334.9492,487.5,330.9492" style="stroke:#181818;stroke-width:1.0;"/><line style="stroke:#181818;stroke-width:1.0;" x1="79.5" x2="489.5" y1="330.9492" y2="330.9492"/><text fill="#000000" font-family="sans-serif" font-size="13" font-weight="bold" lengthAdjust="spacing" textLength="7" x="86.5" y="325.6865">7</text><text fill="#000000" font-family="sans-serif" font-size="13" lengthAdjust="spacing" textLength="126" x="97.5" y="325.6865">types employee's city</text><polygon fill="#181818" points="90.5,358.2402,80.5,362.2402,90.5,366.2402,86.5,362.2402" style="stroke:#181818;stroke-width:1.0;"/><line style="stroke:#181818;stroke-width:1.0;stroke-dasharray:2.0,2.0;" x1="84.5" x2="499.5" y1="362.2402" y2="362.2402"/><text fill="#000000" font-family="sans-serif" font-size="13" font-weight="bold" lengthAdjust="spacing" textLength="7" x="96.5" y="356.9775">8</text><text fill="#000000" font-family="sans-serif" font-size="13" lengthAdjust="spacing" textLength="152" x="107.5" y="356.9775">asks for employee's street</text><polygon fill="#181818" points="483.5,389.5313,493.5,393.5313,483.5,397.5313,487.5,393.5313" style="stroke:#181818;stroke-width:1.0;"/><line style="stroke:#181818;stroke-width:1.0;" x1="79.5" x2="489.5" y1="393.5313" y2="393.5313"/><text fill="#000000" font-family="sans-serif" font-size="13" font-weight="bold" lengthAdjust="spacing" textLength="7" x="86.5" y="388.2686">9</text><text fill="#000000" font-family="sans-serif" font-size="13" lengthAdjust="spacing" textLength="138" x="97.5" y="388.2686">types employee's street</text><polygon fill="#181818" points="90.5,420.8223,80.5,424.8223,90.5,428.8223,86.5,424.8223" style="stroke:#181818;stroke-width:1.0;"/><line style="stroke:#181818;stroke-width:1.0;stroke-dasharray:2.0,2.0;" x1="84.5" x2="499.5" y1="424.8223" y2="424.8223"/><text fill="#000000" font-family="sans-serif" font-size="13" font-weight="bold" lengthAdjust="spacing" textLength="14" x="96.5" y="419.5596">10</text><text fill="#000000" font-family="sans-serif" font-size="13" lengthAdjust="spacing" textLength="168" x="114.5" y="419.5596">asks for employee's zip code</text><polygon fill="#181818" points="483.5,452.1133,493.5,456.1133,483.5,460.1133,487.5,456.1133" style="stroke:#181818;stroke-width:1.0;"/><line style="stroke:#181818;stroke-width:1.0;" x1="79.5" x2="489.5" y1="456.1133" y2="456.1133"/><text fill="#000000" font-family="sans-serif" font-size="13" font-weight="bold" lengthAdjust="spacing" textLength="14" x="86.5" y="450.8506">11</text><text fill="#000000" font-family="sans-serif" font-size="13" lengthAdjust="spacing" textLength="154" x="104.5" y="450.8506">types employee's zip code</text><polygon fill="#181818" points="90.5,483.4043,80.5,487.4043,90.5,491.4043,86.5,487.4043" style="stroke:#181818;stroke-width:1.0;"/><line style="stroke:#181818;stroke-width:1.0;stroke-dasharray:2.0,2.0;" x1="84.5" x2="499.5" y1="487.4043" y2="487.4043"/><text fill="#000000" font-family="sans-serif" font-size="13" font-weight="bold" lengthAdjust="spacing" textLength="14" x="96.5" y="482.1416">12</text><text fill="#000000" font-family="sans-serif" font-size="13" lengthAdjust="spacing" textLength="209" x="114.5" y="482.1416">asks if admin wants to add a district</text><polygon fill="#181818" points="483.5,514.6953,493.5,518.6953,483.5,522.6953,487.5,518.6953" style="stroke:#181818;stroke-width:1.0;"/><line style="stroke:#181818;stroke-width:1.0;" x1="79.5" x2="489.5" y1="518.6953" y2="518.6953"/><text fill="#000000" font-family="sans-serif" font-size="13" font-weight="bold" lengthAdjust="spacing" textLength="14" x="86.5" y="513.4326">13</text><text fill="#000000" font-family="sans-serif" font-size="13" lengthAdjust="spacing" textLength="99" x="104.5" y="513.4326">yes or no answer</text><path d="M20,533.6953 L85,533.6953 L85,542.9863 L75,552.9863 L20,552.9863 L20,533.6953 " fill="#EEEEEE" style="stroke:#000000;stroke-width:1.5;"/><rect fill="none" height="81.873" style="stroke:#000000;stroke-width:1.5;" width="565" x="20" y="533.6953"/><text fill="#000000" font-family="sans-serif" font-size="13" font-weight="bold" lengthAdjust="spacing" textLength="20" x="35" y="548.7236">opt</text><text fill="#000000" font-family="sans-serif" font-size="11" font-weight="bold" lengthAdjust="spacing" textLength="158" x="100" y="547.5654">[admin wants to add district]</text><polygon fill="#181818" points="90.5,572.2773,80.5,576.2773,90.5,580.2773,86.5,576.2773" style="stroke:#181818;stroke-width:1.0;"/><line style="stroke:#181818;stroke-width:1.0;stroke-dasharray:2.0,2.0;" x1="84.5" x2="499.5" y1="576.2773" y2="576.2773"/><text fill="#000000" font-family="sans-serif" font-size="13" font-weight="bold" lengthAdjust="spacing" textLength="14" x="96.5" y="571.0146">14</text><text fill="#000000" font-family="sans-serif" font-size="13" lengthAdjust="spacing" textLength="158" x="114.5" y="571.0146">asks for employee's district</text><polygon fill="#181818" points="483.5,603.5684,493.5,607.5684,483.5,611.5684,487.5,607.5684" style="stroke:#181818;stroke-width:1.0;"/><line style="stroke:#181818;stroke-width:1.0;" x1="79.5" x2="489.5" y1="607.5684" y2="607.5684"/><text fill="#000000" font-family="sans-serif" font-size="13" font-weight="bold" lengthAdjust="spacing" textLength="14" x="86.5" y="602.3057">15</text><text fill="#000000" font-family="sans-serif" font-size="13" lengthAdjust="spacing" textLength="137" x="104.5" y="602.3057">type employee's district</text><polygon fill="#181818" points="810.5,648.8594,820.5,652.8594,810.5,656.8594,814.5,652.8594" style="stroke:#181818;stroke-width:1.0;"/><line style="stroke:#181818;stroke-width:1.0;" x1="505.5" x2="816.5" y1="652.8594" y2="652.8594"/><text fill="#000000" font-family="sans-serif" font-size="13" font-weight="bold" lengthAdjust="spacing" textLength="14" x="512.5" y="647.5967">16</text><text fill="#000000" font-family="sans-serif" font-size="13" lengthAdjust="spacing" textLength="80" x="530.5" y="647.5967">getAgencies()</text><polygon fill="#181818" points="1099.5,680.1504,1109.5,684.1504,1099.5,688.1504,1103.5,684.1504" style="stroke:#181818;stroke-width:1.0;"/><line style="stroke:#181818;stroke-width:1.0;" x1="832.5" x2="1105.5" y1="684.1504" y2="684.1504"/><text fill="#000000" font-family="sans-serif" font-size="13" font-weight="bold" lengthAdjust="spacing" textLength="14" x="839.5" y="678.8877">17</text><text fill="#000000" font-family="sans-serif" font-size="13" lengthAdjust="spacing" textLength="80" x="857.5" y="678.8877">getAgencies()</text><polygon fill="#181818" points="843.5,711.4414,833.5,715.4414,843.5,719.4414,839.5,715.4414" style="stroke:#181818;stroke-width:1.0;"/><line style="stroke:#181818;stroke-width:1.0;stroke-dasharray:2.0,2.0;" x1="837.5" x2="1115.5" y1="715.4414" y2="715.4414"/><text fill="#000000" font-family="sans-serif" font-size="13" font-weight="bold" lengthAdjust="spacing" textLength="14" x="849.5" y="710.1787">18</text><text fill="#000000" font-family="sans-serif" font-size="13" lengthAdjust="spacing" textLength="52" x="867.5" y="710.1787">agencies</text><polygon fill="#181818" points="516.5,742.7324,506.5,746.7324,516.5,750.7324,512.5,746.7324" style="stroke:#181818;stroke-width:1.0;"/><line style="stroke:#181818;stroke-width:1.0;stroke-dasharray:2.0,2.0;" x1="510.5" x2="826.5" y1="746.7324" y2="746.7324"/><text fill="#000000" font-family="sans-serif" font-size="13" font-weight="bold" lengthAdjust="spacing" textLength="14" x="522.5" y="741.4697">19</text><text fill="#000000" font-family="sans-serif" font-size="13" lengthAdjust="spacing" textLength="52" x="540.5" y="741.4697">agencies</text><polygon fill="#181818" points="90.5,774.0234,80.5,778.0234,90.5,782.0234,86.5,778.0234" style="stroke:#181818;stroke-width:1.0;"/><line style="stroke:#181818;stroke-width:1.0;stroke-dasharray:2.0,2.0;" x1="84.5" x2="499.5" y1="778.0234" y2="778.0234"/><text fill="#000000" font-family="sans-serif" font-size="13" font-weight="bold" lengthAdjust="spacing" textLength="14" x="96.5" y="772.7607">20</text><text fill="#000000" font-family="sans-serif" font-size="13" lengthAdjust="spacing" textLength="177" x="114.5" y="772.7607">shows list of existing agencies</text><polygon fill="#181818" points="483.5,805.3145,493.5,809.3145,483.5,813.3145,487.5,809.3145" style="stroke:#181818;stroke-width:1.0;"/><line style="stroke:#181818;stroke-width:1.0;" x1="79.5" x2="489.5" y1="809.3145" y2="809.3145"/><text fill="#000000" font-family="sans-serif" font-size="13" font-weight="bold" lengthAdjust="spacing" textLength="14" x="86.5" y="804.0518">21</text><text fill="#000000" font-family="sans-serif" font-size="13" lengthAdjust="spacing" textLength="106" x="104.5" y="804.0518">selects an agency</text><polygon fill="#181818" points="90.5,836.6055,80.5,840.6055,90.5,844.6055,86.5,840.6055" style="stroke:#181818;stroke-width:1.0;"/><line style="stroke:#181818;stroke-width:1.0;stroke-dasharray:2.0,2.0;" x1="84.5" x2="499.5" y1="840.6055" y2="840.6055"/><text fill="#000000" font-family="sans-serif" font-size="13" font-weight="bold" lengthAdjust="spacing" textLength="14" x="96.5" y="835.3428">22</text><text fill="#000000" font-family="sans-serif" font-size="13" lengthAdjust="spacing" textLength="69" x="114.5" y="835.3428">shows roles</text><polygon fill="#181818" points="483.5,867.8965,493.5,871.8965,483.5,875.8965,487.5,871.8965" style="stroke:#181818;stroke-width:1.0;"/><line style="stroke:#181818;stroke-width:1.0;" x1="79.5" x2="489.5" y1="871.8965" y2="871.8965"/><text fill="#000000" font-family="sans-serif" font-size="13" font-weight="bold" lengthAdjust="spacing" textLength="14" x="86.5" y="866.6338">23</text><text fill="#000000" font-family="sans-serif" font-size="13" lengthAdjust="spacing" textLength="96" x="104.5" y="866.6338">chooses the role</text><polygon fill="#181818" points="810.5,968.3516,820.5,972.3516,810.5,976.3516,814.5,972.3516" style="stroke:#181818;stroke-width:1.0;"/><line style="stroke:#181818;stroke-width:1.0;" x1="505.5" x2="816.5" y1="972.3516" y2="972.3516"/><text fill="#000000" font-family="sans-serif" font-size="13" font-weight="bold" lengthAdjust="spacing" textLength="14" x="512.5" y="932.5068">24</text><text fill="#000000" font-family="sans-serif" font-size="13" lengthAdjust="spacing" textLength="168" x="530.5" y="897.9248">create(email, name, position,</text><text fill="#000000" font-family="sans-serif" font-size="13" lengthAdjust="spacing" textLength="187" x="530.5" y="915.2158">phoneNumber, passportNumber,</text><text fill="#000000" font-family="sans-serif" font-size="13" lengthAdjust="spacing" textLength="260" x="530.5" y="932.5068">passportDateOfIssue, passportDateOfExpiry,</text><text fill="#000000" font-family="sans-serif" font-size="13" lengthAdjust="spacing" textLength="276" x="530.5" y="949.7979">state, city, district, street, zipCode, taxNumber,</text><text fill="#000000" font-family="sans-serif" font-size="13" lengthAdjust="spacing" textLength="81" x="530.5" y="967.0889">storeAddress)</text><polygon fill="#181818" points="1254,1068.8066,1264,1072.8066,1254,1076.8066,1258,1072.8066" style="stroke:#181818;stroke-width:1.0;"/><line style="stroke:#181818;stroke-width:1.0;" x1="832.5" x2="1260" y1="1072.8066" y2="1072.8066"/><text fill="#000000" font-family="sans-serif" font-size="13" font-weight="bold" lengthAdjust="spacing" textLength="14" x="839.5" y="1032.9619">25</text><text fill="#000000" font-family="sans-serif" font-size="13" lengthAdjust="spacing" textLength="168" x="857.5" y="998.3799">create(email, name, position,</text><text fill="#000000" font-family="sans-serif" font-size="13" lengthAdjust="spacing" textLength="187" x="857.5" y="1015.6709">phoneNumber, passportNumber,</text><text fill="#000000" font-family="sans-serif" font-size="13" lengthAdjust="spacing" textLength="260" x="857.5" y="1032.9619">passportDateOfIssue, passportDateOfExpiry,</text><text fill="#000000" font-family="sans-serif" font-size="13" lengthAdjust="spacing" textLength="276" x="857.5" y="1050.2529">state, city, district, street, zipCode, taxNumber,</text><text fill="#000000" font-family="sans-serif" font-size="13" lengthAdjust="spacing" textLength="81" x="857.5" y="1067.5439">storeAddress)</text><polygon fill="#181818" points="1931,1100.0977,1941,1104.0977,1931,1108.0977,1935,1104.0977" style="stroke:#181818;stroke-width:1.0;"/><line style="stroke:#181818;stroke-width:1.0;" x1="1276" x2="1937" y1="1104.0977" y2="1104.0977"/><text fill="#000000" font-family="sans-serif" font-size="13" font-weight="bold" lengthAdjust="spacing" textLength="14" x="1283" y="1098.835">26</text><text fill="#000000" font-family="sans-serif" font-size="13" lengthAdjust="spacing" textLength="403" x="1301" y="1098.835">create(passportNumber, passportDateOfIssue, passportDateOfExpiry)</text><rect fill="#E3E3E3" height="32.6211" rx="2.5" ry="2.5" style="stroke:#181818;stroke-width:0.5;" width="70" x="1943" y="1080.8066"/><text fill="#000000" font-family="sans-serif" font-size="14" lengthAdjust="spacing" textLength="56" x="1950" y="1102.9141">Passport</text><path d="M1185,1131.4277 L1246,1131.4277 L1246,1140.7188 L1236,1150.7188 L1185,1150.7188 L1185,1131.4277 " fill="#EEEEEE" style="stroke:#000000;stroke-width:1.5;"/><rect fill="none" height="123.1641" style="stroke:#000000;stroke-width:1.5;" width="914" x="1185" y="1131.4277"/><text fill="#000000" font-family="sans-serif" font-size="13" font-weight="bold" lengthAdjust="spacing" textLength="16" x="1200" y="1146.4561">alt</text><text fill="#000000" font-family="sans-serif" font-size="11" font-weight="bold" lengthAdjust="spacing" textLength="132" x="1261" y="1145.2979">[address was provided]</text><polygon fill="#181818" points="2011,1170.0098,2021,1174.0098,2011,1178.0098,2015,1174.0098" style="stroke:#181818;stroke-width:1.0;"/><line style="stroke:#181818;stroke-width:1.0;" x1="1276" x2="2017" y1="1174.0098" y2="1174.0098"/><text fill="#000000" font-family="sans-serif" font-size="13" font-weight="bold" lengthAdjust="spacing" textLength="14" x="1283" y="1168.7471">27</text><text fill="#000000" font-family="sans-serif" font-size="13" lengthAdjust="spacing" textLength="245" x="1301" y="1168.7471">create(state, city, district, street, zipCode)</text><rect fill="#E3E3E3" height="32.6211" rx="2.5" ry="2.5" style="stroke:#181818;stroke-width:0.5;" width="66" x="2023" y="1150.7188"/><text fill="#000000" font-family="sans-serif" font-size="14" lengthAdjust="spacing" textLength="52" x="2030" y="1172.8262">Address</text><line style="stroke:#000000;stroke-width:1.0;stroke-dasharray:2.0,2.0;" x1="1185" x2="2099" y1="1195.3398" y2="1195.3398"/><text fill="#000000" font-family="sans-serif" font-size="11" font-weight="bold" lengthAdjust="spacing" textLength="153" x="1190" y="1207.21">[address was not provided]</text><polygon fill="#181818" points="2011,1230.2617,2021,1234.2617,2011,1238.2617,2015,1234.2617" style="stroke:#181818;stroke-width:1.0;"/><line style="stroke:#181818;stroke-width:1.0;" x1="1276" x2="2017" y1="1234.2617" y2="1234.2617"/><text fill="#000000" font-family="sans-serif" font-size="13" font-weight="bold" lengthAdjust="spacing" textLength="14" x="1283" y="1228.999">28</text><text fill="#000000" font-family="sans-serif" font-size="13" lengthAdjust="spacing" textLength="20" x="1301" y="1228.999">null</text><rect fill="#E3E3E3" height="32.6211" rx="2.5" ry="2.5" style="stroke:#181818;stroke-width:0.5;" width="66" x="2023" y="1210.9707"/><text fill="#000000" font-family="sans-serif" font-size="14" lengthAdjust="spacing" textLength="52" x="2030" y="1233.0781">Address</text><polygon fill="#181818" points="1837,1280.8828,1847,1284.8828,1837,1288.8828,1841,1284.8828" style="stroke:#181818;stroke-width:1.0;"/><line style="stroke:#181818;stroke-width:1.0;" x1="1276" x2="1843" y1="1284.8828" y2="1284.8828"/><text fill="#000000" font-family="sans-serif" font-size="13" font-weight="bold" lengthAdjust="spacing" textLength="14" x="1283" y="1279.6201">29</text><text fill="#000000" font-family="sans-serif" font-size="13" lengthAdjust="spacing" textLength="531" x="1301" y="1279.6201">create(email, name, phoneNumber, employeePassport, employeeAddress, taxNumber, role)</text><rect fill="#E3E3E3" height="32.6211" rx="2.5" ry="2.5" style="stroke:#181818;stroke-width:0.5;" width="84" x="1849" y="1261.5918"/><text fill="#000000" font-family="sans-serif" font-size="14" lengthAdjust="spacing" textLength="70" x="1856" y="1283.6992">: Employee</text><line style="stroke:#181818;stroke-width:1.0;" x1="1276" x2="1318" y1="1328.5039" y2="1328.5039"/><line style="stroke:#181818;stroke-width:1.0;" x1="1318" x2="1318" y1="1328.5039" y2="1341.5039"/><line style="stroke:#181818;stroke-width:1.0;" x1="1277" x2="1318" y1="1341.5039" y2="1341.5039"/><polygon fill="#181818" points="1287,1337.5039,1277,1341.5039,1287,1345.5039,1283,1341.5039" style="stroke:#181818;stroke-width:1.0;"/><text fill="#000000" font-family="sans-serif" font-size="13" font-weight="bold" lengthAdjust="spacing" textLength="14" x="1283" y="1323.2412">30</text><text fill="#000000" font-family="sans-serif" font-size="13" lengthAdjust="spacing" textLength="134" x="1301" y="1323.2412">validateEmployee(emp)</text><polygon fill="#181818" points="843.5,1368.7949,833.5,1372.7949,843.5,1376.7949,839.5,1372.7949" style="stroke:#181818;stroke-width:1.0;"/><line style="stroke:#181818;stroke-width:1.0;stroke-dasharray:2.0,2.0;" x1="837.5" x2="1270" y1="1372.7949" y2="1372.7949"/><text fill="#000000" font-family="sans-serif" font-size="13" font-weight="bold" lengthAdjust="spacing" textLength="14" x="849.5" y="1367.5322">31</text><text fill="#000000" font-family="sans-serif" font-size="13" lengthAdjust="spacing" textLength="25" x="867.5" y="1367.5322">emp</text><polygon fill="#181818" points="516.5,1400.0859,506.5,1404.0859,516.5,1408.0859,512.5,1404.0859" style="stroke:#181818;stroke-width:1.0;"/><line style="stroke:#181818;stroke-width:1.0;stroke-dasharray:2.0,2.0;" x1="510.5" x2="826.5" y1="1404.0859" y2="1404.0859"/><text fill="#000000" font-family="sans-serif" font-size="13" font-weight="bold" lengthAdjust="spacing" textLength="14" x="522.5" y="1398.8232">32</text><text fill="#000000" font-family="sans-serif" font-size="13" lengthAdjust="spacing" textLength="25" x="540.5" y="1398.8232">emp</text><polygon fill="#181818" points="90.5,1431.377,80.5,1435.377,90.5,1439.377,86.5,1435.377" style="stroke:#181818;stroke-width:1.0;"/><line style="stroke:#181818;stroke-width:1.0;stroke-dasharray:2.0,2.0;" x1="84.5" x2="499.5" y1="1435.377" y2="1435.377"/><text fill="#000000" font-family="sans-serif" font-size="13" font-weight="bold" lengthAdjust="spacing" textLength="14" x="96.5" y="1430.1143">33</text><text fill="#000000" font-family="sans-serif" font-size="13" lengthAdjust="spacing" textLength="226" x="114.5" y="1430.1143">shows data and asks for a confirmation</text><polygon fill="#181818" points="483.5,1462.668,493.5,1466.668,483.5,1470.668,487.5,1466.668" style="stroke:#181818;stroke-width:1.0;"/><line style="stroke:#181818;stroke-width:1.0;" x1="79.5" x2="489.5" y1="1466.668" y2="1466.668"/><text fill="#000000" font-family="sans-serif" font-size="13" font-weight="bold" lengthAdjust="spacing" textLength="14" x="86.5" y="1461.4053">34</text><text fill="#000000" font-family="sans-serif" font-size="13" lengthAdjust="spacing" textLength="49" x="104.5" y="1461.4053">confirms</text><polygon fill="#181818" points="810.5,1493.959,820.5,1497.959,810.5,1501.959,814.5,1497.959" style="stroke:#181818;stroke-width:1.0;"/><line style="stroke:#181818;stroke-width:1.0;" x1="505.5" x2="816.5" y1="1497.959" y2="1497.959"/><text fill="#000000" font-family="sans-serif" font-size="13" font-weight="bold" lengthAdjust="spacing" textLength="14" x="512.5" y="1492.6963">35</text><text fill="#000000" font-family="sans-serif" font-size="13" lengthAdjust="spacing" textLength="34" x="530.5" y="1492.6963">save()</text><polygon fill="#181818" points="2152,1525.25,2162,1529.25,2152,1533.25,2156,1529.25" style="stroke:#181818;stroke-width:1.0;"/><line style="stroke:#181818;stroke-width:1.0;" x1="832.5" x2="2158" y1="1529.25" y2="1529.25"/><text fill="#000000" font-family="sans-serif" font-size="13" font-weight="bold" lengthAdjust="spacing" textLength="14" x="839.5" y="1523.9873">36</text><text fill="#000000" font-family="sans-serif" font-size="13" lengthAdjust="spacing" textLength="189" x="857.5" y="1523.9873">passwordGenerated = generate()</text><polygon fill="#181818" points="1430,1586.541,1440,1590.541,1430,1594.541,1434,1590.541" style="stroke:#181818;stroke-width:1.0;"/><line style="stroke:#181818;stroke-width:1.0;" x1="832.5" x2="1436" y1="1590.541" y2="1590.541"/><text fill="#000000" font-family="sans-serif" font-size="13" font-weight="bold" lengthAdjust="spacing" textLength="14" x="839.5" y="1585.2783">37</text><text fill="#000000" font-family="sans-serif" font-size="13" lengthAdjust="spacing" textLength="506" x="857.5" y="1585.2783">addUserWithRole(emp.getName(), emp.getEmail(), passwordGenerated, emp.getRole())</text><polygon fill="#181818" points="1254,1647.832,1264,1651.832,1254,1655.832,1258,1651.832" style="stroke:#181818;stroke-width:1.0;"/><line style="stroke:#181818;stroke-width:1.0;" x1="832.5" x2="1260" y1="1651.832" y2="1651.832"/><text fill="#000000" font-family="sans-serif" font-size="13" font-weight="bold" lengthAdjust="spacing" textLength="14" x="839.5" y="1646.5693">38</text><text fill="#000000" font-family="sans-serif" font-size="13" lengthAdjust="spacing" textLength="59" x="857.5" y="1646.5693">save(emp)</text><line style="stroke:#181818;stroke-width:1.0;" x1="1276" x2="1318" y1="1683.123" y2="1683.123"/><line style="stroke:#181818;stroke-width:1.0;" x1="1318" x2="1318" y1="1683.123" y2="1696.123"/><line style="stroke:#181818;stroke-width:1.0;" x1="1277" x2="1318" y1="1696.123" y2="1696.123"/><polygon fill="#181818" points="1287,1692.123,1277,1696.123,1287,1700.123,1283,1696.123" style="stroke:#181818;stroke-width:1.0;"/><text fill="#000000" font-family="sans-serif" font-size="13" font-weight="bold" lengthAdjust="spacing" textLength="14" x="1283" y="1677.8604">39</text><text fill="#000000" font-family="sans-serif" font-size="13" lengthAdjust="spacing" textLength="134" x="1301" y="1677.8604">validateEmployee(emp)</text><line style="stroke:#181818;stroke-width:1.0;" x1="1276" x2="1318" y1="1727.4141" y2="1727.4141"/><line style="stroke:#181818;stroke-width:1.0;" x1="1318" x2="1318" y1="1727.4141" y2="1740.4141"/><line style="stroke:#181818;stroke-width:1.0;" x1="1277" x2="1318" y1="1740.4141" y2="1740.4141"/><polygon fill="#181818" points="1287,1736.4141,1277,1740.4141,1287,1744.4141,1283,1740.4141" style="stroke:#181818;stroke-width:1.0;"/><text fill="#000000" font-family="sans-serif" font-size="13" font-weight="bold" lengthAdjust="spacing" textLength="14" x="1283" y="1722.1514">40</text><text fill="#000000" font-family="sans-serif" font-size="13" lengthAdjust="spacing" textLength="54" x="1301" y="1722.1514">add(emp)</text><polygon fill="#181818" points="843.5,1767.7051,833.5,1771.7051,843.5,1775.7051,839.5,1771.7051" style="stroke:#181818;stroke-width:1.0;"/><line style="stroke:#181818;stroke-width:1.0;stroke-dasharray:2.0,2.0;" x1="837.5" x2="1270" y1="1771.7051" y2="1771.7051"/><text fill="#000000" font-family="sans-serif" font-size="13" font-weight="bold" lengthAdjust="spacing" textLength="14" x="849.5" y="1766.4424">41</text><text fill="#000000" font-family="sans-serif" font-size="13" lengthAdjust="spacing" textLength="25" x="867.5" y="1766.4424">emp</text><polygon fill="#181818" points="516.5,1798.9961,506.5,1802.9961,516.5,1806.9961,512.5,1802.9961" style="stroke:#181818;stroke-width:1.0;"/><line style="stroke:#181818;stroke-width:1.0;stroke-dasharray:2.0,2.0;" x1="510.5" x2="826.5" y1="1802.9961" y2="1802.9961"/><text fill="#000000" font-family="sans-serif" font-size="13" font-weight="bold" lengthAdjust="spacing" textLength="14" x="522.5" y="1797.7334">42</text><text fill="#000000" font-family="sans-serif" font-size="13" lengthAdjust="spacing" textLength="25" x="540.5" y="1797.7334">emp</text><polygon fill="#181818" points="85.5,1830.2871,75.5,1834.2871,85.5,1838.2871,81.5,1834.2871" style="stroke:#181818;stroke-width:1.0;"/><line style="stroke:#181818;stroke-width:1.0;stroke-dasharray:2.0,2.0;" x1="79.5" x2="499.5" y1="1834.2871" y2="1834.2871"/><text fill="#000000" font-family="sans-serif" font-size="13" font-weight="bold" lengthAdjust="spacing" textLength="14" x="91.5" y="1829.0244">43</text><text fill="#000000" font-family="sans-serif" font-size="13" lengthAdjust="spacing" textLength="224" x="109.5" y="1829.0244">new employee registered with success</text><!--SRC=[rLV9Rjim4BthAmQvD0wKVa201WYIeCYX2re4lVJ2I6EBY4Ig91r7_Ve-KeifoKlSddem898pRnOEtupjirIrCAAYIYkT5KPNJCwiER73IIsoPx7YxwufcGndJgXL6GlOGkHw8zMAbgAqd2HYxRHQLqziakHT8NEcfTRkIRyc8dFQqDbDNaabhJC2opCIbcxkFYL0SpAJjL2Epgxe6wyWmkQ-galTC3y-1Cd7XsE2jreveykIM-ZjSgvOQolXWcGRHFt6LEXcnIfh1j6cTNVOd8htJamKvjipEsjNiCAES5AhYJeoMkopDC9FV8hbYt0SKeeVNLuZPtH5P1q0BC4Chd7LfX-cI2z9aEBD5cJ0GBAXUma8ZtG5lLzhjW39XHDqhaJ5ANqLrjRQk9ISUFqSxZqbheGiKweBhRZTMoGvny2nRwwfsVRed0VuaHU9hXq9NpQqGVo8GfEjEPFB1jkvOMkJiQl2FblKdO4dRLJlhC-0uuaRCp_c2YFneqOowPfZDknCuJGRk3jcTvALJkKqExzbJPdE-IHBWz8HMt8vlL7S94enzwKfiuFXDJ09LnLqbDtWQHyh5Wyz01yFV8yFTB1Q1gMHCwnoWaFHHsl_Ec8cWAtO1LO15vqljWWHUoL9fE2z7qXeltf4L4aaVpcrBZhTEDvODxRSXxzB9tPtb6HRw8sb4XdoVCEl-F0TOnV6zAujb-Ww847LYXzwBAqPU70OCYkqjjnn8OJ7YBkk9pECu_EErbhY2nGD1atffug83WST8_Ph77SxTm3vidomTirRiNRp_hMMfl72WNNIm0lfK5Hfzu9J_xvkyRn6TEkLjE6RbWhVLZ_pdlGVnxcZmIOx0aJOVRkwkDY6EmtapM4iq71BrxSWq8sbskWNp3pvFlkTxx7vjoK2jXZprSYOqkuaWsfTbYqJmUrz2lrkxEAu8E8Yw0bmEmRqEvtXqGNwrxOuPdXKaI-Yb9W7k3-4ApKGTa9CNor4OnhOLIGxgMsYTuJLmZ0aV4xxJYBG0DLIcYfCM0UPg9MpSqwRX6B52-zh3EDtxIzYeqt-aHM72HlQzNWF8zO7j8psEqQTwSQ-pmydblsOwXj3dZzQDZ-aAxxXkls5lKT_-epQEL-4yl3BUrzHVZtpRH09sel8lJ07Hnw5zLjeBMGl5CvVCCOfPNa20j9qGEalIlbVAjdF__sxxVuUi46PR729PDTP5YRiSI77imB-RFm1]--></g></svg>