<?xml version="1.0" encoding="us-ascii" standalone="no"?><svg xmlns="http://www.w3.org/2000/svg" xmlns:xlink="http://www.w3.org/1999/xlink" contentStyleType="text/css" height="470px" preserveAspectRatio="none" style="width:510px;height:470px;background:#FFFFFF;" version="1.1" viewBox="0 0 510 470" width="510px" zoomAndPan="magnify"><defs/><g><text fill="#000000" font-family="sans-serif" font-size="14" font-weight="bold" lengthAdjust="spacing" textLength="147" x="174.75" y="25.1074">Domain Model US003</text><!--class SystemAdministrator--><g id="elem_SystemAdministrator"><rect codeLine="12" fill="#F1F1F1" height="36.6211" id="SystemAdministrator" rx="2.5" ry="2.5" style="stroke:#181818;stroke-width:0.5;" width="135" x="261" y="46.6211"/><text fill="#000000" font-family="sans-serif" font-size="14" lengthAdjust="spacing" textLength="129" x="264" y="66.7285">SystemAdministrator</text><line style="stroke:#181818;stroke-width:0.5;" x1="262" x2="395" y1="75.2422" y2="75.2422"/></g><!--class Employee--><g id="elem_Employee"><rect codeLine="15" fill="#F1F1F1" height="92.4844" id="Employee" rx="2.5" ry="2.5" style="stroke:#181818;stroke-width:0.5;" width="136" x="260.5" y="162.6211"/><text fill="#000000" font-family="sans-serif" font-size="14" lengthAdjust="spacing" textLength="62" x="297.5" y="182.7285">Employee</text><line style="stroke:#181818;stroke-width:0.5;" x1="261.5" x2="395.5" y1="191.2422" y2="191.2422"/><text fill="#000000" font-family="sans-serif" font-size="14" lengthAdjust="spacing" textLength="124" x="266.5" y="210.3496">-citizenCardNumber</text><text fill="#000000" font-family="sans-serif" font-size="14" lengthAdjust="spacing" textLength="72" x="266.5" y="228.9707">-taxNumber</text><text fill="#000000" font-family="sans-serif" font-size="14" lengthAdjust="spacing" textLength="94" x="266.5" y="247.5918">-phoneNumber</text></g><!--class Location--><g id="elem_Address"><rect codeLine="21" fill="#F1F1F1" height="129.7266" id="Address" rx="2.5" ry="2.5" style="stroke:#181818;stroke-width:0.5;" width="68" x="294.5" y="333.6211"/><text fill="#000000" font-family="sans-serif" font-size="14" lengthAdjust="spacing" textLength="52" x="302.5" y="353.7285">Address</text><line style="stroke:#181818;stroke-width:0.5;" x1="295.5" x2="361.5" y1="362.2422" y2="362.2422"/><text fill="#000000" font-family="sans-serif" font-size="14" lengthAdjust="spacing" textLength="41" x="300.5" y="381.3496">-street</text><text fill="#000000" font-family="sans-serif" font-size="14" lengthAdjust="spacing" textLength="26" x="300.5" y="399.9707">-city</text><text fill="#000000" font-family="sans-serif" font-size="14" lengthAdjust="spacing" textLength="46" x="300.5" y="418.5918">-district</text><text fill="#000000" font-family="sans-serif" font-size="14" lengthAdjust="spacing" textLength="36" x="300.5" y="437.2129">-state</text><text fill="#000000" font-family="sans-serif" font-size="14" lengthAdjust="spacing" textLength="56" x="300.5" y="455.834">-zipCode</text></g><!--class Agency--><g id="elem_Agency"><rect codeLine="29" fill="#F1F1F1" height="92.4844" id="Agency" rx="2.5" ry="2.5" style="stroke:#181818;stroke-width:0.5;" width="106" x="397.5" y="352.6211"/><text fill="#000000" font-family="sans-serif" font-size="14" lengthAdjust="spacing" textLength="47" x="427" y="372.7285">Agency</text><line style="stroke:#181818;stroke-width:0.5;" x1="398.5" x2="502.5" y1="381.2422" y2="381.2422"/><text fill="#000000" font-family="sans-serif" font-size="14" lengthAdjust="spacing" textLength="78" x="403.5" y="400.3496">-designation</text><text fill="#000000" font-family="sans-serif" font-size="14" lengthAdjust="spacing" textLength="38" x="403.5" y="418.9707">-email</text><text fill="#000000" font-family="sans-serif" font-size="14" lengthAdjust="spacing" textLength="94" x="403.5" y="437.5918">-phoneNumber</text></g><!--class Role--><g id="elem_Role"><rect codeLine="35" fill="#F1F1F1" height="36.6211" id="Role" rx="2.5" ry="2.5" style="stroke:#181818;stroke-width:0.5;" width="35" x="7" y="380.1211"/><text fill="#000000" font-family="sans-serif" font-size="14" lengthAdjust="spacing" textLength="29" x="10" y="400.2285">Role</text><line style="stroke:#181818;stroke-width:0.5;" x1="8" x2="41" y1="408.7422" y2="408.7422"/></g><g id="elem_GMN7"><path d="M77.5,359.1211 L77.5,394.6211 L42.22,398.6211 L77.5,402.6211 L77.5,438.2852 A0,0 0 0 0 77.5,438.2852 L259.5,438.2852 A0,0 0 0 0 259.5,438.2852 L259.5,369.1211 L249.5,359.1211 L77.5,359.1211 A0,0 0 0 0 77.5,359.1211 " fill="#FAFAFA" style="stroke:#181818;stroke-width:0.5;"/><path d="M249.5,359.1211 L249.5,369.1211 L259.5,369.1211 L249.5,359.1211 " fill="#FAFAFA" style="stroke:#181818;stroke-width:0.5;"/><text fill="#000000" font-family="sans-serif" font-size="13" lengthAdjust="spacing" textLength="75" x="83.5" y="378.1494">- description:</text><text fill="#000000" font-family="sans-serif" font-size="13" lengthAdjust="spacing" textLength="47" x="99.5" y="395.4404">1- agent</text><text fill="#000000" font-family="sans-serif" font-size="13" lengthAdjust="spacing" textLength="94" x="99.5" y="412.7314">2- storeManager</text><text fill="#000000" font-family="sans-serif" font-size="13" lengthAdjust="spacing" textLength="145" x="99.5" y="430.0225">3- storeNetWorkManager</text></g><!--link SystemAdministrator to Employee--><g id="link_SystemAdministrator_Employee"><path codeLine="45" d="M328.5,83.7511 C328.5,103.3111 328.5,135.6311 328.5,162.3611 " fill="none" id="SystemAdministrator-Employee" style="stroke:#181818;stroke-width:1.0;"/><polygon fill="#000000" points="333.5,128.2666,336.4389,119.2215,330.5611,119.2215,333.5,128.2666" style="stroke:#000000;stroke-width:1.0;"/><text fill="#000000" font-family="sans-serif" font-size="13" lengthAdjust="spacing" textLength="50" x="342.5" y="128.6494">registers</text><text fill="#000000" font-family="sans-serif" font-size="13" lengthAdjust="spacing" textLength="7" x="320.5594" y="105.1606">1</text><text fill="#000000" font-family="sans-serif" font-size="13" lengthAdjust="spacing" textLength="5" x="323.1328" y="151.3323">*</text></g><!--link Employee to Agency--><g id="link_Employee_Agency"><path codeLine="46" d="M357.72,254.6511 C376.9,284.2011 401.88,322.7011 421.09,352.3111 " fill="none" id="Employee-Agency" style="stroke:#181818;stroke-width:1.0;"/><polygon fill="#000000" points="391.7784,290.0722,394.2365,299.2597,399.1672,296.0602,391.7784,290.0722" style="stroke:#000000;stroke-width:1.0;"/><text fill="#000000" font-family="sans-serif" font-size="13" lengthAdjust="spacing" textLength="49" x="403.5" y="299.6494">employs</text><text fill="#000000" font-family="sans-serif" font-size="13" lengthAdjust="spacing" textLength="5" x="356.8115" y="277.0145">*</text><text fill="#000000" font-family="sans-serif" font-size="13" lengthAdjust="spacing" textLength="7" x="409.2563" y="341.275">1</text></g><!--link Employee to Location--><g id="link_Employee_Address"><path codeLine="47" d="M328.5,254.6511 C328.5,278.2211 328.5,307.5011 328.5,333.4011 " fill="none" id="Employee-Address" style="stroke:#181818;stroke-width:1.0;"/><text fill="#000000" font-family="sans-serif" font-size="13" lengthAdjust="spacing" textLength="7" x="320.9641" y="277.0145">1</text><text fill="#000000" font-family="sans-serif" font-size="13" lengthAdjust="spacing" textLength="7" x="321.1172" y="322.3972">1</text></g><!--link Employee to Role--><g id="link_Employee_Role"><path codeLine="48" d="M260.25,227.7911 C201.31,246.3411 116.82,280.1011 59.5,333.6211 C45.8,346.4111 36.24,365.8011 30.62,379.8911 " fill="none" id="Employee-Role" style="stroke:#181818;stroke-width:1.0;"/><text fill="#000000" font-family="sans-serif" font-size="13" lengthAdjust="spacing" textLength="5" x="247.5117" y="225.9759">*</text><text fill="#000000" font-family="sans-serif" font-size="13" lengthAdjust="spacing" textLength="5" x="26.6834" y="369.019">*</text></g><!--SRC=[VLB1JiCm3BtdAwmUaIfjx3OXf0auSDWEL8XpbdXjj2Ik4a_G8VuTj-kw8H2vn7tlzTdkQzwxsEga0mIAP9f40O7J0LMUc5QRlQwnuiuZ93IiO-sl1RdHbjvTh66dVKPrHHclSrun9xSzC3uRYfKx8ioKQfn5C2uPiHhgWDoGpKgnOsdqI46x26kowE6rciqMIWrkK7MPCQniSD5bJfefmQVwEjDFeVNK8Ge6Saffmj8pFkXaDuUmnJJYh3z-FBSDHHoHoMrbRKAvpsRI494lpjrOsduKPtYIQSQnFhhsGRQuygmnccwoj9XT7JKxYYE2ihh_RweNydZQEH9BAAvk66Wtu1TNarpRkou7g3_p4YJ9o1DmsuzA2TSw2f4cV37Y6-GtIlipZT52tr6flq8evWMK9HGtnIM4fVmnjIWmPRXN4znhUgcyCNwDfMpTandkhcJpeYm7qIc6tmPo3Kj_0m00]--></g></svg>