<?xml version="1.0" encoding="us-ascii" standalone="no"?><svg xmlns="http://www.w3.org/2000/svg" xmlns:xlink="http://www.w3.org/1999/xlink" contentStyleType="text/css" height="1977px" preserveAspectRatio="none" style="width:2359px;height:1977px;background:#FFFFFF;" version="1.1" viewBox="0 0 2359 1977" width="2359px" zoomAndPan="magnify"><defs/><g><rect fill="#FFFFFF" height="1789.0938" style="stroke:#181818;stroke-width:1.0;" width="10" x="76" y="90.6406"/><rect fill="#FFFFFF" height="311.875" style="stroke:#181818;stroke-width:1.0;" width="10" x="387" y="111.1641"/><rect fill="#FFFFFF" height="28.5234" style="stroke:#181818;stroke-width:1.0;" width="10" x="387" y="451.5625"/><rect fill="#FFFFFF" height="28.5234" style="stroke:#181818;stroke-width:1.0;" width="10" x="387" y="537.6563"/><rect fill="#FFFFFF" height="1285.0313" style="stroke:#181818;stroke-width:1.0;" width="10" x="387" y="594.7031"/><rect fill="#FFFFFF" height="199.6641" style="stroke:#181818;stroke-width:1.0;" width="10" x="580" y="180.3281"/><rect fill="#FFFFFF" height="1155.3672" style="stroke:#181818;stroke-width:1.0;" width="10" x="580" y="695.8438"/><rect fill="#FFFFFF" height="210.6641" style="stroke:#181818;stroke-width:1.0;" width="10" x="585" y="732.3672"/><rect fill="#FFFFFF" height="469.375" style="stroke:#181818;stroke-width:1.0;" width="10" x="585" y="1011.5547"/><rect fill="#FFFFFF" height="28.5234" style="stroke:#181818;stroke-width:1.0;" width="10" x="951" y="208.8516"/><rect fill="#FFFFFF" height="28.5234" style="stroke:#181818;stroke-width:1.0;" width="10" x="951" y="765.8906"/><rect fill="#FFFFFF" height="28.5234" style="stroke:#181818;stroke-width:1.0;" width="10" x="1058" y="265.8984"/><rect fill="#FFFFFF" height="28.5234" style="stroke:#181818;stroke-width:1.0;" width="10" x="1058" y="822.9375"/><rect fill="#FFFFFF" height="28.5234" style="stroke:#181818;stroke-width:1.0;" width="10" x="1058" y="1216.2188"/><rect fill="#FFFFFF" height="28.5234" style="stroke:#181818;stroke-width:1.0;" width="10" x="1202" y="322.9453"/><rect fill="#FFFFFF" height="28.5234" style="stroke:#181818;stroke-width:1.0;" width="10" x="1202" y="879.9844"/><rect fill="#FFFFFF" height="28.5234" style="stroke:#181818;stroke-width:1.0;" width="10" x="1366" y="1045.0781"/><rect fill="#FFFFFF" height="28.5234" style="stroke:#181818;stroke-width:1.0;" width="10" x="1513" y="1102.125"/><rect fill="#FFFFFF" height="28.5234" style="stroke:#181818;stroke-width:1.0;" width="10" x="1646" y="1159.1719"/><rect fill="#FFFFFF" height="116.0938" style="stroke:#181818;stroke-width:1.0;" width="10" x="1792" y="1273.2656"/><rect fill="#FFFFFF" height="28.5234" style="stroke:#181818;stroke-width:1.0;" width="10" x="2013" y="1325.3125"/><rect fill="#FFFFFF" height="28.5234" style="stroke:#181818;stroke-width:1.0;" width="10" x="2013" y="1417.8828"/><rect fill="#FFFFFF" height="252.1875" style="stroke:#181818;stroke-width:1.0;" width="10" x="2013" y="1570.5"/><rect fill="#FFFFFF" height="122.5703" style="stroke:#181818;stroke-width:1.0;" width="10" x="2018" y="1664.5938"/><rect fill="#FFFFFF" height="39.5234" style="stroke:#181818;stroke-width:1.0;" width="10" x="2023" y="1706.1172"/><rect fill="none" height="73.5703" style="stroke:#000000;stroke-width:1.5;" width="371.5" x="1705.5" y="1288.2656"/><line style="stroke:#181818;stroke-width:0.5;stroke-dasharray:5.0,5.0;" x1="81" x2="81" y1="80.6406" y2="1897.7344"/><line style="stroke:#181818;stroke-width:0.5;stroke-dasharray:5.0,5.0;" x1="392" x2="392" y1="80.6406" y2="1897.7344"/><line style="stroke:#181818;stroke-width:0.5;stroke-dasharray:5.0,5.0;" x1="585" x2="585" y1="149.4844" y2="1897.7344"/><line style="stroke:#181818;stroke-width:0.5;stroke-dasharray:5.0,5.0;" x1="955.5" x2="955.5" y1="80.6406" y2="1897.7344"/><line style="stroke:#181818;stroke-width:0.5;stroke-dasharray:5.0,5.0;" x1="1062.5" x2="1062.5" y1="80.6406" y2="1897.7344"/><line style="stroke:#181818;stroke-width:0.5;stroke-dasharray:5.0,5.0;" x1="1206.5" x2="1206.5" y1="80.6406" y2="1897.7344"/><line style="stroke:#181818;stroke-width:0.5;stroke-dasharray:5.0,5.0;" x1="1370.5" x2="1370.5" y1="80.6406" y2="1897.7344"/><line style="stroke:#181818;stroke-width:0.5;stroke-dasharray:5.0,5.0;" x1="1517.5" x2="1517.5" y1="80.6406" y2="1897.7344"/><line style="stroke:#181818;stroke-width:0.5;stroke-dasharray:5.0,5.0;" x1="1650.5" x2="1650.5" y1="80.6406" y2="1897.7344"/><line style="stroke:#181818;stroke-width:0.5;stroke-dasharray:5.0,5.0;" x1="1796.5" x2="1796.5" y1="80.6406" y2="1897.7344"/><line style="stroke:#181818;stroke-width:0.5;stroke-dasharray:5.0,5.0;" x1="2018" x2="2018" y1="80.6406" y2="1897.7344"/><line style="stroke:#181818;stroke-width:0.5;stroke-dasharray:5.0,5.0;" x1="2328" x2="2328" y1="1617.2852" y2="1897.7344"/><text fill="#000000" font-family="sans-serif" font-size="14" lengthAdjust="spacing" textLength="146" x="5" y="77.6738">Organization Employee</text><ellipse cx="81" cy="13.5" fill="#E3E3E3" rx="8" ry="8" style="stroke:#181818;stroke-width:0.5;"/><path d="M81,21.5 L81,48.5 M68,29.5 L94,29.5 M81,48.5 L68,63.5 M81,48.5 L94,63.5 " fill="none" style="stroke:#181818;stroke-width:0.5;"/><text fill="#000000" font-family="sans-serif" font-size="14" lengthAdjust="spacing" textLength="146" x="5" y="1909.4082">Organization Employee</text><ellipse cx="81" cy="1920.875" fill="#E3E3E3" rx="8" ry="8" style="stroke:#181818;stroke-width:0.5;"/><path d="M81,1928.875 L81,1955.875 M68,1936.875 L94,1936.875 M81,1955.875 L68,1970.875 M81,1955.875 L94,1970.875 " fill="none" style="stroke:#181818;stroke-width:0.5;"/><rect fill="#E3E3E3" height="29.6406" rx="2.5" ry="2.5" style="stroke:#181818;stroke-width:0.5;" width="104" x="340" y="50"/><text fill="#000000" font-family="sans-serif" font-size="14" lengthAdjust="spacing" textLength="90" x="347" y="69.6738">:CreateTaskUI</text><rect fill="#E3E3E3" height="29.6406" rx="2.5" ry="2.5" style="stroke:#181818;stroke-width:0.5;" width="104" x="340" y="1896.7344"/><text fill="#000000" font-family="sans-serif" font-size="14" lengthAdjust="spacing" textLength="90" x="347" y="1916.4082">:CreateTaskUI</text><rect fill="#E3E3E3" height="29.6406" rx="2.5" ry="2.5" style="stroke:#181818;stroke-width:0.5;" width="154" x="508" y="1896.7344"/><text fill="#000000" font-family="sans-serif" font-size="14" lengthAdjust="spacing" textLength="140" x="515" y="1916.4082">:CreateTaskController</text><rect fill="#E3E3E3" height="29.6406" rx="2.5" ry="2.5" style="stroke:#181818;stroke-width:0.5;" width="97" x="907.5" y="50"/><text fill="#000000" font-family="sans-serif" font-size="14" lengthAdjust="spacing" textLength="83" x="914.5" y="69.6738">:Repositories</text><rect fill="#E3E3E3" height="29.6406" rx="2.5" ry="2.5" style="stroke:#181818;stroke-width:0.5;" width="97" x="907.5" y="1896.7344"/><text fill="#000000" font-family="sans-serif" font-size="14" lengthAdjust="spacing" textLength="83" x="914.5" y="1916.4082">:Repositories</text><rect fill="#E3E3E3" height="45.2813" rx="2.5" ry="2.5" style="stroke:#181818;stroke-width:0.5;" width="97" x="1014.5" y="34.3594"/><text fill="#000000" font-family="sans-serif" font-size="14" lengthAdjust="spacing" textLength="74" x="1026" y="54.0332">repositories</text><text fill="#000000" font-family="sans-serif" font-size="14" lengthAdjust="spacing" textLength="83" x="1021.5" y="69.6738">:Repositories</text><rect fill="#E3E3E3" height="45.2813" rx="2.5" ry="2.5" style="stroke:#181818;stroke-width:0.5;" width="97" x="1014.5" y="1896.7344"/><text fill="#000000" font-family="sans-serif" font-size="14" lengthAdjust="spacing" textLength="74" x="1026" y="1916.4082">repositories</text><text fill="#000000" font-family="sans-serif" font-size="14" lengthAdjust="spacing" textLength="83" x="1021.5" y="1932.0488">:Repositories</text><rect fill="#E3E3E3" height="45.2813" rx="2.5" ry="2.5" style="stroke:#181818;stroke-width:0.5;" width="171" x="1121.5" y="34.3594"/><text fill="#000000" font-family="sans-serif" font-size="14" lengthAdjust="spacing" textLength="156" x="1129" y="54.0332">taskCategoryRepository:</text><text fill="#000000" font-family="sans-serif" font-size="14" lengthAdjust="spacing" textLength="157" x="1128.5" y="69.6738">TaskCategoryRepository</text><rect fill="#E3E3E3" height="45.2813" rx="2.5" ry="2.5" style="stroke:#181818;stroke-width:0.5;" width="171" x="1121.5" y="1896.7344"/><text fill="#000000" font-family="sans-serif" font-size="14" lengthAdjust="spacing" textLength="156" x="1129" y="1916.4082">taskCategoryRepository:</text><text fill="#000000" font-family="sans-serif" font-size="14" lengthAdjust="spacing" textLength="157" x="1128.5" y="1932.0488">TaskCategoryRepository</text><rect fill="#E3E3E3" height="29.6406" rx="2.5" ry="2.5" style="stroke:#181818;stroke-width:0.5;" width="137" x="1302.5" y="50"/><text fill="#000000" font-family="sans-serif" font-size="14" lengthAdjust="spacing" textLength="123" x="1309.5" y="69.6738">:ApplicationSession</text><rect fill="#E3E3E3" height="29.6406" rx="2.5" ry="2.5" style="stroke:#181818;stroke-width:0.5;" width="137" x="1302.5" y="1896.7344"/><text fill="#000000" font-family="sans-serif" font-size="14" lengthAdjust="spacing" textLength="123" x="1309.5" y="1916.4082">:ApplicationSession</text><rect fill="#E3E3E3" height="45.2813" rx="2.5" ry="2.5" style="stroke:#181818;stroke-width:0.5;" width="137" x="1449.5" y="34.3594"/><text fill="#000000" font-family="sans-serif" font-size="14" lengthAdjust="spacing" textLength="74" x="1481" y="54.0332">appSession</text><text fill="#000000" font-family="sans-serif" font-size="14" lengthAdjust="spacing" textLength="123" x="1456.5" y="69.6738">:ApplicationSession</text><rect fill="#E3E3E3" height="45.2813" rx="2.5" ry="2.5" style="stroke:#181818;stroke-width:0.5;" width="137" x="1449.5" y="1896.7344"/><text fill="#000000" font-family="sans-serif" font-size="14" lengthAdjust="spacing" textLength="74" x="1481" y="1916.4082">appSession</text><text fill="#000000" font-family="sans-serif" font-size="14" lengthAdjust="spacing" textLength="123" x="1456.5" y="1932.0488">:ApplicationSession</text><rect fill="#E3E3E3" height="45.2813" rx="2.5" ry="2.5" style="stroke:#181818;stroke-width:0.5;" width="109" x="1596.5" y="34.3594"/><text fill="#000000" font-family="sans-serif" font-size="14" lengthAdjust="spacing" textLength="95" x="1603.5" y="54.0332">currentSession</text><text fill="#000000" font-family="sans-serif" font-size="14" lengthAdjust="spacing" textLength="83" x="1609.5" y="69.6738">:UserSession</text><rect fill="#E3E3E3" height="45.2813" rx="2.5" ry="2.5" style="stroke:#181818;stroke-width:0.5;" width="109" x="1596.5" y="1896.7344"/><text fill="#000000" font-family="sans-serif" font-size="14" lengthAdjust="spacing" textLength="95" x="1603.5" y="1916.4082">currentSession</text><text fill="#000000" font-family="sans-serif" font-size="14" lengthAdjust="spacing" textLength="83" x="1609.5" y="1932.0488">:UserSession</text><rect fill="#E3E3E3" height="45.2813" rx="2.5" ry="2.5" style="stroke:#181818;stroke-width:0.5;" width="163" x="1715.5" y="34.3594"/><text fill="#000000" font-family="sans-serif" font-size="14" lengthAdjust="spacing" textLength="149" x="1722.5" y="54.0332">organizationRepository:</text><text fill="#000000" font-family="sans-serif" font-size="14" lengthAdjust="spacing" textLength="148" x="1723" y="69.6738">OrganizationRepository</text><rect fill="#E3E3E3" height="45.2813" rx="2.5" ry="2.5" style="stroke:#181818;stroke-width:0.5;" width="163" x="1715.5" y="1896.7344"/><text fill="#000000" font-family="sans-serif" font-size="14" lengthAdjust="spacing" textLength="149" x="1722.5" y="1916.4082">organizationRepository:</text><text fill="#000000" font-family="sans-serif" font-size="14" lengthAdjust="spacing" textLength="148" x="1723" y="1932.0488">OrganizationRepository</text><rect fill="#E3E3E3" height="45.2813" rx="2.5" ry="2.5" style="stroke:#181818;stroke-width:0.5;" width="98" x="1969" y="34.3594"/><text fill="#000000" font-family="sans-serif" font-size="14" lengthAdjust="spacing" textLength="77" x="1979.5" y="54.0332">organization</text><text fill="#000000" font-family="sans-serif" font-size="14" lengthAdjust="spacing" textLength="84" x="1976" y="69.6738">:Organization</text><rect fill="#E3E3E3" height="45.2813" rx="2.5" ry="2.5" style="stroke:#181818;stroke-width:0.5;" width="98" x="1969" y="1896.7344"/><text fill="#000000" font-family="sans-serif" font-size="14" lengthAdjust="spacing" textLength="77" x="1979.5" y="1916.4082">organization</text><text fill="#000000" font-family="sans-serif" font-size="14" lengthAdjust="spacing" textLength="84" x="1976" y="1932.0488">:Organization</text><rect fill="#E3E3E3" height="45.2813" rx="2.5" ry="2.5" style="stroke:#181818;stroke-width:0.5;" width="49" x="2304" y="1896.7344"/><text fill="#000000" font-family="sans-serif" font-size="14" lengthAdjust="spacing" textLength="26" x="2315.5" y="1916.4082">task</text><text fill="#000000" font-family="sans-serif" font-size="14" lengthAdjust="spacing" textLength="35" x="2311" y="1932.0488">:Task</text><rect fill="#FFFFFF" height="1789.0938" style="stroke:#181818;stroke-width:1.0;" width="10" x="76" y="90.6406"/><rect fill="#FFFFFF" height="311.875" style="stroke:#181818;stroke-width:1.0;" width="10" x="387" y="111.1641"/><rect fill="#FFFFFF" height="28.5234" style="stroke:#181818;stroke-width:1.0;" width="10" x="387" y="451.5625"/><rect fill="#FFFFFF" height="28.5234" style="stroke:#181818;stroke-width:1.0;" width="10" x="387" y="537.6563"/><rect fill="#FFFFFF" height="1285.0313" style="stroke:#181818;stroke-width:1.0;" width="10" x="387" y="594.7031"/><rect fill="#FFFFFF" height="199.6641" style="stroke:#181818;stroke-width:1.0;" width="10" x="580" y="180.3281"/><rect fill="#FFFFFF" height="1155.3672" style="stroke:#181818;stroke-width:1.0;" width="10" x="580" y="695.8438"/><rect fill="#FFFFFF" height="210.6641" style="stroke:#181818;stroke-width:1.0;" width="10" x="585" y="732.3672"/><rect fill="#FFFFFF" height="469.375" style="stroke:#181818;stroke-width:1.0;" width="10" x="585" y="1011.5547"/><rect fill="#FFFFFF" height="28.5234" style="stroke:#181818;stroke-width:1.0;" width="10" x="951" y="208.8516"/><rect fill="#FFFFFF" height="28.5234" style="stroke:#181818;stroke-width:1.0;" width="10" x="951" y="765.8906"/><rect fill="#FFFFFF" height="28.5234" style="stroke:#181818;stroke-width:1.0;" width="10" x="1058" y="265.8984"/><rect fill="#FFFFFF" height="28.5234" style="stroke:#181818;stroke-width:1.0;" width="10" x="1058" y="822.9375"/><rect fill="#FFFFFF" height="28.5234" style="stroke:#181818;stroke-width:1.0;" width="10" x="1058" y="1216.2188"/><rect fill="#FFFFFF" height="28.5234" style="stroke:#181818;stroke-width:1.0;" width="10" x="1202" y="322.9453"/><rect fill="#FFFFFF" height="28.5234" style="stroke:#181818;stroke-width:1.0;" width="10" x="1202" y="879.9844"/><rect fill="#FFFFFF" height="28.5234" style="stroke:#181818;stroke-width:1.0;" width="10" x="1366" y="1045.0781"/><rect fill="#FFFFFF" height="28.5234" style="stroke:#181818;stroke-width:1.0;" width="10" x="1513" y="1102.125"/><rect fill="#FFFFFF" height="28.5234" style="stroke:#181818;stroke-width:1.0;" width="10" x="1646" y="1159.1719"/><rect fill="#FFFFFF" height="116.0938" style="stroke:#181818;stroke-width:1.0;" width="10" x="1792" y="1273.2656"/><rect fill="#FFFFFF" height="28.5234" style="stroke:#181818;stroke-width:1.0;" width="10" x="2013" y="1325.3125"/><rect fill="#FFFFFF" height="28.5234" style="stroke:#181818;stroke-width:1.0;" width="10" x="2013" y="1417.8828"/><rect fill="#FFFFFF" height="252.1875" style="stroke:#181818;stroke-width:1.0;" width="10" x="2013" y="1570.5"/><rect fill="#FFFFFF" height="122.5703" style="stroke:#181818;stroke-width:1.0;" width="10" x="2018" y="1664.5938"/><rect fill="#FFFFFF" height="39.5234" style="stroke:#181818;stroke-width:1.0;" width="10" x="2023" y="1706.1172"/><polygon fill="#181818" points="375,107.1641,385,111.1641,375,115.1641,379,111.1641" style="stroke:#181818;stroke-width:1.0;"/><line style="stroke:#181818;stroke-width:1.0;" x1="86" x2="381" y1="111.1641" y2="111.1641"/><text fill="#000000" font-family="sans-serif" font-size="13" font-weight="bold" lengthAdjust="spacing" textLength="7" x="93" y="106.4092">1</text><text fill="#000000" font-family="sans-serif" font-size="13" lengthAdjust="spacing" textLength="150" x="104" y="106.4092">asks to create a new task</text><polygon fill="#181818" points="496,135.6875,506,139.6875,496,143.6875,500,139.6875" style="stroke:#181818;stroke-width:1.0;"/><line style="stroke:#181818;stroke-width:1.0;" x1="397" x2="502" y1="139.6875" y2="139.6875"/><text fill="#000000" font-family="sans-serif" font-size="13" font-weight="bold" lengthAdjust="spacing" textLength="7" x="404" y="134.9326">2</text><text fill="#000000" font-family="sans-serif" font-size="13" lengthAdjust="spacing" textLength="36" x="415" y="134.9326">create</text><rect fill="#E3E3E3" height="29.6406" rx="2.5" ry="2.5" style="stroke:#181818;stroke-width:0.5;" width="154" x="508" y="119.1641"/><text fill="#000000" font-family="sans-serif" font-size="14" lengthAdjust="spacing" textLength="140" x="515" y="138.8379">:CreateTaskController</text><polygon fill="#181818" points="568,176.3281,578,180.3281,568,184.3281,572,180.3281" style="stroke:#181818;stroke-width:1.0;"/><line style="stroke:#181818;stroke-width:1.0;" x1="397" x2="574" y1="180.3281" y2="180.3281"/><text fill="#000000" font-family="sans-serif" font-size="13" font-weight="bold" lengthAdjust="spacing" textLength="7" x="404" y="175.5732">3</text><text fill="#000000" font-family="sans-serif" font-size="13" lengthAdjust="spacing" textLength="116" x="415" y="175.5732">getTaskCategories()</text><polygon fill="#181818" points="939,204.8516,949,208.8516,939,212.8516,943,208.8516" style="stroke:#181818;stroke-width:1.0;"/><line style="stroke:#181818;stroke-width:1.0;" x1="590" x2="945" y1="208.8516" y2="208.8516"/><text fill="#000000" font-family="sans-serif" font-size="13" font-weight="bold" lengthAdjust="spacing" textLength="7" x="597" y="204.0967">4</text><text fill="#000000" font-family="sans-serif" font-size="13" lengthAdjust="spacing" textLength="75" x="608" y="204.0967">getInstance()</text><polygon fill="#181818" points="601,233.375,591,237.375,601,241.375,597,237.375" style="stroke:#181818;stroke-width:1.0;"/><line style="stroke:#181818;stroke-width:1.0;stroke-dasharray:2.0,2.0;" x1="595" x2="955" y1="237.375" y2="237.375"/><text fill="#000000" font-family="sans-serif" font-size="13" font-weight="bold" lengthAdjust="spacing" textLength="7" x="607" y="232.6201">5</text><text fill="#000000" font-family="sans-serif" font-size="13" lengthAdjust="spacing" textLength="67" x="618" y="232.6201">repositories</text><polygon fill="#181818" points="1046,261.8984,1056,265.8984,1046,269.8984,1050,265.8984" style="stroke:#181818;stroke-width:1.0;"/><line style="stroke:#181818;stroke-width:1.0;" x1="590" x2="1052" y1="265.8984" y2="265.8984"/><text fill="#000000" font-family="sans-serif" font-size="13" font-weight="bold" lengthAdjust="spacing" textLength="7" x="597" y="261.1436">6</text><text fill="#000000" font-family="sans-serif" font-size="13" lengthAdjust="spacing" textLength="168" x="608" y="261.1436">getTaskCategoryRepository()</text><polygon fill="#181818" points="601,290.4219,591,294.4219,601,298.4219,597,294.4219" style="stroke:#181818;stroke-width:1.0;"/><line style="stroke:#181818;stroke-width:1.0;stroke-dasharray:2.0,2.0;" x1="595" x2="1062" y1="294.4219" y2="294.4219"/><text fill="#000000" font-family="sans-serif" font-size="13" font-weight="bold" lengthAdjust="spacing" textLength="7" x="607" y="289.667">7</text><text fill="#000000" font-family="sans-serif" font-size="13" lengthAdjust="spacing" textLength="139" x="618" y="289.667">taskCategoryRepository</text><polygon fill="#181818" points="1190,318.9453,1200,322.9453,1190,326.9453,1194,322.9453" style="stroke:#181818;stroke-width:1.0;"/><line style="stroke:#181818;stroke-width:1.0;" x1="590" x2="1196" y1="322.9453" y2="322.9453"/><text fill="#000000" font-family="sans-serif" font-size="13" font-weight="bold" lengthAdjust="spacing" textLength="7" x="597" y="318.1904">8</text><text fill="#000000" font-family="sans-serif" font-size="13" lengthAdjust="spacing" textLength="116" x="608" y="318.1904">getTaskCategories()</text><polygon fill="#181818" points="601,347.4688,591,351.4688,601,355.4688,597,351.4688" style="stroke:#181818;stroke-width:1.0;"/><line style="stroke:#181818;stroke-width:1.0;stroke-dasharray:2.0,2.0;" x1="595" x2="1206" y1="351.4688" y2="351.4688"/><text fill="#000000" font-family="sans-serif" font-size="13" font-weight="bold" lengthAdjust="spacing" textLength="7" x="607" y="346.7139">9</text><text fill="#000000" font-family="sans-serif" font-size="13" lengthAdjust="spacing" textLength="98" x="618" y="346.7139">taskCategoryList</text><polygon fill="#181818" points="408,375.9922,398,379.9922,408,383.9922,404,379.9922" style="stroke:#181818;stroke-width:1.0;"/><line style="stroke:#181818;stroke-width:1.0;stroke-dasharray:2.0,2.0;" x1="402" x2="584" y1="379.9922" y2="379.9922"/><text fill="#000000" font-family="sans-serif" font-size="13" font-weight="bold" lengthAdjust="spacing" textLength="14" x="414" y="375.2373">10</text><text fill="#000000" font-family="sans-serif" font-size="13" lengthAdjust="spacing" textLength="98" x="432" y="375.2373">taskCategoryList</text><polygon fill="#181818" points="97,419.0391,87,423.0391,97,427.0391,93,423.0391" style="stroke:#181818;stroke-width:1.0;"/><line style="stroke:#181818;stroke-width:1.0;stroke-dasharray:2.0,2.0;" x1="91" x2="391" y1="423.0391" y2="423.0391"/><text fill="#000000" font-family="sans-serif" font-size="13" font-weight="bold" lengthAdjust="spacing" textLength="14" x="103" y="411.0225">11</text><text fill="#000000" font-family="sans-serif" font-size="13" lengthAdjust="spacing" textLength="141" x="121" y="403.7607">shows task category list</text><text fill="#000000" font-family="sans-serif" font-size="13" lengthAdjust="spacing" textLength="132" x="125" y="418.2842">and asks to sleect one</text><polygon fill="#181818" points="375,447.5625,385,451.5625,375,455.5625,379,451.5625" style="stroke:#181818;stroke-width:1.0;"/><line style="stroke:#181818;stroke-width:1.0;" x1="86" x2="381" y1="451.5625" y2="451.5625"/><text fill="#000000" font-family="sans-serif" font-size="13" font-weight="bold" lengthAdjust="spacing" textLength="14" x="93" y="446.8076">12</text><text fill="#000000" font-family="sans-serif" font-size="13" lengthAdjust="spacing" textLength="136" x="111" y="446.8076">selects a task category</text><polygon fill="#181818" points="97,476.0859,87,480.0859,97,484.0859,93,480.0859" style="stroke:#181818;stroke-width:1.0;"/><line style="stroke:#181818;stroke-width:1.0;stroke-dasharray:2.0,2.0;" x1="91" x2="391" y1="480.0859" y2="480.0859"/><text fill="#000000" font-family="sans-serif" font-size="13" font-weight="bold" lengthAdjust="spacing" textLength="14" x="103" y="475.3311">13</text><text fill="#000000" font-family="sans-serif" font-size="13" lengthAdjust="spacing" textLength="79" x="121" y="475.3311">requests data</text><polygon fill="#181818" points="375,533.6563,385,537.6563,375,541.6563,379,537.6563" style="stroke:#181818;stroke-width:1.0;"/><line style="stroke:#181818;stroke-width:1.0;" x1="86" x2="381" y1="537.6563" y2="537.6563"/><text fill="#000000" font-family="sans-serif" font-size="13" font-weight="bold" lengthAdjust="spacing" textLength="14" x="93" y="518.3779">14</text><text fill="#000000" font-family="sans-serif" font-size="13" lengthAdjust="spacing" textLength="258" x="111" y="503.8545">types requested data (reference, description,</text><text fill="#000000" font-family="sans-serif" font-size="13" lengthAdjust="spacing" textLength="243" x="111" y="518.3779">informal description, technical description,</text><text fill="#000000" font-family="sans-serif" font-size="13" lengthAdjust="spacing" textLength="83" x="111" y="532.9014">duration, cost)</text><polygon fill="#181818" points="97,562.1797,87,566.1797,97,570.1797,93,566.1797" style="stroke:#181818;stroke-width:1.0;"/><line style="stroke:#181818;stroke-width:1.0;stroke-dasharray:2.0,2.0;" x1="91" x2="391" y1="566.1797" y2="566.1797"/><text fill="#000000" font-family="sans-serif" font-size="13" font-weight="bold" lengthAdjust="spacing" textLength="14" x="103" y="561.4248">15</text><text fill="#000000" font-family="sans-serif" font-size="13" lengthAdjust="spacing" textLength="259" x="121" y="561.4248">shows selected category and requested data</text><polygon fill="#181818" points="375,590.7031,385,594.7031,375,598.7031,379,594.7031" style="stroke:#181818;stroke-width:1.0;"/><line style="stroke:#181818;stroke-width:1.0;" x1="86" x2="381" y1="594.7031" y2="594.7031"/><text fill="#000000" font-family="sans-serif" font-size="13" font-weight="bold" lengthAdjust="spacing" textLength="14" x="93" y="589.9482">16</text><text fill="#000000" font-family="sans-serif" font-size="13" lengthAdjust="spacing" textLength="75" x="111" y="589.9482">submits data</text><polygon fill="#181818" points="568,691.8438,578,695.8438,568,699.8438,572,695.8438" style="stroke:#181818;stroke-width:1.0;"/><line style="stroke:#181818;stroke-width:1.0;" x1="397" x2="574" y1="695.8438" y2="695.8438"/><text fill="#000000" font-family="sans-serif" font-size="13" font-weight="bold" lengthAdjust="spacing" textLength="14" x="404" y="654.7803">17</text><text fill="#000000" font-family="sans-serif" font-size="13" lengthAdjust="spacing" textLength="125" x="422" y="618.4717">createTask(reference,</text><text fill="#000000" font-family="sans-serif" font-size="13" lengthAdjust="spacing" textLength="67" x="422" y="632.9951">description,</text><text fill="#000000" font-family="sans-serif" font-size="13" lengthAdjust="spacing" textLength="114" x="422" y="647.5186">informalDescription,</text><text fill="#000000" font-family="sans-serif" font-size="13" lengthAdjust="spacing" textLength="121" x="422" y="662.042">technicalDescription,</text><text fill="#000000" font-family="sans-serif" font-size="13" lengthAdjust="spacing" textLength="83" x="422" y="676.5654">duration, cost,</text><text fill="#000000" font-family="sans-serif" font-size="13" lengthAdjust="spacing" textLength="146" x="422" y="691.0889">taskCategoryDescription)</text><line style="stroke:#181818;stroke-width:1.0;" x1="590" x2="637" y1="719.3672" y2="719.3672"/><line style="stroke:#181818;stroke-width:1.0;" x1="637" x2="637" y1="719.3672" y2="732.3672"/><line style="stroke:#181818;stroke-width:1.0;" x1="596" x2="637" y1="732.3672" y2="732.3672"/><polygon fill="#181818" points="606,728.3672,596,732.3672,606,736.3672,602,732.3672" style="stroke:#181818;stroke-width:1.0;"/><text fill="#000000" font-family="sans-serif" font-size="13" font-weight="bold" lengthAdjust="spacing" textLength="14" x="602" y="714.6123">18</text><text fill="#000000" font-family="sans-serif" font-size="13" lengthAdjust="spacing" textLength="329" x="620" y="714.6123">getTaskCategoryByDescription(taskCategoryDescription)</text><polygon fill="#181818" points="939,761.8906,949,765.8906,939,769.8906,943,765.8906" style="stroke:#181818;stroke-width:1.0;"/><line style="stroke:#181818;stroke-width:1.0;" x1="595" x2="945" y1="765.8906" y2="765.8906"/><text fill="#000000" font-family="sans-serif" font-size="13" font-weight="bold" lengthAdjust="spacing" textLength="14" x="602" y="761.1357">19</text><text fill="#000000" font-family="sans-serif" font-size="13" lengthAdjust="spacing" textLength="75" x="620" y="761.1357">getInstance()</text><polygon fill="#181818" points="606,790.4141,596,794.4141,606,798.4141,602,794.4141" style="stroke:#181818;stroke-width:1.0;"/><line style="stroke:#181818;stroke-width:1.0;stroke-dasharray:2.0,2.0;" x1="600" x2="955" y1="794.4141" y2="794.4141"/><text fill="#000000" font-family="sans-serif" font-size="13" font-weight="bold" lengthAdjust="spacing" textLength="14" x="612" y="789.6592">20</text><text fill="#000000" font-family="sans-serif" font-size="13" lengthAdjust="spacing" textLength="67" x="630" y="789.6592">repositories</text><polygon fill="#181818" points="1046,818.9375,1056,822.9375,1046,826.9375,1050,822.9375" style="stroke:#181818;stroke-width:1.0;"/><line style="stroke:#181818;stroke-width:1.0;" x1="595" x2="1052" y1="822.9375" y2="822.9375"/><text fill="#000000" font-family="sans-serif" font-size="13" font-weight="bold" lengthAdjust="spacing" textLength="14" x="602" y="818.1826">21</text><text fill="#000000" font-family="sans-serif" font-size="13" lengthAdjust="spacing" textLength="168" x="620" y="818.1826">getTaskCategoryRepository()</text><polygon fill="#181818" points="606,847.4609,596,851.4609,606,855.4609,602,851.4609" style="stroke:#181818;stroke-width:1.0;"/><line style="stroke:#181818;stroke-width:1.0;" x1="600" x2="1062" y1="851.4609" y2="851.4609"/><text fill="#000000" font-family="sans-serif" font-size="13" font-weight="bold" lengthAdjust="spacing" textLength="14" x="612" y="846.7061">22</text><text fill="#000000" font-family="sans-serif" font-size="13" lengthAdjust="spacing" textLength="139" x="630" y="846.7061">taskCategoryRepository</text><polygon fill="#181818" points="1190,875.9844,1200,879.9844,1190,883.9844,1194,879.9844" style="stroke:#181818;stroke-width:1.0;"/><line style="stroke:#181818;stroke-width:1.0;" x1="595" x2="1196" y1="879.9844" y2="879.9844"/><text fill="#000000" font-family="sans-serif" font-size="13" font-weight="bold" lengthAdjust="spacing" textLength="14" x="602" y="875.2295">23</text><text fill="#000000" font-family="sans-serif" font-size="13" lengthAdjust="spacing" textLength="329" x="620" y="875.2295">getTaskCategoryByDescription(taskCategoryDescription)</text><polygon fill="#181818" points="606,904.5078,596,908.5078,606,912.5078,602,908.5078" style="stroke:#181818;stroke-width:1.0;"/><line style="stroke:#181818;stroke-width:1.0;stroke-dasharray:2.0,2.0;" x1="600" x2="1206" y1="908.5078" y2="908.5078"/><text fill="#000000" font-family="sans-serif" font-size="13" font-weight="bold" lengthAdjust="spacing" textLength="14" x="612" y="903.7529">24</text><text fill="#000000" font-family="sans-serif" font-size="13" lengthAdjust="spacing" textLength="77" x="630" y="903.7529">taskCategory</text><line style="stroke:#181818;stroke-width:1.0;stroke-dasharray:2.0,2.0;" x1="595" x2="637" y1="942.0313" y2="942.0313"/><line style="stroke:#181818;stroke-width:1.0;stroke-dasharray:2.0,2.0;" x1="637" x2="637" y1="942.0313" y2="955.0313"/><line style="stroke:#181818;stroke-width:1.0;stroke-dasharray:2.0,2.0;" x1="590" x2="637" y1="955.0313" y2="955.0313"/><polygon fill="#181818" points="600,951.0313,590,955.0313,600,959.0313,596,955.0313" style="stroke:#181818;stroke-width:1.0;"/><text fill="#000000" font-family="sans-serif" font-size="13" font-weight="bold" lengthAdjust="spacing" textLength="14" x="602" y="937.2764">25</text><text fill="#000000" font-family="sans-serif" font-size="13" lengthAdjust="spacing" textLength="77" x="620" y="937.2764">taskCategory</text><line style="stroke:#181818;stroke-width:1.0;" x1="590" x2="637" y1="998.5547" y2="998.5547"/><line style="stroke:#181818;stroke-width:1.0;" x1="637" x2="637" y1="998.5547" y2="1011.5547"/><line style="stroke:#181818;stroke-width:1.0;" x1="596" x2="637" y1="1011.5547" y2="1011.5547"/><polygon fill="#181818" points="606,1007.5547,596,1011.5547,606,1015.5547,602,1011.5547" style="stroke:#181818;stroke-width:1.0;"/><text fill="#000000" font-family="sans-serif" font-size="13" font-weight="bold" lengthAdjust="spacing" textLength="14" x="602" y="993.7998">26</text><text fill="#000000" font-family="sans-serif" font-size="13" lengthAdjust="spacing" textLength="161" x="620" y="993.7998">getEmployeeFromSession()</text><polygon fill="#181818" points="1354,1041.0781,1364,1045.0781,1354,1049.0781,1358,1045.0781" style="stroke:#181818;stroke-width:1.0;"/><line style="stroke:#181818;stroke-width:1.0;" x1="595" x2="1360" y1="1045.0781" y2="1045.0781"/><text fill="#000000" font-family="sans-serif" font-size="13" font-weight="bold" lengthAdjust="spacing" textLength="14" x="602" y="1040.3232">27</text><text fill="#000000" font-family="sans-serif" font-size="13" lengthAdjust="spacing" textLength="75" x="620" y="1040.3232">getInstance()</text><polygon fill="#181818" points="606,1069.6016,596,1073.6016,606,1077.6016,602,1073.6016" style="stroke:#181818;stroke-width:1.0;"/><line style="stroke:#181818;stroke-width:1.0;" x1="600" x2="1370" y1="1073.6016" y2="1073.6016"/><text fill="#000000" font-family="sans-serif" font-size="13" font-weight="bold" lengthAdjust="spacing" textLength="14" x="612" y="1068.8467">28</text><text fill="#000000" font-family="sans-serif" font-size="13" lengthAdjust="spacing" textLength="68" x="630" y="1068.8467">appSession</text><polygon fill="#181818" points="1501,1098.125,1511,1102.125,1501,1106.125,1505,1102.125" style="stroke:#181818;stroke-width:1.0;"/><line style="stroke:#181818;stroke-width:1.0;" x1="595" x2="1507" y1="1102.125" y2="1102.125"/><text fill="#000000" font-family="sans-serif" font-size="13" font-weight="bold" lengthAdjust="spacing" textLength="14" x="602" y="1097.3701">29</text><text fill="#000000" font-family="sans-serif" font-size="13" lengthAdjust="spacing" textLength="115" x="620" y="1097.3701">getCurrentSession()</text><polygon fill="#181818" points="606,1126.6484,596,1130.6484,606,1134.6484,602,1130.6484" style="stroke:#181818;stroke-width:1.0;"/><line style="stroke:#181818;stroke-width:1.0;stroke-dasharray:2.0,2.0;" x1="600" x2="1517" y1="1130.6484" y2="1130.6484"/><text fill="#000000" font-family="sans-serif" font-size="13" font-weight="bold" lengthAdjust="spacing" textLength="14" x="612" y="1125.8936">30</text><text fill="#000000" font-family="sans-serif" font-size="13" lengthAdjust="spacing" textLength="87" x="630" y="1125.8936">currentSession</text><polygon fill="#181818" points="1634,1155.1719,1644,1159.1719,1634,1163.1719,1638,1159.1719" style="stroke:#181818;stroke-width:1.0;"/><line style="stroke:#181818;stroke-width:1.0;" x1="595" x2="1640" y1="1159.1719" y2="1159.1719"/><text fill="#000000" font-family="sans-serif" font-size="13" font-weight="bold" lengthAdjust="spacing" textLength="14" x="602" y="1154.417">31</text><text fill="#000000" font-family="sans-serif" font-size="13" lengthAdjust="spacing" textLength="133" x="620" y="1154.417">email = getUserEmail()</text><polygon fill="#181818" points="606,1183.6953,596,1187.6953,606,1191.6953,602,1187.6953" style="stroke:#181818;stroke-width:1.0;"/><line style="stroke:#181818;stroke-width:1.0;stroke-dasharray:2.0,2.0;" x1="600" x2="1650" y1="1187.6953" y2="1187.6953"/><text fill="#000000" font-family="sans-serif" font-size="13" font-weight="bold" lengthAdjust="spacing" textLength="14" x="612" y="1182.9404">32</text><text fill="#000000" font-family="sans-serif" font-size="13" lengthAdjust="spacing" textLength="31" x="630" y="1182.9404">email</text><polygon fill="#181818" points="1046,1212.2188,1056,1216.2188,1046,1220.2188,1050,1216.2188" style="stroke:#181818;stroke-width:1.0;"/><line style="stroke:#181818;stroke-width:1.0;" x1="595" x2="1052" y1="1216.2188" y2="1216.2188"/><text fill="#000000" font-family="sans-serif" font-size="13" font-weight="bold" lengthAdjust="spacing" textLength="14" x="602" y="1211.4639">33</text><text fill="#000000" font-family="sans-serif" font-size="13" lengthAdjust="spacing" textLength="192" x="620" y="1211.4639">getOrganizationRepository(email)</text><polygon fill="#181818" points="606,1240.7422,596,1244.7422,606,1248.7422,602,1244.7422" style="stroke:#181818;stroke-width:1.0;"/><line style="stroke:#181818;stroke-width:1.0;stroke-dasharray:2.0,2.0;" x1="600" x2="1062" y1="1244.7422" y2="1244.7422"/><text fill="#000000" font-family="sans-serif" font-size="13" font-weight="bold" lengthAdjust="spacing" textLength="14" x="612" y="1239.9873">34</text><text fill="#000000" font-family="sans-serif" font-size="13" lengthAdjust="spacing" textLength="132" x="630" y="1239.9873">organizationRepository</text><polygon fill="#181818" points="1780,1269.2656,1790,1273.2656,1780,1277.2656,1784,1273.2656" style="stroke:#181818;stroke-width:1.0;"/><line style="stroke:#181818;stroke-width:1.0;" x1="595" x2="1786" y1="1273.2656" y2="1273.2656"/><text fill="#000000" font-family="sans-serif" font-size="13" font-weight="bold" lengthAdjust="spacing" textLength="14" x="602" y="1268.5107">35</text><text fill="#000000" font-family="sans-serif" font-size="13" lengthAdjust="spacing" textLength="237" x="620" y="1268.5107">getOrganizationByEmployeeEmail(email)</text><path d="M1705.5,1288.2656 L1778.5,1288.2656 L1778.5,1294.7891 L1768.5,1304.7891 L1705.5,1304.7891 L1705.5,1288.2656 " fill="#EEEEEE" style="stroke:#000000;stroke-width:1.5;"/><rect fill="none" height="73.5703" style="stroke:#000000;stroke-width:1.5;" width="371.5" x="1705.5" y="1288.2656"/><text fill="#000000" font-family="sans-serif" font-size="13" font-weight="bold" lengthAdjust="spacing" textLength="28" x="1720.5" y="1301.0342">loop</text><text fill="#000000" font-family="sans-serif" font-size="11" font-weight="bold" lengthAdjust="spacing" textLength="128" x="1793.5" y="1300.2236">[[for each organization]</text><polygon fill="#181818" points="2001,1321.3125,2011,1325.3125,2001,1329.3125,2005,1325.3125" style="stroke:#181818;stroke-width:1.0;"/><line style="stroke:#181818;stroke-width:1.0;" x1="1802" x2="2007" y1="1325.3125" y2="1325.3125"/><text fill="#000000" font-family="sans-serif" font-size="13" font-weight="bold" lengthAdjust="spacing" textLength="14" x="1809" y="1320.5576">36</text><text fill="#000000" font-family="sans-serif" font-size="13" lengthAdjust="spacing" textLength="174" x="1827" y="1320.5576">anyEmployeeHasEmail(email)</text><polygon fill="#181818" points="1813,1349.8359,1803,1353.8359,1813,1357.8359,1809,1353.8359" style="stroke:#181818;stroke-width:1.0;"/><line style="stroke:#181818;stroke-width:1.0;stroke-dasharray:2.0,2.0;" x1="1807" x2="2017" y1="1353.8359" y2="1353.8359"/><text fill="#000000" font-family="sans-serif" font-size="13" font-weight="bold" lengthAdjust="spacing" textLength="14" x="1819" y="1349.0811">37</text><text fill="#000000" font-family="sans-serif" font-size="13" lengthAdjust="spacing" textLength="53" x="1837" y="1349.0811">true/false</text><polygon fill="#181818" points="606,1385.3594,596,1389.3594,606,1393.3594,602,1389.3594" style="stroke:#181818;stroke-width:1.0;"/><line style="stroke:#181818;stroke-width:1.0;stroke-dasharray:2.0,2.0;" x1="600" x2="1796" y1="1389.3594" y2="1389.3594"/><text fill="#000000" font-family="sans-serif" font-size="13" font-weight="bold" lengthAdjust="spacing" textLength="14" x="612" y="1384.6045">38</text><text fill="#000000" font-family="sans-serif" font-size="13" lengthAdjust="spacing" textLength="70" x="630" y="1384.6045">organization</text><polygon fill="#181818" points="2001,1413.8828,2011,1417.8828,2001,1421.8828,2005,1417.8828" style="stroke:#181818;stroke-width:1.0;"/><line style="stroke:#181818;stroke-width:1.0;" x1="595" x2="2007" y1="1417.8828" y2="1417.8828"/><text fill="#000000" font-family="sans-serif" font-size="13" font-weight="bold" lengthAdjust="spacing" textLength="14" x="602" y="1413.1279">39</text><text fill="#000000" font-family="sans-serif" font-size="13" lengthAdjust="spacing" textLength="164" x="620" y="1413.1279">getEmployeeByEmail(email)</text><polygon fill="#181818" points="606,1442.4063,596,1446.4063,606,1450.4063,602,1446.4063" style="stroke:#181818;stroke-width:1.0;"/><line style="stroke:#181818;stroke-width:1.0;stroke-dasharray:2.0,2.0;" x1="600" x2="2017" y1="1446.4063" y2="1446.4063"/><text fill="#000000" font-family="sans-serif" font-size="13" font-weight="bold" lengthAdjust="spacing" textLength="14" x="612" y="1441.6514">40</text><text fill="#000000" font-family="sans-serif" font-size="13" lengthAdjust="spacing" textLength="56" x="630" y="1441.6514">employee</text><line style="stroke:#181818;stroke-width:1.0;stroke-dasharray:2.0,2.0;" x1="595" x2="637" y1="1479.9297" y2="1479.9297"/><line style="stroke:#181818;stroke-width:1.0;stroke-dasharray:2.0,2.0;" x1="637" x2="637" y1="1479.9297" y2="1492.9297"/><line style="stroke:#181818;stroke-width:1.0;stroke-dasharray:2.0,2.0;" x1="590" x2="637" y1="1492.9297" y2="1492.9297"/><polygon fill="#181818" points="600,1488.9297,590,1492.9297,600,1496.9297,596,1492.9297" style="stroke:#181818;stroke-width:1.0;"/><text fill="#000000" font-family="sans-serif" font-size="13" font-weight="bold" lengthAdjust="spacing" textLength="14" x="602" y="1475.1748">41</text><text fill="#000000" font-family="sans-serif" font-size="13" lengthAdjust="spacing" textLength="56" x="620" y="1475.1748">employee</text><polygon fill="#181818" points="2001,1566.5,2011,1570.5,2001,1574.5,2005,1570.5" style="stroke:#181818;stroke-width:1.0;"/><line style="stroke:#181818;stroke-width:1.0;" x1="590" x2="2007" y1="1570.5" y2="1570.5"/><text fill="#000000" font-family="sans-serif" font-size="13" font-weight="bold" lengthAdjust="spacing" textLength="14" x="597" y="1551.2217">42</text><text fill="#000000" font-family="sans-serif" font-size="13" lengthAdjust="spacing" textLength="260" x="615" y="1536.6982">createTask(employee, reference, description,</text><text fill="#000000" font-family="sans-serif" font-size="13" lengthAdjust="spacing" textLength="239" x="615" y="1551.2217">informalDescription, technicalDescription,</text><text fill="#000000" font-family="sans-serif" font-size="13" lengthAdjust="spacing" textLength="240" x="615" y="1565.7451">duration, cost, , taskCategory, employee)</text><polygon fill="#181818" points="2292,1624.0703,2302,1628.0703,2292,1632.0703,2296,1628.0703" style="stroke:#181818;stroke-width:1.0;"/><line style="stroke:#181818;stroke-width:1.0;" x1="2023" x2="2298" y1="1628.0703" y2="1628.0703"/><text fill="#000000" font-family="sans-serif" font-size="13" font-weight="bold" lengthAdjust="spacing" textLength="14" x="2030" y="1608.792">43</text><text fill="#000000" font-family="sans-serif" font-size="13" lengthAdjust="spacing" textLength="232" x="2048" y="1594.2686">create(employee, reference, description,</text><text fill="#000000" font-family="sans-serif" font-size="13" lengthAdjust="spacing" textLength="239" x="2048" y="1608.792">informalDescription, technicalDescription,</text><text fill="#000000" font-family="sans-serif" font-size="13" lengthAdjust="spacing" textLength="232" x="2048" y="1623.3154">duration, cost, taskCategory, employee)</text><rect fill="#E3E3E3" height="45.2813" rx="2.5" ry="2.5" style="stroke:#181818;stroke-width:0.5;" width="49" x="2304" y="1579.7891"/><text fill="#000000" font-family="sans-serif" font-size="14" lengthAdjust="spacing" textLength="26" x="2315.5" y="1599.4629">task</text><text fill="#000000" font-family="sans-serif" font-size="14" lengthAdjust="spacing" textLength="35" x="2311" y="1615.1035">:Task</text><line style="stroke:#181818;stroke-width:1.0;" x1="2023" x2="2070" y1="1651.5938" y2="1651.5938"/><line style="stroke:#181818;stroke-width:1.0;" x1="2070" x2="2070" y1="1651.5938" y2="1664.5938"/><line style="stroke:#181818;stroke-width:1.0;" x1="2029" x2="2070" y1="1664.5938" y2="1664.5938"/><polygon fill="#181818" points="2039,1660.5938,2029,1664.5938,2039,1668.5938,2035,1664.5938" style="stroke:#181818;stroke-width:1.0;"/><text fill="#000000" font-family="sans-serif" font-size="13" font-weight="bold" lengthAdjust="spacing" textLength="14" x="2035" y="1646.8389">44</text><text fill="#000000" font-family="sans-serif" font-size="13" lengthAdjust="spacing" textLength="86" x="2053" y="1646.8389">addTask (task)</text><line style="stroke:#181818;stroke-width:1.0;" x1="2028" x2="2075" y1="1693.1172" y2="1693.1172"/><line style="stroke:#181818;stroke-width:1.0;" x1="2075" x2="2075" y1="1693.1172" y2="1706.1172"/><line style="stroke:#181818;stroke-width:1.0;" x1="2034" x2="2075" y1="1706.1172" y2="1706.1172"/><polygon fill="#181818" points="2044,1702.1172,2034,1706.1172,2044,1710.1172,2040,1706.1172" style="stroke:#181818;stroke-width:1.0;"/><text fill="#000000" font-family="sans-serif" font-size="13" font-weight="bold" lengthAdjust="spacing" textLength="14" x="2040" y="1688.3623">45</text><text fill="#000000" font-family="sans-serif" font-size="13" lengthAdjust="spacing" textLength="104" x="2058" y="1688.3623">validateTask(task)</text><line style="stroke:#181818;stroke-width:1.0;stroke-dasharray:2.0,2.0;" x1="2033" x2="2075" y1="1744.6406" y2="1744.6406"/><line style="stroke:#181818;stroke-width:1.0;stroke-dasharray:2.0,2.0;" x1="2075" x2="2075" y1="1744.6406" y2="1757.6406"/><line style="stroke:#181818;stroke-width:1.0;stroke-dasharray:2.0,2.0;" x1="2028" x2="2075" y1="1757.6406" y2="1757.6406"/><polygon fill="#181818" points="2038,1753.6406,2028,1757.6406,2038,1761.6406,2034,1757.6406" style="stroke:#181818;stroke-width:1.0;"/><text fill="#000000" font-family="sans-serif" font-size="13" font-weight="bold" lengthAdjust="spacing" textLength="14" x="2040" y="1739.8857">46</text><text fill="#000000" font-family="sans-serif" font-size="13" lengthAdjust="spacing" textLength="4" x="2058" y="1739.8857">&#160;</text><line style="stroke:#181818;stroke-width:1.0;stroke-dasharray:2.0,2.0;" x1="2028" x2="2070" y1="1786.1641" y2="1786.1641"/><line style="stroke:#181818;stroke-width:1.0;stroke-dasharray:2.0,2.0;" x1="2070" x2="2070" y1="1786.1641" y2="1799.1641"/><line style="stroke:#181818;stroke-width:1.0;stroke-dasharray:2.0,2.0;" x1="2023" x2="2070" y1="1799.1641" y2="1799.1641"/><polygon fill="#181818" points="2033,1795.1641,2023,1799.1641,2033,1803.1641,2029,1799.1641" style="stroke:#181818;stroke-width:1.0;"/><text fill="#000000" font-family="sans-serif" font-size="13" font-weight="bold" lengthAdjust="spacing" textLength="14" x="2035" y="1781.4092">47</text><text fill="#000000" font-family="sans-serif" font-size="13" lengthAdjust="spacing" textLength="4" x="2053" y="1781.4092">&#160;</text><polygon fill="#181818" points="601,1818.6875,591,1822.6875,601,1826.6875,597,1822.6875" style="stroke:#181818;stroke-width:1.0;"/><line style="stroke:#181818;stroke-width:1.0;stroke-dasharray:2.0,2.0;" x1="595" x2="2017" y1="1822.6875" y2="1822.6875"/><text fill="#000000" font-family="sans-serif" font-size="13" font-weight="bold" lengthAdjust="spacing" textLength="14" x="607" y="1817.9326">48</text><text fill="#000000" font-family="sans-serif" font-size="13" lengthAdjust="spacing" textLength="25" x="625" y="1817.9326">task</text><polygon fill="#181818" points="408,1847.2109,398,1851.2109,408,1855.2109,404,1851.2109" style="stroke:#181818;stroke-width:1.0;"/><line style="stroke:#181818;stroke-width:1.0;stroke-dasharray:2.0,2.0;" x1="402" x2="584" y1="1851.2109" y2="1851.2109"/><text fill="#000000" font-family="sans-serif" font-size="13" font-weight="bold" lengthAdjust="spacing" textLength="14" x="414" y="1846.4561">49</text><text fill="#000000" font-family="sans-serif" font-size="13" lengthAdjust="spacing" textLength="25" x="432" y="1846.4561">task</text><polygon fill="#181818" points="92,1875.7344,82,1879.7344,92,1883.7344,88,1879.7344" style="stroke:#181818;stroke-width:1.0;"/><line style="stroke:#181818;stroke-width:1.0;stroke-dasharray:2.0,2.0;" x1="86" x2="391" y1="1879.7344" y2="1879.7344"/><text fill="#000000" font-family="sans-serif" font-size="13" font-weight="bold" lengthAdjust="spacing" textLength="14" x="98" y="1874.9795">50</text><text fill="#000000" font-family="sans-serif" font-size="13" lengthAdjust="spacing" textLength="158" x="116" y="1874.9795">displays operation success</text><!--SRC=[xLXBJoCv4BxxLvIuy53GtYCDKWOO5eaHA87JHXgPxY9fqR5xR6VOhFZnMtO_OgVTZs5tzhHzWRJBNtrLhlfijtxDHC4Lty162fcibTmW6BL5ffkHWYUlV8KBiyiH52Q6YrNk6-WrJ-LR9bRmmdEDZF6jaMAxUKR5sF4wIn5Uf3JFya_64oCL7Dsh5HVPNznaKi3rfiZb3l48k8RPrLT6g2PBie8B0qVJIuNSu2FNhq-tpkJfjjFYKWgZP9wZSfQNZ_Ex0ziv5b9dH293xMoQ5xj5PkCYvk4KvSrOYZR0mztiCPnXB1DYj2BGFVnqAHwZ0mubFdH0VbOKUPQuh2rGQ_hZvdwRFJo4bhmeAWDYt36hDIdPAeN2x2S-QLJ-ZCNrOZ6x3oT9RoM3ME-Z0mudFjIDIrJyAIN6_AQTT3AqUImJEfjVVvanMt7P3qgigom6rKC_uFo2IWccPFogmKX8N1a11u5lOE7svWq8rHux1kyXX7C2idXJQexlMzH6GyeDXnE5BqWPJN02AUf4POMbFm78n8jK6vx3KeGZ1fEreBNAmzVfLl7olqHgSyfy0iSLRLVhXymktEkpC-9Mch4E4p9OeV6AaAhx97JKvC1v2eRiur08BT9F9VYjqAGS2Hx01j2nPcnPsoVcvRoAnQx3laTRqrFyENTrOBRFMsdoUhKlBgSHqK0SwfvvN3hwOeX3rwJZL4UiTa2_GvpY4NMuFDzNcX_aNQPDNtXThkC1rotTwy53RvToqCzwBT-q0uEaGeESuAXjkKWRuT0vqgu8KY2B-B2ISIWv6dEQeKbh0d3MqffXcM4Zt9bTWRgUXkc0F2r5eqyZn6afOkeq74IPsp8HHAd9hqrio7HCX7hxlCdyZ7GIQAemQKuDNYOecY2sEXDNmTic4rSzYR1sNXbwfgTiXARM7HnLvzrd7-zaqC__-lrhzJigRV-XVd-a7aOf_3yN-0-8Uynfe-z3BdhL_VtzVQ39wil85xe9LMVVZvs3xA5yTD-u4tmiR3i0JL_iZ_LzMNLWtSHgNfV1SR-FdSEBiNFa6dRX_Q6FOHImvbVUCgQ06vxbyCbIjHUHQ_kpZsLrEuaIBSSyhWwyZsADrYidBe_nsyo9y_1l70dZDwnXIUba7YVSYkNphkw5ClL30NNSwg8Xvb8My0TjhK2irq68KNlxnF5TGFCRUuqJ3U7VkUxbtEPEjybEgz8x-JZlJ9uL9BN5tyhl7rqOtX9PXp4J52dxcU3tsjMRGz_po6LggcL-4mYZBOjHvT2LqZgJ5M-iSDb0jjZGZX05-j1ku4BsZeSryWGwZipnSoACEoR29DZC9aqW7TjED1akgHVLHu-pivh-hwO-XhX7poMMfwdDAhXJocb4fmQRn4VxmVCihHUgH1pizC4Uxx0PgiWXZA7v1vqHVe8Q0l0kmDNKlZw8Ntcda6QwoFbEWoomN6gwMYK9RUcnMvY_fLzzPNy3]--></g></svg>