<?xml version="1.0" encoding="us-ascii" standalone="no"?><svg xmlns="http://www.w3.org/2000/svg" xmlns:xlink="http://www.w3.org/1999/xlink" contentStyleType="text/css" height="299.4px" preserveAspectRatio="none" style="width:333px;height:299px;background:#FFFFFF;" version="1.1" viewBox="0 0 333 299" width="333.6px" zoomAndPan="magnify"><defs/><g><rect fill="#FFFFFF" height="188.3461" style="stroke:#181818;stroke-width:0.6;" width="6" x="12.9" y="56.1727"/><rect fill="#FFFFFF" height="18.7746" style="stroke:#181818;stroke-width:0.6;" width="6" x="308.1" y="70.1473"/><rect fill="#FFFFFF" height="18.7746" style="stroke:#181818;stroke-width:0.6;" width="6" x="308.1" y="107.6965"/><rect fill="#FFFFFF" height="18.7746" style="stroke:#181818;stroke-width:0.6;" width="6" x="308.1" y="145.2457"/><rect fill="#FFFFFF" height="18.7746" style="stroke:#181818;stroke-width:0.6;" width="6" x="308.1" y="182.7949"/><rect fill="#FFFFFF" height="18.7746" style="stroke:#181818;stroke-width:0.6;" width="6" x="308.1" y="220.3441"/><line style="stroke:#181818;stroke-width:0.3;stroke-dasharray:5.0,5.0;" x1="15.6" x2="15.6" y1="50.1727" y2="249.9188"/><line style="stroke:#181818;stroke-width:0.3;stroke-dasharray:5.0,5.0;" x1="311.1" x2="311.1" y1="50.1727" y2="249.9188"/><text fill="#000000" font-family="sans-serif" font-size="8.4" lengthAdjust="spacing" textLength="22.2" x="3" y="48.0645">Agent</text><ellipse cx="15.9" cy="8.1" fill="#E2E2F0" rx="4.8" ry="4.8" style="stroke:#181818;stroke-width:0.3;"/><path d="M15.9,12.9 L15.9,29.1 M8.1,17.7 L23.7,17.7 M15.9,29.1 L8.1,38.1 M15.9,29.1 L23.7,38.1 " fill="none" style="stroke:#181818;stroke-width:0.3;"/><text fill="#000000" font-family="sans-serif" font-size="8.4" lengthAdjust="spacing" textLength="22.2" x="3" y="258.3832">Agent</text><ellipse cx="15.9" cy="265.5914" fill="#E2E2F0" rx="4.8" ry="4.8" style="stroke:#181818;stroke-width:0.3;"/><path d="M15.9,270.3914 L15.9,286.5914 M8.1,275.1914 L23.7,275.1914 M15.9,286.5914 L8.1,295.5914 M15.9,286.5914 L23.7,295.5914 " fill="none" style="stroke:#181818;stroke-width:0.3;"/><rect fill="#E2E2F0" height="19.5727" rx="1.5" ry="1.5" style="stroke:#181818;stroke-width:0.3;" width="38.4" x="291.9" y="30"/><text fill="#000000" font-family="sans-serif" font-size="8.4" lengthAdjust="spacing" textLength="30" x="296.1" y="43.2645">:System</text><rect fill="#E2E2F0" height="19.5727" rx="1.5" ry="1.5" style="stroke:#181818;stroke-width:0.3;" width="38.4" x="291.9" y="249.3188"/><text fill="#000000" font-family="sans-serif" font-size="8.4" lengthAdjust="spacing" textLength="30" x="296.1" y="262.5832">:System</text><rect fill="#FFFFFF" height="188.3461" style="stroke:#181818;stroke-width:0.6;" width="6" x="12.9" y="56.1727"/><rect fill="#FFFFFF" height="18.7746" style="stroke:#181818;stroke-width:0.6;" width="6" x="308.1" y="70.1473"/><rect fill="#FFFFFF" height="18.7746" style="stroke:#181818;stroke-width:0.6;" width="6" x="308.1" y="107.6965"/><rect fill="#FFFFFF" height="18.7746" style="stroke:#181818;stroke-width:0.6;" width="6" x="308.1" y="145.2457"/><rect fill="#FFFFFF" height="18.7746" style="stroke:#181818;stroke-width:0.6;" width="6" x="308.1" y="182.7949"/><rect fill="#FFFFFF" height="18.7746" style="stroke:#181818;stroke-width:0.6;" width="6" x="308.1" y="220.3441"/><polygon fill="#181818" points="300.9,67.7473,306.9,70.1473,300.9,72.5473,303.3,70.1473" style="stroke:#181818;stroke-width:0.6;"/><line style="stroke:#181818;stroke-width:0.6;" x1="18.9" x2="304.5" y1="70.1473" y2="70.1473"/><text fill="#000000" font-family="sans-serif" font-size="7.8" font-weight="bold" lengthAdjust="spacing" textLength="4.2" x="23.1" y="66.9896">1</text><text fill="#000000" font-family="sans-serif" font-size="7.8" lengthAdjust="spacing" textLength="129.6" x="29.7" y="66.9896">asks to publish a sale announcement</text><polygon fill="#181818" points="25.5,86.5219,19.5,88.9219,25.5,91.3219,23.1,88.9219" style="stroke:#181818;stroke-width:0.6;"/><line style="stroke:#181818;stroke-width:0.6;stroke-dasharray:2.0,2.0;" x1="21.9" x2="310.5" y1="88.9219" y2="88.9219"/><text fill="#000000" font-family="sans-serif" font-size="7.8" font-weight="bold" lengthAdjust="spacing" textLength="4.2" x="29.1" y="85.7643">2</text><text fill="#000000" font-family="sans-serif" font-size="7.8" lengthAdjust="spacing" textLength="172.8" x="35.7" y="85.7643">shows announcement category list (sale or rental)</text><polygon fill="#181818" points="300.9,105.2965,306.9,107.6965,300.9,110.0965,303.3,107.6965" style="stroke:#181818;stroke-width:0.6;"/><line style="stroke:#181818;stroke-width:0.6;" x1="18.9" x2="304.5" y1="107.6965" y2="107.6965"/><text fill="#000000" font-family="sans-serif" font-size="7.8" font-weight="bold" lengthAdjust="spacing" textLength="4.2" x="23.1" y="104.5389">3</text><text fill="#000000" font-family="sans-serif" font-size="7.8" lengthAdjust="spacing" textLength="141" x="29.7" y="104.5389">selects the sale announcement category</text><polygon fill="#181818" points="25.5,124.0711,19.5,126.4711,25.5,128.8711,23.1,126.4711" style="stroke:#181818;stroke-width:0.6;"/><line style="stroke:#181818;stroke-width:0.6;stroke-dasharray:2.0,2.0;" x1="21.9" x2="310.5" y1="126.4711" y2="126.4711"/><text fill="#000000" font-family="sans-serif" font-size="7.8" font-weight="bold" lengthAdjust="spacing" textLength="4.2" x="29.1" y="123.3135">4</text><text fill="#000000" font-family="sans-serif" font-size="7.8" lengthAdjust="spacing" textLength="191.4" x="35.7" y="123.3135">shows property category list (apartment, house or land)</text><polygon fill="#181818" points="300.9,142.8457,306.9,145.2457,300.9,147.6457,303.3,145.2457" style="stroke:#181818;stroke-width:0.6;"/><line style="stroke:#181818;stroke-width:0.6;" x1="18.9" x2="304.5" y1="145.2457" y2="145.2457"/><text fill="#000000" font-family="sans-serif" font-size="7.8" font-weight="bold" lengthAdjust="spacing" textLength="4.2" x="23.1" y="142.0881">5</text><text fill="#000000" font-family="sans-serif" font-size="7.8" lengthAdjust="spacing" textLength="94.8" x="29.7" y="142.0881">selects a property category</text><polygon fill="#181818" points="25.5,161.6203,19.5,164.0203,25.5,166.4203,23.1,164.0203" style="stroke:#181818;stroke-width:0.6;"/><line style="stroke:#181818;stroke-width:0.6;stroke-dasharray:2.0,2.0;" x1="21.9" x2="310.5" y1="164.0203" y2="164.0203"/><text fill="#000000" font-family="sans-serif" font-size="7.8" font-weight="bold" lengthAdjust="spacing" textLength="4.2" x="29.1" y="160.8627">6</text><text fill="#000000" font-family="sans-serif" font-size="7.8" lengthAdjust="spacing" textLength="47.4" x="35.7" y="160.8627">requests data</text><polygon fill="#181818" points="300.9,180.3949,306.9,182.7949,300.9,185.1949,303.3,182.7949" style="stroke:#181818;stroke-width:0.6;"/><line style="stroke:#181818;stroke-width:0.6;" x1="18.9" x2="304.5" y1="182.7949" y2="182.7949"/><text fill="#000000" font-family="sans-serif" font-size="7.8" font-weight="bold" lengthAdjust="spacing" textLength="4.2" x="23.1" y="179.6373">7</text><text fill="#000000" font-family="sans-serif" font-size="7.8" lengthAdjust="spacing" textLength="271.2" x="29.7" y="179.6373">types requested data (property charactheristics, requested price, commission)</text><polygon fill="#181818" points="25.5,199.1695,19.5,201.5695,25.5,203.9695,23.1,201.5695" style="stroke:#181818;stroke-width:0.6;"/><line style="stroke:#181818;stroke-width:0.6;stroke-dasharray:2.0,2.0;" x1="21.9" x2="310.5" y1="201.5695" y2="201.5695"/><text fill="#000000" font-family="sans-serif" font-size="7.8" font-weight="bold" lengthAdjust="spacing" textLength="4.2" x="29.1" y="198.4119">8</text><text fill="#000000" font-family="sans-serif" font-size="7.8" lengthAdjust="spacing" textLength="141.6" x="35.7" y="198.4119">shows all data and requests confirmation</text><polygon fill="#181818" points="300.9,217.9441,306.9,220.3441,300.9,222.7441,303.3,220.3441" style="stroke:#181818;stroke-width:0.6;"/><line style="stroke:#181818;stroke-width:0.6;" x1="18.9" x2="304.5" y1="220.3441" y2="220.3441"/><text fill="#000000" font-family="sans-serif" font-size="7.8" font-weight="bold" lengthAdjust="spacing" textLength="4.2" x="23.1" y="217.1865">9</text><text fill="#000000" font-family="sans-serif" font-size="7.8" lengthAdjust="spacing" textLength="29.4" x="29.7" y="217.1865">confirms</text><polygon fill="#181818" points="25.5,236.7188,19.5,239.1187,25.5,241.5187,23.1,239.1187" style="stroke:#181818;stroke-width:0.6;"/><line style="stroke:#181818;stroke-width:0.6;stroke-dasharray:2.0,2.0;" x1="21.9" x2="310.5" y1="239.1187" y2="239.1187"/><text fill="#000000" font-family="sans-serif" font-size="7.8" font-weight="bold" lengthAdjust="spacing" textLength="8.4" x="29.1" y="235.9611">10</text><text fill="#000000" font-family="sans-serif" font-size="7.8" lengthAdjust="spacing" textLength="95.4" x="39.9" y="235.9611">informs operations success</text><!--SRC=[dP9DRi8m44RtESM8JK62ii-YKi_G4mpEGApwhvunLMxVYHEWBUqYU6Kf_jxtFF5JBvAutU-Jmo35ksSJ_Pxfer0mjEiidZBw1el4KFo1SjEWaPXXzNgY82j0Xhfh4cQnnYR5mAfz6rZ8ry_JjkRi6ONcymtegblOlSo7eDN0EuD4IENWBFU0mEW8C8HOrCYFqJ5vfLtmCA-Pj5FeH6-1-_Z9Fn1WD7gAUG0j4LZN3hrLrc_eDXNMqTyTzyvCZeoeTa_tjjUgARtSE-MOAClmsnd7YOyDM-XZuUglFx6Rx1_Gn_kgvSvvV3gij0u5bvh8a8Wl2Eeg0zOtgnwpedhAEW1hUFljQChMq1RqzNhBR6FOF3flT6ugrbdUhcDYEDhiKHIzz5fpbfSRsN2C6eHn0BMQWOinnFolmnS0]--></g></svg>