<?xml version="1.0" encoding="us-ascii" standalone="no"?><svg xmlns="http://www.w3.org/2000/svg" xmlns:xlink="http://www.w3.org/1999/xlink" contentStyleType="text/css" height="319px" preserveAspectRatio="none" style="width:434px;height:319px;background:#FFFFFF;" version="1.1" viewBox="0 0 434 319" width="434px" zoomAndPan="magnify"><defs/><g><text fill="#000000" font-family="sans-serif" font-size="14" font-weight="bold" lengthAdjust="spacing" textLength="156" x="132.25" y="22.6738">US007 - Domain Model</text><!--class UnregisteredUser--><g id="elem_UnregisteredUser"><rect codeLine="12" fill="#F1F1F1" height="33.6406" id="UnregisteredUser" rx="2.5" ry="2.5" style="stroke:#181818;stroke-width:0.5;" width="116" x="250.5" y="43.6406"/><text fill="#000000" font-family="sans-serif" font-size="14" lengthAdjust="spacing" textLength="110" x="253.5" y="61.3145">UnregisteredUser</text><line style="stroke:#181818;stroke-width:0.5;" x1="251.5" x2="365.5" y1="69.2813" y2="69.2813"/></g><!--class RegisteredUser--><g id="elem_RegisteredUser"><rect codeLine="15" fill="#F1F1F1" height="80.5625" id="RegisteredUser" rx="2.5" ry="2.5" style="stroke:#181818;stroke-width:0.5;" width="104" x="204.5" y="137.6406"/><text fill="#000000" font-family="sans-serif" font-size="14" lengthAdjust="spacing" textLength="98" x="207.5" y="155.3145">RegisteredUser</text><line style="stroke:#181818;stroke-width:0.5;" x1="205.5" x2="307.5" y1="163.2813" y2="163.2813"/><text fill="#000000" font-family="sans-serif" font-size="14" lengthAdjust="spacing" textLength="40" x="210.5" y="179.9551">-name</text><text fill="#000000" font-family="sans-serif" font-size="14" lengthAdjust="spacing" textLength="38" x="210.5" y="195.5957">-email</text><text fill="#000000" font-family="sans-serif" font-size="14" lengthAdjust="spacing" textLength="65" x="210.5" y="211.2363">-password</text></g><!--class Client--><g id="elem_Client"><rect codeLine="21" fill="#F1F1F1" height="33.6406" id="Client" rx="2.5" ry="2.5" style="stroke:#181818;stroke-width:0.5;" width="42" x="160.5" y="278.6406"/><text fill="#000000" font-family="sans-serif" font-size="14" lengthAdjust="spacing" textLength="36" x="163.5" y="296.3145">Client</text><line style="stroke:#181818;stroke-width:0.5;" x1="161.5" x2="201.5" y1="304.2813" y2="304.2813"/></g><!--class Owner--><g id="elem_Owner"><rect codeLine="24" fill="#F1F1F1" height="33.6406" id="Owner" rx="2.5" ry="2.5" style="stroke:#181818;stroke-width:0.5;" width="47" x="238" y="278.6406"/><text fill="#000000" font-family="sans-serif" font-size="14" lengthAdjust="spacing" textLength="41" x="241" y="296.3145">Owner</text><line style="stroke:#181818;stroke-width:0.5;" x1="239" x2="284" y1="304.2813" y2="304.2813"/></g><!--class System--><g id="elem_System"><rect codeLine="27" fill="#F1F1F1" height="33.6406" id="System" rx="2.5" ry="2.5" style="stroke:#181818;stroke-width:0.5;" width="52" x="330.5" y="278.6406"/><text fill="#000000" font-family="sans-serif" font-size="14" lengthAdjust="spacing" textLength="46" x="333.5" y="296.3145">System</text><line style="stroke:#181818;stroke-width:0.5;" x1="331.5" x2="381.5" y1="304.2813" y2="304.2813"/></g><g id="elem_GMN7"><path d="M6,151.1406 L6,204.7109 A0,0 0 0 0 6,204.7109 L169,204.7109 A0,0 0 0 0 169,204.7109 L169,182.6406 L204.26,178.6406 L169,174.6406 L169,161.1406 L159,151.1406 L6,151.1406 A0,0 0 0 0 6,151.1406 " fill="#FAFAFA" style="stroke:#181818;stroke-width:0.5;"/><path d="M159,151.1406 L159,161.1406 L169,161.1406 L159,151.1406 " fill="#FAFAFA" style="stroke:#181818;stroke-width:0.5;"/><text fill="#000000" font-family="sans-serif" font-size="13" lengthAdjust="spacing" textLength="126" x="12" y="167.9092">New user should have</text><text fill="#000000" font-family="sans-serif" font-size="13" lengthAdjust="spacing" textLength="142" x="12" y="182.4326">access to the owner and</text><text fill="#000000" font-family="sans-serif" font-size="13" lengthAdjust="spacing" textLength="110" x="12" y="196.9561">client funcionalities</text></g><!--link UnregisteredUser to RegisteredUser--><g id="link_UnregisteredUser_RegisteredUser"><path codeLine="36" d="M279.5,77.7306 C279.5,93.3206 279.5,116.9806 279.5,137.4206 " fill="none" id="UnregisteredUser-RegisteredUser" style="stroke:#181818;stroke-width:1.0;"/><polygon fill="#000000" points="215.5,120.8323,218.4389,111.7873,212.5611,111.7873,215.5,120.8323" style="stroke:#000000;stroke-width:1.0;"/><text fill="#000000" font-family="sans-serif" font-size="13" lengthAdjust="spacing" textLength="54" x="224.5" y="120.3392">turns into</text><text fill="#000000" font-family="sans-serif" font-size="13" lengthAdjust="spacing" textLength="7" x="262.5469" y="97.0119">1</text><text fill="#000000" font-family="sans-serif" font-size="13" lengthAdjust="spacing" textLength="7" x="275.9734" y="126.7746">1</text></g><!--link RegisteredUser to Client--><g id="link_RegisteredUser_Client"><path codeLine="37" d="M204.34,212.6406 C193.73,212.6406 185.75,212.6406 185.75,212.6406 C185.75,212.6406 185.75,254.1306 185.75,278.4406 " fill="none" id="RegisteredUser-Client" style="stroke:#181818;stroke-width:1.0;"/><polygon fill="#000000" points="135.3906,233.324,140.678,225.4187,135.0216,223.8206,135.3906,233.324" style="stroke:#000000;stroke-width:1.0;"/><text fill="#000000" font-family="sans-serif" font-size="13" lengthAdjust="spacing" textLength="39" x="145.75" y="233.0192">can be</text><text fill="#000000" font-family="sans-serif" font-size="13" lengthAdjust="spacing" textLength="7" x="189.5128" y="214.3439">1</text><text fill="#000000" font-family="sans-serif" font-size="13" lengthAdjust="spacing" textLength="7" x="179.0172" y="267.7452">1</text></g><!--link RegisteredUser to Owner--><g id="link_RegisteredUser_Owner"><path codeLine="38" d="M261.5,218.9106 C261.5,239.3206 261.5,262.9406 261.5,278.5306 " fill="none" id="RegisteredUser-Owner" style="stroke:#181818;stroke-width:1.0;"/><polygon fill="#000000" points="212.5,245.9823,215.4389,236.9373,209.5611,236.9373,212.5,245.9823" style="stroke:#000000;stroke-width:1.0;"/><text fill="#000000" font-family="sans-serif" font-size="13" lengthAdjust="spacing" textLength="39" x="221.5" y="245.4892">can be</text><text fill="#000000" font-family="sans-serif" font-size="13" lengthAdjust="spacing" textLength="7" x="254.7297" y="238.0675">1</text><text fill="#000000" font-family="sans-serif" font-size="13" lengthAdjust="spacing" textLength="7" x="253.2531" y="267.8672">1</text></g><!--link UnregisteredUser to System--><g id="link_UnregisteredUser_System"><path codeLine="39" d="M348.5,77.9206 C348.5,121.3806 348.5,234.8506 348.5,278.3306 " fill="none" id="UnregisteredUser-System" style="stroke:#181818;stroke-width:1.0;"/><polygon fill="#000000" points="353.5,175.3923,356.4389,166.3473,350.5611,166.3473,353.5,175.3923" style="stroke:#000000;stroke-width:1.0;"/><text fill="#000000" font-family="sans-serif" font-size="13" lengthAdjust="spacing" textLength="64" x="362.5" y="174.8992">registers in</text><text fill="#000000" font-family="sans-serif" font-size="13" lengthAdjust="spacing" textLength="7" x="352.2219" y="96.9511">1</text><text fill="#000000" font-family="sans-serif" font-size="13" lengthAdjust="spacing" textLength="7" x="337.5469" y="267.8944">1</text></g><!--link RegisteredUser to System--><g id="link_RegisteredUser_System"><path codeLine="40" d="M296.75,218.9106 C296.75,252.8406 296.75,295.6406 296.75,295.6406 C296.75,295.6406 314.37,295.6406 330.47,295.6406 " fill="none" id="RegisteredUser-System" style="stroke:#181818;stroke-width:1.0;"/><polygon fill="#000000" points="303.7616,270.9698,302.8131,261.5067,297.432,263.8715,303.7616,270.9698" style="stroke:#000000;stroke-width:1.0;"/><text fill="#000000" font-family="sans-serif" font-size="13" lengthAdjust="spacing" textLength="71" x="310.75" y="270.8992">registered in</text><text fill="#000000" font-family="sans-serif" font-size="13" lengthAdjust="spacing" textLength="7" x="295.3773" y="238.0675">1</text><text fill="#000000" font-family="sans-serif" font-size="13" lengthAdjust="spacing" textLength="7" x="315.5338" y="291.6466">1</text></g><!--SRC=[VL3DJiCm3BxdAQpTAuqJ4WSa11SEWBHg3-0bRXijjQl4fHg8ToVjEYW3rakjVBzssdlkC68BhR3O9afBeB4daxwG3kqUQohr40WYMKMkmvAG6dGoUAwXmf2MIF1CUkW896eZ2y06JEbEDVfTh_HeXKl_Hh0sfl6EmFfeSyGqjvIbBXcZNdE1RRbUNqC13zAYPtWIHy6OoG-s7AdsIIcIsoQAy6u-JjZc787y5S3OqZnIDWppt6N98D5zw- -39zQbuyl0FoFAGmveZoyiIX2eKf3gBDiyqm3zM28rqWS73RwIGMifUwY0DlbUapUoozPJRjMpzS8Ol7fAXjZ1667ChvrNLoieYkbtjlCDt8BsaHDuLZ6RVtNphYFV8iEEBd2FLrXGBnMQBpIoJwInp0NxFnJaHiad]--></g></svg>