<?xml version="1.0" encoding="us-ascii" standalone="no"?><svg xmlns="http://www.w3.org/2000/svg" xmlns:xlink="http://www.w3.org/1999/xlink" contentStyleType="text/css" height="2426px" preserveAspectRatio="none" style="width:1068px;height:2426px;background:#FFFFFF;" version="1.1" viewBox="0 0 1068 2426" width="1068px" zoomAndPan="magnify"><defs/><g><!--entity SystemAdministrator--><g id="elem_SystemAdministrator"><ellipse cx="80" cy="2232.5" fill="#F1F1F1" rx="8" ry="8" style="stroke:#181818;stroke-width:0.5;"/><path d="M80,2240.5 L80,2267.5 M67,2248.5 L93,2248.5 M80,2267.5 L67,2282.5 M80,2267.5 L93,2282.5 " fill="none" style="stroke:#181818;stroke-width:0.5;"/><text fill="#000000" font-family="sans-serif" font-size="14" lengthAdjust="spacing" textLength="133" x="13.5" y="2299.1074">System Administrator</text></g><!--entity UnregisteredUser--><g id="elem_UnregisteredUser"><ellipse cx="80" cy="1507.5" fill="#F1F1F1" rx="8" ry="8" style="stroke:#181818;stroke-width:0.5;"/><path d="M80,1515.5 L80,1542.5 M67,1523.5 L93,1523.5 M80,1542.5 L67,1557.5 M80,1542.5 L93,1557.5 " fill="none" style="stroke:#181818;stroke-width:0.5;"/><text fill="#000000" font-family="sans-serif" font-size="14" lengthAdjust="spacing" textLength="114" x="23" y="1574.1074">Unregistered User</text></g><!--entity Agent--><g id="elem_Agent"><ellipse cx="80" cy="967.5" fill="#F1F1F1" rx="8" ry="8" style="stroke:#181818;stroke-width:0.5;"/><path d="M80,975.5 L80,1002.5 M67,983.5 L93,983.5 M80,1002.5 L67,1017.5 M80,1002.5 L93,1017.5 " fill="none" style="stroke:#181818;stroke-width:0.5;"/><text fill="#000000" font-family="sans-serif" font-size="14" lengthAdjust="spacing" textLength="37" x="61.5" y="1034.1074">Agent</text></g><!--entity Owner--><g id="elem_Owner"><ellipse cx="80" cy="546.5" fill="#F1F1F1" rx="8" ry="8" style="stroke:#181818;stroke-width:0.5;"/><path d="M80,554.5 L80,581.5 M67,562.5 L93,562.5 M80,581.5 L67,596.5 M80,581.5 L93,596.5 " fill="none" style="stroke:#181818;stroke-width:0.5;"/><text fill="#000000" font-family="sans-serif" font-size="14" lengthAdjust="spacing" textLength="41" x="59.5" y="613.1074">Owner</text></g><!--entity Buyer--><g id="elem_Buyer"><ellipse cx="80" cy="1738.5" fill="#F1F1F1" rx="8" ry="8" style="stroke:#181818;stroke-width:0.5;"/><path d="M80,1746.5 L80,1773.5 M67,1754.5 L93,1754.5 M80,1773.5 L67,1788.5 M80,1773.5 L93,1788.5 " fill="none" style="stroke:#181818;stroke-width:0.5;"/><text fill="#000000" font-family="sans-serif" font-size="14" lengthAdjust="spacing" textLength="37" x="61.5" y="1805.1074">Buyer</text></g><!--entity StoreNetworkManager--><g id="elem_StoreNetworkManager"><ellipse cx="80" cy="247.5" fill="#F1F1F1" rx="8" ry="8" style="stroke:#181818;stroke-width:0.5;"/><path d="M80,255.5 L80,282.5 M67,263.5 L93,263.5 M80,282.5 L67,297.5 M80,282.5 L93,297.5 " fill="none" style="stroke:#181818;stroke-width:0.5;"/><text fill="#000000" font-family="sans-serif" font-size="14" lengthAdjust="spacing" textLength="148" x="6" y="314.1074">Store Network Manager</text></g><!--entity StoreManager--><g id="elem_StoreManager"><ellipse cx="80" cy="45.5" fill="#F1F1F1" rx="8" ry="8" style="stroke:#181818;stroke-width:0.5;"/><path d="M80,53.5 L80,80.5 M67,61.5 L93,61.5 M80,80.5 L67,95.5 M80,80.5 L93,95.5 " fill="none" style="stroke:#181818;stroke-width:0.5;"/><text fill="#000000" font-family="sans-serif" font-size="14" lengthAdjust="spacing" textLength="94" x="33" y="112.1074">Store Manager</text></g><g id="elem_Register a new store"><ellipse cx="565.8534" cy="2185.5707" fill="#F1F1F1" rx="88.3534" ry="20.0707" style="stroke:#181818;stroke-width:0.5;"/><text fill="#000000" font-family="sans-serif" font-size="14" lengthAdjust="spacing" textLength="130" x="497.8534" y="2190.3744">Register a new store</text></g><g id="elem_Register a new employee"><ellipse cx="565.8743" cy="2263.4749" fill="#F1F1F1" rx="100.3743" ry="22.4749" style="stroke:#181818;stroke-width:0.5;"/><text fill="#000000" font-family="sans-serif" font-size="14" lengthAdjust="spacing" textLength="159" x="485.3782" y="2267.6376">Register a new employee</text></g><g id="elem_Specify"><ellipse cx="565.8367" cy="2337.2713" fill="#F1F1F1" rx="44.3367" ry="16.2713" style="stroke:#181818;stroke-width:0.5;"/><text fill="#000000" font-family="sans-serif" font-size="14" lengthAdjust="spacing" textLength="46" x="539.8367" y="2342.075">Specify</text></g><g id="elem_State"><ellipse cx="1019.8248" cy="2270.6692" fill="#F1F1F1" rx="34.8248" ry="16.1692" style="stroke:#181818;stroke-width:0.5;"/><text fill="#000000" font-family="sans-serif" font-size="14" lengthAdjust="spacing" textLength="33" x="1002.9262" y="2274.631">State</text></g><g id="elem_District"><ellipse cx="1020.1016" cy="2337.7384" fill="#F1F1F1" rx="42.1016" ry="16.2384" style="stroke:#181818;stroke-width:0.5;"/><text fill="#000000" font-family="sans-serif" font-size="14" lengthAdjust="spacing" textLength="43" x="995.7351" y="2342.5058">District</text></g><g id="elem_City"><ellipse cx="1019.9558" cy="2404.6671" fill="#F1F1F1" rx="28.4558" ry="16.1671" style="stroke:#181818;stroke-width:0.5;"/><text fill="#000000" font-family="sans-serif" font-size="14" lengthAdjust="spacing" textLength="24" x="1007.9558" y="2408.464">City</text></g><g id="elem_Display listed properties from most recent to preexistent"><ellipse cx="565.8908" cy="1473.3782" fill="#F1F1F1" rx="189.8908" ry="40.3782" style="stroke:#181818;stroke-width:0.5;"/><text fill="#000000" font-family="sans-serif" font-size="14" lengthAdjust="spacing" textLength="350" x="390.8908" y="1477.175">Display listed properties from most recent to preexistent</text></g><g id="elem_Sort the offers by criteria such as price or the city where the property is located"><ellipse cx="566.2226" cy="1603.7445" fill="#F1F1F1" rx="261.7226" ry="54.7445" style="stroke:#181818;stroke-width:0.5;"/><text fill="#000000" font-family="sans-serif" font-size="14" lengthAdjust="spacing" textLength="497" x="317.7226" y="1607.5414">Sort the offers by criteria such as price or the city where the property is located</text></g><g id="elem_Review advertisement requests"><ellipse cx="565.9002" cy="751.38" fill="#F1F1F1" rx="117.4002" ry="25.88" style="stroke:#181818;stroke-width:0.5;"/><text fill="#000000" font-family="sans-serif" font-size="14" lengthAdjust="spacing" textLength="197" x="467.4002" y="755.1769">Review advertisement requests</text></g><g id="elem_Register the property's information"><ellipse cx="566.0651" cy="840.313" fill="#F1F1F1" rx="127.0651" ry="27.813" style="stroke:#181818;stroke-width:0.5;"/><text fill="#000000" font-family="sans-serif" font-size="14" lengthAdjust="spacing" textLength="218" x="457.0651" y="844.1099">Register the property's information</text></g><g id="elem_Publish sale or rent announcement"><ellipse cx="565.9926" cy="931.4985" fill="#F1F1F1" rx="127.9926" ry="27.9985" style="stroke:#181818;stroke-width:0.5;"/><text fill="#000000" font-family="sans-serif" font-size="14" lengthAdjust="spacing" textLength="220" x="455.9926" y="935.2954">Publish sale or rent announcement</text></g><g id="elem_Receive client request to schedule a visit to a specific property, check the availability and send response"><ellipse cx="566.2239" cy="1065.5448" fill="#F1F1F1" rx="340.7239" ry="70.5448" style="stroke:#181818;stroke-width:0.5;"/><text fill="#000000" font-family="sans-serif" font-size="14" lengthAdjust="spacing" textLength="657" x="237.7239" y="1069.3416">Receive client request to schedule a visit to a specific property, check the availability and send response</text></g><g id="elem_Record visit and indication of whether or not he thinks the deal will take place"><ellipse cx="565.8314" cy="1224.4663" fill="#F1F1F1" rx="255.3314" ry="53.4663" style="stroke:#181818;stroke-width:0.5;"/><text fill="#000000" font-family="sans-serif" font-size="14" lengthAdjust="spacing" textLength="484" x="323.8314" y="1228.2632">Record visit and indication of whether or not he thinks the deal will take place</text></g><g id="elem_Accept or reject client's order to purchase/lease a property"><ellipse cx="566.0913" cy="1355.3183" fill="#F1F1F1" rx="199.5913" ry="42.3183" style="stroke:#181818;stroke-width:0.5;"/><text fill="#000000" font-family="sans-serif" font-size="14" lengthAdjust="spacing" textLength="370" x="381.0913" y="1359.1151">Accept or reject client's order to purchase/lease a property</text></g><g id="elem_Submit request for listing a property sale or rent, choosing the responsible agent"><ellipse cx="566.1426" cy="509.7285" fill="#F1F1F1" rx="266.6426" ry="55.7285" style="stroke:#181818;stroke-width:0.5;"/><text fill="#000000" font-family="sans-serif" font-size="14" lengthAdjust="spacing" textLength="507" x="312.6426" y="513.5254">Submit request for listing a property sale or rent, choosing the responsible agent</text></g><g id="elem_Provide property characteristics, as well as the requested price"><ellipse cx="566.2443" cy="645.3489" fill="#F1F1F1" rx="212.2443" ry="44.8489" style="stroke:#181818;stroke-width:0.5;"/><text fill="#000000" font-family="sans-serif" font-size="14" lengthAdjust="spacing" textLength="396" x="368.2443" y="649.1457">Provide property characteristics, as well as the requested price</text></g><g id="elem_Access registered information about a property, except the agency commission"><ellipse cx="566.2308" cy="1951.6462" fill="#F1F1F1" rx="261.2308" ry="54.6462" style="stroke:#181818;stroke-width:0.5;"/><text fill="#000000" font-family="sans-serif" font-size="14" lengthAdjust="spacing" textLength="496" x="318.2308" y="1955.443">Access registered information about a property, except the agency commission</text></g><g id="elem_Request to schedule a visit to the agent for a specific property"><ellipse cx="565.8077" cy="2085.3615" fill="#F1F1F1" rx="209.8077" ry="44.3615" style="stroke:#181818;stroke-width:0.5;"/><text fill="#000000" font-family="sans-serif" font-size="14" lengthAdjust="spacing" textLength="391" x="370.3077" y="2089.1584">Request to schedule a visit to the agent for a specific property</text></g><g id="elem_Accept or reject agent's order"><ellipse cx="565.8518" cy="1718.4704" fill="#F1F1F1" rx="112.8518" ry="24.9704" style="stroke:#181818;stroke-width:0.5;"/><text fill="#000000" font-family="sans-serif" font-size="14" lengthAdjust="spacing" textLength="187" x="472.3518" y="1722.2672">Accept or reject agent's order</text></g><g id="elem_Send request for purchase/lease of property to the agent"><ellipse cx="566.2372" cy="1820.3474" fill="#F1F1F1" rx="194.7372" ry="41.3474" style="stroke:#181818;stroke-width:0.5;"/><text fill="#000000" font-family="sans-serif" font-size="14" lengthAdjust="spacing" textLength="360" x="386.2372" y="1824.1443">Send request for purchase/lease of property to the agent</text></g><g id="elem_Manage a set of stores - network"><ellipse cx="565.9849" cy="210.297" fill="#F1F1F1" rx="121.9849" ry="26.797" style="stroke:#181818;stroke-width:0.5;"/><text fill="#000000" font-family="sans-serif" font-size="14" lengthAdjust="spacing" textLength="207" x="462.4849" y="214.0939">Manage a set of stores - network</text></g><g id="elem_Create a report on the performance of each branch and the global behaviour of the network on a daily basis"><ellipse cx="566.1177" cy="345.3235" fill="#F1F1F1" rx="352.1177" ry="72.8235" style="stroke:#181818;stroke-width:0.5;"/><text fill="#000000" font-family="sans-serif" font-size="14" lengthAdjust="spacing" textLength="680" x="226.1177" y="349.1204">Create a report on the performance of each branch and the global behaviour of the network on a daily basis</text></g><g id="elem_Manage a store in the network"><ellipse cx="566.1665" cy="31.3333" fill="#F1F1F1" rx="114.6665" ry="25.3333" style="stroke:#181818;stroke-width:0.5;"/><text fill="#000000" font-family="sans-serif" font-size="14" lengthAdjust="spacing" textLength="191" x="470.6665" y="35.1302">Manage a store in the network</text></g><g id="elem_Evaluate employee's performances"><ellipse cx="565.9568" cy="120.5914" fill="#F1F1F1" rx="128.4568" ry="28.0914" style="stroke:#181818;stroke-width:0.5;"/><text fill="#000000" font-family="sans-serif" font-size="14" lengthAdjust="spacing" textLength="221" x="455.4568" y="124.3882">Evaluate employee's performances</text></g><!--link SystemAdministrator to Register a new store--><g id="link_SystemAdministrator_Register a new store"><path d="M146.69,2241.13 C167.95,2234.59 191.79,2228 214,2223.5 C303.81,2205.3 408.43,2195.39 479.93,2190.31 " fill="none" id="SystemAdministrator-Register a new store" style="stroke:#181818;stroke-width:1.0;"/></g><!--link SystemAdministrator to Register a new employee--><g id="link_SystemAdministrator_Register a new employee"><path d="M146.53,2263.5 C228.52,2263.5 369.74,2263.5 465.21,2263.5 " fill="none" id="SystemAdministrator-Register a new employee" style="stroke:#181818;stroke-width:1.0;"/></g><!--link SystemAdministrator to Specify--><g id="link_SystemAdministrator_Specify"><path d="M146.66,2286.02 C167.92,2292.57 191.76,2299.12 214,2303.5 C323.48,2325.05 454.97,2333.15 521.65,2336.03 " fill="none" id="SystemAdministrator-Specify" style="stroke:#181818;stroke-width:1.0;"/></g><!--link Specify to State--><g id="link_Specify_State"><path d="M610.42,2336.35 C677.18,2333.89 808.78,2326.34 918,2303.5 C944,2298.06 972.71,2288.3 992.85,2280.8 " fill="none" id="Specify-State" style="stroke:#181818;stroke-width:1.0;"/></g><!--link Specify to District--><g id="link_Specify_District"><path d="M610.75,2337.5 C698.04,2337.5 892.74,2337.5 977.85,2337.5 " fill="none" id="Specify-District" style="stroke:#181818;stroke-width:1.0;"/></g><!--link Specify to City--><g id="link_Specify_City"><path d="M607.51,2343.5 C698.3,2356.96 916.07,2389.24 992.19,2400.53 " fill="none" id="Specify-City" style="stroke:#181818;stroke-width:1.0;"/></g><!--link UnregisteredUser to Display listed properties from most recent to preexistent--><g id="link_UnregisteredUser_Display listed properties from most recent to preexistent"><path d="M137.47,1530.92 C202.68,1522.16 312.8,1507.37 404.95,1494.99 " fill="none" id="UnregisteredUser-Display listed properties from most recent to preexistent" style="stroke:#181818;stroke-width:1.0;"/></g><!--link UnregisteredUser to Sort the offers by criteria such as price or the city where the property is located--><g id="link_UnregisteredUser_Sort the offers by criteria such as price or the city where the property is located"><path d="M137.47,1546.08 C189.15,1553.02 269.04,1563.75 345.84,1574.07 " fill="none" id="UnregisteredUser-Sort the offers by criteria such as price or the city where the property is located" style="stroke:#181818;stroke-width:1.0;"/></g><!--link Agent to Review advertisement requests--><g id="link_Agent_Review advertisement requests"><path d="M95.03,958.83 C114.06,911.4 152.87,833.63 214,795.5 C285.91,750.64 382.29,741.36 455.86,742.34 " fill="none" id="Agent-Review advertisement requests" style="stroke:#181818;stroke-width:1.0;"/></g><!--link Agent to Register the property's information--><g id="link_Agent_Register the property's information"><path d="M98.81,977.46 C122.27,951.3 166.21,907.56 214,886.5 C284.44,855.46 369.97,843.78 438.97,839.95 " fill="none" id="Agent-Register the property's information" style="stroke:#181818;stroke-width:1.0;"/></g><!--link Agent to Publish sale or rent announcement--><g id="link_Agent_Publish sale or rent announcement"><path d="M98.62,995.57 C124.06,991.37 172.59,983.48 214,977.5 C294.29,965.9 385.1,954.03 454.24,945.26 " fill="none" id="Agent-Publish sale or rent announcement" style="stroke:#181818;stroke-width:1.0;"/></g><!--link Agent to Receive client request to schedule a visit to a specific property, check the availability and send response--><g id="link_Agent_Receive client request to schedule a visit to a specific property, check the availability and send response"><path d="M98.51,1000.92 C130.8,1005.39 203.64,1015.48 282.38,1026.38 " fill="none" id="Agent-Receive client request to schedule a visit to a specific property, check the availability and send response" style="stroke:#181818;stroke-width:1.0;"/></g><!--link Agent to Record visit and indication of whether or not he thinks the deal will take place--><g id="link_Agent_Record visit and indication of whether or not he thinks the deal will take place"><path d="M98.54,1029.21 C120.66,1065 162.16,1123.08 214,1153.5 C251,1175.21 293.55,1190.37 335.98,1200.94 " fill="none" id="Agent-Record visit and indication of whether or not he thinks the deal will take place" style="stroke:#181818;stroke-width:1.0;"/></g><!--link Agent to Accept or reject client's order to purchase/lease a property--><g id="link_Agent_Accept or reject client's order to purchase/lease a property"><path d="M86.67,1038.01 C98.2,1102.82 130.73,1230.94 214,1295.5 C257.24,1329.02 312.53,1346.54 366.37,1355.11 " fill="none" id="Agent-Accept or reject client's order to purchase/lease a property" style="stroke:#181818;stroke-width:1.0;"/></g><!--link Owner to Submit request for listing a property sale or rent, choosing the responsible agent--><g id="link_Owner_Submit request for listing a property sale or rent, choosing the responsible agent"><path d="M100.57,574.75 C142.66,568.84 245.98,554.32 344.5,540.48 " fill="none" id="Owner-Submit request for listing a property sale or rent, choosing the responsible agent" style="stroke:#181818;stroke-width:1.0;"/></g><!--link Owner to Provide property characteristics, as well as the requested price--><g id="link_Owner_Provide property characteristics, as well as the requested price"><path d="M100.57,580.25 C149.03,587.06 278.63,605.27 388.65,620.72 " fill="none" id="Owner-Provide property characteristics, as well as the requested price" style="stroke:#181818;stroke-width:1.0;"/></g><!--link Buyer to Display listed properties from most recent to preexistent--><g id="link_Buyer_Display listed properties from most recent to preexistent"><path d="M98.19,1729.55 C125.25,1668.53 178.37,1556.54 214,1531.5 C260.75,1498.66 319.54,1481.97 375.56,1474.06 " fill="none" id="Buyer-Display listed properties from most recent to preexistent" style="stroke:#181818;stroke-width:1.0;"/></g><!--link Buyer to Access registered information about a property, except the agency commission--><g id="link_Buyer_Access registered information about a property, except the agency commission"><path d="M98.72,1789.2 C122.43,1814.25 166.98,1856.98 214,1879.5 C253.97,1898.65 298.89,1912.71 342.89,1923.04 " fill="none" id="Buyer-Access registered information about a property, except the agency commission" style="stroke:#181818;stroke-width:1.0;"/></g><!--link Buyer to Sort the offers by criteria such as price or the city where the property is located--><g id="link_Buyer_Sort the offers by criteria such as price or the city where the property is located"><path d="M98.51,1753.69 C122.68,1732.74 168.47,1696.16 214,1676.5 C256.28,1658.24 303.45,1644.44 349.15,1634.04 " fill="none" id="Buyer-Sort the offers by criteria such as price or the city where the property is located" style="stroke:#181818;stroke-width:1.0;"/></g><!--link Buyer to Request to schedule a visit to the agent for a specific property--><g id="link_Buyer_Request to schedule a visit to the agent for a specific property"><path d="M90.09,1809.38 C105.31,1866.51 141.69,1970.6 214,2023.5 C255.33,2053.74 306.61,2070.9 357.1,2080.29 " fill="none" id="Buyer-Request to schedule a visit to the agent for a specific property" style="stroke:#181818;stroke-width:1.0;"/></g><!--link Buyer to Accept or reject agent's order--><g id="link_Buyer_Accept or reject agent's order"><path d="M98.51,1767.65 C156.43,1761.55 344.86,1741.7 463.78,1729.17 " fill="none" id="Buyer-Accept or reject agent's order" style="stroke:#181818;stroke-width:1.0;"/></g><!--link Buyer to Send request for purchase/lease of property to the agent--><g id="link_Buyer_Send request for purchase/lease of property to the agent"><path d="M98.51,1771.35 C145.63,1776.31 279.1,1790.37 391.27,1802.19 " fill="none" id="Buyer-Send request for purchase/lease of property to the agent" style="stroke:#181818;stroke-width:1.0;"/></g><!--link StoreNetworkManager to Manage a set of stores - network--><g id="link_StoreNetworkManager_Manage a set of stores - network"><path d="M154.08,265.27 C173.52,261.91 194.54,258.43 214,255.5 C295.56,243.23 388.11,231.45 457.69,223.02 " fill="none" id="StoreNetworkManager-Manage a set of stores - network" style="stroke:#181818;stroke-width:1.0;"/></g><!--link StoreNetworkManager to Create a report on the performance of each branch and the global behaviour of the network on a daily basis--><g id="link_StoreNetworkManager_Create a report on the performance of each branch and the global behaviour of the network on a daily basis"><path d="M154.25,288.64 C187.41,293.23 229,298.99 272.88,305.06 " fill="none" id="StoreNetworkManager-Create a report on the performance of each branch and the global behaviour of the network on a daily basis" style="stroke:#181818;stroke-width:1.0;"/></g><!--link StoreManager to Manage a store in the network--><g id="link_StoreManager_Manage a store in the network"><path d="M127.41,72.19 C203.48,65.11 356.55,50.88 459.93,41.27 " fill="none" id="StoreManager-Manage a store in the network" style="stroke:#181818;stroke-width:1.0;"/></g><!--link StoreManager to Evaluate employee's performances--><g id="link_StoreManager_Evaluate employee's performances"><path d="M127.41,80.72 C200.4,87.35 344.3,100.44 447.16,109.79 " fill="none" id="StoreManager-Evaluate employee's performances" style="stroke:#181818;stroke-width:1.0;"/></g><!--SRC=[jLN1Rjim3BtxAuXUjW0jzWrTj-EseaK_W9QPc8iiUQASr7y_Kh4J9ysA0SCkXa8zaezFJufiEVIOi8CkXkZQ53k2d0QgvBZJezlYXfxpw0aIkOnXuvS0QR69UmuRMACNgYfFwmmvGk9Dcw5XI-8OgWfTZWbkdaV9rC5zqt5WoGarUWCeSDWuYyyvBo7HHeEKg84NeKF2Cch16Ns_eP0Begpcy8zzc1BBQWv_7iOfN5P7cleb-4vv7zCMlc5G5IQUjZDjJF7pf3VW6LLLLsQ4kplu-3GD0WY1zY2MjVfRD7MzZoEza_3Sa-FrkAgEgqCuOwRBu1VBP9Slum-SjK1LNQe-9_KUH_2sqK2VOayfCmcirLNgBydc7ZqDiqQVY5uD6RJBrNhFCIco9OZhDIM1UWINM36C88DhJTfUMIeW5PnJTh1ljKZvEH4OWGLyT3fcOzoB7oO9TwpIORCpdaATRIJwDP1aMPq19wsNPJy8S5Z7rA5PUmb_76hLe0L1NxWbsy0GuX1SQN9Usn7lbBpdHNjJI5nBpQ0b47OiN68wUJaFTaSUjw0ujotSS8ViiMPlIc1eG4W_YQIFGUYYRKpDLDYG71fsPHJLsrJKUidOXvYXDKKvRALqQGWzxDbxoBXLGJowizhtpb6V3vF_r9i_pQQ2QKjJKKz_IAv5eK-UzAjZpTFO2PMhUR30K7Ty4aNLBkwob-QKSgQpgH6Z6CAeJgDpRJ9kYlIdweyfxhXP64Kf9Rt5wZ3juUJM7BOddHDbgbPu57EppLnLvRtuL_kVYfXq8h1uwHOU0wpZa1UJtmAz5gdBsUjuJcU8NSSYnPAdkl_bBftAFxtlsfdUuGIlUFXIWZFtbCpPF6T37SnzyiQ5gzJ7HzvB5dPkLnxmKlEmDewKhK1vXGNkz94jsDKVCnyIgIoQcQWtjVMyYdAKoW46LmWHgjXrqfzjkNO6sVXOwusggSKTno4Ppk9JIwk4qEZD7g56OJdolqwy_FzmM9POlSL_tQ4VZF3ypw4ABxXgazy0]--></g></svg>