<?xml version="1.0" encoding="us-ascii" standalone="no"?><svg xmlns="http://www.w3.org/2000/svg" xmlns:xlink="http://www.w3.org/1999/xlink" contentStyleType="text/css" height="938px" preserveAspectRatio="none" style="width:663px;height:938px;background:#FFFFFF;" version="1.1" viewBox="0 0 663 938" width="663px" zoomAndPan="magnify"><defs/><g><text fill="#000000" font-family="sans-serif" font-size="14" font-weight="bold" lengthAdjust="spacing" textLength="284" x="191.25" y="27.6738">System Sequence Diagram (SSD) - US004</text><rect fill="#FFFFFF" height="722.0859" style="stroke:#181818;stroke-width:1.0;" width="10" x="48.5" y="127.2813"/><rect fill="#FFFFFF" height="28.5234" style="stroke:#181818;stroke-width:1.0;" width="10" x="600.5" y="147.8047"/><rect fill="#FFFFFF" height="28.5234" style="stroke:#181818;stroke-width:1.0;" width="10" x="600.5" y="204.8516"/><rect fill="#FFFFFF" height="28.5234" style="stroke:#181818;stroke-width:1.0;" width="10" x="600.5" y="285.4219"/><rect fill="#FFFFFF" height="506.8984" style="stroke:#181818;stroke-width:1.0;" width="10" x="600.5" y="342.4688"/><rect fill="#FFFFFF" height="28.5234" style="stroke:#181818;stroke-width:1.0;" width="10" x="605.5" y="372.9922"/><rect fill="#FFFFFF" height="59.0469" style="stroke:#181818;stroke-width:1.0;" width="10" x="605.5" y="430.0391"/><rect fill="#FFFFFF" height="94.5703" style="stroke:#181818;stroke-width:1.0;" width="10" x="605.5" y="517.6094"/><rect fill="#FFFFFF" height="28.5234" style="stroke:#181818;stroke-width:1.0;" width="10" x="605.5" y="640.7031"/><rect fill="#FFFFFF" height="28.5234" style="stroke:#181818;stroke-width:1.0;" width="10" x="605.5" y="697.75"/><rect fill="#FFFFFF" height="28.5234" style="stroke:#181818;stroke-width:1.0;" width="10" x="605.5" y="754.7969"/><rect fill="#FFFFFF" height="28.5234" style="stroke:#181818;stroke-width:1.0;" width="10" x="605.5" y="811.8438"/><rect fill="none" height="189.6641" style="stroke:#000000;stroke-width:1.5;" width="627.5" x="20" y="248.375"/><rect fill="none" height="132.6172" style="stroke:#000000;stroke-width:1.5;" width="647.5" x="10" y="452.0391"/><rect fill="none" height="45.0469" style="stroke:#000000;stroke-width:1.5;" width="627.5" x="20" y="532.6094"/><line style="stroke:#181818;stroke-width:0.5;stroke-dasharray:5.0,5.0;" x1="53" x2="53" y1="117.2813" y2="858.3672"/><line style="stroke:#181818;stroke-width:0.5;stroke-dasharray:5.0,5.0;" x1="605.5" x2="605.5" y1="117.2813" y2="858.3672"/><text fill="#000000" font-family="sans-serif" font-size="14" lengthAdjust="spacing" textLength="41" x="30" y="114.3145">Owner</text><ellipse cx="53.5" cy="50.1406" fill="#E3E3E3" rx="8" ry="8" style="stroke:#181818;stroke-width:0.5;"/><path d="M53.5,58.1406 L53.5,85.1406 M40.5,66.1406 L66.5,66.1406 M53.5,85.1406 L40.5,100.1406 M53.5,85.1406 L66.5,100.1406 " fill="none" style="stroke:#181818;stroke-width:0.5;"/><text fill="#000000" font-family="sans-serif" font-size="14" lengthAdjust="spacing" textLength="41" x="30" y="870.041">Owner</text><ellipse cx="53.5" cy="881.5078" fill="#E3E3E3" rx="8" ry="8" style="stroke:#181818;stroke-width:0.5;"/><path d="M53.5,889.5078 L53.5,916.5078 M40.5,897.5078 L66.5,897.5078 M53.5,916.5078 L40.5,931.5078 M53.5,916.5078 L66.5,931.5078 " fill="none" style="stroke:#181818;stroke-width:0.5;"/><rect fill="#E3E3E3" height="29.6406" rx="2.5" ry="2.5" style="stroke:#181818;stroke-width:0.5;" width="64" x="573.5" y="86.6406"/><text fill="#000000" font-family="sans-serif" font-size="14" lengthAdjust="spacing" textLength="50" x="580.5" y="106.3145">:System</text><rect fill="#E3E3E3" height="29.6406" rx="2.5" ry="2.5" style="stroke:#181818;stroke-width:0.5;" width="64" x="573.5" y="857.3672"/><text fill="#000000" font-family="sans-serif" font-size="14" lengthAdjust="spacing" textLength="50" x="580.5" y="877.041">:System</text><rect fill="#FFFFFF" height="722.0859" style="stroke:#181818;stroke-width:1.0;" width="10" x="48.5" y="127.2813"/><rect fill="#FFFFFF" height="28.5234" style="stroke:#181818;stroke-width:1.0;" width="10" x="600.5" y="147.8047"/><rect fill="#FFFFFF" height="28.5234" style="stroke:#181818;stroke-width:1.0;" width="10" x="600.5" y="204.8516"/><rect fill="#FFFFFF" height="28.5234" style="stroke:#181818;stroke-width:1.0;" width="10" x="600.5" y="285.4219"/><rect fill="#FFFFFF" height="506.8984" style="stroke:#181818;stroke-width:1.0;" width="10" x="600.5" y="342.4688"/><rect fill="#FFFFFF" height="28.5234" style="stroke:#181818;stroke-width:1.0;" width="10" x="605.5" y="372.9922"/><rect fill="#FFFFFF" height="59.0469" style="stroke:#181818;stroke-width:1.0;" width="10" x="605.5" y="430.0391"/><rect fill="#FFFFFF" height="94.5703" style="stroke:#181818;stroke-width:1.0;" width="10" x="605.5" y="517.6094"/><rect fill="#FFFFFF" height="28.5234" style="stroke:#181818;stroke-width:1.0;" width="10" x="605.5" y="640.7031"/><rect fill="#FFFFFF" height="28.5234" style="stroke:#181818;stroke-width:1.0;" width="10" x="605.5" y="697.75"/><rect fill="#FFFFFF" height="28.5234" style="stroke:#181818;stroke-width:1.0;" width="10" x="605.5" y="754.7969"/><rect fill="#FFFFFF" height="28.5234" style="stroke:#181818;stroke-width:1.0;" width="10" x="605.5" y="811.8438"/><polygon fill="#181818" points="588.5,143.8047,598.5,147.8047,588.5,151.8047,592.5,147.8047" style="stroke:#181818;stroke-width:1.0;"/><line style="stroke:#181818;stroke-width:1.0;" x1="58.5" x2="594.5" y1="147.8047" y2="147.8047"/><text fill="#000000" font-family="sans-serif" font-size="13" font-weight="bold" lengthAdjust="spacing" textLength="7" x="65.5" y="143.0498">1</text><text fill="#000000" font-family="sans-serif" font-size="13" lengthAdjust="spacing" textLength="262" x="76.5" y="143.0498">asks to submit a request for listing a property</text><polygon fill="#181818" points="69.5,172.3281,59.5,176.3281,69.5,180.3281,65.5,176.3281" style="stroke:#181818;stroke-width:1.0;"/><line style="stroke:#181818;stroke-width:1.0;stroke-dasharray:2.0,2.0;" x1="63.5" x2="604.5" y1="176.3281" y2="176.3281"/><text fill="#000000" font-family="sans-serif" font-size="13" font-weight="bold" lengthAdjust="spacing" textLength="7" x="75.5" y="171.5732">2</text><text fill="#000000" font-family="sans-serif" font-size="13" lengthAdjust="spacing" textLength="459" x="86.5" y="171.5732">shows property  category list (apartment, house or land) and asks to select one</text><polygon fill="#181818" points="588.5,200.8516,598.5,204.8516,588.5,208.8516,592.5,204.8516" style="stroke:#181818;stroke-width:1.0;"/><line style="stroke:#181818;stroke-width:1.0;" x1="58.5" x2="594.5" y1="204.8516" y2="204.8516"/><text fill="#000000" font-family="sans-serif" font-size="13" font-weight="bold" lengthAdjust="spacing" textLength="7" x="65.5" y="200.0967">3</text><text fill="#000000" font-family="sans-serif" font-size="13" lengthAdjust="spacing" textLength="158" x="76.5" y="200.0967">selects a property category</text><polygon fill="#181818" points="69.5,229.375,59.5,233.375,69.5,237.375,65.5,233.375" style="stroke:#181818;stroke-width:1.0;"/><line style="stroke:#181818;stroke-width:1.0;stroke-dasharray:2.0,2.0;" x1="63.5" x2="604.5" y1="233.375" y2="233.375"/><text fill="#000000" font-family="sans-serif" font-size="13" font-weight="bold" lengthAdjust="spacing" textLength="7" x="75.5" y="228.6201">4</text><text fill="#000000" font-family="sans-serif" font-size="13" lengthAdjust="spacing" textLength="424" x="86.5" y="228.6201">shows announcement category list (sale or rental) and asks to select one</text><path d="M20,248.375 L81,248.375 L81,254.8984 L71,264.8984 L20,264.8984 L20,248.375 " fill="#EEEEEE" style="stroke:#000000;stroke-width:1.5;"/><rect fill="none" height="189.6641" style="stroke:#000000;stroke-width:1.5;" width="627.5" x="20" y="248.375"/><text fill="#000000" font-family="sans-serif" font-size="13" font-weight="bold" lengthAdjust="spacing" textLength="16" x="35" y="261.1436">alt</text><polygon fill="#181818" points="588.5,281.4219,598.5,285.4219,588.5,289.4219,592.5,285.4219" style="stroke:#181818;stroke-width:1.0;"/><line style="stroke:#181818;stroke-width:1.0;" x1="58.5" x2="594.5" y1="285.4219" y2="285.4219"/><text fill="#000000" font-family="sans-serif" font-size="13" font-weight="bold" lengthAdjust="spacing" textLength="7" x="65.5" y="280.667">5</text><text fill="#000000" font-family="sans-serif" font-size="13" lengthAdjust="spacing" textLength="70" x="76.5" y="280.667">selects sale</text><polygon fill="#181818" points="69.5,309.9453,59.5,313.9453,69.5,317.9453,65.5,313.9453" style="stroke:#181818;stroke-width:1.0;"/><line style="stroke:#181818;stroke-width:1.0;stroke-dasharray:2.0,2.0;" x1="63.5" x2="604.5" y1="313.9453" y2="313.9453"/><text fill="#000000" font-family="sans-serif" font-size="13" font-weight="bold" lengthAdjust="spacing" textLength="7" x="75.5" y="309.1904">6</text><text fill="#000000" font-family="sans-serif" font-size="13" lengthAdjust="spacing" textLength="82" x="86.5" y="309.1904">requests price</text><polygon fill="#181818" points="588.5,338.4688,598.5,342.4688,588.5,346.4688,592.5,342.4688" style="stroke:#181818;stroke-width:1.0;"/><line style="stroke:#181818;stroke-width:1.0;" x1="58.5" x2="594.5" y1="342.4688" y2="342.4688"/><text fill="#000000" font-family="sans-serif" font-size="13" font-weight="bold" lengthAdjust="spacing" textLength="7" x="65.5" y="337.7139">7</text><text fill="#000000" font-family="sans-serif" font-size="13" lengthAdjust="spacing" textLength="92" x="76.5" y="337.7139">introduces price</text><line style="stroke:#000000;stroke-width:1.0;stroke-dasharray:2.0,2.0;" x1="20" x2="647.5" y1="351.4688" y2="351.4688"/><polygon fill="#181818" points="593.5,368.9922,603.5,372.9922,593.5,376.9922,597.5,372.9922" style="stroke:#181818;stroke-width:1.0;"/><line style="stroke:#181818;stroke-width:1.0;" x1="58.5" x2="599.5" y1="372.9922" y2="372.9922"/><text fill="#000000" font-family="sans-serif" font-size="13" font-weight="bold" lengthAdjust="spacing" textLength="7" x="65.5" y="368.2373">8</text><text fill="#000000" font-family="sans-serif" font-size="13" lengthAdjust="spacing" textLength="78" x="76.5" y="368.2373">selects rental</text><polygon fill="#181818" points="69.5,397.5156,59.5,401.5156,69.5,405.5156,65.5,401.5156" style="stroke:#181818;stroke-width:1.0;"/><line style="stroke:#181818;stroke-width:1.0;stroke-dasharray:2.0,2.0;" x1="63.5" x2="599.5" y1="401.5156" y2="401.5156"/><text fill="#000000" font-family="sans-serif" font-size="13" font-weight="bold" lengthAdjust="spacing" textLength="7" x="75.5" y="396.7607">9</text><text fill="#000000" font-family="sans-serif" font-size="13" lengthAdjust="spacing" textLength="126" x="86.5" y="396.7607">requests monthly rent</text><polygon fill="#181818" points="593.5,426.0391,603.5,430.0391,593.5,434.0391,597.5,430.0391" style="stroke:#181818;stroke-width:1.0;"/><line style="stroke:#181818;stroke-width:1.0;" x1="58.5" x2="599.5" y1="430.0391" y2="430.0391"/><text fill="#000000" font-family="sans-serif" font-size="13" font-weight="bold" lengthAdjust="spacing" textLength="14" x="65.5" y="425.2842">10</text><text fill="#000000" font-family="sans-serif" font-size="13" lengthAdjust="spacing" textLength="136" x="83.5" y="425.2842">introduces monthly rent</text><path d="M10,452.0391 L83,452.0391 L83,458.5625 L73,468.5625 L10,468.5625 L10,452.0391 " fill="#EEEEEE" style="stroke:#000000;stroke-width:1.5;"/><rect fill="none" height="132.6172" style="stroke:#000000;stroke-width:1.5;" width="647.5" x="10" y="452.0391"/><text fill="#000000" font-family="sans-serif" font-size="13" font-weight="bold" lengthAdjust="spacing" textLength="28" x="25" y="464.8076">loop</text><polygon fill="#181818" points="69.5,485.0859,59.5,489.0859,69.5,493.0859,65.5,489.0859" style="stroke:#181818;stroke-width:1.0;"/><line style="stroke:#181818;stroke-width:1.0;stroke-dasharray:2.0,2.0;" x1="63.5" x2="599.5" y1="489.0859" y2="489.0859"/><text fill="#000000" font-family="sans-serif" font-size="13" font-weight="bold" lengthAdjust="spacing" textLength="14" x="75.5" y="484.3311">11</text><text fill="#000000" font-family="sans-serif" font-size="13" lengthAdjust="spacing" textLength="125" x="93.5" y="484.3311">requests photographs</text><polygon fill="#181818" points="593.5,513.6094,603.5,517.6094,593.5,521.6094,597.5,517.6094" style="stroke:#181818;stroke-width:1.0;"/><line style="stroke:#181818;stroke-width:1.0;" x1="58.5" x2="599.5" y1="517.6094" y2="517.6094"/><text fill="#000000" font-family="sans-serif" font-size="13" font-weight="bold" lengthAdjust="spacing" textLength="14" x="65.5" y="512.8545">12</text><text fill="#000000" font-family="sans-serif" font-size="13" lengthAdjust="spacing" textLength="218" x="83.5" y="512.8545">introduces the URI of the photograghs</text><path d="M20,532.6094 L101,532.6094 L101,539.1328 L91,549.1328 L20,549.1328 L20,532.6094 " fill="#EEEEEE" style="stroke:#000000;stroke-width:1.5;"/><rect fill="none" height="45.0469" style="stroke:#000000;stroke-width:1.5;" width="627.5" x="20" y="532.6094"/><text fill="#000000" font-family="sans-serif" font-size="13" font-weight="bold" lengthAdjust="spacing" textLength="36" x="35" y="545.3779">break</text><polygon fill="#181818" points="593.5,565.6563,603.5,569.6563,593.5,573.6563,597.5,569.6563" style="stroke:#181818;stroke-width:1.0;"/><line style="stroke:#181818;stroke-width:1.0;" x1="58.5" x2="599.5" y1="569.6563" y2="569.6563"/><text fill="#000000" font-family="sans-serif" font-size="13" font-weight="bold" lengthAdjust="spacing" textLength="14" x="65.5" y="564.9014">13</text><text fill="#000000" font-family="sans-serif" font-size="13" lengthAdjust="spacing" textLength="118" x="83.5" y="564.9014">introduces a number</text><polygon fill="#181818" points="69.5,608.1797,59.5,612.1797,69.5,616.1797,65.5,612.1797" style="stroke:#181818;stroke-width:1.0;"/><line style="stroke:#181818;stroke-width:1.0;stroke-dasharray:2.0,2.0;" x1="63.5" x2="599.5" y1="612.1797" y2="612.1797"/><text fill="#000000" font-family="sans-serif" font-size="13" font-weight="bold" lengthAdjust="spacing" textLength="14" x="75.5" y="607.4248">14</text><text fill="#000000" font-family="sans-serif" font-size="13" lengthAdjust="spacing" textLength="117" x="93.5" y="607.4248">requests information</text><polygon fill="#181818" points="593.5,636.7031,603.5,640.7031,593.5,644.7031,597.5,640.7031" style="stroke:#181818;stroke-width:1.0;"/><line style="stroke:#181818;stroke-width:1.0;" x1="58.5" x2="599.5" y1="640.7031" y2="640.7031"/><text fill="#000000" font-family="sans-serif" font-size="13" font-weight="bold" lengthAdjust="spacing" textLength="14" x="65.5" y="635.9482">15</text><text fill="#000000" font-family="sans-serif" font-size="13" lengthAdjust="spacing" textLength="397" x="83.5" y="635.9482">introduces requested information (property charactheristics, address)</text><polygon fill="#181818" points="69.5,665.2266,59.5,669.2266,69.5,673.2266,65.5,669.2266" style="stroke:#181818;stroke-width:1.0;"/><line style="stroke:#181818;stroke-width:1.0;stroke-dasharray:2.0,2.0;" x1="63.5" x2="599.5" y1="669.2266" y2="669.2266"/><text fill="#000000" font-family="sans-serif" font-size="13" font-weight="bold" lengthAdjust="spacing" textLength="14" x="75.5" y="664.4717">16</text><text fill="#000000" font-family="sans-serif" font-size="13" lengthAdjust="spacing" textLength="281" x="93.5" y="664.4717">shows list of all agencies and asks to select one</text><polygon fill="#181818" points="593.5,693.75,603.5,697.75,593.5,701.75,597.5,697.75" style="stroke:#181818;stroke-width:1.0;"/><line style="stroke:#181818;stroke-width:1.0;" x1="58.5" x2="599.5" y1="697.75" y2="697.75"/><text fill="#000000" font-family="sans-serif" font-size="13" font-weight="bold" lengthAdjust="spacing" textLength="14" x="65.5" y="692.9951">17</text><text fill="#000000" font-family="sans-serif" font-size="13" lengthAdjust="spacing" textLength="185" x="83.5" y="692.9951">chooses an agency from the list</text><polygon fill="#181818" points="69.5,722.2734,59.5,726.2734,69.5,730.2734,65.5,726.2734" style="stroke:#181818;stroke-width:1.0;"/><line style="stroke:#181818;stroke-width:1.0;stroke-dasharray:2.0,2.0;" x1="63.5" x2="599.5" y1="726.2734" y2="726.2734"/><text fill="#000000" font-family="sans-serif" font-size="13" font-weight="bold" lengthAdjust="spacing" textLength="14" x="75.5" y="721.5186">18</text><text fill="#000000" font-family="sans-serif" font-size="13" lengthAdjust="spacing" textLength="500" x="93.5" y="721.5186">shows list of agents available that work on the selected agency and asks to select one</text><polygon fill="#181818" points="593.5,750.7969,603.5,754.7969,593.5,758.7969,597.5,754.7969" style="stroke:#181818;stroke-width:1.0;"/><line style="stroke:#181818;stroke-width:1.0;" x1="58.5" x2="599.5" y1="754.7969" y2="754.7969"/><text fill="#000000" font-family="sans-serif" font-size="13" font-weight="bold" lengthAdjust="spacing" textLength="14" x="65.5" y="750.042">19</text><text fill="#000000" font-family="sans-serif" font-size="13" lengthAdjust="spacing" textLength="175" x="83.5" y="750.042">chooses an agent from the list</text><polygon fill="#181818" points="69.5,779.3203,59.5,783.3203,69.5,787.3203,65.5,783.3203" style="stroke:#181818;stroke-width:1.0;"/><line style="stroke:#181818;stroke-width:1.0;stroke-dasharray:2.0,2.0;" x1="63.5" x2="599.5" y1="783.3203" y2="783.3203"/><text fill="#000000" font-family="sans-serif" font-size="13" font-weight="bold" lengthAdjust="spacing" textLength="14" x="75.5" y="778.5654">20</text><text fill="#000000" font-family="sans-serif" font-size="13" lengthAdjust="spacing" textLength="229" x="93.5" y="778.5654">shows all data and request confirmation</text><polygon fill="#181818" points="593.5,807.8438,603.5,811.8438,593.5,815.8438,597.5,811.8438" style="stroke:#181818;stroke-width:1.0;"/><line style="stroke:#181818;stroke-width:1.0;" x1="58.5" x2="599.5" y1="811.8438" y2="811.8438"/><text fill="#000000" font-family="sans-serif" font-size="13" font-weight="bold" lengthAdjust="spacing" textLength="14" x="65.5" y="807.0889">21</text><text fill="#000000" font-family="sans-serif" font-size="13" lengthAdjust="spacing" textLength="49" x="83.5" y="807.0889">confirms</text><polygon fill="#181818" points="69.5,836.3672,59.5,840.3672,69.5,844.3672,65.5,840.3672" style="stroke:#181818;stroke-width:1.0;"/><line style="stroke:#181818;stroke-width:1.0;stroke-dasharray:2.0,2.0;" x1="63.5" x2="599.5" y1="840.3672" y2="840.3672"/><text fill="#000000" font-family="sans-serif" font-size="13" font-weight="bold" lengthAdjust="spacing" textLength="14" x="75.5" y="835.6123">22</text><text fill="#000000" font-family="sans-serif" font-size="13" lengthAdjust="spacing" textLength="156" x="93.5" y="835.6123">informs operatrion success</text><!--SRC=[jLMzRjim4Dxr50TFDX036Jfvw9IbKu4AUO0pTPO8KpoLFCNGs_T8oOfHnt4jf1e40jHzF_UdUBI-mu0jjEpPD85R0Waz5N6-wT0SiQPI1aSGo0Zwsbr-41ki-6Hz3GTqaGhiXNtVxYaKXLZHg7A8GYsKzBidRmXUBDOfSbsMBnlOmclv_FojG2CSOFNpv2ci02FaKw4aOetjq0kiTYDKlXwFHOgpRoWqVL-0Fla8s-zdwfq672C8G-pthHL0jQ9gei11IPsDaWmWT84x2Z9ab1dvJ0NJCw5kbM1ascaM-1JdS02ZSJM78MF36fEDbhmyGSDz94YiwAiDwEjT73bDCB2dJ5NHXmgkpOrnyKB_pF-faPi-q7lkjLH9yTzM8heiF-WTkaSDe9DxBXB1RTaVQ9vAcT9lpOEfiru2LxsXo-YhM4gDVKVsc8-76sSMhoCeZHiopc8FLo3NLbAvj0YEkVidNLt3mZglNHCNovA6uFNN3-13FfuXwmdo2d0V28_tOH7EYoQv6eFIwTBRPzQir-blKIpxnTOcCAekqM3zFeYDRacZhaDQCYO-0LPLe1Wt2tTCda9D93e7kfYziIaJNx15JCCSCzQ8Ey11VmYvO8bpsIQPrIfYsb1lQ1tkTOD8Wm8d3aSLcZb6sPh7YVm_M9AlS9JoNg5W5dZ-YnZs1xkebQR8-AYOiTiYf3P32QdfOc-q8szEQV47]--></g></svg>