<?xml version="1.0" encoding="us-ascii" standalone="no"?><svg xmlns="http://www.w3.org/2000/svg" xmlns:xlink="http://www.w3.org/1999/xlink" contentStyleType="text/css" height="662.4px" preserveAspectRatio="none" style="width:374px;height:662px;background:#FFFFFF;" version="1.1" viewBox="0 0 374 662" width="374.4px" zoomAndPan="magnify"><defs/><g><text fill="#000000" font-family="sans-serif" font-size="12.6" font-weight="bold" lengthAdjust="spacing" textLength="255.6" x="60.975" y="27.0967">System Sequence Diagram (SSD) - US003</text><rect fill="#FFFFFF" height="451.7525" style="stroke:#181818;stroke-width:0.9;" width="9" x="62.55" y="119.918"/><rect fill="#FFFFFF" height="59.2857" style="stroke:#181818;stroke-width:0.9;" width="9" x="318.15" y="140.8799"/><rect fill="#FFFFFF" height="28.1619" style="stroke:#181818;stroke-width:0.9;" width="9" x="318.15" y="228.3275"/><rect fill="#FFFFFF" height="51.8238" style="stroke:#181818;stroke-width:0.9;" width="9" x="318.15" y="284.6514"/><rect fill="#FFFFFF" height="28.1619" style="stroke:#181818;stroke-width:0.9;" width="9" x="318.15" y="364.6371"/><rect fill="#FFFFFF" height="70.7238" style="stroke:#181818;stroke-width:0.9;" width="9" x="318.15" y="444.6229"/><rect fill="#FFFFFF" height="28.1619" style="stroke:#181818;stroke-width:0.9;" width="9" x="318.15" y="543.5086"/><rect fill="none" height="189.9334" style="stroke:#000000;stroke-width:1.35;" width="360.45" x="9" y="298.1514"/><rect fill="none" height="75.4857" style="stroke:#000000;stroke-width:1.35;" width="342.45" x="18" y="406.299"/><line style="stroke:#181818;stroke-width:0.45;stroke-dasharray:5.0,5.0;" x1="66.6" x2="66.6" y1="110.918" y2="587.8705"/><line style="stroke:#181818;stroke-width:0.45;stroke-dasharray:5.0,5.0;" x1="322.65" x2="322.65" y1="110.918" y2="587.8705"/><text fill="#000000" font-family="sans-serif" font-size="12.6" lengthAdjust="spacing" textLength="74.7" x="27" y="107.7557">Administrator</text><ellipse cx="67.05" cy="47.809" fill="#E3E3E3" rx="7.2" ry="7.2" style="stroke:#181818;stroke-width:0.45;"/><path d="M67.05,55.009 L67.05,79.309 M55.35,62.209 L78.75,62.209 M67.05,79.309 L55.35,92.809 M67.05,79.309 L78.75,92.809 " fill="none" style="stroke:#181818;stroke-width:0.45;"/><text fill="#000000" font-family="sans-serif" font-size="12.6" lengthAdjust="spacing" textLength="74.7" x="27" y="600.5672">Administrator</text><ellipse cx="67.05" cy="611.3795" fill="#E3E3E3" rx="7.2" ry="7.2" style="stroke:#181818;stroke-width:0.45;"/><path d="M67.05,618.5795 L67.05,642.8795 M55.35,625.7795 L78.75,625.7795 M67.05,642.8795 L55.35,656.3795 M67.05,642.8795 L78.75,656.3795 " fill="none" style="stroke:#181818;stroke-width:0.45;"/><rect fill="#E3E3E3" height="29.359" rx="2.25" ry="2.25" style="stroke:#181818;stroke-width:0.45;" width="57.6" x="293.85" y="80.659"/><text fill="#000000" font-family="sans-serif" font-size="12.6" lengthAdjust="spacing" textLength="45" x="300.15" y="100.5557">:System</text><rect fill="#E3E3E3" height="29.359" rx="2.25" ry="2.25" style="stroke:#181818;stroke-width:0.45;" width="57.6" x="293.85" y="586.9705"/><text fill="#000000" font-family="sans-serif" font-size="12.6" lengthAdjust="spacing" textLength="45" x="300.15" y="606.8672">:System</text><rect fill="#FFFFFF" height="451.7525" style="stroke:#181818;stroke-width:0.9;" width="9" x="62.55" y="119.918"/><rect fill="#FFFFFF" height="59.2857" style="stroke:#181818;stroke-width:0.9;" width="9" x="318.15" y="140.8799"/><rect fill="#FFFFFF" height="28.1619" style="stroke:#181818;stroke-width:0.9;" width="9" x="318.15" y="228.3275"/><rect fill="#FFFFFF" height="51.8238" style="stroke:#181818;stroke-width:0.9;" width="9" x="318.15" y="284.6514"/><rect fill="#FFFFFF" height="28.1619" style="stroke:#181818;stroke-width:0.9;" width="9" x="318.15" y="364.6371"/><rect fill="#FFFFFF" height="70.7238" style="stroke:#181818;stroke-width:0.9;" width="9" x="318.15" y="444.6229"/><rect fill="#FFFFFF" height="28.1619" style="stroke:#181818;stroke-width:0.9;" width="9" x="318.15" y="543.5086"/><polygon fill="#181818" points="307.35,137.2799,316.35,140.8799,307.35,144.4799,310.95,140.8799" style="stroke:#181818;stroke-width:0.9;"/><line style="stroke:#181818;stroke-width:0.9;" x1="71.55" x2="312.75" y1="140.8799" y2="140.8799"/><text fill="#000000" font-family="sans-serif" font-size="11.7" lengthAdjust="spacing" textLength="162.9" x="77.85" y="136.1435">asks to create a new employee</text><polygon fill="#181818" points="81.45,196.5656,72.45,200.1656,81.45,203.7656,77.85,200.1656" style="stroke:#181818;stroke-width:0.9;"/><line style="stroke:#181818;stroke-width:0.9;stroke-dasharray:2.0,2.0;" x1="76.05" x2="321.75" y1="200.1656" y2="200.1656"/><text fill="#000000" font-family="sans-serif" font-size="11.7" lengthAdjust="spacing" textLength="129.6" x="86.85" y="164.3054">asks for employee's data</text><text fill="#000000" font-family="sans-serif" font-size="11.7" lengthAdjust="spacing" textLength="206.1" x="86.85" y="179.8673">(name, citizenCardNumber, taxNumber,</text><text fill="#000000" font-family="sans-serif" font-size="11.7" lengthAdjust="spacing" textLength="159.3" x="90.45" y="195.4292">location, email, phoneNumber)</text><polygon fill="#181818" points="307.35,224.7275,316.35,228.3275,307.35,231.9275,310.95,228.3275" style="stroke:#181818;stroke-width:0.9;"/><line style="stroke:#181818;stroke-width:0.9;" x1="71.55" x2="312.75" y1="228.3275" y2="228.3275"/><text fill="#000000" font-family="sans-serif" font-size="11.7" lengthAdjust="spacing" textLength="119.7" x="77.85" y="223.5911">types the required data</text><polygon fill="#181818" points="81.45,252.8895,72.45,256.4895,81.45,260.0895,77.85,256.4895" style="stroke:#181818;stroke-width:0.9;"/><line style="stroke:#181818;stroke-width:0.9;stroke-dasharray:2.0,2.0;" x1="76.05" x2="321.75" y1="256.4895" y2="256.4895"/><text fill="#000000" font-family="sans-serif" font-size="11.7" lengthAdjust="spacing" textLength="159.3" x="86.85" y="251.753">shows list of existing agencies</text><polygon fill="#181818" points="307.35,281.0514,316.35,284.6514,307.35,288.2514,310.95,284.6514" style="stroke:#181818;stroke-width:0.9;"/><line style="stroke:#181818;stroke-width:0.9;" x1="71.55" x2="312.75" y1="284.6514" y2="284.6514"/><text fill="#000000" font-family="sans-serif" font-size="11.7" lengthAdjust="spacing" textLength="95.4" x="77.85" y="279.9149">selects an agency</text><path d="M9,298.1514 L74.7,298.1514 L74.7,306.5133 L65.7,315.5133 L9,315.5133 L9,298.1514 " fill="#EEEEEE" style="stroke:#000000;stroke-width:1.35;"/><rect fill="none" height="189.9334" style="stroke:#000000;stroke-width:1.35;" width="360.45" x="9" y="298.1514"/><text fill="#000000" font-family="sans-serif" font-size="11.7" font-weight="bold" lengthAdjust="spacing" textLength="25.2" x="22.5" y="311.6769">loop</text><polygon fill="#181818" points="81.45,332.8752,72.45,336.4752,81.45,340.0752,77.85,336.4752" style="stroke:#181818;stroke-width:0.9;"/><line style="stroke:#181818;stroke-width:0.9;stroke-dasharray:2.0,2.0;" x1="76.05" x2="321.75" y1="336.4752" y2="336.4752"/><text fill="#000000" font-family="sans-serif" font-size="11.7" lengthAdjust="spacing" textLength="62.1" x="86.85" y="331.7388">shows roles</text><polygon fill="#181818" points="307.35,361.0371,316.35,364.6371,307.35,368.2371,310.95,364.6371" style="stroke:#181818;stroke-width:0.9;"/><line style="stroke:#181818;stroke-width:0.9;" x1="71.55" x2="312.75" y1="364.6371" y2="364.6371"/><text fill="#000000" font-family="sans-serif" font-size="11.7" lengthAdjust="spacing" textLength="86.4" x="77.85" y="359.9007">chooses the role</text><polygon fill="#181818" points="81.45,389.199,72.45,392.799,81.45,396.399,77.85,392.799" style="stroke:#181818;stroke-width:0.9;"/><line style="stroke:#181818;stroke-width:0.9;stroke-dasharray:2.0,2.0;" x1="76.05" x2="321.75" y1="392.799" y2="392.799"/><text fill="#000000" font-family="sans-serif" font-size="11.7" lengthAdjust="spacing" textLength="225" x="86.85" y="388.0626">asks if Admin wants to choose another role</text><path d="M18,406.299 L72.9,406.299 L72.9,414.6609 L63.9,423.6609 L18,423.6609 L18,406.299 " fill="#EEEEEE" style="stroke:#000000;stroke-width:1.35;"/><rect fill="none" height="75.4857" style="stroke:#000000;stroke-width:1.35;" width="342.45" x="18" y="406.299"/><text fill="#000000" font-family="sans-serif" font-size="11.7" font-weight="bold" lengthAdjust="spacing" textLength="14.4" x="31.5" y="419.8245">alt</text><polygon fill="#181818" points="307.35,441.0229,316.35,444.6229,307.35,448.2229,310.95,444.6229" style="stroke:#181818;stroke-width:0.9;"/><line style="stroke:#181818;stroke-width:0.9;" x1="71.55" x2="312.75" y1="444.6229" y2="444.6229"/><text fill="#000000" font-family="sans-serif" font-size="11.7" lengthAdjust="spacing" textLength="44.1" x="77.85" y="439.8864">confirms</text><line style="stroke:#000000;stroke-width:0.9;stroke-dasharray:2.0,2.0;" x1="18" x2="360.45" y1="452.7229" y2="452.7229"/><polygon fill="#181818" points="307.35,470.9848,316.35,474.5848,307.35,478.1848,310.95,474.5848" style="stroke:#181818;stroke-width:0.9;"/><line style="stroke:#181818;stroke-width:0.9;" x1="71.55" x2="312.75" y1="474.5848" y2="474.5848"/><text fill="#000000" font-family="sans-serif" font-size="11.7" lengthAdjust="spacing" textLength="164.7" x="77.85" y="469.8483">negates (breaks out of the loop)</text><polygon fill="#181818" points="81.45,511.7467,72.45,515.3467,81.45,518.9467,77.85,515.3467" style="stroke:#181818;stroke-width:0.9;"/><line style="stroke:#181818;stroke-width:0.9;stroke-dasharray:2.0,2.0;" x1="76.05" x2="321.75" y1="515.3467" y2="515.3467"/><text fill="#000000" font-family="sans-serif" font-size="11.7" lengthAdjust="spacing" textLength="189.9" x="86.85" y="510.6103">generates password and shows data</text><polygon fill="#181818" points="307.35,539.9086,316.35,543.5086,307.35,547.1086,310.95,543.5086" style="stroke:#181818;stroke-width:0.9;"/><line style="stroke:#181818;stroke-width:0.9;" x1="71.55" x2="312.75" y1="543.5086" y2="543.5086"/><text fill="#000000" font-family="sans-serif" font-size="11.7" lengthAdjust="spacing" textLength="44.1" x="77.85" y="538.7722">confirms</text><polygon fill="#181818" points="76.95,568.0705,67.95,571.6705,76.95,575.2705,73.35,571.6705" style="stroke:#181818;stroke-width:0.9;"/><line style="stroke:#181818;stroke-width:0.9;stroke-dasharray:2.0,2.0;" x1="71.55" x2="321.75" y1="571.6705" y2="571.6705"/><text fill="#000000" font-family="sans-serif" font-size="11.7" lengthAdjust="spacing" textLength="201.6" x="82.35" y="566.9341">new employee registered with success</text><!--SRC=[bLCzR-Cm3DtzAuWkJO04A71RXmEATkvYTEl2IhGjH1PTKQxh-_L7oKakEBW1iXZwu7jwxv6MWmi3HkoXvy2cYzmJf3XI9UUR0Sq1MwhJx0aYcOIXzPS5qg7boOKM6lH2LPLSqj9wbaGzrFGvKZ04BmxRNBwfwvSjxE6jVdZuLQ597E79zYuuIH7p3cKvgFAj-y94nttvmlutt3qkx7VmgDK7WSHW8kLAX40JK3zuded-CPmXLNLUxfLguJpIDFhw2NelO37XUzW4x6a7nYNtXy8pHliwzXyKTv3m-xXy3u3MHXBPAG4wluEXuq3BzRQoj2ParK-Q1r93NGxxStIHRD5ntGbSMf6E9m6lUG8tGD-woDtH9WRZI6uH8-Irum8O5lYyAiCp3zV5HFQtFMmwPZdbeE0Rx9TEkkQudp2aPJuAepfXvOmBwReWzEadLHmQ5tjPLKDb-5TnWLej5jXyw92gEXvBQxAvdDssKdImK1xEY_y2LNSdSze4YeLhG969ew8KiAHSvkIMaA_PMG_tykVI0MrrjYYFwEHI1p8Qex_03n8kJWlRNm00]--></g></svg>